<svg xmlns="http://www.w3.org/2000/svg" xmlns:rdkit="http://www.rdkit.org/xml" xmlns:xlink="http://www.w3.org/1999/xlink" version="1.1" baseProfile="full" xml:space="preserve" width="150px" height="150px" viewBox="0 0 150 150">
<!-- END OF HEADER -->
<rect style="opacity:1.0;fill:#FFFFFF;stroke:none" width="150.0" height="150.0" x="0.0" y="0.0"> </rect>
<ellipse cx="77.6" cy="76.5" rx="13.1" ry="13.1" class="atom-1" style="fill:#CCCCCC;fill-rule:evenodd;stroke:#CCCCCC;stroke-width:1.0px;stroke-linecap:butt;stroke-linejoin:miter;stroke-opacity:1"/>
<ellipse cx="115.9" cy="129.4" rx="13.1" ry="13.1" class="atom-2" style="fill:#9999E5;fill-rule:evenodd;stroke:#9999E5;stroke-width:1.0px;stroke-linecap:butt;stroke-linejoin:miter;stroke-opacity:1"/>
<path class="bond-0 atom-0 atom-1" d="M 108.3,20.1 L 80.9,81.1" style="fill:none;fill-rule:evenodd;stroke:#E5E5E5;stroke-width:3.5px;stroke-linecap:butt;stroke-linejoin:miter;stroke-opacity:1"/>
<path class="bond-0 atom-0 atom-1" d="M 99.3,16.1 L 72.0,77.1" style="fill:none;fill-rule:evenodd;stroke:#E5E5E5;stroke-width:3.5px;stroke-linecap:butt;stroke-linejoin:miter;stroke-opacity:1"/>
<path class="bond-1 atom-1 atom-2" d="M 77.6,76.5 L 92.6,97.2" style="fill:none;fill-rule:evenodd;stroke:#000000;stroke-width:2.0px;stroke-linecap:butt;stroke-linejoin:miter;stroke-opacity:1"/>
<path class="bond-1 atom-1 atom-2" d="M 92.6,97.2 L 107.6,117.9" style="fill:none;fill-rule:evenodd;stroke:#FF0000;stroke-width:2.0px;stroke-linecap:butt;stroke-linejoin:miter;stroke-opacity:1"/>
<path class="bond-2 atom-1 atom-3" d="M 77.6,76.5 L 19.2,82.5" style="fill:none;fill-rule:evenodd;stroke:#E5E5E5;stroke-width:3.5px;stroke-linecap:butt;stroke-linejoin:miter;stroke-opacity:1"/>
<path d="M 78.0,77.0 L 77.6,76.5 L 76.2,76.7" style="fill:none;stroke:#000000;stroke-width:2.0px;stroke-linecap:butt;stroke-linejoin:miter;stroke-opacity:1;"/>
<path class="atom-0" d="M 100.8 14.8 L 103.6 12.1 L 100.0 11.3 L 100.5 9.5 L 103.8 11.2 L 103.4 7.5 L 105.3 7.5 L 104.8 11.1 L 108.1 9.6 L 108.7 11.3 L 105.1 12.0 L 107.7 14.8 L 106.1 16.0 L 104.3 12.5 L 102.4 16.0 L 100.8 14.8 " fill="#191919"/>
<path class="atom-2" d="M 107.4 129.5 Q 107.4 125.0, 109.6 122.6 Q 111.8 120.1, 115.9 120.1 Q 120.0 120.1, 122.2 122.6 Q 124.4 125.0, 124.4 129.5 Q 124.4 134.0, 122.2 136.5 Q 119.9 139.1, 115.9 139.1 Q 111.8 139.1, 109.6 136.5 Q 107.4 134.0, 107.4 129.5 M 115.9 137.0 Q 118.7 137.0, 120.2 135.1 Q 121.8 133.2, 121.8 129.5 Q 121.8 125.9, 120.2 124.0 Q 118.7 122.2, 115.9 122.2 Q 113.1 122.2, 111.5 124.0 Q 110.0 125.8, 110.0 129.5 Q 110.0 133.2, 111.5 135.1 Q 113.1 137.0, 115.9 137.0 " fill="#FF0000"/>
<path class="atom-2" d="M 127.3 120.3 L 129.8 120.3 L 129.8 128.2 L 139.2 128.2 L 139.2 120.3 L 141.7 120.3 L 141.7 138.8 L 139.2 138.8 L 139.2 130.2 L 129.8 130.2 L 129.8 138.8 L 127.3 138.8 L 127.3 120.3 " fill="#FF0000"/>
<path class="atom-3" d="M 9.2 81.1 L 11.9 78.3 L 8.3 77.6 L 8.8 75.8 L 12.1 77.4 L 11.7 73.8 L 13.6 73.8 L 13.1 77.4 L 16.5 75.8 L 17.0 77.6 L 13.4 78.3 L 16.0 81.1 L 14.4 82.2 L 12.6 78.8 L 10.8 82.2 L 9.2 81.1 " fill="#191919"/>
</svg>