<svg xmlns="http://www.w3.org/2000/svg" xmlns:rdkit="http://www.rdkit.org/xml" xmlns:xlink="http://www.w3.org/1999/xlink" version="1.1" baseProfile="full" xml:space="preserve" width="150px" height="150px" viewBox="0 0 150 150">
<!-- END OF HEADER -->
<rect style="opacity:1.0;fill:#FFFFFF;stroke:none" width="150.0" height="150.0" x="0.0" y="0.0"> </rect>
<ellipse cx="61.5" cy="86.1" rx="14.6" ry="14.6" class="atom-1" style="fill:#9999E5;fill-rule:evenodd;stroke:#9999E5;stroke-width:1.0px;stroke-linecap:butt;stroke-linejoin:miter;stroke-opacity:1"/>
<path class="bond-0 atom-0 atom-1" d="M 126.6,95.6 L 61.5,86.1" style="fill:none;fill-rule:evenodd;stroke:#E5E5E5;stroke-width:3.9px;stroke-linecap:butt;stroke-linejoin:miter;stroke-opacity:1"/>
<path class="bond-1 atom-1 atom-2" d="M 59.1,80.2 L 19.1,130.9" style="fill:none;fill-rule:evenodd;stroke:#E5E5E5;stroke-width:3.9px;stroke-linecap:butt;stroke-linejoin:miter;stroke-opacity:1"/>
<path class="bond-1 atom-1 atom-2" d="M 67.7,87.0 L 27.7,137.7" style="fill:none;fill-rule:evenodd;stroke:#E5E5E5;stroke-width:3.9px;stroke-linecap:butt;stroke-linejoin:miter;stroke-opacity:1"/>
<path class="bond-2 atom-1 atom-3" d="M 61.5,86.1 L 34.9,19.4" style="fill:none;fill-rule:evenodd;stroke:#E5E5E5;stroke-width:3.9px;stroke-linecap:butt;stroke-linejoin:miter;stroke-opacity:1"/>
<path d="M 64.7,86.6 L 61.5,86.1 L 60.1,82.8" style="fill:none;stroke:#E5E5E5;stroke-width:3.9px;stroke-linecap:butt;stroke-linejoin:miter;stroke-opacity:1;"/>
<path class="atom-0" d="M 130.0 94.4 L 133.1 91.3 L 129.0 90.4 L 129.6 88.4 L 133.4 90.2 L 132.8 86.2 L 135.0 86.1 L 134.4 90.2 L 138.2 88.5 L 138.8 90.4 L 134.7 91.2 L 137.7 94.3 L 135.9 95.6 L 133.9 91.8 L 131.8 95.6 L 130.0 94.4 " fill="#191919"/>
<path class="atom-2" d="M 12.2 141.2 L 15.2 138.1 L 11.2 137.3 L 11.8 135.2 L 15.5 137.1 L 15.0 133.0 L 17.2 133.0 L 16.6 137.1 L 20.3 135.3 L 21.0 137.3 L 16.9 138.1 L 19.8 141.2 L 18.0 142.5 L 16.0 138.6 L 13.9 142.5 L 12.2 141.2 " fill="#191919"/>
<path class="atom-3" d="M 30.5 15.7 L 33.5 12.6 L 29.5 11.8 L 30.1 9.7 L 33.8 11.6 L 33.3 7.5 L 35.5 7.5 L 34.9 11.6 L 38.7 9.8 L 39.3 11.8 L 35.2 12.6 L 38.1 15.7 L 36.4 17.0 L 34.3 13.1 L 32.3 17.0 L 30.5 15.7 " fill="#191919"/>
</svg>