<svg xmlns="http://www.w3.org/2000/svg" xmlns:rdkit="http://www.rdkit.org/xml" xmlns:xlink="http://www.w3.org/1999/xlink" version="1.1" baseProfile="full" xml:space="preserve" width="150px" height="150px" viewBox="0 0 150 150">
<!-- END OF HEADER -->
<rect style="opacity:1.0;fill:#FFFFFF;stroke:none" width="150.0" height="150.0" x="0.0" y="0.0"> </rect>
<ellipse cx="87.0" cy="73.8" rx="14.8" ry="14.8" class="atom-1" style="fill:#9999E5;fill-rule:evenodd;stroke:#9999E5;stroke-width:1.0px;stroke-linecap:butt;stroke-linejoin:miter;stroke-opacity:1"/>
<path class="bond-0 atom-0 atom-1" d="M 134.3,19.5 L 87.0,73.8" style="fill:none;fill-rule:evenodd;stroke:#E5E5E5;stroke-width:3.9px;stroke-linecap:butt;stroke-linejoin:miter;stroke-opacity:1"/>
<path class="bond-1 atom-1 atom-2" d="M 80.7,72.5 L 101.2,132.3" style="fill:none;fill-rule:evenodd;stroke:#E5E5E5;stroke-width:3.9px;stroke-linecap:butt;stroke-linejoin:miter;stroke-opacity:1"/>
<path class="bond-1 atom-1 atom-2" d="M 91.2,68.9 L 111.7,128.7" style="fill:none;fill-rule:evenodd;stroke:#E5E5E5;stroke-width:3.9px;stroke-linecap:butt;stroke-linejoin:miter;stroke-opacity:1"/>
<path class="bond-2 atom-1 atom-3" d="M 87.0,73.8 L 21.6,61.0" style="fill:none;fill-rule:evenodd;stroke:#E5E5E5;stroke-width:3.9px;stroke-linecap:butt;stroke-linejoin:miter;stroke-opacity:1"/>
<path d="M 89.3,71.0 L 87.0,73.8 L 83.7,73.1" style="fill:none;stroke:#E5E5E5;stroke-width:3.9px;stroke-linecap:butt;stroke-linejoin:miter;stroke-opacity:1;"/>
<path class="atom-0" d="M 131.5 15.8 L 134.6 12.7 L 130.5 11.8 L 131.1 9.7 L 134.9 11.6 L 134.3 7.5 L 136.6 7.5 L 135.9 11.6 L 139.7 9.8 L 140.4 11.8 L 136.3 12.6 L 139.2 15.8 L 137.4 17.1 L 135.4 13.2 L 133.3 17.1 L 131.5 15.8 " fill="#191919"/>
<path class="atom-2" d="M 107.0 141.2 L 110.0 138.1 L 106.0 137.3 L 106.6 135.2 L 110.3 137.1 L 109.8 133.0 L 112.0 132.9 L 111.4 137.0 L 115.2 135.3 L 115.9 137.3 L 111.7 138.0 L 114.7 141.2 L 112.9 142.5 L 110.8 138.6 L 108.8 142.5 L 107.0 141.2 " fill="#191919"/>
<path class="atom-3" d="M 10.6 57.3 L 13.7 54.1 L 9.6 53.3 L 10.2 51.2 L 14.0 53.1 L 13.4 49.0 L 15.7 49.0 L 15.0 53.1 L 18.8 51.3 L 19.5 53.3 L 15.4 54.1 L 18.3 57.2 L 16.5 58.5 L 14.5 54.6 L 12.4 58.5 L 10.6 57.3 " fill="#191919"/>
</svg>