<svg xmlns="http://www.w3.org/2000/svg" xmlns:rdkit="http://www.rdkit.org/xml" xmlns:xlink="http://www.w3.org/1999/xlink" version="1.1" baseProfile="full" xml:space="preserve" width="150px" height="150px" viewBox="0 0 150 150">
<!-- END OF HEADER -->
<rect style="opacity:1.0;fill:#FFFFFF;stroke:none" width="150.0" height="150.0" x="0.0" y="0.0"> </rect>
<ellipse cx="127.7" cy="91.9" rx="14.6" ry="14.6" class="atom-0" style="fill:#9999E5;fill-rule:evenodd;stroke:#9999E5;stroke-width:1.0px;stroke-linecap:butt;stroke-linejoin:miter;stroke-opacity:1"/>
<ellipse cx="55.3" cy="84.5" rx="14.6" ry="14.6" class="atom-1" style="fill:#CCCCCC;fill-rule:evenodd;stroke:#CCCCCC;stroke-width:1.0px;stroke-linecap:butt;stroke-linejoin:miter;stroke-opacity:1"/>
<path class="bond-0 atom-0 atom-1" d="M 127.7,91.9 L 55.3,84.5" style="fill:none;fill-rule:evenodd;stroke:#000000;stroke-width:2.0px;stroke-linecap:butt;stroke-linejoin:miter;stroke-opacity:1"/>
<path class="bond-1 atom-1 atom-2" d="M 55.3,84.5 L 19.9,133.5" style="fill:none;fill-rule:evenodd;stroke:#E5E5E5;stroke-width:3.9px;stroke-linecap:butt;stroke-linejoin:miter;stroke-opacity:1"/>
<path class="bond-2 atom-3 atom-1" d="M 26.1,19.3 L 55.3,84.5" style="fill:none;fill-rule:evenodd;stroke:#E5E5E5;stroke-width:3.9px;stroke-linecap:butt;stroke-linejoin:miter;stroke-opacity:1"/>
<path class="atom-2" d="M 8.7 141.2 L 11.7 138.2 L 7.7 137.3 L 8.3 135.3 L 12.0 137.1 L 11.5 133.1 L 13.7 133.1 L 13.0 137.1 L 16.8 135.4 L 17.4 137.3 L 13.4 138.1 L 16.3 141.2 L 14.5 142.5 L 12.5 138.7 L 10.5 142.5 L 8.7 141.2 " fill="#191919"/>
<path class="atom-3" d="M 21.6 15.7 L 24.6 12.6 L 20.6 11.8 L 21.2 9.7 L 24.9 11.6 L 24.4 7.5 L 26.5 7.5 L 25.9 11.6 L 29.7 9.8 L 30.3 11.8 L 26.3 12.5 L 29.2 15.7 L 27.4 16.9 L 25.4 13.1 L 23.3 16.9 L 21.6 15.7 " fill="#191919"/>
</svg>