<svg xmlns="http://www.w3.org/2000/svg" xmlns:rdkit="http://www.rdkit.org/xml" xmlns:xlink="http://www.w3.org/1999/xlink" version="1.1" baseProfile="full" xml:space="preserve" width="150px" height="150px" viewBox="0 0 150 150">
<!-- END OF HEADER -->
<rect style="opacity:1.0;fill:#FFFFFF;stroke:none" width="150.0" height="150.0" x="0.0" y="0.0"> </rect>
<ellipse cx="95.6" cy="67.3" rx="8.9" ry="8.9" class="atom-1" style="fill:#E5E533;fill-rule:evenodd;stroke:#E5E533;stroke-width:1.0px;stroke-linecap:butt;stroke-linejoin:miter;stroke-opacity:1"/>
<ellipse cx="79.2" cy="108.6" rx="8.9" ry="8.9" class="atom-2" style="fill:#9999E5;fill-rule:evenodd;stroke:#9999E5;stroke-width:1.0px;stroke-linecap:butt;stroke-linejoin:miter;stroke-opacity:1"/>
<ellipse cx="35.4" cy="115.0" rx="8.9" ry="8.9" class="atom-3" style="fill:#E5E533;fill-rule:evenodd;stroke:#E5E533;stroke-width:1.0px;stroke-linecap:butt;stroke-linejoin:miter;stroke-opacity:1"/>
<path class="bond-0 atom-0 atom-1" d="M 71.4,31.3 L 99.4,66.8" style="fill:none;fill-rule:evenodd;stroke:#E5E5E5;stroke-width:2.4px;stroke-linecap:butt;stroke-linejoin:miter;stroke-opacity:1"/>
<path class="bond-0 atom-0 atom-1" d="M 66.2,35.4 L 94.2,70.9" style="fill:none;fill-rule:evenodd;stroke:#E5E5E5;stroke-width:2.4px;stroke-linecap:butt;stroke-linejoin:miter;stroke-opacity:1;stroke-dasharray:6,4"/>
<path class="bond-1 atom-1 atom-2" d="M 95.6,67.3 L 79.2,108.6" style="fill:none;fill-rule:evenodd;stroke:#000000;stroke-width:2.0px;stroke-linecap:butt;stroke-linejoin:miter;stroke-opacity:1"/>
<path class="bond-1 atom-1 atom-2" d="M 88.0,68.5 L 74.5,102.5" style="fill:none;fill-rule:evenodd;stroke:#000000;stroke-width:2.0px;stroke-linecap:butt;stroke-linejoin:miter;stroke-opacity:1;stroke-dasharray:6,4"/>
<path class="bond-2 atom-2 atom-3" d="M 79.2,108.6 L 35.4,115.0" style="fill:none;fill-rule:evenodd;stroke:#000000;stroke-width:2.0px;stroke-linecap:butt;stroke-linejoin:miter;stroke-opacity:1"/>
<path class="bond-2 atom-2 atom-3" d="M 74.5,102.5 L 38.2,107.8" style="fill:none;fill-rule:evenodd;stroke:#000000;stroke-width:2.0px;stroke-linecap:butt;stroke-linejoin:miter;stroke-opacity:1;stroke-dasharray:6,4"/>
<path class="bond-3 atom-1 atom-4" d="M 95.6,67.3 L 135.1,61.6" style="fill:none;fill-rule:evenodd;stroke:#E5E5E5;stroke-width:2.4px;stroke-linecap:butt;stroke-linejoin:miter;stroke-opacity:1"/>
<path class="bond-4 atom-3 atom-5" d="M 35.4,115.0 L 8.5,81.0" style="fill:none;fill-rule:evenodd;stroke:#E5E5E5;stroke-width:2.4px;stroke-linecap:butt;stroke-linejoin:miter;stroke-opacity:1"/>
<path class="bond-4 atom-3 atom-5" d="M 38.2,107.8 L 13.7,76.9" style="fill:none;fill-rule:evenodd;stroke:#E5E5E5;stroke-width:2.4px;stroke-linecap:butt;stroke-linejoin:miter;stroke-opacity:1;stroke-dasharray:6,4"/>
<path d="M 80.1,106.5 L 79.2,108.6 L 77.1,108.9" style="fill:none;stroke:#000000;stroke-width:2.0px;stroke-linecap:butt;stroke-linejoin:miter;stroke-opacity:1;"/>
<path d="M 36.5,114.8 L 35.4,115.0 L 34.7,114.1" style="fill:none;stroke:#000000;stroke-width:2.0px;stroke-linecap:butt;stroke-linejoin:miter;stroke-opacity:1;"/>
<path class="atom-0" d="M 65.8 31.1 L 67.6 29.3 L 65.2 28.8 L 65.5 27.5 L 67.8 28.6 L 67.5 26.2 L 68.8 26.2 L 68.4 28.6 L 70.7 27.6 L 71.1 28.8 L 68.6 29.2 L 70.4 31.1 L 69.3 31.9 L 68.1 29.6 L 66.9 31.9 L 65.8 31.1 " fill="#191919"/>
<path class="atom-4" d="M 137.2 59.5 L 139.0 57.6 L 136.6 57.2 L 136.9 55.9 L 139.2 57.0 L 138.9 54.6 L 140.2 54.5 L 139.8 57.0 L 142.1 55.9 L 142.5 57.2 L 140.0 57.6 L 141.8 59.5 L 140.7 60.3 L 139.5 58.0 L 138.2 60.3 L 137.2 59.5 " fill="#191919"/>
<path class="atom-5" d="M 8.1 76.7 L 9.9 74.8 L 7.5 74.3 L 7.9 73.1 L 10.1 74.2 L 9.8 71.7 L 11.1 71.7 L 10.8 74.2 L 13.1 73.1 L 13.4 74.3 L 11.0 74.8 L 12.7 76.7 L 11.7 77.5 L 10.4 75.1 L 9.2 77.5 L 8.1 76.7 " fill="#191919"/>
</svg>