<svg xmlns="http://www.w3.org/2000/svg" xmlns:rdkit="http://www.rdkit.org/xml" xmlns:xlink="http://www.w3.org/1999/xlink" version="1.1" baseProfile="full" xml:space="preserve" width="150px" height="150px" viewBox="0 0 150 150">
<!-- END OF HEADER -->
<rect style="opacity:1.0;fill:#FFFFFF;stroke:none" width="150.0" height="150.0" x="0.0" y="0.0"> </rect>
<ellipse cx="88.5" cy="79.5" rx="8.4" ry="8.4" class="atom-1" style="fill:#E5E533;fill-rule:evenodd;stroke:#E5E533;stroke-width:1.0px;stroke-linecap:butt;stroke-linejoin:miter;stroke-opacity:1"/>
<ellipse cx="58.4" cy="109.0" rx="8.4" ry="8.4" class="atom-2" style="fill:#9999E5;fill-rule:evenodd;stroke:#9999E5;stroke-width:1.0px;stroke-linecap:butt;stroke-linejoin:miter;stroke-opacity:1"/>
<ellipse cx="17.8" cy="97.7" rx="8.4" ry="8.4" class="atom-3" style="fill:#E5E533;fill-rule:evenodd;stroke:#E5E533;stroke-width:1.0px;stroke-linecap:butt;stroke-linejoin:miter;stroke-opacity:1"/>
<path class="bond-0 atom-0 atom-1" d="M 120.1,87.9 L 119.9,88.6" style="fill:none;fill-rule:evenodd;stroke:#E5E5E5;stroke-width:1.0px;stroke-linecap:butt;stroke-linejoin:miter;stroke-opacity:1"/>
<path class="bond-0 atom-0 atom-1" d="M 116.7,86.6 L 116.3,88.0" style="fill:none;fill-rule:evenodd;stroke:#E5E5E5;stroke-width:1.0px;stroke-linecap:butt;stroke-linejoin:miter;stroke-opacity:1"/>
<path class="bond-0 atom-0 atom-1" d="M 113.3,85.3 L 112.7,87.3" style="fill:none;fill-rule:evenodd;stroke:#E5E5E5;stroke-width:1.0px;stroke-linecap:butt;stroke-linejoin:miter;stroke-opacity:1"/>
<path class="bond-0 atom-0 atom-1" d="M 109.9,84.0 L 109.1,86.7" style="fill:none;fill-rule:evenodd;stroke:#E5E5E5;stroke-width:1.0px;stroke-linecap:butt;stroke-linejoin:miter;stroke-opacity:1"/>
<path class="bond-0 atom-0 atom-1" d="M 106.5,82.7 L 105.5,86.0" style="fill:none;fill-rule:evenodd;stroke:#E5E5E5;stroke-width:1.0px;stroke-linecap:butt;stroke-linejoin:miter;stroke-opacity:1"/>
<path class="bond-0 atom-0 atom-1" d="M 103.1,81.4 L 101.9,85.4" style="fill:none;fill-rule:evenodd;stroke:#E5E5E5;stroke-width:1.0px;stroke-linecap:butt;stroke-linejoin:miter;stroke-opacity:1"/>
<path class="bond-0 atom-0 atom-1" d="M 99.7,80.0 L 98.3,84.8" style="fill:none;fill-rule:evenodd;stroke:#E5E5E5;stroke-width:1.0px;stroke-linecap:butt;stroke-linejoin:miter;stroke-opacity:1"/>
<path class="bond-0 atom-0 atom-1" d="M 96.3,78.7 L 94.8,84.1" style="fill:none;fill-rule:evenodd;stroke:#E5E5E5;stroke-width:1.0px;stroke-linecap:butt;stroke-linejoin:miter;stroke-opacity:1"/>
<path class="bond-0 atom-0 atom-1" d="M 92.9,77.4 L 91.2,83.5" style="fill:none;fill-rule:evenodd;stroke:#E5E5E5;stroke-width:1.0px;stroke-linecap:butt;stroke-linejoin:miter;stroke-opacity:1"/>
<path class="bond-1 atom-1 atom-2" d="M 88.5,79.5 L 58.4,109.0" style="fill:none;fill-rule:evenodd;stroke:#000000;stroke-width:2.0px;stroke-linecap:butt;stroke-linejoin:miter;stroke-opacity:1"/>
<path class="bond-1 atom-1 atom-2" d="M 81.5,77.5 L 56.6,101.9" style="fill:none;fill-rule:evenodd;stroke:#000000;stroke-width:2.0px;stroke-linecap:butt;stroke-linejoin:miter;stroke-opacity:1;stroke-dasharray:6,4"/>
<path class="bond-2 atom-2 atom-3" d="M 58.4,109.0 L 17.8,97.7" style="fill:none;fill-rule:evenodd;stroke:#000000;stroke-width:2.0px;stroke-linecap:butt;stroke-linejoin:miter;stroke-opacity:1"/>
<path class="bond-2 atom-2 atom-3" d="M 56.6,101.9 L 23.0,92.6" style="fill:none;fill-rule:evenodd;stroke:#000000;stroke-width:2.0px;stroke-linecap:butt;stroke-linejoin:miter;stroke-opacity:1;stroke-dasharray:6,4"/>
<path class="bond-3 atom-3 atom-4" d="M 17.8,97.7 L 7.5,57.6" style="fill:none;fill-rule:evenodd;stroke:#E5E5E5;stroke-width:2.2px;stroke-linecap:butt;stroke-linejoin:miter;stroke-opacity:1"/>
<path class="bond-3 atom-3 atom-4" d="M 23.0,92.6 L 13.6,56.1" style="fill:none;fill-rule:evenodd;stroke:#E5E5E5;stroke-width:2.2px;stroke-linecap:butt;stroke-linejoin:miter;stroke-opacity:1;stroke-dasharray:6,4"/>
<path class="bond-4 atom-5 atom-1" d="M 81.3,38.7 L 92.0,80.5" style="fill:none;fill-rule:evenodd;stroke:#E5E5E5;stroke-width:2.2px;stroke-linecap:butt;stroke-linejoin:miter;stroke-opacity:1"/>
<path class="bond-4 atom-5 atom-1" d="M 75.1,40.2 L 85.9,82.0" style="fill:none;fill-rule:evenodd;stroke:#E5E5E5;stroke-width:2.2px;stroke-linecap:butt;stroke-linejoin:miter;stroke-opacity:1;stroke-dasharray:6,4"/>
<path d="M 59.9,107.5 L 58.4,109.0 L 56.4,108.4" style="fill:none;stroke:#000000;stroke-width:2.0px;stroke-linecap:butt;stroke-linejoin:miter;stroke-opacity:1;"/>
<path d="M 18.8,97.9 L 17.8,97.7 L 17.5,96.7" style="fill:none;stroke:#000000;stroke-width:2.0px;stroke-linecap:butt;stroke-linejoin:miter;stroke-opacity:1;"/>
<path class="atom-0" d="M 126.8 89.5 L 128.6 87.7 L 126.3 87.2 L 126.6 86.0 L 128.8 87.1 L 128.5 84.7 L 129.7 84.7 L 129.4 87.1 L 131.5 86.1 L 131.9 87.2 L 129.5 87.6 L 131.2 89.4 L 130.2 90.2 L 129.0 88.0 L 127.9 90.2 L 126.8 89.5 " fill="#191919"/>
<path class="atom-0" d="M 133.2 84.9 L 134.8 84.9 L 134.8 90.0 L 140.9 90.0 L 140.9 84.9 L 142.5 84.9 L 142.5 96.9 L 140.9 96.9 L 140.9 91.3 L 134.8 91.3 L 134.8 96.9 L 133.2 96.9 L 133.2 84.9 " fill="#191919"/>
<path class="atom-4" d="M 8.1 54.7 L 9.9 52.9 L 7.5 52.5 L 7.9 51.3 L 10.0 52.4 L 9.7 50.0 L 11.0 50.0 L 10.6 52.3 L 12.8 51.3 L 13.2 52.5 L 10.8 52.9 L 12.5 54.7 L 11.5 55.5 L 10.3 53.2 L 9.1 55.5 L 8.1 54.7 " fill="#191919"/>
<path class="atom-5" d="M 75.7 37.3 L 77.5 35.5 L 75.2 35.1 L 75.5 33.9 L 77.7 35.0 L 77.4 32.6 L 78.6 32.6 L 78.3 34.9 L 80.4 33.9 L 80.8 35.1 L 78.5 35.5 L 80.1 37.3 L 79.1 38.1 L 77.9 35.8 L 76.8 38.1 L 75.7 37.3 " fill="#191919"/>
</svg>