<svg xmlns="http://www.w3.org/2000/svg" xmlns:rdkit="http://www.rdkit.org/xml" xmlns:xlink="http://www.w3.org/1999/xlink" version="1.1" baseProfile="full" xml:space="preserve" width="150px" height="150px" viewBox="0 0 150 150">
<!-- END OF HEADER -->
<rect style="opacity:1.0;fill:#FFFFFF;stroke:none" width="150.0" height="150.0" x="0.0" y="0.0"> </rect>
<ellipse cx="19.4" cy="81.2" rx="11.9" ry="11.9" class="atom-1" style="fill:#CCCCCC;fill-rule:evenodd;stroke:#CCCCCC;stroke-width:1.0px;stroke-linecap:butt;stroke-linejoin:miter;stroke-opacity:1"/>
<ellipse cx="49.5" cy="29.8" rx="11.9" ry="11.9" class="atom-2" style="fill:#9999E5;fill-rule:evenodd;stroke:#9999E5;stroke-width:1.0px;stroke-linecap:butt;stroke-linejoin:miter;stroke-opacity:1"/>
<ellipse cx="109.0" cy="30.2" rx="11.9" ry="11.9" class="atom-3" style="fill:#CCCCCC;fill-rule:evenodd;stroke:#CCCCCC;stroke-width:1.0px;stroke-linecap:butt;stroke-linejoin:miter;stroke-opacity:1"/>
<path class="bond-0 atom-0 atom-1" d="M 42.9,122.5 L 19.4,81.2" style="fill:none;fill-rule:evenodd;stroke:#E5E5E5;stroke-width:3.2px;stroke-linecap:butt;stroke-linejoin:miter;stroke-opacity:1"/>
<path class="bond-1 atom-1 atom-2" d="M 19.4,81.2 L 49.5,29.8" style="fill:none;fill-rule:evenodd;stroke:#000000;stroke-width:2.0px;stroke-linecap:butt;stroke-linejoin:miter;stroke-opacity:1"/>
<path class="bond-2 atom-2 atom-3" d="M 49.5,29.8 L 109.0,30.2" style="fill:none;fill-rule:evenodd;stroke:#000000;stroke-width:2.0px;stroke-linecap:butt;stroke-linejoin:miter;stroke-opacity:1"/>
<path class="bond-3 atom-3 atom-4" d="M 109.0,30.2 L 84.9,71.4" style="fill:none;fill-rule:evenodd;stroke:#E5E5E5;stroke-width:3.2px;stroke-linecap:butt;stroke-linejoin:miter;stroke-opacity:1"/>
<path class="bond-4 atom-3 atom-5" d="M 109.0,30.2 L 132.6,71.4" style="fill:none;fill-rule:evenodd;stroke:#E5E5E5;stroke-width:3.2px;stroke-linecap:butt;stroke-linejoin:miter;stroke-opacity:1"/>
<path class="bond-5 atom-4 atom-1" d="M 73.0,81.5 L 19.4,81.2" style="fill:none;fill-rule:evenodd;stroke:#E5E5E5;stroke-width:3.2px;stroke-linecap:butt;stroke-linejoin:miter;stroke-opacity:1"/>
<path d="M 48.0,32.4 L 49.5,29.8 L 52.5,29.8" style="fill:none;stroke:#000000;stroke-width:2.0px;stroke-linecap:butt;stroke-linejoin:miter;stroke-opacity:1;"/>
<path class="atom-0" d="M 45.7 131.1 L 48.2 128.5 L 44.9 127.9 L 45.4 126.2 L 48.4 127.7 L 48.0 124.4 L 49.8 124.4 L 49.3 127.7 L 52.4 126.3 L 52.9 127.9 L 49.5 128.5 L 51.9 131.0 L 50.5 132.1 L 48.8 129.0 L 47.2 132.1 L 45.7 131.1 " fill="#191919"/>
<path class="atom-4" d="M 75.8 79.7 L 78.3 77.1 L 75.0 76.5 L 75.5 74.8 L 78.5 76.3 L 78.1 73.0 L 79.9 73.0 L 79.4 76.3 L 82.4 74.9 L 83.0 76.5 L 79.6 77.1 L 82.0 79.7 L 80.5 80.7 L 78.9 77.6 L 77.2 80.7 L 75.8 79.7 " fill="#191919"/>
<path class="atom-5" d="M 135.3 80.0 L 137.8 77.5 L 134.5 76.8 L 135.0 75.1 L 138.0 76.7 L 137.6 73.4 L 139.4 73.3 L 138.9 76.6 L 142.0 75.2 L 142.5 76.8 L 139.2 77.4 L 141.5 80.0 L 140.1 81.0 L 138.5 77.9 L 136.8 81.0 L 135.3 80.0 " fill="#191919"/>
</svg>