<svg xmlns="http://www.w3.org/2000/svg" xmlns:rdkit="http://www.rdkit.org/xml" xmlns:xlink="http://www.w3.org/1999/xlink" version="1.1" baseProfile="full" xml:space="preserve" width="150px" height="150px" viewBox="0 0 150 150">
<!-- END OF HEADER -->
<rect style="opacity:1.0;fill:#FFFFFF;stroke:none" width="150.0" height="150.0" x="0.0" y="0.0"> </rect>
<ellipse cx="106.3" cy="104.4" rx="6.8" ry="6.8" class="atom-1" style="fill:#CCCCCC;fill-rule:evenodd;stroke:#CCCCCC;stroke-width:1.0px;stroke-linecap:butt;stroke-linejoin:miter;stroke-opacity:1"/>
<ellipse cx="89.3" cy="75.0" rx="6.8" ry="6.8" class="atom-2" style="fill:#CCCCCC;fill-rule:evenodd;stroke:#CCCCCC;stroke-width:1.0px;stroke-linecap:butt;stroke-linejoin:miter;stroke-opacity:1"/>
<ellipse cx="106.3" cy="45.6" rx="6.8" ry="6.8" class="atom-3" style="fill:#CCCCCC;fill-rule:evenodd;stroke:#CCCCCC;stroke-width:1.0px;stroke-linecap:butt;stroke-linejoin:miter;stroke-opacity:1"/>
<ellipse cx="55.4" cy="75.0" rx="6.8" ry="6.8" class="atom-5" style="fill:#9999E5;fill-rule:evenodd;stroke:#9999E5;stroke-width:1.0px;stroke-linecap:butt;stroke-linejoin:miter;stroke-opacity:1"/>
<path class="bond-0 atom-0 atom-1" d="M 136.8,104.4 L 106.3,104.4" style="fill:none;fill-rule:evenodd;stroke:#E5E5E5;stroke-width:1.8px;stroke-linecap:butt;stroke-linejoin:miter;stroke-opacity:1"/>
<path class="bond-1 atom-1 atom-2" d="M 106.3,104.4 L 89.3,75.0" style="fill:none;fill-rule:evenodd;stroke:#000000;stroke-width:2.0px;stroke-linecap:butt;stroke-linejoin:miter;stroke-opacity:1"/>
<path class="bond-2 atom-2 atom-3" d="M 89.3,75.0 L 106.3,45.6" style="fill:none;fill-rule:evenodd;stroke:#000000;stroke-width:2.0px;stroke-linecap:butt;stroke-linejoin:miter;stroke-opacity:1"/>
<path class="bond-3 atom-3 atom-4" d="M 106.3,45.6 L 136.8,45.6" style="fill:none;fill-rule:evenodd;stroke:#E5E5E5;stroke-width:1.8px;stroke-linecap:butt;stroke-linejoin:miter;stroke-opacity:1"/>
<path class="bond-4 atom-2 atom-5" d="M 89.3,75.0 L 55.4,75.0" style="fill:none;fill-rule:evenodd;stroke:#000000;stroke-width:2.0px;stroke-linecap:butt;stroke-linejoin:miter;stroke-opacity:1"/>
<path class="bond-5 atom-5 atom-6" d="M 55.4,75.0 L 55.4,108.9" style="fill:none;fill-rule:evenodd;stroke:#000000;stroke-width:2.0px;stroke-linecap:butt;stroke-linejoin:miter;stroke-opacity:1"/>
<path class="bond-6 atom-5 atom-7" d="M 55.4,75.0 L 55.4,41.1" style="fill:none;fill-rule:evenodd;stroke:#000000;stroke-width:2.0px;stroke-linecap:butt;stroke-linejoin:miter;stroke-opacity:1"/>
<path class="bond-7 atom-5 atom-8" d="M 55.4,75.0 L 41.1,75.0" style="fill:none;fill-rule:evenodd;stroke:#000000;stroke-width:2.0px;stroke-linecap:butt;stroke-linejoin:miter;stroke-opacity:1"/>
<path class="bond-7 atom-5 atom-8" d="M 41.1,75.0 L 26.9,75.0" style="fill:none;fill-rule:evenodd;stroke:#FF0000;stroke-width:2.0px;stroke-linecap:butt;stroke-linejoin:miter;stroke-opacity:1"/>
<path d="M 107.0,104.4 L 106.3,104.4 L 105.9,103.7" style="fill:none;stroke:#E5E5E5;stroke-width:1.8px;stroke-linecap:butt;stroke-linejoin:miter;stroke-opacity:1;"/>
<path d="M 105.9,46.3 L 106.3,45.6 L 107.0,45.6" style="fill:none;stroke:#000000;stroke-width:2.0px;stroke-linecap:butt;stroke-linejoin:miter;stroke-opacity:1;"/>
<path class="atom-0" d="M 138.4 103.3 L 139.8 101.9 L 138.0 101.5 L 138.2 100.5 L 140.0 101.4 L 139.7 99.5 L 140.7 99.5 L 140.4 101.4 L 142.2 100.6 L 142.5 101.5 L 140.6 101.9 L 142.0 103.3 L 141.1 103.9 L 140.2 102.1 L 139.2 103.9 L 138.4 103.3 " fill="#191919"/>
<path class="atom-4" d="M 138.4 44.5 L 139.8 43.1 L 138.0 42.7 L 138.2 41.7 L 140.0 42.6 L 139.7 40.7 L 140.7 40.7 L 140.4 42.6 L 142.2 41.8 L 142.5 42.7 L 140.6 43.1 L 142.0 44.5 L 141.1 45.1 L 140.2 43.3 L 139.2 45.1 L 138.4 44.5 " fill="#191919"/>
<path class="atom-8" d="M 7.5 70.2 L 8.8 70.2 L 8.8 74.3 L 13.7 74.3 L 13.7 70.2 L 15.0 70.2 L 15.0 79.9 L 13.7 79.9 L 13.7 75.4 L 8.8 75.4 L 8.8 79.9 L 7.5 79.9 L 7.5 70.2 " fill="#FF0000"/>
<path class="atom-8" d="M 17.0 75.0 Q 17.0 72.7, 18.1 71.4 Q 19.3 70.1, 21.4 70.1 Q 23.5 70.1, 24.7 71.4 Q 25.8 72.7, 25.8 75.0 Q 25.8 77.4, 24.7 78.7 Q 23.5 80.0, 21.4 80.0 Q 19.3 80.0, 18.1 78.7 Q 17.0 77.4, 17.0 75.0 M 21.4 78.9 Q 22.9 78.9, 23.7 77.9 Q 24.5 77.0, 24.5 75.0 Q 24.5 73.1, 23.7 72.2 Q 22.9 71.2, 21.4 71.2 Q 19.9 71.2, 19.1 72.2 Q 18.4 73.1, 18.4 75.0 Q 18.4 77.0, 19.1 77.9 Q 19.9 78.9, 21.4 78.9 " fill="#FF0000"/>
</svg>