<svg xmlns="http://www.w3.org/2000/svg" xmlns:rdkit="http://www.rdkit.org/xml" xmlns:xlink="http://www.w3.org/1999/xlink" version="1.1" baseProfile="full" xml:space="preserve" width="150px" height="150px" viewBox="0 0 150 150">
<!-- END OF HEADER -->
<rect style="opacity:1.0;fill:#FFFFFF;stroke:none" width="150.0" height="150.0" x="0.0" y="0.0"> </rect>
<ellipse cx="75.0" cy="80.2" rx="7.7" ry="7.7" class="atom-2" style="fill:#9999E5;fill-rule:evenodd;stroke:#9999E5;stroke-width:1.0px;stroke-linecap:butt;stroke-linejoin:miter;stroke-opacity:1"/>
<path class="bond-0 atom-0 atom-1" d="M 12.6,97.3 L 41.0,105.4" style="fill:none;fill-rule:evenodd;stroke:#E5E5E5;stroke-width:2.1px;stroke-linecap:butt;stroke-linejoin:miter;stroke-opacity:1"/>
<path class="bond-1 atom-1 atom-2" d="M 53.6,101.0 L 64.3,90.6" style="fill:none;fill-rule:evenodd;stroke:#FF0000;stroke-width:2.0px;stroke-linecap:butt;stroke-linejoin:miter;stroke-opacity:1"/>
<path class="bond-1 atom-1 atom-2" d="M 64.3,90.6 L 75.0,80.2" style="fill:none;fill-rule:evenodd;stroke:#000000;stroke-width:2.0px;stroke-linecap:butt;stroke-linejoin:miter;stroke-opacity:1"/>
<path class="bond-2 atom-2 atom-3" d="M 78.2,81.1 L 74.2,65.0" style="fill:none;fill-rule:evenodd;stroke:#000000;stroke-width:2.0px;stroke-linecap:butt;stroke-linejoin:miter;stroke-opacity:1"/>
<path class="bond-2 atom-2 atom-3" d="M 74.2,65.0 L 70.1,49.0" style="fill:none;fill-rule:evenodd;stroke:#FF0000;stroke-width:2.0px;stroke-linecap:butt;stroke-linejoin:miter;stroke-opacity:1"/>
<path class="bond-2 atom-2 atom-3" d="M 72.6,82.5 L 68.5,66.4" style="fill:none;fill-rule:evenodd;stroke:#000000;stroke-width:2.0px;stroke-linecap:butt;stroke-linejoin:miter;stroke-opacity:1"/>
<path class="bond-2 atom-2 atom-3" d="M 68.5,66.4 L 64.5,50.4" style="fill:none;fill-rule:evenodd;stroke:#FF0000;stroke-width:2.0px;stroke-linecap:butt;stroke-linejoin:miter;stroke-opacity:1"/>
<path class="bond-3 atom-2 atom-4" d="M 75.0,80.2 L 112.2,90.7" style="fill:none;fill-rule:evenodd;stroke:#000000;stroke-width:2.0px;stroke-linecap:butt;stroke-linejoin:miter;stroke-opacity:1"/>
<path class="bond-4 atom-4 atom-5" d="M 112.2,90.7 L 139.2,64.4" style="fill:none;fill-rule:evenodd;stroke:#E5E5E5;stroke-width:2.1px;stroke-linecap:butt;stroke-linejoin:miter;stroke-opacity:1"/>
<path d="M 74.5,80.7 L 75.0,80.2 L 76.9,80.7" style="fill:none;stroke:#000000;stroke-width:2.0px;stroke-linecap:butt;stroke-linejoin:miter;stroke-opacity:1;"/>
<path d="M 111.3,90.4 L 112.2,90.7 L 112.9,90.0" style="fill:none;stroke:#000000;stroke-width:2.0px;stroke-linecap:butt;stroke-linejoin:miter;stroke-opacity:1;"/>
<path class="atom-0" d="M 8.0 95.4 L 9.6 93.8 L 7.5 93.3 L 7.8 92.2 L 9.8 93.2 L 9.5 91.1 L 10.7 91.1 L 10.3 93.2 L 12.3 92.3 L 12.7 93.3 L 10.5 93.7 L 12.1 95.4 L 11.1 96.1 L 10.1 94.0 L 9.0 96.1 L 8.0 95.4 " fill="#191919"/>
<path class="atom-1" d="M 42.3 107.2 Q 42.3 104.5, 43.6 103.1 Q 44.9 101.6, 47.3 101.6 Q 49.7 101.6, 51.0 103.1 Q 52.3 104.5, 52.3 107.2 Q 52.3 109.8, 51.0 111.3 Q 49.7 112.8, 47.3 112.8 Q 44.9 112.8, 43.6 111.3 Q 42.3 109.8, 42.3 107.2 M 47.3 111.6 Q 49.0 111.6, 49.9 110.5 Q 50.8 109.4, 50.8 107.2 Q 50.8 105.0, 49.9 103.9 Q 49.0 102.8, 47.3 102.8 Q 45.6 102.8, 44.7 103.9 Q 43.8 105.0, 43.8 107.2 Q 43.8 109.4, 44.7 110.5 Q 45.6 111.6, 47.3 111.6 " fill="#FF0000"/>
<path class="atom-3" d="M 60.5 42.7 Q 60.5 40.1, 61.8 38.6 Q 63.1 37.2, 65.5 37.2 Q 67.9 37.2, 69.2 38.6 Q 70.5 40.1, 70.5 42.7 Q 70.5 45.4, 69.2 46.9 Q 67.9 48.4, 65.5 48.4 Q 63.1 48.4, 61.8 46.9 Q 60.5 45.4, 60.5 42.7 M 65.5 47.2 Q 67.2 47.2, 68.1 46.0 Q 69.0 44.9, 69.0 42.7 Q 69.0 40.6, 68.1 39.5 Q 67.2 38.4, 65.5 38.4 Q 63.8 38.4, 62.9 39.5 Q 62.0 40.6, 62.0 42.7 Q 62.0 44.9, 62.9 46.0 Q 63.8 47.2, 65.5 47.2 " fill="#FF0000"/>
<path class="atom-5" d="M 137.8 62.5 L 139.5 60.9 L 137.3 60.4 L 137.6 59.3 L 139.6 60.3 L 139.3 58.2 L 140.5 58.1 L 140.2 60.3 L 142.2 59.4 L 142.5 60.4 L 140.3 60.8 L 141.9 62.5 L 140.9 63.2 L 139.9 61.1 L 138.8 63.2 L 137.8 62.5 " fill="#191919"/>
</svg>