<svg xmlns="http://www.w3.org/2000/svg" xmlns:rdkit="http://www.rdkit.org/xml" xmlns:xlink="http://www.w3.org/1999/xlink" version="1.1" baseProfile="full" xml:space="preserve" width="150px" height="150px" viewBox="0 0 150 150">
<!-- END OF HEADER -->
<rect style="opacity:1.0;fill:#FFFFFF;stroke:none" width="150.0" height="150.0" x="0.0" y="0.0"> </rect>
<ellipse cx="106.9" cy="104.7" rx="8.4" ry="8.4" class="atom-1" style="fill:#CCCCCC;fill-rule:evenodd;stroke:#CCCCCC;stroke-width:1.0px;stroke-linecap:butt;stroke-linejoin:miter;stroke-opacity:1"/>
<ellipse cx="50.6" cy="67.2" rx="8.4" ry="8.4" class="atom-4" style="fill:#CCCCCC;fill-rule:evenodd;stroke:#CCCCCC;stroke-width:1.0px;stroke-linecap:butt;stroke-linejoin:miter;stroke-opacity:1"/>
<ellipse cx="65.1" cy="106.4" rx="8.4" ry="8.4" class="atom-5" style="fill:#9999E5;fill-rule:evenodd;stroke:#9999E5;stroke-width:1.0px;stroke-linecap:butt;stroke-linejoin:miter;stroke-opacity:1"/>
<path class="bond-0 atom-0 atom-1" d="M 73.3,82.3 L 106.9,104.7" style="fill:none;fill-rule:evenodd;stroke:#E5E5E5;stroke-width:2.2px;stroke-linecap:butt;stroke-linejoin:miter;stroke-opacity:1"/>
<path class="bond-1 atom-1 atom-2" d="M 106.9,104.7 L 138.7,79.5" style="fill:none;fill-rule:evenodd;stroke:#E5E5E5;stroke-width:2.2px;stroke-linecap:butt;stroke-linejoin:miter;stroke-opacity:1"/>
<path class="bond-2 atom-3 atom-4" d="M 82.4,42.0 L 50.6,67.2" style="fill:none;fill-rule:evenodd;stroke:#E5E5E5;stroke-width:2.2px;stroke-linecap:butt;stroke-linejoin:miter;stroke-opacity:1"/>
<path class="bond-3 atom-4 atom-5" d="M 50.6,67.2 L 65.1,106.4" style="fill:none;fill-rule:evenodd;stroke:#000000;stroke-width:2.0px;stroke-linecap:butt;stroke-linejoin:miter;stroke-opacity:1"/>
<path class="bond-4 atom-4 atom-6" d="M 50.6,67.2 L 13.1,56.7" style="fill:none;fill-rule:evenodd;stroke:#E5E5E5;stroke-width:2.2px;stroke-linecap:butt;stroke-linejoin:miter;stroke-opacity:1"/>
<path class="bond-5 atom-5 atom-1" d="M 65.1,106.4 L 106.9,104.7" style="fill:none;fill-rule:evenodd;stroke:#000000;stroke-width:2.0px;stroke-linecap:butt;stroke-linejoin:miter;stroke-opacity:1"/>
<path d="M 64.4,104.5 L 65.1,106.4 L 67.2,106.3" style="fill:none;stroke:#000000;stroke-width:2.0px;stroke-linecap:butt;stroke-linejoin:miter;stroke-opacity:1;"/>
<path class="atom-0" d="M 69.9 80.2 L 71.6 78.4 L 69.3 78.0 L 69.6 76.8 L 71.8 77.8 L 71.5 75.5 L 72.7 75.5 L 72.4 77.8 L 74.5 76.8 L 74.9 78.0 L 72.6 78.4 L 74.2 80.2 L 73.2 80.9 L 72.1 78.7 L 70.9 80.9 L 69.9 80.2 " fill="#191919"/>
<path class="atom-2" d="M 137.5 77.4 L 139.2 75.6 L 136.9 75.1 L 137.2 74.0 L 139.4 75.0 L 139.1 72.7 L 140.3 72.7 L 140.0 75.0 L 142.1 74.0 L 142.5 75.1 L 140.2 75.6 L 141.8 77.4 L 140.8 78.1 L 139.7 75.9 L 138.5 78.1 L 137.5 77.4 " fill="#191919"/>
<path class="atom-3" d="M 81.1 39.9 L 82.9 38.2 L 80.6 37.7 L 80.9 36.5 L 83.0 37.6 L 82.7 35.2 L 84.0 35.2 L 83.6 37.6 L 85.8 36.5 L 86.2 37.7 L 83.8 38.1 L 85.5 39.9 L 84.5 40.6 L 83.3 38.4 L 82.1 40.6 L 81.1 39.9 " fill="#191919"/>
<path class="atom-6" d="M 8.1 54.6 L 9.8 52.9 L 7.5 52.4 L 7.9 51.2 L 10.0 52.3 L 9.7 50.0 L 10.9 49.9 L 10.6 52.3 L 12.7 51.3 L 13.1 52.4 L 10.8 52.8 L 12.4 54.6 L 11.4 55.4 L 10.3 53.1 L 9.1 55.4 L 8.1 54.6 " fill="#191919"/>
</svg>