<svg xmlns="http://www.w3.org/2000/svg" xmlns:rdkit="http://www.rdkit.org/xml" xmlns:xlink="http://www.w3.org/1999/xlink" version="1.1" baseProfile="full" xml:space="preserve" width="150px" height="150px" viewBox="0 0 150 150">
<!-- END OF HEADER -->
<rect style="opacity:1.0;fill:#FFFFFF;stroke:none" width="150.0" height="150.0" x="0.0" y="0.0"> </rect>
<ellipse cx="72.6" cy="79.9" rx="10.3" ry="10.3" class="atom-2" style="fill:#9999E5;fill-rule:evenodd;stroke:#9999E5;stroke-width:1.0px;stroke-linecap:butt;stroke-linejoin:miter;stroke-opacity:1"/>
<path class="bond-0 atom-0 atom-1" d="M 129.8,142.5 L 85.3,129.9" style="fill:none;fill-rule:evenodd;stroke:#E5E5E5;stroke-width:2.8px;stroke-linecap:butt;stroke-linejoin:miter;stroke-opacity:1"/>
<path class="bond-0 atom-0 atom-1" d="M 131.9,135.1 L 91.7,123.7" style="fill:none;fill-rule:evenodd;stroke:#E5E5E5;stroke-width:2.8px;stroke-linecap:butt;stroke-linejoin:miter;stroke-opacity:1"/>
<path class="bond-1 atom-1 atom-2" d="M 85.3,129.9 L 72.6,79.9" style="fill:none;fill-rule:evenodd;stroke:#000000;stroke-width:2.0px;stroke-linecap:butt;stroke-linejoin:miter;stroke-opacity:1"/>
<path class="bond-2 atom-2 atom-3" d="M 72.6,79.9 L 23.0,65.9" style="fill:none;fill-rule:evenodd;stroke:#000000;stroke-width:2.0px;stroke-linecap:butt;stroke-linejoin:miter;stroke-opacity:1"/>
<path class="bond-3 atom-3 atom-4" d="M 23.0,65.9 L 10.5,16.8" style="fill:none;fill-rule:evenodd;stroke:#E5E5E5;stroke-width:2.8px;stroke-linecap:butt;stroke-linejoin:miter;stroke-opacity:1"/>
<path class="bond-3 atom-3 atom-4" d="M 29.4,59.7 L 18.0,14.9" style="fill:none;fill-rule:evenodd;stroke:#E5E5E5;stroke-width:2.8px;stroke-linecap:butt;stroke-linejoin:miter;stroke-opacity:1"/>
<path d="M 86.4,130.2 L 85.3,129.9 L 85.0,128.7" style="fill:none;stroke:#E5E5E5;stroke-width:2.8px;stroke-linecap:butt;stroke-linejoin:miter;stroke-opacity:1;"/>
<path d="M 73.3,82.4 L 72.6,79.9 L 70.1,79.2" style="fill:none;stroke:#000000;stroke-width:2.0px;stroke-linecap:butt;stroke-linejoin:miter;stroke-opacity:1;"/>
<path d="M 24.2,66.2 L 23.0,65.9 L 22.7,64.7" style="fill:none;stroke:#000000;stroke-width:2.0px;stroke-linecap:butt;stroke-linejoin:miter;stroke-opacity:1;"/>
<path class="atom-0" d="M 133.3 138.6 L 135.4 136.4 L 132.6 135.8 L 133.0 134.4 L 135.6 135.7 L 135.2 132.8 L 136.8 132.8 L 136.4 135.7 L 139.0 134.4 L 139.5 135.8 L 136.6 136.4 L 138.6 138.6 L 137.4 139.5 L 136.0 136.8 L 134.5 139.5 L 133.3 138.6 " fill="#191919"/>
<path class="atom-4" d="M 11.3 13.3 L 13.4 11.1 L 10.6 10.5 L 11.0 9.1 L 13.6 10.4 L 13.3 7.5 L 14.8 7.5 L 14.4 10.4 L 17.0 9.1 L 17.5 10.5 L 14.6 11.1 L 16.7 13.3 L 15.4 14.2 L 14.0 11.5 L 12.5 14.2 L 11.3 13.3 " fill="#191919"/>
</svg>