<svg xmlns="http://www.w3.org/2000/svg" xmlns:rdkit="http://www.rdkit.org/xml" xmlns:xlink="http://www.w3.org/1999/xlink" version="1.1" baseProfile="full" xml:space="preserve" width="150px" height="150px" viewBox="0 0 150 150">
<!-- END OF HEADER -->
<rect style="opacity:1.0;fill:#FFFFFF;stroke:none" width="150.0" height="150.0" x="0.0" y="0.0"> </rect>
<ellipse cx="47.8" cy="73.9" rx="7.8" ry="7.8" class="atom-1" style="fill:#CCCCCC;fill-rule:evenodd;stroke:#CCCCCC;stroke-width:1.0px;stroke-linecap:butt;stroke-linejoin:miter;stroke-opacity:1"/>
<ellipse cx="112.7" cy="92.0" rx="7.8" ry="7.8" class="atom-4" style="fill:#CCCCCC;fill-rule:evenodd;stroke:#CCCCCC;stroke-width:1.0px;stroke-linecap:butt;stroke-linejoin:miter;stroke-opacity:1"/>
<ellipse cx="75.0" cy="101.7" rx="7.8" ry="7.8" class="atom-5" style="fill:#9999E5;fill-rule:evenodd;stroke:#9999E5;stroke-width:1.0px;stroke-linecap:butt;stroke-linejoin:miter;stroke-opacity:1"/>
<path class="bond-0 atom-0 atom-1" d="M 14.0,82.6 L 47.8,73.9" style="fill:none;fill-rule:evenodd;stroke:#E5E5E5;stroke-width:2.1px;stroke-linecap:butt;stroke-linejoin:miter;stroke-opacity:1"/>
<path class="bond-1 atom-1 atom-2" d="M 47.8,73.9 L 58.0,37.1" style="fill:none;fill-rule:evenodd;stroke:#E5E5E5;stroke-width:2.1px;stroke-linecap:butt;stroke-linejoin:miter;stroke-opacity:1"/>
<path class="bond-2 atom-3 atom-4" d="M 122.9,55.2 L 112.7,92.0" style="fill:none;fill-rule:evenodd;stroke:#E5E5E5;stroke-width:2.1px;stroke-linecap:butt;stroke-linejoin:miter;stroke-opacity:1"/>
<path class="bond-3 atom-4 atom-5" d="M 112.7,92.0 L 75.0,101.7" style="fill:none;fill-rule:evenodd;stroke:#000000;stroke-width:2.0px;stroke-linecap:butt;stroke-linejoin:miter;stroke-opacity:1"/>
<path class="bond-4 atom-4 atom-6" d="M 112.7,92.0 L 136.0,115.8" style="fill:none;fill-rule:evenodd;stroke:#E5E5E5;stroke-width:2.1px;stroke-linecap:butt;stroke-linejoin:miter;stroke-opacity:1"/>
<path class="bond-5 atom-5 atom-1" d="M 75.0,101.7 L 47.8,73.9" style="fill:none;fill-rule:evenodd;stroke:#000000;stroke-width:2.0px;stroke-linecap:butt;stroke-linejoin:miter;stroke-opacity:1"/>
<path d="M 76.9,101.2 L 75.0,101.7 L 73.6,100.3" style="fill:none;stroke:#000000;stroke-width:2.0px;stroke-linecap:butt;stroke-linejoin:miter;stroke-opacity:1;"/>
<path class="atom-0" d="M 8.0 82.3 L 9.6 80.7 L 7.5 80.2 L 7.8 79.1 L 9.8 80.1 L 9.5 78.0 L 10.7 78.0 L 10.4 80.1 L 12.4 79.2 L 12.7 80.2 L 10.5 80.6 L 12.1 82.3 L 11.1 83.0 L 10.1 80.9 L 9.0 83.0 L 8.0 82.3 " fill="#191919"/>
<path class="atom-2" d="M 56.2 35.2 L 57.8 33.5 L 55.6 33.1 L 56.0 32.0 L 57.9 33.0 L 57.6 30.8 L 58.8 30.8 L 58.5 33.0 L 60.5 32.0 L 60.8 33.1 L 58.7 33.5 L 60.2 35.2 L 59.3 35.8 L 58.2 33.8 L 57.1 35.8 L 56.2 35.2 " fill="#191919"/>
<path class="atom-3" d="M 121.0 53.3 L 122.7 51.6 L 120.5 51.2 L 120.8 50.1 L 122.8 51.1 L 122.5 48.9 L 123.7 48.9 L 123.4 51.1 L 125.4 50.1 L 125.7 51.2 L 123.6 51.6 L 125.1 53.3 L 124.2 53.9 L 123.1 51.9 L 122.0 53.9 L 121.0 53.3 " fill="#191919"/>
<path class="atom-6" d="M 137.8 118.5 L 139.4 116.9 L 137.3 116.4 L 137.6 115.3 L 139.6 116.3 L 139.3 114.2 L 140.5 114.2 L 140.2 116.3 L 142.2 115.4 L 142.5 116.4 L 140.3 116.8 L 141.9 118.5 L 140.9 119.2 L 139.9 117.1 L 138.8 119.2 L 137.8 118.5 " fill="#191919"/>
</svg>