<svg xmlns="http://www.w3.org/2000/svg" xmlns:rdkit="http://www.rdkit.org/xml" xmlns:xlink="http://www.w3.org/1999/xlink" version="1.1" baseProfile="full" xml:space="preserve" width="150px" height="150px" viewBox="0 0 150 150">
<!-- END OF HEADER -->
<rect style="opacity:1.0;fill:#FFFFFF;stroke:none" width="150.0" height="150.0" x="0.0" y="0.0"> </rect>
<ellipse cx="46.4" cy="100.5" rx="8.2" ry="8.2" class="atom-1" style="fill:#CCCCCC;fill-rule:evenodd;stroke:#CCCCCC;stroke-width:1.0px;stroke-linecap:butt;stroke-linejoin:miter;stroke-opacity:1"/>
<ellipse cx="90.4" cy="52.3" rx="8.2" ry="8.2" class="atom-3" style="fill:#CCCCCC;fill-rule:evenodd;stroke:#CCCCCC;stroke-width:1.0px;stroke-linecap:butt;stroke-linejoin:miter;stroke-opacity:1"/>
<ellipse cx="78.1" cy="91.3" rx="8.2" ry="8.2" class="atom-4" style="fill:#CCCCCC;fill-rule:evenodd;stroke:#CCCCCC;stroke-width:1.0px;stroke-linecap:butt;stroke-linejoin:miter;stroke-opacity:1"/>
<ellipse cx="117.1" cy="103.5" rx="8.2" ry="8.2" class="atom-5" style="fill:#9999E5;fill-rule:evenodd;stroke:#9999E5;stroke-width:1.0px;stroke-linecap:butt;stroke-linejoin:miter;stroke-opacity:1"/>
<ellipse cx="129.3" cy="64.6" rx="8.2" ry="8.2" class="atom-6" style="fill:#CCCCCC;fill-rule:evenodd;stroke:#CCCCCC;stroke-width:1.0px;stroke-linecap:butt;stroke-linejoin:miter;stroke-opacity:1"/>
<ellipse cx="80.9" cy="122.4" rx="8.2" ry="8.2" class="atom-7" style="fill:#CCCCCC;fill-rule:evenodd;stroke:#CCCCCC;stroke-width:1.0px;stroke-linecap:butt;stroke-linejoin:miter;stroke-opacity:1"/>
<path class="bond-0 atom-0 atom-1" d="M 12.9,114.7 L 46.6,97.2" style="fill:none;fill-rule:evenodd;stroke:#E5E5E5;stroke-width:2.2px;stroke-linecap:butt;stroke-linejoin:miter;stroke-opacity:1"/>
<path class="bond-0 atom-0 atom-1" d="M 15.6,119.9 L 49.3,102.3" style="fill:none;fill-rule:evenodd;stroke:#E5E5E5;stroke-width:2.2px;stroke-linecap:butt;stroke-linejoin:miter;stroke-opacity:1"/>
<path class="bond-1 atom-2 atom-1" d="M 47.8,68.2 L 49.4,102.4 L 46.4,100.5 Z" style="fill:#E5E5E5;fill-rule:evenodd;fill-opacity:1;stroke:#E5E5E5;stroke-width:0.5px;stroke-linecap:butt;stroke-linejoin:miter;stroke-opacity:1;"/>
<path class="bond-1 atom-2 atom-1" d="M 47.8,68.2 L 46.4,100.5 L 43.3,102.2 Z" style="fill:#E5E5E5;fill-rule:evenodd;fill-opacity:1;stroke:#E5E5E5;stroke-width:0.5px;stroke-linecap:butt;stroke-linejoin:miter;stroke-opacity:1;"/>
<path class="bond-2 atom-2 atom-3" d="M 54.0,58.7 L 90.4,52.3" style="fill:none;fill-rule:evenodd;stroke:#E5E5E5;stroke-width:2.2px;stroke-linecap:butt;stroke-linejoin:miter;stroke-opacity:1"/>
<path class="bond-3 atom-3 atom-4" d="M 90.4,52.3 L 78.1,91.3" style="fill:none;fill-rule:evenodd;stroke:#000000;stroke-width:2.0px;stroke-linecap:butt;stroke-linejoin:miter;stroke-opacity:1"/>
<path class="bond-4 atom-4 atom-5" d="M 78.1,91.3 L 117.1,103.5" style="fill:none;fill-rule:evenodd;stroke:#000000;stroke-width:2.0px;stroke-linecap:butt;stroke-linejoin:miter;stroke-opacity:1"/>
<path class="bond-5 atom-5 atom-6" d="M 117.1,103.5 L 129.3,64.6" style="fill:none;fill-rule:evenodd;stroke:#000000;stroke-width:2.0px;stroke-linecap:butt;stroke-linejoin:miter;stroke-opacity:1"/>
<path class="bond-6 atom-5 atom-7" d="M 117.1,103.5 L 80.9,122.4" style="fill:none;fill-rule:evenodd;stroke:#000000;stroke-width:2.0px;stroke-linecap:butt;stroke-linejoin:miter;stroke-opacity:1"/>
<path class="bond-7 atom-4 atom-8" d="M 78.1,91.3 L 56.8,126.1" style="fill:none;fill-rule:evenodd;stroke:#000000;stroke-width:2.0px;stroke-linecap:butt;stroke-linejoin:miter;stroke-opacity:1"/>
<path class="bond-8 atom-4 atom-9" d="M 78.1,91.3 L 39.2,79.1" style="fill:none;fill-rule:evenodd;stroke:#000000;stroke-width:2.0px;stroke-linecap:butt;stroke-linejoin:miter;stroke-opacity:1"/>
<path class="bond-9 atom-7 atom-1" d="M 80.9,122.4 L 46.4,100.5" style="fill:none;fill-rule:evenodd;stroke:#000000;stroke-width:2.0px;stroke-linecap:butt;stroke-linejoin:miter;stroke-opacity:1"/>
<path class="bond-10 atom-6 atom-3" d="M 129.3,64.6 L 90.4,52.3" style="fill:none;fill-rule:evenodd;stroke:#000000;stroke-width:2.0px;stroke-linecap:butt;stroke-linejoin:miter;stroke-opacity:1"/>
<path class="bond-11 atom-3 atom-10" d="M 90.4,52.3 L 88.7,33.3 L 94.5,33.7 Z" style="fill:#000000;fill-rule:evenodd;fill-opacity:1;stroke:#000000;stroke-width:0.5px;stroke-linecap:butt;stroke-linejoin:miter;stroke-opacity:1;"/>
<path class="bond-12 atom-5 atom-11" d="M 117.1,103.5 L 132.8,112.8 L 129.0,117.3 Z" style="fill:#000000;fill-rule:evenodd;fill-opacity:1;stroke:#000000;stroke-width:0.5px;stroke-linecap:butt;stroke-linejoin:miter;stroke-opacity:1;"/>
<path d="M 128.7,66.5 L 129.3,64.6 L 127.4,64.0" style="fill:none;stroke:#000000;stroke-width:2.0px;stroke-linecap:butt;stroke-linejoin:miter;stroke-opacity:1;"/>
<path d="M 82.7,121.5 L 80.9,122.4 L 79.2,121.3" style="fill:none;stroke:#000000;stroke-width:2.0px;stroke-linecap:butt;stroke-linejoin:miter;stroke-opacity:1;"/>
<path class="atom-0" d="M 8.1 118.1 L 9.8 116.4 L 7.5 115.9 L 7.8 114.8 L 9.9 115.8 L 9.6 113.6 L 10.8 113.5 L 10.5 115.8 L 12.6 114.8 L 13.0 115.9 L 10.7 116.4 L 12.3 118.1 L 11.3 118.8 L 10.2 116.7 L 9.1 118.8 L 8.1 118.1 " fill="#191919"/>
<path class="atom-2" d="M 37.5 58.4 L 39.2 56.7 L 37.0 56.2 L 37.3 55.1 L 39.4 56.1 L 39.1 53.9 L 40.3 53.8 L 40.0 56.1 L 42.1 55.1 L 42.4 56.2 L 40.2 56.7 L 41.8 58.4 L 40.8 59.1 L 39.7 57.0 L 38.5 59.1 L 37.5 58.4 " fill="#191919"/>
<path class="atom-2" d="M 43.7 54.0 L 45.2 54.0 L 45.2 59.0 L 51.1 59.0 L 51.1 54.0 L 52.7 54.0 L 52.7 65.6 L 51.1 65.6 L 51.1 60.3 L 45.2 60.3 L 45.2 65.6 L 43.7 65.6 L 43.7 54.0 " fill="#191919"/>
<path class="atom-10" d="M 87.7 19.4 L 89.2 19.4 L 89.2 24.3 L 95.1 24.3 L 95.1 19.4 L 96.7 19.4 L 96.7 31.0 L 95.1 31.0 L 95.1 25.6 L 89.2 25.6 L 89.2 31.0 L 87.7 31.0 L 87.7 19.4 " fill="#000000"/>
<path class="atom-11" d="M 133.5 115.2 L 135.0 115.2 L 135.0 120.2 L 140.9 120.2 L 140.9 115.2 L 142.5 115.2 L 142.5 126.8 L 140.9 126.8 L 140.9 121.5 L 135.0 121.5 L 135.0 126.8 L 133.5 126.8 L 133.5 115.2 " fill="#000000"/>
</svg>