<svg xmlns="http://www.w3.org/2000/svg" xmlns:rdkit="http://www.rdkit.org/xml" xmlns:xlink="http://www.w3.org/1999/xlink" version="1.1" baseProfile="full" xml:space="preserve" width="150px" height="150px" viewBox="0 0 150 150">
<!-- END OF HEADER -->
<rect style="opacity:1.0;fill:#FFFFFF;stroke:none" width="150.0" height="150.0" x="0.0" y="0.0"> </rect>
<ellipse cx="99.3" cy="32.5" rx="22.2" ry="22.2" class="atom-1" style="fill:#9999E5;fill-rule:evenodd;stroke:#9999E5;stroke-width:1.0px;stroke-linecap:butt;stroke-linejoin:miter;stroke-opacity:1"/>
<path class="bond-0 atom-0 atom-1" d="M 52.5,104.0 L 77.9,50.0 L 91.8,59.1 Z" style="fill:#E5E5E5;fill-rule:evenodd;fill-opacity:1;stroke:#E5E5E5;stroke-width:0.5px;stroke-linecap:butt;stroke-linejoin:miter;stroke-opacity:1;"/>
<path class="atom-0" d="M 12.5 122.1 L 16.7 117.9 L 11.1 116.7 L 12.0 113.9 L 17.1 116.5 L 16.3 110.9 L 19.3 110.9 L 18.5 116.4 L 23.7 114.0 L 24.5 116.7 L 18.9 117.8 L 22.9 122.1 L 20.5 123.8 L 17.7 118.5 L 14.9 123.8 L 12.5 122.1 " fill="#191919"/>
<path class="atom-0" d="M 27.5 111.3 L 31.4 111.3 L 31.4 123.4 L 45.8 123.4 L 45.8 111.3 L 49.7 111.3 L 49.7 139.7 L 45.8 139.7 L 45.8 126.6 L 31.4 126.6 L 31.4 139.7 L 27.5 139.7 L 27.5 111.3 " fill="#191919"/>
<path class="atom-1" d="M 86.3 32.6 Q 86.3 25.8, 89.7 22.0 Q 93.0 18.2, 99.3 18.2 Q 105.6 18.2, 108.9 22.0 Q 112.3 25.8, 112.3 32.6 Q 112.3 39.5, 108.9 43.4 Q 105.5 47.3, 99.3 47.3 Q 93.1 47.3, 89.7 43.4 Q 86.3 39.5, 86.3 32.6 M 99.3 44.1 Q 103.6 44.1, 105.9 41.2 Q 108.3 38.3, 108.3 32.6 Q 108.3 27.0, 105.9 24.2 Q 103.6 21.4, 99.3 21.4 Q 95.0 21.4, 92.6 24.2 Q 90.3 27.0, 90.3 32.6 Q 90.3 38.3, 92.6 41.2 Q 95.0 44.1, 99.3 44.1 " fill="#FF0000"/>
<path class="atom-1" d="M 116.7 18.5 L 120.5 18.5 L 120.5 30.6 L 135.0 30.6 L 135.0 18.5 L 138.9 18.5 L 138.9 46.8 L 135.0 46.8 L 135.0 33.8 L 120.5 33.8 L 120.5 46.8 L 116.7 46.8 L 116.7 18.5 " fill="#FF0000"/>
</svg>