<svg xmlns="http://www.w3.org/2000/svg" xmlns:rdkit="http://www.rdkit.org/xml" xmlns:xlink="http://www.w3.org/1999/xlink" version="1.1" baseProfile="full" xml:space="preserve" width="150px" height="150px" viewBox="0 0 150 150">
<!-- END OF HEADER -->
<rect style="opacity:1.0;fill:#FFFFFF;stroke:none" width="150.0" height="150.0" x="0.0" y="0.0"> </rect>
<ellipse cx="54.3" cy="94.5" rx="9.2" ry="9.2" class="atom-1" style="fill:#E5E533;fill-rule:evenodd;stroke:#E5E533;stroke-width:1.0px;stroke-linecap:butt;stroke-linejoin:miter;stroke-opacity:1"/>
<ellipse cx="63.5" cy="49.4" rx="9.2" ry="9.2" class="atom-2" style="fill:#9999E5;fill-rule:evenodd;stroke:#9999E5;stroke-width:1.0px;stroke-linecap:butt;stroke-linejoin:miter;stroke-opacity:1"/>
<ellipse cx="107.2" cy="34.8" rx="9.2" ry="9.2" class="atom-3" style="fill:#E5E533;fill-rule:evenodd;stroke:#E5E533;stroke-width:1.0px;stroke-linecap:butt;stroke-linejoin:miter;stroke-opacity:1"/>
<path class="bond-0 atom-0 atom-1" d="M 15.2,107.6 L 54.3,94.5" style="fill:none;fill-rule:evenodd;stroke:#E5E5E5;stroke-width:2.5px;stroke-linecap:butt;stroke-linejoin:miter;stroke-opacity:1"/>
<path class="bond-1 atom-1 atom-2" d="M 54.3,94.5 L 63.5,49.4" style="fill:none;fill-rule:evenodd;stroke:#000000;stroke-width:2.0px;stroke-linecap:butt;stroke-linejoin:miter;stroke-opacity:1"/>
<path class="bond-1 atom-1 atom-2" d="M 61.9,92.0 L 69.5,54.7" style="fill:none;fill-rule:evenodd;stroke:#000000;stroke-width:2.0px;stroke-linecap:butt;stroke-linejoin:miter;stroke-opacity:1;stroke-dasharray:6,4"/>
<path class="bond-2 atom-2 atom-3" d="M 63.5,49.4 L 107.2,34.8" style="fill:none;fill-rule:evenodd;stroke:#000000;stroke-width:2.0px;stroke-linecap:butt;stroke-linejoin:miter;stroke-opacity:1"/>
<path class="bond-2 atom-2 atom-3" d="M 69.5,54.7 L 105.6,42.6" style="fill:none;fill-rule:evenodd;stroke:#000000;stroke-width:2.0px;stroke-linecap:butt;stroke-linejoin:miter;stroke-opacity:1;stroke-dasharray:6,4"/>
<path class="bond-3 atom-3 atom-4" d="M 107.2,34.8 L 137.1,61.3" style="fill:none;fill-rule:evenodd;stroke:#E5E5E5;stroke-width:2.5px;stroke-linecap:butt;stroke-linejoin:miter;stroke-opacity:1"/>
<path class="bond-3 atom-3 atom-4" d="M 105.6,42.6 L 132.5,66.4" style="fill:none;fill-rule:evenodd;stroke:#E5E5E5;stroke-width:2.5px;stroke-linecap:butt;stroke-linejoin:miter;stroke-opacity:1;stroke-dasharray:6,4"/>
<path class="bond-4 atom-5 atom-1" d="M 81.9,123.6 L 50.5,95.8" style="fill:none;fill-rule:evenodd;stroke:#E5E5E5;stroke-width:2.5px;stroke-linecap:butt;stroke-linejoin:miter;stroke-opacity:1"/>
<path class="bond-4 atom-5 atom-1" d="M 86.5,118.4 L 55.1,90.6" style="fill:none;fill-rule:evenodd;stroke:#E5E5E5;stroke-width:2.5px;stroke-linecap:butt;stroke-linejoin:miter;stroke-opacity:1;stroke-dasharray:6,4"/>
<path d="M 63.1,51.6 L 63.5,49.4 L 65.7,48.7" style="fill:none;stroke:#000000;stroke-width:2.0px;stroke-linecap:butt;stroke-linejoin:miter;stroke-opacity:1;"/>
<path d="M 106.1,35.2 L 107.2,34.8 L 108.0,35.5" style="fill:none;stroke:#000000;stroke-width:2.0px;stroke-linecap:butt;stroke-linejoin:miter;stroke-opacity:1;"/>
<path class="atom-0" d="M 8.1 107.7 L 10.0 105.7 L 7.5 105.2 L 7.9 103.9 L 10.2 105.1 L 9.9 102.5 L 11.3 102.5 L 10.9 105.0 L 13.3 103.9 L 13.7 105.2 L 11.1 105.7 L 12.9 107.6 L 11.8 108.5 L 10.5 106.0 L 9.3 108.5 L 8.1 107.7 " fill="#191919"/>
<path class="atom-4" d="M 137.0 66.5 L 138.9 64.5 L 136.3 64.0 L 136.7 62.7 L 139.1 63.9 L 138.7 61.3 L 140.1 61.3 L 139.7 63.9 L 142.1 62.8 L 142.5 64.0 L 139.9 64.5 L 141.8 66.5 L 140.6 67.3 L 139.4 64.8 L 138.1 67.3 L 137.0 66.5 " fill="#191919"/>
<path class="atom-5" d="M 86.3 123.6 L 88.2 121.7 L 85.7 121.2 L 86.1 119.9 L 88.4 121.0 L 88.1 118.5 L 89.5 118.4 L 89.1 121.0 L 91.5 119.9 L 91.9 121.2 L 89.3 121.6 L 91.1 123.6 L 90.0 124.4 L 88.7 122.0 L 87.4 124.4 L 86.3 123.6 " fill="#191919"/>
</svg>