<svg xmlns="http://www.w3.org/2000/svg" xmlns:rdkit="http://www.rdkit.org/xml" xmlns:xlink="http://www.w3.org/1999/xlink" version="1.1" baseProfile="full" xml:space="preserve" width="150px" height="150px" viewBox="0 0 150 150">
<!-- END OF HEADER -->
<rect style="opacity:1.0;fill:#FFFFFF;stroke:none" width="150.0" height="150.0" x="0.0" y="0.0"> </rect>
<ellipse cx="60.0" cy="51.8" rx="15.7" ry="15.7" class="atom-1" style="fill:#9999E5;fill-rule:evenodd;stroke:#9999E5;stroke-width:1.0px;stroke-linecap:butt;stroke-linejoin:miter;stroke-opacity:1"/>
<path class="bond-0 atom-0 atom-1" d="M 16.2,102.1 L 60.0,51.8" style="fill:none;fill-rule:evenodd;stroke:#E5E5E5;stroke-width:4.2px;stroke-linecap:butt;stroke-linejoin:miter;stroke-opacity:1"/>
<path class="bond-0 atom-0 atom-1" d="M 25.1,109.9 L 64.4,64.7" style="fill:none;fill-rule:evenodd;stroke:#E5E5E5;stroke-width:4.2px;stroke-linecap:butt;stroke-linejoin:miter;stroke-opacity:1"/>
<path class="bond-1 atom-1 atom-2" d="M 60.0,51.8 L 129.4,65.4" style="fill:none;fill-rule:evenodd;stroke:#E5E5E5;stroke-width:4.2px;stroke-linecap:butt;stroke-linejoin:miter;stroke-opacity:1"/>
<path d="M 57.8,54.4 L 60.0,51.8 L 63.5,52.5" style="fill:none;stroke:#E5E5E5;stroke-width:4.2px;stroke-linecap:butt;stroke-linejoin:miter;stroke-opacity:1;"/>
<path class="atom-0" d="M 8.6 112.5 L 11.8 109.2 L 7.5 108.3 L 8.2 106.1 L 12.2 108.1 L 11.6 103.7 L 14.0 103.7 L 13.3 108.1 L 17.4 106.2 L 18.0 108.3 L 13.6 109.1 L 16.8 112.5 L 14.9 113.9 L 12.7 109.7 L 10.5 113.9 L 8.6 112.5 " fill="#191919"/>
<path class="atom-2" d="M 133.0 64.5 L 136.3 61.1 L 132.0 60.2 L 132.6 58.0 L 136.6 60.0 L 136.0 55.6 L 138.4 55.6 L 137.7 60.0 L 141.8 58.1 L 142.5 60.2 L 138.1 61.1 L 141.2 64.4 L 139.3 65.8 L 137.1 61.7 L 134.9 65.8 L 133.0 64.5 " fill="#191919"/>
</svg>