<svg xmlns="http://www.w3.org/2000/svg" xmlns:rdkit="http://www.rdkit.org/xml" xmlns:xlink="http://www.w3.org/1999/xlink" version="1.1" baseProfile="full" xml:space="preserve" width="150px" height="150px" viewBox="0 0 150 150">
<!-- END OF HEADER -->
<rect style="opacity:1.0;fill:#FFFFFF;stroke:none" width="150.0" height="150.0" x="0.0" y="0.0"> </rect>
<ellipse cx="84.6" cy="75.0" rx="13.0" ry="13.0" class="atom-1" style="fill:#CCCCCC;fill-rule:evenodd;stroke:#CCCCCC;stroke-width:1.0px;stroke-linecap:butt;stroke-linejoin:miter;stroke-opacity:1"/>
<ellipse cx="120.3" cy="20.5" rx="13.0" ry="13.0" class="atom-2" style="fill:#9999E5;fill-rule:evenodd;stroke:#9999E5;stroke-width:1.0px;stroke-linecap:butt;stroke-linejoin:miter;stroke-opacity:1"/>
<path class="bond-0 atom-0 atom-1" d="M 26.1,71.7 L 84.6,75.0" style="fill:none;fill-rule:evenodd;stroke:#E5E5E5;stroke-width:3.5px;stroke-linecap:butt;stroke-linejoin:miter;stroke-opacity:1"/>
<path class="bond-1 atom-1 atom-2" d="M 87.2,80.0 L 101.9,57.5" style="fill:none;fill-rule:evenodd;stroke:#000000;stroke-width:2.0px;stroke-linecap:butt;stroke-linejoin:miter;stroke-opacity:1"/>
<path class="bond-1 atom-1 atom-2" d="M 101.9,57.5 L 116.7,35.0" style="fill:none;fill-rule:evenodd;stroke:#FF0000;stroke-width:2.0px;stroke-linecap:butt;stroke-linejoin:miter;stroke-opacity:1"/>
<path class="bond-1 atom-1 atom-2" d="M 79.0,74.7 L 93.8,52.1" style="fill:none;fill-rule:evenodd;stroke:#000000;stroke-width:2.0px;stroke-linecap:butt;stroke-linejoin:miter;stroke-opacity:1"/>
<path class="bond-1 atom-1 atom-2" d="M 93.8,52.1 L 108.5,29.6" style="fill:none;fill-rule:evenodd;stroke:#FF0000;stroke-width:2.0px;stroke-linecap:butt;stroke-linejoin:miter;stroke-opacity:1"/>
<path class="bond-2 atom-3 atom-1" d="M 105.8,116.1 L 105.2,116.4" style="fill:none;fill-rule:evenodd;stroke:#E5E5E5;stroke-width:1.0px;stroke-linecap:butt;stroke-linejoin:miter;stroke-opacity:1"/>
<path class="bond-2 atom-3 atom-1" d="M 104.6,112.8 L 103.2,113.4" style="fill:none;fill-rule:evenodd;stroke:#E5E5E5;stroke-width:1.0px;stroke-linecap:butt;stroke-linejoin:miter;stroke-opacity:1"/>
<path class="bond-2 atom-3 atom-1" d="M 103.3,109.4 L 101.3,110.4" style="fill:none;fill-rule:evenodd;stroke:#E5E5E5;stroke-width:1.0px;stroke-linecap:butt;stroke-linejoin:miter;stroke-opacity:1"/>
<path class="bond-2 atom-3 atom-1" d="M 102.0,106.1 L 99.3,107.4" style="fill:none;fill-rule:evenodd;stroke:#E5E5E5;stroke-width:1.0px;stroke-linecap:butt;stroke-linejoin:miter;stroke-opacity:1"/>
<path class="bond-2 atom-3 atom-1" d="M 100.8,102.7 L 97.4,104.4" style="fill:none;fill-rule:evenodd;stroke:#E5E5E5;stroke-width:1.0px;stroke-linecap:butt;stroke-linejoin:miter;stroke-opacity:1"/>
<path class="bond-2 atom-3 atom-1" d="M 99.5,99.4 L 95.5,101.4" style="fill:none;fill-rule:evenodd;stroke:#E5E5E5;stroke-width:1.0px;stroke-linecap:butt;stroke-linejoin:miter;stroke-opacity:1"/>
<path class="bond-2 atom-3 atom-1" d="M 98.2,96.1 L 93.5,98.4" style="fill:none;fill-rule:evenodd;stroke:#E5E5E5;stroke-width:1.0px;stroke-linecap:butt;stroke-linejoin:miter;stroke-opacity:1"/>
<path class="bond-2 atom-3 atom-1" d="M 97.0,92.7 L 91.6,95.4" style="fill:none;fill-rule:evenodd;stroke:#E5E5E5;stroke-width:1.0px;stroke-linecap:butt;stroke-linejoin:miter;stroke-opacity:1"/>
<path class="bond-2 atom-3 atom-1" d="M 95.7,89.4 L 89.7,92.4" style="fill:none;fill-rule:evenodd;stroke:#E5E5E5;stroke-width:1.0px;stroke-linecap:butt;stroke-linejoin:miter;stroke-opacity:1"/>
<path class="bond-2 atom-3 atom-1" d="M 94.4,86.0 L 87.7,89.4" style="fill:none;fill-rule:evenodd;stroke:#E5E5E5;stroke-width:1.0px;stroke-linecap:butt;stroke-linejoin:miter;stroke-opacity:1"/>
<path class="bond-2 atom-3 atom-1" d="M 93.2,82.7 L 85.8,86.4" style="fill:none;fill-rule:evenodd;stroke:#E5E5E5;stroke-width:1.0px;stroke-linecap:butt;stroke-linejoin:miter;stroke-opacity:1"/>
<path class="bond-2 atom-3 atom-1" d="M 91.9,79.3 L 83.8,83.4" style="fill:none;fill-rule:evenodd;stroke:#E5E5E5;stroke-width:1.0px;stroke-linecap:butt;stroke-linejoin:miter;stroke-opacity:1"/>
<path class="bond-2 atom-3 atom-1" d="M 90.6,76.0 L 81.9,80.4" style="fill:none;fill-rule:evenodd;stroke:#E5E5E5;stroke-width:1.0px;stroke-linecap:butt;stroke-linejoin:miter;stroke-opacity:1"/>
<path class="atom-0" d="M 16.2 69.3 L 18.9 66.5 L 15.3 65.8 L 15.8 64.0 L 19.1 65.6 L 18.7 62.0 L 20.6 62.0 L 20.1 65.6 L 23.4 64.0 L 24.0 65.8 L 20.4 66.5 L 23.0 69.3 L 21.4 70.4 L 19.6 67.0 L 17.7 70.4 L 16.2 69.3 " fill="#191919"/>
<path class="atom-2" d="M 111.8 20.6 Q 111.8 16.1, 114.0 13.7 Q 116.2 11.2, 120.3 11.2 Q 124.4 11.2, 126.6 13.7 Q 128.8 16.1, 128.8 20.6 Q 128.8 25.1, 126.6 27.6 Q 124.3 30.1, 120.3 30.1 Q 116.2 30.1, 114.0 27.6 Q 111.8 25.1, 111.8 20.6 M 120.3 28.0 Q 123.1 28.0, 124.6 26.2 Q 126.2 24.3, 126.2 20.6 Q 126.2 17.0, 124.6 15.1 Q 123.1 13.3, 120.3 13.3 Q 117.5 13.3, 116.0 15.1 Q 114.4 16.9, 114.4 20.6 Q 114.4 24.3, 116.0 26.2 Q 117.5 28.0, 120.3 28.0 " fill="#FF0000"/>
<path class="atom-3" d="M 110.5 131.1 L 113.2 128.3 L 109.6 127.6 L 110.2 125.7 L 113.5 127.4 L 113.0 123.8 L 115.0 123.7 L 114.4 127.4 L 117.8 125.8 L 118.4 127.6 L 114.7 128.3 L 117.3 131.0 L 115.7 132.2 L 113.9 128.7 L 112.1 132.2 L 110.5 131.1 " fill="#191919"/>
<path class="atom-3" d="M 120.3 124.1 L 122.8 124.1 L 122.8 131.9 L 132.2 131.9 L 132.2 124.1 L 134.7 124.1 L 134.7 142.5 L 132.2 142.5 L 132.2 134.0 L 122.8 134.0 L 122.8 142.5 L 120.3 142.5 L 120.3 124.1 " fill="#191919"/>
</svg>