<svg xmlns="http://www.w3.org/2000/svg" xmlns:rdkit="http://www.rdkit.org/xml" xmlns:xlink="http://www.w3.org/1999/xlink" version="1.1" baseProfile="full" xml:space="preserve" width="150px" height="150px" viewBox="0 0 150 150">
<!-- END OF HEADER -->
<rect style="opacity:1.0;fill:#FFFFFF;stroke:none" width="150.0" height="150.0" x="0.0" y="0.0"> </rect>
<ellipse cx="90.0" cy="75.2" rx="10.5" ry="10.5" class="atom-1" style="fill:#9999E5;fill-rule:evenodd;stroke:#9999E5;stroke-width:1.0px;stroke-linecap:butt;stroke-linejoin:miter;stroke-opacity:1"/>
<ellipse cx="63.5" cy="120.5" rx="10.5" ry="10.5" class="atom-2" style="fill:#CCCCCC;fill-rule:evenodd;stroke:#CCCCCC;stroke-width:1.0px;stroke-linecap:butt;stroke-linejoin:miter;stroke-opacity:1"/>
<ellipse cx="64.0" cy="29.5" rx="10.5" ry="10.5" class="atom-5" style="fill:#CCCCCC;fill-rule:evenodd;stroke:#CCCCCC;stroke-width:1.0px;stroke-linecap:butt;stroke-linejoin:miter;stroke-opacity:1"/>
<path class="bond-0 atom-0 atom-1" d="M 142.5,75.5 L 90.0,75.2" style="fill:none;fill-rule:evenodd;stroke:#000000;stroke-width:2.0px;stroke-linecap:butt;stroke-linejoin:miter;stroke-opacity:1"/>
<path class="bond-1 atom-1 atom-2" d="M 90.0,75.2 L 63.5,120.5" style="fill:none;fill-rule:evenodd;stroke:#000000;stroke-width:2.0px;stroke-linecap:butt;stroke-linejoin:miter;stroke-opacity:1"/>
<path class="bond-1 atom-1 atom-2" d="M 80.9,75.1 L 59.0,112.6" style="fill:none;fill-rule:evenodd;stroke:#000000;stroke-width:2.0px;stroke-linecap:butt;stroke-linejoin:miter;stroke-opacity:1"/>
<path class="bond-2 atom-2 atom-3" d="M 63.5,120.5 L 16.3,120.2" style="fill:none;fill-rule:evenodd;stroke:#E5E5E5;stroke-width:2.8px;stroke-linecap:butt;stroke-linejoin:miter;stroke-opacity:1"/>
<path class="bond-3 atom-5 atom-4" d="M 60.5,29.8 L 60.5,29.2" style="fill:none;fill-rule:evenodd;stroke:#E5E5E5;stroke-width:1.0px;stroke-linecap:butt;stroke-linejoin:miter;stroke-opacity:1"/>
<path class="bond-3 atom-5 atom-4" d="M 57.0,30.1 L 57.0,28.9" style="fill:none;fill-rule:evenodd;stroke:#E5E5E5;stroke-width:1.0px;stroke-linecap:butt;stroke-linejoin:miter;stroke-opacity:1"/>
<path class="bond-3 atom-5 atom-4" d="M 53.5,30.4 L 53.5,28.6" style="fill:none;fill-rule:evenodd;stroke:#E5E5E5;stroke-width:1.0px;stroke-linecap:butt;stroke-linejoin:miter;stroke-opacity:1"/>
<path class="bond-3 atom-5 atom-4" d="M 50.0,30.7 L 50.0,28.3" style="fill:none;fill-rule:evenodd;stroke:#E5E5E5;stroke-width:1.0px;stroke-linecap:butt;stroke-linejoin:miter;stroke-opacity:1"/>
<path class="bond-3 atom-5 atom-4" d="M 46.5,31.0 L 46.5,27.9" style="fill:none;fill-rule:evenodd;stroke:#E5E5E5;stroke-width:1.0px;stroke-linecap:butt;stroke-linejoin:miter;stroke-opacity:1"/>
<path class="bond-3 atom-5 atom-4" d="M 43.0,31.2 L 43.0,27.6" style="fill:none;fill-rule:evenodd;stroke:#E5E5E5;stroke-width:1.0px;stroke-linecap:butt;stroke-linejoin:miter;stroke-opacity:1"/>
<path class="bond-3 atom-5 atom-4" d="M 39.5,31.5 L 39.5,27.3" style="fill:none;fill-rule:evenodd;stroke:#E5E5E5;stroke-width:1.0px;stroke-linecap:butt;stroke-linejoin:miter;stroke-opacity:1"/>
<path class="bond-3 atom-5 atom-4" d="M 36.0,31.8 L 36.0,27.0" style="fill:none;fill-rule:evenodd;stroke:#E5E5E5;stroke-width:1.0px;stroke-linecap:butt;stroke-linejoin:miter;stroke-opacity:1"/>
<path class="bond-3 atom-5 atom-4" d="M 32.5,32.1 L 32.5,26.6" style="fill:none;fill-rule:evenodd;stroke:#E5E5E5;stroke-width:1.0px;stroke-linecap:butt;stroke-linejoin:miter;stroke-opacity:1"/>
<path class="bond-3 atom-5 atom-4" d="M 29.0,32.4 L 29.0,26.3" style="fill:none;fill-rule:evenodd;stroke:#E5E5E5;stroke-width:1.0px;stroke-linecap:butt;stroke-linejoin:miter;stroke-opacity:1"/>
<path class="bond-3 atom-5 atom-4" d="M 25.5,32.7 L 25.5,26.0" style="fill:none;fill-rule:evenodd;stroke:#E5E5E5;stroke-width:1.0px;stroke-linecap:butt;stroke-linejoin:miter;stroke-opacity:1"/>
<path class="bond-3 atom-5 atom-4" d="M 22.0,32.9 L 22.0,25.7" style="fill:none;fill-rule:evenodd;stroke:#E5E5E5;stroke-width:1.0px;stroke-linecap:butt;stroke-linejoin:miter;stroke-opacity:1"/>
<path class="bond-3 atom-5 atom-4" d="M 18.5,33.2 L 18.5,25.3" style="fill:none;fill-rule:evenodd;stroke:#E5E5E5;stroke-width:1.0px;stroke-linecap:butt;stroke-linejoin:miter;stroke-opacity:1"/>
<path class="bond-4 atom-5 atom-6" d="M 64.0,29.5 L 42.8,65.9" style="fill:none;fill-rule:evenodd;stroke:#E5E5E5;stroke-width:2.8px;stroke-linecap:butt;stroke-linejoin:miter;stroke-opacity:1"/>
<path class="bond-5 atom-5 atom-1" d="M 64.0,29.5 L 90.0,75.2" style="fill:none;fill-rule:evenodd;stroke:#000000;stroke-width:2.0px;stroke-linecap:butt;stroke-linejoin:miter;stroke-opacity:1"/>
<path d="M 64.2,119.3 L 63.5,120.5 L 62.3,120.4" style="fill:none;stroke:#000000;stroke-width:2.0px;stroke-linecap:butt;stroke-linejoin:miter;stroke-opacity:1;"/>
<path d="M 63.5,30.5 L 64.0,29.5 L 64.7,30.7" style="fill:none;stroke:#E5E5E5;stroke-width:2.8px;stroke-linecap:butt;stroke-linejoin:miter;stroke-opacity:1;"/>
<path class="atom-3" d="M 8.2 118.5 L 10.4 116.3 L 7.5 115.7 L 7.9 114.2 L 10.6 115.5 L 10.2 112.6 L 11.8 112.6 L 11.4 115.5 L 14.1 114.3 L 14.5 115.7 L 11.6 116.2 L 13.7 118.5 L 12.4 119.4 L 11.0 116.6 L 9.5 119.4 L 8.2 118.5 " fill="#191919"/>
<path class="atom-4" d="M 8.7 27.6 L 10.9 25.4 L 8.0 24.8 L 8.5 23.3 L 11.1 24.6 L 10.8 21.7 L 12.3 21.7 L 11.9 24.6 L 14.6 23.3 L 15.1 24.8 L 12.1 25.3 L 14.2 27.6 L 12.9 28.5 L 11.5 25.7 L 10.0 28.5 L 8.7 27.6 " fill="#191919"/>
<path class="atom-6" d="M 34.7 73.2 L 36.9 71.0 L 34.0 70.4 L 34.4 68.9 L 37.1 70.2 L 36.7 67.3 L 38.3 67.3 L 37.9 70.2 L 40.6 68.9 L 41.0 70.4 L 38.1 70.9 L 40.2 73.2 L 38.9 74.1 L 37.5 71.3 L 36.0 74.1 L 34.7 73.2 " fill="#191919"/>
</svg>