<svg xmlns="http://www.w3.org/2000/svg" xmlns:rdkit="http://www.rdkit.org/xml" xmlns:xlink="http://www.w3.org/1999/xlink" version="1.1" baseProfile="full" xml:space="preserve" width="150px" height="150px" viewBox="0 0 150 150">
<!-- END OF HEADER -->
<rect style="opacity:1.0;fill:#FFFFFF;stroke:none" width="150.0" height="150.0" x="0.0" y="0.0"> </rect>
<ellipse cx="75.9" cy="76.9" rx="7.7" ry="7.7" class="atom-3" style="fill:#9999E5;fill-rule:evenodd;stroke:#9999E5;stroke-width:1.0px;stroke-linecap:butt;stroke-linejoin:miter;stroke-opacity:1"/>
<ellipse cx="112.2" cy="90.1" rx="7.7" ry="7.7" class="atom-4" style="fill:#E5E533;fill-rule:evenodd;stroke:#E5E533;stroke-width:1.0px;stroke-linecap:butt;stroke-linejoin:miter;stroke-opacity:1"/>
<ellipse cx="69.2" cy="38.9" rx="7.7" ry="7.7" class="atom-7" style="fill:#E5E533;fill-rule:evenodd;stroke:#E5E533;stroke-width:1.0px;stroke-linecap:butt;stroke-linejoin:miter;stroke-opacity:1"/>
<path class="bond-0 atom-0 atom-1" d="M 12.1,89.3 L 46.4,101.8" style="fill:none;fill-rule:evenodd;stroke:#E5E5E5;stroke-width:2.1px;stroke-linecap:butt;stroke-linejoin:miter;stroke-opacity:1"/>
<path class="bond-1 atom-1 atom-2" d="M 46.4,101.8 L 51.9,133.0" style="fill:none;fill-rule:evenodd;stroke:#E5E5E5;stroke-width:2.1px;stroke-linecap:butt;stroke-linejoin:miter;stroke-opacity:1"/>
<path class="bond-2 atom-1 atom-3" d="M 46.4,101.8 L 75.9,76.9" style="fill:none;fill-rule:evenodd;stroke:#000000;stroke-width:2.0px;stroke-linecap:butt;stroke-linejoin:miter;stroke-opacity:1"/>
<path class="bond-3 atom-3 atom-4" d="M 75.9,76.9 L 112.2,90.1" style="fill:none;fill-rule:evenodd;stroke:#000000;stroke-width:2.0px;stroke-linecap:butt;stroke-linejoin:miter;stroke-opacity:1"/>
<path class="bond-3 atom-3 atom-4" d="M 81.1,72.6 L 111.1,83.5" style="fill:none;fill-rule:evenodd;stroke:#000000;stroke-width:2.0px;stroke-linecap:butt;stroke-linejoin:miter;stroke-opacity:1;stroke-dasharray:6,4"/>
<path class="bond-4 atom-4 atom-5" d="M 112.2,90.1 L 140.9,66.0" style="fill:none;fill-rule:evenodd;stroke:#E5E5E5;stroke-width:2.1px;stroke-linecap:butt;stroke-linejoin:miter;stroke-opacity:1"/>
<path class="bond-4 atom-4 atom-5" d="M 111.1,83.5 L 137.2,61.6" style="fill:none;fill-rule:evenodd;stroke:#E5E5E5;stroke-width:2.1px;stroke-linecap:butt;stroke-linejoin:miter;stroke-opacity:1;stroke-dasharray:6,4"/>
<path class="bond-5 atom-6 atom-7" d="M 97.9,14.8 L 69.2,38.9" style="fill:none;fill-rule:evenodd;stroke:#E5E5E5;stroke-width:2.1px;stroke-linecap:butt;stroke-linejoin:miter;stroke-opacity:1"/>
<path class="bond-5 atom-6 atom-7" d="M 101.6,19.2 L 75.5,41.2" style="fill:none;fill-rule:evenodd;stroke:#E5E5E5;stroke-width:2.1px;stroke-linecap:butt;stroke-linejoin:miter;stroke-opacity:1;stroke-dasharray:6,4"/>
<path class="bond-6 atom-7 atom-3" d="M 69.2,38.9 L 75.9,76.9" style="fill:none;fill-rule:evenodd;stroke:#000000;stroke-width:2.0px;stroke-linecap:butt;stroke-linejoin:miter;stroke-opacity:1"/>
<path class="bond-6 atom-7 atom-3" d="M 75.5,41.2 L 81.1,72.6" style="fill:none;fill-rule:evenodd;stroke:#000000;stroke-width:2.0px;stroke-linecap:butt;stroke-linejoin:miter;stroke-opacity:1;stroke-dasharray:6,4"/>
<path d="M 111.3,89.8 L 112.2,90.1 L 112.9,89.5" style="fill:none;stroke:#000000;stroke-width:2.0px;stroke-linecap:butt;stroke-linejoin:miter;stroke-opacity:1;"/>
<path d="M 69.9,38.3 L 69.2,38.9 L 69.4,39.9" style="fill:none;stroke:#E5E5E5;stroke-width:2.1px;stroke-linecap:butt;stroke-linejoin:miter;stroke-opacity:1;"/>
<path class="atom-0" d="M 8.0 87.4 L 9.6 85.8 L 7.5 85.3 L 7.8 84.2 L 9.8 85.2 L 9.5 83.1 L 10.7 83.1 L 10.3 85.2 L 12.3 84.3 L 12.7 85.3 L 10.5 85.7 L 12.1 87.4 L 11.1 88.1 L 10.0 86.0 L 9.0 88.1 L 8.0 87.4 " fill="#191919"/>
<path class="atom-2" d="M 51.1 138.6 L 52.7 137.0 L 50.5 136.5 L 50.9 135.4 L 52.8 136.4 L 52.5 134.3 L 53.7 134.2 L 53.4 136.4 L 55.4 135.5 L 55.7 136.5 L 53.5 136.9 L 55.1 138.6 L 54.1 139.3 L 53.1 137.2 L 52.0 139.3 L 51.1 138.6 " fill="#191919"/>
<path class="atom-5" d="M 137.9 61.8 L 139.5 60.2 L 137.3 59.8 L 137.7 58.7 L 139.6 59.7 L 139.3 57.5 L 140.5 57.5 L 140.2 59.7 L 142.2 58.7 L 142.5 59.8 L 140.3 60.2 L 141.9 61.8 L 140.9 62.5 L 139.9 60.5 L 138.8 62.5 L 137.9 61.8 " fill="#191919"/>
<path class="atom-6" d="M 98.6 15.1 L 100.2 13.5 L 98.0 13.0 L 98.3 11.9 L 100.3 12.9 L 100.0 10.8 L 101.2 10.7 L 100.9 12.9 L 102.9 12.0 L 103.2 13.0 L 101.0 13.4 L 102.6 15.1 L 101.6 15.8 L 100.6 13.7 L 99.5 15.8 L 98.6 15.1 " fill="#191919"/>
</svg>