<svg xmlns="http://www.w3.org/2000/svg" xmlns:rdkit="http://www.rdkit.org/xml" xmlns:xlink="http://www.w3.org/1999/xlink" version="1.1" baseProfile="full" xml:space="preserve" width="150px" height="150px" viewBox="0 0 150 150">
<!-- END OF HEADER -->
<rect style="opacity:1.0;fill:#FFFFFF;stroke:none" width="150.0" height="150.0" x="0.0" y="0.0"> </rect>
<ellipse cx="35.2" cy="62.4" rx="8.1" ry="8.1" class="atom-1" style="fill:#E5E533;fill-rule:evenodd;stroke:#E5E533;stroke-width:1.0px;stroke-linecap:butt;stroke-linejoin:miter;stroke-opacity:1"/>
<ellipse cx="75.0" cy="56.6" rx="8.1" ry="8.1" class="atom-2" style="fill:#9999E5;fill-rule:evenodd;stroke:#9999E5;stroke-width:1.0px;stroke-linecap:butt;stroke-linejoin:miter;stroke-opacity:1"/>
<ellipse cx="100.0" cy="88.2" rx="8.1" ry="8.1" class="atom-3" style="fill:#E5E533;fill-rule:evenodd;stroke:#E5E533;stroke-width:1.0px;stroke-linecap:butt;stroke-linejoin:miter;stroke-opacity:1"/>
<path class="bond-0 atom-0 atom-1" d="M 20.3,91.6 L 33.0,59.7" style="fill:none;fill-rule:evenodd;stroke:#E5E5E5;stroke-width:2.1px;stroke-linecap:butt;stroke-linejoin:miter;stroke-opacity:1"/>
<path class="bond-0 atom-0 atom-1" d="M 25.9,93.8 L 38.6,61.9" style="fill:none;fill-rule:evenodd;stroke:#E5E5E5;stroke-width:2.1px;stroke-linecap:butt;stroke-linejoin:miter;stroke-opacity:1;stroke-dasharray:6,4"/>
<path class="bond-1 atom-1 atom-2" d="M 35.2,62.4 L 75.0,56.6" style="fill:none;fill-rule:evenodd;stroke:#000000;stroke-width:2.0px;stroke-linecap:butt;stroke-linejoin:miter;stroke-opacity:1"/>
<path class="bond-1 atom-1 atom-2" d="M 39.5,67.9 L 72.4,63.1" style="fill:none;fill-rule:evenodd;stroke:#000000;stroke-width:2.0px;stroke-linecap:butt;stroke-linejoin:miter;stroke-opacity:1;stroke-dasharray:6,4"/>
<path class="bond-2 atom-2 atom-3" d="M 75.0,56.6 L 100.0,88.2" style="fill:none;fill-rule:evenodd;stroke:#000000;stroke-width:2.0px;stroke-linecap:butt;stroke-linejoin:miter;stroke-opacity:1"/>
<path class="bond-2 atom-2 atom-3" d="M 72.4,63.1 L 93.1,89.2" style="fill:none;fill-rule:evenodd;stroke:#000000;stroke-width:2.0px;stroke-linecap:butt;stroke-linejoin:miter;stroke-opacity:1;stroke-dasharray:6,4"/>
<path class="bond-3 atom-3 atom-4" d="M 97.8,85.4 L 85.1,117.3" style="fill:none;fill-rule:evenodd;stroke:#E5E5E5;stroke-width:2.1px;stroke-linecap:butt;stroke-linejoin:miter;stroke-opacity:1"/>
<path class="bond-3 atom-3 atom-4" d="M 103.4,87.7 L 90.7,119.6" style="fill:none;fill-rule:evenodd;stroke:#E5E5E5;stroke-width:2.1px;stroke-linecap:butt;stroke-linejoin:miter;stroke-opacity:1;stroke-dasharray:6,4"/>
<path class="bond-4 atom-3 atom-5" d="M 100.0,88.2 L 135.8,82.9" style="fill:none;fill-rule:evenodd;stroke:#E5E5E5;stroke-width:2.1px;stroke-linecap:butt;stroke-linejoin:miter;stroke-opacity:1"/>
<path class="bond-5 atom-1 atom-6" d="M 35.2,62.4 L 10.8,31.5" style="fill:none;fill-rule:evenodd;stroke:#E5E5E5;stroke-width:2.1px;stroke-linecap:butt;stroke-linejoin:miter;stroke-opacity:1"/>
<path d="M 73.0,56.9 L 75.0,56.6 L 76.2,58.2" style="fill:none;stroke:#000000;stroke-width:2.0px;stroke-linecap:butt;stroke-linejoin:miter;stroke-opacity:1;"/>
<path class="atom-0" d="M 18.1 98.5 L 19.8 96.8 L 17.6 96.4 L 17.9 95.2 L 20.0 96.3 L 19.7 94.0 L 20.9 94.0 L 20.5 96.2 L 22.6 95.3 L 23.0 96.4 L 20.7 96.8 L 22.3 98.5 L 21.4 99.2 L 20.2 97.1 L 19.1 99.2 L 18.1 98.5 " fill="#191919"/>
<path class="atom-4" d="M 82.9 124.3 L 84.6 122.6 L 82.4 122.1 L 82.7 121.0 L 84.8 122.0 L 84.5 119.8 L 85.7 119.8 L 85.3 122.0 L 87.4 121.1 L 87.8 122.1 L 85.5 122.6 L 87.1 124.3 L 86.2 125.0 L 85.0 122.9 L 83.9 125.0 L 82.9 124.3 " fill="#191919"/>
<path class="atom-5" d="M 137.7 81.1 L 139.3 79.4 L 137.1 78.9 L 137.4 77.8 L 139.5 78.8 L 139.2 76.6 L 140.4 76.5 L 140.1 78.8 L 142.1 77.8 L 142.5 78.9 L 140.2 79.3 L 141.9 81.1 L 140.9 81.8 L 139.8 79.6 L 138.6 81.8 L 137.7 81.1 " fill="#191919"/>
<path class="atom-6" d="M 8.0 29.5 L 9.7 27.8 L 7.5 27.4 L 7.8 26.2 L 9.9 27.3 L 9.6 25.0 L 10.8 25.0 L 10.5 27.2 L 12.5 26.3 L 12.9 27.4 L 10.6 27.8 L 12.3 29.5 L 11.3 30.2 L 10.2 28.1 L 9.0 30.2 L 8.0 29.5 " fill="#191919"/>
</svg>