<svg xmlns="http://www.w3.org/2000/svg" xmlns:rdkit="http://www.rdkit.org/xml" xmlns:xlink="http://www.w3.org/1999/xlink" version="1.1" baseProfile="full" xml:space="preserve" width="150px" height="150px" viewBox="0 0 150 150">
<!-- END OF HEADER -->
<rect style="opacity:1.0;fill:#FFFFFF;stroke:none" width="150.0" height="150.0" x="0.0" y="0.0"> </rect>
<ellipse cx="66.4" cy="56.7" rx="15.1" ry="15.1" class="atom-1" style="fill:#9999E5;fill-rule:evenodd;stroke:#9999E5;stroke-width:1.0px;stroke-linecap:butt;stroke-linejoin:miter;stroke-opacity:1"/>
<path class="bond-0 atom-0 atom-1" d="M 20.1,102.1 L 66.4,56.7" style="fill:none;fill-rule:evenodd;stroke:#E5E5E5;stroke-width:4.0px;stroke-linecap:butt;stroke-linejoin:miter;stroke-opacity:1"/>
<path class="bond-1 atom-1 atom-2" d="M 66.4,56.7 L 131.4,74.8" style="fill:none;fill-rule:evenodd;stroke:#E5E5E5;stroke-width:4.0px;stroke-linecap:butt;stroke-linejoin:miter;stroke-opacity:1"/>
<path class="bond-1 atom-1 atom-2" d="M 69.6,69.3 L 128.4,85.7" style="fill:none;fill-rule:evenodd;stroke:#E5E5E5;stroke-width:4.0px;stroke-linecap:butt;stroke-linejoin:miter;stroke-opacity:1"/>
<path d="M 64.1,59.0 L 66.4,56.7 L 69.6,57.6" style="fill:none;stroke:#E5E5E5;stroke-width:4.0px;stroke-linecap:butt;stroke-linejoin:miter;stroke-opacity:1;"/>
<path class="atom-0" d="M 8.5 107.1 L 11.7 103.9 L 7.5 103.0 L 8.1 100.9 L 12.0 102.8 L 11.4 98.6 L 13.7 98.6 L 13.0 102.8 L 16.9 101.0 L 17.6 103.0 L 13.4 103.8 L 16.4 107.0 L 14.6 108.4 L 12.5 104.4 L 10.4 108.4 L 8.5 107.1 " fill="#191919"/>
<path class="atom-2" d="M 133.4 80.0 L 136.6 76.8 L 132.4 76.0 L 133.0 73.8 L 136.9 75.7 L 136.3 71.6 L 138.6 71.5 L 137.9 75.7 L 141.8 73.9 L 142.5 76.0 L 138.3 76.7 L 141.3 80.0 L 139.5 81.3 L 137.4 77.3 L 135.3 81.3 L 133.4 80.0 " fill="#191919"/>
</svg>