<svg xmlns="http://www.w3.org/2000/svg" xmlns:rdkit="http://www.rdkit.org/xml" xmlns:xlink="http://www.w3.org/1999/xlink" version="1.1" baseProfile="full" xml:space="preserve" width="150px" height="150px" viewBox="0 0 150 150">
<!-- END OF HEADER -->
<rect style="opacity:1.0;fill:#FFFFFF;stroke:none" width="150.0" height="150.0" x="0.0" y="0.0"> </rect>
<ellipse cx="95.6" cy="98.1" rx="8.8" ry="8.8" class="atom-1" style="fill:#E5E533;fill-rule:evenodd;stroke:#E5E533;stroke-width:1.0px;stroke-linecap:butt;stroke-linejoin:miter;stroke-opacity:1"/>
<ellipse cx="31.8" cy="56.4" rx="8.8" ry="8.8" class="atom-4" style="fill:#E5E533;fill-rule:evenodd;stroke:#E5E533;stroke-width:1.0px;stroke-linecap:butt;stroke-linejoin:miter;stroke-opacity:1"/>
<ellipse cx="75.8" cy="58.8" rx="8.8" ry="8.8" class="atom-5" style="fill:#9999E5;fill-rule:evenodd;stroke:#9999E5;stroke-width:1.0px;stroke-linecap:butt;stroke-linejoin:miter;stroke-opacity:1"/>
<path class="bond-0 atom-0 atom-1" d="M 135.1,100.3 L 95.6,98.1" style="fill:none;fill-rule:evenodd;stroke:#E5E5E5;stroke-width:2.3px;stroke-linecap:butt;stroke-linejoin:miter;stroke-opacity:1"/>
<path class="bond-1 atom-1 atom-2" d="M 93.9,94.7 L 73.1,126.4" style="fill:none;fill-rule:evenodd;stroke:#E5E5E5;stroke-width:2.3px;stroke-linecap:butt;stroke-linejoin:miter;stroke-opacity:1"/>
<path class="bond-1 atom-1 atom-2" d="M 99.4,98.3 L 78.6,130.0" style="fill:none;fill-rule:evenodd;stroke:#E5E5E5;stroke-width:2.3px;stroke-linecap:butt;stroke-linejoin:miter;stroke-opacity:1;stroke-dasharray:6,4"/>
<path class="bond-2 atom-3 atom-4" d="M 12.1,86.5 L 31.8,56.4" style="fill:none;fill-rule:evenodd;stroke:#E5E5E5;stroke-width:2.3px;stroke-linecap:butt;stroke-linejoin:miter;stroke-opacity:1"/>
<path class="bond-2 atom-3 atom-4" d="M 17.6,90.1 L 35.2,63.2" style="fill:none;fill-rule:evenodd;stroke:#E5E5E5;stroke-width:2.3px;stroke-linecap:butt;stroke-linejoin:miter;stroke-opacity:1;stroke-dasharray:6,4"/>
<path class="bond-3 atom-4 atom-5" d="M 31.8,56.4 L 75.8,58.8" style="fill:none;fill-rule:evenodd;stroke:#000000;stroke-width:2.0px;stroke-linecap:butt;stroke-linejoin:miter;stroke-opacity:1"/>
<path class="bond-3 atom-4 atom-5" d="M 35.2,63.2 L 71.6,65.2" style="fill:none;fill-rule:evenodd;stroke:#000000;stroke-width:2.0px;stroke-linecap:butt;stroke-linejoin:miter;stroke-opacity:1;stroke-dasharray:6,4"/>
<path class="bond-4 atom-5 atom-6" d="M 75.8,58.8 L 85.2,44.4" style="fill:none;fill-rule:evenodd;stroke:#000000;stroke-width:2.0px;stroke-linecap:butt;stroke-linejoin:miter;stroke-opacity:1"/>
<path class="bond-4 atom-5 atom-6" d="M 85.2,44.4 L 94.7,29.9" style="fill:none;fill-rule:evenodd;stroke:#FF0000;stroke-width:2.0px;stroke-linecap:butt;stroke-linejoin:miter;stroke-opacity:1"/>
<path class="bond-5 atom-5 atom-1" d="M 75.8,58.8 L 95.6,98.1" style="fill:none;fill-rule:evenodd;stroke:#000000;stroke-width:2.0px;stroke-linecap:butt;stroke-linejoin:miter;stroke-opacity:1"/>
<path class="bond-5 atom-5 atom-1" d="M 71.6,65.2 L 88.0,97.7" style="fill:none;fill-rule:evenodd;stroke:#000000;stroke-width:2.0px;stroke-linecap:butt;stroke-linejoin:miter;stroke-opacity:1;stroke-dasharray:6,4"/>
<path d="M 31.3,57.1 L 31.8,56.4 L 32.9,56.4" style="fill:none;stroke:#E5E5E5;stroke-width:2.3px;stroke-linecap:butt;stroke-linejoin:miter;stroke-opacity:1;"/>
<path class="atom-0" d="M 137.2 99.2 L 139.0 97.3 L 136.6 96.8 L 137.0 95.6 L 139.2 96.7 L 138.9 94.3 L 140.2 94.2 L 139.8 96.7 L 142.1 95.6 L 142.5 96.8 L 140.0 97.3 L 141.8 99.2 L 140.7 99.9 L 139.5 97.6 L 138.3 99.9 L 137.2 99.2 " fill="#191919"/>
<path class="atom-2" d="M 69.1 133.6 L 71.0 131.7 L 68.5 131.2 L 68.9 130.0 L 71.1 131.1 L 70.8 128.6 L 72.1 128.6 L 71.8 131.1 L 74.0 130.0 L 74.4 131.2 L 72.0 131.7 L 73.7 133.5 L 72.7 134.3 L 71.4 132.0 L 70.2 134.3 L 69.1 133.6 " fill="#191919"/>
<path class="atom-3" d="M 8.1 93.6 L 9.9 91.7 L 7.5 91.2 L 7.9 90.0 L 10.1 91.1 L 9.8 88.7 L 11.1 88.7 L 10.7 91.1 L 13.0 90.0 L 13.4 91.2 L 10.9 91.7 L 12.7 93.6 L 11.6 94.4 L 10.4 92.0 L 9.2 94.4 L 8.1 93.6 " fill="#191919"/>
<path class="atom-6" d="M 94.1 22.0 Q 94.1 19.0, 95.6 17.4 Q 97.1 15.7, 99.9 15.7 Q 102.6 15.7, 104.1 17.4 Q 105.6 19.0, 105.6 22.0 Q 105.6 25.1, 104.1 26.8 Q 102.6 28.5, 99.9 28.5 Q 97.1 28.5, 95.6 26.8 Q 94.1 25.1, 94.1 22.0 M 99.9 27.1 Q 101.8 27.1, 102.8 25.8 Q 103.8 24.5, 103.8 22.0 Q 103.8 19.6, 102.8 18.3 Q 101.8 17.1, 99.9 17.1 Q 98.0 17.1, 96.9 18.3 Q 95.9 19.6, 95.9 22.0 Q 95.9 24.5, 96.9 25.8 Q 98.0 27.1, 99.9 27.1 " fill="#FF0000"/>
<path class="atom-6" d="M 107.5 15.8 L 109.2 15.8 L 109.2 21.1 L 115.6 21.1 L 115.6 15.8 L 117.3 15.8 L 117.3 28.3 L 115.6 28.3 L 115.6 22.5 L 109.2 22.5 L 109.2 28.3 L 107.5 28.3 L 107.5 15.8 " fill="#FF0000"/>
</svg>