<svg xmlns="http://www.w3.org/2000/svg" xmlns:rdkit="http://www.rdkit.org/xml" xmlns:xlink="http://www.w3.org/1999/xlink" version="1.1" baseProfile="full" xml:space="preserve" width="150px" height="150px" viewBox="0 0 150 150">
<!-- END OF HEADER -->
<rect style="opacity:1.0;fill:#FFFFFF;stroke:none" width="150.0" height="150.0" x="0.0" y="0.0"> </rect>
<ellipse cx="44.5" cy="129.6" rx="12.9" ry="12.9" class="atom-0" style="fill:#9999E5;fill-rule:evenodd;stroke:#9999E5;stroke-width:1.0px;stroke-linecap:butt;stroke-linejoin:miter;stroke-opacity:1"/>
<ellipse cx="63.7" cy="68.3" rx="12.9" ry="12.9" class="atom-1" style="fill:#CCCCCC;fill-rule:evenodd;stroke:#CCCCCC;stroke-width:1.0px;stroke-linecap:butt;stroke-linejoin:miter;stroke-opacity:1"/>
<path class="bond-0 atom-0 atom-1" d="M 44.5,129.6 L 63.7,68.3" style="fill:none;fill-rule:evenodd;stroke:#000000;stroke-width:2.0px;stroke-linecap:butt;stroke-linejoin:miter;stroke-opacity:1"/>
<path class="bond-1 atom-1 atom-2" d="M 63.7,68.3 L 121.0,49.1" style="fill:none;fill-rule:evenodd;stroke:#E5E5E5;stroke-width:3.4px;stroke-linecap:butt;stroke-linejoin:miter;stroke-opacity:1"/>
<path class="bond-2 atom-3 atom-1" d="M 26.3,17.9 L 63.7,68.3" style="fill:none;fill-rule:evenodd;stroke:#E5E5E5;stroke-width:3.4px;stroke-linecap:butt;stroke-linejoin:miter;stroke-opacity:1"/>
<path class="atom-2" d="M 121.2 45.8 L 123.8 43.1 L 120.3 42.4 L 120.8 40.6 L 124.1 42.2 L 123.6 38.6 L 125.6 38.6 L 125.0 42.2 L 128.3 40.6 L 128.9 42.4 L 125.3 43.1 L 127.9 45.8 L 126.3 46.9 L 124.5 43.5 L 122.7 46.9 L 121.2 45.8 " fill="#191919"/>
<path class="atom-3" d="M 22.0 14.7 L 24.6 12.0 L 21.1 11.3 L 21.6 9.5 L 24.9 11.1 L 24.4 7.5 L 26.4 7.5 L 25.8 11.1 L 29.1 9.5 L 29.7 11.3 L 26.1 11.9 L 28.7 14.7 L 27.1 15.8 L 25.3 12.4 L 23.5 15.8 L 22.0 14.7 " fill="#191919"/>
</svg>