<svg xmlns="http://www.w3.org/2000/svg" xmlns:rdkit="http://www.rdkit.org/xml" xmlns:xlink="http://www.w3.org/1999/xlink" version="1.1" baseProfile="full" xml:space="preserve" width="150px" height="150px" viewBox="0 0 150 150">
<!-- END OF HEADER -->
<rect style="opacity:1.0;fill:#FFFFFF;stroke:none" width="150.0" height="150.0" x="0.0" y="0.0"> </rect>
<ellipse cx="108.4" cy="118.2" rx="19.1" ry="19.1" class="atom-1" style="fill:#9999E5;fill-rule:evenodd;stroke:#9999E5;stroke-width:1.0px;stroke-linecap:butt;stroke-linejoin:miter;stroke-opacity:1"/>
<path class="bond-0 atom-0 atom-1" d="M 23.5,131.6 L 108.4,118.2" style="fill:none;fill-rule:evenodd;stroke:#E5E5E5;stroke-width:5.1px;stroke-linecap:butt;stroke-linejoin:miter;stroke-opacity:1"/>
<path class="bond-1 atom-1 atom-2" d="M 108.4,118.2 L 142.1,30.8" style="fill:none;fill-rule:evenodd;stroke:#E5E5E5;stroke-width:5.1px;stroke-linecap:butt;stroke-linejoin:miter;stroke-opacity:1"/>
<path class="bond-1 atom-1 atom-2" d="M 98.0,105.3 L 128.7,25.6" style="fill:none;fill-rule:evenodd;stroke:#E5E5E5;stroke-width:5.1px;stroke-linecap:butt;stroke-linejoin:miter;stroke-opacity:1"/>
<path d="M 104.1,118.9 L 108.4,118.2 L 110.1,113.9" style="fill:none;stroke:#E5E5E5;stroke-width:5.1px;stroke-linecap:butt;stroke-linejoin:miter;stroke-opacity:1;"/>
<path class="atom-0" d="M 8.8 130.0 L 12.8 126.0 L 7.5 124.9 L 8.3 122.2 L 13.2 124.6 L 12.5 119.3 L 15.3 119.3 L 14.5 124.6 L 19.5 122.3 L 20.3 124.9 L 15.0 125.9 L 18.8 130.0 L 16.5 131.7 L 13.8 126.6 L 11.1 131.7 L 8.8 130.0 " fill="#191919"/>
<path class="atom-2" d="M 131.0 23.4 L 135.0 19.3 L 129.7 18.3 L 130.5 15.6 L 135.3 18.0 L 134.7 12.7 L 137.5 12.6 L 136.7 18.0 L 141.7 15.7 L 142.5 18.3 L 137.1 19.3 L 141.0 23.4 L 138.6 25.0 L 136.0 20.0 L 133.3 25.0 L 131.0 23.4 " fill="#191919"/>
</svg>