<svg xmlns="http://www.w3.org/2000/svg" xmlns:rdkit="http://www.rdkit.org/xml" xmlns:xlink="http://www.w3.org/1999/xlink" version="1.1" baseProfile="full" xml:space="preserve" width="150px" height="150px" viewBox="0 0 150 150">
<!-- END OF HEADER -->
<rect style="opacity:1.0;fill:#FFFFFF;stroke:none" width="150.0" height="150.0" x="0.0" y="0.0"> </rect>
<ellipse cx="65.5" cy="81.5" rx="13.6" ry="13.6" class="atom-1" style="fill:#9999E5;fill-rule:evenodd;stroke:#9999E5;stroke-width:1.0px;stroke-linecap:butt;stroke-linejoin:miter;stroke-opacity:1"/>
<path class="bond-0 atom-0 atom-1" d="M 83.4,17.2 L 65.5,81.5" style="fill:none;fill-rule:evenodd;stroke:#E5E5E5;stroke-width:3.6px;stroke-linecap:butt;stroke-linejoin:miter;stroke-opacity:1"/>
<path class="bond-0 atom-0 atom-1" d="M 93.3,19.9 L 76.3,80.7" style="fill:none;fill-rule:evenodd;stroke:#E5E5E5;stroke-width:3.6px;stroke-linecap:butt;stroke-linejoin:miter;stroke-opacity:1"/>
<path class="bond-1 atom-1 atom-2" d="M 65.5,81.5 L 88.1,131.4" style="fill:none;fill-rule:evenodd;stroke:#E5E5E5;stroke-width:3.6px;stroke-linecap:butt;stroke-linejoin:miter;stroke-opacity:1"/>
<path d="M 66.4,78.3 L 65.5,81.5 L 66.6,84.0" style="fill:none;stroke:#E5E5E5;stroke-width:3.6px;stroke-linecap:butt;stroke-linejoin:miter;stroke-opacity:1;"/>
<path class="atom-0" d="M 85.1 15.2 L 87.9 12.3 L 84.1 11.5 L 84.7 9.6 L 88.2 11.3 L 87.7 7.5 L 89.7 7.5 L 89.2 11.3 L 92.7 9.7 L 93.3 11.5 L 89.5 12.2 L 92.2 15.1 L 90.5 16.3 L 88.6 12.7 L 86.7 16.3 L 85.1 15.2 " fill="#191919"/>
<path class="atom-2" d="M 89.9 141.3 L 92.8 138.4 L 89.0 137.7 L 89.6 135.7 L 93.1 137.5 L 92.6 133.7 L 94.6 133.7 L 94.0 137.5 L 97.5 135.8 L 98.1 137.7 L 94.3 138.4 L 97.1 141.3 L 95.4 142.5 L 93.5 138.9 L 91.6 142.5 L 89.9 141.3 " fill="#191919"/>
</svg>