<svg xmlns="http://www.w3.org/2000/svg" xmlns:rdkit="http://www.rdkit.org/xml" xmlns:xlink="http://www.w3.org/1999/xlink" version="1.1" baseProfile="full" xml:space="preserve" width="150px" height="150px" viewBox="0 0 150 150">
<!-- END OF HEADER -->
<rect style="opacity:1.0;fill:#FFFFFF;stroke:none" width="150.0" height="150.0" x="0.0" y="0.0"> </rect>
<ellipse cx="91.0" cy="82.2" rx="14.8" ry="14.8" class="atom-1" style="fill:#9999E5;fill-rule:evenodd;stroke:#9999E5;stroke-width:1.0px;stroke-linecap:butt;stroke-linejoin:miter;stroke-opacity:1"/>
<path class="bond-0 atom-0 atom-1" d="M 61.4,133.5 L 91.0,82.2" style="fill:none;fill-rule:evenodd;stroke:#E5E5E5;stroke-width:3.9px;stroke-linecap:butt;stroke-linejoin:miter;stroke-opacity:1"/>
<path class="bond-0 atom-0 atom-1" d="M 51.8,128.0 L 78.2,82.2" style="fill:none;fill-rule:evenodd;stroke:#E5E5E5;stroke-width:3.9px;stroke-linecap:butt;stroke-linejoin:miter;stroke-opacity:1"/>
<path class="bond-1 atom-1 atom-2" d="M 91.0,82.2 L 54.8,19.5" style="fill:none;fill-rule:evenodd;stroke:#E5E5E5;stroke-width:3.9px;stroke-linecap:butt;stroke-linejoin:miter;stroke-opacity:1"/>
<path d="M 89.5,84.8 L 91.0,82.2 L 89.2,79.1" style="fill:none;stroke:#E5E5E5;stroke-width:3.9px;stroke-linecap:butt;stroke-linejoin:miter;stroke-opacity:1;"/>
<path class="atom-0" d="M 45.2 141.2 L 48.3 138.1 L 44.2 137.3 L 44.8 135.2 L 48.6 137.1 L 48.1 132.9 L 50.3 132.9 L 49.7 137.0 L 53.5 135.2 L 54.1 137.3 L 50.0 138.0 L 52.9 141.2 L 51.1 142.5 L 49.1 138.6 L 47.0 142.5 L 45.2 141.2 " fill="#191919"/>
<path class="atom-2" d="M 50.0 15.8 L 53.1 12.7 L 49.0 11.9 L 49.6 9.7 L 53.4 11.6 L 52.9 7.5 L 55.1 7.5 L 54.5 11.6 L 58.3 9.8 L 58.9 11.9 L 54.8 12.6 L 57.8 15.8 L 55.9 17.1 L 53.9 13.2 L 51.8 17.1 L 50.0 15.8 " fill="#191919"/>
</svg>