<svg xmlns="http://www.w3.org/2000/svg" xmlns:rdkit="http://www.rdkit.org/xml" xmlns:xlink="http://www.w3.org/1999/xlink" version="1.1" baseProfile="full" xml:space="preserve" width="150px" height="150px" viewBox="0 0 150 150">
<!-- END OF HEADER -->
<rect style="opacity:1.0;fill:#FFFFFF;stroke:none" width="150.0" height="150.0" x="0.0" y="0.0"> </rect>
<ellipse cx="85.9" cy="102.1" rx="15.5" ry="15.5" class="atom-1" style="fill:#9999E5;fill-rule:evenodd;stroke:#9999E5;stroke-width:1.0px;stroke-linecap:butt;stroke-linejoin:miter;stroke-opacity:1"/>
<path class="bond-0 atom-0 atom-1" d="M 139.9,49.2 L 85.9,102.1" style="fill:none;fill-rule:evenodd;stroke:#E5E5E5;stroke-width:4.1px;stroke-linecap:butt;stroke-linejoin:miter;stroke-opacity:1"/>
<path class="bond-0 atom-0 atom-1" d="M 131.7,40.9 L 82.6,89.1" style="fill:none;fill-rule:evenodd;stroke:#E5E5E5;stroke-width:4.1px;stroke-linecap:butt;stroke-linejoin:miter;stroke-opacity:1;stroke-dasharray:6,4"/>
<path class="bond-1 atom-1 atom-2" d="M 85.9,102.1 L 16.3,82.7" style="fill:none;fill-rule:evenodd;stroke:#E5E5E5;stroke-width:4.1px;stroke-linecap:butt;stroke-linejoin:miter;stroke-opacity:1"/>
<path class="bond-1 atom-1 atom-2" d="M 82.6,89.1 L 19.4,71.5" style="fill:none;fill-rule:evenodd;stroke:#E5E5E5;stroke-width:4.1px;stroke-linecap:butt;stroke-linejoin:miter;stroke-opacity:1;stroke-dasharray:6,4"/>
<path d="M 88.6,99.4 L 85.9,102.1 L 82.4,101.1" style="fill:none;stroke:#E5E5E5;stroke-width:4.1px;stroke-linecap:butt;stroke-linejoin:miter;stroke-opacity:1;"/>
<path class="atom-0" d="M 133.2 41.1 L 136.4 37.8 L 132.1 37.0 L 132.7 34.8 L 136.7 36.7 L 136.1 32.4 L 138.5 32.4 L 137.8 36.7 L 141.8 34.8 L 142.5 37.0 L 138.2 37.8 L 141.3 41.1 L 139.4 42.5 L 137.2 38.4 L 135.0 42.5 L 133.2 41.1 " fill="#191919"/>
<path class="atom-2" d="M 8.6 73.2 L 11.8 69.9 L 7.5 69.0 L 8.2 66.8 L 12.1 68.8 L 11.5 64.5 L 13.9 64.4 L 13.2 68.8 L 17.2 66.9 L 17.9 69.0 L 13.6 69.8 L 16.7 73.1 L 14.8 74.5 L 12.6 70.4 L 10.5 74.5 L 8.6 73.2 " fill="#191919"/>
</svg>