<svg xmlns="http://www.w3.org/2000/svg" xmlns:rdkit="http://www.rdkit.org/xml" xmlns:xlink="http://www.w3.org/1999/xlink" version="1.1" baseProfile="full" xml:space="preserve" width="150px" height="150px" viewBox="0 0 150 150">
<!-- END OF HEADER -->
<rect style="opacity:1.0;fill:#FFFFFF;stroke:none" width="150.0" height="150.0" x="0.0" y="0.0"> </rect>
<ellipse cx="45.0" cy="75.0" rx="18.3" ry="18.3" class="atom-1" style="fill:#9999E5;fill-rule:evenodd;stroke:#9999E5;stroke-width:1.0px;stroke-linecap:butt;stroke-linejoin:miter;stroke-opacity:1"/>
<path class="bond-0 atom-0 atom-1" d="M 127.2,75.0 L 59.9,75.0" style="fill:none;fill-rule:evenodd;stroke:#E5E5E5;stroke-width:4.9px;stroke-linecap:butt;stroke-linejoin:miter;stroke-opacity:1"/>
<path class="atom-0" d="M 131.5 72.1 L 135.3 68.2 L 130.2 67.2 L 131.0 64.6 L 135.7 67.0 L 135.0 61.9 L 137.7 61.8 L 137.0 66.9 L 141.7 64.7 L 142.5 67.2 L 137.4 68.2 L 141.0 72.1 L 138.8 73.7 L 136.3 68.9 L 133.7 73.7 L 131.5 72.1 " fill="#191919"/>
<path class="atom-1" d="M 7.5 62.2 L 11.0 62.2 L 11.0 73.2 L 24.2 73.2 L 24.2 62.2 L 27.8 62.2 L 27.8 88.1 L 24.2 88.1 L 24.2 76.1 L 11.0 76.1 L 11.0 88.1 L 7.5 88.1 L 7.5 62.2 " fill="#FF0000"/>
<path class="atom-1" d="M 33.1 75.1 Q 33.1 68.9, 36.1 65.4 Q 39.2 61.9, 45.0 61.9 Q 50.7 61.9, 53.8 65.4 Q 56.8 68.9, 56.8 75.1 Q 56.8 81.4, 53.7 84.9 Q 50.6 88.5, 45.0 88.5 Q 39.2 88.5, 36.1 84.9 Q 33.1 81.4, 33.1 75.1 M 45.0 85.6 Q 48.9 85.6, 51.0 82.9 Q 53.2 80.3, 53.2 75.1 Q 53.2 70.0, 51.0 67.4 Q 48.9 64.8, 45.0 64.8 Q 41.0 64.8, 38.8 67.4 Q 36.7 70.0, 36.7 75.1 Q 36.7 80.3, 38.8 82.9 Q 41.0 85.6, 45.0 85.6 " fill="#FF0000"/>
</svg>