<svg xmlns="http://www.w3.org/2000/svg" xmlns:rdkit="http://www.rdkit.org/xml" xmlns:xlink="http://www.w3.org/1999/xlink" version="1.1" baseProfile="full" xml:space="preserve" width="150px" height="150px" viewBox="0 0 150 150">
<!-- END OF HEADER -->
<rect style="opacity:1.0;fill:#FFFFFF;stroke:none" width="150.0" height="150.0" x="0.0" y="0.0"> </rect>
<ellipse cx="60.8" cy="118.6" rx="22.9" ry="22.9" class="atom-1" style="fill:#9999E5;fill-rule:evenodd;stroke:#9999E5;stroke-width:1.0px;stroke-linecap:butt;stroke-linejoin:miter;stroke-opacity:1"/>
<path class="bond-0 atom-0 atom-1" d="M 121.9,25.3 L 72.7,100.5" style="fill:none;fill-rule:evenodd;stroke:#E5E5E5;stroke-width:6.1px;stroke-linecap:butt;stroke-linejoin:miter;stroke-opacity:1"/>
<path class="atom-0" d="M 118.1 19.8 L 122.3 15.5 L 116.7 14.4 L 117.6 11.6 L 122.7 14.1 L 121.9 8.6 L 124.9 8.5 L 124.1 14.1 L 129.3 11.7 L 130.1 14.4 L 124.5 15.5 L 128.5 19.7 L 126.1 21.5 L 123.3 16.2 L 120.5 21.5 L 118.1 19.8 " fill="#191919"/>
<path class="atom-1" d="M 19.9 104.6 L 23.7 104.6 L 23.7 116.6 L 38.2 116.6 L 38.2 104.6 L 42.0 104.6 L 42.0 132.9 L 38.2 132.9 L 38.2 119.8 L 23.7 119.8 L 23.7 132.9 L 19.9 132.9 L 19.9 104.6 " fill="#FF0000"/>
<path class="atom-1" d="M 47.8 118.7 Q 47.8 111.9, 51.2 108.1 Q 54.5 104.3, 60.8 104.3 Q 67.1 104.3, 70.5 108.1 Q 73.8 111.9, 73.8 118.7 Q 73.8 125.6, 70.4 129.5 Q 67.0 133.4, 60.8 133.4 Q 54.6 133.4, 51.2 129.5 Q 47.8 125.6, 47.8 118.7 M 60.8 130.2 Q 65.1 130.2, 67.5 127.3 Q 69.8 124.4, 69.8 118.7 Q 69.8 113.1, 67.5 110.3 Q 65.1 107.5, 60.8 107.5 Q 56.5 107.5, 54.1 110.3 Q 51.8 113.1, 51.8 118.7 Q 51.8 124.4, 54.1 127.3 Q 56.5 130.2, 60.8 130.2 " fill="#FF0000"/>
</svg>