<svg xmlns="http://www.w3.org/2000/svg" xmlns:rdkit="http://www.rdkit.org/xml" xmlns:xlink="http://www.w3.org/1999/xlink" version="1.1" baseProfile="full" xml:space="preserve" width="150px" height="150px" viewBox="0 0 150 150">
<!-- END OF HEADER -->
<rect style="opacity:1.0;fill:#FFFFFF;stroke:none" width="150.0" height="150.0" x="0.0" y="0.0"> </rect>
<ellipse cx="113.3" cy="116.1" rx="19.1" ry="19.1" class="atom-1" style="fill:#9999E5;fill-rule:evenodd;stroke:#9999E5;stroke-width:1.0px;stroke-linecap:butt;stroke-linejoin:miter;stroke-opacity:1"/>
<path class="bond-0 atom-0 atom-1" d="M 134.6,24.7 L 113.3,116.1" style="fill:none;fill-rule:evenodd;stroke:#E5E5E5;stroke-width:5.1px;stroke-linecap:butt;stroke-linejoin:miter;stroke-opacity:1"/>
<path class="bond-0 atom-0 atom-1" d="M 120.7,21.4 L 101.2,104.8" style="fill:none;fill-rule:evenodd;stroke:#E5E5E5;stroke-width:5.1px;stroke-linecap:butt;stroke-linejoin:miter;stroke-opacity:1"/>
<path class="bond-1 atom-1 atom-2" d="M 113.3,116.1 L 31.3,141.0" style="fill:none;fill-rule:evenodd;stroke:#E5E5E5;stroke-width:5.1px;stroke-linecap:butt;stroke-linejoin:miter;stroke-opacity:1"/>
<path d="M 114.4,111.5 L 113.3,116.1 L 109.2,117.3" style="fill:none;stroke:#E5E5E5;stroke-width:5.1px;stroke-linecap:butt;stroke-linejoin:miter;stroke-opacity:1;"/>
<path class="atom-0" d="M 123.0 18.3 L 126.9 14.2 L 121.7 13.1 L 122.5 10.4 L 127.3 12.9 L 126.6 7.5 L 129.5 7.5 L 128.7 12.8 L 133.6 10.5 L 134.5 13.1 L 129.1 14.1 L 132.9 18.2 L 130.6 19.9 L 128.0 14.8 L 125.3 19.9 L 123.0 18.3 " fill="#191919"/>
<path class="atom-2" d="M 16.7 140.9 L 20.6 136.8 L 15.4 135.7 L 16.2 133.0 L 21.0 135.5 L 20.3 130.1 L 23.2 130.1 L 22.4 135.4 L 27.3 133.1 L 28.2 135.7 L 22.8 136.7 L 26.7 140.8 L 24.3 142.5 L 21.7 137.4 L 19.0 142.5 L 16.7 140.9 " fill="#191919"/>
</svg>