<svg xmlns="http://www.w3.org/2000/svg" xmlns:rdkit="http://www.rdkit.org/xml" xmlns:xlink="http://www.w3.org/1999/xlink" version="1.1" baseProfile="full" xml:space="preserve" width="150px" height="150px" viewBox="0 0 150 150">
<!-- END OF HEADER -->
<rect style="opacity:1.0;fill:#FFFFFF;stroke:none" width="150.0" height="150.0" x="0.0" y="0.0"> </rect>
<ellipse cx="38.4" cy="52.7" rx="18.2" ry="18.2" class="atom-1" style="fill:#9999E5;fill-rule:evenodd;stroke:#9999E5;stroke-width:1.0px;stroke-linecap:butt;stroke-linejoin:miter;stroke-opacity:1"/>
<path class="bond-0 atom-0 atom-1" d="M 26.1,126.6 L 38.4,52.7" style="fill:none;fill-rule:evenodd;stroke:#E5E5E5;stroke-width:4.9px;stroke-linecap:butt;stroke-linejoin:miter;stroke-opacity:1"/>
<path class="bond-0 atom-0 atom-1" d="M 39.6,128.8 L 50.6,62.7" style="fill:none;fill-rule:evenodd;stroke:#E5E5E5;stroke-width:4.9px;stroke-linecap:butt;stroke-linejoin:miter;stroke-opacity:1"/>
<path class="bond-1 atom-1 atom-2" d="M 38.4,52.7 L 119.2,22.3" style="fill:none;fill-rule:evenodd;stroke:#E5E5E5;stroke-width:4.9px;stroke-linecap:butt;stroke-linejoin:miter;stroke-opacity:1"/>
<path d="M 37.8,56.4 L 38.4,52.7 L 42.4,51.2" style="fill:none;stroke:#E5E5E5;stroke-width:4.9px;stroke-linecap:butt;stroke-linejoin:miter;stroke-opacity:1;"/>
<path class="atom-0" d="M 25.3 140.9 L 29.1 137.1 L 24.1 136.0 L 24.9 133.5 L 29.5 135.8 L 28.8 130.7 L 31.6 130.7 L 30.8 135.8 L 35.5 133.6 L 36.3 136.0 L 31.2 137.0 L 34.9 140.9 L 32.6 142.5 L 30.1 137.7 L 27.6 142.5 L 25.3 140.9 " fill="#191919"/>
<path class="atom-2" d="M 118.9 17.8 L 122.7 13.9 L 117.6 12.9 L 118.4 10.3 L 123.0 12.6 L 122.4 7.5 L 125.1 7.5 L 124.4 12.6 L 129.1 10.4 L 129.9 12.9 L 124.8 13.8 L 128.4 17.7 L 126.2 19.3 L 123.7 14.5 L 121.1 19.3 L 118.9 17.8 " fill="#191919"/>
</svg>