<svg xmlns="http://www.w3.org/2000/svg" xmlns:rdkit="http://www.rdkit.org/xml" xmlns:xlink="http://www.w3.org/1999/xlink" version="1.1" baseProfile="full" xml:space="preserve" width="150px" height="150px" viewBox="0 0 150 150">
<!-- END OF HEADER -->
<rect style="opacity:1.0;fill:#FFFFFF;stroke:none" width="150.0" height="150.0" x="0.0" y="0.0"> </rect>
<ellipse cx="118.2" cy="120.0" rx="12.3" ry="12.3" class="atom-2" style="fill:#9999E5;fill-rule:evenodd;stroke:#9999E5;stroke-width:1.0px;stroke-linecap:butt;stroke-linejoin:miter;stroke-opacity:1"/>
<path class="bond-0 atom-0 atom-1" d="M 17.8,114.3 L 65.5,88.1" style="fill:none;fill-rule:evenodd;stroke:#E5E5E5;stroke-width:3.3px;stroke-linecap:butt;stroke-linejoin:miter;stroke-opacity:1"/>
<path class="bond-1 atom-1 atom-2" d="M 65.5,88.1 L 86.8,101.0" style="fill:none;fill-rule:evenodd;stroke:#000000;stroke-width:2.0px;stroke-linecap:butt;stroke-linejoin:miter;stroke-opacity:1"/>
<path class="bond-1 atom-1 atom-2" d="M 86.8,101.0 L 108.1,113.9" style="fill:none;fill-rule:evenodd;stroke:#FF0000;stroke-width:2.0px;stroke-linecap:butt;stroke-linejoin:miter;stroke-opacity:1"/>
<path class="bond-2 atom-1 atom-3" d="M 70.1,90.8 L 71.5,27.8" style="fill:none;fill-rule:evenodd;stroke:#E5E5E5;stroke-width:3.3px;stroke-linecap:butt;stroke-linejoin:miter;stroke-opacity:1"/>
<path class="bond-2 atom-1 atom-3" d="M 60.9,90.6 L 62.2,27.6" style="fill:none;fill-rule:evenodd;stroke:#E5E5E5;stroke-width:3.3px;stroke-linecap:butt;stroke-linejoin:miter;stroke-opacity:1"/>
<path d="M 64.4,88.7 L 65.5,88.1 L 66.1,88.4" style="fill:none;stroke:#E5E5E5;stroke-width:3.3px;stroke-linecap:butt;stroke-linejoin:miter;stroke-opacity:1;"/>
<path class="atom-0" d="M 8.3 115.8 L 10.9 113.1 L 7.5 112.5 L 8.0 110.7 L 11.1 112.3 L 10.7 108.9 L 12.5 108.8 L 12.0 112.3 L 15.2 110.8 L 15.7 112.5 L 12.3 113.1 L 14.8 115.7 L 13.3 116.8 L 11.6 113.6 L 9.8 116.8 L 8.3 115.8 " fill="#191919"/>
<path class="atom-2" d="M 110.2 120.0 Q 110.2 115.8, 112.2 113.5 Q 114.3 111.2, 118.2 111.2 Q 122.0 111.2, 124.1 113.5 Q 126.2 115.8, 126.2 120.0 Q 126.2 124.3, 124.1 126.7 Q 122.0 129.1, 118.2 129.1 Q 114.3 129.1, 112.2 126.7 Q 110.2 124.3, 110.2 120.0 M 118.2 127.1 Q 120.8 127.1, 122.2 125.3 Q 123.7 123.5, 123.7 120.0 Q 123.7 116.6, 122.2 114.9 Q 120.8 113.1, 118.2 113.1 Q 115.5 113.1, 114.0 114.9 Q 112.6 116.6, 112.6 120.0 Q 112.6 123.5, 114.0 125.3 Q 115.5 127.1, 118.2 127.1 " fill="#FF0000"/>
<path class="atom-2" d="M 128.9 111.4 L 131.2 111.4 L 131.2 118.8 L 140.1 118.8 L 140.1 111.4 L 142.5 111.4 L 142.5 128.8 L 140.1 128.8 L 140.1 120.7 L 131.2 120.7 L 131.2 128.8 L 128.9 128.8 L 128.9 111.4 " fill="#FF0000"/>
<path class="atom-3" d="M 63.6 24.6 L 66.1 22.0 L 62.7 21.3 L 63.3 19.6 L 66.4 21.2 L 65.9 17.7 L 67.8 17.7 L 67.3 21.1 L 70.4 19.7 L 71.0 21.3 L 67.5 22.0 L 70.0 24.6 L 68.5 25.7 L 66.8 22.4 L 65.1 25.7 L 63.6 24.6 " fill="#191919"/>
</svg>