<svg xmlns="http://www.w3.org/2000/svg" xmlns:rdkit="http://www.rdkit.org/xml" xmlns:xlink="http://www.w3.org/1999/xlink" version="1.1" baseProfile="full" xml:space="preserve" width="150px" height="150px" viewBox="0 0 150 150">
<!-- END OF HEADER -->
<rect style="opacity:1.0;fill:#FFFFFF;stroke:none" width="150.0" height="150.0" x="0.0" y="0.0"> </rect>
<ellipse cx="83.4" cy="91.6" rx="14.8" ry="14.8" class="atom-1" style="fill:#9999E5;fill-rule:evenodd;stroke:#9999E5;stroke-width:1.0px;stroke-linecap:butt;stroke-linejoin:miter;stroke-opacity:1"/>
<path class="bond-0 atom-0 atom-1" d="M 19.9,110.9 L 83.4,91.6" style="fill:none;fill-rule:evenodd;stroke:#E5E5E5;stroke-width:4.0px;stroke-linecap:butt;stroke-linejoin:miter;stroke-opacity:1"/>
<path class="bond-1 atom-1 atom-2" d="M 88.1,96.0 L 105.3,22.1" style="fill:none;fill-rule:evenodd;stroke:#E5E5E5;stroke-width:4.0px;stroke-linecap:butt;stroke-linejoin:miter;stroke-opacity:1"/>
<path class="bond-1 atom-1 atom-2" d="M 77.3,93.5 L 94.5,19.5" style="fill:none;fill-rule:evenodd;stroke:#E5E5E5;stroke-width:4.0px;stroke-linecap:butt;stroke-linejoin:miter;stroke-opacity:1"/>
<path class="bond-2 atom-1 atom-3" d="M 83.4,91.6 L 130.1,135.4" style="fill:none;fill-rule:evenodd;stroke:#E5E5E5;stroke-width:4.0px;stroke-linecap:butt;stroke-linejoin:miter;stroke-opacity:1"/>
<path d="M 80.2,92.6 L 83.4,91.6 L 85.7,93.8" style="fill:none;stroke:#E5E5E5;stroke-width:4.0px;stroke-linecap:butt;stroke-linejoin:miter;stroke-opacity:1;"/>
<path class="atom-0" d="M 8.5 110.8 L 11.6 107.7 L 7.5 106.9 L 8.1 104.7 L 11.9 106.6 L 11.4 102.5 L 13.6 102.5 L 13.0 106.6 L 16.8 104.8 L 17.4 106.9 L 13.3 107.6 L 16.2 110.8 L 14.4 112.1 L 12.4 108.2 L 10.3 112.1 L 8.5 110.8 " fill="#191919"/>
<path class="atom-2" d="M 96.3 17.1 L 99.4 13.9 L 95.3 13.1 L 95.9 11.0 L 99.7 12.9 L 99.1 8.8 L 101.4 8.8 L 100.7 12.9 L 104.6 11.1 L 105.2 13.1 L 101.1 13.9 L 104.0 17.1 L 102.2 18.4 L 100.2 14.4 L 98.1 18.4 L 96.3 17.1 " fill="#191919"/>
<path class="atom-3" d="M 133.6 140.0 L 136.7 136.8 L 132.6 136.0 L 133.2 133.9 L 137.0 135.8 L 136.4 131.7 L 138.6 131.6 L 138.0 135.8 L 141.8 134.0 L 142.5 136.0 L 138.3 136.8 L 141.3 139.9 L 139.5 141.2 L 137.5 137.3 L 135.4 141.2 L 133.6 140.0 " fill="#191919"/>
</svg>