<svg xmlns="http://www.w3.org/2000/svg" xmlns:rdkit="http://www.rdkit.org/xml" xmlns:xlink="http://www.w3.org/1999/xlink" version="1.1" baseProfile="full" xml:space="preserve" width="150px" height="150px" viewBox="0 0 150 150">
<!-- END OF HEADER -->
<rect style="opacity:1.0;fill:#FFFFFF;stroke:none" width="150.0" height="150.0" x="0.0" y="0.0"> </rect>
<ellipse cx="45.7" cy="83.4" rx="18.6" ry="18.6" class="atom-0" style="fill:#9999E5;fill-rule:evenodd;stroke:#9999E5;stroke-width:1.0px;stroke-linecap:butt;stroke-linejoin:miter;stroke-opacity:1"/>
<path class="bond-0 atom-0 atom-1" d="M 60.9,79.7 L 129.1,63.2" style="fill:none;fill-rule:evenodd;stroke:#E5E5E5;stroke-width:5.0px;stroke-linecap:butt;stroke-linejoin:miter;stroke-opacity:1"/>
<path class="atom-0" d="M 7.5 70.3 L 11.1 70.3 L 11.1 81.5 L 24.6 81.5 L 24.6 70.3 L 28.2 70.3 L 28.2 96.7 L 24.6 96.7 L 24.6 84.5 L 11.1 84.5 L 11.1 96.7 L 7.5 96.7 L 7.5 70.3 " fill="#FF0000"/>
<path class="atom-0" d="M 33.6 83.4 Q 33.6 77.1, 36.7 73.5 Q 39.8 70.0, 45.7 70.0 Q 51.5 70.0, 54.7 73.5 Q 57.8 77.1, 57.8 83.4 Q 57.8 89.8, 54.6 93.5 Q 51.5 97.1, 45.7 97.1 Q 39.9 97.1, 36.7 93.5 Q 33.6 89.9, 33.6 83.4 M 45.7 94.1 Q 49.7 94.1, 51.9 91.4 Q 54.1 88.7, 54.1 83.4 Q 54.1 78.2, 51.9 75.6 Q 49.7 73.0, 45.7 73.0 Q 41.7 73.0, 39.5 75.6 Q 37.3 78.2, 37.3 83.4 Q 37.3 88.8, 39.5 91.4 Q 41.7 94.1, 45.7 94.1 " fill="#FF0000"/>
<path class="atom-1" d="M 131.3 58.5 L 135.2 54.5 L 130.0 53.5 L 130.8 50.8 L 135.5 53.2 L 134.9 48.0 L 137.7 48.0 L 136.9 53.2 L 141.7 51.0 L 142.5 53.5 L 137.3 54.5 L 141.0 58.4 L 138.7 60.1 L 136.2 55.2 L 133.6 60.1 L 131.3 58.5 " fill="#191919"/>
</svg>