<svg xmlns="http://www.w3.org/2000/svg" xmlns:rdkit="http://www.rdkit.org/xml" xmlns:xlink="http://www.w3.org/1999/xlink" version="1.1" baseProfile="full" xml:space="preserve" width="150px" height="150px" viewBox="0 0 150 150">
<!-- END OF HEADER -->
<rect style="opacity:1.0;fill:#FFFFFF;stroke:none" width="150.0" height="150.0" x="0.0" y="0.0"> </rect>
<ellipse cx="58.8" cy="51.0" rx="15.9" ry="15.9" class="atom-1" style="fill:#9999E5;fill-rule:evenodd;stroke:#9999E5;stroke-width:1.0px;stroke-linecap:butt;stroke-linejoin:miter;stroke-opacity:1"/>
<path class="bond-0 atom-0 atom-1" d="M 16.2,102.6 L 58.8,51.0" style="fill:none;fill-rule:evenodd;stroke:#E5E5E5;stroke-width:4.2px;stroke-linecap:butt;stroke-linejoin:miter;stroke-opacity:1"/>
<path class="bond-0 atom-0 atom-1" d="M 25.4,110.2 L 63.6,63.9" style="fill:none;fill-rule:evenodd;stroke:#E5E5E5;stroke-width:4.2px;stroke-linecap:butt;stroke-linejoin:miter;stroke-opacity:1"/>
<path class="bond-1 atom-1 atom-2" d="M 58.8,51.0 L 129.2,62.8" style="fill:none;fill-rule:evenodd;stroke:#E5E5E5;stroke-width:4.2px;stroke-linecap:butt;stroke-linejoin:miter;stroke-opacity:1"/>
<path d="M 56.7,53.6 L 58.8,51.0 L 62.3,51.6" style="fill:none;stroke:#E5E5E5;stroke-width:4.2px;stroke-linecap:butt;stroke-linejoin:miter;stroke-opacity:1;"/>
<path class="atom-0" d="M 8.6 113.5 L 11.9 110.2 L 7.5 109.3 L 8.2 107.0 L 12.2 109.1 L 11.6 104.6 L 14.0 104.6 L 13.3 109.0 L 17.4 107.1 L 18.1 109.3 L 13.7 110.1 L 16.9 113.5 L 14.9 114.9 L 12.7 110.7 L 10.5 114.9 L 8.6 113.5 " fill="#191919"/>
<path class="atom-2" d="M 132.9 61.6 L 136.2 58.3 L 131.9 57.4 L 132.5 55.1 L 136.6 57.2 L 136.0 52.7 L 138.4 52.7 L 137.7 57.1 L 141.8 55.2 L 142.5 57.4 L 138.1 58.2 L 141.2 61.6 L 139.3 63.0 L 137.1 58.8 L 134.9 63.0 L 132.9 61.6 " fill="#191919"/>
</svg>