<svg xmlns="http://www.w3.org/2000/svg" xmlns:rdkit="http://www.rdkit.org/xml" xmlns:xlink="http://www.w3.org/1999/xlink" version="1.1" baseProfile="full" xml:space="preserve" width="150px" height="150px" viewBox="0 0 150 150">
<!-- END OF HEADER -->
<rect style="opacity:1.0;fill:#FFFFFF;stroke:none" width="150.0" height="150.0" x="0.0" y="0.0"> </rect>
<ellipse cx="52.1" cy="63.2" rx="8.4" ry="8.4" class="atom-1" style="fill:#CCCCCC;fill-rule:evenodd;stroke:#CCCCCC;stroke-width:1.0px;stroke-linecap:butt;stroke-linejoin:miter;stroke-opacity:1"/>
<ellipse cx="116.8" cy="95.8" rx="8.4" ry="8.4" class="atom-4" style="fill:#CCCCCC;fill-rule:evenodd;stroke:#CCCCCC;stroke-width:1.0px;stroke-linecap:butt;stroke-linejoin:miter;stroke-opacity:1"/>
<ellipse cx="75.0" cy="98.2" rx="8.4" ry="8.4" class="atom-5" style="fill:#9999E5;fill-rule:evenodd;stroke:#9999E5;stroke-width:1.0px;stroke-linecap:butt;stroke-linejoin:miter;stroke-opacity:1"/>
<path class="bond-0 atom-0 atom-1" d="M 14.5,65.3 L 52.1,63.2" style="fill:none;fill-rule:evenodd;stroke:#E5E5E5;stroke-width:2.2px;stroke-linecap:butt;stroke-linejoin:miter;stroke-opacity:1"/>
<path class="bond-1 atom-1 atom-2" d="M 52.1,63.2 L 70.6,26.6" style="fill:none;fill-rule:evenodd;stroke:#E5E5E5;stroke-width:2.2px;stroke-linecap:butt;stroke-linejoin:miter;stroke-opacity:1"/>
<path class="bond-2 atom-3 atom-4" d="M 135.2,59.2 L 116.8,95.8" style="fill:none;fill-rule:evenodd;stroke:#E5E5E5;stroke-width:2.2px;stroke-linecap:butt;stroke-linejoin:miter;stroke-opacity:1"/>
<path class="bond-3 atom-4 atom-5" d="M 116.8,95.8 L 75.0,98.2" style="fill:none;fill-rule:evenodd;stroke:#000000;stroke-width:2.0px;stroke-linecap:butt;stroke-linejoin:miter;stroke-opacity:1"/>
<path class="bond-4 atom-4 atom-6" d="M 116.8,95.8 L 135.5,124.4" style="fill:none;fill-rule:evenodd;stroke:#E5E5E5;stroke-width:2.2px;stroke-linecap:butt;stroke-linejoin:miter;stroke-opacity:1"/>
<path class="bond-5 atom-5 atom-1" d="M 75.0,98.2 L 52.1,63.2" style="fill:none;fill-rule:evenodd;stroke:#000000;stroke-width:2.0px;stroke-linecap:butt;stroke-linejoin:miter;stroke-opacity:1"/>
<path d="M 77.1,98.0 L 75.0,98.2 L 73.9,96.4" style="fill:none;stroke:#000000;stroke-width:2.0px;stroke-linecap:butt;stroke-linejoin:miter;stroke-opacity:1;"/>
<path class="atom-0" d="M 8.1 64.2 L 9.8 62.4 L 7.5 61.9 L 7.9 60.7 L 10.0 61.8 L 9.7 59.5 L 10.9 59.5 L 10.6 61.8 L 12.7 60.8 L 13.1 61.9 L 10.8 62.4 L 12.4 64.2 L 11.4 64.9 L 10.3 62.7 L 9.1 64.9 L 8.1 64.2 " fill="#191919"/>
<path class="atom-2" d="M 68.7 24.5 L 70.4 22.7 L 68.1 22.2 L 68.5 21.0 L 70.6 22.1 L 70.3 19.8 L 71.6 19.8 L 71.2 22.1 L 73.4 21.1 L 73.7 22.2 L 71.4 22.7 L 73.1 24.5 L 72.1 25.2 L 70.9 23.0 L 69.7 25.2 L 68.7 24.5 " fill="#191919"/>
<path class="atom-3" d="M 133.4 57.1 L 135.1 55.4 L 132.8 54.9 L 133.2 53.7 L 135.3 54.8 L 135.0 52.5 L 136.3 52.4 L 135.9 54.8 L 138.1 53.8 L 138.4 54.9 L 136.1 55.3 L 137.8 57.1 L 136.8 57.9 L 135.6 55.7 L 134.4 57.9 L 133.4 57.1 " fill="#191919"/>
<path class="atom-6" d="M 137.5 129.5 L 139.2 127.7 L 136.9 127.3 L 137.2 126.1 L 139.4 127.1 L 139.1 124.8 L 140.3 124.8 L 140.0 127.1 L 142.1 126.1 L 142.5 127.3 L 140.2 127.7 L 141.8 129.5 L 140.8 130.2 L 139.7 128.0 L 138.5 130.2 L 137.5 129.5 " fill="#191919"/>
</svg>