<svg xmlns="http://www.w3.org/2000/svg" xmlns:rdkit="http://www.rdkit.org/xml" xmlns:xlink="http://www.w3.org/1999/xlink" version="1.1" baseProfile="full" xml:space="preserve" width="150px" height="150px" viewBox="0 0 150 150">
<!-- END OF HEADER -->
<rect style="opacity:1.0;fill:#FFFFFF;stroke:none" width="150.0" height="150.0" x="0.0" y="0.0"> </rect>
<ellipse cx="82.8" cy="77.9" rx="13.1" ry="13.1" class="atom-1" style="fill:#CCCCCC;fill-rule:evenodd;stroke:#CCCCCC;stroke-width:1.0px;stroke-linecap:butt;stroke-linejoin:miter;stroke-opacity:1"/>
<ellipse cx="123.4" cy="129.4" rx="13.1" ry="13.1" class="atom-2" style="fill:#9999E5;fill-rule:evenodd;stroke:#9999E5;stroke-width:1.0px;stroke-linecap:butt;stroke-linejoin:miter;stroke-opacity:1"/>
<path class="bond-0 atom-0 atom-1" d="M 106.5,18.2 L 82.8,77.9" style="fill:none;fill-rule:evenodd;stroke:#E5E5E5;stroke-width:3.5px;stroke-linecap:butt;stroke-linejoin:miter;stroke-opacity:1"/>
<path class="bond-1 atom-1 atom-2" d="M 77.1,78.7 L 93.8,99.8" style="fill:none;fill-rule:evenodd;stroke:#000000;stroke-width:2.0px;stroke-linecap:butt;stroke-linejoin:miter;stroke-opacity:1"/>
<path class="bond-1 atom-1 atom-2" d="M 93.8,99.8 L 110.4,120.9" style="fill:none;fill-rule:evenodd;stroke:#FF0000;stroke-width:2.0px;stroke-linecap:butt;stroke-linejoin:miter;stroke-opacity:1"/>
<path class="bond-1 atom-1 atom-2" d="M 84.9,72.6 L 101.5,93.7" style="fill:none;fill-rule:evenodd;stroke:#000000;stroke-width:2.0px;stroke-linecap:butt;stroke-linejoin:miter;stroke-opacity:1"/>
<path class="bond-1 atom-1 atom-2" d="M 101.5,93.7 L 118.2,114.8" style="fill:none;fill-rule:evenodd;stroke:#FF0000;stroke-width:2.0px;stroke-linecap:butt;stroke-linejoin:miter;stroke-opacity:1"/>
<path class="bond-2 atom-1 atom-3" d="M 82.8,77.9 L 24.4,86.4" style="fill:none;fill-rule:evenodd;stroke:#E5E5E5;stroke-width:3.5px;stroke-linecap:butt;stroke-linejoin:miter;stroke-opacity:1"/>
<path d="M 83.9,74.9 L 82.8,77.9 L 79.8,78.3" style="fill:none;stroke:#E5E5E5;stroke-width:3.5px;stroke-linecap:butt;stroke-linejoin:miter;stroke-opacity:1;"/>
<path class="atom-0" d="M 103.5 14.9 L 106.2 12.1 L 102.6 11.4 L 103.2 9.5 L 106.5 11.2 L 106.0 7.5 L 108.0 7.5 L 107.4 11.1 L 110.8 9.6 L 111.4 11.4 L 107.7 12.0 L 110.3 14.8 L 108.7 16.0 L 106.9 12.5 L 105.1 16.0 L 103.5 14.9 " fill="#191919"/>
<path class="atom-2" d="M 114.9 129.4 Q 114.9 125.0, 117.1 122.5 Q 119.3 120.0, 123.4 120.0 Q 127.5 120.0, 129.8 122.5 Q 132.0 125.0, 132.0 129.4 Q 132.0 133.9, 129.7 136.5 Q 127.5 139.1, 123.4 139.1 Q 119.3 139.1, 117.1 136.5 Q 114.9 134.0, 114.9 129.4 M 123.4 137.0 Q 126.3 137.0, 127.8 135.1 Q 129.3 133.2, 129.3 129.4 Q 129.3 125.8, 127.8 123.9 Q 126.3 122.1, 123.4 122.1 Q 120.6 122.1, 119.0 123.9 Q 117.5 125.8, 117.5 129.4 Q 117.5 133.2, 119.0 135.1 Q 120.6 137.0, 123.4 137.0 " fill="#FF0000"/>
<path class="atom-3" d="M 14.3 85.3 L 17.1 82.5 L 13.4 81.8 L 14.0 79.9 L 17.3 81.6 L 16.9 78.0 L 18.8 77.9 L 18.3 81.6 L 21.7 80.0 L 22.2 81.8 L 18.6 82.5 L 21.2 85.3 L 19.6 86.4 L 17.8 83.0 L 15.9 86.4 L 14.3 85.3 " fill="#191919"/>
</svg>