<svg xmlns="http://www.w3.org/2000/svg" xmlns:rdkit="http://www.rdkit.org/xml" xmlns:xlink="http://www.w3.org/1999/xlink" version="1.1" baseProfile="full" xml:space="preserve" width="150px" height="150px" viewBox="0 0 150 150">
<!-- END OF HEADER -->
<rect style="opacity:1.0;fill:#FFFFFF;stroke:none" width="150.0" height="150.0" x="0.0" y="0.0"> </rect>
<ellipse cx="75.0" cy="80.2" rx="7.7" ry="7.7" class="atom-2" style="fill:#9999E5;fill-rule:evenodd;stroke:#9999E5;stroke-width:1.0px;stroke-linecap:butt;stroke-linejoin:miter;stroke-opacity:1"/>
<path class="bond-0 atom-0 atom-1" d="M 12.6,97.2 L 40.9,105.3" style="fill:none;fill-rule:evenodd;stroke:#E5E5E5;stroke-width:2.1px;stroke-linecap:butt;stroke-linejoin:miter;stroke-opacity:1"/>
<path class="bond-1 atom-1 atom-2" d="M 53.5,101.0 L 64.3,90.6" style="fill:none;fill-rule:evenodd;stroke:#FF0000;stroke-width:2.0px;stroke-linecap:butt;stroke-linejoin:miter;stroke-opacity:1"/>
<path class="bond-1 atom-1 atom-2" d="M 64.3,90.6 L 75.0,80.2" style="fill:none;fill-rule:evenodd;stroke:#000000;stroke-width:2.0px;stroke-linecap:butt;stroke-linejoin:miter;stroke-opacity:1"/>
<path class="bond-2 atom-2 atom-3" d="M 78.2,81.1 L 74.2,65.1" style="fill:none;fill-rule:evenodd;stroke:#000000;stroke-width:2.0px;stroke-linecap:butt;stroke-linejoin:miter;stroke-opacity:1"/>
<path class="bond-2 atom-2 atom-3" d="M 74.2,65.1 L 70.2,49.0" style="fill:none;fill-rule:evenodd;stroke:#FF0000;stroke-width:2.0px;stroke-linecap:butt;stroke-linejoin:miter;stroke-opacity:1"/>
<path class="bond-2 atom-2 atom-3" d="M 72.6,82.5 L 68.6,66.5" style="fill:none;fill-rule:evenodd;stroke:#000000;stroke-width:2.0px;stroke-linecap:butt;stroke-linejoin:miter;stroke-opacity:1"/>
<path class="bond-2 atom-2 atom-3" d="M 68.6,66.5 L 64.5,50.4" style="fill:none;fill-rule:evenodd;stroke:#FF0000;stroke-width:2.0px;stroke-linecap:butt;stroke-linejoin:miter;stroke-opacity:1"/>
<path class="bond-3 atom-2 atom-4" d="M 75.0,80.2 L 112.2,90.8" style="fill:none;fill-rule:evenodd;stroke:#000000;stroke-width:2.0px;stroke-linecap:butt;stroke-linejoin:miter;stroke-opacity:1"/>
<path class="bond-4 atom-4 atom-5" d="M 112.2,90.8 L 139.2,64.6" style="fill:none;fill-rule:evenodd;stroke:#E5E5E5;stroke-width:2.1px;stroke-linecap:butt;stroke-linejoin:miter;stroke-opacity:1"/>
<path d="M 74.5,80.7 L 75.0,80.2 L 76.9,80.7" style="fill:none;stroke:#000000;stroke-width:2.0px;stroke-linecap:butt;stroke-linejoin:miter;stroke-opacity:1;"/>
<path d="M 111.2,90.5 L 112.2,90.8 L 112.8,90.1" style="fill:none;stroke:#000000;stroke-width:2.0px;stroke-linecap:butt;stroke-linejoin:miter;stroke-opacity:1;"/>
<path class="atom-0" d="M 8.0 95.3 L 9.6 93.6 L 7.5 93.2 L 7.8 92.1 L 9.8 93.1 L 9.5 91.0 L 10.7 90.9 L 10.3 93.1 L 12.3 92.2 L 12.7 93.2 L 10.5 93.6 L 12.1 95.3 L 11.1 95.9 L 10.1 93.9 L 9.0 95.9 L 8.0 95.3 " fill="#191919"/>
<path class="atom-1" d="M 42.2 107.1 Q 42.2 104.5, 43.5 103.0 Q 44.8 101.6, 47.2 101.6 Q 49.7 101.6, 51.0 103.0 Q 52.3 104.5, 52.3 107.1 Q 52.3 109.8, 51.0 111.3 Q 49.6 112.8, 47.2 112.8 Q 44.8 112.8, 43.5 111.3 Q 42.2 109.8, 42.2 107.1 M 47.2 111.6 Q 48.9 111.6, 49.8 110.4 Q 50.7 109.3, 50.7 107.1 Q 50.7 105.0, 49.8 103.9 Q 48.9 102.8, 47.2 102.8 Q 45.6 102.8, 44.7 103.9 Q 43.8 105.0, 43.8 107.1 Q 43.8 109.3, 44.7 110.4 Q 45.6 111.6, 47.2 111.6 " fill="#FF0000"/>
<path class="atom-3" d="M 60.6 42.8 Q 60.6 40.1, 61.9 38.7 Q 63.2 37.2, 65.6 37.2 Q 68.0 37.2, 69.3 38.7 Q 70.6 40.1, 70.6 42.8 Q 70.6 45.4, 69.3 46.9 Q 68.0 48.4, 65.6 48.4 Q 63.2 48.4, 61.9 46.9 Q 60.6 45.4, 60.6 42.8 M 65.6 47.2 Q 67.3 47.2, 68.2 46.1 Q 69.1 45.0, 69.1 42.8 Q 69.1 40.6, 68.2 39.5 Q 67.3 38.4, 65.6 38.4 Q 63.9 38.4, 63.0 39.5 Q 62.1 40.6, 62.1 42.8 Q 62.1 45.0, 63.0 46.1 Q 63.9 47.2, 65.6 47.2 " fill="#FF0000"/>
<path class="atom-5" d="M 137.8 62.7 L 139.5 61.1 L 137.3 60.6 L 137.6 59.5 L 139.6 60.5 L 139.3 58.4 L 140.5 58.4 L 140.2 60.5 L 142.2 59.6 L 142.5 60.6 L 140.3 61.0 L 141.9 62.7 L 140.9 63.4 L 139.9 61.3 L 138.8 63.4 L 137.8 62.7 " fill="#191919"/>
</svg>