<svg xmlns="http://www.w3.org/2000/svg" xmlns:rdkit="http://www.rdkit.org/xml" xmlns:xlink="http://www.w3.org/1999/xlink" version="1.1" baseProfile="full" xml:space="preserve" width="150px" height="150px" viewBox="0 0 150 150">
<!-- END OF HEADER -->
<rect style="opacity:1.0;fill:#FFFFFF;stroke:none" width="150.0" height="150.0" x="0.0" y="0.0"> </rect>
<ellipse cx="75.0" cy="91.2" rx="7.8" ry="7.8" class="atom-2" style="fill:#9999E5;fill-rule:evenodd;stroke:#9999E5;stroke-width:1.0px;stroke-linecap:butt;stroke-linejoin:miter;stroke-opacity:1"/>
<ellipse cx="113.2" cy="82.5" rx="7.8" ry="7.8" class="atom-3" style="fill:#E5E533;fill-rule:evenodd;stroke:#E5E533;stroke-width:1.0px;stroke-linecap:butt;stroke-linejoin:miter;stroke-opacity:1"/>
<path class="bond-0 atom-0 atom-1" d="M 14.0,70.3 L 48.3,62.4" style="fill:none;fill-rule:evenodd;stroke:#E5E5E5;stroke-width:2.1px;stroke-linecap:butt;stroke-linejoin:miter;stroke-opacity:1"/>
<path class="bond-1 atom-1 atom-2" d="M 48.3,62.4 L 75.0,91.2" style="fill:none;fill-rule:evenodd;stroke:#000000;stroke-width:2.0px;stroke-linecap:butt;stroke-linejoin:miter;stroke-opacity:1"/>
<path class="bond-1 atom-1 atom-2" d="M 46.3,68.9 L 70.7,95.2" style="fill:none;fill-rule:evenodd;stroke:#000000;stroke-width:2.0px;stroke-linecap:butt;stroke-linejoin:miter;stroke-opacity:1"/>
<path class="bond-2 atom-2 atom-3" d="M 75.0,91.2 L 113.2,82.5" style="fill:none;fill-rule:evenodd;stroke:#000000;stroke-width:2.0px;stroke-linecap:butt;stroke-linejoin:miter;stroke-opacity:1"/>
<path class="bond-3 atom-3 atom-4" d="M 115.5,85.0 L 127.4,46.6" style="fill:none;fill-rule:evenodd;stroke:#E5E5E5;stroke-width:2.1px;stroke-linecap:butt;stroke-linejoin:miter;stroke-opacity:1"/>
<path class="bond-3 atom-3 atom-4" d="M 109.9,83.2 L 121.7,44.9" style="fill:none;fill-rule:evenodd;stroke:#E5E5E5;stroke-width:2.1px;stroke-linecap:butt;stroke-linejoin:miter;stroke-opacity:1;stroke-dasharray:6,4"/>
<path class="bond-4 atom-5 atom-3" d="M 133.8,109.0 L 109.9,83.2" style="fill:none;fill-rule:evenodd;stroke:#E5E5E5;stroke-width:2.1px;stroke-linecap:butt;stroke-linejoin:miter;stroke-opacity:1"/>
<path class="bond-4 atom-5 atom-3" d="M 138.1,105.0 L 114.2,79.2" style="fill:none;fill-rule:evenodd;stroke:#E5E5E5;stroke-width:2.1px;stroke-linecap:butt;stroke-linejoin:miter;stroke-opacity:1;stroke-dasharray:6,4"/>
<path d="M 47.5,62.6 L 48.3,62.4 L 49.0,63.2" style="fill:none;stroke:#E5E5E5;stroke-width:2.1px;stroke-linecap:butt;stroke-linejoin:miter;stroke-opacity:1;"/>
<path d="M 73.7,89.7 L 75.0,91.2 L 76.9,90.7" style="fill:none;stroke:#000000;stroke-width:2.0px;stroke-linecap:butt;stroke-linejoin:miter;stroke-opacity:1;"/>
<path class="atom-0" d="M 8.0 69.9 L 9.7 68.3 L 7.5 67.8 L 7.8 66.7 L 9.8 67.7 L 9.5 65.5 L 10.7 65.5 L 10.4 67.7 L 12.4 66.7 L 12.8 67.8 L 10.6 68.2 L 12.1 69.9 L 11.2 70.6 L 10.1 68.5 L 9.0 70.6 L 8.0 69.9 " fill="#191919"/>
<path class="atom-4" d="M 122.7 43.8 L 124.3 42.1 L 122.2 41.7 L 122.5 40.6 L 124.5 41.6 L 124.2 39.4 L 125.4 39.4 L 125.0 41.5 L 127.1 40.6 L 127.4 41.7 L 125.2 42.1 L 126.8 43.8 L 125.8 44.4 L 124.7 42.4 L 123.6 44.4 L 122.7 43.8 " fill="#191919"/>
<path class="atom-5" d="M 137.8 110.0 L 139.4 108.3 L 137.2 107.9 L 137.6 106.7 L 139.6 107.8 L 139.3 105.6 L 140.5 105.6 L 140.1 107.7 L 142.2 106.8 L 142.5 107.9 L 140.3 108.3 L 141.9 109.9 L 140.9 110.6 L 139.8 108.6 L 138.7 110.6 L 137.8 110.0 " fill="#191919"/>
</svg>