<svg xmlns="http://www.w3.org/2000/svg" xmlns:rdkit="http://www.rdkit.org/xml" xmlns:xlink="http://www.w3.org/1999/xlink" version="1.1" baseProfile="full" xml:space="preserve" width="150px" height="150px" viewBox="0 0 150 150">
<!-- END OF HEADER -->
<rect style="opacity:1.0;fill:#FFFFFF;stroke:none" width="150.0" height="150.0" x="0.0" y="0.0"> </rect>
<ellipse cx="90.8" cy="83.4" rx="14.5" ry="14.5" class="atom-1" style="fill:#9999E5;fill-rule:evenodd;stroke:#9999E5;stroke-width:1.0px;stroke-linecap:butt;stroke-linejoin:miter;stroke-opacity:1"/>
<path class="bond-0 atom-0 atom-1" d="M 121.9,19.3 L 90.8,83.4" style="fill:none;fill-rule:evenodd;stroke:#E5E5E5;stroke-width:3.9px;stroke-linecap:butt;stroke-linejoin:miter;stroke-opacity:1"/>
<path class="bond-1 atom-1 atom-2" d="M 90.8,83.4 L 124.4,132.8" style="fill:none;fill-rule:evenodd;stroke:#E5E5E5;stroke-width:3.9px;stroke-linecap:butt;stroke-linejoin:miter;stroke-opacity:1"/>
<path class="bond-2 atom-1 atom-3" d="M 93.6,77.7 L 25.2,82.7" style="fill:none;fill-rule:evenodd;stroke:#E5E5E5;stroke-width:3.9px;stroke-linecap:butt;stroke-linejoin:miter;stroke-opacity:1"/>
<path class="bond-2 atom-1 atom-3" d="M 94.4,88.6 L 26.0,93.6" style="fill:none;fill-rule:evenodd;stroke:#E5E5E5;stroke-width:3.9px;stroke-linecap:butt;stroke-linejoin:miter;stroke-opacity:1"/>
<path d="M 92.4,80.2 L 90.8,83.4 L 92.5,85.9" style="fill:none;stroke:#E5E5E5;stroke-width:3.9px;stroke-linecap:butt;stroke-linejoin:miter;stroke-opacity:1;"/>
<path class="atom-0" d="M 118.6 15.7 L 121.7 12.6 L 117.7 11.8 L 118.3 9.7 L 122.0 11.6 L 121.4 7.5 L 123.6 7.5 L 123.0 11.5 L 126.8 9.8 L 127.4 11.8 L 123.3 12.5 L 126.2 15.6 L 124.5 16.9 L 122.4 13.1 L 120.4 16.9 L 118.6 15.7 " fill="#191919"/>
<path class="atom-2" d="M 127.8 141.2 L 130.8 138.2 L 126.8 137.4 L 127.4 135.3 L 131.1 137.1 L 130.6 133.1 L 132.8 133.1 L 132.1 137.1 L 135.9 135.4 L 136.5 137.4 L 132.5 138.1 L 135.4 141.2 L 133.6 142.5 L 131.6 138.7 L 129.6 142.5 L 127.8 141.2 " fill="#191919"/>
<path class="atom-3" d="M 14.5 86.4 L 17.5 83.3 L 13.5 82.5 L 14.1 80.4 L 17.8 82.3 L 17.2 78.2 L 19.4 78.2 L 18.8 82.2 L 22.6 80.5 L 23.2 82.5 L 19.1 83.2 L 22.0 86.3 L 20.3 87.6 L 18.3 83.8 L 16.2 87.6 L 14.5 86.4 " fill="#191919"/>
</svg>