<svg xmlns="http://www.w3.org/2000/svg" xmlns:rdkit="http://www.rdkit.org/xml" xmlns:xlink="http://www.w3.org/1999/xlink" version="1.1" baseProfile="full" xml:space="preserve" width="150px" height="150px" viewBox="0 0 150 150">
<!-- END OF HEADER -->
<rect style="opacity:1.0;fill:#FFFFFF;stroke:none" width="150.0" height="150.0" x="0.0" y="0.0"> </rect>
<ellipse cx="54.5" cy="78.5" rx="8.8" ry="8.8" class="atom-1" style="fill:#E5E533;fill-rule:evenodd;stroke:#E5E533;stroke-width:1.0px;stroke-linecap:butt;stroke-linejoin:miter;stroke-opacity:1"/>
<ellipse cx="78.6" cy="41.6" rx="8.8" ry="8.8" class="atom-2" style="fill:#9999E5;fill-rule:evenodd;stroke:#9999E5;stroke-width:1.0px;stroke-linecap:butt;stroke-linejoin:miter;stroke-opacity:1"/>
<ellipse cx="122.6" cy="44.1" rx="8.8" ry="8.8" class="atom-3" style="fill:#E5E533;fill-rule:evenodd;stroke:#E5E533;stroke-width:1.0px;stroke-linecap:butt;stroke-linejoin:miter;stroke-opacity:1"/>
<path class="bond-0 atom-0 atom-1" d="M 67.4,111.5 L 50.7,78.3" style="fill:none;fill-rule:evenodd;stroke:#E5E5E5;stroke-width:2.4px;stroke-linecap:butt;stroke-linejoin:miter;stroke-opacity:1"/>
<path class="bond-0 atom-0 atom-1" d="M 73.4,108.6 L 56.6,75.3" style="fill:none;fill-rule:evenodd;stroke:#E5E5E5;stroke-width:2.4px;stroke-linecap:butt;stroke-linejoin:miter;stroke-opacity:1;stroke-dasharray:6,4"/>
<path class="bond-1 atom-1 atom-2" d="M 54.5,78.5 L 78.6,41.6" style="fill:none;fill-rule:evenodd;stroke:#000000;stroke-width:2.0px;stroke-linecap:butt;stroke-linejoin:miter;stroke-opacity:1"/>
<path class="bond-1 atom-1 atom-2" d="M 62.1,78.9 L 82.1,48.4" style="fill:none;fill-rule:evenodd;stroke:#000000;stroke-width:2.0px;stroke-linecap:butt;stroke-linejoin:miter;stroke-opacity:1;stroke-dasharray:6,4"/>
<path class="bond-2 atom-2 atom-3" d="M 78.6,41.6 L 122.6,44.1" style="fill:none;fill-rule:evenodd;stroke:#000000;stroke-width:2.0px;stroke-linecap:butt;stroke-linejoin:miter;stroke-opacity:1"/>
<path class="bond-2 atom-2 atom-3" d="M 82.1,48.4 L 118.4,50.5" style="fill:none;fill-rule:evenodd;stroke:#000000;stroke-width:2.0px;stroke-linecap:butt;stroke-linejoin:miter;stroke-opacity:1;stroke-dasharray:6,4"/>
<path class="bond-3 atom-1 atom-4" d="M 54.5,78.5 L 14.9,76.3" style="fill:none;fill-rule:evenodd;stroke:#E5E5E5;stroke-width:2.4px;stroke-linecap:butt;stroke-linejoin:miter;stroke-opacity:1"/>
<path class="bond-4 atom-3 atom-5" d="M 122.6,44.1 L 138.6,75.6" style="fill:none;fill-rule:evenodd;stroke:#E5E5E5;stroke-width:2.4px;stroke-linecap:butt;stroke-linejoin:miter;stroke-opacity:1"/>
<path class="bond-4 atom-3 atom-5" d="M 118.4,50.5 L 132.7,78.6" style="fill:none;fill-rule:evenodd;stroke:#E5E5E5;stroke-width:2.4px;stroke-linecap:butt;stroke-linejoin:miter;stroke-opacity:1;stroke-dasharray:6,4"/>
<path d="M 77.4,43.5 L 78.6,41.6 L 80.8,41.7" style="fill:none;stroke:#000000;stroke-width:2.0px;stroke-linecap:butt;stroke-linejoin:miter;stroke-opacity:1;"/>
<path d="M 121.5,44.0 L 122.6,44.1 L 123.0,44.9" style="fill:none;stroke:#000000;stroke-width:2.0px;stroke-linecap:butt;stroke-linejoin:miter;stroke-opacity:1;"/>
<path class="atom-0" d="M 72.0 116.5 L 73.8 114.6 L 71.4 114.1 L 71.8 112.8 L 74.0 114.0 L 73.7 111.5 L 75.0 111.5 L 74.6 113.9 L 76.9 112.9 L 77.3 114.1 L 74.8 114.5 L 76.6 116.4 L 75.5 117.2 L 74.3 114.9 L 73.1 117.2 L 72.0 116.5 " fill="#191919"/>
<path class="atom-4" d="M 8.1 74.6 L 9.9 72.8 L 7.5 72.3 L 7.9 71.0 L 10.1 72.1 L 9.8 69.7 L 11.1 69.7 L 10.7 72.1 L 13.0 71.1 L 13.4 72.3 L 10.9 72.7 L 12.7 74.6 L 11.6 75.4 L 10.4 73.1 L 9.2 75.4 L 8.1 74.6 " fill="#191919"/>
<path class="atom-5" d="M 137.2 83.5 L 139.0 81.7 L 136.6 81.2 L 137.0 79.9 L 139.2 81.0 L 138.9 78.6 L 140.2 78.6 L 139.8 81.0 L 142.1 80.0 L 142.5 81.2 L 140.0 81.6 L 141.8 83.5 L 140.7 84.3 L 139.5 82.0 L 138.3 84.3 L 137.2 83.5 " fill="#191919"/>
</svg>