<svg xmlns="http://www.w3.org/2000/svg" xmlns:rdkit="http://www.rdkit.org/xml" xmlns:xlink="http://www.w3.org/1999/xlink" version="1.1" baseProfile="full" xml:space="preserve" width="150px" height="150px" viewBox="0 0 150 150">
<!-- END OF HEADER -->
<rect style="opacity:1.0;fill:#FFFFFF;stroke:none" width="150.0" height="150.0" x="0.0" y="0.0"> </rect>
<ellipse cx="59.2" cy="58.4" rx="10.4" ry="10.4" class="atom-1" style="fill:#9999E5;fill-rule:evenodd;stroke:#9999E5;stroke-width:1.0px;stroke-linecap:butt;stroke-linejoin:miter;stroke-opacity:1"/>
<path class="bond-0 atom-0 atom-1" d="M 7.5,61.1 L 59.2,58.4" style="fill:none;fill-rule:evenodd;stroke:#000000;stroke-width:2.0px;stroke-linecap:butt;stroke-linejoin:miter;stroke-opacity:1"/>
<path class="bond-1 atom-1 atom-2" d="M 59.2,58.4 L 87.3,101.9" style="fill:none;fill-rule:evenodd;stroke:#000000;stroke-width:2.0px;stroke-linecap:butt;stroke-linejoin:miter;stroke-opacity:1"/>
<path class="bond-2 atom-2 atom-3" d="M 87.3,101.9 L 133.9,99.5" style="fill:none;fill-rule:evenodd;stroke:#E5E5E5;stroke-width:2.8px;stroke-linecap:butt;stroke-linejoin:miter;stroke-opacity:1"/>
<path d="M 56.6,58.6 L 59.2,58.4 L 60.6,60.6" style="fill:none;stroke:#000000;stroke-width:2.0px;stroke-linecap:butt;stroke-linejoin:miter;stroke-opacity:1;"/>
<path d="M 86.6,100.8 L 87.3,101.9 L 88.5,101.9" style="fill:none;stroke:#000000;stroke-width:2.0px;stroke-linecap:butt;stroke-linejoin:miter;stroke-opacity:1;"/>
<path class="atom-3" d="M 136.3 97.7 L 138.4 95.5 L 135.6 94.9 L 136.0 93.4 L 138.6 94.7 L 138.3 91.9 L 139.8 91.8 L 139.4 94.7 L 142.0 93.5 L 142.5 94.9 L 139.6 95.4 L 141.7 97.6 L 140.4 98.5 L 139.0 95.8 L 137.5 98.5 L 136.3 97.7 " fill="#191919"/>
</svg>