<svg xmlns="http://www.w3.org/2000/svg" xmlns:rdkit="http://www.rdkit.org/xml" xmlns:xlink="http://www.w3.org/1999/xlink" version="1.1" baseProfile="full" xml:space="preserve" width="150px" height="150px" viewBox="0 0 150 150">
<!-- END OF HEADER -->
<rect style="opacity:1.0;fill:#FFFFFF;stroke:none" width="150.0" height="150.0" x="0.0" y="0.0"> </rect>
<ellipse cx="85.1" cy="71.7" rx="14.9" ry="14.9" class="atom-1" style="fill:#9999E5;fill-rule:evenodd;stroke:#9999E5;stroke-width:1.0px;stroke-linecap:butt;stroke-linejoin:miter;stroke-opacity:1"/>
<path class="bond-0 atom-0 atom-1" d="M 18.1,54.5 L 85.1,71.7" style="fill:none;fill-rule:evenodd;stroke:#E5E5E5;stroke-width:4.0px;stroke-linecap:butt;stroke-linejoin:miter;stroke-opacity:1"/>
<path class="bond-1 atom-1 atom-2" d="M 86.8,77.9 L 139.9,23.6" style="fill:none;fill-rule:evenodd;stroke:#E5E5E5;stroke-width:4.0px;stroke-linecap:butt;stroke-linejoin:miter;stroke-opacity:1"/>
<path class="bond-1 atom-1 atom-2" d="M 78.8,70.0 L 131.9,15.7" style="fill:none;fill-rule:evenodd;stroke:#E5E5E5;stroke-width:4.0px;stroke-linecap:butt;stroke-linejoin:miter;stroke-opacity:1"/>
<path class="bond-2 atom-1 atom-3" d="M 85.1,71.7 L 101.5,130.4" style="fill:none;fill-rule:evenodd;stroke:#E5E5E5;stroke-width:4.0px;stroke-linecap:butt;stroke-linejoin:miter;stroke-opacity:1"/>
<path d="M 81.7,70.8 L 85.1,71.7 L 85.9,74.6" style="fill:none;stroke:#E5E5E5;stroke-width:4.0px;stroke-linecap:butt;stroke-linejoin:miter;stroke-opacity:1;"/>
<path class="atom-0" d="M 8.7 50.8 L 11.8 47.6 L 7.7 46.8 L 8.3 44.6 L 12.1 46.5 L 11.6 42.4 L 13.8 42.4 L 13.2 46.5 L 17.1 44.7 L 17.7 46.8 L 13.5 47.5 L 16.5 50.7 L 14.7 52.0 L 12.6 48.1 L 10.5 52.0 L 8.7 50.8 " fill="#191919"/>
<path class="atom-2" d="M 133.3 15.9 L 136.4 12.7 L 132.3 11.9 L 132.9 9.8 L 136.7 11.7 L 136.2 7.5 L 138.4 7.5 L 137.8 11.7 L 141.6 9.9 L 142.3 11.9 L 138.1 12.7 L 141.1 15.9 L 139.3 17.2 L 137.2 13.2 L 135.1 17.2 L 133.3 15.9 " fill="#191919"/>
<path class="atom-3" d="M 101.2 141.2 L 104.3 138.0 L 100.2 137.2 L 100.8 135.1 L 104.6 137.0 L 104.1 132.9 L 106.3 132.8 L 105.7 137.0 L 109.5 135.2 L 110.2 137.2 L 106.0 138.0 L 109.0 141.2 L 107.2 142.5 L 105.1 138.6 L 103.0 142.5 L 101.2 141.2 " fill="#191919"/>
</svg>