<svg xmlns="http://www.w3.org/2000/svg" xmlns:rdkit="http://www.rdkit.org/xml" xmlns:xlink="http://www.w3.org/1999/xlink" version="1.1" baseProfile="full" xml:space="preserve" width="150px" height="150px" viewBox="0 0 150 150">
<!-- END OF HEADER -->
<rect style="opacity:1.0;fill:#FFFFFF;stroke:none" width="150.0" height="150.0" x="0.0" y="0.0"> </rect>
<ellipse cx="42.0" cy="40.7" rx="18.8" ry="18.8" class="atom-1" style="fill:#9999E5;fill-rule:evenodd;stroke:#9999E5;stroke-width:1.0px;stroke-linecap:butt;stroke-linejoin:miter;stroke-opacity:1"/>
<path class="bond-0 atom-0 atom-1" d="M 13.9,111.5 L 42.0,40.7" style="fill:none;fill-rule:evenodd;stroke:#E5E5E5;stroke-width:5.0px;stroke-linecap:butt;stroke-linejoin:miter;stroke-opacity:1"/>
<path class="bond-0 atom-0 atom-1" d="M 27.0,116.8 L 52.1,53.5" style="fill:none;fill-rule:evenodd;stroke:#E5E5E5;stroke-width:5.0px;stroke-linecap:butt;stroke-linejoin:miter;stroke-opacity:1;stroke-dasharray:6,4"/>
<path class="bond-1 atom-1 atom-2" d="M 42.0,40.7 L 125.8,28.5" style="fill:none;fill-rule:evenodd;stroke:#E5E5E5;stroke-width:5.0px;stroke-linecap:butt;stroke-linejoin:miter;stroke-opacity:1"/>
<path class="bond-1 atom-1 atom-2" d="M 52.1,53.5 L 127.8,42.5" style="fill:none;fill-rule:evenodd;stroke:#E5E5E5;stroke-width:5.0px;stroke-linecap:butt;stroke-linejoin:miter;stroke-opacity:1;stroke-dasharray:6,4"/>
<path d="M 40.6,44.3 L 42.0,40.7 L 46.2,40.1" style="fill:none;stroke:#E5E5E5;stroke-width:5.0px;stroke-linecap:butt;stroke-linejoin:miter;stroke-opacity:1;"/>
<path class="atom-0" d="M 8.8 127.8 L 12.7 123.8 L 7.5 122.8 L 8.3 120.1 L 13.1 122.5 L 12.4 117.3 L 15.2 117.3 L 14.4 122.5 L 19.3 120.2 L 20.1 122.8 L 14.8 123.8 L 18.6 127.8 L 16.3 129.5 L 13.7 124.5 L 11.1 129.5 L 8.8 127.8 " fill="#191919"/>
<path class="atom-2" d="M 131.2 31.1 L 135.1 27.1 L 129.9 26.1 L 130.7 23.4 L 135.5 25.8 L 134.8 20.6 L 137.6 20.5 L 136.8 25.8 L 141.7 23.5 L 142.5 26.1 L 137.2 27.1 L 141.0 31.1 L 138.7 32.7 L 136.1 27.8 L 133.5 32.7 L 131.2 31.1 " fill="#191919"/>
</svg>