<svg xmlns="http://www.w3.org/2000/svg" xmlns:rdkit="http://www.rdkit.org/xml" xmlns:xlink="http://www.w3.org/1999/xlink" version="1.1" baseProfile="full" xml:space="preserve" width="150px" height="150px" viewBox="0 0 150 150">
<!-- END OF HEADER -->
<rect style="opacity:1.0;fill:#FFFFFF;stroke:none" width="150.0" height="150.0" x="0.0" y="0.0"> </rect>
<ellipse cx="75.0" cy="97.4" rx="7.6" ry="7.6" class="atom-2" style="fill:#9999E5;fill-rule:evenodd;stroke:#9999E5;stroke-width:1.0px;stroke-linecap:butt;stroke-linejoin:miter;stroke-opacity:1"/>
<ellipse cx="110.8" cy="84.5" rx="7.6" ry="7.6" class="atom-3" style="fill:#E5E533;fill-rule:evenodd;stroke:#E5E533;stroke-width:1.0px;stroke-linecap:butt;stroke-linejoin:miter;stroke-opacity:1"/>
<path class="bond-0 atom-0 atom-1" d="M 13.9,84.5 L 45.9,72.9" style="fill:none;fill-rule:evenodd;stroke:#E5E5E5;stroke-width:2.0px;stroke-linecap:butt;stroke-linejoin:miter;stroke-opacity:1"/>
<path class="bond-1 atom-1 atom-2" d="M 45.9,72.9 L 75.0,97.4" style="fill:none;fill-rule:evenodd;stroke:#000000;stroke-width:2.0px;stroke-linecap:butt;stroke-linejoin:miter;stroke-opacity:1"/>
<path class="bond-1 atom-1 atom-2" d="M 44.7,79.4 L 71.3,101.8" style="fill:none;fill-rule:evenodd;stroke:#000000;stroke-width:2.0px;stroke-linecap:butt;stroke-linejoin:miter;stroke-opacity:1"/>
<path class="bond-2 atom-2 atom-3" d="M 75.0,97.4 L 110.8,84.5" style="fill:none;fill-rule:evenodd;stroke:#000000;stroke-width:2.0px;stroke-linecap:butt;stroke-linejoin:miter;stroke-opacity:1"/>
<path class="bond-3 atom-3 atom-4" d="M 113.3,86.6 L 120.2,48.2" style="fill:none;fill-rule:evenodd;stroke:#E5E5E5;stroke-width:2.0px;stroke-linecap:butt;stroke-linejoin:miter;stroke-opacity:1"/>
<path class="bond-3 atom-3 atom-4" d="M 107.7,85.6 L 114.6,47.2" style="fill:none;fill-rule:evenodd;stroke:#E5E5E5;stroke-width:2.0px;stroke-linecap:butt;stroke-linejoin:miter;stroke-opacity:1;stroke-dasharray:6,4"/>
<path class="bond-4 atom-5 atom-3" d="M 134.3,108.0 L 107.7,85.6" style="fill:none;fill-rule:evenodd;stroke:#E5E5E5;stroke-width:2.0px;stroke-linecap:butt;stroke-linejoin:miter;stroke-opacity:1"/>
<path class="bond-4 atom-5 atom-3" d="M 138.0,103.6 L 111.4,81.2" style="fill:none;fill-rule:evenodd;stroke:#E5E5E5;stroke-width:2.0px;stroke-linecap:butt;stroke-linejoin:miter;stroke-opacity:1;stroke-dasharray:6,4"/>
<path d="M 45.1,73.2 L 45.9,72.9 L 46.6,73.5" style="fill:none;stroke:#E5E5E5;stroke-width:2.0px;stroke-linecap:butt;stroke-linejoin:miter;stroke-opacity:1;"/>
<path d="M 73.5,96.2 L 75.0,97.4 L 76.8,96.8" style="fill:none;stroke:#000000;stroke-width:2.0px;stroke-linecap:butt;stroke-linejoin:miter;stroke-opacity:1;"/>
<path class="atom-0" d="M 8.0 84.6 L 9.6 83.0 L 7.5 82.6 L 7.8 81.5 L 9.8 82.5 L 9.5 80.4 L 10.6 80.3 L 10.3 82.5 L 12.3 81.6 L 12.6 82.6 L 10.5 83.0 L 12.0 84.6 L 11.1 85.3 L 10.0 83.3 L 8.9 85.3 L 8.0 84.6 " fill="#191919"/>
<path class="atom-4" d="M 115.5 45.8 L 117.1 44.2 L 115.0 43.7 L 115.3 42.7 L 117.2 43.6 L 117.0 41.5 L 118.1 41.5 L 117.8 43.6 L 119.7 42.7 L 120.1 43.7 L 117.9 44.1 L 119.5 45.8 L 118.5 46.4 L 117.5 44.4 L 116.4 46.4 L 115.5 45.8 " fill="#191919"/>
<path class="atom-5" d="M 137.9 107.8 L 139.5 106.2 L 137.4 105.8 L 137.7 104.7 L 139.7 105.7 L 139.4 103.6 L 140.5 103.6 L 140.2 105.7 L 142.2 104.8 L 142.5 105.8 L 140.4 106.2 L 141.9 107.8 L 141.0 108.5 L 139.9 106.5 L 138.8 108.5 L 137.9 107.8 " fill="#191919"/>
</svg>