<svg xmlns="http://www.w3.org/2000/svg" xmlns:rdkit="http://www.rdkit.org/xml" xmlns:xlink="http://www.w3.org/1999/xlink" version="1.1" baseProfile="full" xml:space="preserve" width="150px" height="150px" viewBox="0 0 150 150">
<!-- END OF HEADER -->
<rect style="opacity:1.0;fill:#FFFFFF;stroke:none" width="150.0" height="150.0" x="0.0" y="0.0"> </rect>
<ellipse cx="70.9" cy="66.2" rx="14.6" ry="14.6" class="atom-1" style="fill:#9999E5;fill-rule:evenodd;stroke:#9999E5;stroke-width:1.0px;stroke-linecap:butt;stroke-linejoin:miter;stroke-opacity:1"/>
<path class="bond-0 atom-0 atom-1" d="M 14.2,24.4 L 70.9,66.2" style="fill:none;fill-rule:evenodd;stroke:#E5E5E5;stroke-width:3.9px;stroke-linecap:butt;stroke-linejoin:miter;stroke-opacity:1"/>
<path class="bond-1 atom-1 atom-2" d="M 70.9,66.2 L 64.2,125.6" style="fill:none;fill-rule:evenodd;stroke:#E5E5E5;stroke-width:3.9px;stroke-linecap:butt;stroke-linejoin:miter;stroke-opacity:1"/>
<path class="bond-2 atom-1 atom-3" d="M 70.2,72.5 L 136.7,43.5" style="fill:none;fill-rule:evenodd;stroke:#E5E5E5;stroke-width:3.9px;stroke-linecap:butt;stroke-linejoin:miter;stroke-opacity:1"/>
<path class="bond-2 atom-1 atom-3" d="M 65.9,62.5 L 132.3,33.4" style="fill:none;fill-rule:evenodd;stroke:#E5E5E5;stroke-width:3.9px;stroke-linecap:butt;stroke-linejoin:miter;stroke-opacity:1"/>
<path d="M 68.1,64.1 L 70.9,66.2 L 70.6,69.2" style="fill:none;stroke:#E5E5E5;stroke-width:3.9px;stroke-linecap:butt;stroke-linejoin:miter;stroke-opacity:1;"/>
<path class="atom-0" d="M 8.5 20.7 L 11.5 17.6 L 7.5 16.8 L 8.1 14.7 L 11.8 16.6 L 11.3 12.6 L 13.5 12.5 L 12.9 16.6 L 16.6 14.8 L 17.3 16.8 L 13.2 17.6 L 16.1 20.7 L 14.3 22.0 L 12.3 18.1 L 10.3 22.0 L 8.5 20.7 " fill="#191919"/>
<path class="atom-2" d="M 58.9 136.2 L 61.9 133.1 L 57.9 132.3 L 58.5 130.3 L 62.2 132.1 L 61.7 128.1 L 63.9 128.0 L 63.3 132.1 L 67.0 130.3 L 67.7 132.3 L 63.6 133.1 L 66.5 136.2 L 64.7 137.5 L 62.7 133.6 L 60.7 137.5 L 58.9 136.2 " fill="#191919"/>
<path class="atom-3" d="M 133.7 34.8 L 136.8 31.7 L 132.7 30.9 L 133.4 28.8 L 137.1 30.7 L 136.5 26.6 L 138.7 26.6 L 138.1 30.7 L 141.9 28.9 L 142.5 30.9 L 138.4 31.7 L 141.3 34.8 L 139.6 36.0 L 137.6 32.2 L 135.5 36.0 L 133.7 34.8 " fill="#191919"/>
</svg>