<svg xmlns="http://www.w3.org/2000/svg" xmlns:rdkit="http://www.rdkit.org/xml" xmlns:xlink="http://www.w3.org/1999/xlink" version="1.1" baseProfile="full" xml:space="preserve" width="150px" height="150px" viewBox="0 0 150 150">
<!-- END OF HEADER -->
<rect style="opacity:1.0;fill:#FFFFFF;stroke:none" width="150.0" height="150.0" x="0.0" y="0.0"> </rect>
<ellipse cx="105.3" cy="74.0" rx="18.8" ry="18.8" class="atom-1" style="fill:#9999E5;fill-rule:evenodd;stroke:#9999E5;stroke-width:1.0px;stroke-linecap:butt;stroke-linejoin:miter;stroke-opacity:1"/>
<path class="bond-0 atom-0 atom-1" d="M 23.2,93.9 L 89.9,77.7" style="fill:none;fill-rule:evenodd;stroke:#E5E5E5;stroke-width:5.0px;stroke-linecap:butt;stroke-linejoin:miter;stroke-opacity:1"/>
<path class="atom-0" d="M 8.8 93.2 L 12.7 89.2 L 7.5 88.1 L 8.3 85.5 L 13.1 87.9 L 12.4 82.6 L 15.2 82.6 L 14.4 87.8 L 19.3 85.6 L 20.1 88.1 L 14.8 89.1 L 18.6 93.1 L 16.3 94.8 L 13.7 89.8 L 11.1 94.8 L 8.8 93.2 " fill="#191919"/>
<path class="atom-1" d="M 93.0 74.1 Q 93.0 67.7, 96.2 64.1 Q 99.4 60.5, 105.3 60.5 Q 111.2 60.5, 114.3 64.1 Q 117.5 67.7, 117.5 74.1 Q 117.5 80.6, 114.3 84.3 Q 111.1 87.9, 105.3 87.9 Q 99.4 87.9, 96.2 84.3 Q 93.0 80.6, 93.0 74.1 M 105.3 84.9 Q 109.3 84.9, 111.5 82.2 Q 113.7 79.4, 113.7 74.1 Q 113.7 68.9, 111.5 66.2 Q 109.3 63.6, 105.3 63.6 Q 101.2 63.6, 99.0 66.2 Q 96.8 68.8, 96.8 74.1 Q 96.8 79.5, 99.0 82.2 Q 101.2 84.9, 105.3 84.9 " fill="#FF0000"/>
<path class="atom-1" d="M 121.6 60.8 L 125.3 60.8 L 125.3 72.2 L 138.9 72.2 L 138.9 60.8 L 142.5 60.8 L 142.5 87.5 L 138.9 87.5 L 138.9 75.2 L 125.3 75.2 L 125.3 87.5 L 121.6 87.5 L 121.6 60.8 " fill="#FF0000"/>
</svg>