<svg xmlns="http://www.w3.org/2000/svg" xmlns:rdkit="http://www.rdkit.org/xml" xmlns:xlink="http://www.w3.org/1999/xlink" version="1.1" baseProfile="full" xml:space="preserve" width="150px" height="150px" viewBox="0 0 150 150">
<!-- END OF HEADER -->
<rect style="opacity:1.0;fill:#FFFFFF;stroke:none" width="150.0" height="150.0" x="0.0" y="0.0"> </rect>
<ellipse cx="95.6" cy="73.8" rx="8.8" ry="8.8" class="atom-1" style="fill:#E5E533;fill-rule:evenodd;stroke:#E5E533;stroke-width:1.0px;stroke-linecap:butt;stroke-linejoin:miter;stroke-opacity:1"/>
<ellipse cx="73.6" cy="111.9" rx="8.8" ry="8.8" class="atom-2" style="fill:#9999E5;fill-rule:evenodd;stroke:#9999E5;stroke-width:1.0px;stroke-linecap:butt;stroke-linejoin:miter;stroke-opacity:1"/>
<ellipse cx="29.6" cy="111.9" rx="8.8" ry="8.8" class="atom-3" style="fill:#E5E533;fill-rule:evenodd;stroke:#E5E533;stroke-width:1.0px;stroke-linecap:butt;stroke-linejoin:miter;stroke-opacity:1"/>
<path class="bond-0 atom-0 atom-1" d="M 135.2,73.8 L 95.6,73.8" style="fill:none;fill-rule:evenodd;stroke:#E5E5E5;stroke-width:2.3px;stroke-linecap:butt;stroke-linejoin:miter;stroke-opacity:1"/>
<path class="bond-1 atom-1 atom-2" d="M 95.6,73.8 L 73.6,111.9" style="fill:none;fill-rule:evenodd;stroke:#000000;stroke-width:2.0px;stroke-linecap:butt;stroke-linejoin:miter;stroke-opacity:1"/>
<path class="bond-1 atom-1 atom-2" d="M 87.9,73.8 L 69.8,105.3" style="fill:none;fill-rule:evenodd;stroke:#000000;stroke-width:2.0px;stroke-linecap:butt;stroke-linejoin:miter;stroke-opacity:1;stroke-dasharray:6,4"/>
<path class="bond-2 atom-2 atom-3" d="M 73.6,111.9 L 29.6,111.9" style="fill:none;fill-rule:evenodd;stroke:#000000;stroke-width:2.0px;stroke-linecap:butt;stroke-linejoin:miter;stroke-opacity:1"/>
<path class="bond-2 atom-2 atom-3" d="M 69.8,105.3 L 33.4,105.3" style="fill:none;fill-rule:evenodd;stroke:#000000;stroke-width:2.0px;stroke-linecap:butt;stroke-linejoin:miter;stroke-opacity:1;stroke-dasharray:6,4"/>
<path class="bond-3 atom-3 atom-4" d="M 29.6,111.9 L 8.1,74.6" style="fill:none;fill-rule:evenodd;stroke:#E5E5E5;stroke-width:2.3px;stroke-linecap:butt;stroke-linejoin:miter;stroke-opacity:1"/>
<path class="bond-3 atom-3 atom-4" d="M 33.4,105.3 L 13.8,71.3" style="fill:none;fill-rule:evenodd;stroke:#E5E5E5;stroke-width:2.3px;stroke-linecap:butt;stroke-linejoin:miter;stroke-opacity:1;stroke-dasharray:6,4"/>
<path class="bond-4 atom-5 atom-1" d="M 76.9,34.8 L 99.4,73.8" style="fill:none;fill-rule:evenodd;stroke:#E5E5E5;stroke-width:2.3px;stroke-linecap:butt;stroke-linejoin:miter;stroke-opacity:1"/>
<path class="bond-4 atom-5 atom-1" d="M 71.2,38.1 L 93.7,77.1" style="fill:none;fill-rule:evenodd;stroke:#E5E5E5;stroke-width:2.3px;stroke-linecap:butt;stroke-linejoin:miter;stroke-opacity:1;stroke-dasharray:6,4"/>
<path d="M 74.7,110.0 L 73.6,111.9 L 71.4,111.9" style="fill:none;stroke:#000000;stroke-width:2.0px;stroke-linecap:butt;stroke-linejoin:miter;stroke-opacity:1;"/>
<path d="M 30.7,111.9 L 29.6,111.9 L 29.0,110.9" style="fill:none;stroke:#000000;stroke-width:2.0px;stroke-linecap:butt;stroke-linejoin:miter;stroke-opacity:1;"/>
<path class="atom-0" d="M 137.2 72.4 L 139.0 70.5 L 136.6 70.0 L 137.0 68.8 L 139.2 69.9 L 138.9 67.5 L 140.2 67.4 L 139.8 69.9 L 142.1 68.8 L 142.5 70.0 L 140.0 70.5 L 141.8 72.4 L 140.7 73.1 L 139.5 70.8 L 138.3 73.1 L 137.2 72.4 " fill="#191919"/>
<path class="atom-4" d="M 8.1 70.7 L 9.9 68.9 L 7.5 68.4 L 7.9 67.1 L 10.1 68.2 L 9.8 65.8 L 11.1 65.8 L 10.7 68.2 L 13.0 67.2 L 13.4 68.4 L 10.9 68.8 L 12.7 70.7 L 11.6 71.5 L 10.4 69.2 L 9.2 71.5 L 8.1 70.7 " fill="#191919"/>
<path class="atom-5" d="M 71.2 34.3 L 73.1 32.4 L 70.6 31.9 L 71.0 30.7 L 73.2 31.8 L 72.9 29.4 L 74.2 29.3 L 73.9 31.8 L 76.1 30.7 L 76.5 31.9 L 74.1 32.4 L 75.8 34.3 L 74.7 35.0 L 73.5 32.7 L 72.3 35.0 L 71.2 34.3 " fill="#191919"/>
</svg>