<svg xmlns="http://www.w3.org/2000/svg" xmlns:rdkit="http://www.rdkit.org/xml" xmlns:xlink="http://www.w3.org/1999/xlink" version="1.1" baseProfile="full" xml:space="preserve" width="150px" height="150px" viewBox="0 0 150 150">
<!-- END OF HEADER -->
<rect style="opacity:1.0;fill:#FFFFFF;stroke:none" width="150.0" height="150.0" x="0.0" y="0.0"> </rect>
<ellipse cx="54.3" cy="99.6" rx="9.6" ry="9.6" class="atom-1" style="fill:#E5E533;fill-rule:evenodd;stroke:#E5E533;stroke-width:1.0px;stroke-linecap:butt;stroke-linejoin:miter;stroke-opacity:1"/>
<ellipse cx="59.1" cy="52.1" rx="9.6" ry="9.6" class="atom-2" style="fill:#9999E5;fill-rule:evenodd;stroke:#9999E5;stroke-width:1.0px;stroke-linecap:butt;stroke-linejoin:miter;stroke-opacity:1"/>
<ellipse cx="102.6" cy="32.5" rx="9.6" ry="9.6" class="atom-3" style="fill:#E5E533;fill-rule:evenodd;stroke:#E5E533;stroke-width:1.0px;stroke-linecap:butt;stroke-linejoin:miter;stroke-opacity:1"/>
<path class="bond-0 atom-0 atom-1" d="M 15.5,117.1 L 54.3,99.6" style="fill:none;fill-rule:evenodd;stroke:#E5E5E5;stroke-width:2.5px;stroke-linecap:butt;stroke-linejoin:miter;stroke-opacity:1"/>
<path class="bond-1 atom-1 atom-2" d="M 54.3,99.6 L 59.1,52.1" style="fill:none;fill-rule:evenodd;stroke:#000000;stroke-width:2.0px;stroke-linecap:butt;stroke-linejoin:miter;stroke-opacity:1"/>
<path class="bond-1 atom-1 atom-2" d="M 61.8,96.3 L 65.8,57.0" style="fill:none;fill-rule:evenodd;stroke:#000000;stroke-width:2.0px;stroke-linecap:butt;stroke-linejoin:miter;stroke-opacity:1;stroke-dasharray:6,4"/>
<path class="bond-2 atom-2 atom-3" d="M 59.1,52.1 L 102.6,32.5" style="fill:none;fill-rule:evenodd;stroke:#000000;stroke-width:2.0px;stroke-linecap:butt;stroke-linejoin:miter;stroke-opacity:1"/>
<path class="bond-2 atom-2 atom-3" d="M 65.8,57.0 L 101.8,40.7" style="fill:none;fill-rule:evenodd;stroke:#000000;stroke-width:2.0px;stroke-linecap:butt;stroke-linejoin:miter;stroke-opacity:1;stroke-dasharray:6,4"/>
<path class="bond-3 atom-3 atom-4" d="M 102.6,32.5 L 136.6,57.0" style="fill:none;fill-rule:evenodd;stroke:#E5E5E5;stroke-width:2.5px;stroke-linecap:butt;stroke-linejoin:miter;stroke-opacity:1"/>
<path class="bond-3 atom-3 atom-4" d="M 101.8,40.7 L 132.4,62.8" style="fill:none;fill-rule:evenodd;stroke:#E5E5E5;stroke-width:2.5px;stroke-linecap:butt;stroke-linejoin:miter;stroke-opacity:1;stroke-dasharray:6,4"/>
<path class="bond-4 atom-5 atom-1" d="M 86.2,127.0 L 50.5,101.3" style="fill:none;fill-rule:evenodd;stroke:#E5E5E5;stroke-width:2.5px;stroke-linecap:butt;stroke-linejoin:miter;stroke-opacity:1"/>
<path class="bond-4 atom-5 atom-1" d="M 90.3,121.2 L 54.7,95.5" style="fill:none;fill-rule:evenodd;stroke:#E5E5E5;stroke-width:2.5px;stroke-linecap:butt;stroke-linejoin:miter;stroke-opacity:1;stroke-dasharray:6,4"/>
<path d="M 58.8,54.5 L 59.1,52.1 L 61.2,51.1" style="fill:none;stroke:#000000;stroke-width:2.0px;stroke-linecap:butt;stroke-linejoin:miter;stroke-opacity:1;"/>
<path d="M 101.5,33.0 L 102.6,32.5 L 103.5,33.1" style="fill:none;stroke:#000000;stroke-width:2.0px;stroke-linecap:butt;stroke-linejoin:miter;stroke-opacity:1;"/>
<path class="atom-0" d="M 8.1 117.7 L 10.1 115.7 L 7.5 115.2 L 7.9 113.8 L 10.3 115.0 L 10.0 112.4 L 11.4 112.4 L 11.0 115.0 L 13.5 113.9 L 13.9 115.2 L 11.2 115.7 L 13.1 117.7 L 12.0 118.6 L 10.7 116.0 L 9.3 118.6 L 8.1 117.7 " fill="#191919"/>
<path class="atom-4" d="M 136.7 61.8 L 138.7 59.8 L 136.1 59.3 L 136.5 57.9 L 138.9 59.1 L 138.6 56.5 L 140.0 56.5 L 139.6 59.1 L 142.1 58.0 L 142.5 59.3 L 139.8 59.8 L 141.7 61.8 L 140.6 62.7 L 139.3 60.1 L 137.9 62.7 L 136.7 61.8 " fill="#191919"/>
<path class="atom-5" d="M 90.5 126.1 L 92.5 124.0 L 89.8 123.5 L 90.2 122.1 L 92.7 123.4 L 92.3 120.7 L 93.7 120.7 L 93.3 123.4 L 95.8 122.2 L 96.2 123.5 L 93.6 124.0 L 95.5 126.0 L 94.3 126.9 L 93.0 124.4 L 91.6 126.9 L 90.5 126.1 " fill="#191919"/>
</svg>