<svg xmlns="http://www.w3.org/2000/svg" xmlns:rdkit="http://www.rdkit.org/xml" xmlns:xlink="http://www.w3.org/1999/xlink" version="1.1" baseProfile="full" xml:space="preserve" width="150px" height="150px" viewBox="0 0 150 150">
<!-- END OF HEADER -->
<rect style="opacity:1.0;fill:#FFFFFF;stroke:none" width="150.0" height="150.0" x="0.0" y="0.0"> </rect>
<ellipse cx="130.6" cy="73.5" rx="11.9" ry="11.9" class="atom-1" style="fill:#CCCCCC;fill-rule:evenodd;stroke:#CCCCCC;stroke-width:1.0px;stroke-linecap:butt;stroke-linejoin:miter;stroke-opacity:1"/>
<ellipse cx="41.0" cy="124.6" rx="11.9" ry="11.9" class="atom-4" style="fill:#CCCCCC;fill-rule:evenodd;stroke:#CCCCCC;stroke-width:1.0px;stroke-linecap:butt;stroke-linejoin:miter;stroke-opacity:1"/>
<ellipse cx="100.5" cy="124.9" rx="11.9" ry="11.9" class="atom-5" style="fill:#9999E5;fill-rule:evenodd;stroke:#9999E5;stroke-width:1.0px;stroke-linecap:butt;stroke-linejoin:miter;stroke-opacity:1"/>
<path class="bond-0 atom-0 atom-1" d="M 77.0,73.2 L 130.6,73.5" style="fill:none;fill-rule:evenodd;stroke:#E5E5E5;stroke-width:3.2px;stroke-linecap:butt;stroke-linejoin:miter;stroke-opacity:1"/>
<path class="bond-1 atom-1 atom-2" d="M 130.6,73.5 L 101.7,22.9" style="fill:none;fill-rule:evenodd;stroke:#E5E5E5;stroke-width:3.2px;stroke-linecap:butt;stroke-linejoin:miter;stroke-opacity:1"/>
<path class="bond-2 atom-3 atom-4" d="M 12.1,73.9 L 41.0,124.6" style="fill:none;fill-rule:evenodd;stroke:#E5E5E5;stroke-width:3.2px;stroke-linecap:butt;stroke-linejoin:miter;stroke-opacity:1"/>
<path class="bond-3 atom-4 atom-5" d="M 41.0,124.6 L 100.5,124.9" style="fill:none;fill-rule:evenodd;stroke:#000000;stroke-width:2.0px;stroke-linecap:butt;stroke-linejoin:miter;stroke-opacity:1"/>
<path class="bond-4 atom-4 atom-0" d="M 41.0,124.6 L 70.4,74.3" style="fill:none;fill-rule:evenodd;stroke:#E5E5E5;stroke-width:3.2px;stroke-linecap:butt;stroke-linejoin:miter;stroke-opacity:1"/>
<path class="bond-5 atom-5 atom-1" d="M 100.5,124.9 L 130.6,73.5" style="fill:none;fill-rule:evenodd;stroke:#000000;stroke-width:2.0px;stroke-linecap:butt;stroke-linejoin:miter;stroke-opacity:1"/>
<path d="M 97.5,124.9 L 100.5,124.9 L 102.0,122.3" style="fill:none;stroke:#000000;stroke-width:2.0px;stroke-linecap:butt;stroke-linejoin:miter;stroke-opacity:1;"/>
<path class="atom-0" d="M 67.9 71.3 L 70.3 68.8 L 67.0 68.1 L 67.6 66.4 L 70.6 67.9 L 70.1 64.6 L 71.9 64.6 L 71.4 67.9 L 74.5 66.5 L 75.0 68.1 L 71.7 68.7 L 74.1 71.3 L 72.6 72.3 L 71.0 69.2 L 69.3 72.3 L 67.9 71.3 " fill="#191919"/>
<path class="atom-2" d="M 97.9 19.9 L 100.4 17.4 L 97.1 16.7 L 97.6 15.0 L 100.6 16.5 L 100.2 13.2 L 102.0 13.2 L 101.5 16.5 L 104.6 15.1 L 105.1 16.7 L 101.8 17.3 L 104.2 19.9 L 102.7 20.9 L 101.1 17.8 L 99.4 20.9 L 97.9 19.9 " fill="#191919"/>
<path class="atom-3" d="M 8.3 70.9 L 10.8 68.4 L 7.5 67.7 L 8.0 66.0 L 11.0 67.6 L 10.6 64.3 L 12.4 64.2 L 11.9 67.6 L 15.0 66.1 L 15.5 67.7 L 12.1 68.4 L 14.5 70.9 L 13.1 72.0 L 11.4 68.8 L 9.8 72.0 L 8.3 70.9 " fill="#191919"/>
</svg>