<svg xmlns="http://www.w3.org/2000/svg" xmlns:rdkit="http://www.rdkit.org/xml" xmlns:xlink="http://www.w3.org/1999/xlink" version="1.1" baseProfile="full" xml:space="preserve" width="150px" height="150px" viewBox="0 0 150 150">
<!-- END OF HEADER -->
<rect style="opacity:1.0;fill:#FFFFFF;stroke:none" width="150.0" height="150.0" x="0.0" y="0.0"> </rect>
<ellipse cx="66.2" cy="91.3" rx="14.9" ry="14.9" class="atom-1" style="fill:#9999E5;fill-rule:evenodd;stroke:#9999E5;stroke-width:1.0px;stroke-linecap:butt;stroke-linejoin:miter;stroke-opacity:1"/>
<path class="bond-0 atom-0 atom-1" d="M 19.9,135.6 L 66.2,91.3" style="fill:none;fill-rule:evenodd;stroke:#E5E5E5;stroke-width:4.0px;stroke-linecap:butt;stroke-linejoin:miter;stroke-opacity:1"/>
<path class="bond-1 atom-1 atom-2" d="M 66.2,91.3 L 48.9,20.5" style="fill:none;fill-rule:evenodd;stroke:#E5E5E5;stroke-width:4.0px;stroke-linecap:butt;stroke-linejoin:miter;stroke-opacity:1"/>
<path class="bond-2 atom-1 atom-3" d="M 61.5,95.8 L 128.5,115.3" style="fill:none;fill-rule:evenodd;stroke:#E5E5E5;stroke-width:4.0px;stroke-linecap:butt;stroke-linejoin:miter;stroke-opacity:1"/>
<path class="bond-2 atom-1 atom-3" d="M 64.7,85.1 L 131.7,104.6" style="fill:none;fill-rule:evenodd;stroke:#E5E5E5;stroke-width:4.0px;stroke-linecap:butt;stroke-linejoin:miter;stroke-opacity:1"/>
<path d="M 63.9,93.5 L 66.2,91.3 L 65.3,87.8" style="fill:none;stroke:#E5E5E5;stroke-width:4.0px;stroke-linecap:butt;stroke-linejoin:miter;stroke-opacity:1;"/>
<path class="atom-0" d="M 8.5 140.3 L 11.6 137.2 L 7.5 136.3 L 8.1 134.2 L 11.9 136.1 L 11.4 132.0 L 13.6 132.0 L 13.0 136.1 L 16.8 134.3 L 17.5 136.3 L 13.3 137.1 L 16.3 140.3 L 14.5 141.6 L 12.4 137.7 L 10.3 141.6 L 8.5 140.3 " fill="#191919"/>
<path class="atom-2" d="M 44.6 16.8 L 47.7 13.6 L 43.6 12.8 L 44.2 10.7 L 48.0 12.6 L 47.5 8.4 L 49.7 8.4 L 49.1 12.5 L 52.9 10.8 L 53.5 12.8 L 49.4 13.6 L 52.4 16.7 L 50.5 18.0 L 48.5 14.1 L 46.4 18.0 L 44.6 16.8 " fill="#191919"/>
<path class="atom-3" d="M 133.6 109.8 L 136.6 106.6 L 132.5 105.8 L 133.2 103.7 L 136.9 105.6 L 136.4 101.5 L 138.6 101.4 L 138.0 105.6 L 141.8 103.8 L 142.5 105.8 L 138.3 106.6 L 141.3 109.8 L 139.5 111.1 L 137.4 107.1 L 135.4 111.1 L 133.6 109.8 " fill="#191919"/>
</svg>