<svg xmlns="http://www.w3.org/2000/svg" xmlns:rdkit="http://www.rdkit.org/xml" xmlns:xlink="http://www.w3.org/1999/xlink" version="1.1" baseProfile="full" xml:space="preserve" width="150px" height="150px" viewBox="0 0 150 150">
<!-- END OF HEADER -->
<rect style="opacity:1.0;fill:#FFFFFF;stroke:none" width="150.0" height="150.0" x="0.0" y="0.0"> </rect>
<ellipse cx="65.9" cy="91.1" rx="14.9" ry="14.9" class="atom-1" style="fill:#9999E5;fill-rule:evenodd;stroke:#9999E5;stroke-width:1.0px;stroke-linecap:butt;stroke-linejoin:miter;stroke-opacity:1"/>
<path class="bond-0 atom-0 atom-1" d="M 19.9,135.7 L 65.9,91.1" style="fill:none;fill-rule:evenodd;stroke:#E5E5E5;stroke-width:4.0px;stroke-linecap:butt;stroke-linejoin:miter;stroke-opacity:1"/>
<path class="bond-1 atom-1 atom-2" d="M 72.1,92.9 L 53.6,18.9" style="fill:none;fill-rule:evenodd;stroke:#E5E5E5;stroke-width:4.0px;stroke-linecap:butt;stroke-linejoin:miter;stroke-opacity:1"/>
<path class="bond-1 atom-1 atom-2" d="M 61.3,95.6 L 42.8,21.7" style="fill:none;fill-rule:evenodd;stroke:#E5E5E5;stroke-width:4.0px;stroke-linecap:butt;stroke-linejoin:miter;stroke-opacity:1"/>
<path class="bond-2 atom-1 atom-3" d="M 65.9,91.1 L 130.1,109.4" style="fill:none;fill-rule:evenodd;stroke:#E5E5E5;stroke-width:4.0px;stroke-linecap:butt;stroke-linejoin:miter;stroke-opacity:1"/>
<path d="M 63.6,93.3 L 65.9,91.1 L 69.1,92.0" style="fill:none;stroke:#E5E5E5;stroke-width:4.0px;stroke-linecap:butt;stroke-linejoin:miter;stroke-opacity:1;"/>
<path class="atom-0" d="M 8.5 140.5 L 11.6 137.4 L 7.5 136.5 L 8.1 134.4 L 11.9 136.3 L 11.4 132.2 L 13.6 132.2 L 13.0 136.3 L 16.8 134.5 L 17.5 136.5 L 13.3 137.3 L 16.3 140.5 L 14.5 141.8 L 12.4 137.9 L 10.3 141.8 L 8.5 140.5 " fill="#191919"/>
<path class="atom-2" d="M 43.9 16.6 L 46.9 13.4 L 42.8 12.6 L 43.5 10.5 L 47.2 12.4 L 46.7 8.2 L 48.9 8.2 L 48.3 12.3 L 52.2 10.5 L 52.8 12.6 L 48.6 13.3 L 51.6 16.5 L 49.8 17.8 L 47.8 13.9 L 45.7 17.8 L 43.9 16.6 " fill="#191919"/>
<path class="atom-3" d="M 133.5 109.1 L 136.6 106.0 L 132.5 105.2 L 133.2 103.0 L 136.9 104.9 L 136.4 100.8 L 138.6 100.8 L 138.0 104.9 L 141.8 103.1 L 142.5 105.2 L 138.3 105.9 L 141.3 109.1 L 139.5 110.4 L 137.4 106.5 L 135.4 110.4 L 133.5 109.1 " fill="#191919"/>
</svg>