<svg xmlns="http://www.w3.org/2000/svg" xmlns:rdkit="http://www.rdkit.org/xml" xmlns:xlink="http://www.w3.org/1999/xlink" version="1.1" baseProfile="full" xml:space="preserve" width="150px" height="150px" viewBox="0 0 150 150">
<!-- END OF HEADER -->
<rect style="opacity:1.0;fill:#FFFFFF;stroke:none" width="150.0" height="150.0" x="0.0" y="0.0"> </rect>
<ellipse cx="65.0" cy="71.6" rx="14.9" ry="14.9" class="atom-1" style="fill:#9999E5;fill-rule:evenodd;stroke:#9999E5;stroke-width:1.0px;stroke-linecap:butt;stroke-linejoin:miter;stroke-opacity:1"/>
<path class="bond-0 atom-0 atom-1" d="M 14.0,19.6 L 65.0,71.6" style="fill:none;fill-rule:evenodd;stroke:#E5E5E5;stroke-width:4.0px;stroke-linecap:butt;stroke-linejoin:miter;stroke-opacity:1"/>
<path class="bond-1 atom-1 atom-2" d="M 60.4,67.0 L 43.2,128.8" style="fill:none;fill-rule:evenodd;stroke:#E5E5E5;stroke-width:4.0px;stroke-linecap:butt;stroke-linejoin:miter;stroke-opacity:1"/>
<path class="bond-1 atom-1 atom-2" d="M 71.2,70.0 L 54.0,131.9" style="fill:none;fill-rule:evenodd;stroke:#E5E5E5;stroke-width:4.0px;stroke-linecap:butt;stroke-linejoin:miter;stroke-opacity:1"/>
<path class="bond-2 atom-1 atom-3" d="M 65.0,71.6 L 131.9,54.4" style="fill:none;fill-rule:evenodd;stroke:#E5E5E5;stroke-width:4.0px;stroke-linecap:butt;stroke-linejoin:miter;stroke-opacity:1"/>
<path d="M 62.4,69.0 L 65.0,71.6 L 68.3,70.8" style="fill:none;stroke:#E5E5E5;stroke-width:4.0px;stroke-linecap:butt;stroke-linejoin:miter;stroke-opacity:1;"/>
<path class="atom-0" d="M 8.7 15.9 L 11.8 12.7 L 7.7 11.9 L 8.3 9.8 L 12.1 11.7 L 11.6 7.5 L 13.8 7.5 L 13.2 11.7 L 17.0 9.9 L 17.7 11.9 L 13.5 12.7 L 16.5 15.9 L 14.7 17.2 L 12.6 13.2 L 10.5 17.2 L 8.7 15.9 " fill="#191919"/>
<path class="atom-2" d="M 40.9 141.2 L 44.0 138.0 L 39.9 137.2 L 40.5 135.1 L 44.3 137.0 L 43.8 132.8 L 46.0 132.8 L 45.4 137.0 L 49.2 135.2 L 49.9 137.2 L 45.7 138.0 L 48.7 141.2 L 46.9 142.5 L 44.8 138.6 L 42.7 142.5 L 40.9 141.2 " fill="#191919"/>
<path class="atom-3" d="M 133.3 50.7 L 136.4 47.5 L 132.3 46.7 L 132.9 44.5 L 136.7 46.5 L 136.2 42.3 L 138.4 42.3 L 137.8 46.4 L 141.7 44.6 L 142.3 46.7 L 138.1 47.4 L 141.1 50.6 L 139.3 51.9 L 137.2 48.0 L 135.1 51.9 L 133.3 50.7 " fill="#191919"/>
</svg>