<svg xmlns="http://www.w3.org/2000/svg" xmlns:rdkit="http://www.rdkit.org/xml" xmlns:xlink="http://www.w3.org/1999/xlink" version="1.1" baseProfile="full" xml:space="preserve" width="150px" height="150px" viewBox="0 0 150 150">
<!-- END OF HEADER -->
<rect style="opacity:1.0;fill:#FFFFFF;stroke:none" width="150.0" height="150.0" x="0.0" y="0.0"> </rect>
<ellipse cx="76.3" cy="77.9" rx="13.0" ry="13.0" class="atom-1" style="fill:#E5E533;fill-rule:evenodd;stroke:#E5E533;stroke-width:1.0px;stroke-linecap:butt;stroke-linejoin:miter;stroke-opacity:1"/>
<ellipse cx="116.7" cy="129.0" rx="13.0" ry="13.0" class="atom-2" style="fill:#9999E5;fill-rule:evenodd;stroke:#9999E5;stroke-width:1.0px;stroke-linecap:butt;stroke-linejoin:miter;stroke-opacity:1"/>
<path class="bond-0 atom-0 atom-1" d="M 104.5,20.4 L 79.8,82.3" style="fill:none;fill-rule:evenodd;stroke:#E5E5E5;stroke-width:3.5px;stroke-linecap:butt;stroke-linejoin:miter;stroke-opacity:1"/>
<path class="bond-0 atom-0 atom-1" d="M 95.4,16.8 L 70.7,78.7" style="fill:none;fill-rule:evenodd;stroke:#E5E5E5;stroke-width:3.5px;stroke-linecap:butt;stroke-linejoin:miter;stroke-opacity:1;stroke-dasharray:6,4"/>
<path class="bond-1 atom-1 atom-2" d="M 76.3,77.9 L 92.0,97.7" style="fill:none;fill-rule:evenodd;stroke:#000000;stroke-width:2.0px;stroke-linecap:butt;stroke-linejoin:miter;stroke-opacity:1"/>
<path class="bond-1 atom-1 atom-2" d="M 92.0,97.7 L 107.7,117.5" style="fill:none;fill-rule:evenodd;stroke:#FF0000;stroke-width:2.0px;stroke-linecap:butt;stroke-linejoin:miter;stroke-opacity:1"/>
<path class="bond-2 atom-1 atom-3" d="M 78.4,72.6 L 17.7,81.5" style="fill:none;fill-rule:evenodd;stroke:#E5E5E5;stroke-width:3.5px;stroke-linecap:butt;stroke-linejoin:miter;stroke-opacity:1"/>
<path class="bond-2 atom-1 atom-3" d="M 79.8,82.3 L 19.1,91.2" style="fill:none;fill-rule:evenodd;stroke:#E5E5E5;stroke-width:3.5px;stroke-linecap:butt;stroke-linejoin:miter;stroke-opacity:1;stroke-dasharray:6,4"/>
<path class="atom-0" d="M 96.9 15.3 L 99.6 12.5 L 96.0 11.8 L 96.6 9.9 L 99.9 11.6 L 99.4 8.0 L 101.4 8.0 L 100.8 11.6 L 104.2 10.0 L 104.8 11.8 L 101.1 12.5 L 103.7 15.3 L 102.1 16.4 L 100.3 13.0 L 98.5 16.4 L 96.9 15.3 " fill="#191919"/>
<path class="atom-2" d="M 108.3 129.1 Q 108.3 124.6, 110.4 122.2 Q 112.6 119.7, 116.7 119.7 Q 120.8 119.7, 123.0 122.2 Q 125.2 124.6, 125.2 129.1 Q 125.2 133.5, 123.0 136.1 Q 120.8 138.6, 116.7 138.6 Q 112.7 138.6, 110.4 136.1 Q 108.3 133.6, 108.3 129.1 M 116.7 136.5 Q 119.5 136.5, 121.0 134.7 Q 122.6 132.8, 122.6 129.1 Q 122.6 125.4, 121.0 123.6 Q 119.5 121.8, 116.7 121.8 Q 113.9 121.8, 112.4 123.6 Q 110.9 125.4, 110.9 129.1 Q 110.9 132.8, 112.4 134.7 Q 113.9 136.5, 116.7 136.5 " fill="#FF0000"/>
<path class="atom-2" d="M 128.1 119.9 L 130.6 119.9 L 130.6 127.7 L 140.0 127.7 L 140.0 119.9 L 142.5 119.9 L 142.5 138.3 L 140.0 138.3 L 140.0 129.8 L 130.6 129.8 L 130.6 138.3 L 128.1 138.3 L 128.1 119.9 " fill="#FF0000"/>
<path class="atom-3" d="M 8.4 85.2 L 11.1 82.5 L 7.5 81.8 L 8.0 79.9 L 11.4 81.6 L 10.9 78.0 L 12.8 77.9 L 12.3 81.5 L 15.7 80.0 L 16.2 81.8 L 12.6 82.4 L 15.2 85.2 L 13.6 86.4 L 11.8 82.9 L 10.0 86.4 L 8.4 85.2 " fill="#191919"/>
</svg>