<svg xmlns="http://www.w3.org/2000/svg" xmlns:rdkit="http://www.rdkit.org/xml" xmlns:xlink="http://www.w3.org/1999/xlink" version="1.1" baseProfile="full" xml:space="preserve" width="150px" height="150px" viewBox="0 0 150 150">
<!-- END OF HEADER -->
<rect style="opacity:1.0;fill:#FFFFFF;stroke:none" width="150.0" height="150.0" x="0.0" y="0.0"> </rect>
<ellipse cx="133.0" cy="85.9" rx="9.5" ry="9.5" class="atom-0" style="fill:#E5E533;fill-rule:evenodd;stroke:#E5E533;stroke-width:1.0px;stroke-linecap:butt;stroke-linejoin:miter;stroke-opacity:1"/>
<ellipse cx="56.6" cy="80.3" rx="9.5" ry="9.5" class="atom-3" style="fill:#E5E533;fill-rule:evenodd;stroke:#E5E533;stroke-width:1.0px;stroke-linecap:butt;stroke-linejoin:miter;stroke-opacity:1"/>
<ellipse cx="92.8" cy="110.9" rx="9.5" ry="9.5" class="atom-4" style="fill:#9999E5;fill-rule:evenodd;stroke:#9999E5;stroke-width:1.0px;stroke-linecap:butt;stroke-linejoin:miter;stroke-opacity:1"/>
<path class="bond-0 atom-0 atom-1" d="M 133.0,85.9 L 121.9,40.8" style="fill:none;fill-rule:evenodd;stroke:#E5E5E5;stroke-width:2.5px;stroke-linecap:butt;stroke-linejoin:miter;stroke-opacity:1"/>
<path class="bond-0 atom-0 atom-1" d="M 124.9,82.6 L 115.0,42.5" style="fill:none;fill-rule:evenodd;stroke:#E5E5E5;stroke-width:2.5px;stroke-linecap:butt;stroke-linejoin:miter;stroke-opacity:1;stroke-dasharray:6,4"/>
<path class="bond-1 atom-2 atom-3" d="M 77.4,38.7 L 59.5,82.7" style="fill:none;fill-rule:evenodd;stroke:#E5E5E5;stroke-width:2.5px;stroke-linecap:butt;stroke-linejoin:miter;stroke-opacity:1"/>
<path class="bond-1 atom-2 atom-3" d="M 70.9,36.0 L 52.4,81.4" style="fill:none;fill-rule:evenodd;stroke:#E5E5E5;stroke-width:2.5px;stroke-linecap:butt;stroke-linejoin:miter;stroke-opacity:1;stroke-dasharray:6,4"/>
<path class="bond-2 atom-3 atom-4" d="M 56.6,80.3 L 92.8,110.9" style="fill:none;fill-rule:evenodd;stroke:#000000;stroke-width:2.0px;stroke-linecap:butt;stroke-linejoin:miter;stroke-opacity:1"/>
<path class="bond-2 atom-3 atom-4" d="M 65.2,78.2 L 93.4,102.1" style="fill:none;fill-rule:evenodd;stroke:#000000;stroke-width:2.0px;stroke-linecap:butt;stroke-linejoin:miter;stroke-opacity:1;stroke-dasharray:6,4"/>
<path class="bond-3 atom-3 atom-5" d="M 56.6,80.3 L 15.4,90.5" style="fill:none;fill-rule:evenodd;stroke:#E5E5E5;stroke-width:2.5px;stroke-linecap:butt;stroke-linejoin:miter;stroke-opacity:1"/>
<path class="bond-4 atom-4 atom-0" d="M 92.8,110.9 L 133.0,85.9" style="fill:none;fill-rule:evenodd;stroke:#000000;stroke-width:2.0px;stroke-linecap:butt;stroke-linejoin:miter;stroke-opacity:1"/>
<path class="bond-4 atom-4 atom-0" d="M 93.4,102.1 L 124.9,82.6" style="fill:none;fill-rule:evenodd;stroke:#000000;stroke-width:2.0px;stroke-linecap:butt;stroke-linejoin:miter;stroke-opacity:1;stroke-dasharray:6,4"/>
<path d="M 132.8,84.8 L 133.0,85.9 L 132.0,86.5" style="fill:none;stroke:#E5E5E5;stroke-width:2.5px;stroke-linecap:butt;stroke-linejoin:miter;stroke-opacity:1;"/>
<path d="M 91.0,109.3 L 92.8,110.9 L 94.8,109.6" style="fill:none;stroke:#000000;stroke-width:2.0px;stroke-linecap:butt;stroke-linejoin:miter;stroke-opacity:1;"/>
<path class="atom-1" d="M 115.7 39.3 L 117.7 37.3 L 115.1 36.7 L 115.5 35.4 L 117.9 36.6 L 117.6 34.0 L 119.0 34.0 L 118.6 36.6 L 121.0 35.5 L 121.4 36.7 L 118.8 37.2 L 120.7 39.3 L 119.5 40.1 L 118.2 37.6 L 116.9 40.1 L 115.7 39.3 " fill="#191919"/>
<path class="atom-2" d="M 72.0 35.0 L 73.9 33.0 L 71.3 32.5 L 71.7 31.1 L 74.1 32.3 L 73.8 29.7 L 75.2 29.7 L 74.8 32.3 L 77.3 31.2 L 77.7 32.5 L 75.0 32.9 L 76.9 35.0 L 75.8 35.8 L 74.5 33.3 L 73.1 35.8 L 72.0 35.0 " fill="#191919"/>
<path class="atom-5" d="M 8.1 90.1 L 10.1 88.1 L 7.5 87.6 L 7.9 86.3 L 10.3 87.5 L 10.0 84.8 L 11.4 84.8 L 11.0 87.5 L 13.4 86.3 L 13.8 87.6 L 11.2 88.1 L 13.1 90.1 L 11.9 91.0 L 10.6 88.5 L 9.3 91.0 L 8.1 90.1 " fill="#191919"/>
</svg>