<svg xmlns="http://www.w3.org/2000/svg" xmlns:rdkit="http://www.rdkit.org/xml" xmlns:xlink="http://www.w3.org/1999/xlink" version="1.1" baseProfile="full" xml:space="preserve" width="150px" height="150px" viewBox="0 0 150 150">
<!-- END OF HEADER -->
<rect style="opacity:1.0;fill:#FFFFFF;stroke:none" width="150.0" height="150.0" x="0.0" y="0.0"> </rect>
<ellipse cx="54.4" cy="86.2" rx="8.9" ry="8.9" class="atom-1" style="fill:#E5E533;fill-rule:evenodd;stroke:#E5E533;stroke-width:1.0px;stroke-linecap:butt;stroke-linejoin:miter;stroke-opacity:1"/>
<ellipse cx="70.8" cy="45.0" rx="8.9" ry="8.9" class="atom-2" style="fill:#9999E5;fill-rule:evenodd;stroke:#9999E5;stroke-width:1.0px;stroke-linecap:butt;stroke-linejoin:miter;stroke-opacity:1"/>
<ellipse cx="114.6" cy="38.5" rx="8.9" ry="8.9" class="atom-3" style="fill:#E5E533;fill-rule:evenodd;stroke:#E5E533;stroke-width:1.0px;stroke-linecap:butt;stroke-linejoin:miter;stroke-opacity:1"/>
<path class="bond-0 atom-0 atom-1" d="M 14.9,91.9 L 54.4,86.2" style="fill:none;fill-rule:evenodd;stroke:#E5E5E5;stroke-width:2.4px;stroke-linecap:butt;stroke-linejoin:miter;stroke-opacity:1"/>
<path class="bond-1 atom-1 atom-2" d="M 54.4,86.2 L 70.8,45.0" style="fill:none;fill-rule:evenodd;stroke:#000000;stroke-width:2.0px;stroke-linecap:butt;stroke-linejoin:miter;stroke-opacity:1"/>
<path class="bond-1 atom-1 atom-2" d="M 62.0,85.1 L 75.5,51.0" style="fill:none;fill-rule:evenodd;stroke:#000000;stroke-width:2.0px;stroke-linecap:butt;stroke-linejoin:miter;stroke-opacity:1;stroke-dasharray:6,4"/>
<path class="bond-2 atom-2 atom-3" d="M 70.8,45.0 L 114.6,38.5" style="fill:none;fill-rule:evenodd;stroke:#000000;stroke-width:2.0px;stroke-linecap:butt;stroke-linejoin:miter;stroke-opacity:1"/>
<path class="bond-2 atom-2 atom-3" d="M 75.5,51.0 L 111.8,45.7" style="fill:none;fill-rule:evenodd;stroke:#000000;stroke-width:2.0px;stroke-linecap:butt;stroke-linejoin:miter;stroke-opacity:1;stroke-dasharray:6,4"/>
<path class="bond-3 atom-3 atom-4" d="M 114.6,38.5 L 137.7,67.7" style="fill:none;fill-rule:evenodd;stroke:#E5E5E5;stroke-width:2.4px;stroke-linecap:butt;stroke-linejoin:miter;stroke-opacity:1"/>
<path class="bond-3 atom-3 atom-4" d="M 111.8,45.7 L 132.5,71.9" style="fill:none;fill-rule:evenodd;stroke:#E5E5E5;stroke-width:2.4px;stroke-linecap:butt;stroke-linejoin:miter;stroke-opacity:1;stroke-dasharray:6,4"/>
<path class="bond-4 atom-5 atom-1" d="M 74.8,117.4 L 50.6,86.7" style="fill:none;fill-rule:evenodd;stroke:#E5E5E5;stroke-width:2.4px;stroke-linecap:butt;stroke-linejoin:miter;stroke-opacity:1"/>
<path class="bond-4 atom-5 atom-1" d="M 80.0,113.3 L 55.8,82.6" style="fill:none;fill-rule:evenodd;stroke:#E5E5E5;stroke-width:2.4px;stroke-linecap:butt;stroke-linejoin:miter;stroke-opacity:1;stroke-dasharray:6,4"/>
<path d="M 69.9,47.0 L 70.8,45.0 L 72.9,44.6" style="fill:none;stroke:#000000;stroke-width:2.0px;stroke-linecap:butt;stroke-linejoin:miter;stroke-opacity:1;"/>
<path d="M 113.5,38.7 L 114.6,38.5 L 115.2,39.3" style="fill:none;stroke:#000000;stroke-width:2.0px;stroke-linecap:butt;stroke-linejoin:miter;stroke-opacity:1;"/>
<path class="atom-0" d="M 8.1 91.2 L 9.9 89.3 L 7.5 88.8 L 7.9 87.5 L 10.1 88.7 L 9.8 86.2 L 11.1 86.2 L 10.8 88.7 L 13.1 87.6 L 13.4 88.8 L 11.0 89.3 L 12.7 91.2 L 11.7 91.9 L 10.4 89.6 L 9.2 91.9 L 8.1 91.2 " fill="#191919"/>
<path class="atom-4" d="M 137.2 74.0 L 139.0 72.1 L 136.6 71.6 L 136.9 70.4 L 139.2 71.5 L 138.9 69.0 L 140.2 69.0 L 139.8 71.5 L 142.1 70.4 L 142.5 71.6 L 140.0 72.1 L 141.8 74.0 L 140.7 74.8 L 139.5 72.4 L 138.2 74.8 L 137.2 74.0 " fill="#191919"/>
<path class="atom-5" d="M 79.5 119.6 L 81.3 117.7 L 78.9 117.2 L 79.3 115.9 L 81.5 117.1 L 81.2 114.6 L 82.5 114.6 L 82.2 117.0 L 84.4 116.0 L 84.8 117.2 L 82.3 117.7 L 84.1 119.6 L 83.0 120.3 L 81.8 118.0 L 80.6 120.3 L 79.5 119.6 " fill="#191919"/>
</svg>