<svg xmlns="http://www.w3.org/2000/svg" xmlns:rdkit="http://www.rdkit.org/xml" xmlns:xlink="http://www.w3.org/1999/xlink" version="1.1" baseProfile="full" xml:space="preserve" width="150px" height="150px" viewBox="0 0 150 150">
<!-- END OF HEADER -->
<rect style="opacity:1.0;fill:#FFFFFF;stroke:none" width="150.0" height="150.0" x="0.0" y="0.0"> </rect>
<ellipse cx="53.6" cy="47.3" rx="16.7" ry="16.7" class="atom-1" style="fill:#9999E5;fill-rule:evenodd;stroke:#9999E5;stroke-width:1.0px;stroke-linecap:butt;stroke-linejoin:miter;stroke-opacity:1"/>
<path class="bond-0 atom-0 atom-1" d="M 16.2,104.4 L 53.6,47.3" style="fill:none;fill-rule:evenodd;stroke:#E5E5E5;stroke-width:4.5px;stroke-linecap:butt;stroke-linejoin:miter;stroke-opacity:1"/>
<path class="bond-0 atom-0 atom-1" d="M 26.7,111.3 L 60.1,60.2" style="fill:none;fill-rule:evenodd;stroke:#E5E5E5;stroke-width:4.5px;stroke-linecap:butt;stroke-linejoin:miter;stroke-opacity:1"/>
<path class="bond-1 atom-1 atom-2" d="M 53.6,47.3 L 128.6,51.5" style="fill:none;fill-rule:evenodd;stroke:#E5E5E5;stroke-width:4.5px;stroke-linecap:butt;stroke-linejoin:miter;stroke-opacity:1"/>
<path d="M 51.7,50.2 L 53.6,47.3 L 57.3,47.5" style="fill:none;stroke:#E5E5E5;stroke-width:4.5px;stroke-linecap:butt;stroke-linejoin:miter;stroke-opacity:1;"/>
<path class="atom-0" d="M 8.6 117.9 L 12.1 114.4 L 7.5 113.5 L 8.2 111.1 L 12.4 113.2 L 11.8 108.6 L 14.3 108.6 L 13.6 113.2 L 18.0 111.2 L 18.7 113.5 L 14.0 114.3 L 17.3 117.9 L 15.3 119.4 L 13.0 115.0 L 10.7 119.4 L 8.6 117.9 " fill="#191919"/>
<path class="atom-2" d="M 132.5 49.3 L 135.9 45.8 L 131.3 44.9 L 132.0 42.5 L 136.3 44.6 L 135.7 40.0 L 138.2 40.0 L 137.5 44.6 L 141.8 42.6 L 142.5 44.9 L 137.8 45.7 L 141.2 49.3 L 139.1 50.8 L 136.8 46.4 L 134.5 50.8 L 132.5 49.3 " fill="#191919"/>
</svg>