<svg xmlns="http://www.w3.org/2000/svg" xmlns:rdkit="http://www.rdkit.org/xml" xmlns:xlink="http://www.w3.org/1999/xlink" version="1.1" baseProfile="full" xml:space="preserve" width="150px" height="150px" viewBox="0 0 150 150">
<!-- END OF HEADER -->
<rect style="opacity:1.0;fill:#FFFFFF;stroke:none" width="150.0" height="150.0" x="0.0" y="0.0"> </rect>
<ellipse cx="112.4" cy="112.3" rx="18.5" ry="18.5" class="atom-1" style="fill:#9999E5;fill-rule:evenodd;stroke:#9999E5;stroke-width:1.0px;stroke-linecap:butt;stroke-linejoin:miter;stroke-opacity:1"/>
<path class="bond-0 atom-0 atom-1" d="M 125.9,22.5 L 112.4,112.3" style="fill:none;fill-rule:evenodd;stroke:#E5E5E5;stroke-width:4.9px;stroke-linecap:butt;stroke-linejoin:miter;stroke-opacity:1"/>
<path class="bond-1 atom-1 atom-2" d="M 112.4,112.3 L 35.6,142.5" style="fill:none;fill-rule:evenodd;stroke:#E5E5E5;stroke-width:4.9px;stroke-linecap:butt;stroke-linejoin:miter;stroke-opacity:1"/>
<path class="bond-1 atom-1 atom-2" d="M 99.9,102.3 L 30.5,129.6" style="fill:none;fill-rule:evenodd;stroke:#E5E5E5;stroke-width:4.9px;stroke-linecap:butt;stroke-linejoin:miter;stroke-opacity:1"/>
<path d="M 113.1,107.8 L 112.4,112.3 L 108.6,113.8" style="fill:none;stroke:#E5E5E5;stroke-width:4.9px;stroke-linecap:butt;stroke-linejoin:miter;stroke-opacity:1;"/>
<path class="atom-0" d="M 121.2 17.9 L 125.1 14.0 L 120.0 12.9 L 120.8 10.3 L 125.5 12.7 L 124.8 7.5 L 127.6 7.5 L 126.8 12.6 L 131.6 10.4 L 132.4 12.9 L 127.2 13.9 L 130.9 17.9 L 128.6 19.5 L 126.1 14.6 L 123.5 19.5 L 121.2 17.9 " fill="#191919"/>
<path class="atom-2" d="M 18.9 136.8 L 22.7 132.8 L 17.6 131.8 L 18.4 129.2 L 23.1 131.5 L 22.4 126.4 L 25.2 126.4 L 24.4 131.5 L 29.2 129.3 L 30.0 131.8 L 24.8 132.8 L 28.5 136.7 L 26.3 138.3 L 23.7 133.5 L 21.1 138.3 L 18.9 136.8 " fill="#191919"/>
</svg>