<svg xmlns="http://www.w3.org/2000/svg" xmlns:rdkit="http://www.rdkit.org/xml" xmlns:xlink="http://www.w3.org/1999/xlink" version="1.1" baseProfile="full" xml:space="preserve" width="150px" height="150px" viewBox="0 0 150 150">
<!-- END OF HEADER -->
<rect style="opacity:1.0;fill:#FFFFFF;stroke:none" width="150.0" height="150.0" x="0.0" y="0.0"> </rect>
<ellipse cx="50.7" cy="111.5" rx="17.2" ry="17.2" class="atom-1" style="fill:#9999E5;fill-rule:evenodd;stroke:#9999E5;stroke-width:1.0px;stroke-linecap:butt;stroke-linejoin:miter;stroke-opacity:1"/>
<path class="bond-0 atom-0 atom-1" d="M 128.1,111.5 L 50.7,111.5" style="fill:none;fill-rule:evenodd;stroke:#E5E5E5;stroke-width:4.6px;stroke-linecap:butt;stroke-linejoin:miter;stroke-opacity:1"/>
<path class="bond-1 atom-1 atom-2" d="M 50.7,111.5 L 8.6,38.5" style="fill:none;fill-rule:evenodd;stroke:#E5E5E5;stroke-width:4.6px;stroke-linecap:butt;stroke-linejoin:miter;stroke-opacity:1"/>
<path class="bond-1 atom-1 atom-2" d="M 58.1,98.6 L 19.8,32.1" style="fill:none;fill-rule:evenodd;stroke:#E5E5E5;stroke-width:4.6px;stroke-linecap:butt;stroke-linejoin:miter;stroke-opacity:1"/>
<path d="M 54.6,111.5 L 50.7,111.5 L 48.6,107.8" style="fill:none;stroke:#E5E5E5;stroke-width:4.6px;stroke-linecap:butt;stroke-linejoin:miter;stroke-opacity:1;"/>
<path class="atom-0" d="M 132.1 108.7 L 135.7 105.1 L 131.0 104.1 L 131.7 101.7 L 136.1 103.9 L 135.4 99.1 L 138.0 99.1 L 137.3 103.9 L 141.7 101.8 L 142.5 104.1 L 137.7 105.0 L 141.1 108.7 L 139.0 110.2 L 136.6 105.7 L 134.2 110.2 L 132.1 108.7 " fill="#191919"/>
<path class="atom-2" d="M 8.7 31.0 L 12.2 27.4 L 7.5 26.4 L 8.2 23.9 L 12.6 26.2 L 12.0 21.4 L 14.6 21.3 L 13.8 26.1 L 18.3 24.1 L 19.0 26.4 L 14.2 27.3 L 17.7 31.0 L 15.6 32.5 L 13.2 27.9 L 10.8 32.5 L 8.7 31.0 " fill="#191919"/>
</svg>