<svg xmlns="http://www.w3.org/2000/svg" xmlns:rdkit="http://www.rdkit.org/xml" xmlns:xlink="http://www.w3.org/1999/xlink" version="1.1" baseProfile="full" xml:space="preserve" width="150px" height="150px" viewBox="0 0 150 150">
<!-- END OF HEADER -->
<rect style="opacity:1.0;fill:#FFFFFF;stroke:none" width="150.0" height="150.0" x="0.0" y="0.0"> </rect>
<ellipse cx="104.8" cy="115.5" rx="18.3" ry="18.3" class="atom-1" style="fill:#9999E5;fill-rule:evenodd;stroke:#9999E5;stroke-width:1.0px;stroke-linecap:butt;stroke-linejoin:miter;stroke-opacity:1"/>
<path class="bond-0 atom-0 atom-1" d="M 141.8,33.9 L 104.8,115.5" style="fill:none;fill-rule:evenodd;stroke:#E5E5E5;stroke-width:4.9px;stroke-linecap:butt;stroke-linejoin:miter;stroke-opacity:1"/>
<path class="bond-0 atom-0 atom-1" d="M 129.3,28.2 L 95.5,102.6" style="fill:none;fill-rule:evenodd;stroke:#E5E5E5;stroke-width:4.9px;stroke-linecap:butt;stroke-linejoin:miter;stroke-opacity:1"/>
<path class="bond-1 atom-1 atom-2" d="M 104.8,115.5 L 22.8,123.5" style="fill:none;fill-rule:evenodd;stroke:#E5E5E5;stroke-width:4.9px;stroke-linecap:butt;stroke-linejoin:miter;stroke-opacity:1"/>
<path d="M 106.6,111.4 L 104.8,115.5 L 100.7,115.9" style="fill:none;stroke:#E5E5E5;stroke-width:4.9px;stroke-linecap:butt;stroke-linejoin:miter;stroke-opacity:1;"/>
<path class="atom-0" d="M 131.5 26.4 L 135.3 22.6 L 130.2 21.5 L 131.0 18.9 L 135.7 21.3 L 135.0 16.2 L 137.7 16.2 L 137.0 21.2 L 141.7 19.1 L 142.5 21.5 L 137.4 22.5 L 141.0 26.4 L 138.8 28.0 L 136.3 23.2 L 133.7 28.0 L 131.5 26.4 " fill="#191919"/>
<path class="atom-2" d="M 8.7 121.5 L 12.6 117.6 L 7.5 116.6 L 8.3 114.0 L 12.9 116.4 L 12.3 111.3 L 15.0 111.2 L 14.2 116.3 L 19.0 114.1 L 19.8 116.6 L 14.6 117.6 L 18.3 121.5 L 16.1 123.1 L 13.5 118.3 L 11.0 123.1 L 8.7 121.5 " fill="#191919"/>
</svg>