<svg xmlns="http://www.w3.org/2000/svg" xmlns:rdkit="http://www.rdkit.org/xml" xmlns:xlink="http://www.w3.org/1999/xlink" version="1.1" baseProfile="full" xml:space="preserve" width="150px" height="150px" viewBox="0 0 150 150">
<!-- END OF HEADER -->
<rect style="opacity:1.0;fill:#FFFFFF;stroke:none" width="150.0" height="150.0" x="0.0" y="0.0"> </rect>
<ellipse cx="71.0" cy="81.4" rx="11.9" ry="11.9" class="atom-1" style="fill:#9999E5;fill-rule:evenodd;stroke:#9999E5;stroke-width:1.0px;stroke-linecap:butt;stroke-linejoin:miter;stroke-opacity:1"/>
<ellipse cx="130.6" cy="81.0" rx="11.9" ry="11.9" class="atom-3" style="fill:#CCCCCC;fill-rule:evenodd;stroke:#CCCCCC;stroke-width:1.0px;stroke-linecap:butt;stroke-linejoin:miter;stroke-opacity:1"/>
<ellipse cx="41.0" cy="30.0" rx="11.9" ry="11.9" class="atom-5" style="fill:#CCCCCC;fill-rule:evenodd;stroke:#CCCCCC;stroke-width:1.0px;stroke-linecap:butt;stroke-linejoin:miter;stroke-opacity:1"/>
<path class="bond-0 atom-0 atom-1" d="M 35.2,105.9 L 71.0,81.4" style="fill:none;fill-rule:evenodd;stroke:#000000;stroke-width:2.0px;stroke-linecap:butt;stroke-linejoin:miter;stroke-opacity:1"/>
<path class="bond-1 atom-1 atom-2" d="M 71.0,81.4 L 68.3,124.7" style="fill:none;fill-rule:evenodd;stroke:#000000;stroke-width:2.0px;stroke-linecap:butt;stroke-linejoin:miter;stroke-opacity:1"/>
<path class="bond-2 atom-1 atom-3" d="M 71.0,81.4 L 130.6,81.0" style="fill:none;fill-rule:evenodd;stroke:#000000;stroke-width:2.0px;stroke-linecap:butt;stroke-linejoin:miter;stroke-opacity:1"/>
<path class="bond-3 atom-3 atom-4" d="M 130.6,81.0 L 101.1,30.6" style="fill:none;fill-rule:evenodd;stroke:#E5E5E5;stroke-width:3.2px;stroke-linecap:butt;stroke-linejoin:miter;stroke-opacity:1"/>
<path class="bond-4 atom-4 atom-5" d="M 94.7,29.7 L 41.0,30.0" style="fill:none;fill-rule:evenodd;stroke:#E5E5E5;stroke-width:3.2px;stroke-linecap:butt;stroke-linejoin:miter;stroke-opacity:1"/>
<path class="bond-5 atom-5 atom-6" d="M 41.0,30.0 L 17.3,71.5" style="fill:none;fill-rule:evenodd;stroke:#E5E5E5;stroke-width:3.2px;stroke-linecap:butt;stroke-linejoin:miter;stroke-opacity:1"/>
<path class="bond-6 atom-5 atom-1" d="M 41.0,30.0 L 71.0,81.4" style="fill:none;fill-rule:evenodd;stroke:#000000;stroke-width:2.0px;stroke-linecap:butt;stroke-linejoin:miter;stroke-opacity:1"/>
<path class="bond-7 atom-7 atom-3" d="M 106.9,122.6 L 130.6,81.0" style="fill:none;fill-rule:evenodd;stroke:#E5E5E5;stroke-width:3.2px;stroke-linecap:butt;stroke-linejoin:miter;stroke-opacity:1"/>
<path class="atom-4" d="M 97.3 27.8 L 99.8 25.2 L 96.5 24.6 L 97.0 22.9 L 100.1 24.4 L 99.6 21.1 L 101.4 21.1 L 100.9 24.4 L 104.0 22.9 L 104.5 24.6 L 101.2 25.2 L 103.6 27.7 L 102.1 28.8 L 100.5 25.6 L 98.8 28.8 L 97.3 27.8 " fill="#191919"/>
<path class="atom-6" d="M 8.3 79.8 L 10.8 77.3 L 7.5 76.7 L 8.0 75.0 L 11.0 76.5 L 10.6 73.2 L 12.4 73.2 L 11.9 76.5 L 15.0 75.0 L 15.5 76.7 L 12.1 77.3 L 14.5 79.8 L 13.1 80.9 L 11.4 77.7 L 9.8 80.9 L 8.3 79.8 " fill="#191919"/>
<path class="atom-7" d="M 97.9 130.9 L 100.4 128.4 L 97.1 127.7 L 97.6 126.0 L 100.6 127.5 L 100.2 124.2 L 102.0 124.2 L 101.5 127.5 L 104.6 126.1 L 105.1 127.7 L 101.8 128.3 L 104.2 130.9 L 102.7 131.9 L 101.1 128.8 L 99.4 131.9 L 97.9 130.9 " fill="#191919"/>
</svg>