<svg xmlns="http://www.w3.org/2000/svg" xmlns:rdkit="http://www.rdkit.org/xml" xmlns:xlink="http://www.w3.org/1999/xlink" version="1.1" baseProfile="full" xml:space="preserve" width="150px" height="150px" viewBox="0 0 150 150">
<!-- END OF HEADER -->
<rect style="opacity:1.0;fill:#FFFFFF;stroke:none" width="150.0" height="150.0" x="0.0" y="0.0"> </rect>
<ellipse cx="57.3" cy="59.0" rx="16.7" ry="16.7" class="atom-1" style="fill:#9999E5;fill-rule:evenodd;stroke:#9999E5;stroke-width:1.0px;stroke-linecap:butt;stroke-linejoin:miter;stroke-opacity:1"/>
<path class="bond-0 atom-0 atom-1" d="M 21.4,116.2 L 57.3,59.0" style="fill:none;fill-rule:evenodd;stroke:#E5E5E5;stroke-width:4.4px;stroke-linecap:butt;stroke-linejoin:miter;stroke-opacity:1"/>
<path class="bond-1 atom-1 atom-2" d="M 57.3,59.0 L 130.7,29.5" style="fill:none;fill-rule:evenodd;stroke:#E5E5E5;stroke-width:4.4px;stroke-linecap:butt;stroke-linejoin:miter;stroke-opacity:1"/>
<path class="bond-1 atom-1 atom-2" d="M 65.8,69.0 L 135.4,41.0" style="fill:none;fill-rule:evenodd;stroke:#E5E5E5;stroke-width:4.4px;stroke-linecap:butt;stroke-linejoin:miter;stroke-opacity:1"/>
<path d="M 55.5,61.8 L 57.3,59.0 L 61.0,57.5" style="fill:none;stroke:#E5E5E5;stroke-width:4.4px;stroke-linecap:butt;stroke-linejoin:miter;stroke-opacity:1;"/>
<path class="atom-0" d="M 8.6 126.9 L 12.1 123.3 L 7.5 122.4 L 8.2 120.0 L 12.4 122.2 L 11.8 117.5 L 14.3 117.5 L 13.6 122.1 L 17.9 120.1 L 18.7 122.4 L 14.0 123.3 L 17.3 126.8 L 15.3 128.3 L 13.0 123.9 L 10.7 128.3 L 8.6 126.9 " fill="#191919"/>
<path class="atom-2" d="M 132.5 31.1 L 135.9 27.5 L 131.3 26.6 L 132.0 24.2 L 136.3 26.4 L 135.7 21.7 L 138.2 21.7 L 137.5 26.3 L 141.8 24.3 L 142.5 26.6 L 137.8 27.5 L 141.2 31.0 L 139.1 32.5 L 136.8 28.1 L 134.5 32.5 L 132.5 31.1 " fill="#191919"/>
</svg>