<svg xmlns="http://www.w3.org/2000/svg" xmlns:rdkit="http://www.rdkit.org/xml" xmlns:xlink="http://www.w3.org/1999/xlink" version="1.1" baseProfile="full" xml:space="preserve" width="150px" height="150px" viewBox="0 0 150 150">
<!-- END OF HEADER -->
<rect style="opacity:1.0;fill:#FFFFFF;stroke:none" width="150.0" height="150.0" x="0.0" y="0.0"> </rect>
<ellipse cx="60.3" cy="104.7" rx="15.9" ry="15.9" class="atom-1" style="fill:#9999E5;fill-rule:evenodd;stroke:#9999E5;stroke-width:1.0px;stroke-linecap:butt;stroke-linejoin:miter;stroke-opacity:1"/>
<path class="bond-0 atom-0 atom-1" d="M 130.6,91.2 L 60.3,104.7" style="fill:none;fill-rule:evenodd;stroke:#E5E5E5;stroke-width:4.2px;stroke-linecap:butt;stroke-linejoin:miter;stroke-opacity:1"/>
<path class="bond-0 atom-0 atom-1" d="M 128.4,79.5 L 64.8,91.7" style="fill:none;fill-rule:evenodd;stroke:#E5E5E5;stroke-width:4.2px;stroke-linecap:butt;stroke-linejoin:miter;stroke-opacity:1;stroke-dasharray:6,4"/>
<path class="bond-1 atom-1 atom-2" d="M 60.3,104.7 L 9.6,46.2" style="fill:none;fill-rule:evenodd;stroke:#E5E5E5;stroke-width:4.2px;stroke-linecap:butt;stroke-linejoin:miter;stroke-opacity:1"/>
<path class="bond-1 atom-1 atom-2" d="M 64.8,91.7 L 18.6,38.4" style="fill:none;fill-rule:evenodd;stroke:#E5E5E5;stroke-width:4.2px;stroke-linecap:butt;stroke-linejoin:miter;stroke-opacity:1;stroke-dasharray:6,4"/>
<path d="M 63.8,104.1 L 60.3,104.7 L 57.8,101.8" style="fill:none;stroke:#E5E5E5;stroke-width:4.2px;stroke-linecap:butt;stroke-linejoin:miter;stroke-opacity:1;"/>
<path class="atom-0" d="M 132.9 81.4 L 136.2 78.0 L 131.9 77.1 L 132.5 74.9 L 136.6 76.9 L 136.0 72.5 L 138.4 72.4 L 137.7 76.9 L 141.8 75.0 L 142.5 77.1 L 138.1 77.9 L 141.2 81.3 L 139.3 82.7 L 137.1 78.5 L 134.9 82.7 L 132.9 81.4 " fill="#191919"/>
<path class="atom-2" d="M 8.6 38.3 L 11.9 34.9 L 7.5 34.0 L 8.2 31.8 L 12.2 33.8 L 11.6 29.4 L 14.0 29.4 L 13.3 33.8 L 17.4 31.9 L 18.1 34.0 L 13.7 34.9 L 16.9 38.3 L 14.9 39.7 L 12.7 35.5 L 10.5 39.7 L 8.6 38.3 " fill="#191919"/>
</svg>