<svg xmlns="http://www.w3.org/2000/svg" xmlns:rdkit="http://www.rdkit.org/xml" xmlns:xlink="http://www.w3.org/1999/xlink" version="1.1" baseProfile="full" xml:space="preserve" width="150px" height="150px" viewBox="0 0 150 150">
<!-- END OF HEADER -->
<rect style="opacity:1.0;fill:#FFFFFF;stroke:none" width="150.0" height="150.0" x="0.0" y="0.0"> </rect>
<ellipse cx="75.8" cy="98.1" rx="14.5" ry="14.5" class="atom-1" style="fill:#9999E5;fill-rule:evenodd;stroke:#9999E5;stroke-width:1.0px;stroke-linecap:butt;stroke-linejoin:miter;stroke-opacity:1"/>
<path class="bond-0 atom-0 atom-1" d="M 19.6,129.0 L 75.8,98.1" style="fill:none;fill-rule:evenodd;stroke:#E5E5E5;stroke-width:3.9px;stroke-linecap:butt;stroke-linejoin:miter;stroke-opacity:1"/>
<path class="bond-1 atom-1 atom-2" d="M 81.1,101.4 L 82.7,27.3" style="fill:none;fill-rule:evenodd;stroke:#E5E5E5;stroke-width:3.9px;stroke-linecap:butt;stroke-linejoin:miter;stroke-opacity:1"/>
<path class="bond-1 atom-1 atom-2" d="M 70.3,101.2 L 71.9,27.0" style="fill:none;fill-rule:evenodd;stroke:#E5E5E5;stroke-width:3.9px;stroke-linecap:butt;stroke-linejoin:miter;stroke-opacity:1"/>
<path class="bond-2 atom-1 atom-3" d="M 75.8,98.1 L 130.4,131.3" style="fill:none;fill-rule:evenodd;stroke:#E5E5E5;stroke-width:3.9px;stroke-linecap:butt;stroke-linejoin:miter;stroke-opacity:1"/>
<path d="M 73.0,99.7 L 75.8,98.1 L 78.5,99.8" style="fill:none;stroke:#E5E5E5;stroke-width:3.9px;stroke-linecap:butt;stroke-linejoin:miter;stroke-opacity:1;"/>
<path class="atom-0" d="M 8.5 130.7 L 11.5 127.6 L 7.5 126.8 L 8.1 124.8 L 11.8 126.6 L 11.3 122.6 L 13.4 122.6 L 12.8 126.6 L 16.6 124.8 L 17.2 126.8 L 13.1 127.6 L 16.0 130.7 L 14.3 131.9 L 12.3 128.1 L 10.2 131.9 L 8.5 130.7 " fill="#191919"/>
<path class="atom-2" d="M 73.5 23.5 L 76.5 20.4 L 72.5 19.6 L 73.1 17.6 L 76.8 19.4 L 76.2 15.4 L 78.4 15.4 L 77.8 19.4 L 81.5 17.7 L 82.2 19.6 L 78.1 20.4 L 81.0 23.5 L 79.2 24.8 L 77.3 20.9 L 75.2 24.8 L 73.5 23.5 " fill="#191919"/>
<path class="atom-3" d="M 133.8 133.4 L 136.8 130.3 L 132.8 129.5 L 133.4 127.4 L 137.1 129.3 L 136.6 125.3 L 138.7 125.2 L 138.1 129.3 L 141.9 127.5 L 142.5 129.5 L 138.4 130.2 L 141.3 133.3 L 139.6 134.6 L 137.6 130.8 L 135.6 134.6 L 133.8 133.4 " fill="#191919"/>
</svg>