<svg xmlns="http://www.w3.org/2000/svg" xmlns:rdkit="http://www.rdkit.org/xml" xmlns:xlink="http://www.w3.org/1999/xlink" version="1.1" baseProfile="full" xml:space="preserve" width="150px" height="150px" viewBox="0 0 150 150">
<!-- END OF HEADER -->
<rect style="opacity:1.0;fill:#FFFFFF;stroke:none" width="150.0" height="150.0" x="0.0" y="0.0"> </rect>
<ellipse cx="54.3" cy="95.8" rx="9.3" ry="9.3" class="atom-1" style="fill:#E5E533;fill-rule:evenodd;stroke:#E5E533;stroke-width:1.0px;stroke-linecap:butt;stroke-linejoin:miter;stroke-opacity:1"/>
<ellipse cx="62.5" cy="50.0" rx="9.3" ry="9.3" class="atom-2" style="fill:#9999E5;fill-rule:evenodd;stroke:#9999E5;stroke-width:1.0px;stroke-linecap:butt;stroke-linejoin:miter;stroke-opacity:1"/>
<ellipse cx="106.1" cy="34.3" rx="9.3" ry="9.3" class="atom-3" style="fill:#E5E533;fill-rule:evenodd;stroke:#E5E533;stroke-width:1.0px;stroke-linecap:butt;stroke-linejoin:miter;stroke-opacity:1"/>
<path class="bond-0 atom-0 atom-1" d="M 15.3,109.9 L 54.3,95.8" style="fill:none;fill-rule:evenodd;stroke:#E5E5E5;stroke-width:2.5px;stroke-linecap:butt;stroke-linejoin:miter;stroke-opacity:1"/>
<path class="bond-1 atom-1 atom-2" d="M 54.3,95.8 L 62.5,50.0" style="fill:none;fill-rule:evenodd;stroke:#000000;stroke-width:2.0px;stroke-linecap:butt;stroke-linejoin:miter;stroke-opacity:1"/>
<path class="bond-1 atom-1 atom-2" d="M 61.8,93.0 L 68.6,55.2" style="fill:none;fill-rule:evenodd;stroke:#000000;stroke-width:2.0px;stroke-linecap:butt;stroke-linejoin:miter;stroke-opacity:1;stroke-dasharray:6,4"/>
<path class="bond-2 atom-2 atom-3" d="M 62.5,50.0 L 106.1,34.3" style="fill:none;fill-rule:evenodd;stroke:#000000;stroke-width:2.0px;stroke-linecap:butt;stroke-linejoin:miter;stroke-opacity:1"/>
<path class="bond-2 atom-2 atom-3" d="M 68.6,55.2 L 104.7,42.2" style="fill:none;fill-rule:evenodd;stroke:#000000;stroke-width:2.0px;stroke-linecap:butt;stroke-linejoin:miter;stroke-opacity:1;stroke-dasharray:6,4"/>
<path class="bond-3 atom-3 atom-4" d="M 106.1,34.3 L 137.0,60.3" style="fill:none;fill-rule:evenodd;stroke:#E5E5E5;stroke-width:2.5px;stroke-linecap:butt;stroke-linejoin:miter;stroke-opacity:1"/>
<path class="bond-3 atom-3 atom-4" d="M 104.7,42.2 L 132.5,65.6" style="fill:none;fill-rule:evenodd;stroke:#E5E5E5;stroke-width:2.5px;stroke-linecap:butt;stroke-linejoin:miter;stroke-opacity:1;stroke-dasharray:6,4"/>
<path class="bond-4 atom-5 atom-1" d="M 82.9,124.4 L 50.5,97.1" style="fill:none;fill-rule:evenodd;stroke:#E5E5E5;stroke-width:2.5px;stroke-linecap:butt;stroke-linejoin:miter;stroke-opacity:1"/>
<path class="bond-4 atom-5 atom-1" d="M 87.4,119.1 L 55.0,91.8" style="fill:none;fill-rule:evenodd;stroke:#E5E5E5;stroke-width:2.5px;stroke-linecap:butt;stroke-linejoin:miter;stroke-opacity:1;stroke-dasharray:6,4"/>
<path d="M 62.0,52.3 L 62.5,50.0 L 64.6,49.3" style="fill:none;stroke:#000000;stroke-width:2.0px;stroke-linecap:butt;stroke-linejoin:miter;stroke-opacity:1;"/>
<path d="M 105.0,34.7 L 106.1,34.3 L 106.9,34.9" style="fill:none;stroke:#000000;stroke-width:2.0px;stroke-linecap:butt;stroke-linejoin:miter;stroke-opacity:1;"/>
<path class="atom-0" d="M 8.1 110.1 L 10.1 108.1 L 7.5 107.6 L 7.9 106.3 L 10.2 107.5 L 9.9 104.9 L 11.3 104.9 L 10.9 107.4 L 13.3 106.3 L 13.7 107.6 L 11.1 108.1 L 13.0 110.1 L 11.8 110.9 L 10.6 108.4 L 9.3 110.9 L 8.1 110.1 " fill="#191919"/>
<path class="atom-4" d="M 136.9 65.4 L 138.8 63.4 L 136.3 62.9 L 136.7 61.6 L 139.0 62.8 L 138.7 60.2 L 140.1 60.2 L 139.7 62.8 L 142.1 61.6 L 142.5 62.9 L 139.9 63.4 L 141.8 65.4 L 140.6 66.2 L 139.3 63.7 L 138.0 66.2 L 136.9 65.4 " fill="#191919"/>
<path class="atom-5" d="M 87.3 124.2 L 89.2 122.3 L 86.7 121.7 L 87.1 120.4 L 89.4 121.6 L 89.1 119.0 L 90.5 119.0 L 90.1 121.6 L 92.5 120.5 L 92.9 121.7 L 90.3 122.2 L 92.2 124.2 L 91.0 125.0 L 89.7 122.6 L 88.4 125.0 L 87.3 124.2 " fill="#191919"/>
</svg>