<svg xmlns="http://www.w3.org/2000/svg" xmlns:rdkit="http://www.rdkit.org/xml" xmlns:xlink="http://www.w3.org/1999/xlink" version="1.1" baseProfile="full" xml:space="preserve" width="150px" height="150px" viewBox="0 0 150 150">
<!-- END OF HEADER -->
<rect style="opacity:1.0;fill:#FFFFFF;stroke:none" width="150.0" height="150.0" x="0.0" y="0.0"> </rect>
<ellipse cx="75.2" cy="76.7" rx="8.1" ry="8.1" class="atom-3" style="fill:#9999E5;fill-rule:evenodd;stroke:#9999E5;stroke-width:1.0px;stroke-linecap:butt;stroke-linejoin:miter;stroke-opacity:1"/>
<ellipse cx="90.1" cy="39.2" rx="8.1" ry="8.1" class="atom-4" style="fill:#E5E533;fill-rule:evenodd;stroke:#E5E533;stroke-width:1.0px;stroke-linecap:butt;stroke-linejoin:miter;stroke-opacity:1"/>
<ellipse cx="100.3" cy="108.4" rx="8.1" ry="8.1" class="atom-7" style="fill:#E5E533;fill-rule:evenodd;stroke:#E5E533;stroke-width:1.0px;stroke-linecap:butt;stroke-linejoin:miter;stroke-opacity:1"/>
<path class="bond-0 atom-0 atom-1" d="M 10.8,51.6 L 35.2,82.5" style="fill:none;fill-rule:evenodd;stroke:#E5E5E5;stroke-width:2.2px;stroke-linecap:butt;stroke-linejoin:miter;stroke-opacity:1"/>
<path class="bond-1 atom-1 atom-2" d="M 35.2,82.5 L 23.2,112.9" style="fill:none;fill-rule:evenodd;stroke:#E5E5E5;stroke-width:2.2px;stroke-linecap:butt;stroke-linejoin:miter;stroke-opacity:1"/>
<path class="bond-2 atom-1 atom-3" d="M 35.2,82.5 L 75.2,76.7" style="fill:none;fill-rule:evenodd;stroke:#000000;stroke-width:2.0px;stroke-linecap:butt;stroke-linejoin:miter;stroke-opacity:1"/>
<path class="bond-3 atom-3 atom-4" d="M 75.2,76.7 L 90.1,39.2" style="fill:none;fill-rule:evenodd;stroke:#000000;stroke-width:2.0px;stroke-linecap:butt;stroke-linejoin:miter;stroke-opacity:1"/>
<path class="bond-3 atom-3 atom-4" d="M 82.1,75.7 L 94.5,44.7" style="fill:none;fill-rule:evenodd;stroke:#000000;stroke-width:2.0px;stroke-linecap:butt;stroke-linejoin:miter;stroke-opacity:1;stroke-dasharray:6,4"/>
<path class="bond-4 atom-4 atom-5" d="M 90.1,39.2 L 126.1,33.9" style="fill:none;fill-rule:evenodd;stroke:#E5E5E5;stroke-width:2.2px;stroke-linecap:butt;stroke-linejoin:miter;stroke-opacity:1"/>
<path class="bond-4 atom-4 atom-5" d="M 94.5,44.7 L 127.0,39.9" style="fill:none;fill-rule:evenodd;stroke:#E5E5E5;stroke-width:2.2px;stroke-linecap:butt;stroke-linejoin:miter;stroke-opacity:1;stroke-dasharray:6,4"/>
<path class="bond-5 atom-6 atom-7" d="M 136.2,103.1 L 100.3,108.4" style="fill:none;fill-rule:evenodd;stroke:#E5E5E5;stroke-width:2.2px;stroke-linecap:butt;stroke-linejoin:miter;stroke-opacity:1"/>
<path class="bond-5 atom-6 atom-7" d="M 135.3,97.1 L 102.8,101.9" style="fill:none;fill-rule:evenodd;stroke:#E5E5E5;stroke-width:2.2px;stroke-linecap:butt;stroke-linejoin:miter;stroke-opacity:1;stroke-dasharray:6,4"/>
<path class="bond-6 atom-7 atom-3" d="M 100.3,108.4 L 75.2,76.7" style="fill:none;fill-rule:evenodd;stroke:#000000;stroke-width:2.0px;stroke-linecap:butt;stroke-linejoin:miter;stroke-opacity:1"/>
<path class="bond-6 atom-7 atom-3" d="M 102.8,101.9 L 82.1,75.7" style="fill:none;fill-rule:evenodd;stroke:#000000;stroke-width:2.0px;stroke-linecap:butt;stroke-linejoin:miter;stroke-opacity:1;stroke-dasharray:6,4"/>
<path d="M 89.8,40.1 L 90.1,39.2 L 91.0,39.0" style="fill:none;stroke:#000000;stroke-width:2.0px;stroke-linecap:butt;stroke-linejoin:miter;stroke-opacity:1;"/>
<path d="M 101.2,108.3 L 100.3,108.4 L 99.6,107.6" style="fill:none;stroke:#E5E5E5;stroke-width:2.2px;stroke-linecap:butt;stroke-linejoin:miter;stroke-opacity:1;"/>
<path class="atom-0" d="M 8.0 49.6 L 9.7 47.9 L 7.5 47.4 L 7.8 46.3 L 9.9 47.3 L 9.6 45.0 L 10.8 45.0 L 10.5 47.3 L 12.6 46.3 L 12.9 47.4 L 10.7 47.8 L 12.3 49.6 L 11.3 50.3 L 10.2 48.1 L 9.0 50.3 L 8.0 49.6 " fill="#191919"/>
<path class="atom-2" d="M 18.2 118.8 L 19.8 117.1 L 17.6 116.6 L 18.0 115.5 L 20.0 116.5 L 19.7 114.3 L 20.9 114.3 L 20.6 116.5 L 22.7 115.5 L 23.0 116.6 L 20.8 117.1 L 22.4 118.8 L 21.4 119.5 L 20.3 117.4 L 19.2 119.5 L 18.2 118.8 " fill="#191919"/>
<path class="atom-5" d="M 128.4 35.0 L 130.1 33.3 L 127.8 32.9 L 128.2 31.7 L 130.2 32.8 L 129.9 30.5 L 131.2 30.5 L 130.8 32.8 L 132.9 31.8 L 133.3 32.9 L 131.0 33.3 L 132.6 35.0 L 131.6 35.7 L 130.5 33.6 L 129.4 35.7 L 128.4 35.0 " fill="#191919"/>
<path class="atom-6" d="M 137.6 98.3 L 139.3 96.6 L 137.1 96.1 L 137.4 95.0 L 139.5 96.0 L 139.2 93.8 L 140.4 93.7 L 140.1 96.0 L 142.1 95.0 L 142.5 96.1 L 140.2 96.5 L 141.9 98.3 L 140.9 99.0 L 139.8 96.8 L 138.6 99.0 L 137.6 98.3 " fill="#191919"/>
</svg>