<svg xmlns="http://www.w3.org/2000/svg" xmlns:rdkit="http://www.rdkit.org/xml" xmlns:xlink="http://www.w3.org/1999/xlink" version="1.1" baseProfile="full" xml:space="preserve" width="150px" height="150px" viewBox="0 0 150 150">
<!-- END OF HEADER -->
<rect style="opacity:1.0;fill:#FFFFFF;stroke:none" width="150.0" height="150.0" x="0.0" y="0.0"> </rect>
<ellipse cx="54.3" cy="90.4" rx="9.0" ry="9.0" class="atom-1" style="fill:#E5E533;fill-rule:evenodd;stroke:#E5E533;stroke-width:1.0px;stroke-linecap:butt;stroke-linejoin:miter;stroke-opacity:1"/>
<ellipse cx="67.0" cy="47.2" rx="9.0" ry="9.0" class="atom-2" style="fill:#9999E5;fill-rule:evenodd;stroke:#9999E5;stroke-width:1.0px;stroke-linecap:butt;stroke-linejoin:miter;stroke-opacity:1"/>
<ellipse cx="110.8" cy="36.6" rx="9.0" ry="9.0" class="atom-3" style="fill:#E5E533;fill-rule:evenodd;stroke:#E5E533;stroke-width:1.0px;stroke-linecap:butt;stroke-linejoin:miter;stroke-opacity:1"/>
<path class="bond-0 atom-0 atom-1" d="M 15.0,99.9 L 54.3,90.4" style="fill:none;fill-rule:evenodd;stroke:#E5E5E5;stroke-width:2.4px;stroke-linecap:butt;stroke-linejoin:miter;stroke-opacity:1"/>
<path class="bond-1 atom-1 atom-2" d="M 54.3,90.4 L 67.0,47.2" style="fill:none;fill-rule:evenodd;stroke:#000000;stroke-width:2.0px;stroke-linecap:butt;stroke-linejoin:miter;stroke-opacity:1"/>
<path class="bond-1 atom-1 atom-2" d="M 61.9,88.6 L 72.4,52.9" style="fill:none;fill-rule:evenodd;stroke:#000000;stroke-width:2.0px;stroke-linecap:butt;stroke-linejoin:miter;stroke-opacity:1;stroke-dasharray:6,4"/>
<path class="bond-2 atom-2 atom-3" d="M 67.0,47.2 L 110.8,36.6" style="fill:none;fill-rule:evenodd;stroke:#000000;stroke-width:2.0px;stroke-linecap:butt;stroke-linejoin:miter;stroke-opacity:1"/>
<path class="bond-2 atom-2 atom-3" d="M 72.4,52.9 L 108.6,44.1" style="fill:none;fill-rule:evenodd;stroke:#000000;stroke-width:2.0px;stroke-linecap:butt;stroke-linejoin:miter;stroke-opacity:1;stroke-dasharray:6,4"/>
<path class="bond-3 atom-3 atom-4" d="M 110.8,36.6 L 137.4,64.5" style="fill:none;fill-rule:evenodd;stroke:#E5E5E5;stroke-width:2.4px;stroke-linecap:butt;stroke-linejoin:miter;stroke-opacity:1"/>
<path class="bond-3 atom-3 atom-4" d="M 108.6,44.1 L 132.5,69.2" style="fill:none;fill-rule:evenodd;stroke:#E5E5E5;stroke-width:2.4px;stroke-linecap:butt;stroke-linejoin:miter;stroke-opacity:1;stroke-dasharray:6,4"/>
<path class="bond-4 atom-5 atom-1" d="M 78.5,120.7 L 50.5,91.4" style="fill:none;fill-rule:evenodd;stroke:#E5E5E5;stroke-width:2.4px;stroke-linecap:butt;stroke-linejoin:miter;stroke-opacity:1"/>
<path class="bond-4 atom-5 atom-1" d="M 83.3,116.0 L 55.4,86.7" style="fill:none;fill-rule:evenodd;stroke:#E5E5E5;stroke-width:2.4px;stroke-linecap:butt;stroke-linejoin:miter;stroke-opacity:1;stroke-dasharray:6,4"/>
<path d="M 66.4,49.4 L 67.0,47.2 L 69.2,46.7" style="fill:none;stroke:#000000;stroke-width:2.0px;stroke-linecap:butt;stroke-linejoin:miter;stroke-opacity:1;"/>
<path d="M 109.7,36.9 L 110.8,36.6 L 111.5,37.3" style="fill:none;stroke:#000000;stroke-width:2.0px;stroke-linecap:butt;stroke-linejoin:miter;stroke-opacity:1;"/>
<path class="atom-0" d="M 8.1 99.6 L 10.0 97.7 L 7.5 97.2 L 7.9 95.9 L 10.2 97.1 L 9.8 94.6 L 11.2 94.5 L 10.8 97.1 L 13.1 96.0 L 13.5 97.2 L 11.0 97.7 L 12.8 99.6 L 11.7 100.4 L 10.5 98.0 L 9.2 100.4 L 8.1 99.6 " fill="#191919"/>
<path class="atom-4" d="M 137.1 70.1 L 138.9 68.2 L 136.5 67.7 L 136.8 66.4 L 139.1 67.6 L 138.8 65.1 L 140.2 65.1 L 139.8 67.6 L 142.1 66.5 L 142.5 67.7 L 140.0 68.2 L 141.8 70.1 L 140.7 70.9 L 139.4 68.5 L 138.2 70.9 L 137.1 70.1 " fill="#191919"/>
<path class="atom-5" d="M 83.0 121.6 L 84.9 119.7 L 82.4 119.2 L 82.8 117.9 L 85.1 119.1 L 84.7 116.6 L 86.1 116.6 L 85.7 119.1 L 88.0 118.0 L 88.4 119.2 L 85.9 119.7 L 87.7 121.6 L 86.6 122.4 L 85.4 120.0 L 84.1 122.4 L 83.0 121.6 " fill="#191919"/>
</svg>