<svg xmlns="http://www.w3.org/2000/svg" xmlns:rdkit="http://www.rdkit.org/xml" xmlns:xlink="http://www.w3.org/1999/xlink" version="1.1" baseProfile="full" xml:space="preserve" width="150px" height="150px" viewBox="0 0 150 150">
<!-- END OF HEADER -->
<rect style="opacity:1.0;fill:#FFFFFF;stroke:none" width="150.0" height="150.0" x="0.0" y="0.0"> </rect>
<ellipse cx="92.8" cy="104.4" rx="16.7" ry="16.7" class="atom-1" style="fill:#9999E5;fill-rule:evenodd;stroke:#9999E5;stroke-width:1.0px;stroke-linecap:butt;stroke-linejoin:miter;stroke-opacity:1"/>
<path class="bond-0 atom-0 atom-1" d="M 140.8,38.2 L 92.8,104.4" style="fill:none;fill-rule:evenodd;stroke:#E5E5E5;stroke-width:4.5px;stroke-linecap:butt;stroke-linejoin:miter;stroke-opacity:1"/>
<path class="bond-0 atom-0 atom-1" d="M 130.7,30.8 L 85.0,93.7" style="fill:none;fill-rule:evenodd;stroke:#E5E5E5;stroke-width:4.5px;stroke-linecap:butt;stroke-linejoin:miter;stroke-opacity:1"/>
<path class="bond-1 atom-1 atom-2" d="M 92.8,104.4 L 21.5,127.6" style="fill:none;fill-rule:evenodd;stroke:#E5E5E5;stroke-width:4.5px;stroke-linecap:butt;stroke-linejoin:miter;stroke-opacity:1"/>
<path d="M 95.2,101.1 L 92.8,104.4 L 89.2,105.6" style="fill:none;stroke:#E5E5E5;stroke-width:4.5px;stroke-linecap:butt;stroke-linejoin:miter;stroke-opacity:1;"/>
<path class="atom-0" d="M 132.4 30.3 L 135.9 26.8 L 131.3 25.8 L 132.0 23.5 L 136.2 25.6 L 135.6 21.0 L 138.1 20.9 L 137.4 25.6 L 141.8 23.6 L 142.5 25.8 L 137.8 26.7 L 141.2 30.3 L 139.1 31.8 L 136.8 27.3 L 134.5 31.8 L 132.4 30.3 " fill="#191919"/>
<path class="atom-2" d="M 8.6 127.6 L 12.1 124.1 L 7.5 123.2 L 8.2 120.8 L 12.5 122.9 L 11.9 118.3 L 14.4 118.2 L 13.7 122.9 L 18.0 120.9 L 18.7 123.2 L 14.0 124.0 L 17.4 127.6 L 15.3 129.1 L 13.0 124.7 L 10.7 129.1 L 8.6 127.6 " fill="#191919"/>
</svg>