<svg xmlns="http://www.w3.org/2000/svg" xmlns:rdkit="http://www.rdkit.org/xml" xmlns:xlink="http://www.w3.org/1999/xlink" version="1.1" baseProfile="full" xml:space="preserve" width="150px" height="150px" viewBox="0 0 150 150">
<!-- END OF HEADER -->
<rect style="opacity:1.0;fill:#FFFFFF;stroke:none" width="150.0" height="150.0" x="0.0" y="0.0"> </rect>
<ellipse cx="32.1" cy="96.9" rx="8.6" ry="8.6" class="atom-1" style="fill:#E5E533;fill-rule:evenodd;stroke:#E5E533;stroke-width:1.0px;stroke-linecap:butt;stroke-linejoin:miter;stroke-opacity:1"/>
<ellipse cx="96.7" cy="60.1" rx="8.6" ry="8.6" class="atom-4" style="fill:#E5E533;fill-rule:evenodd;stroke:#E5E533;stroke-width:1.0px;stroke-linecap:butt;stroke-linejoin:miter;stroke-opacity:1"/>
<ellipse cx="75.0" cy="97.2" rx="8.6" ry="8.6" class="atom-5" style="fill:#9999E5;fill-rule:evenodd;stroke:#9999E5;stroke-width:1.0px;stroke-linecap:butt;stroke-linejoin:miter;stroke-opacity:1"/>
<path class="bond-0 atom-0 atom-1" d="M 14.7,126.6 L 32.1,96.9" style="fill:none;fill-rule:evenodd;stroke:#E5E5E5;stroke-width:2.3px;stroke-linecap:butt;stroke-linejoin:miter;stroke-opacity:1"/>
<path class="bond-1 atom-1 atom-2" d="M 35.8,96.9 L 14.1,58.8" style="fill:none;fill-rule:evenodd;stroke:#E5E5E5;stroke-width:2.3px;stroke-linecap:butt;stroke-linejoin:miter;stroke-opacity:1"/>
<path class="bond-1 atom-1 atom-2" d="M 30.2,100.1 L 8.5,62.0" style="fill:none;fill-rule:evenodd;stroke:#E5E5E5;stroke-width:2.3px;stroke-linecap:butt;stroke-linejoin:miter;stroke-opacity:1;stroke-dasharray:6,4"/>
<path class="bond-2 atom-3 atom-4" d="M 78.7,22.0 L 100.4,60.2" style="fill:none;fill-rule:evenodd;stroke:#E5E5E5;stroke-width:2.3px;stroke-linecap:butt;stroke-linejoin:miter;stroke-opacity:1"/>
<path class="bond-2 atom-3 atom-4" d="M 73.1,25.2 L 94.8,63.3" style="fill:none;fill-rule:evenodd;stroke:#E5E5E5;stroke-width:2.3px;stroke-linecap:butt;stroke-linejoin:miter;stroke-opacity:1;stroke-dasharray:6,4"/>
<path class="bond-3 atom-4 atom-5" d="M 96.7,60.1 L 75.0,97.2" style="fill:none;fill-rule:evenodd;stroke:#000000;stroke-width:2.0px;stroke-linecap:butt;stroke-linejoin:miter;stroke-opacity:1"/>
<path class="bond-3 atom-4 atom-5" d="M 89.3,60.1 L 71.3,90.7" style="fill:none;fill-rule:evenodd;stroke:#000000;stroke-width:2.0px;stroke-linecap:butt;stroke-linejoin:miter;stroke-opacity:1;stroke-dasharray:6,4"/>
<path class="bond-4 atom-4 atom-6" d="M 96.7,60.1 L 135.3,60.4" style="fill:none;fill-rule:evenodd;stroke:#E5E5E5;stroke-width:2.3px;stroke-linecap:butt;stroke-linejoin:miter;stroke-opacity:1"/>
<path class="bond-5 atom-5 atom-1" d="M 75.0,97.2 L 32.1,96.9" style="fill:none;fill-rule:evenodd;stroke:#000000;stroke-width:2.0px;stroke-linecap:butt;stroke-linejoin:miter;stroke-opacity:1"/>
<path class="bond-5 atom-5 atom-1" d="M 71.3,90.7 L 35.8,90.5" style="fill:none;fill-rule:evenodd;stroke:#000000;stroke-width:2.0px;stroke-linecap:butt;stroke-linejoin:miter;stroke-opacity:1;stroke-dasharray:6,4"/>
<path d="M 76.1,95.3 L 75.0,97.2 L 72.9,97.2" style="fill:none;stroke:#000000;stroke-width:2.0px;stroke-linecap:butt;stroke-linejoin:miter;stroke-opacity:1;"/>
<path class="atom-0" d="M 8.1 132.6 L 9.9 130.8 L 7.5 130.3 L 7.9 129.1 L 10.0 130.2 L 9.7 127.8 L 11.0 127.8 L 10.7 130.2 L 12.9 129.2 L 13.3 130.3 L 10.8 130.8 L 12.6 132.6 L 11.5 133.4 L 10.3 131.1 L 9.1 133.4 L 8.1 132.6 " fill="#191919"/>
<path class="atom-2" d="M 8.5 58.3 L 10.3 56.4 L 8.0 56.0 L 8.3 54.7 L 10.5 55.8 L 10.2 53.4 L 11.5 53.4 L 11.1 55.8 L 13.3 54.8 L 13.7 56.0 L 11.3 56.4 L 13.0 58.2 L 12.0 59.0 L 10.8 56.7 L 9.6 59.0 L 8.5 58.3 " fill="#191919"/>
<path class="atom-3" d="M 73.2 21.5 L 74.9 19.6 L 72.6 19.2 L 72.9 17.9 L 75.1 19.0 L 74.8 16.7 L 76.1 16.6 L 75.7 19.0 L 77.9 18.0 L 78.3 19.2 L 75.9 19.6 L 77.6 21.5 L 76.6 22.2 L 75.4 19.9 L 74.2 22.2 L 73.2 21.5 " fill="#191919"/>
<path class="atom-6" d="M 137.3 59.0 L 139.1 57.2 L 136.7 56.7 L 137.1 55.5 L 139.3 56.6 L 139.0 54.2 L 140.3 54.2 L 139.9 56.6 L 142.1 55.6 L 142.5 56.7 L 140.1 57.2 L 141.8 59.0 L 140.8 59.8 L 139.6 57.5 L 138.4 59.8 L 137.3 59.0 " fill="#191919"/>
</svg>