<svg xmlns="http://www.w3.org/2000/svg" xmlns:rdkit="http://www.rdkit.org/xml" xmlns:xlink="http://www.w3.org/1999/xlink" version="1.1" baseProfile="full" xml:space="preserve" width="150px" height="150px" viewBox="0 0 150 150">
<!-- END OF HEADER -->
<rect style="opacity:1.0;fill:#FFFFFF;stroke:none" width="150.0" height="150.0" x="0.0" y="0.0"> </rect>
<ellipse cx="51.7" cy="67.0" rx="10.1" ry="10.1" class="atom-1" style="fill:#9999E5;fill-rule:evenodd;stroke:#9999E5;stroke-width:1.0px;stroke-linecap:butt;stroke-linejoin:miter;stroke-opacity:1"/>
<path class="bond-0 atom-0 atom-1" d="M 7.5,91.3 L 51.7,67.0" style="fill:none;fill-rule:evenodd;stroke:#000000;stroke-width:2.0px;stroke-linecap:butt;stroke-linejoin:miter;stroke-opacity:1"/>
<path class="bond-1 atom-1 atom-2" d="M 51.7,67.0 L 94.9,93.1" style="fill:none;fill-rule:evenodd;stroke:#000000;stroke-width:2.0px;stroke-linecap:butt;stroke-linejoin:miter;stroke-opacity:1"/>
<path class="bond-2 atom-2 atom-3" d="M 94.9,93.1 L 137.4,69.8" style="fill:none;fill-rule:evenodd;stroke:#E5E5E5;stroke-width:2.7px;stroke-linecap:butt;stroke-linejoin:miter;stroke-opacity:1"/>
<path d="M 49.5,68.2 L 51.7,67.0 L 53.9,68.3" style="fill:none;stroke:#000000;stroke-width:2.0px;stroke-linecap:butt;stroke-linejoin:miter;stroke-opacity:1;"/>
<path d="M 93.8,92.5 L 94.9,93.1 L 95.9,92.5" style="fill:none;stroke:#000000;stroke-width:2.0px;stroke-linecap:butt;stroke-linejoin:miter;stroke-opacity:1;"/>
<path class="atom-3" d="M 136.4 67.2 L 138.5 65.1 L 135.7 64.5 L 136.2 63.1 L 138.7 64.4 L 138.4 61.6 L 139.9 61.6 L 139.5 64.4 L 142.1 63.2 L 142.5 64.5 L 139.7 65.1 L 141.7 67.2 L 140.5 68.1 L 139.1 65.4 L 137.7 68.1 L 136.4 67.2 " fill="#191919"/>
</svg>