<svg xmlns="http://www.w3.org/2000/svg" xmlns:rdkit="http://www.rdkit.org/xml" xmlns:xlink="http://www.w3.org/1999/xlink" version="1.1" baseProfile="full" xml:space="preserve" width="150px" height="150px" viewBox="0 0 150 150">
<!-- END OF HEADER -->
<rect style="opacity:1.0;fill:#FFFFFF;stroke:none" width="150.0" height="150.0" x="0.0" y="0.0"> </rect>
<ellipse cx="63.0" cy="87.9" rx="14.8" ry="14.8" class="atom-1" style="fill:#9999E5;fill-rule:evenodd;stroke:#9999E5;stroke-width:1.0px;stroke-linecap:butt;stroke-linejoin:miter;stroke-opacity:1"/>
<path class="bond-0 atom-0 atom-1" d="M 128.1,100.6 L 63.0,87.9" style="fill:none;fill-rule:evenodd;stroke:#E5E5E5;stroke-width:3.9px;stroke-linecap:butt;stroke-linejoin:miter;stroke-opacity:1"/>
<path class="bond-1 atom-1 atom-2" d="M 69.3,89.2 L 44.8,17.7" style="fill:none;fill-rule:evenodd;stroke:#E5E5E5;stroke-width:3.9px;stroke-linecap:butt;stroke-linejoin:miter;stroke-opacity:1"/>
<path class="bond-1 atom-1 atom-2" d="M 58.8,92.7 L 34.3,21.3" style="fill:none;fill-rule:evenodd;stroke:#E5E5E5;stroke-width:3.9px;stroke-linecap:butt;stroke-linejoin:miter;stroke-opacity:1"/>
<path class="bond-2 atom-1 atom-3" d="M 63.0,87.9 L 21.9,135.1" style="fill:none;fill-rule:evenodd;stroke:#E5E5E5;stroke-width:3.9px;stroke-linecap:butt;stroke-linejoin:miter;stroke-opacity:1"/>
<path d="M 66.3,88.6 L 63.0,87.9 L 61.0,90.3" style="fill:none;stroke:#E5E5E5;stroke-width:3.9px;stroke-linecap:butt;stroke-linejoin:miter;stroke-opacity:1;"/>
<path class="atom-0" d="M 131.5 99.8 L 134.6 96.6 L 130.5 95.8 L 131.1 93.7 L 134.9 95.6 L 134.3 91.5 L 136.6 91.5 L 135.9 95.6 L 139.7 93.8 L 140.4 95.8 L 136.3 96.6 L 139.2 99.7 L 137.4 101.0 L 135.4 97.1 L 133.3 101.0 L 131.5 99.8 " fill="#191919"/>
<path class="atom-2" d="M 35.1 15.8 L 38.2 12.7 L 34.1 11.8 L 34.8 9.7 L 38.5 11.6 L 38.0 7.5 L 40.2 7.5 L 39.6 11.6 L 43.4 9.8 L 44.0 11.8 L 39.9 12.6 L 42.8 15.8 L 41.0 17.1 L 39.0 13.2 L 36.9 17.1 L 35.1 15.8 " fill="#191919"/>
<path class="atom-3" d="M 10.6 141.2 L 13.7 138.1 L 9.6 137.3 L 10.2 135.2 L 14.0 137.1 L 13.4 133.0 L 15.7 132.9 L 15.0 137.0 L 18.8 135.3 L 19.5 137.3 L 15.4 138.0 L 18.3 141.2 L 16.5 142.5 L 14.5 138.6 L 12.4 142.5 L 10.6 141.2 " fill="#191919"/>
</svg>