<svg xmlns="http://www.w3.org/2000/svg" xmlns:rdkit="http://www.rdkit.org/xml" xmlns:xlink="http://www.w3.org/1999/xlink" version="1.1" baseProfile="full" xml:space="preserve" width="150px" height="150px" viewBox="0 0 150 150">
<!-- END OF HEADER -->
<rect style="opacity:1.0;fill:#FFFFFF;stroke:none" width="150.0" height="150.0" x="0.0" y="0.0"> </rect>
<ellipse cx="96.3" cy="109.4" rx="16.7" ry="16.7" class="atom-1" style="fill:#9999E5;fill-rule:evenodd;stroke:#9999E5;stroke-width:1.0px;stroke-linecap:butt;stroke-linejoin:miter;stroke-opacity:1"/>
<path class="bond-0 atom-0 atom-1" d="M 141.1,40.9 L 96.3,109.4" style="fill:none;fill-rule:evenodd;stroke:#E5E5E5;stroke-width:4.5px;stroke-linecap:butt;stroke-linejoin:miter;stroke-opacity:1"/>
<path class="bond-0 atom-0 atom-1" d="M 130.6,34.0 L 89.8,96.4" style="fill:none;fill-rule:evenodd;stroke:#E5E5E5;stroke-width:4.5px;stroke-linecap:butt;stroke-linejoin:miter;stroke-opacity:1;stroke-dasharray:6,4"/>
<path class="bond-1 atom-1 atom-2" d="M 96.3,109.4 L 21.1,105.2" style="fill:none;fill-rule:evenodd;stroke:#E5E5E5;stroke-width:4.5px;stroke-linecap:butt;stroke-linejoin:miter;stroke-opacity:1"/>
<path class="bond-1 atom-1 atom-2" d="M 89.8,96.4 L 21.8,92.6" style="fill:none;fill-rule:evenodd;stroke:#E5E5E5;stroke-width:4.5px;stroke-linecap:butt;stroke-linejoin:miter;stroke-opacity:1;stroke-dasharray:6,4"/>
<path d="M 98.6,106.0 L 96.3,109.4 L 92.6,109.2" style="fill:none;stroke:#E5E5E5;stroke-width:4.5px;stroke-linecap:butt;stroke-linejoin:miter;stroke-opacity:1;"/>
<path class="atom-0" d="M 132.4 33.3 L 135.9 29.7 L 131.3 28.8 L 132.0 26.4 L 136.2 28.6 L 135.6 23.9 L 138.1 23.9 L 137.4 28.5 L 141.8 26.5 L 142.5 28.8 L 137.8 29.7 L 141.2 33.3 L 139.1 34.7 L 136.8 30.3 L 134.5 34.7 L 132.4 33.3 " fill="#191919"/>
<path class="atom-2" d="M 8.6 95.8 L 12.1 92.2 L 7.5 91.3 L 8.2 88.9 L 12.5 91.1 L 11.9 86.4 L 14.4 86.4 L 13.7 91.0 L 18.0 89.0 L 18.7 91.3 L 14.0 92.2 L 17.4 95.8 L 15.3 97.2 L 13.0 92.8 L 10.7 97.2 L 8.6 95.8 " fill="#191919"/>
</svg>