<svg xmlns="http://www.w3.org/2000/svg" xmlns:rdkit="http://www.rdkit.org/xml" xmlns:xlink="http://www.w3.org/1999/xlink" version="1.1" baseProfile="full" xml:space="preserve" width="150px" height="150px" viewBox="0 0 150 150">
<!-- END OF HEADER -->
<rect style="opacity:1.0;fill:#FFFFFF;stroke:none" width="150.0" height="150.0" x="0.0" y="0.0"> </rect>
<ellipse cx="54.4" cy="85.6" rx="8.9" ry="8.9" class="atom-1" style="fill:#E5E533;fill-rule:evenodd;stroke:#E5E533;stroke-width:1.0px;stroke-linecap:butt;stroke-linejoin:miter;stroke-opacity:1"/>
<ellipse cx="71.2" cy="44.7" rx="8.9" ry="8.9" class="atom-2" style="fill:#9999E5;fill-rule:evenodd;stroke:#9999E5;stroke-width:1.0px;stroke-linecap:butt;stroke-linejoin:miter;stroke-opacity:1"/>
<ellipse cx="115.1" cy="38.8" rx="8.9" ry="8.9" class="atom-3" style="fill:#E5E533;fill-rule:evenodd;stroke:#E5E533;stroke-width:1.0px;stroke-linecap:butt;stroke-linejoin:miter;stroke-opacity:1"/>
<path class="bond-0 atom-0 atom-1" d="M 14.9,90.9 L 54.4,85.6" style="fill:none;fill-rule:evenodd;stroke:#E5E5E5;stroke-width:2.4px;stroke-linecap:butt;stroke-linejoin:miter;stroke-opacity:1"/>
<path class="bond-1 atom-1 atom-2" d="M 54.4,85.6 L 71.2,44.7" style="fill:none;fill-rule:evenodd;stroke:#000000;stroke-width:2.0px;stroke-linecap:butt;stroke-linejoin:miter;stroke-opacity:1"/>
<path class="bond-1 atom-1 atom-2" d="M 62.0,84.6 L 75.9,50.7" style="fill:none;fill-rule:evenodd;stroke:#000000;stroke-width:2.0px;stroke-linecap:butt;stroke-linejoin:miter;stroke-opacity:1;stroke-dasharray:6,4"/>
<path class="bond-2 atom-2 atom-3" d="M 71.2,44.7 L 115.1,38.8" style="fill:none;fill-rule:evenodd;stroke:#000000;stroke-width:2.0px;stroke-linecap:butt;stroke-linejoin:miter;stroke-opacity:1"/>
<path class="bond-2 atom-2 atom-3" d="M 75.9,50.7 L 112.2,45.9" style="fill:none;fill-rule:evenodd;stroke:#000000;stroke-width:2.0px;stroke-linecap:butt;stroke-linejoin:miter;stroke-opacity:1;stroke-dasharray:6,4"/>
<path class="bond-3 atom-3 atom-4" d="M 115.1,38.8 L 137.7,68.1" style="fill:none;fill-rule:evenodd;stroke:#E5E5E5;stroke-width:2.4px;stroke-linecap:butt;stroke-linejoin:miter;stroke-opacity:1"/>
<path class="bond-3 atom-3 atom-4" d="M 112.2,45.9 L 132.5,72.2" style="fill:none;fill-rule:evenodd;stroke:#E5E5E5;stroke-width:2.4px;stroke-linecap:butt;stroke-linejoin:miter;stroke-opacity:1;stroke-dasharray:6,4"/>
<path class="bond-4 atom-5 atom-1" d="M 74.3,117.0 L 50.6,86.1" style="fill:none;fill-rule:evenodd;stroke:#E5E5E5;stroke-width:2.4px;stroke-linecap:butt;stroke-linejoin:miter;stroke-opacity:1"/>
<path class="bond-4 atom-5 atom-1" d="M 79.6,112.9 L 55.8,82.1" style="fill:none;fill-rule:evenodd;stroke:#E5E5E5;stroke-width:2.4px;stroke-linecap:butt;stroke-linejoin:miter;stroke-opacity:1;stroke-dasharray:6,4"/>
<path d="M 70.4,46.7 L 71.2,44.7 L 73.4,44.4" style="fill:none;stroke:#000000;stroke-width:2.0px;stroke-linecap:butt;stroke-linejoin:miter;stroke-opacity:1;"/>
<path d="M 114.0,38.9 L 115.1,38.8 L 115.7,39.5" style="fill:none;stroke:#000000;stroke-width:2.0px;stroke-linecap:butt;stroke-linejoin:miter;stroke-opacity:1;"/>
<path class="atom-0" d="M 8.1 90.1 L 9.9 88.2 L 7.5 87.7 L 7.9 86.5 L 10.1 87.6 L 9.8 85.2 L 11.1 85.1 L 10.8 87.6 L 13.0 86.5 L 13.4 87.7 L 11.0 88.2 L 12.7 90.1 L 11.6 90.9 L 10.4 88.5 L 9.2 90.9 L 8.1 90.1 " fill="#191919"/>
<path class="atom-4" d="M 137.2 74.5 L 139.0 72.6 L 136.6 72.1 L 136.9 70.9 L 139.2 72.0 L 138.9 69.5 L 140.2 69.5 L 139.8 72.0 L 142.1 70.9 L 142.5 72.1 L 140.0 72.6 L 141.8 74.5 L 140.7 75.3 L 139.5 72.9 L 138.2 75.3 L 137.2 74.5 " fill="#191919"/>
<path class="atom-5" d="M 79.0 119.3 L 80.9 117.4 L 78.4 116.9 L 78.8 115.7 L 81.1 116.8 L 80.7 114.3 L 82.1 114.3 L 81.7 116.8 L 84.0 115.7 L 84.4 116.9 L 81.9 117.4 L 83.7 119.3 L 82.6 120.1 L 81.4 117.7 L 80.1 120.1 L 79.0 119.3 " fill="#191919"/>
</svg>