<svg xmlns="http://www.w3.org/2000/svg" xmlns:rdkit="http://www.rdkit.org/xml" xmlns:xlink="http://www.w3.org/1999/xlink" version="1.1" baseProfile="full" xml:space="preserve" width="150px" height="150px" viewBox="0 0 150 150">
<!-- END OF HEADER -->
<rect style="opacity:1.0;fill:#FFFFFF;stroke:none" width="150.0" height="150.0" x="0.0" y="0.0"> </rect>
<ellipse cx="34.9" cy="85.4" rx="13.4" ry="13.4" class="atom-2" style="fill:#9999E5;fill-rule:evenodd;stroke:#9999E5;stroke-width:1.0px;stroke-linecap:butt;stroke-linejoin:miter;stroke-opacity:1"/>
<path class="bond-0 atom-0 atom-1" d="M 131.3,127.8 L 101.7,82.0" style="fill:none;fill-rule:evenodd;stroke:#E5E5E5;stroke-width:3.6px;stroke-linecap:butt;stroke-linejoin:miter;stroke-opacity:1"/>
<path class="bond-1 atom-1 atom-2" d="M 101.7,82.0 L 73.7,83.4" style="fill:none;fill-rule:evenodd;stroke:#000000;stroke-width:2.0px;stroke-linecap:butt;stroke-linejoin:miter;stroke-opacity:1"/>
<path class="bond-1 atom-1 atom-2" d="M 73.7,83.4 L 45.8,84.8" style="fill:none;fill-rule:evenodd;stroke:#FF0000;stroke-width:2.0px;stroke-linecap:butt;stroke-linejoin:miter;stroke-opacity:1"/>
<path class="bond-2 atom-1 atom-3" d="M 104.8,86.9 L 136.0,26.0" style="fill:none;fill-rule:evenodd;stroke:#E5E5E5;stroke-width:3.6px;stroke-linecap:butt;stroke-linejoin:miter;stroke-opacity:1"/>
<path class="bond-2 atom-1 atom-3" d="M 95.9,82.3 L 127.0,21.4" style="fill:none;fill-rule:evenodd;stroke:#E5E5E5;stroke-width:3.6px;stroke-linecap:butt;stroke-linejoin:miter;stroke-opacity:1"/>
<path d="M 102.4,83.1 L 101.7,82.0 L 101.0,82.0" style="fill:none;stroke:#E5E5E5;stroke-width:3.6px;stroke-linecap:butt;stroke-linejoin:miter;stroke-opacity:1;"/>
<path class="atom-0" d="M 134.4 136.0 L 137.2 133.2 L 133.5 132.4 L 134.1 130.5 L 137.5 132.3 L 137.0 128.5 L 139.0 128.5 L 138.5 132.2 L 141.9 130.6 L 142.5 132.4 L 138.8 133.1 L 141.4 136.0 L 139.8 137.2 L 138.0 133.6 L 136.1 137.2 L 134.4 136.0 " fill="#191919"/>
<path class="atom-2" d="M 7.5 76.0 L 10.1 76.0 L 10.1 84.1 L 19.8 84.1 L 19.8 76.0 L 22.3 76.0 L 22.3 95.0 L 19.8 95.0 L 19.8 86.2 L 10.1 86.2 L 10.1 95.0 L 7.5 95.0 L 7.5 76.0 " fill="#FF0000"/>
<path class="atom-2" d="M 26.2 85.4 Q 26.2 80.9, 28.5 78.3 Q 30.7 75.8, 34.9 75.8 Q 39.1 75.8, 41.3 78.3 Q 43.6 80.9, 43.6 85.4 Q 43.6 90.0, 41.3 92.7 Q 39.0 95.2, 34.9 95.2 Q 30.7 95.2, 28.5 92.7 Q 26.2 90.1, 26.2 85.4 M 34.9 93.1 Q 37.8 93.1, 39.3 91.2 Q 40.9 89.2, 40.9 85.4 Q 40.9 81.7, 39.3 79.8 Q 37.8 77.9, 34.9 77.9 Q 32.0 77.9, 30.4 79.8 Q 28.9 81.7, 28.9 85.4 Q 28.9 89.3, 30.4 91.2 Q 32.0 93.1, 34.9 93.1 " fill="#FF0000"/>
<path class="atom-3" d="M 128.6 20.3 L 131.4 17.5 L 127.7 16.8 L 128.2 14.9 L 131.6 16.6 L 131.1 12.9 L 133.2 12.8 L 132.6 16.5 L 136.0 14.9 L 136.6 16.8 L 132.9 17.5 L 135.6 20.3 L 133.9 21.5 L 132.1 18.0 L 130.2 21.5 L 128.6 20.3 " fill="#191919"/>
</svg>