<svg xmlns="http://www.w3.org/2000/svg" xmlns:rdkit="http://www.rdkit.org/xml" xmlns:xlink="http://www.w3.org/1999/xlink" version="1.1" baseProfile="full" xml:space="preserve" width="150px" height="150px" viewBox="0 0 150 150">
<!-- END OF HEADER -->
<rect style="opacity:1.0;fill:#FFFFFF;stroke:none" width="150.0" height="150.0" x="0.0" y="0.0"> </rect>
<ellipse cx="79.5" cy="66.5" rx="14.6" ry="14.6" class="atom-1" style="fill:#9999E5;fill-rule:evenodd;stroke:#9999E5;stroke-width:1.0px;stroke-linecap:butt;stroke-linejoin:miter;stroke-opacity:1"/>
<path class="bond-0 atom-0 atom-1" d="M 15.6,39.5 L 79.5,66.5" style="fill:none;fill-rule:evenodd;stroke:#E5E5E5;stroke-width:3.9px;stroke-linecap:butt;stroke-linejoin:miter;stroke-opacity:1"/>
<path class="bond-1 atom-1 atom-2" d="M 80.2,72.8 L 139.1,28.4" style="fill:none;fill-rule:evenodd;stroke:#E5E5E5;stroke-width:3.9px;stroke-linecap:butt;stroke-linejoin:miter;stroke-opacity:1"/>
<path class="bond-1 atom-1 atom-2" d="M 73.6,64.1 L 132.5,19.7" style="fill:none;fill-rule:evenodd;stroke:#E5E5E5;stroke-width:3.9px;stroke-linecap:butt;stroke-linejoin:miter;stroke-opacity:1"/>
<path class="bond-2 atom-1 atom-3" d="M 79.5,66.5 L 86.8,126.0" style="fill:none;fill-rule:evenodd;stroke:#E5E5E5;stroke-width:3.9px;stroke-linecap:butt;stroke-linejoin:miter;stroke-opacity:1"/>
<path d="M 76.3,65.2 L 79.5,66.5 L 79.8,69.5" style="fill:none;stroke:#E5E5E5;stroke-width:3.9px;stroke-linecap:butt;stroke-linejoin:miter;stroke-opacity:1;"/>
<path class="atom-0" d="M 8.5 35.8 L 11.5 32.7 L 7.5 31.9 L 8.1 29.8 L 11.8 31.7 L 11.3 27.6 L 13.5 27.6 L 12.9 31.7 L 16.6 29.9 L 17.3 31.9 L 13.2 32.7 L 16.1 35.8 L 14.3 37.1 L 12.3 33.2 L 10.3 37.1 L 8.5 35.8 " fill="#191919"/>
<path class="atom-2" d="M 133.7 20.4 L 136.8 17.3 L 132.7 16.5 L 133.3 14.4 L 137.1 16.3 L 136.5 12.2 L 138.7 12.2 L 138.1 16.2 L 141.9 14.5 L 142.5 16.5 L 138.4 17.2 L 141.3 20.4 L 139.6 21.6 L 137.5 17.8 L 135.5 21.6 L 133.7 20.4 " fill="#191919"/>
<path class="atom-3" d="M 84.5 136.6 L 87.5 133.5 L 83.5 132.6 L 84.1 130.6 L 87.8 132.4 L 87.3 128.4 L 89.4 128.4 L 88.8 132.4 L 92.6 130.7 L 93.2 132.6 L 89.2 133.4 L 92.1 136.5 L 90.3 137.8 L 88.3 134.0 L 86.2 137.8 L 84.5 136.6 " fill="#191919"/>
</svg>