<svg xmlns="http://www.w3.org/2000/svg" xmlns:rdkit="http://www.rdkit.org/xml" xmlns:xlink="http://www.w3.org/1999/xlink" version="1.1" baseProfile="full" xml:space="preserve" width="150px" height="150px" viewBox="0 0 150 150">
<!-- END OF HEADER -->
<rect style="opacity:1.0;fill:#FFFFFF;stroke:none" width="150.0" height="150.0" x="0.0" y="0.0"> </rect>
<ellipse cx="32.5" cy="58.2" rx="6.1" ry="6.1" class="atom-1" style="fill:#CCCCCC;fill-rule:evenodd;stroke:#CCCCCC;stroke-width:1.0px;stroke-linecap:butt;stroke-linejoin:miter;stroke-opacity:1"/>
<ellipse cx="24.2" cy="87.8" rx="6.1" ry="6.1" class="atom-2" style="fill:#CCCCCC;fill-rule:evenodd;stroke:#CCCCCC;stroke-width:1.0px;stroke-linecap:butt;stroke-linejoin:miter;stroke-opacity:1"/>
<ellipse cx="109.8" cy="65.8" rx="6.1" ry="6.1" class="atom-5" style="fill:#CCCCCC;fill-rule:evenodd;stroke:#CCCCCC;stroke-width:1.0px;stroke-linecap:butt;stroke-linejoin:miter;stroke-opacity:1"/>
<ellipse cx="88.4" cy="43.9" rx="6.1" ry="6.1" class="atom-6" style="fill:#CCCCCC;fill-rule:evenodd;stroke:#CCCCCC;stroke-width:1.0px;stroke-linecap:butt;stroke-linejoin:miter;stroke-opacity:1"/>
<ellipse cx="57.8" cy="40.9" rx="6.1" ry="6.1" class="atom-7" style="fill:#9999E5;fill-rule:evenodd;stroke:#9999E5;stroke-width:1.0px;stroke-linecap:butt;stroke-linejoin:miter;stroke-opacity:1"/>
<path class="bond-0 atom-0 atom-1" d="M 7.5,40.3 L 32.5,58.2" style="fill:none;fill-rule:evenodd;stroke:#000000;stroke-width:2.0px;stroke-linecap:butt;stroke-linejoin:miter;stroke-opacity:1"/>
<path class="bond-1 atom-1 atom-2" d="M 32.5,58.2 L 24.2,87.8" style="fill:none;fill-rule:evenodd;stroke:#000000;stroke-width:2.0px;stroke-linecap:butt;stroke-linejoin:miter;stroke-opacity:1"/>
<path class="bond-1 atom-1 atom-2" d="M 36.4,61.0 L 29.1,87.4" style="fill:none;fill-rule:evenodd;stroke:#000000;stroke-width:2.0px;stroke-linecap:butt;stroke-linejoin:miter;stroke-opacity:1"/>
<path class="bond-2 atom-2 atom-3" d="M 24.2,87.8 L 34.4,110.3" style="fill:none;fill-rule:evenodd;stroke:#E5E5E5;stroke-width:1.6px;stroke-linecap:butt;stroke-linejoin:miter;stroke-opacity:1"/>
<path class="bond-3 atom-4 atom-5" d="M 137.4,63.7 L 109.8,65.8" style="fill:none;fill-rule:evenodd;stroke:#E5E5E5;stroke-width:1.6px;stroke-linecap:butt;stroke-linejoin:miter;stroke-opacity:1"/>
<path class="bond-4 atom-5 atom-6" d="M 109.8,65.8 L 88.4,43.9" style="fill:none;fill-rule:evenodd;stroke:#000000;stroke-width:2.0px;stroke-linecap:butt;stroke-linejoin:miter;stroke-opacity:1"/>
<path class="bond-5 atom-6 atom-7" d="M 88.4,43.9 L 57.8,40.9" style="fill:none;fill-rule:evenodd;stroke:#000000;stroke-width:2.0px;stroke-linecap:butt;stroke-linejoin:miter;stroke-opacity:1"/>
<path class="bond-6 atom-7 atom-1" d="M 57.8,40.9 L 32.5,58.2" style="fill:none;fill-rule:evenodd;stroke:#000000;stroke-width:2.0px;stroke-linecap:butt;stroke-linejoin:miter;stroke-opacity:1"/>
<path class="bond-7 atom-5 atom-8" d="M 109.8,65.8 L 111.8,91.0" style="fill:none;fill-rule:evenodd;stroke:#E5E5E5;stroke-width:1.6px;stroke-linecap:butt;stroke-linejoin:miter;stroke-opacity:1"/>
<path d="M 24.4,87.0 L 24.2,87.8 L 24.5,88.3" style="fill:none;stroke:#000000;stroke-width:2.0px;stroke-linecap:butt;stroke-linejoin:miter;stroke-opacity:1;"/>
<path d="M 89.4,45.0 L 88.4,43.9 L 86.8,43.7" style="fill:none;stroke:#000000;stroke-width:2.0px;stroke-linecap:butt;stroke-linejoin:miter;stroke-opacity:1;"/>
<path d="M 59.3,41.0 L 57.8,40.9 L 56.5,41.7" style="fill:none;stroke:#000000;stroke-width:2.0px;stroke-linecap:butt;stroke-linejoin:miter;stroke-opacity:1;"/>
<path class="atom-3" d="M 35.2 114.8 L 36.5 113.5 L 34.8 113.1 L 35.1 112.2 L 36.6 113.0 L 36.4 111.3 L 37.3 111.3 L 37.1 113.0 L 38.7 112.3 L 38.9 113.1 L 37.2 113.4 L 38.4 114.7 L 37.7 115.3 L 36.8 113.7 L 36.0 115.3 L 35.2 114.8 " fill="#191919"/>
<path class="atom-4" d="M 138.8 62.5 L 140.1 61.2 L 138.4 60.8 L 138.6 60.0 L 140.2 60.7 L 140.0 59.0 L 140.9 59.0 L 140.6 60.7 L 142.2 60.0 L 142.5 60.8 L 140.8 61.1 L 142.0 62.5 L 141.3 63.0 L 140.4 61.4 L 139.6 63.0 L 138.8 62.5 " fill="#191919"/>
<path class="atom-8" d="M 110.5 95.4 L 111.8 94.1 L 110.1 93.8 L 110.4 92.9 L 111.9 93.7 L 111.7 92.0 L 112.6 92.0 L 112.4 93.7 L 114.0 93.0 L 114.2 93.8 L 112.5 94.1 L 113.7 95.4 L 113.0 96.0 L 112.2 94.3 L 111.3 96.0 L 110.5 95.4 " fill="#191919"/>
</svg>