<svg xmlns="http://www.w3.org/2000/svg" xmlns:rdkit="http://www.rdkit.org/xml" xmlns:xlink="http://www.w3.org/1999/xlink" version="1.1" baseProfile="full" xml:space="preserve" width="150px" height="150px" viewBox="0 0 150 150">
<!-- END OF HEADER -->
<rect style="opacity:1.0;fill:#FFFFFF;stroke:none" width="150.0" height="150.0" x="0.0" y="0.0"> </rect>
<ellipse cx="75.6" cy="98.3" rx="14.5" ry="14.5" class="atom-1" style="fill:#9999E5;fill-rule:evenodd;stroke:#9999E5;stroke-width:1.0px;stroke-linecap:butt;stroke-linejoin:miter;stroke-opacity:1"/>
<path class="bond-0 atom-0 atom-1" d="M 19.6,129.3 L 75.6,98.3" style="fill:none;fill-rule:evenodd;stroke:#E5E5E5;stroke-width:3.9px;stroke-linecap:butt;stroke-linejoin:miter;stroke-opacity:1"/>
<path class="bond-1 atom-1 atom-2" d="M 81.0,101.5 L 82.3,27.4" style="fill:none;fill-rule:evenodd;stroke:#E5E5E5;stroke-width:3.9px;stroke-linecap:butt;stroke-linejoin:miter;stroke-opacity:1"/>
<path class="bond-1 atom-1 atom-2" d="M 70.2,101.3 L 71.5,27.2" style="fill:none;fill-rule:evenodd;stroke:#E5E5E5;stroke-width:3.9px;stroke-linecap:butt;stroke-linejoin:miter;stroke-opacity:1"/>
<path class="bond-2 atom-1 atom-3" d="M 75.6,98.3 L 130.4,131.2" style="fill:none;fill-rule:evenodd;stroke:#E5E5E5;stroke-width:3.9px;stroke-linecap:butt;stroke-linejoin:miter;stroke-opacity:1"/>
<path d="M 72.8,99.8 L 75.6,98.3 L 78.4,99.9" style="fill:none;stroke:#E5E5E5;stroke-width:3.9px;stroke-linecap:butt;stroke-linejoin:miter;stroke-opacity:1;"/>
<path class="atom-0" d="M 8.5 131.0 L 11.5 128.0 L 7.5 127.2 L 8.1 125.1 L 11.8 127.0 L 11.3 122.9 L 13.4 122.9 L 12.8 126.9 L 16.6 125.2 L 17.2 127.2 L 13.1 127.9 L 16.0 131.0 L 14.3 132.3 L 12.3 128.5 L 10.2 132.3 L 8.5 131.0 " fill="#191919"/>
<path class="atom-2" d="M 73.1 23.6 L 76.1 20.6 L 72.1 19.8 L 72.7 17.7 L 76.4 19.6 L 75.8 15.5 L 78.0 15.5 L 77.4 19.5 L 81.1 17.8 L 81.8 19.8 L 77.7 20.5 L 80.6 23.6 L 78.8 24.9 L 76.8 21.1 L 74.8 24.9 L 73.1 23.6 " fill="#191919"/>
<path class="atom-3" d="M 133.8 133.3 L 136.8 130.2 L 132.8 129.4 L 133.4 127.3 L 137.1 129.2 L 136.6 125.2 L 138.7 125.1 L 138.1 129.1 L 141.9 127.4 L 142.5 129.4 L 138.4 130.1 L 141.3 133.2 L 139.6 134.5 L 137.6 130.7 L 135.6 134.5 L 133.8 133.3 " fill="#191919"/>
</svg>