<svg xmlns="http://www.w3.org/2000/svg" xmlns:rdkit="http://www.rdkit.org/xml" xmlns:xlink="http://www.w3.org/1999/xlink" version="1.1" baseProfile="full" xml:space="preserve" width="150px" height="150px" viewBox="0 0 150 150">
<!-- END OF HEADER -->
<rect style="opacity:1.0;fill:#FFFFFF;stroke:none" width="150.0" height="150.0" x="0.0" y="0.0"> </rect>
<ellipse cx="68.5" cy="68.3" rx="14.7" ry="14.7" class="atom-1" style="fill:#9999E5;fill-rule:evenodd;stroke:#9999E5;stroke-width:1.0px;stroke-linecap:butt;stroke-linejoin:miter;stroke-opacity:1"/>
<path class="bond-0 atom-0 atom-1" d="M 14.0,22.4 L 68.5,68.3" style="fill:none;fill-rule:evenodd;stroke:#E5E5E5;stroke-width:3.9px;stroke-linecap:butt;stroke-linejoin:miter;stroke-opacity:1"/>
<path class="bond-1 atom-1 atom-2" d="M 63.7,64.2 L 52.5,126.6" style="fill:none;fill-rule:evenodd;stroke:#E5E5E5;stroke-width:3.9px;stroke-linecap:butt;stroke-linejoin:miter;stroke-opacity:1"/>
<path class="bond-1 atom-1 atom-2" d="M 74.5,66.2 L 63.4,128.6" style="fill:none;fill-rule:evenodd;stroke:#E5E5E5;stroke-width:3.9px;stroke-linecap:butt;stroke-linejoin:miter;stroke-opacity:1"/>
<path class="bond-2 atom-1 atom-3" d="M 68.5,68.3 L 133.8,44.8" style="fill:none;fill-rule:evenodd;stroke:#E5E5E5;stroke-width:3.9px;stroke-linecap:butt;stroke-linejoin:miter;stroke-opacity:1"/>
<path d="M 65.8,66.0 L 68.5,68.3 L 71.8,67.2" style="fill:none;stroke:#E5E5E5;stroke-width:3.9px;stroke-linecap:butt;stroke-linejoin:miter;stroke-opacity:1;"/>
<path class="atom-0" d="M 8.5 18.7 L 11.6 15.6 L 7.5 14.8 L 8.1 12.7 L 11.8 14.6 L 11.3 10.5 L 13.5 10.5 L 12.9 14.5 L 16.7 12.8 L 17.3 14.8 L 13.2 15.5 L 16.2 18.7 L 14.4 20.0 L 12.3 16.1 L 10.3 20.0 L 8.5 18.7 " fill="#191919"/>
<path class="atom-2" d="M 51.7 138.3 L 54.8 135.2 L 50.7 134.3 L 51.3 132.3 L 55.1 134.1 L 54.5 130.1 L 56.7 130.0 L 56.1 134.1 L 59.9 132.4 L 60.6 134.3 L 56.4 135.1 L 59.4 138.3 L 57.6 139.5 L 55.6 135.7 L 53.5 139.5 L 51.7 138.3 " fill="#191919"/>
<path class="atom-3" d="M 133.7 41.1 L 136.7 38.0 L 132.7 37.1 L 133.3 35.0 L 137.0 36.9 L 136.5 32.8 L 138.7 32.8 L 138.1 36.9 L 141.9 35.1 L 142.5 37.1 L 138.4 37.9 L 141.3 41.0 L 139.5 42.3 L 137.5 38.5 L 135.5 42.3 L 133.7 41.1 " fill="#191919"/>
</svg>