<svg xmlns="http://www.w3.org/2000/svg" xmlns:rdkit="http://www.rdkit.org/xml" xmlns:xlink="http://www.w3.org/1999/xlink" version="1.1" baseProfile="full" xml:space="preserve" width="150px" height="150px" viewBox="0 0 150 150">
<!-- END OF HEADER -->
<rect style="opacity:1.0;fill:#FFFFFF;stroke:none" width="150.0" height="150.0" x="0.0" y="0.0"> </rect>
<ellipse cx="50.7" cy="45.4" rx="17.2" ry="17.2" class="atom-1" style="fill:#9999E5;fill-rule:evenodd;stroke:#9999E5;stroke-width:1.0px;stroke-linecap:butt;stroke-linejoin:miter;stroke-opacity:1"/>
<path class="bond-0 atom-0 atom-1" d="M 16.3,105.0 L 50.7,45.4" style="fill:none;fill-rule:evenodd;stroke:#E5E5E5;stroke-width:4.6px;stroke-linecap:butt;stroke-linejoin:miter;stroke-opacity:1"/>
<path class="bond-0 atom-0 atom-1" d="M 27.5,111.4 L 58.1,58.3" style="fill:none;fill-rule:evenodd;stroke:#E5E5E5;stroke-width:4.6px;stroke-linecap:butt;stroke-linejoin:miter;stroke-opacity:1"/>
<path class="bond-1 atom-1 atom-2" d="M 50.7,45.4 L 128.1,45.4" style="fill:none;fill-rule:evenodd;stroke:#E5E5E5;stroke-width:4.6px;stroke-linecap:butt;stroke-linejoin:miter;stroke-opacity:1"/>
<path d="M 49.0,48.3 L 50.7,45.4 L 54.6,45.4" style="fill:none;stroke:#E5E5E5;stroke-width:4.6px;stroke-linecap:butt;stroke-linejoin:miter;stroke-opacity:1;"/>
<path class="atom-0" d="M 8.7 120.4 L 12.2 116.7 L 7.5 115.8 L 8.2 113.3 L 12.6 115.5 L 12.0 110.7 L 14.6 110.7 L 13.8 115.5 L 18.3 113.4 L 19.0 115.8 L 14.2 116.7 L 17.7 120.3 L 15.6 121.9 L 13.2 117.3 L 10.8 121.9 L 8.7 120.4 " fill="#191919"/>
<path class="atom-2" d="M 132.1 42.6 L 135.7 39.0 L 131.0 38.0 L 131.7 35.6 L 136.1 37.8 L 135.4 33.0 L 138.0 33.0 L 137.3 37.7 L 141.7 35.7 L 142.5 38.0 L 137.7 38.9 L 141.1 42.6 L 139.0 44.1 L 136.6 39.6 L 134.2 44.1 L 132.1 42.6 " fill="#191919"/>
</svg>