<svg xmlns="http://www.w3.org/2000/svg" xmlns:rdkit="http://www.rdkit.org/xml" xmlns:xlink="http://www.w3.org/1999/xlink" version="1.1" baseProfile="full" xml:space="preserve" width="150px" height="150px" viewBox="0 0 150 150">
<!-- END OF HEADER -->
<rect style="opacity:1.0;fill:#FFFFFF;stroke:none" width="150.0" height="150.0" x="0.0" y="0.0"> </rect>
<ellipse cx="76.5" cy="79.1" rx="8.9" ry="8.9" class="atom-2" style="fill:#9999E5;fill-rule:evenodd;stroke:#9999E5;stroke-width:1.0px;stroke-linecap:butt;stroke-linejoin:miter;stroke-opacity:1"/>
<path class="bond-0 atom-0 atom-1" d="M 142.0,39.8 L 121.0,78.1" style="fill:none;fill-rule:evenodd;stroke:#E5E5E5;stroke-width:2.4px;stroke-linecap:butt;stroke-linejoin:miter;stroke-opacity:1"/>
<path class="bond-0 atom-0 atom-1" d="M 136.1,36.6 L 117.0,71.5" style="fill:none;fill-rule:evenodd;stroke:#E5E5E5;stroke-width:2.4px;stroke-linecap:butt;stroke-linejoin:miter;stroke-opacity:1"/>
<path class="bond-1 atom-1 atom-2" d="M 121.0,78.1 L 76.5,79.1" style="fill:none;fill-rule:evenodd;stroke:#000000;stroke-width:2.0px;stroke-linecap:butt;stroke-linejoin:miter;stroke-opacity:1"/>
<path class="bond-2 atom-2 atom-3" d="M 76.5,79.1 L 55.1,118.1" style="fill:none;fill-rule:evenodd;stroke:#000000;stroke-width:2.0px;stroke-linecap:butt;stroke-linejoin:miter;stroke-opacity:1"/>
<path class="bond-3 atom-3 atom-4" d="M 55.1,118.1 L 15.0,119.0" style="fill:none;fill-rule:evenodd;stroke:#E5E5E5;stroke-width:2.4px;stroke-linecap:butt;stroke-linejoin:miter;stroke-opacity:1"/>
<path class="bond-3 atom-3 atom-4" d="M 51.1,111.5 L 14.9,112.3" style="fill:none;fill-rule:evenodd;stroke:#E5E5E5;stroke-width:2.4px;stroke-linecap:butt;stroke-linejoin:miter;stroke-opacity:1"/>
<path d="M 121.6,77.1 L 121.0,78.1 L 119.9,78.1" style="fill:none;stroke:#E5E5E5;stroke-width:2.4px;stroke-linecap:butt;stroke-linejoin:miter;stroke-opacity:1;"/>
<path d="M 78.7,79.0 L 76.5,79.1 L 75.4,81.0" style="fill:none;stroke:#000000;stroke-width:2.0px;stroke-linecap:butt;stroke-linejoin:miter;stroke-opacity:1;"/>
<path d="M 55.6,117.2 L 55.1,118.1 L 54.1,118.2" style="fill:none;stroke:#000000;stroke-width:2.0px;stroke-linecap:butt;stroke-linejoin:miter;stroke-opacity:1;"/>
<path class="atom-0" d="M 137.1 36.0 L 139.0 34.1 L 136.5 33.6 L 136.9 32.3 L 139.2 33.5 L 138.8 31.0 L 140.2 31.0 L 139.8 33.5 L 142.1 32.4 L 142.5 33.6 L 140.0 34.1 L 141.8 36.0 L 140.7 36.7 L 139.5 34.4 L 138.2 36.7 L 137.1 36.0 " fill="#191919"/>
<path class="atom-4" d="M 8.1 114.4 L 10.0 112.5 L 7.5 112.0 L 7.9 110.7 L 10.1 111.9 L 9.8 109.4 L 11.2 109.4 L 10.8 111.8 L 13.1 110.8 L 13.5 112.0 L 11.0 112.5 L 12.8 114.4 L 11.7 115.1 L 10.4 112.8 L 9.2 115.1 L 8.1 114.4 " fill="#191919"/>
</svg>