<svg xmlns="http://www.w3.org/2000/svg" xmlns:rdkit="http://www.rdkit.org/xml" xmlns:xlink="http://www.w3.org/1999/xlink" version="1.1" baseProfile="full" xml:space="preserve" width="150px" height="150px" viewBox="0 0 150 150">
<!-- END OF HEADER -->
<rect style="opacity:1.0;fill:#FFFFFF;stroke:none" width="150.0" height="150.0" x="0.0" y="0.0"> </rect>
<ellipse cx="75.0" cy="75.0" rx="8.6" ry="8.6" class="atom-3" style="fill:#9999E5;fill-rule:evenodd;stroke:#9999E5;stroke-width:1.0px;stroke-linecap:butt;stroke-linejoin:miter;stroke-opacity:1"/>
<ellipse cx="53.5" cy="112.3" rx="8.6" ry="8.6" class="atom-4" style="fill:#E5E533;fill-rule:evenodd;stroke:#E5E533;stroke-width:1.0px;stroke-linecap:butt;stroke-linejoin:miter;stroke-opacity:1"/>
<ellipse cx="53.5" cy="37.7" rx="8.6" ry="8.6" class="atom-7" style="fill:#E5E533;fill-rule:evenodd;stroke:#E5E533;stroke-width:1.0px;stroke-linecap:butt;stroke-linejoin:miter;stroke-opacity:1"/>
<path class="bond-0 atom-0 atom-1" d="M 135.3,104.8 L 118.1,75.0" style="fill:none;fill-rule:evenodd;stroke:#E5E5E5;stroke-width:2.3px;stroke-linecap:butt;stroke-linejoin:miter;stroke-opacity:1"/>
<path class="bond-1 atom-1 atom-2" d="M 118.1,75.0 L 139.2,38.5" style="fill:none;fill-rule:evenodd;stroke:#E5E5E5;stroke-width:2.3px;stroke-linecap:butt;stroke-linejoin:miter;stroke-opacity:1"/>
<path class="bond-2 atom-1 atom-3" d="M 118.1,75.0 L 75.0,75.0" style="fill:none;fill-rule:evenodd;stroke:#000000;stroke-width:2.0px;stroke-linecap:butt;stroke-linejoin:miter;stroke-opacity:1"/>
<path class="bond-3 atom-3 atom-4" d="M 75.0,75.0 L 53.5,112.3" style="fill:none;fill-rule:evenodd;stroke:#000000;stroke-width:2.0px;stroke-linecap:butt;stroke-linejoin:miter;stroke-opacity:1"/>
<path class="bond-3 atom-3 atom-4" d="M 67.5,75.0 L 49.7,105.8" style="fill:none;fill-rule:evenodd;stroke:#000000;stroke-width:2.0px;stroke-linecap:butt;stroke-linejoin:miter;stroke-opacity:1;stroke-dasharray:6,4"/>
<path class="bond-4 atom-4 atom-5" d="M 53.5,112.3 L 14.7,112.3" style="fill:none;fill-rule:evenodd;stroke:#E5E5E5;stroke-width:2.3px;stroke-linecap:butt;stroke-linejoin:miter;stroke-opacity:1"/>
<path class="bond-4 atom-4 atom-5" d="M 49.7,105.8 L 14.7,105.8" style="fill:none;fill-rule:evenodd;stroke:#E5E5E5;stroke-width:2.3px;stroke-linecap:butt;stroke-linejoin:miter;stroke-opacity:1;stroke-dasharray:6,4"/>
<path class="bond-5 atom-6 atom-7" d="M 14.7,37.7 L 53.5,37.7" style="fill:none;fill-rule:evenodd;stroke:#E5E5E5;stroke-width:2.3px;stroke-linecap:butt;stroke-linejoin:miter;stroke-opacity:1"/>
<path class="bond-5 atom-6 atom-7" d="M 14.7,44.2 L 49.7,44.2" style="fill:none;fill-rule:evenodd;stroke:#E5E5E5;stroke-width:2.3px;stroke-linecap:butt;stroke-linejoin:miter;stroke-opacity:1;stroke-dasharray:6,4"/>
<path class="bond-6 atom-7 atom-3" d="M 53.5,37.7 L 75.0,75.0" style="fill:none;fill-rule:evenodd;stroke:#000000;stroke-width:2.0px;stroke-linecap:butt;stroke-linejoin:miter;stroke-opacity:1"/>
<path class="bond-6 atom-7 atom-3" d="M 49.7,44.2 L 67.5,75.0" style="fill:none;fill-rule:evenodd;stroke:#000000;stroke-width:2.0px;stroke-linecap:butt;stroke-linejoin:miter;stroke-opacity:1;stroke-dasharray:6,4"/>
<path d="M 54.0,111.4 L 53.5,112.3 L 52.5,112.3" style="fill:none;stroke:#000000;stroke-width:2.0px;stroke-linecap:butt;stroke-linejoin:miter;stroke-opacity:1;"/>
<path d="M 52.5,37.7 L 53.5,37.7 L 54.0,38.6" style="fill:none;stroke:#E5E5E5;stroke-width:2.3px;stroke-linecap:butt;stroke-linejoin:miter;stroke-opacity:1;"/>
<path class="atom-0" d="M 137.3 110.9 L 139.1 109.1 L 136.7 108.6 L 137.1 107.4 L 139.3 108.5 L 139.0 106.1 L 140.3 106.1 L 139.9 108.5 L 142.1 107.5 L 142.5 108.6 L 140.1 109.1 L 141.8 110.9 L 140.8 111.7 L 139.6 109.4 L 138.4 111.7 L 137.3 110.9 " fill="#191919"/>
<path class="atom-2" d="M 137.3 36.3 L 139.1 34.5 L 136.7 34.0 L 137.1 32.8 L 139.3 33.9 L 139.0 31.5 L 140.3 31.5 L 139.9 33.9 L 142.1 32.9 L 142.5 34.0 L 140.1 34.5 L 141.8 36.3 L 140.8 37.1 L 139.6 34.8 L 138.4 37.1 L 137.3 36.3 " fill="#191919"/>
<path class="atom-5" d="M 8.1 107.7 L 9.9 105.9 L 7.5 105.4 L 7.9 104.2 L 10.1 105.3 L 9.7 102.9 L 11.0 102.9 L 10.7 105.3 L 12.9 104.2 L 13.3 105.4 L 10.9 105.9 L 12.6 107.7 L 11.5 108.5 L 10.3 106.2 L 9.1 108.5 L 8.1 107.7 " fill="#191919"/>
<path class="atom-6" d="M 8.1 39.6 L 9.9 37.7 L 7.5 37.3 L 7.9 36.0 L 10.1 37.1 L 9.7 34.7 L 11.0 34.7 L 10.7 37.1 L 12.9 36.1 L 13.3 37.3 L 10.9 37.7 L 12.6 39.5 L 11.5 40.3 L 10.3 38.0 L 9.1 40.3 L 8.1 39.6 " fill="#191919"/>
</svg>