<svg xmlns="http://www.w3.org/2000/svg" xmlns:rdkit="http://www.rdkit.org/xml" xmlns:xlink="http://www.w3.org/1999/xlink" version="1.1" baseProfile="full" xml:space="preserve" width="150px" height="150px" viewBox="0 0 150 150">
<!-- END OF HEADER -->
<rect style="opacity:1.0;fill:#FFFFFF;stroke:none" width="150.0" height="150.0" x="0.0" y="0.0"> </rect>
<ellipse cx="80.5" cy="67.5" rx="14.6" ry="14.6" class="atom-1" style="fill:#9999E5;fill-rule:evenodd;stroke:#9999E5;stroke-width:1.0px;stroke-linecap:butt;stroke-linejoin:miter;stroke-opacity:1"/>
<path class="bond-0 atom-0 atom-1" d="M 139.3,27.5 L 81.5,73.7" style="fill:none;fill-rule:evenodd;stroke:#E5E5E5;stroke-width:3.9px;stroke-linecap:butt;stroke-linejoin:miter;stroke-opacity:1"/>
<path class="bond-0 atom-0 atom-1" d="M 132.5,18.9 L 74.6,65.2" style="fill:none;fill-rule:evenodd;stroke:#E5E5E5;stroke-width:3.9px;stroke-linecap:butt;stroke-linejoin:miter;stroke-opacity:1"/>
<path class="bond-1 atom-1 atom-2" d="M 80.5,67.5 L 15.9,42.2" style="fill:none;fill-rule:evenodd;stroke:#E5E5E5;stroke-width:3.9px;stroke-linecap:butt;stroke-linejoin:miter;stroke-opacity:1"/>
<path class="bond-2 atom-1 atom-3" d="M 80.5,67.5 L 89.5,126.8" style="fill:none;fill-rule:evenodd;stroke:#E5E5E5;stroke-width:3.9px;stroke-linecap:butt;stroke-linejoin:miter;stroke-opacity:1"/>
<path d="M 77.3,66.2 L 80.5,67.5 L 81.0,70.5" style="fill:none;stroke:#E5E5E5;stroke-width:3.9px;stroke-linecap:butt;stroke-linejoin:miter;stroke-opacity:1;"/>
<path class="atom-0" d="M 133.7 19.5 L 136.7 16.4 L 132.7 15.6 L 133.3 13.5 L 137.0 15.4 L 136.5 11.3 L 138.7 11.3 L 138.1 15.3 L 141.9 13.6 L 142.5 15.6 L 138.4 16.3 L 141.3 19.5 L 139.5 20.8 L 137.5 16.9 L 135.5 20.8 L 133.7 19.5 " fill="#191919"/>
<path class="atom-2" d="M 8.5 38.6 L 11.5 35.5 L 7.5 34.6 L 8.1 32.6 L 11.8 34.4 L 11.3 30.4 L 13.5 30.3 L 12.9 34.4 L 16.7 32.7 L 17.3 34.6 L 13.2 35.4 L 16.1 38.5 L 14.3 39.8 L 12.3 36.0 L 10.3 39.8 L 8.5 38.6 " fill="#191919"/>
<path class="atom-3" d="M 87.6 137.5 L 90.6 134.4 L 86.6 133.5 L 87.2 131.5 L 90.9 133.3 L 90.4 129.3 L 92.6 129.2 L 92.0 133.3 L 95.8 131.6 L 96.4 133.5 L 92.3 134.3 L 95.2 137.4 L 93.5 138.7 L 91.4 134.9 L 89.4 138.7 L 87.6 137.5 " fill="#191919"/>
</svg>