<svg xmlns="http://www.w3.org/2000/svg" xmlns:rdkit="http://www.rdkit.org/xml" xmlns:xlink="http://www.w3.org/1999/xlink" version="1.1" baseProfile="full" xml:space="preserve" width="150px" height="150px" viewBox="0 0 150 150">
<!-- END OF HEADER -->
<rect style="opacity:1.0;fill:#FFFFFF;stroke:none" width="150.0" height="150.0" x="0.0" y="0.0"> </rect>
<ellipse cx="57.1" cy="81.0" rx="14.5" ry="14.5" class="atom-1" style="fill:#9999E5;fill-rule:evenodd;stroke:#9999E5;stroke-width:1.0px;stroke-linecap:butt;stroke-linejoin:miter;stroke-opacity:1"/>
<path class="bond-0 atom-0 atom-1" d="M 122.4,81.4 L 57.1,81.0" style="fill:none;fill-rule:evenodd;stroke:#E5E5E5;stroke-width:3.9px;stroke-linecap:butt;stroke-linejoin:miter;stroke-opacity:1"/>
<path class="bond-1 atom-1 atom-2" d="M 63.4,81.0 L 26.8,16.6" style="fill:none;fill-rule:evenodd;stroke:#E5E5E5;stroke-width:3.9px;stroke-linecap:butt;stroke-linejoin:miter;stroke-opacity:1"/>
<path class="bond-1 atom-1 atom-2" d="M 53.9,86.4 L 17.3,22.0" style="fill:none;fill-rule:evenodd;stroke:#E5E5E5;stroke-width:3.9px;stroke-linecap:butt;stroke-linejoin:miter;stroke-opacity:1"/>
<path class="bond-2 atom-1 atom-3" d="M 57.1,81.0 L 27.6,131.2" style="fill:none;fill-rule:evenodd;stroke:#E5E5E5;stroke-width:3.9px;stroke-linecap:butt;stroke-linejoin:miter;stroke-opacity:1"/>
<path d="M 60.3,81.0 L 57.1,81.0 L 55.6,83.5" style="fill:none;stroke:#E5E5E5;stroke-width:3.9px;stroke-linecap:butt;stroke-linejoin:miter;stroke-opacity:1;"/>
<path class="atom-0" d="M 125.7 79.2 L 128.7 76.1 L 124.7 75.3 L 125.4 73.3 L 129.0 75.1 L 128.5 71.1 L 130.7 71.0 L 130.1 75.1 L 133.8 73.3 L 134.5 75.3 L 130.4 76.1 L 133.3 79.2 L 131.5 80.4 L 129.5 76.6 L 127.5 80.4 L 125.7 79.2 " fill="#191919"/>
<path class="atom-2" d="M 17.4 15.7 L 20.4 12.6 L 16.4 11.8 L 17.0 9.7 L 20.7 11.6 L 20.2 7.5 L 22.3 7.5 L 21.7 11.5 L 25.5 9.8 L 26.1 11.8 L 22.1 12.5 L 25.0 15.6 L 23.2 16.9 L 21.2 13.1 L 19.2 16.9 L 17.4 15.7 " fill="#191919"/>
<path class="atom-3" d="M 16.5 141.3 L 19.5 138.2 L 15.5 137.4 L 16.1 135.3 L 19.8 137.2 L 19.3 133.1 L 21.5 133.1 L 20.9 137.1 L 24.6 135.4 L 25.3 137.4 L 21.2 138.1 L 24.1 141.2 L 22.3 142.5 L 20.3 138.7 L 18.3 142.5 L 16.5 141.3 " fill="#191919"/>
</svg>