<svg xmlns="http://www.w3.org/2000/svg" xmlns:rdkit="http://www.rdkit.org/xml" xmlns:xlink="http://www.w3.org/1999/xlink" version="1.1" baseProfile="full" xml:space="preserve" width="150px" height="150px" viewBox="0 0 150 150">
<!-- END OF HEADER -->
<rect style="opacity:1.0;fill:#FFFFFF;stroke:none" width="150.0" height="150.0" x="0.0" y="0.0"> </rect>
<ellipse cx="52.1" cy="93.5" rx="8.4" ry="8.4" class="atom-1" style="fill:#E5E533;fill-rule:evenodd;stroke:#E5E533;stroke-width:1.0px;stroke-linecap:butt;stroke-linejoin:miter;stroke-opacity:1"/>
<ellipse cx="75.0" cy="58.5" rx="8.4" ry="8.4" class="atom-3" style="fill:#9999E5;fill-rule:evenodd;stroke:#9999E5;stroke-width:1.0px;stroke-linecap:butt;stroke-linejoin:miter;stroke-opacity:1"/>
<ellipse cx="116.8" cy="60.8" rx="8.4" ry="8.4" class="atom-4" style="fill:#E5E533;fill-rule:evenodd;stroke:#E5E533;stroke-width:1.0px;stroke-linecap:butt;stroke-linejoin:miter;stroke-opacity:1"/>
<path class="bond-0 atom-0 atom-1" d="M 64.4,124.8 L 48.5,93.3" style="fill:none;fill-rule:evenodd;stroke:#E5E5E5;stroke-width:2.2px;stroke-linecap:butt;stroke-linejoin:miter;stroke-opacity:1"/>
<path class="bond-0 atom-0 atom-1" d="M 70.0,122.0 L 54.1,90.4" style="fill:none;fill-rule:evenodd;stroke:#E5E5E5;stroke-width:2.2px;stroke-linecap:butt;stroke-linejoin:miter;stroke-opacity:1;stroke-dasharray:6,4"/>
<path class="bond-1 atom-1 atom-2" d="M 52.1,93.5 L 14.5,91.4" style="fill:none;fill-rule:evenodd;stroke:#E5E5E5;stroke-width:2.2px;stroke-linecap:butt;stroke-linejoin:miter;stroke-opacity:1"/>
<path class="bond-2 atom-1 atom-3" d="M 52.1,93.5 L 75.0,58.5" style="fill:none;fill-rule:evenodd;stroke:#000000;stroke-width:2.0px;stroke-linecap:butt;stroke-linejoin:miter;stroke-opacity:1"/>
<path class="bond-2 atom-1 atom-3" d="M 59.3,93.9 L 78.3,64.9" style="fill:none;fill-rule:evenodd;stroke:#000000;stroke-width:2.0px;stroke-linecap:butt;stroke-linejoin:miter;stroke-opacity:1;stroke-dasharray:6,4"/>
<path class="bond-3 atom-3 atom-4" d="M 75.0,58.5 L 116.8,60.8" style="fill:none;fill-rule:evenodd;stroke:#000000;stroke-width:2.0px;stroke-linecap:butt;stroke-linejoin:miter;stroke-opacity:1"/>
<path class="bond-3 atom-3 atom-4" d="M 78.3,64.9 L 112.8,66.9" style="fill:none;fill-rule:evenodd;stroke:#000000;stroke-width:2.0px;stroke-linecap:butt;stroke-linejoin:miter;stroke-opacity:1;stroke-dasharray:6,4"/>
<path class="bond-4 atom-4 atom-5" d="M 116.8,60.8 L 139.2,26.6" style="fill:none;fill-rule:evenodd;stroke:#E5E5E5;stroke-width:2.2px;stroke-linecap:butt;stroke-linejoin:miter;stroke-opacity:1"/>
<path class="bond-5 atom-4 atom-6" d="M 113.2,60.6 L 129.1,92.2" style="fill:none;fill-rule:evenodd;stroke:#E5E5E5;stroke-width:2.2px;stroke-linecap:butt;stroke-linejoin:miter;stroke-opacity:1"/>
<path class="bond-5 atom-4 atom-6" d="M 118.8,57.8 L 134.7,89.3" style="fill:none;fill-rule:evenodd;stroke:#E5E5E5;stroke-width:2.2px;stroke-linecap:butt;stroke-linejoin:miter;stroke-opacity:1;stroke-dasharray:6,4"/>
<path d="M 73.9,60.2 L 75.0,58.5 L 77.1,58.6" style="fill:none;stroke:#000000;stroke-width:2.0px;stroke-linecap:butt;stroke-linejoin:miter;stroke-opacity:1;"/>
<path class="atom-0" d="M 68.7 129.5 L 70.4 127.7 L 68.1 127.3 L 68.5 126.1 L 70.6 127.1 L 70.3 124.8 L 71.6 124.8 L 71.2 127.1 L 73.4 126.1 L 73.7 127.3 L 71.4 127.7 L 73.1 129.5 L 72.1 130.2 L 70.9 128.0 L 69.7 130.2 L 68.7 129.5 " fill="#191919"/>
<path class="atom-2" d="M 8.1 89.8 L 9.8 88.0 L 7.5 87.6 L 7.9 86.4 L 10.0 87.5 L 9.7 85.1 L 10.9 85.1 L 10.6 87.4 L 12.7 86.4 L 13.1 87.6 L 10.8 88.0 L 12.4 89.8 L 11.4 90.5 L 10.3 88.3 L 9.1 90.5 L 8.1 89.8 " fill="#191919"/>
<path class="atom-5" d="M 137.5 24.5 L 139.2 22.7 L 136.9 22.2 L 137.2 21.0 L 139.4 22.1 L 139.1 19.8 L 140.3 19.8 L 140.0 22.1 L 142.1 21.1 L 142.5 22.2 L 140.2 22.7 L 141.8 24.5 L 140.8 25.2 L 139.7 23.0 L 138.5 25.2 L 137.5 24.5 " fill="#191919"/>
<path class="atom-6" d="M 133.4 96.8 L 135.1 95.1 L 132.8 94.6 L 133.2 93.4 L 135.3 94.5 L 135.0 92.2 L 136.3 92.1 L 135.9 94.5 L 138.1 93.5 L 138.4 94.6 L 136.1 95.0 L 137.8 96.8 L 136.8 97.6 L 135.6 95.3 L 134.4 97.6 L 133.4 96.8 " fill="#191919"/>
</svg>