<svg xmlns="http://www.w3.org/2000/svg" xmlns:rdkit="http://www.rdkit.org/xml" xmlns:xlink="http://www.w3.org/1999/xlink" version="1.1" baseProfile="full" xml:space="preserve" width="150px" height="150px" viewBox="0 0 150 150">
<!-- END OF HEADER -->
<rect style="opacity:1.0;fill:#FFFFFF;stroke:none" width="150.0" height="150.0" x="0.0" y="0.0"> </rect>
<ellipse cx="61.1" cy="75.9" rx="14.6" ry="14.6" class="atom-1" style="fill:#9999E5;fill-rule:evenodd;stroke:#9999E5;stroke-width:1.0px;stroke-linecap:butt;stroke-linejoin:miter;stroke-opacity:1"/>
<path class="bond-0 atom-0 atom-1" d="M 17.5,19.4 L 61.1,75.9" style="fill:none;fill-rule:evenodd;stroke:#E5E5E5;stroke-width:3.9px;stroke-linecap:butt;stroke-linejoin:miter;stroke-opacity:1"/>
<path class="bond-1 atom-1 atom-2" d="M 57.2,70.9 L 33.5,128.5" style="fill:none;fill-rule:evenodd;stroke:#E5E5E5;stroke-width:3.9px;stroke-linecap:butt;stroke-linejoin:miter;stroke-opacity:1"/>
<path class="bond-1 atom-1 atom-2" d="M 67.4,75.1 L 43.7,132.7" style="fill:none;fill-rule:evenodd;stroke:#E5E5E5;stroke-width:3.9px;stroke-linecap:butt;stroke-linejoin:miter;stroke-opacity:1"/>
<path class="bond-2 atom-1 atom-3" d="M 61.1,75.9 L 126.2,67.2" style="fill:none;fill-rule:evenodd;stroke:#E5E5E5;stroke-width:3.9px;stroke-linecap:butt;stroke-linejoin:miter;stroke-opacity:1"/>
<path d="M 58.9,73.1 L 61.1,75.9 L 64.3,75.5" style="fill:none;stroke:#E5E5E5;stroke-width:3.9px;stroke-linecap:butt;stroke-linejoin:miter;stroke-opacity:1;"/>
<path class="atom-0" d="M 12.5 15.7 L 15.6 12.6 L 11.5 11.8 L 12.2 9.7 L 15.9 11.6 L 15.3 7.5 L 17.5 7.5 L 16.9 11.6 L 20.7 9.8 L 21.3 11.8 L 17.2 12.6 L 20.2 15.7 L 18.4 17.0 L 16.4 13.1 L 14.3 17.0 L 12.5 15.7 " fill="#191919"/>
<path class="atom-2" d="M 29.4 141.2 L 32.4 138.1 L 28.4 137.3 L 29.0 135.2 L 32.7 137.1 L 32.2 133.1 L 34.4 133.0 L 33.7 137.1 L 37.5 135.3 L 38.2 137.3 L 34.1 138.1 L 37.0 141.2 L 35.2 142.5 L 33.2 138.6 L 31.1 142.5 L 29.4 141.2 " fill="#191919"/>
<path class="atom-3" d="M 129.7 63.9 L 132.7 60.8 L 128.7 60.0 L 129.3 57.9 L 133.0 59.8 L 132.5 55.7 L 134.7 55.7 L 134.0 59.8 L 137.8 58.0 L 138.5 60.0 L 134.4 60.8 L 137.3 63.9 L 135.5 65.2 L 133.5 61.3 L 131.4 65.2 L 129.7 63.9 " fill="#191919"/>
</svg>