<svg xmlns="http://www.w3.org/2000/svg" xmlns:rdkit="http://www.rdkit.org/xml" xmlns:xlink="http://www.w3.org/1999/xlink" version="1.1" baseProfile="full" xml:space="preserve" width="150px" height="150px" viewBox="0 0 150 150">
<!-- END OF HEADER -->
<rect style="opacity:1.0;fill:#FFFFFF;stroke:none" width="150.0" height="150.0" x="0.0" y="0.0"> </rect>
<ellipse cx="61.5" cy="75.5" rx="14.6" ry="14.6" class="atom-1" style="fill:#9999E5;fill-rule:evenodd;stroke:#9999E5;stroke-width:1.0px;stroke-linecap:butt;stroke-linejoin:miter;stroke-opacity:1"/>
<path class="bond-0 atom-0 atom-1" d="M 17.1,19.4 L 61.5,75.5" style="fill:none;fill-rule:evenodd;stroke:#E5E5E5;stroke-width:3.9px;stroke-linecap:butt;stroke-linejoin:miter;stroke-opacity:1"/>
<path class="bond-1 atom-1 atom-2" d="M 57.5,70.5 L 34.5,128.6" style="fill:none;fill-rule:evenodd;stroke:#E5E5E5;stroke-width:3.9px;stroke-linecap:butt;stroke-linejoin:miter;stroke-opacity:1"/>
<path class="bond-1 atom-1 atom-2" d="M 67.7,74.6 L 44.7,132.6" style="fill:none;fill-rule:evenodd;stroke:#E5E5E5;stroke-width:3.9px;stroke-linecap:butt;stroke-linejoin:miter;stroke-opacity:1"/>
<path class="bond-2 atom-1 atom-3" d="M 61.5,75.5 L 126.6,66.0" style="fill:none;fill-rule:evenodd;stroke:#E5E5E5;stroke-width:3.9px;stroke-linecap:butt;stroke-linejoin:miter;stroke-opacity:1"/>
<path d="M 59.3,72.7 L 61.5,75.5 L 64.7,75.0" style="fill:none;stroke:#E5E5E5;stroke-width:3.9px;stroke-linecap:butt;stroke-linejoin:miter;stroke-opacity:1;"/>
<path class="atom-0" d="M 12.2 15.7 L 15.2 12.6 L 11.2 11.8 L 11.8 9.7 L 15.5 11.6 L 15.0 7.5 L 17.2 7.5 L 16.6 11.6 L 20.3 9.8 L 21.0 11.8 L 16.9 12.6 L 19.8 15.7 L 18.0 17.0 L 16.0 13.1 L 13.9 17.0 L 12.2 15.7 " fill="#191919"/>
<path class="atom-2" d="M 30.5 141.2 L 33.5 138.1 L 29.5 137.3 L 30.1 135.2 L 33.8 137.1 L 33.3 133.0 L 35.5 133.0 L 34.9 137.1 L 38.7 135.3 L 39.3 137.3 L 35.2 138.1 L 38.1 141.2 L 36.4 142.5 L 34.3 138.6 L 32.3 142.5 L 30.5 141.2 " fill="#191919"/>
<path class="atom-3" d="M 130.0 62.6 L 133.1 59.5 L 129.0 58.7 L 129.6 56.6 L 133.4 58.5 L 132.8 54.4 L 135.0 54.4 L 134.4 58.4 L 138.2 56.7 L 138.8 58.7 L 134.7 59.4 L 137.7 62.6 L 135.9 63.9 L 133.9 60.0 L 131.8 63.9 L 130.0 62.6 " fill="#191919"/>
</svg>