<svg xmlns="http://www.w3.org/2000/svg" xmlns:rdkit="http://www.rdkit.org/xml" xmlns:xlink="http://www.w3.org/1999/xlink" version="1.1" baseProfile="full" xml:space="preserve" width="150px" height="150px" viewBox="0 0 150 150">
<!-- END OF HEADER -->
<rect style="opacity:1.0;fill:#FFFFFF;stroke:none" width="150.0" height="150.0" x="0.0" y="0.0"> </rect>
<ellipse cx="77.1" cy="127.6" rx="13.0" ry="13.0" class="atom-1" style="fill:#CCCCCC;fill-rule:evenodd;stroke:#CCCCCC;stroke-width:1.0px;stroke-linecap:butt;stroke-linejoin:miter;stroke-opacity:1"/>
<ellipse cx="72.9" cy="22.4" rx="13.0" ry="13.0" class="atom-4" style="fill:#CCCCCC;fill-rule:evenodd;stroke:#CCCCCC;stroke-width:1.0px;stroke-linecap:butt;stroke-linejoin:miter;stroke-opacity:1"/>
<ellipse cx="113.2" cy="73.5" rx="13.0" ry="13.0" class="atom-5" style="fill:#9999E5;fill-rule:evenodd;stroke:#9999E5;stroke-width:1.0px;stroke-linecap:butt;stroke-linejoin:miter;stroke-opacity:1"/>
<path class="bond-0 atom-0 atom-1" d="M 134.9,106.2 L 77.1,127.6" style="fill:none;fill-rule:evenodd;stroke:#E5E5E5;stroke-width:3.5px;stroke-linecap:butt;stroke-linejoin:miter;stroke-opacity:1"/>
<path class="bond-1 atom-1 atom-2" d="M 77.1,127.6 L 18.8,111.2" style="fill:none;fill-rule:evenodd;stroke:#E5E5E5;stroke-width:3.5px;stroke-linecap:butt;stroke-linejoin:miter;stroke-opacity:1"/>
<path class="bond-2 atom-3 atom-4" d="M 18.4,42.6 L 72.9,22.4" style="fill:none;fill-rule:evenodd;stroke:#E5E5E5;stroke-width:3.5px;stroke-linecap:butt;stroke-linejoin:miter;stroke-opacity:1"/>
<path class="bond-3 atom-4 atom-5" d="M 72.9,22.4 L 113.2,73.5" style="fill:none;fill-rule:evenodd;stroke:#000000;stroke-width:2.0px;stroke-linecap:butt;stroke-linejoin:miter;stroke-opacity:1"/>
<path class="bond-4 atom-4 atom-6" d="M 72.9,22.4 L 129.0,38.2" style="fill:none;fill-rule:evenodd;stroke:#E5E5E5;stroke-width:3.5px;stroke-linecap:butt;stroke-linejoin:miter;stroke-opacity:1"/>
<path class="bond-5 atom-5 atom-1" d="M 113.2,73.5 L 77.1,127.6" style="fill:none;fill-rule:evenodd;stroke:#000000;stroke-width:2.0px;stroke-linecap:butt;stroke-linejoin:miter;stroke-opacity:1"/>
<path d="M 111.2,70.9 L 113.2,73.5 L 111.4,76.2" style="fill:none;stroke:#000000;stroke-width:2.0px;stroke-linecap:butt;stroke-linejoin:miter;stroke-opacity:1;"/>
<path class="atom-0" d="M 134.7 102.9 L 137.4 100.2 L 133.8 99.5 L 134.3 97.6 L 137.6 99.3 L 137.2 95.7 L 139.1 95.6 L 138.6 99.3 L 141.9 97.7 L 142.5 99.5 L 138.9 100.1 L 141.5 102.9 L 139.9 104.1 L 138.1 100.6 L 136.3 104.1 L 134.7 102.9 " fill="#191919"/>
<path class="atom-2" d="M 11.0 107.9 L 13.7 105.2 L 10.1 104.5 L 10.7 102.6 L 14.0 104.3 L 13.5 100.7 L 15.5 100.6 L 14.9 104.3 L 18.3 102.7 L 18.8 104.5 L 15.2 105.1 L 17.8 107.9 L 16.2 109.1 L 14.4 105.6 L 12.6 109.1 L 11.0 107.9 " fill="#191919"/>
<path class="atom-3" d="M 8.4 42.9 L 11.1 40.2 L 7.5 39.5 L 8.0 37.6 L 11.4 39.3 L 10.9 35.7 L 12.8 35.6 L 12.3 39.2 L 15.6 37.7 L 16.2 39.5 L 12.6 40.1 L 15.2 42.9 L 13.6 44.1 L 11.8 40.6 L 10.0 44.1 L 8.4 42.9 " fill="#191919"/>
<path class="atom-6" d="M 132.0 37.9 L 134.7 35.2 L 131.2 34.5 L 131.7 32.6 L 135.0 34.3 L 134.5 30.7 L 136.5 30.6 L 135.9 34.2 L 139.3 32.7 L 139.9 34.5 L 136.2 35.1 L 138.8 37.9 L 137.2 39.1 L 135.4 35.6 L 133.6 39.1 L 132.0 37.9 " fill="#191919"/>
</svg>