<svg xmlns="http://www.w3.org/2000/svg" xmlns:rdkit="http://www.rdkit.org/xml" xmlns:xlink="http://www.w3.org/1999/xlink" version="1.1" baseProfile="full" xml:space="preserve" width="150px" height="150px" viewBox="0 0 150 150">
<!-- END OF HEADER -->
<rect style="opacity:1.0;fill:#FFFFFF;stroke:none" width="150.0" height="150.0" x="0.0" y="0.0"> </rect>
<ellipse cx="66.2" cy="122.1" rx="20.3" ry="20.3" class="atom-1" style="fill:#9999E5;fill-rule:evenodd;stroke:#9999E5;stroke-width:1.0px;stroke-linecap:butt;stroke-linejoin:miter;stroke-opacity:1"/>
<path class="bond-0 atom-0 atom-1" d="M 51.2,23.9 L 63.5,104.5" style="fill:none;fill-rule:evenodd;stroke:#E5E5E5;stroke-width:5.4px;stroke-linecap:butt;stroke-linejoin:miter;stroke-opacity:1"/>
<path class="atom-0" d="M 45.6 18.8 L 49.8 14.6 L 44.2 13.5 L 45.1 10.6 L 50.2 13.2 L 49.4 7.6 L 52.4 7.6 L 51.6 13.2 L 56.8 10.8 L 57.6 13.5 L 52.0 14.5 L 56.0 18.8 L 53.6 20.6 L 50.8 15.3 L 48.0 20.6 L 45.6 18.8 " fill="#191919"/>
<path class="atom-1" d="M 53.2 122.2 Q 53.2 115.4, 56.6 111.6 Q 59.9 107.8, 66.2 107.8 Q 72.5 107.8, 75.8 111.6 Q 79.2 115.4, 79.2 122.2 Q 79.2 129.1, 75.8 133.0 Q 72.4 136.9, 66.2 136.9 Q 60.0 136.9, 56.6 133.0 Q 53.2 129.1, 53.2 122.2 M 66.2 133.7 Q 70.5 133.7, 72.8 130.8 Q 75.2 127.9, 75.2 122.2 Q 75.2 116.7, 72.8 113.9 Q 70.5 111.0, 66.2 111.0 Q 61.9 111.0, 59.5 113.8 Q 57.2 116.6, 57.2 122.2 Q 57.2 127.9, 59.5 130.8 Q 61.9 133.7, 66.2 133.7 " fill="#FF0000"/>
<path class="atom-1" d="M 83.6 108.1 L 87.4 108.1 L 87.4 120.2 L 101.9 120.2 L 101.9 108.1 L 105.8 108.1 L 105.8 136.5 L 101.9 136.5 L 101.9 123.4 L 87.4 123.4 L 87.4 136.5 L 83.6 136.5 L 83.6 108.1 " fill="#FF0000"/>
</svg>