<svg xmlns="http://www.w3.org/2000/svg" xmlns:rdkit="http://www.rdkit.org/xml" xmlns:xlink="http://www.w3.org/1999/xlink" version="1.1" baseProfile="full" xml:space="preserve" width="150px" height="150px" viewBox="0 0 150 150">
<!-- END OF HEADER -->
<rect style="opacity:1.0;fill:#FFFFFF;stroke:none" width="150.0" height="150.0" x="0.0" y="0.0"> </rect>
<ellipse cx="96.8" cy="75.0" rx="5.8" ry="5.8" class="atom-3" style="fill:#E5E533;fill-rule:evenodd;stroke:#E5E533;stroke-width:1.0px;stroke-linecap:butt;stroke-linejoin:miter;stroke-opacity:1"/>
<ellipse cx="82.3" cy="100.2" rx="5.8" ry="5.8" class="atom-4" style="fill:#9999E5;fill-rule:evenodd;stroke:#9999E5;stroke-width:1.0px;stroke-linecap:butt;stroke-linejoin:miter;stroke-opacity:1"/>
<ellipse cx="53.2" cy="100.2" rx="5.8" ry="5.8" class="atom-5" style="fill:#E5E533;fill-rule:evenodd;stroke:#E5E533;stroke-width:1.0px;stroke-linecap:butt;stroke-linejoin:miter;stroke-opacity:1"/>
<ellipse cx="38.6" cy="75.0" rx="5.8" ry="5.8" class="atom-6" style="fill:#E5E533;fill-rule:evenodd;stroke:#E5E533;stroke-width:1.0px;stroke-linecap:butt;stroke-linejoin:miter;stroke-opacity:1"/>
<ellipse cx="82.3" cy="49.8" rx="5.8" ry="5.8" class="atom-9" style="fill:#E5E533;fill-rule:evenodd;stroke:#E5E533;stroke-width:1.0px;stroke-linecap:butt;stroke-linejoin:miter;stroke-opacity:1"/>
<path class="bond-0 atom-0 atom-1" d="M 137.6,95.2 L 126.0,75.0" style="fill:none;fill-rule:evenodd;stroke:#E5E5E5;stroke-width:1.6px;stroke-linecap:butt;stroke-linejoin:miter;stroke-opacity:1"/>
<path class="bond-1 atom-1 atom-2" d="M 126.0,75.0 L 140.2,50.3" style="fill:none;fill-rule:evenodd;stroke:#E5E5E5;stroke-width:1.6px;stroke-linecap:butt;stroke-linejoin:miter;stroke-opacity:1"/>
<path class="bond-2 atom-1 atom-3" d="M 126.0,75.0 L 96.8,75.0" style="fill:none;fill-rule:evenodd;stroke:#000000;stroke-width:2.0px;stroke-linecap:butt;stroke-linejoin:miter;stroke-opacity:1"/>
<path class="bond-3 atom-3 atom-4" d="M 96.8,75.0 L 82.3,100.2" style="fill:none;fill-rule:evenodd;stroke:#000000;stroke-width:2.0px;stroke-linecap:butt;stroke-linejoin:miter;stroke-opacity:1"/>
<path class="bond-3 atom-3 atom-4" d="M 91.8,75.0 L 79.8,95.9" style="fill:none;fill-rule:evenodd;stroke:#000000;stroke-width:2.0px;stroke-linecap:butt;stroke-linejoin:miter;stroke-opacity:1"/>
<path class="bond-4 atom-4 atom-5" d="M 82.3,100.2 L 53.2,100.2" style="fill:none;fill-rule:evenodd;stroke:#000000;stroke-width:2.0px;stroke-linecap:butt;stroke-linejoin:miter;stroke-opacity:1"/>
<path class="bond-5 atom-5 atom-6" d="M 53.2,100.2 L 38.6,75.0" style="fill:none;fill-rule:evenodd;stroke:#000000;stroke-width:2.0px;stroke-linecap:butt;stroke-linejoin:miter;stroke-opacity:1"/>
<path class="bond-5 atom-5 atom-6" d="M 55.7,95.9 L 43.6,75.0" style="fill:none;fill-rule:evenodd;stroke:#000000;stroke-width:2.0px;stroke-linecap:butt;stroke-linejoin:miter;stroke-opacity:1"/>
<path class="bond-6 atom-6 atom-7" d="M 38.6,75.0 L 12.4,75.0" style="fill:none;fill-rule:evenodd;stroke:#E5E5E5;stroke-width:1.6px;stroke-linecap:butt;stroke-linejoin:miter;stroke-opacity:1"/>
<path class="bond-7 atom-6 atom-8" d="M 38.6,75.0 L 52.8,50.3" style="fill:none;fill-rule:evenodd;stroke:#E5E5E5;stroke-width:1.6px;stroke-linecap:butt;stroke-linejoin:miter;stroke-opacity:1"/>
<path class="bond-8 atom-8 atom-9" d="M 56.1,49.8 L 82.3,49.8" style="fill:none;fill-rule:evenodd;stroke:#E5E5E5;stroke-width:1.6px;stroke-linecap:butt;stroke-linejoin:miter;stroke-opacity:1"/>
<path class="bond-8 atom-8 atom-9" d="M 56.1,54.1 L 79.8,54.1" style="fill:none;fill-rule:evenodd;stroke:#E5E5E5;stroke-width:1.6px;stroke-linecap:butt;stroke-linejoin:miter;stroke-opacity:1"/>
<path class="bond-9 atom-9 atom-3" d="M 82.3,49.8 L 96.8,75.0" style="fill:none;fill-rule:evenodd;stroke:#000000;stroke-width:2.0px;stroke-linecap:butt;stroke-linejoin:miter;stroke-opacity:1"/>
<path d="M 83.0,99.0 L 82.3,100.2 L 80.8,100.2" style="fill:none;stroke:#000000;stroke-width:2.0px;stroke-linecap:butt;stroke-linejoin:miter;stroke-opacity:1;"/>
<path d="M 54.6,100.2 L 53.2,100.2 L 52.4,99.0" style="fill:none;stroke:#000000;stroke-width:2.0px;stroke-linecap:butt;stroke-linejoin:miter;stroke-opacity:1;"/>
<path d="M 81.6,49.8 L 82.3,49.8 L 82.6,50.4" style="fill:none;stroke:#E5E5E5;stroke-width:1.6px;stroke-linecap:butt;stroke-linejoin:miter;stroke-opacity:1;"/>
<path class="atom-0" d="M 139.0 99.3 L 140.2 98.1 L 138.6 97.7 L 138.8 96.9 L 140.3 97.7 L 140.1 96.0 L 141.0 96.0 L 140.7 97.7 L 142.2 97.0 L 142.5 97.7 L 140.9 98.1 L 142.0 99.3 L 141.3 99.8 L 140.5 98.3 L 139.7 99.8 L 139.0 99.3 " fill="#191919"/>
<path class="atom-2" d="M 139.0 48.8 L 140.2 47.6 L 138.6 47.3 L 138.8 46.5 L 140.3 47.2 L 140.1 45.6 L 141.0 45.6 L 140.7 47.2 L 142.2 46.5 L 142.5 47.3 L 140.9 47.6 L 142.0 48.8 L 141.3 49.4 L 140.5 47.8 L 139.7 49.4 L 139.0 48.8 " fill="#191919"/>
<path class="atom-7" d="M 7.9 74.1 L 9.1 72.8 L 7.5 72.5 L 7.7 71.7 L 9.2 72.4 L 9.0 70.8 L 9.9 70.8 L 9.6 72.4 L 11.1 71.7 L 11.4 72.5 L 9.8 72.8 L 10.9 74.1 L 10.2 74.6 L 9.4 73.0 L 8.6 74.6 L 7.9 74.1 " fill="#191919"/>
<path class="atom-8" d="M 51.6 48.8 L 52.8 47.6 L 51.2 47.3 L 51.4 46.5 L 52.9 47.2 L 52.7 45.6 L 53.6 45.6 L 53.3 47.2 L 54.8 46.5 L 55.1 47.3 L 53.5 47.6 L 54.6 48.8 L 53.9 49.4 L 53.1 47.8 L 52.3 49.4 L 51.6 48.8 " fill="#191919"/>
</svg>