<svg xmlns="http://www.w3.org/2000/svg" xmlns:rdkit="http://www.rdkit.org/xml" xmlns:xlink="http://www.w3.org/1999/xlink" version="1.1" baseProfile="full" xml:space="preserve" width="150px" height="150px" viewBox="0 0 150 150">
<!-- END OF HEADER -->
<rect style="opacity:1.0;fill:#FFFFFF;stroke:none" width="150.0" height="150.0" x="0.0" y="0.0"> </rect>
<ellipse cx="40.7" cy="84.1" rx="6.9" ry="6.9" class="atom-1" style="fill:#CCCCCC;fill-rule:evenodd;stroke:#CCCCCC;stroke-width:1.0px;stroke-linecap:butt;stroke-linejoin:miter;stroke-opacity:1"/>
<ellipse cx="48.5" cy="50.3" rx="6.9" ry="6.9" class="atom-2" style="fill:#CCCCCC;fill-rule:evenodd;stroke:#CCCCCC;stroke-width:1.0px;stroke-linecap:butt;stroke-linejoin:miter;stroke-opacity:1"/>
<ellipse cx="107.0" cy="64.0" rx="6.9" ry="6.9" class="atom-4" style="fill:#CCCCCC;fill-rule:evenodd;stroke:#CCCCCC;stroke-width:1.0px;stroke-linecap:butt;stroke-linejoin:miter;stroke-opacity:1"/>
<ellipse cx="99.1" cy="97.7" rx="6.9" ry="6.9" class="atom-5" style="fill:#CCCCCC;fill-rule:evenodd;stroke:#CCCCCC;stroke-width:1.0px;stroke-linecap:butt;stroke-linejoin:miter;stroke-opacity:1"/>
<ellipse cx="66.0" cy="107.8" rx="6.9" ry="6.9" class="atom-6" style="fill:#9999E5;fill-rule:evenodd;stroke:#9999E5;stroke-width:1.0px;stroke-linecap:butt;stroke-linejoin:miter;stroke-opacity:1"/>
<path class="bond-0 atom-0 atom-1" d="M 7.5,94.2 L 40.7,84.1" style="fill:none;fill-rule:evenodd;stroke:#000000;stroke-width:2.0px;stroke-linecap:butt;stroke-linejoin:miter;stroke-opacity:1"/>
<path class="bond-1 atom-1 atom-2" d="M 40.7,84.1 L 48.5,50.3" style="fill:none;fill-rule:evenodd;stroke:#000000;stroke-width:2.0px;stroke-linecap:butt;stroke-linejoin:miter;stroke-opacity:1"/>
<path class="bond-1 atom-1 atom-2" d="M 46.4,82.4 L 52.9,54.4" style="fill:none;fill-rule:evenodd;stroke:#000000;stroke-width:2.0px;stroke-linecap:butt;stroke-linejoin:miter;stroke-opacity:1"/>
<path class="bond-2 atom-2 atom-3" d="M 48.5,50.3 L 79.6,40.9" style="fill:none;fill-rule:evenodd;stroke:#E5E5E5;stroke-width:1.8px;stroke-linecap:butt;stroke-linejoin:miter;stroke-opacity:1"/>
<path class="bond-3 atom-3 atom-4" d="M 82.4,40.9 L 107.0,64.0" style="fill:none;fill-rule:evenodd;stroke:#E5E5E5;stroke-width:1.8px;stroke-linecap:butt;stroke-linejoin:miter;stroke-opacity:1"/>
<path class="bond-4 atom-4 atom-5" d="M 107.0,64.0 L 99.1,97.7" style="fill:none;fill-rule:evenodd;stroke:#000000;stroke-width:2.0px;stroke-linecap:butt;stroke-linejoin:miter;stroke-opacity:1"/>
<path class="bond-5 atom-5 atom-6" d="M 99.1,97.7 L 66.0,107.8" style="fill:none;fill-rule:evenodd;stroke:#000000;stroke-width:2.0px;stroke-linecap:butt;stroke-linejoin:miter;stroke-opacity:1"/>
<path class="bond-6 atom-4 atom-7" d="M 107.0,64.0 L 138.1,54.5" style="fill:none;fill-rule:evenodd;stroke:#E5E5E5;stroke-width:1.8px;stroke-linecap:butt;stroke-linejoin:miter;stroke-opacity:1"/>
<path class="bond-7 atom-6 atom-1" d="M 66.0,107.8 L 40.7,84.1" style="fill:none;fill-rule:evenodd;stroke:#000000;stroke-width:2.0px;stroke-linecap:butt;stroke-linejoin:miter;stroke-opacity:1"/>
<path d="M 48.3,51.2 L 48.5,50.3 L 49.3,50.1" style="fill:none;stroke:#000000;stroke-width:2.0px;stroke-linecap:butt;stroke-linejoin:miter;stroke-opacity:1;"/>
<path d="M 99.5,96.0 L 99.1,97.7 L 97.5,98.2" style="fill:none;stroke:#000000;stroke-width:2.0px;stroke-linecap:butt;stroke-linejoin:miter;stroke-opacity:1;"/>
<path d="M 67.6,107.3 L 66.0,107.8 L 64.7,106.6" style="fill:none;stroke:#000000;stroke-width:2.0px;stroke-linecap:butt;stroke-linejoin:miter;stroke-opacity:1;"/>
<path class="atom-3" d="M 79.9 39.2 L 81.3 37.7 L 79.4 37.3 L 79.7 36.3 L 81.4 37.2 L 81.2 35.3 L 82.2 35.3 L 81.9 37.2 L 83.7 36.4 L 84.0 37.3 L 82.1 37.7 L 83.5 39.2 L 82.6 39.8 L 81.7 37.9 L 80.7 39.8 L 79.9 39.2 " fill="#191919"/>
<path class="atom-7" d="M 138.3 52.8 L 139.8 51.3 L 137.9 50.9 L 138.1 50.0 L 139.9 50.8 L 139.7 48.9 L 140.7 48.9 L 140.4 50.8 L 142.2 50.0 L 142.5 50.9 L 140.6 51.3 L 141.9 52.8 L 141.1 53.4 L 140.1 51.6 L 139.2 53.4 L 138.3 52.8 " fill="#191919"/>
</svg>