<svg xmlns="http://www.w3.org/2000/svg" xmlns:rdkit="http://www.rdkit.org/xml" xmlns:xlink="http://www.w3.org/1999/xlink" version="1.1" baseProfile="full" xml:space="preserve" width="150px" height="150px" viewBox="0 0 150 150">
<!-- END OF HEADER -->
<rect style="opacity:1.0;fill:#FFFFFF;stroke:none" width="150.0" height="150.0" x="0.0" y="0.0"> </rect>
<ellipse cx="73.7" cy="97.7" rx="14.5" ry="14.5" class="atom-1" style="fill:#9999E5;fill-rule:evenodd;stroke:#9999E5;stroke-width:1.0px;stroke-linecap:butt;stroke-linejoin:miter;stroke-opacity:1"/>
<path class="bond-0 atom-0 atom-1" d="M 19.6,131.6 L 73.7,97.7" style="fill:none;fill-rule:evenodd;stroke:#E5E5E5;stroke-width:3.9px;stroke-linecap:butt;stroke-linejoin:miter;stroke-opacity:1"/>
<path class="bond-1 atom-1 atom-2" d="M 73.7,97.7 L 71.0,26.7" style="fill:none;fill-rule:evenodd;stroke:#E5E5E5;stroke-width:3.9px;stroke-linecap:butt;stroke-linejoin:miter;stroke-opacity:1"/>
<path class="bond-2 atom-1 atom-3" d="M 68.4,101.0 L 127.9,132.5" style="fill:none;fill-rule:evenodd;stroke:#E5E5E5;stroke-width:3.9px;stroke-linecap:butt;stroke-linejoin:miter;stroke-opacity:1"/>
<path class="bond-2 atom-1 atom-3" d="M 73.4,91.4 L 133.0,122.9" style="fill:none;fill-rule:evenodd;stroke:#E5E5E5;stroke-width:3.9px;stroke-linecap:butt;stroke-linejoin:miter;stroke-opacity:1"/>
<path d="M 71.0,99.4 L 73.7,97.7 L 73.5,94.1" style="fill:none;stroke:#E5E5E5;stroke-width:3.9px;stroke-linecap:butt;stroke-linejoin:miter;stroke-opacity:1;"/>
<path class="atom-0" d="M 8.5 133.9 L 11.5 130.8 L 7.5 130.0 L 8.1 127.9 L 11.8 129.8 L 11.3 125.8 L 13.4 125.7 L 12.8 129.7 L 16.6 128.0 L 17.2 130.0 L 13.1 130.7 L 16.0 133.8 L 14.3 135.1 L 12.3 131.3 L 10.3 135.1 L 8.5 133.9 " fill="#191919"/>
<path class="atom-2" d="M 67.1 23.0 L 70.1 20.0 L 66.1 19.2 L 66.8 17.1 L 70.4 19.0 L 69.9 14.9 L 72.1 14.9 L 71.5 18.9 L 75.2 17.2 L 75.8 19.2 L 71.8 19.9 L 74.7 23.0 L 72.9 24.3 L 70.9 20.5 L 68.9 24.3 L 67.1 23.0 " fill="#191919"/>
<path class="atom-3" d="M 133.8 129.2 L 136.8 126.2 L 132.8 125.4 L 133.4 123.3 L 137.1 125.2 L 136.6 121.1 L 138.7 121.1 L 138.1 125.1 L 141.9 123.4 L 142.5 125.4 L 138.4 126.1 L 141.3 129.2 L 139.6 130.5 L 137.6 126.7 L 135.6 130.5 L 133.8 129.2 " fill="#191919"/>
</svg>