<svg xmlns="http://www.w3.org/2000/svg" xmlns:rdkit="http://www.rdkit.org/xml" xmlns:xlink="http://www.w3.org/1999/xlink" version="1.1" baseProfile="full" xml:space="preserve" width="150px" height="150px" viewBox="0 0 150 150">
<!-- END OF HEADER -->
<rect style="opacity:1.0;fill:#FFFFFF;stroke:none" width="150.0" height="150.0" x="0.0" y="0.0"> </rect>
<ellipse cx="95.6" cy="66.5" rx="8.9" ry="8.9" class="atom-1" style="fill:#E5E533;fill-rule:evenodd;stroke:#E5E533;stroke-width:1.0px;stroke-linecap:butt;stroke-linejoin:miter;stroke-opacity:1"/>
<ellipse cx="80.0" cy="108.1" rx="8.9" ry="8.9" class="atom-2" style="fill:#9999E5;fill-rule:evenodd;stroke:#9999E5;stroke-width:1.0px;stroke-linecap:butt;stroke-linejoin:miter;stroke-opacity:1"/>
<ellipse cx="36.1" cy="115.4" rx="8.9" ry="8.9" class="atom-3" style="fill:#E5E533;fill-rule:evenodd;stroke:#E5E533;stroke-width:1.0px;stroke-linecap:butt;stroke-linejoin:miter;stroke-opacity:1"/>
<path class="bond-0 atom-0 atom-1" d="M 70.7,30.9 L 99.4,65.9" style="fill:none;fill-rule:evenodd;stroke:#E5E5E5;stroke-width:2.4px;stroke-linecap:butt;stroke-linejoin:miter;stroke-opacity:1"/>
<path class="bond-0 atom-0 atom-1" d="M 65.6,35.1 L 94.3,70.1" style="fill:none;fill-rule:evenodd;stroke:#E5E5E5;stroke-width:2.4px;stroke-linecap:butt;stroke-linejoin:miter;stroke-opacity:1;stroke-dasharray:6,4"/>
<path class="bond-1 atom-1 atom-2" d="M 95.6,66.5 L 80.0,108.1" style="fill:none;fill-rule:evenodd;stroke:#000000;stroke-width:2.0px;stroke-linecap:butt;stroke-linejoin:miter;stroke-opacity:1"/>
<path class="bond-1 atom-1 atom-2" d="M 88.0,67.8 L 75.1,102.2" style="fill:none;fill-rule:evenodd;stroke:#000000;stroke-width:2.0px;stroke-linecap:butt;stroke-linejoin:miter;stroke-opacity:1;stroke-dasharray:6,4"/>
<path class="bond-2 atom-2 atom-3" d="M 80.0,108.1 L 36.1,115.4" style="fill:none;fill-rule:evenodd;stroke:#000000;stroke-width:2.0px;stroke-linecap:butt;stroke-linejoin:miter;stroke-opacity:1"/>
<path class="bond-2 atom-2 atom-3" d="M 75.1,102.2 L 38.8,108.2" style="fill:none;fill-rule:evenodd;stroke:#000000;stroke-width:2.0px;stroke-linecap:butt;stroke-linejoin:miter;stroke-opacity:1;stroke-dasharray:6,4"/>
<path class="bond-3 atom-1 atom-4" d="M 95.6,66.5 L 135.1,60.0" style="fill:none;fill-rule:evenodd;stroke:#E5E5E5;stroke-width:2.4px;stroke-linecap:butt;stroke-linejoin:miter;stroke-opacity:1"/>
<path class="bond-4 atom-3 atom-5" d="M 36.1,115.4 L 8.6,81.8" style="fill:none;fill-rule:evenodd;stroke:#E5E5E5;stroke-width:2.4px;stroke-linecap:butt;stroke-linejoin:miter;stroke-opacity:1"/>
<path class="bond-4 atom-3 atom-5" d="M 38.8,108.2 L 13.7,77.6" style="fill:none;fill-rule:evenodd;stroke:#E5E5E5;stroke-width:2.4px;stroke-linecap:butt;stroke-linejoin:miter;stroke-opacity:1;stroke-dasharray:6,4"/>
<path d="M 80.7,106.1 L 80.0,108.1 L 77.8,108.5" style="fill:none;stroke:#000000;stroke-width:2.0px;stroke-linecap:butt;stroke-linejoin:miter;stroke-opacity:1;"/>
<path d="M 37.2,115.2 L 36.1,115.4 L 35.4,114.5" style="fill:none;stroke:#000000;stroke-width:2.0px;stroke-linecap:butt;stroke-linejoin:miter;stroke-opacity:1;"/>
<path class="atom-0" d="M 65.1 30.7 L 66.9 28.9 L 64.5 28.4 L 64.9 27.1 L 67.1 28.2 L 66.8 25.8 L 68.1 25.7 L 67.7 28.2 L 70.0 27.2 L 70.4 28.4 L 67.9 28.8 L 69.7 30.7 L 68.6 31.5 L 67.4 29.2 L 66.2 31.5 L 65.1 30.7 " fill="#191919"/>
<path class="atom-4" d="M 137.1 57.9 L 139.0 56.0 L 136.5 55.5 L 136.9 54.3 L 139.2 55.4 L 138.9 52.9 L 140.2 52.9 L 139.8 55.4 L 142.1 54.3 L 142.5 55.5 L 140.0 56.0 L 141.8 57.9 L 140.7 58.7 L 139.5 56.3 L 138.2 58.7 L 137.1 57.9 " fill="#191919"/>
<path class="atom-5" d="M 8.1 77.5 L 10.0 75.6 L 7.5 75.1 L 7.9 73.8 L 10.1 74.9 L 9.8 72.5 L 11.1 72.5 L 10.8 74.9 L 13.1 73.9 L 13.5 75.1 L 11.0 75.5 L 12.7 77.4 L 11.7 78.2 L 10.4 75.9 L 9.2 78.2 L 8.1 77.5 " fill="#191919"/>
</svg>