<svg xmlns="http://www.w3.org/2000/svg" xmlns:rdkit="http://www.rdkit.org/xml" xmlns:xlink="http://www.w3.org/1999/xlink" version="1.1" baseProfile="full" xml:space="preserve" width="150px" height="150px" viewBox="0 0 150 150">
<!-- END OF HEADER -->
<rect style="opacity:1.0;fill:#FFFFFF;stroke:none" width="150.0" height="150.0" x="0.0" y="0.0"> </rect>
<ellipse cx="54.3" cy="89.8" rx="9.0" ry="9.0" class="atom-1" style="fill:#E5E533;fill-rule:evenodd;stroke:#E5E533;stroke-width:1.0px;stroke-linecap:butt;stroke-linejoin:miter;stroke-opacity:1"/>
<ellipse cx="67.6" cy="46.9" rx="9.0" ry="9.0" class="atom-2" style="fill:#9999E5;fill-rule:evenodd;stroke:#9999E5;stroke-width:1.0px;stroke-linecap:butt;stroke-linejoin:miter;stroke-opacity:1"/>
<ellipse cx="111.4" cy="36.9" rx="9.0" ry="9.0" class="atom-3" style="fill:#E5E533;fill-rule:evenodd;stroke:#E5E533;stroke-width:1.0px;stroke-linecap:butt;stroke-linejoin:miter;stroke-opacity:1"/>
<path class="bond-0 atom-0 atom-1" d="M 15.0,98.8 L 54.3,89.8" style="fill:none;fill-rule:evenodd;stroke:#E5E5E5;stroke-width:2.4px;stroke-linecap:butt;stroke-linejoin:miter;stroke-opacity:1"/>
<path class="bond-1 atom-1 atom-2" d="M 54.3,89.8 L 67.6,46.9" style="fill:none;fill-rule:evenodd;stroke:#000000;stroke-width:2.0px;stroke-linecap:butt;stroke-linejoin:miter;stroke-opacity:1"/>
<path class="bond-1 atom-1 atom-2" d="M 61.9,88.1 L 72.9,52.6" style="fill:none;fill-rule:evenodd;stroke:#000000;stroke-width:2.0px;stroke-linecap:butt;stroke-linejoin:miter;stroke-opacity:1;stroke-dasharray:6,4"/>
<path class="bond-2 atom-2 atom-3" d="M 67.6,46.9 L 111.4,36.9" style="fill:none;fill-rule:evenodd;stroke:#000000;stroke-width:2.0px;stroke-linecap:butt;stroke-linejoin:miter;stroke-opacity:1"/>
<path class="bond-2 atom-2 atom-3" d="M 72.9,52.6 L 109.1,44.3" style="fill:none;fill-rule:evenodd;stroke:#000000;stroke-width:2.0px;stroke-linecap:butt;stroke-linejoin:miter;stroke-opacity:1;stroke-dasharray:6,4"/>
<path class="bond-3 atom-3 atom-4" d="M 111.4,36.9 L 137.5,65.0" style="fill:none;fill-rule:evenodd;stroke:#E5E5E5;stroke-width:2.4px;stroke-linecap:butt;stroke-linejoin:miter;stroke-opacity:1"/>
<path class="bond-3 atom-3 atom-4" d="M 109.1,44.3 L 132.5,69.6" style="fill:none;fill-rule:evenodd;stroke:#E5E5E5;stroke-width:2.4px;stroke-linecap:butt;stroke-linejoin:miter;stroke-opacity:1;stroke-dasharray:6,4"/>
<path class="bond-4 atom-5 atom-1" d="M 77.9,120.2 L 50.5,90.7" style="fill:none;fill-rule:evenodd;stroke:#E5E5E5;stroke-width:2.4px;stroke-linecap:butt;stroke-linejoin:miter;stroke-opacity:1"/>
<path class="bond-4 atom-5 atom-1" d="M 82.9,115.6 L 55.5,86.1" style="fill:none;fill-rule:evenodd;stroke:#E5E5E5;stroke-width:2.4px;stroke-linecap:butt;stroke-linejoin:miter;stroke-opacity:1;stroke-dasharray:6,4"/>
<path d="M 66.9,49.0 L 67.6,46.9 L 69.8,46.4" style="fill:none;stroke:#000000;stroke-width:2.0px;stroke-linecap:butt;stroke-linejoin:miter;stroke-opacity:1;"/>
<path d="M 110.3,37.1 L 111.4,36.9 L 112.1,37.6" style="fill:none;stroke:#000000;stroke-width:2.0px;stroke-linecap:butt;stroke-linejoin:miter;stroke-opacity:1;"/>
<path class="atom-0" d="M 8.1 98.4 L 10.0 96.5 L 7.5 96.0 L 7.9 94.7 L 10.2 95.8 L 9.8 93.3 L 11.2 93.3 L 10.8 95.8 L 13.1 94.8 L 13.5 96.0 L 11.0 96.4 L 12.8 98.4 L 11.7 99.2 L 10.5 96.8 L 9.2 99.2 L 8.1 98.4 " fill="#191919"/>
<path class="atom-4" d="M 137.1 70.7 L 139.0 68.8 L 136.5 68.3 L 136.9 67.0 L 139.1 68.2 L 138.8 65.7 L 140.2 65.6 L 139.8 68.1 L 142.1 67.1 L 142.5 68.3 L 140.0 68.8 L 141.8 70.7 L 140.7 71.5 L 139.4 69.1 L 138.2 71.5 L 137.1 70.7 " fill="#191919"/>
<path class="atom-5" d="M 82.5 121.3 L 84.4 119.4 L 81.9 118.9 L 82.3 117.7 L 84.5 118.8 L 84.2 116.3 L 85.6 116.3 L 85.2 118.8 L 87.5 117.7 L 87.9 118.9 L 85.4 119.4 L 87.2 121.3 L 86.1 122.1 L 84.8 119.7 L 83.6 122.1 L 82.5 121.3 " fill="#191919"/>
</svg>