<svg xmlns="http://www.w3.org/2000/svg" xmlns:rdkit="http://www.rdkit.org/xml" xmlns:xlink="http://www.w3.org/1999/xlink" version="1.1" baseProfile="full" xml:space="preserve" width="150px" height="150px" viewBox="0 0 150 150">
<!-- END OF HEADER -->
<rect style="opacity:1.0;fill:#FFFFFF;stroke:none" width="150.0" height="150.0" x="0.0" y="0.0"> </rect>
<ellipse cx="36.7" cy="117.7" rx="19.5" ry="19.5" class="atom-1" style="fill:#9999E5;fill-rule:evenodd;stroke:#9999E5;stroke-width:1.0px;stroke-linecap:butt;stroke-linejoin:miter;stroke-opacity:1"/>
<path class="bond-0 atom-0 atom-1" d="M 120.8,141.2 L 36.7,117.7" style="fill:none;fill-rule:evenodd;stroke:#E5E5E5;stroke-width:5.2px;stroke-linecap:butt;stroke-linejoin:miter;stroke-opacity:1"/>
<path class="bond-1 atom-1 atom-2" d="M 36.7,117.7 L 12.9,25.2" style="fill:none;fill-rule:evenodd;stroke:#E5E5E5;stroke-width:5.2px;stroke-linecap:butt;stroke-linejoin:miter;stroke-opacity:1"/>
<path class="bond-1 atom-1 atom-2" d="M 48.8,105.9 L 27.0,21.5" style="fill:none;fill-rule:evenodd;stroke:#E5E5E5;stroke-width:5.2px;stroke-linecap:butt;stroke-linejoin:miter;stroke-opacity:1"/>
<path d="M 40.9,118.9 L 36.7,117.7 L 35.5,113.1" style="fill:none;stroke:#E5E5E5;stroke-width:5.2px;stroke-linecap:butt;stroke-linejoin:miter;stroke-opacity:1;"/>
<path class="atom-0" d="M 125.4 140.8 L 129.4 136.7 L 124.1 135.6 L 124.9 132.8 L 129.8 135.3 L 129.1 129.9 L 132.0 129.9 L 131.2 135.3 L 136.3 132.9 L 137.1 135.6 L 131.7 136.6 L 135.6 140.8 L 133.2 142.5 L 130.5 137.4 L 127.8 142.5 L 125.4 140.8 " fill="#191919"/>
<path class="atom-2" d="M 14.3 18.5 L 18.3 14.3 L 13.0 13.2 L 13.8 10.5 L 18.7 13.0 L 18.0 7.5 L 21.0 7.5 L 20.1 12.9 L 25.2 10.6 L 26.0 13.2 L 20.6 14.2 L 24.5 18.4 L 22.1 20.1 L 19.4 15.0 L 16.7 20.1 L 14.3 18.5 " fill="#191919"/>
</svg>