<svg xmlns="http://www.w3.org/2000/svg" xmlns:rdkit="http://www.rdkit.org/xml" xmlns:xlink="http://www.w3.org/1999/xlink" version="1.1" baseProfile="full" xml:space="preserve" width="150px" height="150px" viewBox="0 0 150 150">
<!-- END OF HEADER -->
<rect style="opacity:1.0;fill:#FFFFFF;stroke:none" width="150.0" height="150.0" x="0.0" y="0.0"> </rect>
<ellipse cx="94.7" cy="33.7" rx="26.4" ry="26.4" class="atom-1" style="fill:#9999E5;fill-rule:evenodd;stroke:#9999E5;stroke-width:1.0px;stroke-linecap:butt;stroke-linejoin:miter;stroke-opacity:1"/>
<path class="bond-0 atom-0 atom-1" d="M 33.5,127.3 L 82.2,52.8" style="fill:none;fill-rule:evenodd;stroke:#E5E5E5;stroke-width:7.0px;stroke-linecap:butt;stroke-linejoin:miter;stroke-opacity:1"/>
<path class="atom-0" d="M 17.1 141.0 L 21.2 136.8 L 15.7 135.7 L 16.5 132.8 L 21.6 135.4 L 20.9 129.8 L 23.9 129.8 L 23.1 135.3 L 28.2 132.9 L 29.1 135.7 L 23.5 136.7 L 27.5 141.0 L 25.1 142.7 L 22.3 137.5 L 19.5 142.7 L 17.1 141.0 " fill="#191919"/>
<path class="atom-1" d="M 81.7 33.8 Q 81.7 27.0, 85.1 23.2 Q 88.4 19.4, 94.7 19.4 Q 101.0 19.4, 104.4 23.2 Q 107.7 27.0, 107.7 33.8 Q 107.7 40.6, 104.3 44.6 Q 100.9 48.4, 94.7 48.4 Q 88.5 48.4, 85.1 44.6 Q 81.7 40.7, 81.7 33.8 M 94.7 45.2 Q 99.0 45.2, 101.4 42.4 Q 103.7 39.4, 103.7 33.8 Q 103.7 28.2, 101.4 25.4 Q 99.0 22.6, 94.7 22.6 Q 90.4 22.6, 88.0 25.4 Q 85.7 28.2, 85.7 33.8 Q 85.7 39.5, 88.0 42.4 Q 90.4 45.2, 94.7 45.2 " fill="#FF0000"/>
<path class="atom-1" d="M 112.1 19.7 L 116.0 19.7 L 116.0 31.7 L 130.5 31.7 L 130.5 19.7 L 134.3 19.7 L 134.3 48.0 L 130.5 48.0 L 130.5 34.9 L 116.0 34.9 L 116.0 48.0 L 112.1 48.0 L 112.1 19.7 " fill="#FF0000"/>
</svg>