<svg xmlns="http://www.w3.org/2000/svg" xmlns:rdkit="http://www.rdkit.org/xml" xmlns:xlink="http://www.w3.org/1999/xlink" version="1.1" baseProfile="full" xml:space="preserve" width="150px" height="150px" viewBox="0 0 150 150">
<!-- END OF HEADER -->
<rect style="opacity:1.0;fill:#FFFFFF;stroke:none" width="150.0" height="150.0" x="0.0" y="0.0"> </rect>
<ellipse cx="88.1" cy="47.6" rx="7.2" ry="7.2" class="atom-1" style="fill:#CCCCCC;fill-rule:evenodd;stroke:#CCCCCC;stroke-width:1.0px;stroke-linecap:butt;stroke-linejoin:miter;stroke-opacity:1"/>
<ellipse cx="104.3" cy="108.1" rx="7.2" ry="7.2" class="atom-5" style="fill:#CCCCCC;fill-rule:evenodd;stroke:#CCCCCC;stroke-width:1.0px;stroke-linecap:butt;stroke-linejoin:miter;stroke-opacity:1"/>
<ellipse cx="78.8" cy="82.6" rx="7.2" ry="7.2" class="atom-7" style="fill:#9999E5;fill-rule:evenodd;stroke:#9999E5;stroke-width:1.0px;stroke-linecap:butt;stroke-linejoin:miter;stroke-opacity:1"/>
<ellipse cx="43.8" cy="91.9" rx="7.2" ry="7.2" class="atom-8" style="fill:#CCCCCC;fill-rule:evenodd;stroke:#CCCCCC;stroke-width:1.0px;stroke-linecap:butt;stroke-linejoin:miter;stroke-opacity:1"/>
<path class="bond-0 atom-1 atom-0" d="M 88.1,47.6 L 62.5,25.9 L 66.3,22.0 Z" style="fill:#E5E5E5;fill-rule:evenodd;fill-opacity:1;stroke:#E5E5E5;stroke-width:0.5px;stroke-linecap:butt;stroke-linejoin:miter;stroke-opacity:1;"/>
<path class="bond-1 atom-1 atom-2" d="M 88.1,47.6 L 97.2,13.4" style="fill:none;fill-rule:evenodd;stroke:#E5E5E5;stroke-width:1.9px;stroke-linecap:butt;stroke-linejoin:miter;stroke-opacity:1"/>
<path class="bond-2 atom-1 atom-3" d="M 88.1,47.6 L 120.5,38.9" style="fill:none;fill-rule:evenodd;stroke:#E5E5E5;stroke-width:1.9px;stroke-linecap:butt;stroke-linejoin:miter;stroke-opacity:1"/>
<path class="bond-3 atom-4 atom-5" d="M 136.7,99.4 L 104.3,108.1" style="fill:none;fill-rule:evenodd;stroke:#E5E5E5;stroke-width:1.9px;stroke-linecap:butt;stroke-linejoin:miter;stroke-opacity:1"/>
<path class="bond-4 atom-5 atom-6" d="M 102.1,105.9 L 94.1,135.9" style="fill:none;fill-rule:evenodd;stroke:#E5E5E5;stroke-width:1.9px;stroke-linecap:butt;stroke-linejoin:miter;stroke-opacity:1"/>
<path class="bond-4 atom-5 atom-6" d="M 107.4,107.3 L 99.3,137.3" style="fill:none;fill-rule:evenodd;stroke:#E5E5E5;stroke-width:1.9px;stroke-linecap:butt;stroke-linejoin:miter;stroke-opacity:1"/>
<path class="bond-5 atom-5 atom-7" d="M 104.3,108.1 L 78.8,82.6" style="fill:none;fill-rule:evenodd;stroke:#000000;stroke-width:2.0px;stroke-linecap:butt;stroke-linejoin:miter;stroke-opacity:1"/>
<path class="bond-6 atom-7 atom-8" d="M 75.2,83.2 L 75.3,83.8" style="fill:none;fill-rule:evenodd;stroke:#000000;stroke-width:1.0px;stroke-linecap:butt;stroke-linejoin:miter;stroke-opacity:1"/>
<path class="bond-6 atom-7 atom-8" d="M 71.6,83.8 L 71.9,85.0" style="fill:none;fill-rule:evenodd;stroke:#000000;stroke-width:1.0px;stroke-linecap:butt;stroke-linejoin:miter;stroke-opacity:1"/>
<path class="bond-6 atom-7 atom-8" d="M 68.1,84.5 L 68.5,86.2" style="fill:none;fill-rule:evenodd;stroke:#000000;stroke-width:1.0px;stroke-linecap:butt;stroke-linejoin:miter;stroke-opacity:1"/>
<path class="bond-6 atom-7 atom-8" d="M 64.5,85.1 L 65.1,87.5" style="fill:none;fill-rule:evenodd;stroke:#000000;stroke-width:1.0px;stroke-linecap:butt;stroke-linejoin:miter;stroke-opacity:1"/>
<path class="bond-6 atom-7 atom-8" d="M 60.9,85.8 L 61.7,88.7" style="fill:none;fill-rule:evenodd;stroke:#000000;stroke-width:1.0px;stroke-linecap:butt;stroke-linejoin:miter;stroke-opacity:1"/>
<path class="bond-6 atom-7 atom-8" d="M 57.3,86.4 L 58.3,89.9" style="fill:none;fill-rule:evenodd;stroke:#000000;stroke-width:1.0px;stroke-linecap:butt;stroke-linejoin:miter;stroke-opacity:1"/>
<path class="bond-6 atom-7 atom-8" d="M 53.8,87.1 L 54.9,91.1" style="fill:none;fill-rule:evenodd;stroke:#000000;stroke-width:1.0px;stroke-linecap:butt;stroke-linejoin:miter;stroke-opacity:1"/>
<path class="bond-6 atom-7 atom-8" d="M 50.2,87.7 L 51.5,92.4" style="fill:none;fill-rule:evenodd;stroke:#000000;stroke-width:1.0px;stroke-linecap:butt;stroke-linejoin:miter;stroke-opacity:1"/>
<path class="bond-6 atom-7 atom-8" d="M 46.6,88.4 L 48.1,93.6" style="fill:none;fill-rule:evenodd;stroke:#000000;stroke-width:1.0px;stroke-linecap:butt;stroke-linejoin:miter;stroke-opacity:1"/>
<path class="bond-7 atom-9 atom-8" d="M 24.7,72.8 L 47.0,91.1 L 41.0,92.7 Z" style="fill:#E5E5E5;fill-rule:evenodd;fill-opacity:1;stroke:#E5E5E5;stroke-width:0.5px;stroke-linecap:butt;stroke-linejoin:miter;stroke-opacity:1;"/>
<path class="bond-8 atom-7 atom-1" d="M 78.8,82.6 L 88.1,47.6" style="fill:none;fill-rule:evenodd;stroke:#000000;stroke-width:2.0px;stroke-linecap:butt;stroke-linejoin:miter;stroke-opacity:1"/>
<path d="M 105.1,107.9 L 104.3,108.1 L 103.7,107.5" style="fill:none;stroke:#E5E5E5;stroke-width:1.9px;stroke-linecap:butt;stroke-linejoin:miter;stroke-opacity:1;"/>
<path d="M 80.0,83.8 L 78.8,82.6 L 79.2,80.8" style="fill:none;stroke:#000000;stroke-width:2.0px;stroke-linecap:butt;stroke-linejoin:miter;stroke-opacity:1;"/>
<path class="atom-0" d="M 60.6 20.9 L 62.1 19.4 L 60.1 19.0 L 60.4 18.0 L 62.2 18.9 L 62.0 16.9 L 63.1 16.9 L 62.8 18.9 L 64.6 18.0 L 64.9 19.0 L 62.9 19.4 L 64.4 20.9 L 63.5 21.6 L 62.5 19.7 L 61.5 21.6 L 60.6 20.9 " fill="#191919"/>
<path class="atom-2" d="M 95.5 11.6 L 97.0 10.0 L 95.0 9.6 L 95.3 8.6 L 97.1 9.5 L 96.9 7.5 L 98.0 7.5 L 97.7 9.5 L 99.5 8.6 L 99.8 9.6 L 97.8 10.0 L 99.3 11.5 L 98.4 12.2 L 97.4 10.3 L 96.4 12.2 L 95.5 11.6 " fill="#191919"/>
<path class="atom-3" d="M 121.1 37.1 L 122.6 35.6 L 120.6 35.2 L 120.9 34.1 L 122.7 35.1 L 122.5 33.1 L 123.5 33.0 L 123.2 35.1 L 125.1 34.2 L 125.4 35.2 L 123.4 35.5 L 124.8 37.1 L 124.0 37.7 L 123.0 35.8 L 122.0 37.7 L 121.1 37.1 " fill="#191919"/>
<path class="atom-4" d="M 137.3 97.6 L 138.8 96.0 L 136.8 95.6 L 137.1 94.6 L 139.0 95.5 L 138.7 93.5 L 139.8 93.5 L 139.5 95.5 L 141.3 94.7 L 141.7 95.6 L 139.6 96.0 L 141.1 97.6 L 140.2 98.2 L 139.2 96.3 L 138.2 98.2 L 137.3 97.6 " fill="#191919"/>
<path class="atom-6" d="M 93.1 141.9 L 94.6 140.3 L 92.6 139.9 L 92.9 138.9 L 94.7 139.8 L 94.4 137.8 L 95.5 137.8 L 95.2 139.8 L 97.1 139.0 L 97.4 139.9 L 95.4 140.3 L 96.8 141.9 L 96.0 142.5 L 95.0 140.6 L 93.9 142.5 L 93.1 141.9 " fill="#191919"/>
<path class="atom-9" d="M 8.8 65.2 L 10.3 63.7 L 8.3 63.3 L 8.6 62.3 L 10.5 63.2 L 10.2 61.2 L 11.3 61.2 L 11.0 63.2 L 12.9 62.3 L 13.2 63.3 L 11.2 63.7 L 12.6 65.2 L 11.7 65.9 L 10.7 63.9 L 9.7 65.9 L 8.8 65.2 " fill="#191919"/>
<path class="atom-9" d="M 14.3 61.3 L 15.6 61.3 L 15.6 65.7 L 20.9 65.7 L 20.9 61.3 L 22.3 61.3 L 22.3 71.6 L 20.9 71.6 L 20.9 66.9 L 15.6 66.9 L 15.6 71.6 L 14.3 71.6 L 14.3 61.3 " fill="#191919"/>
</svg>