<svg xmlns="http://www.w3.org/2000/svg" xmlns:rdkit="http://www.rdkit.org/xml" xmlns:xlink="http://www.w3.org/1999/xlink" version="1.1" baseProfile="full" xml:space="preserve" width="150px" height="150px" viewBox="0 0 150 150">
<!-- END OF HEADER -->
<rect style="opacity:1.0;fill:#FFFFFF;stroke:none" width="150.0" height="150.0" x="0.0" y="0.0"> </rect>
<ellipse cx="54.0" cy="39.7" rx="24.6" ry="24.6" class="atom-1" style="fill:#9999E5;fill-rule:evenodd;stroke:#9999E5;stroke-width:1.0px;stroke-linecap:butt;stroke-linejoin:miter;stroke-opacity:1"/>
<path class="bond-0 atom-0 atom-1" d="M 119.5,122.7 L 68.8,58.6" style="fill:none;fill-rule:evenodd;stroke:#E5E5E5;stroke-width:6.6px;stroke-linecap:butt;stroke-linejoin:miter;stroke-opacity:1"/>
<path class="atom-0" d="M 125.0 133.2 L 129.1 128.9 L 123.6 127.8 L 124.4 125.0 L 129.5 127.5 L 128.8 122.0 L 131.8 121.9 L 131.0 127.5 L 136.1 125.1 L 137.0 127.8 L 131.4 128.8 L 135.4 133.1 L 133.0 134.9 L 130.2 129.6 L 127.4 134.9 L 125.0 133.2 " fill="#191919"/>
<path class="atom-1" d="M 13.0 25.7 L 16.8 25.7 L 16.8 37.8 L 31.3 37.8 L 31.3 25.7 L 35.2 25.7 L 35.2 54.1 L 31.3 54.1 L 31.3 41.0 L 16.8 41.0 L 16.8 54.1 L 13.0 54.1 L 13.0 25.7 " fill="#FF0000"/>
<path class="atom-1" d="M 41.0 39.8 Q 41.0 33.0, 44.3 29.2 Q 47.7 25.4, 54.0 25.4 Q 60.3 25.4, 63.6 29.2 Q 67.0 33.0, 67.0 39.8 Q 67.0 46.7, 63.6 50.6 Q 60.2 54.5, 54.0 54.5 Q 47.7 54.5, 44.3 50.6 Q 41.0 46.7, 41.0 39.8 M 54.0 51.3 Q 58.3 51.3, 60.6 48.4 Q 63.0 45.5, 63.0 39.8 Q 63.0 34.3, 60.6 31.5 Q 58.3 28.6, 54.0 28.6 Q 49.7 28.6, 47.3 31.4 Q 45.0 34.2, 45.0 39.8 Q 45.0 45.5, 47.3 48.4 Q 49.7 51.3, 54.0 51.3 " fill="#FF0000"/>
</svg>