<svg xmlns="http://www.w3.org/2000/svg" xmlns:rdkit="http://www.rdkit.org/xml" xmlns:xlink="http://www.w3.org/1999/xlink" version="1.1" baseProfile="full" xml:space="preserve" width="150px" height="150px" viewBox="0 0 150 150">
<!-- END OF HEADER -->
<rect style="opacity:1.0;fill:#FFFFFF;stroke:none" width="150.0" height="150.0" x="0.0" y="0.0"> </rect>
<ellipse cx="20.1" cy="52.4" rx="9.1" ry="9.1" class="atom-1" style="fill:#E5E533;fill-rule:evenodd;stroke:#E5E533;stroke-width:1.0px;stroke-linecap:butt;stroke-linejoin:miter;stroke-opacity:1"/>
<ellipse cx="64.1" cy="41.7" rx="9.1" ry="9.1" class="atom-2" style="fill:#9999E5;fill-rule:evenodd;stroke:#9999E5;stroke-width:1.0px;stroke-linecap:butt;stroke-linejoin:miter;stroke-opacity:1"/>
<ellipse cx="95.4" cy="74.5" rx="9.1" ry="9.1" class="atom-3" style="fill:#E5E533;fill-rule:evenodd;stroke:#E5E533;stroke-width:1.0px;stroke-linecap:butt;stroke-linejoin:miter;stroke-opacity:1"/>
<path class="bond-0 atom-0 atom-1" d="M 9.6,87.8 L 20.1,52.4" style="fill:none;fill-rule:evenodd;stroke:#E5E5E5;stroke-width:2.4px;stroke-linecap:butt;stroke-linejoin:miter;stroke-opacity:1"/>
<path class="bond-0 atom-0 atom-1" d="M 16.2,89.8 L 25.5,58.1" style="fill:none;fill-rule:evenodd;stroke:#E5E5E5;stroke-width:2.4px;stroke-linecap:butt;stroke-linejoin:miter;stroke-opacity:1;stroke-dasharray:6,4"/>
<path class="bond-1 atom-1 atom-2" d="M 20.1,52.4 L 64.1,41.7" style="fill:none;fill-rule:evenodd;stroke:#000000;stroke-width:2.0px;stroke-linecap:butt;stroke-linejoin:miter;stroke-opacity:1"/>
<path class="bond-1 atom-1 atom-2" d="M 25.5,58.1 L 61.9,49.2" style="fill:none;fill-rule:evenodd;stroke:#000000;stroke-width:2.0px;stroke-linecap:butt;stroke-linejoin:miter;stroke-opacity:1;stroke-dasharray:6,4"/>
<path class="bond-2 atom-2 atom-3" d="M 64.1,41.7 L 95.4,74.5" style="fill:none;fill-rule:evenodd;stroke:#000000;stroke-width:2.0px;stroke-linecap:butt;stroke-linejoin:miter;stroke-opacity:1"/>
<path class="bond-2 atom-2 atom-3" d="M 61.9,49.2 L 87.8,76.4" style="fill:none;fill-rule:evenodd;stroke:#000000;stroke-width:2.0px;stroke-linecap:butt;stroke-linejoin:miter;stroke-opacity:1;stroke-dasharray:6,4"/>
<path class="bond-3 atom-3 atom-4" d="M 92.7,71.7 L 81.7,109.0" style="fill:none;fill-rule:evenodd;stroke:#E5E5E5;stroke-width:2.4px;stroke-linecap:butt;stroke-linejoin:miter;stroke-opacity:1"/>
<path class="bond-3 atom-3 atom-4" d="M 99.2,73.6 L 88.2,111.0" style="fill:none;fill-rule:evenodd;stroke:#E5E5E5;stroke-width:2.4px;stroke-linecap:butt;stroke-linejoin:miter;stroke-opacity:1;stroke-dasharray:6,4"/>
<path class="bond-4 atom-3 atom-5" d="M 95.4,74.5 L 136.0,64.7" style="fill:none;fill-rule:evenodd;stroke:#E5E5E5;stroke-width:2.4px;stroke-linecap:butt;stroke-linejoin:miter;stroke-opacity:1"/>
<path d="M 19.8,53.3 L 20.1,52.4 L 21.2,52.1" style="fill:none;stroke:#E5E5E5;stroke-width:2.4px;stroke-linecap:butt;stroke-linejoin:miter;stroke-opacity:1;"/>
<path d="M 61.9,42.2 L 64.1,41.7 L 65.7,43.3" style="fill:none;stroke:#000000;stroke-width:2.0px;stroke-linecap:butt;stroke-linejoin:miter;stroke-opacity:1;"/>
<path class="atom-0" d="M 8.1 95.4 L 10.0 93.5 L 7.5 93.0 L 7.9 91.7 L 10.2 92.8 L 9.9 90.3 L 11.2 90.3 L 10.8 92.8 L 13.2 91.7 L 13.6 93.0 L 11.0 93.4 L 12.8 95.4 L 11.7 96.2 L 10.5 93.8 L 9.2 96.2 L 8.1 95.4 " fill="#191919"/>
<path class="atom-4" d="M 80.2 116.6 L 82.1 114.7 L 79.6 114.2 L 79.9 112.9 L 82.3 114.0 L 81.9 111.5 L 83.3 111.5 L 82.9 114.0 L 85.2 112.9 L 85.6 114.2 L 83.1 114.6 L 84.9 116.6 L 83.8 117.4 L 82.6 115.0 L 81.3 117.4 L 80.2 116.6 " fill="#191919"/>
<path class="atom-5" d="M 137.0 62.4 L 138.9 60.5 L 136.4 60.0 L 136.8 58.7 L 139.1 59.9 L 138.8 57.4 L 140.1 57.3 L 139.8 59.9 L 142.1 58.8 L 142.5 60.0 L 140.0 60.5 L 141.8 62.4 L 140.7 63.2 L 139.4 60.8 L 138.1 63.2 L 137.0 62.4 " fill="#191919"/>
</svg>