<svg xmlns="http://www.w3.org/2000/svg" xmlns:rdkit="http://www.rdkit.org/xml" xmlns:xlink="http://www.w3.org/1999/xlink" version="1.1" baseProfile="full" xml:space="preserve" width="150px" height="150px" viewBox="0 0 150 150">
<!-- END OF HEADER -->
<rect style="opacity:1.0;fill:#FFFFFF;stroke:none" width="150.0" height="150.0" x="0.0" y="0.0"> </rect>
<ellipse cx="75.0" cy="62.6" rx="14.5" ry="14.5" class="atom-1" style="fill:#9999E5;fill-rule:evenodd;stroke:#9999E5;stroke-width:1.0px;stroke-linecap:butt;stroke-linejoin:miter;stroke-opacity:1"/>
<path class="bond-0 atom-0 atom-1" d="M 14.7,27.8 L 75.0,62.6" style="fill:none;fill-rule:evenodd;stroke:#E5E5E5;stroke-width:3.9px;stroke-linecap:butt;stroke-linejoin:miter;stroke-opacity:1"/>
<path class="bond-1 atom-1 atom-2" d="M 75.0,62.6 L 75.0,122.2" style="fill:none;fill-rule:evenodd;stroke:#E5E5E5;stroke-width:3.9px;stroke-linecap:butt;stroke-linejoin:miter;stroke-opacity:1"/>
<path class="bond-2 atom-1 atom-3" d="M 75.0,68.9 L 138.0,32.5" style="fill:none;fill-rule:evenodd;stroke:#E5E5E5;stroke-width:3.9px;stroke-linecap:butt;stroke-linejoin:miter;stroke-opacity:1"/>
<path class="bond-2 atom-1 atom-3" d="M 69.6,59.5 L 132.6,23.1" style="fill:none;fill-rule:evenodd;stroke:#E5E5E5;stroke-width:3.9px;stroke-linecap:butt;stroke-linejoin:miter;stroke-opacity:1"/>
<path d="M 72.0,60.9 L 75.0,62.6 L 75.0,65.6" style="fill:none;stroke:#E5E5E5;stroke-width:3.9px;stroke-linecap:butt;stroke-linejoin:miter;stroke-opacity:1;"/>
<path class="atom-0" d="M 8.5 24.2 L 11.5 21.1 L 7.5 20.3 L 8.1 18.3 L 11.8 20.1 L 11.3 16.1 L 13.4 16.1 L 12.8 20.1 L 16.6 18.3 L 17.2 20.3 L 13.1 21.1 L 16.0 24.2 L 14.3 25.4 L 12.3 21.6 L 10.2 25.4 L 8.5 24.2 " fill="#191919"/>
<path class="atom-2" d="M 71.1 132.7 L 74.1 129.6 L 70.2 128.8 L 70.8 126.8 L 74.4 128.6 L 73.9 124.6 L 76.1 124.6 L 75.5 128.6 L 79.2 126.9 L 79.8 128.8 L 75.8 129.6 L 78.7 132.7 L 76.9 133.9 L 74.9 130.1 L 72.9 133.9 L 71.1 132.7 " fill="#191919"/>
<path class="atom-3" d="M 133.8 24.2 L 136.8 21.1 L 132.8 20.3 L 133.4 18.3 L 137.1 20.1 L 136.6 16.1 L 138.7 16.1 L 138.1 20.1 L 141.9 18.3 L 142.5 20.3 L 138.4 21.1 L 141.3 24.2 L 139.6 25.4 L 137.6 21.6 L 135.6 25.4 L 133.8 24.2 " fill="#191919"/>
</svg>