<svg xmlns="http://www.w3.org/2000/svg" xmlns:rdkit="http://www.rdkit.org/xml" xmlns:xlink="http://www.w3.org/1999/xlink" version="1.1" baseProfile="full" xml:space="preserve" width="150px" height="150px" viewBox="0 0 150 150">
<!-- END OF HEADER -->
<rect style="opacity:1.0;fill:#FFFFFF;stroke:none" width="150.0" height="150.0" x="0.0" y="0.0"> </rect>
<ellipse cx="89.9" cy="118.6" rx="22.9" ry="22.9" class="atom-1" style="fill:#9999E5;fill-rule:evenodd;stroke:#9999E5;stroke-width:1.0px;stroke-linecap:butt;stroke-linejoin:miter;stroke-opacity:1"/>
<path class="bond-0 atom-0 atom-1" d="M 28.8,25.3 L 78.0,100.5" style="fill:none;fill-rule:evenodd;stroke:#E5E5E5;stroke-width:6.1px;stroke-linecap:butt;stroke-linejoin:miter;stroke-opacity:1"/>
<path class="atom-0" d="M 21.9 19.8 L 26.1 15.5 L 20.6 14.4 L 21.4 11.6 L 26.5 14.1 L 25.8 8.6 L 28.8 8.5 L 27.9 14.1 L 33.1 11.7 L 34.0 14.4 L 28.4 15.5 L 32.4 19.7 L 29.9 21.5 L 27.2 16.2 L 24.4 21.5 L 21.9 19.8 " fill="#191919"/>
<path class="atom-1" d="M 76.9 118.7 Q 76.9 111.9, 80.2 108.1 Q 83.6 104.3, 89.9 104.3 Q 96.2 104.3, 99.5 108.1 Q 102.9 111.9, 102.9 118.7 Q 102.9 125.6, 99.5 129.5 Q 96.1 133.4, 89.9 133.4 Q 83.6 133.4, 80.2 129.5 Q 76.9 125.6, 76.9 118.7 M 89.9 130.2 Q 94.2 130.2, 96.5 127.3 Q 98.9 124.4, 98.9 118.7 Q 98.9 113.1, 96.5 110.3 Q 94.2 107.5, 89.9 107.5 Q 85.6 107.5, 83.2 110.3 Q 80.9 113.1, 80.9 118.7 Q 80.9 124.4, 83.2 127.3 Q 85.6 130.2, 89.9 130.2 " fill="#FF0000"/>
<path class="atom-1" d="M 107.3 104.6 L 111.1 104.6 L 111.1 116.6 L 125.6 116.6 L 125.6 104.6 L 129.4 104.6 L 129.4 132.9 L 125.6 132.9 L 125.6 119.8 L 111.1 119.8 L 111.1 132.9 L 107.3 132.9 L 107.3 104.6 " fill="#FF0000"/>
</svg>