<svg xmlns="http://www.w3.org/2000/svg" xmlns:rdkit="http://www.rdkit.org/xml" xmlns:xlink="http://www.w3.org/1999/xlink" version="1.1" baseProfile="full" xml:space="preserve" width="150px" height="150px" viewBox="0 0 150 150">
<!-- END OF HEADER -->
<rect style="opacity:1.0;fill:#FFFFFF;stroke:none" width="150.0" height="150.0" x="0.0" y="0.0"> </rect>
<ellipse cx="42.8" cy="40.6" rx="18.7" ry="18.7" class="atom-1" style="fill:#9999E5;fill-rule:evenodd;stroke:#9999E5;stroke-width:1.0px;stroke-linecap:butt;stroke-linejoin:miter;stroke-opacity:1"/>
<path class="bond-0 atom-0 atom-1" d="M 14.1,110.4 L 42.8,40.6" style="fill:none;fill-rule:evenodd;stroke:#E5E5E5;stroke-width:5.0px;stroke-linecap:butt;stroke-linejoin:miter;stroke-opacity:1"/>
<path class="bond-0 atom-0 atom-1" d="M 27.0,115.8 L 52.7,53.4" style="fill:none;fill-rule:evenodd;stroke:#E5E5E5;stroke-width:5.0px;stroke-linecap:butt;stroke-linejoin:miter;stroke-opacity:1;stroke-dasharray:6,4"/>
<path class="bond-1 atom-1 atom-2" d="M 42.8,40.6 L 126.0,29.5" style="fill:none;fill-rule:evenodd;stroke:#E5E5E5;stroke-width:5.0px;stroke-linecap:butt;stroke-linejoin:miter;stroke-opacity:1"/>
<path class="bond-1 atom-1 atom-2" d="M 52.7,53.4 L 127.8,43.4" style="fill:none;fill-rule:evenodd;stroke:#E5E5E5;stroke-width:5.0px;stroke-linecap:butt;stroke-linejoin:miter;stroke-opacity:1;stroke-dasharray:6,4"/>
<path d="M 41.4,44.1 L 42.8,40.6 L 47.0,40.1" style="fill:none;stroke:#E5E5E5;stroke-width:5.0px;stroke-linecap:butt;stroke-linejoin:miter;stroke-opacity:1;"/>
<path class="atom-0" d="M 8.8 126.7 L 12.7 122.7 L 7.5 121.7 L 8.3 119.0 L 13.0 121.4 L 12.4 116.2 L 15.2 116.2 L 14.4 121.4 L 19.2 119.1 L 20.0 121.7 L 14.8 122.6 L 18.5 126.6 L 16.2 128.3 L 13.7 123.3 L 11.0 128.3 L 8.8 126.7 " fill="#191919"/>
<path class="atom-2" d="M 131.3 32.2 L 135.1 28.3 L 130.0 27.2 L 130.8 24.6 L 135.5 27.0 L 134.8 21.8 L 137.6 21.7 L 136.9 26.9 L 141.7 24.7 L 142.5 27.2 L 137.3 28.2 L 141.0 32.2 L 138.7 33.8 L 136.2 28.9 L 133.5 33.8 L 131.3 32.2 " fill="#191919"/>
</svg>