<svg xmlns="http://www.w3.org/2000/svg" xmlns:rdkit="http://www.rdkit.org/xml" xmlns:xlink="http://www.w3.org/1999/xlink" version="1.1" baseProfile="full" xml:space="preserve" width="150px" height="150px" viewBox="0 0 150 150">
<!-- END OF HEADER -->
<rect style="opacity:1.0;fill:#FFFFFF;stroke:none" width="150.0" height="150.0" x="0.0" y="0.0"> </rect>
<ellipse cx="36.6" cy="41.5" rx="20.0" ry="20.0" class="atom-1" style="fill:#9999E5;fill-rule:evenodd;stroke:#9999E5;stroke-width:1.0px;stroke-linecap:butt;stroke-linejoin:miter;stroke-opacity:1"/>
<path class="bond-0 atom-0 atom-1" d="M 12.5,119.4 L 36.6,41.5" style="fill:none;fill-rule:evenodd;stroke:#E5E5E5;stroke-width:5.3px;stroke-linecap:butt;stroke-linejoin:miter;stroke-opacity:1"/>
<path class="bond-0 atom-0 atom-1" d="M 26.8,123.8 L 48.3,54.2" style="fill:none;fill-rule:evenodd;stroke:#E5E5E5;stroke-width:5.3px;stroke-linecap:butt;stroke-linejoin:miter;stroke-opacity:1;stroke-dasharray:6,4"/>
<path class="bond-1 atom-1 atom-2" d="M 36.6,41.5 L 126.0,21.1" style="fill:none;fill-rule:evenodd;stroke:#E5E5E5;stroke-width:5.3px;stroke-linecap:butt;stroke-linejoin:miter;stroke-opacity:1"/>
<path class="bond-1 atom-1 atom-2" d="M 48.3,54.2 L 129.3,35.7" style="fill:none;fill-rule:evenodd;stroke:#E5E5E5;stroke-width:5.3px;stroke-linecap:butt;stroke-linejoin:miter;stroke-opacity:1;stroke-dasharray:6,4"/>
<path d="M 35.3,45.4 L 36.6,41.5 L 41.0,40.4" style="fill:none;stroke:#E5E5E5;stroke-width:5.3px;stroke-linecap:butt;stroke-linejoin:miter;stroke-opacity:1;"/>
<path class="atom-0" d="M 8.9 136.1 L 13.0 131.9 L 7.5 130.8 L 8.3 127.9 L 13.4 130.5 L 12.7 124.9 L 15.7 124.9 L 14.9 130.5 L 20.0 128.1 L 20.9 130.8 L 15.3 131.8 L 19.3 136.1 L 16.9 137.9 L 14.1 132.6 L 11.3 137.9 L 8.9 136.1 " fill="#191919"/>
<path class="atom-2" d="M 130.5 23.4 L 134.6 19.1 L 129.1 18.0 L 129.9 15.2 L 135.0 17.7 L 134.3 12.2 L 137.3 12.1 L 136.5 17.7 L 141.6 15.3 L 142.5 18.0 L 136.9 19.1 L 140.9 23.3 L 138.5 25.1 L 135.7 19.8 L 132.9 25.1 L 130.5 23.4 " fill="#191919"/>
</svg>