<svg xmlns="http://www.w3.org/2000/svg" xmlns:rdkit="http://www.rdkit.org/xml" xmlns:xlink="http://www.w3.org/1999/xlink" version="1.1" baseProfile="full" xml:space="preserve" width="150px" height="150px" viewBox="0 0 150 150">
<!-- END OF HEADER -->
<rect style="opacity:1.0;fill:#FFFFFF;stroke:none" width="150.0" height="150.0" x="0.0" y="0.0"> </rect>
<ellipse cx="57.9" cy="72.0" rx="13.1" ry="13.1" class="atom-1" style="fill:#9999E5;fill-rule:evenodd;stroke:#9999E5;stroke-width:1.0px;stroke-linecap:butt;stroke-linejoin:miter;stroke-opacity:1"/>
<path class="bond-0 atom-0 atom-1" d="M 13.1,26.3 L 57.9,72.0" style="fill:none;fill-rule:evenodd;stroke:#E5E5E5;stroke-width:3.5px;stroke-linecap:butt;stroke-linejoin:miter;stroke-opacity:1"/>
<path class="bond-1 atom-1 atom-2" d="M 53.9,68.0 L 38.7,122.4" style="fill:none;fill-rule:evenodd;stroke:#E5E5E5;stroke-width:3.5px;stroke-linecap:butt;stroke-linejoin:miter;stroke-opacity:1"/>
<path class="bond-1 atom-1 atom-2" d="M 63.4,70.6 L 48.2,125.0" style="fill:none;fill-rule:evenodd;stroke:#E5E5E5;stroke-width:3.5px;stroke-linecap:butt;stroke-linejoin:miter;stroke-opacity:1"/>
<path class="bond-2 atom-3 atom-1" d="M 112.8,57.9 L 56.3,77.8 L 57.9,72.0 Z" style="fill:#E5E5E5;fill-rule:evenodd;fill-opacity:1;stroke:#E5E5E5;stroke-width:0.5px;stroke-linecap:butt;stroke-linejoin:miter;stroke-opacity:1;"/>
<path class="bond-2 atom-3 atom-1" d="M 112.8,57.9 L 57.9,72.0 L 53.7,67.7 Z" style="fill:#E5E5E5;fill-rule:evenodd;fill-opacity:1;stroke:#E5E5E5;stroke-width:0.5px;stroke-linecap:butt;stroke-linejoin:miter;stroke-opacity:1;"/>
<path class="atom-0" d="M 8.4 23.0 L 11.1 20.2 L 7.5 19.5 L 8.1 17.6 L 11.4 19.3 L 10.9 15.6 L 12.9 15.6 L 12.3 19.3 L 15.7 17.7 L 16.3 19.5 L 12.6 20.2 L 15.3 23.0 L 13.7 24.1 L 11.8 20.7 L 10.0 24.1 L 8.4 23.0 " fill="#191919"/>
<path class="atom-2" d="M 36.7 133.3 L 39.5 130.5 L 35.8 129.7 L 36.4 127.9 L 39.7 129.6 L 39.3 125.9 L 41.2 125.9 L 40.7 129.5 L 44.1 128.0 L 44.6 129.7 L 41.0 130.4 L 43.6 133.2 L 42.0 134.4 L 40.2 130.9 L 38.3 134.4 L 36.7 133.3 " fill="#191919"/>
<path class="atom-3" d="M 118.1 53.6 L 120.8 50.8 L 117.2 50.1 L 117.7 48.2 L 121.1 49.9 L 120.6 46.2 L 122.6 46.2 L 122.0 49.9 L 125.4 48.3 L 126.0 50.1 L 122.3 50.7 L 124.9 53.6 L 123.3 54.7 L 121.5 51.2 L 119.7 54.7 L 118.1 53.6 " fill="#191919"/>
<path class="atom-3" d="M 127.9 46.5 L 130.5 46.5 L 130.5 54.4 L 140.0 54.4 L 140.0 46.5 L 142.5 46.5 L 142.5 65.1 L 140.0 65.1 L 140.0 56.5 L 130.5 56.5 L 130.5 65.1 L 127.9 65.1 L 127.9 46.5 " fill="#191919"/>
</svg>