<svg xmlns="http://www.w3.org/2000/svg" xmlns:rdkit="http://www.rdkit.org/xml" xmlns:xlink="http://www.w3.org/1999/xlink" version="1.1" baseProfile="full" xml:space="preserve" width="150px" height="150px" viewBox="0 0 150 150">
<!-- END OF HEADER -->
<rect style="opacity:1.0;fill:#FFFFFF;stroke:none" width="150.0" height="150.0" x="0.0" y="0.0"> </rect>
<ellipse cx="75.0" cy="98.0" rx="14.5" ry="14.5" class="atom-1" style="fill:#9999E5;fill-rule:evenodd;stroke:#9999E5;stroke-width:1.0px;stroke-linecap:butt;stroke-linejoin:miter;stroke-opacity:1"/>
<path class="bond-0 atom-0 atom-1" d="M 19.6,130.0 L 75.0,98.0" style="fill:none;fill-rule:evenodd;stroke:#E5E5E5;stroke-width:3.9px;stroke-linecap:butt;stroke-linejoin:miter;stroke-opacity:1"/>
<path class="bond-1 atom-1 atom-2" d="M 75.0,98.0 L 75.0,27.0" style="fill:none;fill-rule:evenodd;stroke:#E5E5E5;stroke-width:3.9px;stroke-linecap:butt;stroke-linejoin:miter;stroke-opacity:1"/>
<path class="bond-2 atom-1 atom-3" d="M 69.6,101.2 L 127.7,134.7" style="fill:none;fill-rule:evenodd;stroke:#E5E5E5;stroke-width:3.9px;stroke-linecap:butt;stroke-linejoin:miter;stroke-opacity:1"/>
<path class="bond-2 atom-1 atom-3" d="M 75.0,91.8 L 133.1,125.3" style="fill:none;fill-rule:evenodd;stroke:#E5E5E5;stroke-width:3.9px;stroke-linecap:butt;stroke-linejoin:miter;stroke-opacity:1"/>
<path d="M 72.2,99.6 L 75.0,98.0 L 75.0,94.5" style="fill:none;stroke:#E5E5E5;stroke-width:3.9px;stroke-linecap:butt;stroke-linejoin:miter;stroke-opacity:1;"/>
<path class="atom-0" d="M 8.5 131.9 L 11.5 128.9 L 7.5 128.0 L 8.1 126.0 L 11.8 127.8 L 11.3 123.8 L 13.4 123.8 L 12.8 127.8 L 16.6 126.1 L 17.2 128.0 L 13.1 128.8 L 16.0 131.9 L 14.3 133.2 L 12.3 129.3 L 10.2 133.2 L 8.5 131.9 " fill="#191919"/>
<path class="atom-2" d="M 71.1 23.4 L 74.1 20.3 L 70.2 19.5 L 70.8 17.5 L 74.4 19.3 L 73.9 15.3 L 76.1 15.3 L 75.5 19.3 L 79.2 17.6 L 79.8 19.5 L 75.8 20.3 L 78.7 23.4 L 76.9 24.6 L 74.9 20.8 L 72.9 24.6 L 71.1 23.4 " fill="#191919"/>
<path class="atom-3" d="M 133.8 131.9 L 136.8 128.9 L 132.8 128.0 L 133.4 126.0 L 137.1 127.8 L 136.6 123.8 L 138.7 123.8 L 138.1 127.8 L 141.9 126.1 L 142.5 128.0 L 138.4 128.8 L 141.3 131.9 L 139.6 133.2 L 137.6 129.3 L 135.6 133.2 L 133.8 131.9 " fill="#191919"/>
</svg>