<svg xmlns="http://www.w3.org/2000/svg" xmlns:rdkit="http://www.rdkit.org/xml" xmlns:xlink="http://www.w3.org/1999/xlink" version="1.1" baseProfile="full" xml:space="preserve" width="150px" height="150px" viewBox="0 0 150 150">
<!-- END OF HEADER -->
<rect style="opacity:1.0;fill:#FFFFFF;stroke:none" width="150.0" height="150.0" x="0.0" y="0.0"> </rect>
<ellipse cx="59.9" cy="103.7" rx="15.5" ry="15.5" class="atom-1" style="fill:#9999E5;fill-rule:evenodd;stroke:#9999E5;stroke-width:1.0px;stroke-linecap:butt;stroke-linejoin:miter;stroke-opacity:1"/>
<path class="bond-0 atom-0 atom-1" d="M 129.6,99.8 L 59.9,103.7" style="fill:none;fill-rule:evenodd;stroke:#E5E5E5;stroke-width:4.1px;stroke-linecap:butt;stroke-linejoin:miter;stroke-opacity:1"/>
<path class="bond-1 atom-1 atom-2" d="M 59.9,103.7 L 9.6,47.3" style="fill:none;fill-rule:evenodd;stroke:#E5E5E5;stroke-width:4.1px;stroke-linecap:butt;stroke-linejoin:miter;stroke-opacity:1"/>
<path class="bond-1 atom-1 atom-2" d="M 64.9,91.8 L 18.3,39.6" style="fill:none;fill-rule:evenodd;stroke:#E5E5E5;stroke-width:4.1px;stroke-linecap:butt;stroke-linejoin:miter;stroke-opacity:1"/>
<path d="M 63.4,103.5 L 59.9,103.7 L 57.4,100.9" style="fill:none;stroke:#E5E5E5;stroke-width:4.1px;stroke-linecap:butt;stroke-linejoin:miter;stroke-opacity:1;"/>
<path class="atom-0" d="M 133.2 97.0 L 136.4 93.7 L 132.1 92.8 L 132.8 90.6 L 136.7 92.6 L 136.1 88.3 L 138.5 88.3 L 137.8 92.6 L 141.8 90.7 L 142.5 92.8 L 138.2 93.6 L 141.3 96.9 L 139.4 98.3 L 137.2 94.2 L 135.1 98.3 L 133.2 97.0 " fill="#191919"/>
<path class="atom-2" d="M 8.6 39.5 L 11.8 36.2 L 7.5 35.4 L 8.2 33.2 L 12.1 35.2 L 11.5 30.9 L 13.9 30.8 L 13.2 35.1 L 17.2 33.3 L 17.9 35.4 L 13.5 36.2 L 16.6 39.5 L 14.8 40.9 L 12.6 36.8 L 10.4 40.9 L 8.6 39.5 " fill="#191919"/>
</svg>