<svg xmlns="http://www.w3.org/2000/svg" xmlns:rdkit="http://www.rdkit.org/xml" xmlns:xlink="http://www.w3.org/1999/xlink" version="1.1" baseProfile="full" xml:space="preserve" width="150px" height="150px" viewBox="0 0 150 150">
<!-- END OF HEADER -->
<rect style="opacity:1.0;fill:#FFFFFF;stroke:none" width="150.0" height="150.0" x="0.0" y="0.0"> </rect>
<ellipse cx="74.6" cy="72.1" rx="7.8" ry="7.8" class="atom-2" style="fill:#9999E5;fill-rule:evenodd;stroke:#9999E5;stroke-width:1.0px;stroke-linecap:butt;stroke-linejoin:miter;stroke-opacity:1"/>
<path class="bond-0 atom-0 atom-1" d="M 139.0,84.0 L 104.5,96.9" style="fill:none;fill-rule:evenodd;stroke:#E5E5E5;stroke-width:2.1px;stroke-linecap:butt;stroke-linejoin:miter;stroke-opacity:1"/>
<path class="bond-0 atom-0 atom-1" d="M 136.9,78.6 L 105.6,90.2" style="fill:none;fill-rule:evenodd;stroke:#E5E5E5;stroke-width:2.1px;stroke-linecap:butt;stroke-linejoin:miter;stroke-opacity:1"/>
<path class="bond-1 atom-1 atom-2" d="M 104.5,96.9 L 74.6,72.1" style="fill:none;fill-rule:evenodd;stroke:#000000;stroke-width:2.0px;stroke-linecap:butt;stroke-linejoin:miter;stroke-opacity:1"/>
<path class="bond-2 atom-2 atom-3" d="M 74.6,72.1 L 38.2,85.7" style="fill:none;fill-rule:evenodd;stroke:#000000;stroke-width:2.0px;stroke-linecap:butt;stroke-linejoin:miter;stroke-opacity:1"/>
<path class="bond-3 atom-3 atom-4" d="M 38.2,85.7 L 9.1,61.7" style="fill:none;fill-rule:evenodd;stroke:#E5E5E5;stroke-width:2.1px;stroke-linecap:butt;stroke-linejoin:miter;stroke-opacity:1"/>
<path class="bond-3 atom-3 atom-4" d="M 39.3,79.1 L 12.8,57.2" style="fill:none;fill-rule:evenodd;stroke:#E5E5E5;stroke-width:2.1px;stroke-linecap:butt;stroke-linejoin:miter;stroke-opacity:1"/>
<path d="M 105.4,96.5 L 104.5,96.9 L 103.8,96.2" style="fill:none;stroke:#E5E5E5;stroke-width:2.1px;stroke-linecap:butt;stroke-linejoin:miter;stroke-opacity:1;"/>
<path d="M 76.1,73.4 L 74.6,72.1 L 72.8,72.8" style="fill:none;stroke:#000000;stroke-width:2.0px;stroke-linecap:butt;stroke-linejoin:miter;stroke-opacity:1;"/>
<path d="M 39.1,85.4 L 38.2,85.7 L 37.5,85.1" style="fill:none;stroke:#000000;stroke-width:2.0px;stroke-linecap:butt;stroke-linejoin:miter;stroke-opacity:1;"/>
<path class="atom-0" d="M 137.8 79.3 L 139.4 77.7 L 137.3 77.3 L 137.6 76.2 L 139.6 77.1 L 139.3 75.0 L 140.5 75.0 L 140.2 77.1 L 142.2 76.2 L 142.5 77.3 L 140.3 77.7 L 141.9 79.3 L 140.9 80.0 L 139.9 78.0 L 138.8 80.0 L 137.8 79.3 " fill="#191919"/>
<path class="atom-4" d="M 8.0 57.5 L 9.6 55.9 L 7.5 55.4 L 7.8 54.3 L 9.8 55.3 L 9.5 53.2 L 10.7 53.1 L 10.4 55.3 L 12.4 54.4 L 12.7 55.4 L 10.5 55.8 L 12.1 57.5 L 11.1 58.2 L 10.1 56.1 L 9.0 58.2 L 8.0 57.5 " fill="#191919"/>
</svg>