<svg xmlns="http://www.w3.org/2000/svg" xmlns:rdkit="http://www.rdkit.org/xml" xmlns:xlink="http://www.w3.org/1999/xlink" version="1.1" baseProfile="full" xml:space="preserve" width="150px" height="150px" viewBox="0 0 150 150">
<!-- END OF HEADER -->
<rect style="opacity:1.0;fill:#FFFFFF;stroke:none" width="150.0" height="150.0" x="0.0" y="0.0"> </rect>
<ellipse cx="69.7" cy="59.2" rx="14.9" ry="14.9" class="atom-1" style="fill:#9999E5;fill-rule:evenodd;stroke:#9999E5;stroke-width:1.0px;stroke-linecap:butt;stroke-linejoin:miter;stroke-opacity:1"/>
<path class="bond-0 atom-0 atom-1" d="M 19.9,100.6 L 69.7,59.2" style="fill:none;fill-rule:evenodd;stroke:#E5E5E5;stroke-width:4.0px;stroke-linecap:butt;stroke-linejoin:miter;stroke-opacity:1"/>
<path class="bond-1 atom-1 atom-2" d="M 69.7,59.2 L 132.0,82.2" style="fill:none;fill-rule:evenodd;stroke:#E5E5E5;stroke-width:4.0px;stroke-linecap:butt;stroke-linejoin:miter;stroke-opacity:1"/>
<path class="bond-1 atom-1 atom-2" d="M 71.8,71.9 L 128.1,92.7" style="fill:none;fill-rule:evenodd;stroke:#E5E5E5;stroke-width:4.0px;stroke-linecap:butt;stroke-linejoin:miter;stroke-opacity:1"/>
<path d="M 67.2,61.3 L 69.7,59.2 L 72.8,60.3" style="fill:none;stroke:#E5E5E5;stroke-width:4.0px;stroke-linecap:butt;stroke-linejoin:miter;stroke-opacity:1;"/>
<path class="atom-0" d="M 8.5 104.4 L 11.6 101.3 L 7.5 100.4 L 8.1 98.3 L 11.9 100.2 L 11.4 96.1 L 13.6 96.0 L 13.0 100.2 L 16.8 98.4 L 17.5 100.4 L 13.3 101.2 L 16.3 104.4 L 14.5 105.7 L 12.4 101.8 L 10.3 105.7 L 8.5 104.4 " fill="#191919"/>
<path class="atom-2" d="M 133.5 87.8 L 136.6 84.7 L 132.5 83.8 L 133.2 81.7 L 136.9 83.6 L 136.4 79.5 L 138.6 79.5 L 138.0 83.6 L 141.8 81.8 L 142.5 83.8 L 138.3 84.6 L 141.3 87.8 L 139.5 89.1 L 137.4 85.2 L 135.4 89.1 L 133.5 87.8 " fill="#191919"/>
</svg>