<svg xmlns="http://www.w3.org/2000/svg" xmlns:rdkit="http://www.rdkit.org/xml" xmlns:xlink="http://www.w3.org/1999/xlink" version="1.1" baseProfile="full" xml:space="preserve" width="150px" height="150px" viewBox="0 0 150 150">
<!-- END OF HEADER -->
<rect style="opacity:1.0;fill:#FFFFFF;stroke:none" width="150.0" height="150.0" x="0.0" y="0.0"> </rect>
<ellipse cx="66.6" cy="70.1" rx="14.8" ry="14.8" class="atom-1" style="fill:#9999E5;fill-rule:evenodd;stroke:#9999E5;stroke-width:1.0px;stroke-linecap:butt;stroke-linejoin:miter;stroke-opacity:1"/>
<path class="bond-0 atom-0 atom-1" d="M 13.9,20.8 L 66.6,70.1" style="fill:none;fill-rule:evenodd;stroke:#E5E5E5;stroke-width:4.0px;stroke-linecap:butt;stroke-linejoin:miter;stroke-opacity:1"/>
<path class="bond-1 atom-1 atom-2" d="M 66.6,70.1 L 52.8,129.2" style="fill:none;fill-rule:evenodd;stroke:#E5E5E5;stroke-width:4.0px;stroke-linecap:butt;stroke-linejoin:miter;stroke-opacity:1"/>
<path class="bond-2 atom-1 atom-3" d="M 65.1,76.4 L 134.6,55.3" style="fill:none;fill-rule:evenodd;stroke:#E5E5E5;stroke-width:4.0px;stroke-linecap:butt;stroke-linejoin:miter;stroke-opacity:1"/>
<path class="bond-2 atom-1 atom-3" d="M 61.9,65.7 L 131.4,44.6" style="fill:none;fill-rule:evenodd;stroke:#E5E5E5;stroke-width:4.0px;stroke-linecap:butt;stroke-linejoin:miter;stroke-opacity:1"/>
<path d="M 64.0,67.6 L 66.6,70.1 L 65.9,73.1" style="fill:none;stroke:#E5E5E5;stroke-width:4.0px;stroke-linecap:butt;stroke-linejoin:miter;stroke-opacity:1;"/>
<path class="atom-0" d="M 8.5 17.1 L 11.6 13.9 L 7.5 13.1 L 8.1 11.0 L 11.9 12.9 L 11.4 8.8 L 13.6 8.8 L 13.0 12.9 L 16.8 11.1 L 17.4 13.1 L 13.3 13.9 L 16.2 17.1 L 14.4 18.4 L 12.4 14.4 L 10.3 18.4 L 8.5 17.1 " fill="#191919"/>
<path class="atom-2" d="M 45.8 140.0 L 48.9 136.8 L 44.8 136.0 L 45.4 133.9 L 49.2 135.8 L 48.6 131.7 L 50.9 131.6 L 50.2 135.8 L 54.1 134.0 L 54.7 136.0 L 50.6 136.8 L 53.5 139.9 L 51.7 141.2 L 49.7 137.3 L 47.6 141.2 L 45.8 140.0 " fill="#191919"/>
<path class="atom-3" d="M 133.6 46.2 L 136.7 43.1 L 132.6 42.3 L 133.2 40.2 L 137.0 42.1 L 136.4 37.9 L 138.6 37.9 L 138.0 42.0 L 141.8 40.2 L 142.5 42.3 L 138.3 43.0 L 141.3 46.2 L 139.5 47.5 L 137.5 43.6 L 135.4 47.5 L 133.6 46.2 " fill="#191919"/>
</svg>