<svg xmlns="http://www.w3.org/2000/svg" xmlns:rdkit="http://www.rdkit.org/xml" xmlns:xlink="http://www.w3.org/1999/xlink" version="1.1" baseProfile="full" xml:space="preserve" width="150px" height="150px" viewBox="0 0 150 150">
<!-- END OF HEADER -->
<rect style="opacity:1.0;fill:#FFFFFF;stroke:none" width="150.0" height="150.0" x="0.0" y="0.0"> </rect>
<ellipse cx="65.0" cy="93.9" rx="8.9" ry="8.9" class="atom-1" style="fill:#9999E5;fill-rule:evenodd;stroke:#9999E5;stroke-width:1.0px;stroke-linecap:butt;stroke-linejoin:miter;stroke-opacity:1"/>
<ellipse cx="22.0" cy="82.4" rx="8.9" ry="8.9" class="atom-2" style="fill:#CCCCCC;fill-rule:evenodd;stroke:#CCCCCC;stroke-width:1.0px;stroke-linecap:butt;stroke-linejoin:miter;stroke-opacity:1"/>
<ellipse cx="96.5" cy="62.5" rx="8.9" ry="8.9" class="atom-5" style="fill:#CCCCCC;fill-rule:evenodd;stroke:#CCCCCC;stroke-width:1.0px;stroke-linecap:butt;stroke-linejoin:miter;stroke-opacity:1"/>
<path class="bond-0 atom-0 atom-1" d="M 76.5,137.0 L 65.0,93.9" style="fill:none;fill-rule:evenodd;stroke:#000000;stroke-width:2.0px;stroke-linecap:butt;stroke-linejoin:miter;stroke-opacity:1"/>
<path class="bond-1 atom-1 atom-2" d="M 65.0,93.9 L 22.0,82.4" style="fill:none;fill-rule:evenodd;stroke:#000000;stroke-width:2.0px;stroke-linecap:butt;stroke-linejoin:miter;stroke-opacity:1"/>
<path class="bond-1 atom-1 atom-2" d="M 63.0,86.5 L 27.4,76.9" style="fill:none;fill-rule:evenodd;stroke:#000000;stroke-width:2.0px;stroke-linecap:butt;stroke-linejoin:miter;stroke-opacity:1"/>
<path class="bond-2 atom-2 atom-3" d="M 22.0,82.4 L 10.7,40.2" style="fill:none;fill-rule:evenodd;stroke:#E5E5E5;stroke-width:2.4px;stroke-linecap:butt;stroke-linejoin:miter;stroke-opacity:1"/>
<path class="bond-3 atom-4 atom-5" d="M 135.1,72.8 L 96.5,62.5" style="fill:none;fill-rule:evenodd;stroke:#E5E5E5;stroke-width:2.4px;stroke-linecap:butt;stroke-linejoin:miter;stroke-opacity:1"/>
<path class="bond-4 atom-5 atom-1" d="M 96.5,62.5 L 65.0,93.9" style="fill:none;fill-rule:evenodd;stroke:#000000;stroke-width:2.0px;stroke-linecap:butt;stroke-linejoin:miter;stroke-opacity:1"/>
<path class="bond-5 atom-6 atom-5" d="M 85.6,21.7 L 100.4,63.5 L 96.5,62.5 Z" style="fill:#E5E5E5;fill-rule:evenodd;fill-opacity:1;stroke:#E5E5E5;stroke-width:0.5px;stroke-linecap:butt;stroke-linejoin:miter;stroke-opacity:1;"/>
<path class="bond-5 atom-6 atom-5" d="M 85.6,21.7 L 96.5,62.5 L 93.6,65.3 Z" style="fill:#E5E5E5;fill-rule:evenodd;fill-opacity:1;stroke:#E5E5E5;stroke-width:0.5px;stroke-linecap:butt;stroke-linejoin:miter;stroke-opacity:1;"/>
<path d="M 23.1,82.7 L 22.0,82.4 L 21.7,81.3" style="fill:none;stroke:#000000;stroke-width:2.0px;stroke-linecap:butt;stroke-linejoin:miter;stroke-opacity:1;"/>
<path d="M 97.5,62.7 L 96.5,62.5 L 95.7,63.3" style="fill:none;stroke:#E5E5E5;stroke-width:2.4px;stroke-linecap:butt;stroke-linejoin:miter;stroke-opacity:1;"/>
<path class="atom-3" d="M 8.1 38.0 L 10.0 36.1 L 7.5 35.6 L 7.9 34.3 L 10.1 35.5 L 9.8 33.0 L 11.2 33.0 L 10.8 35.4 L 13.1 34.4 L 13.5 35.6 L 11.0 36.0 L 12.8 37.9 L 11.7 38.7 L 10.4 36.4 L 9.2 38.7 L 8.1 38.0 " fill="#191919"/>
<path class="atom-4" d="M 137.1 72.6 L 139.0 70.7 L 136.5 70.2 L 136.9 69.0 L 139.2 70.1 L 138.8 67.6 L 140.2 67.6 L 139.8 70.1 L 142.1 69.0 L 142.5 70.2 L 140.0 70.7 L 141.8 72.6 L 140.7 73.4 L 139.5 71.0 L 138.2 73.4 L 137.1 72.6 " fill="#191919"/>
<path class="atom-6" d="M 82.6 18.0 L 84.5 16.2 L 82.0 15.7 L 82.4 14.4 L 84.7 15.5 L 84.3 13.1 L 85.7 13.0 L 85.3 15.5 L 87.6 14.4 L 88.0 15.7 L 85.5 16.1 L 87.3 18.0 L 86.2 18.8 L 85.0 16.5 L 83.7 18.8 L 82.6 18.0 " fill="#191919"/>
</svg>