<svg xmlns="http://www.w3.org/2000/svg" xmlns:rdkit="http://www.rdkit.org/xml" xmlns:xlink="http://www.w3.org/1999/xlink" version="1.1" baseProfile="full" xml:space="preserve" width="150px" height="150px" viewBox="0 0 150 150">
<!-- END OF HEADER -->
<rect style="opacity:1.0;fill:#FFFFFF;stroke:none" width="150.0" height="150.0" x="0.0" y="0.0"> </rect>
<ellipse cx="78.4" cy="65.6" rx="14.5" ry="14.5" class="atom-1" style="fill:#9999E5;fill-rule:evenodd;stroke:#9999E5;stroke-width:1.0px;stroke-linecap:butt;stroke-linejoin:miter;stroke-opacity:1"/>
<path class="bond-0 atom-0 atom-1" d="M 15.3,36.6 L 78.4,65.6" style="fill:none;fill-rule:evenodd;stroke:#E5E5E5;stroke-width:3.9px;stroke-linecap:butt;stroke-linejoin:miter;stroke-opacity:1"/>
<path class="bond-1 atom-1 atom-2" d="M 78.4,65.6 L 83.9,125.0" style="fill:none;fill-rule:evenodd;stroke:#E5E5E5;stroke-width:3.9px;stroke-linecap:butt;stroke-linejoin:miter;stroke-opacity:1"/>
<path class="bond-2 atom-1 atom-3" d="M 78.9,71.8 L 138.9,29.4" style="fill:none;fill-rule:evenodd;stroke:#E5E5E5;stroke-width:3.9px;stroke-linecap:butt;stroke-linejoin:miter;stroke-opacity:1"/>
<path class="bond-2 atom-1 atom-3" d="M 72.6,63.0 L 132.6,20.5" style="fill:none;fill-rule:evenodd;stroke:#E5E5E5;stroke-width:3.9px;stroke-linecap:butt;stroke-linejoin:miter;stroke-opacity:1"/>
<path d="M 75.2,64.1 L 78.4,65.6 L 78.6,68.6" style="fill:none;stroke:#E5E5E5;stroke-width:3.9px;stroke-linecap:butt;stroke-linejoin:miter;stroke-opacity:1;"/>
<path class="atom-0" d="M 8.5 32.9 L 11.5 29.9 L 7.5 29.1 L 8.1 27.0 L 11.8 28.9 L 11.3 24.8 L 13.5 24.8 L 12.8 28.8 L 16.6 27.1 L 17.2 29.1 L 13.2 29.8 L 16.1 32.9 L 14.3 34.2 L 12.3 30.4 L 10.3 34.2 L 8.5 32.9 " fill="#191919"/>
<path class="atom-2" d="M 81.2 135.6 L 84.2 132.5 L 80.2 131.7 L 80.8 129.7 L 84.5 131.5 L 84.0 127.5 L 86.2 127.4 L 85.6 131.5 L 89.3 129.7 L 89.9 131.7 L 85.9 132.5 L 88.8 135.6 L 87.0 136.9 L 85.0 133.0 L 83.0 136.9 L 81.2 135.6 " fill="#191919"/>
<path class="atom-3" d="M 133.8 21.3 L 136.8 18.2 L 132.8 17.4 L 133.4 15.3 L 137.1 17.2 L 136.5 13.2 L 138.7 13.1 L 138.1 17.2 L 141.9 15.4 L 142.5 17.4 L 138.4 18.2 L 141.3 21.3 L 139.6 22.6 L 137.6 18.7 L 135.5 22.6 L 133.8 21.3 " fill="#191919"/>
</svg>