<svg xmlns="http://www.w3.org/2000/svg" xmlns:rdkit="http://www.rdkit.org/xml" xmlns:xlink="http://www.w3.org/1999/xlink" version="1.1" baseProfile="full" xml:space="preserve" width="150px" height="150px" viewBox="0 0 150 150">
<!-- END OF HEADER -->
<rect style="opacity:1.0;fill:#FFFFFF;stroke:none" width="150.0" height="150.0" x="0.0" y="0.0"> </rect>
<ellipse cx="54.9" cy="108.5" rx="16.6" ry="16.6" class="atom-1" style="fill:#9999E5;fill-rule:evenodd;stroke:#9999E5;stroke-width:1.0px;stroke-linecap:butt;stroke-linejoin:miter;stroke-opacity:1"/>
<path class="bond-0 atom-0 atom-1" d="M 129.2,102.6 L 54.9,108.5" style="fill:none;fill-rule:evenodd;stroke:#E5E5E5;stroke-width:4.4px;stroke-linecap:butt;stroke-linejoin:miter;stroke-opacity:1"/>
<path class="bond-0 atom-0 atom-1" d="M 128.2,90.2 L 61.1,95.6" style="fill:none;fill-rule:evenodd;stroke:#E5E5E5;stroke-width:4.4px;stroke-linecap:butt;stroke-linejoin:miter;stroke-opacity:1;stroke-dasharray:6,4"/>
<path class="bond-1 atom-1 atom-2" d="M 54.9,108.5 L 9.0,41.9" style="fill:none;fill-rule:evenodd;stroke:#E5E5E5;stroke-width:4.4px;stroke-linecap:butt;stroke-linejoin:miter;stroke-opacity:1"/>
<path class="bond-1 atom-1 atom-2" d="M 61.1,95.6 L 19.2,34.8" style="fill:none;fill-rule:evenodd;stroke:#E5E5E5;stroke-width:4.4px;stroke-linecap:butt;stroke-linejoin:miter;stroke-opacity:1;stroke-dasharray:6,4"/>
<path d="M 58.6,108.2 L 54.9,108.5 L 52.6,105.2" style="fill:none;stroke:#E5E5E5;stroke-width:4.4px;stroke-linecap:butt;stroke-linejoin:miter;stroke-opacity:1;"/>
<path class="atom-0" d="M 132.5 93.1 L 136.0 89.6 L 131.4 88.7 L 132.1 86.4 L 136.3 88.5 L 135.7 83.9 L 138.2 83.8 L 137.5 88.4 L 141.8 86.5 L 142.5 88.7 L 137.9 89.6 L 141.2 93.1 L 139.2 94.6 L 136.9 90.2 L 134.6 94.6 L 132.5 93.1 " fill="#191919"/>
<path class="atom-2" d="M 8.6 34.2 L 12.1 30.7 L 7.5 29.8 L 8.2 27.4 L 12.4 29.5 L 11.8 24.9 L 14.3 24.9 L 13.6 29.5 L 17.9 27.5 L 18.6 29.8 L 14.0 30.6 L 17.3 34.2 L 15.3 35.6 L 13.0 31.3 L 10.6 35.6 L 8.6 34.2 " fill="#191919"/>
</svg>