<svg xmlns="http://www.w3.org/2000/svg" xmlns:rdkit="http://www.rdkit.org/xml" xmlns:xlink="http://www.w3.org/1999/xlink" version="1.1" baseProfile="full" xml:space="preserve" width="150px" height="150px" viewBox="0 0 150 150">
<!-- END OF HEADER -->
<rect style="opacity:1.0;fill:#FFFFFF;stroke:none" width="150.0" height="150.0" x="0.0" y="0.0"> </rect>
<ellipse cx="54.4" cy="79.6" rx="8.8" ry="8.8" class="atom-1" style="fill:#E5E533;fill-rule:evenodd;stroke:#E5E533;stroke-width:1.0px;stroke-linecap:butt;stroke-linejoin:miter;stroke-opacity:1"/>
<ellipse cx="76.7" cy="41.6" rx="8.8" ry="8.8" class="atom-2" style="fill:#9999E5;fill-rule:evenodd;stroke:#9999E5;stroke-width:1.0px;stroke-linecap:butt;stroke-linejoin:miter;stroke-opacity:1"/>
<ellipse cx="120.7" cy="41.9" rx="8.8" ry="8.8" class="atom-3" style="fill:#E5E533;fill-rule:evenodd;stroke:#E5E533;stroke-width:1.0px;stroke-linecap:butt;stroke-linejoin:miter;stroke-opacity:1"/>
<path class="bond-0 atom-0 atom-1" d="M 68.9,111.7 L 50.6,79.5" style="fill:none;fill-rule:evenodd;stroke:#E5E5E5;stroke-width:2.3px;stroke-linecap:butt;stroke-linejoin:miter;stroke-opacity:1"/>
<path class="bond-0 atom-0 atom-1" d="M 74.6,108.4 L 56.4,76.3" style="fill:none;fill-rule:evenodd;stroke:#E5E5E5;stroke-width:2.3px;stroke-linecap:butt;stroke-linejoin:miter;stroke-opacity:1;stroke-dasharray:6,4"/>
<path class="bond-1 atom-1 atom-2" d="M 54.4,79.6 L 76.7,41.6" style="fill:none;fill-rule:evenodd;stroke:#000000;stroke-width:2.0px;stroke-linecap:butt;stroke-linejoin:miter;stroke-opacity:1"/>
<path class="bond-1 atom-1 atom-2" d="M 62.1,79.6 L 80.5,48.2" style="fill:none;fill-rule:evenodd;stroke:#000000;stroke-width:2.0px;stroke-linecap:butt;stroke-linejoin:miter;stroke-opacity:1;stroke-dasharray:6,4"/>
<path class="bond-2 atom-2 atom-3" d="M 76.7,41.6 L 120.7,41.9" style="fill:none;fill-rule:evenodd;stroke:#000000;stroke-width:2.0px;stroke-linecap:butt;stroke-linejoin:miter;stroke-opacity:1"/>
<path class="bond-2 atom-2 atom-3" d="M 80.5,48.2 L 116.8,48.5" style="fill:none;fill-rule:evenodd;stroke:#000000;stroke-width:2.0px;stroke-linecap:butt;stroke-linejoin:miter;stroke-opacity:1;stroke-dasharray:6,4"/>
<path class="bond-3 atom-1 atom-4" d="M 54.4,79.6 L 14.8,79.3" style="fill:none;fill-rule:evenodd;stroke:#E5E5E5;stroke-width:2.3px;stroke-linecap:butt;stroke-linejoin:miter;stroke-opacity:1"/>
<path class="bond-4 atom-3 atom-5" d="M 120.7,41.9 L 138.0,72.4" style="fill:none;fill-rule:evenodd;stroke:#E5E5E5;stroke-width:2.3px;stroke-linecap:butt;stroke-linejoin:miter;stroke-opacity:1"/>
<path class="bond-4 atom-3 atom-5" d="M 116.8,48.5 L 132.3,75.7" style="fill:none;fill-rule:evenodd;stroke:#E5E5E5;stroke-width:2.3px;stroke-linecap:butt;stroke-linejoin:miter;stroke-opacity:1;stroke-dasharray:6,4"/>
<path d="M 75.6,43.5 L 76.7,41.6 L 78.9,41.6" style="fill:none;stroke:#000000;stroke-width:2.0px;stroke-linecap:butt;stroke-linejoin:miter;stroke-opacity:1;"/>
<path d="M 119.6,41.9 L 120.7,41.9 L 121.1,42.7" style="fill:none;stroke:#000000;stroke-width:2.0px;stroke-linecap:butt;stroke-linejoin:miter;stroke-opacity:1;"/>
<path class="atom-0" d="M 73.8 116.4 L 75.7 114.6 L 73.2 114.1 L 73.6 112.8 L 75.8 113.9 L 75.5 111.5 L 76.8 111.5 L 76.5 113.9 L 78.7 112.9 L 79.1 114.1 L 76.7 114.5 L 78.4 116.4 L 77.3 117.2 L 76.1 114.9 L 74.9 117.2 L 73.8 116.4 " fill="#191919"/>
<path class="atom-4" d="M 8.1 77.9 L 9.9 76.0 L 7.5 75.5 L 7.9 74.3 L 10.1 75.4 L 9.8 72.9 L 11.1 72.9 L 10.7 75.4 L 13.0 74.3 L 13.4 75.5 L 10.9 76.0 L 12.7 77.9 L 11.6 78.6 L 10.4 76.3 L 9.2 78.6 L 8.1 77.9 " fill="#191919"/>
<path class="atom-5" d="M 137.2 80.4 L 139.0 78.5 L 136.6 78.0 L 137.0 76.8 L 139.2 77.9 L 138.9 75.5 L 140.2 75.5 L 139.8 77.9 L 142.1 76.9 L 142.5 78.0 L 140.0 78.5 L 141.8 80.4 L 140.7 81.2 L 139.5 78.8 L 138.3 81.2 L 137.2 80.4 " fill="#191919"/>
</svg>