<svg xmlns="http://www.w3.org/2000/svg" xmlns:rdkit="http://www.rdkit.org/xml" xmlns:xlink="http://www.w3.org/1999/xlink" version="1.1" baseProfile="full" xml:space="preserve" width="150px" height="150px" viewBox="0 0 150 150">
<!-- END OF HEADER -->
<rect style="opacity:1.0;fill:#FFFFFF;stroke:none" width="150.0" height="150.0" x="0.0" y="0.0"> </rect>
<ellipse cx="79.1" cy="80.3" rx="13.4" ry="13.4" class="atom-1" style="fill:#E5E533;fill-rule:evenodd;stroke:#E5E533;stroke-width:1.0px;stroke-linecap:butt;stroke-linejoin:miter;stroke-opacity:1"/>
<ellipse cx="115.9" cy="24.1" rx="13.4" ry="13.4" class="atom-2" style="fill:#9999E5;fill-rule:evenodd;stroke:#9999E5;stroke-width:1.0px;stroke-linecap:butt;stroke-linejoin:miter;stroke-opacity:1"/>
<path class="bond-0 atom-0 atom-1" d="M 19.0,71.9 L 82.3,75.5" style="fill:none;fill-rule:evenodd;stroke:#E5E5E5;stroke-width:3.6px;stroke-linecap:butt;stroke-linejoin:miter;stroke-opacity:1"/>
<path class="bond-0 atom-0 atom-1" d="M 18.4,82.0 L 81.7,85.5" style="fill:none;fill-rule:evenodd;stroke:#E5E5E5;stroke-width:3.6px;stroke-linecap:butt;stroke-linejoin:miter;stroke-opacity:1;stroke-dasharray:6,4"/>
<path class="bond-1 atom-1 atom-2" d="M 79.1,80.3 L 93.5,58.3" style="fill:none;fill-rule:evenodd;stroke:#000000;stroke-width:2.0px;stroke-linecap:butt;stroke-linejoin:miter;stroke-opacity:1"/>
<path class="bond-1 atom-1 atom-2" d="M 93.5,58.3 L 108.0,36.2" style="fill:none;fill-rule:evenodd;stroke:#FF0000;stroke-width:2.0px;stroke-linecap:butt;stroke-linejoin:miter;stroke-opacity:1"/>
<path class="bond-2 atom-1 atom-3" d="M 73.3,80.0 L 98.9,130.7" style="fill:none;fill-rule:evenodd;stroke:#E5E5E5;stroke-width:3.6px;stroke-linecap:butt;stroke-linejoin:miter;stroke-opacity:1"/>
<path class="bond-2 atom-1 atom-3" d="M 82.3,75.5 L 107.9,126.1" style="fill:none;fill-rule:evenodd;stroke:#E5E5E5;stroke-width:3.6px;stroke-linecap:butt;stroke-linejoin:miter;stroke-opacity:1;stroke-dasharray:6,4"/>
<path class="atom-0" d="M 8.4 74.4 L 11.2 71.6 L 7.5 70.8 L 8.1 68.9 L 11.5 70.6 L 11.0 66.9 L 13.0 66.9 L 12.4 70.6 L 15.9 69.0 L 16.5 70.8 L 12.7 71.5 L 15.4 74.4 L 13.8 75.6 L 11.9 72.0 L 10.1 75.6 L 8.4 74.4 " fill="#191919"/>
<path class="atom-2" d="M 107.2 24.1 Q 107.2 19.6, 109.4 17.0 Q 111.7 14.5, 115.9 14.5 Q 120.1 14.5, 122.4 17.0 Q 124.6 19.6, 124.6 24.1 Q 124.6 28.8, 122.4 31.4 Q 120.1 34.0, 115.9 34.0 Q 111.7 34.0, 109.4 31.4 Q 107.2 28.8, 107.2 24.1 M 115.9 31.9 Q 118.8 31.9, 120.4 29.9 Q 122.0 28.0, 122.0 24.1 Q 122.0 20.4, 120.4 18.5 Q 118.8 16.6, 115.9 16.6 Q 113.0 16.6, 111.4 18.5 Q 109.9 20.4, 109.9 24.1 Q 109.9 28.0, 111.4 29.9 Q 113.0 31.9, 115.9 31.9 " fill="#FF0000"/>
<path class="atom-2" d="M 127.6 14.7 L 130.2 14.7 L 130.2 22.8 L 139.9 22.8 L 139.9 14.7 L 142.5 14.7 L 142.5 33.7 L 139.9 33.7 L 139.9 24.9 L 130.2 24.9 L 130.2 33.7 L 127.6 33.7 L 127.6 14.7 " fill="#FF0000"/>
<path class="atom-3" d="M 105.8 138.2 L 108.6 135.3 L 104.9 134.6 L 105.5 132.7 L 108.9 134.4 L 108.4 130.7 L 110.4 130.6 L 109.8 134.4 L 113.3 132.8 L 113.9 134.6 L 110.1 135.3 L 112.8 138.2 L 111.2 139.3 L 109.3 135.8 L 107.4 139.3 L 105.8 138.2 " fill="#191919"/>
</svg>