<svg xmlns="http://www.w3.org/2000/svg" xmlns:rdkit="http://www.rdkit.org/xml" xmlns:xlink="http://www.w3.org/1999/xlink" version="1.1" baseProfile="full" xml:space="preserve" width="150px" height="150px" viewBox="0 0 150 150">
<!-- END OF HEADER -->
<rect style="opacity:1.0;fill:#FFFFFF;stroke:none" width="150.0" height="150.0" x="0.0" y="0.0"> </rect>
<ellipse cx="56.9" cy="80.7" rx="14.5" ry="14.5" class="atom-1" style="fill:#9999E5;fill-rule:evenodd;stroke:#9999E5;stroke-width:1.0px;stroke-linecap:butt;stroke-linejoin:miter;stroke-opacity:1"/>
<path class="bond-0 atom-0 atom-1" d="M 27.9,131.0 L 56.9,80.7" style="fill:none;fill-rule:evenodd;stroke:#E5E5E5;stroke-width:3.9px;stroke-linecap:butt;stroke-linejoin:miter;stroke-opacity:1"/>
<path class="bond-1 atom-1 atom-2" d="M 56.9,80.7 L 21.4,19.3" style="fill:none;fill-rule:evenodd;stroke:#E5E5E5;stroke-width:3.9px;stroke-linecap:butt;stroke-linejoin:miter;stroke-opacity:1"/>
<path class="bond-2 atom-1 atom-3" d="M 53.7,86.2 L 122.1,86.2" style="fill:none;fill-rule:evenodd;stroke:#E5E5E5;stroke-width:3.9px;stroke-linecap:butt;stroke-linejoin:miter;stroke-opacity:1"/>
<path class="bond-2 atom-1 atom-3" d="M 53.7,75.3 L 122.1,75.3" style="fill:none;fill-rule:evenodd;stroke:#E5E5E5;stroke-width:3.9px;stroke-linecap:butt;stroke-linejoin:miter;stroke-opacity:1"/>
<path d="M 55.4,83.3 L 56.9,80.7 L 55.1,77.7" style="fill:none;stroke:#E5E5E5;stroke-width:3.9px;stroke-linecap:butt;stroke-linejoin:miter;stroke-opacity:1;"/>
<path class="atom-0" d="M 16.7 141.3 L 19.8 138.2 L 15.8 137.4 L 16.4 135.3 L 20.0 137.2 L 19.5 133.1 L 21.7 133.1 L 21.1 137.1 L 24.8 135.4 L 25.5 137.4 L 21.4 138.1 L 24.3 141.2 L 22.5 142.5 L 20.5 138.7 L 18.5 142.5 L 16.7 141.3 " fill="#191919"/>
<path class="atom-2" d="M 16.7 15.7 L 19.8 12.6 L 15.8 11.8 L 16.4 9.7 L 20.0 11.6 L 19.5 7.5 L 21.7 7.5 L 21.1 11.5 L 24.8 9.8 L 25.5 11.8 L 21.4 12.5 L 24.3 15.6 L 22.5 16.9 L 20.5 13.1 L 18.5 16.9 L 16.7 15.7 " fill="#191919"/>
<path class="atom-3" d="M 125.5 78.5 L 128.5 75.4 L 124.5 74.6 L 125.1 72.5 L 128.8 74.4 L 128.3 70.3 L 130.5 70.3 L 129.9 74.3 L 133.6 72.6 L 134.2 74.6 L 130.2 75.3 L 133.1 78.4 L 131.3 79.7 L 129.3 75.9 L 127.3 79.7 L 125.5 78.5 " fill="#191919"/>
</svg>