<svg xmlns="http://www.w3.org/2000/svg" xmlns:rdkit="http://www.rdkit.org/xml" xmlns:xlink="http://www.w3.org/1999/xlink" version="1.1" baseProfile="full" xml:space="preserve" width="150px" height="150px" viewBox="0 0 150 150">
<!-- END OF HEADER -->
<rect style="opacity:1.0;fill:#FFFFFF;stroke:none" width="150.0" height="150.0" x="0.0" y="0.0"> </rect>
<ellipse cx="93.1" cy="80.7" rx="14.5" ry="14.5" class="atom-1" style="fill:#9999E5;fill-rule:evenodd;stroke:#9999E5;stroke-width:1.0px;stroke-linecap:butt;stroke-linejoin:miter;stroke-opacity:1"/>
<path class="bond-0 atom-0 atom-1" d="M 122.1,131.0 L 93.1,80.7" style="fill:none;fill-rule:evenodd;stroke:#E5E5E5;stroke-width:3.9px;stroke-linecap:butt;stroke-linejoin:miter;stroke-opacity:1"/>
<path class="bond-1 atom-1 atom-2" d="M 96.3,86.2 L 133.3,22.0" style="fill:none;fill-rule:evenodd;stroke:#E5E5E5;stroke-width:3.9px;stroke-linecap:butt;stroke-linejoin:miter;stroke-opacity:1"/>
<path class="bond-1 atom-1 atom-2" d="M 86.8,80.7 L 123.9,16.6" style="fill:none;fill-rule:evenodd;stroke:#E5E5E5;stroke-width:3.9px;stroke-linecap:butt;stroke-linejoin:miter;stroke-opacity:1"/>
<path class="bond-2 atom-1 atom-3" d="M 93.1,80.7 L 27.9,80.7" style="fill:none;fill-rule:evenodd;stroke:#E5E5E5;stroke-width:3.9px;stroke-linecap:butt;stroke-linejoin:miter;stroke-opacity:1"/>
<path d="M 94.6,83.3 L 93.1,80.7 L 89.9,80.7" style="fill:none;stroke:#E5E5E5;stroke-width:3.9px;stroke-linecap:butt;stroke-linejoin:miter;stroke-opacity:1;"/>
<path class="atom-0" d="M 125.5 141.3 L 128.5 138.2 L 124.5 137.4 L 125.1 135.3 L 128.8 137.2 L 128.3 133.1 L 130.5 133.1 L 129.9 137.1 L 133.6 135.4 L 134.2 137.4 L 130.2 138.1 L 133.1 141.2 L 131.3 142.5 L 129.3 138.7 L 127.3 142.5 L 125.5 141.3 " fill="#191919"/>
<path class="atom-2" d="M 125.5 15.7 L 128.5 12.6 L 124.5 11.8 L 125.1 9.7 L 128.8 11.6 L 128.3 7.5 L 130.5 7.5 L 129.9 11.5 L 133.6 9.8 L 134.2 11.8 L 130.2 12.5 L 133.1 15.6 L 131.3 16.9 L 129.3 13.1 L 127.3 16.9 L 125.5 15.7 " fill="#191919"/>
<path class="atom-3" d="M 16.7 78.5 L 19.8 75.4 L 15.8 74.6 L 16.4 72.5 L 20.0 74.4 L 19.5 70.3 L 21.7 70.3 L 21.1 74.3 L 24.8 72.6 L 25.5 74.6 L 21.4 75.3 L 24.3 78.4 L 22.5 79.7 L 20.5 75.9 L 18.5 79.7 L 16.7 78.5 " fill="#191919"/>
</svg>