<svg xmlns="http://www.w3.org/2000/svg" xmlns:rdkit="http://www.rdkit.org/xml" xmlns:xlink="http://www.w3.org/1999/xlink" version="1.1" baseProfile="full" xml:space="preserve" width="150px" height="150px" viewBox="0 0 150 150">
<!-- END OF HEADER -->
<rect style="opacity:1.0;fill:#FFFFFF;stroke:none" width="150.0" height="150.0" x="0.0" y="0.0"> </rect>
<ellipse cx="92.8" cy="80.3" rx="14.5" ry="14.5" class="atom-1" style="fill:#9999E5;fill-rule:evenodd;stroke:#9999E5;stroke-width:1.0px;stroke-linecap:butt;stroke-linejoin:miter;stroke-opacity:1"/>
<path class="bond-0 atom-0 atom-1" d="M 27.5,79.5 L 92.8,80.3" style="fill:none;fill-rule:evenodd;stroke:#E5E5E5;stroke-width:3.9px;stroke-linecap:butt;stroke-linejoin:miter;stroke-opacity:1"/>
<path class="bond-1 atom-1 atom-2" d="M 95.8,85.8 L 133.6,22.1" style="fill:none;fill-rule:evenodd;stroke:#E5E5E5;stroke-width:3.9px;stroke-linecap:butt;stroke-linejoin:miter;stroke-opacity:1"/>
<path class="bond-1 atom-1 atom-2" d="M 86.5,80.2 L 124.3,16.5" style="fill:none;fill-rule:evenodd;stroke:#E5E5E5;stroke-width:3.9px;stroke-linecap:butt;stroke-linejoin:miter;stroke-opacity:1"/>
<path class="bond-2 atom-1 atom-3" d="M 92.8,80.3 L 121.1,130.7" style="fill:none;fill-rule:evenodd;stroke:#E5E5E5;stroke-width:3.9px;stroke-linecap:butt;stroke-linejoin:miter;stroke-opacity:1"/>
<path d="M 89.5,80.3 L 92.8,80.3 L 94.2,82.8" style="fill:none;stroke:#E5E5E5;stroke-width:3.9px;stroke-linecap:butt;stroke-linejoin:miter;stroke-opacity:1;"/>
<path class="atom-0" d="M 16.4 77.2 L 19.4 74.1 L 15.4 73.3 L 16.0 71.2 L 19.7 73.1 L 19.2 69.0 L 21.3 69.0 L 20.7 73.0 L 24.5 71.3 L 25.1 73.3 L 21.0 74.0 L 23.9 77.1 L 22.2 78.4 L 20.2 74.6 L 18.1 78.4 L 16.4 77.2 " fill="#191919"/>
<path class="atom-2" d="M 125.9 15.7 L 128.9 12.6 L 124.9 11.8 L 125.5 9.7 L 129.2 11.6 L 128.7 7.5 L 130.8 7.5 L 130.2 11.5 L 134.0 9.8 L 134.6 11.8 L 130.6 12.5 L 133.5 15.6 L 131.7 16.9 L 129.7 13.1 L 127.7 16.9 L 125.9 15.7 " fill="#191919"/>
<path class="atom-3" d="M 124.4 141.3 L 127.4 138.2 L 123.4 137.4 L 124.0 135.3 L 127.7 137.2 L 127.2 133.1 L 129.4 133.1 L 128.7 137.1 L 132.5 135.4 L 133.1 137.4 L 129.1 138.1 L 132.0 141.2 L 130.2 142.5 L 128.2 138.7 L 126.2 142.5 L 124.4 141.3 " fill="#191919"/>
</svg>