<svg xmlns="http://www.w3.org/2000/svg" xmlns:rdkit="http://www.rdkit.org/xml" xmlns:xlink="http://www.w3.org/1999/xlink" version="1.1" baseProfile="full" xml:space="preserve" width="150px" height="150px" viewBox="0 0 150 150">
<!-- END OF HEADER -->
<rect style="opacity:1.0;fill:#FFFFFF;stroke:none" width="150.0" height="150.0" x="0.0" y="0.0"> </rect>
<ellipse cx="45.9" cy="72.4" rx="18.8" ry="18.8" class="atom-1" style="fill:#9999E5;fill-rule:evenodd;stroke:#9999E5;stroke-width:1.0px;stroke-linecap:butt;stroke-linejoin:miter;stroke-opacity:1"/>
<path class="bond-0 atom-0 atom-1" d="M 126.8,95.0 L 61.2,76.7" style="fill:none;fill-rule:evenodd;stroke:#E5E5E5;stroke-width:5.0px;stroke-linecap:butt;stroke-linejoin:miter;stroke-opacity:1"/>
<path class="atom-0" d="M 131.2 94.7 L 135.1 90.7 L 129.9 89.7 L 130.7 87.0 L 135.5 89.4 L 134.8 84.2 L 137.6 84.2 L 136.8 89.4 L 141.7 87.1 L 142.5 89.7 L 137.2 90.7 L 141.0 94.7 L 138.7 96.3 L 136.1 91.4 L 133.5 96.3 L 131.2 94.7 " fill="#191919"/>
<path class="atom-1" d="M 7.5 59.3 L 11.1 59.3 L 11.1 70.6 L 24.7 70.6 L 24.7 59.3 L 28.3 59.3 L 28.3 85.9 L 24.7 85.9 L 24.7 73.6 L 11.1 73.6 L 11.1 85.9 L 7.5 85.9 L 7.5 59.3 " fill="#FF0000"/>
<path class="atom-1" d="M 33.7 72.5 Q 33.7 66.1, 36.9 62.6 Q 40.0 59.0, 45.9 59.0 Q 51.8 59.0, 55.0 62.6 Q 58.1 66.1, 58.1 72.5 Q 58.1 79.0, 54.9 82.6 Q 51.7 86.3, 45.9 86.3 Q 40.1 86.3, 36.9 82.6 Q 33.7 79.0, 33.7 72.5 M 45.9 83.3 Q 50.0 83.3, 52.1 80.6 Q 54.4 77.8, 54.4 72.5 Q 54.4 67.3, 52.1 64.7 Q 50.0 62.0, 45.9 62.0 Q 41.9 62.0, 39.6 64.6 Q 37.5 67.3, 37.5 72.5 Q 37.5 77.9, 39.6 80.6 Q 41.9 83.3, 45.9 83.3 " fill="#FF0000"/>
</svg>