<svg xmlns="http://www.w3.org/2000/svg" xmlns:rdkit="http://www.rdkit.org/xml" xmlns:xlink="http://www.w3.org/1999/xlink" version="1.1" baseProfile="full" xml:space="preserve" width="150px" height="150px" viewBox="0 0 150 150">
<!-- END OF HEADER -->
<rect style="opacity:1.0;fill:#FFFFFF;stroke:none" width="150.0" height="150.0" x="0.0" y="0.0"> </rect>
<ellipse cx="54.3" cy="48.1" rx="16.5" ry="16.5" class="atom-1" style="fill:#9999E5;fill-rule:evenodd;stroke:#9999E5;stroke-width:1.0px;stroke-linecap:butt;stroke-linejoin:miter;stroke-opacity:1"/>
<path class="bond-0 atom-0 atom-1" d="M 21.3,105.3 L 54.3,48.1" style="fill:none;fill-rule:evenodd;stroke:#E5E5E5;stroke-width:4.4px;stroke-linecap:butt;stroke-linejoin:miter;stroke-opacity:1"/>
<path class="bond-1 atom-1 atom-2" d="M 54.3,48.1 L 128.7,48.1" style="fill:none;fill-rule:evenodd;stroke:#E5E5E5;stroke-width:4.4px;stroke-linecap:butt;stroke-linejoin:miter;stroke-opacity:1"/>
<path class="bond-1 atom-1 atom-2" d="M 61.5,60.5 L 128.7,60.5" style="fill:none;fill-rule:evenodd;stroke:#E5E5E5;stroke-width:4.4px;stroke-linecap:butt;stroke-linejoin:miter;stroke-opacity:1"/>
<path d="M 52.7,50.9 L 54.3,48.1 L 58.1,48.1" style="fill:none;stroke:#E5E5E5;stroke-width:4.4px;stroke-linecap:butt;stroke-linejoin:miter;stroke-opacity:1;"/>
<path class="atom-0" d="M 8.6 117.0 L 12.1 113.5 L 7.5 112.6 L 8.2 110.2 L 12.4 112.4 L 11.8 107.8 L 14.3 107.7 L 13.6 112.3 L 17.8 110.3 L 18.6 112.6 L 13.9 113.5 L 17.2 117.0 L 15.2 118.4 L 13.0 114.1 L 10.6 118.4 L 8.6 117.0 " fill="#191919"/>
<path class="atom-2" d="M 132.6 51.7 L 136.0 48.2 L 131.4 47.2 L 132.1 44.9 L 136.3 47.0 L 135.7 42.4 L 138.2 42.4 L 137.5 47.0 L 141.8 45.0 L 142.5 47.2 L 137.9 48.1 L 141.2 51.6 L 139.2 53.1 L 136.9 48.7 L 134.6 53.1 L 132.6 51.7 " fill="#191919"/>
</svg>