<svg xmlns="http://www.w3.org/2000/svg" xmlns:rdkit="http://www.rdkit.org/xml" xmlns:xlink="http://www.w3.org/1999/xlink" version="1.1" baseProfile="full" xml:space="preserve" width="150px" height="150px" viewBox="0 0 150 150">
<!-- END OF HEADER -->
<rect style="opacity:1.0;fill:#FFFFFF;stroke:none" width="150.0" height="150.0" x="0.0" y="0.0"> </rect>
<ellipse cx="84.4" cy="108.6" rx="12.1" ry="12.1" class="atom-2" style="fill:#9999E5;fill-rule:evenodd;stroke:#9999E5;stroke-width:1.0px;stroke-linecap:butt;stroke-linejoin:miter;stroke-opacity:1"/>
<path class="bond-0 atom-0 atom-1" d="M 15.5,34.8 L 69.6,50.1" style="fill:none;fill-rule:evenodd;stroke:#E5E5E5;stroke-width:3.2px;stroke-linecap:butt;stroke-linejoin:miter;stroke-opacity:1"/>
<path class="bond-1 atom-1 atom-2" d="M 69.6,50.1 L 84.4,108.6" style="fill:none;fill-rule:evenodd;stroke:#000000;stroke-width:2.0px;stroke-linecap:butt;stroke-linejoin:miter;stroke-opacity:1"/>
<path class="bond-2 atom-2 atom-3" d="M 84.4,108.6 L 142.5,125.0" style="fill:none;fill-rule:evenodd;stroke:#000000;stroke-width:2.0px;stroke-linecap:butt;stroke-linejoin:miter;stroke-opacity:1"/>
<path d="M 68.3,49.7 L 69.6,50.1 L 70.0,51.6" style="fill:none;stroke:#E5E5E5;stroke-width:3.2px;stroke-linecap:butt;stroke-linejoin:miter;stroke-opacity:1;"/>
<path d="M 83.7,105.7 L 84.4,108.6 L 87.3,109.4" style="fill:none;stroke:#000000;stroke-width:2.0px;stroke-linecap:butt;stroke-linejoin:miter;stroke-opacity:1;"/>
<path class="atom-0" d="M 8.3 31.8 L 10.8 29.2 L 7.5 28.6 L 8.0 26.8 L 11.1 28.4 L 10.6 25.0 L 12.4 25.0 L 11.9 28.4 L 15.1 26.9 L 15.6 28.6 L 12.2 29.2 L 14.6 31.8 L 13.1 32.8 L 11.5 29.6 L 9.8 32.8 L 8.3 31.8 " fill="#191919"/>
</svg>