<svg xmlns="http://www.w3.org/2000/svg" xmlns:rdkit="http://www.rdkit.org/xml" xmlns:xlink="http://www.w3.org/1999/xlink" version="1.1" baseProfile="full" xml:space="preserve" width="150px" height="150px" viewBox="0 0 150 150">
<!-- END OF HEADER -->
<rect style="opacity:1.0;fill:#FFFFFF;stroke:none" width="150.0" height="150.0" x="0.0" y="0.0"> </rect>
<ellipse cx="39.4" cy="118.0" rx="19.6" ry="19.6" class="atom-1" style="fill:#9999E5;fill-rule:evenodd;stroke:#9999E5;stroke-width:1.0px;stroke-linecap:butt;stroke-linejoin:miter;stroke-opacity:1"/>
<path class="bond-0 atom-0 atom-1" d="M 124.2,140.8 L 39.4,118.0" style="fill:none;fill-rule:evenodd;stroke:#E5E5E5;stroke-width:5.2px;stroke-linecap:butt;stroke-linejoin:miter;stroke-opacity:1"/>
<path class="bond-0 atom-0 atom-1" d="M 128.0,126.6 L 51.4,106.0" style="fill:none;fill-rule:evenodd;stroke:#E5E5E5;stroke-width:5.2px;stroke-linecap:butt;stroke-linejoin:miter;stroke-opacity:1"/>
<path class="bond-1 atom-1 atom-2" d="M 39.4,118.0 L 14.6,25.1" style="fill:none;fill-rule:evenodd;stroke:#E5E5E5;stroke-width:5.2px;stroke-linecap:butt;stroke-linejoin:miter;stroke-opacity:1"/>
<path d="M 43.6,119.1 L 39.4,118.0 L 38.1,113.4" style="fill:none;stroke:#E5E5E5;stroke-width:5.2px;stroke-linecap:butt;stroke-linejoin:miter;stroke-opacity:1;"/>
<path class="atom-0" d="M 130.7 133.2 L 134.8 129.1 L 129.4 128.0 L 130.2 125.2 L 135.2 127.7 L 134.5 122.2 L 137.4 122.2 L 136.6 127.7 L 141.6 125.3 L 142.5 128.0 L 137.0 129.0 L 140.9 133.2 L 138.5 134.9 L 135.8 129.7 L 133.1 134.9 L 130.7 133.2 " fill="#191919"/>
<path class="atom-2" d="M 8.8 20.2 L 12.9 16.1 L 7.5 15.0 L 8.3 12.2 L 13.3 14.7 L 12.6 9.3 L 15.5 9.2 L 14.7 14.7 L 19.8 12.3 L 20.6 15.0 L 15.1 16.0 L 19.1 20.2 L 16.7 21.9 L 14.0 16.7 L 11.2 21.9 L 8.8 20.2 " fill="#191919"/>
</svg>