<svg xmlns="http://www.w3.org/2000/svg" xmlns:rdkit="http://www.rdkit.org/xml" xmlns:xlink="http://www.w3.org/1999/xlink" version="1.1" baseProfile="full" xml:space="preserve" width="150px" height="150px" viewBox="0 0 150 150">
<!-- END OF HEADER -->
<rect style="opacity:1.0;fill:#FFFFFF;stroke:none" width="150.0" height="150.0" x="0.0" y="0.0"> </rect>
<ellipse cx="98.0" cy="116.3" rx="24.3" ry="24.3" class="atom-1" style="fill:#9999E5;fill-rule:evenodd;stroke:#9999E5;stroke-width:1.0px;stroke-linecap:butt;stroke-linejoin:miter;stroke-opacity:1"/>
<path class="bond-0 atom-0 atom-1" d="M 21.4,26.4 L 82.3,97.9" style="fill:none;fill-rule:evenodd;stroke:#E5E5E5;stroke-width:6.5px;stroke-linecap:butt;stroke-linejoin:miter;stroke-opacity:1"/>
<path class="atom-0" d="M 13.8 20.7 L 18.0 16.4 L 12.5 15.3 L 13.3 12.5 L 18.4 15.0 L 17.7 9.5 L 20.7 9.4 L 19.8 15.0 L 25.0 12.6 L 25.9 15.3 L 20.3 16.4 L 24.3 20.6 L 21.8 22.4 L 19.1 17.1 L 16.3 22.4 L 13.8 20.7 " fill="#191919"/>
<path class="atom-1" d="M 85.0 116.3 Q 85.0 109.5, 88.3 105.7 Q 91.7 101.9, 98.0 101.9 Q 104.2 101.9, 107.6 105.7 Q 111.0 109.5, 111.0 116.3 Q 111.0 123.2, 107.6 127.1 Q 104.2 131.0, 98.0 131.0 Q 91.7 131.0, 88.3 127.1 Q 85.0 123.3, 85.0 116.3 M 98.0 127.8 Q 102.3 127.8, 104.6 124.9 Q 107.0 122.0, 107.0 116.3 Q 107.0 110.8, 104.6 108.0 Q 102.3 105.1, 98.0 105.1 Q 93.6 105.1, 91.3 107.9 Q 89.0 110.7, 89.0 116.3 Q 89.0 122.1, 91.3 124.9 Q 93.6 127.8, 98.0 127.8 " fill="#FF0000"/>
<path class="atom-1" d="M 115.4 102.3 L 119.2 102.3 L 119.2 114.3 L 133.7 114.3 L 133.7 102.3 L 137.5 102.3 L 137.5 130.6 L 133.7 130.6 L 133.7 117.5 L 119.2 117.5 L 119.2 130.6 L 115.4 130.6 L 115.4 102.3 " fill="#FF0000"/>
</svg>