<svg xmlns="http://www.w3.org/2000/svg" xmlns:rdkit="http://www.rdkit.org/xml" xmlns:xlink="http://www.w3.org/1999/xlink" version="1.1" baseProfile="full" xml:space="preserve" width="150px" height="150px" viewBox="0 0 150 150">
<!-- END OF HEADER -->
<rect style="opacity:1.0;fill:#FFFFFF;stroke:none" width="150.0" height="150.0" x="0.0" y="0.0"> </rect>
<ellipse cx="103.5" cy="80.2" rx="13.6" ry="13.6" class="atom-1" style="fill:#E5E533;fill-rule:evenodd;stroke:#E5E533;stroke-width:1.0px;stroke-linecap:butt;stroke-linejoin:miter;stroke-opacity:1"/>
<ellipse cx="35.4" cy="79.8" rx="13.6" ry="13.6" class="atom-2" style="fill:#9999E5;fill-rule:evenodd;stroke:#9999E5;stroke-width:1.0px;stroke-linecap:butt;stroke-linejoin:miter;stroke-opacity:1"/>
<path class="bond-0 atom-0 atom-1" d="M 126.0,129.9 L 97.6,80.2" style="fill:none;fill-rule:evenodd;stroke:#E5E5E5;stroke-width:3.6px;stroke-linecap:butt;stroke-linejoin:miter;stroke-opacity:1"/>
<path class="bond-0 atom-0 atom-1" d="M 134.8,124.9 L 106.5,75.1" style="fill:none;fill-rule:evenodd;stroke:#E5E5E5;stroke-width:3.6px;stroke-linecap:butt;stroke-linejoin:miter;stroke-opacity:1;stroke-dasharray:6,4"/>
<path class="bond-1 atom-1 atom-2" d="M 103.5,80.2 L 75.0,80.0" style="fill:none;fill-rule:evenodd;stroke:#000000;stroke-width:2.0px;stroke-linecap:butt;stroke-linejoin:miter;stroke-opacity:1"/>
<path class="bond-1 atom-1 atom-2" d="M 75.0,80.0 L 46.5,79.8" style="fill:none;fill-rule:evenodd;stroke:#FF0000;stroke-width:2.0px;stroke-linecap:butt;stroke-linejoin:miter;stroke-opacity:1"/>
<path class="bond-2 atom-1 atom-3" d="M 106.4,85.3 L 141.6,25.3" style="fill:none;fill-rule:evenodd;stroke:#E5E5E5;stroke-width:3.6px;stroke-linecap:butt;stroke-linejoin:miter;stroke-opacity:1"/>
<path class="bond-2 atom-1 atom-3" d="M 97.6,80.2 L 132.8,20.1" style="fill:none;fill-rule:evenodd;stroke:#E5E5E5;stroke-width:3.6px;stroke-linecap:butt;stroke-linejoin:miter;stroke-opacity:1;stroke-dasharray:6,4"/>
<path class="atom-0" d="M 133.6 137.2 L 136.4 134.3 L 132.7 133.6 L 133.2 131.6 L 136.7 133.4 L 136.2 129.6 L 138.2 129.6 L 137.7 133.4 L 141.2 131.7 L 141.8 133.6 L 138.0 134.3 L 140.7 137.2 L 139.0 138.4 L 137.2 134.8 L 135.2 138.4 L 133.6 137.2 " fill="#191919"/>
<path class="atom-2" d="M 7.5 70.2 L 10.1 70.2 L 10.1 78.4 L 20.0 78.4 L 20.0 70.2 L 22.6 70.2 L 22.6 89.5 L 20.0 89.5 L 20.0 80.6 L 10.1 80.6 L 10.1 89.5 L 7.5 89.5 L 7.5 70.2 " fill="#FF0000"/>
<path class="atom-2" d="M 26.6 79.8 Q 26.6 75.2, 28.8 72.6 Q 31.1 70.0, 35.4 70.0 Q 39.7 70.0, 42.0 72.6 Q 44.3 75.2, 44.3 79.8 Q 44.3 84.5, 41.9 87.2 Q 39.6 89.8, 35.4 89.8 Q 31.2 89.8, 28.8 87.2 Q 26.6 84.5, 26.6 79.8 M 35.4 87.7 Q 38.3 87.7, 39.9 85.7 Q 41.5 83.7, 41.5 79.8 Q 41.5 76.0, 39.9 74.1 Q 38.3 72.2, 35.4 72.2 Q 32.5 72.2, 30.9 74.1 Q 29.3 76.0, 29.3 79.8 Q 29.3 83.7, 30.9 85.7 Q 32.5 87.7, 35.4 87.7 " fill="#FF0000"/>
<path class="atom-3" d="M 134.3 19.3 L 137.1 16.4 L 133.4 15.6 L 133.9 13.7 L 137.4 15.4 L 136.9 11.6 L 139.0 11.6 L 138.4 15.4 L 141.9 13.7 L 142.5 15.6 L 138.7 16.3 L 141.4 19.2 L 139.7 20.4 L 137.9 16.8 L 136.0 20.4 L 134.3 19.3 " fill="#191919"/>
</svg>