<svg xmlns="http://www.w3.org/2000/svg" xmlns:rdkit="http://www.rdkit.org/xml" xmlns:xlink="http://www.w3.org/1999/xlink" version="1.1" baseProfile="full" xml:space="preserve" width="150px" height="150px" viewBox="0 0 150 150">
<!-- END OF HEADER -->
<rect style="opacity:1.0;fill:#FFFFFF;stroke:none" width="150.0" height="150.0" x="0.0" y="0.0"> </rect>
<ellipse cx="53.2" cy="42.1" rx="24.0" ry="24.0" class="atom-1" style="fill:#9999E5;fill-rule:evenodd;stroke:#9999E5;stroke-width:1.0px;stroke-linecap:butt;stroke-linejoin:miter;stroke-opacity:1"/>
<path class="bond-0 atom-0 atom-1" d="M 120.4,120.8 L 69.2,60.8" style="fill:none;fill-rule:evenodd;stroke:#E5E5E5;stroke-width:6.4px;stroke-linecap:butt;stroke-linejoin:miter;stroke-opacity:1"/>
<path class="atom-0" d="M 125.7 130.2 L 129.9 125.9 L 124.3 124.8 L 125.2 122.0 L 130.3 124.5 L 129.5 119.0 L 132.5 118.9 L 131.7 124.5 L 136.9 122.1 L 137.7 124.8 L 132.1 125.9 L 136.1 130.1 L 133.7 131.9 L 130.9 126.6 L 128.1 131.9 L 125.7 130.2 " fill="#191919"/>
<path class="atom-1" d="M 12.3 28.1 L 16.1 28.1 L 16.1 40.1 L 30.6 40.1 L 30.6 28.1 L 34.4 28.1 L 34.4 56.4 L 30.6 56.4 L 30.6 43.3 L 16.1 43.3 L 16.1 56.4 L 12.3 56.4 L 12.3 28.1 " fill="#FF0000"/>
<path class="atom-1" d="M 40.2 42.2 Q 40.2 35.4, 43.6 31.6 Q 46.9 27.8, 53.2 27.8 Q 59.5 27.8, 62.9 31.6 Q 66.2 35.4, 66.2 42.2 Q 66.2 49.0, 62.8 53.0 Q 59.4 56.8, 53.2 56.8 Q 47.0 56.8, 43.6 53.0 Q 40.2 49.1, 40.2 42.2 M 53.2 53.6 Q 57.5 53.6, 59.9 50.8 Q 62.2 47.8, 62.2 42.2 Q 62.2 36.6, 59.9 33.8 Q 57.5 31.0, 53.2 31.0 Q 48.9 31.0, 46.5 33.8 Q 44.2 36.6, 44.2 42.2 Q 44.2 47.9, 46.5 50.8 Q 48.9 53.6, 53.2 53.6 " fill="#FF0000"/>
</svg>