<svg xmlns="http://www.w3.org/2000/svg" xmlns:rdkit="http://www.rdkit.org/xml" xmlns:xlink="http://www.w3.org/1999/xlink" version="1.1" baseProfile="full" xml:space="preserve" width="150px" height="150px" viewBox="0 0 150 150">
<!-- END OF HEADER -->
<rect style="opacity:1.0;fill:#FFFFFF;stroke:none" width="150.0" height="150.0" x="0.0" y="0.0"> </rect>
<ellipse cx="91.5" cy="82.6" rx="14.5" ry="14.5" class="atom-1" style="fill:#9999E5;fill-rule:evenodd;stroke:#9999E5;stroke-width:1.0px;stroke-linecap:butt;stroke-linejoin:miter;stroke-opacity:1"/>
<path class="bond-0 atom-0 atom-1" d="M 123.7,132.3 L 91.5,82.6" style="fill:none;fill-rule:evenodd;stroke:#E5E5E5;stroke-width:3.9px;stroke-linecap:butt;stroke-linejoin:miter;stroke-opacity:1"/>
<path class="bond-1 atom-1 atom-2" d="M 91.5,82.6 L 26.3,85.9" style="fill:none;fill-rule:evenodd;stroke:#E5E5E5;stroke-width:3.9px;stroke-linecap:butt;stroke-linejoin:miter;stroke-opacity:1"/>
<path class="bond-2 atom-1 atom-3" d="M 95.0,87.9 L 128.8,21.8" style="fill:none;fill-rule:evenodd;stroke:#E5E5E5;stroke-width:3.9px;stroke-linecap:butt;stroke-linejoin:miter;stroke-opacity:1"/>
<path class="bond-2 atom-1 atom-3" d="M 85.3,82.9 L 119.1,16.8" style="fill:none;fill-rule:evenodd;stroke:#E5E5E5;stroke-width:3.9px;stroke-linecap:butt;stroke-linejoin:miter;stroke-opacity:1"/>
<path d="M 93.1,85.1 L 91.5,82.6 L 88.3,82.8" style="fill:none;stroke:#E5E5E5;stroke-width:3.9px;stroke-linecap:butt;stroke-linejoin:miter;stroke-opacity:1;"/>
<path class="atom-0" d="M 127.1 141.3 L 130.1 138.2 L 126.1 137.4 L 126.7 135.3 L 130.4 137.2 L 129.9 133.1 L 132.1 133.1 L 131.5 137.1 L 135.2 135.4 L 135.8 137.4 L 131.8 138.1 L 134.7 141.2 L 132.9 142.5 L 130.9 138.7 L 128.9 142.5 L 127.1 141.3 " fill="#191919"/>
<path class="atom-2" d="M 15.1 84.0 L 18.2 80.9 L 14.2 80.1 L 14.8 78.0 L 18.5 79.9 L 17.9 75.8 L 20.1 75.8 L 19.5 79.8 L 23.3 78.1 L 23.9 80.1 L 19.8 80.8 L 22.7 83.9 L 21.0 85.2 L 19.0 81.4 L 16.9 85.2 L 15.1 84.0 " fill="#191919"/>
<path class="atom-3" d="M 120.7 15.7 L 123.7 12.6 L 119.7 11.8 L 120.3 9.7 L 124.0 11.6 L 123.5 7.5 L 125.7 7.5 L 125.1 11.5 L 128.8 9.8 L 129.5 11.8 L 125.4 12.5 L 128.3 15.6 L 126.5 16.9 L 124.5 13.1 L 122.5 16.9 L 120.7 15.7 " fill="#191919"/>
</svg>