<svg xmlns="http://www.w3.org/2000/svg" xmlns:rdkit="http://www.rdkit.org/xml" xmlns:xlink="http://www.w3.org/1999/xlink" version="1.1" baseProfile="full" xml:space="preserve" width="150px" height="150px" viewBox="0 0 150 150">
<!-- END OF HEADER -->
<rect style="opacity:1.0;fill:#FFFFFF;stroke:none" width="150.0" height="150.0" x="0.0" y="0.0"> </rect>
<ellipse cx="65.9" cy="57.1" rx="10.0" ry="10.0" class="atom-1" style="fill:#CCCCCC;fill-rule:evenodd;stroke:#CCCCCC;stroke-width:1.0px;stroke-linecap:butt;stroke-linejoin:miter;stroke-opacity:1"/>
<ellipse cx="57.7" cy="106.4" rx="10.0" ry="10.0" class="atom-2" style="fill:#CCCCCC;fill-rule:evenodd;stroke:#CCCCCC;stroke-width:1.0px;stroke-linecap:butt;stroke-linejoin:miter;stroke-opacity:1"/>
<ellipse cx="104.5" cy="88.8" rx="10.0" ry="10.0" class="atom-4" style="fill:#9999E5;fill-rule:evenodd;stroke:#9999E5;stroke-width:1.0px;stroke-linecap:butt;stroke-linejoin:miter;stroke-opacity:1"/>
<path class="bond-0 atom-0 atom-1" d="M 28.3,26.2 L 65.9,57.1" style="fill:none;fill-rule:evenodd;stroke:#E5E5E5;stroke-width:2.7px;stroke-linecap:butt;stroke-linejoin:miter;stroke-opacity:1"/>
<path class="bond-1 atom-1 atom-2" d="M 65.9,57.1 L 57.7,106.4" style="fill:none;fill-rule:evenodd;stroke:#E5E5E5;stroke-width:2.7px;stroke-linecap:butt;stroke-linejoin:miter;stroke-opacity:1"/>
<path class="bond-2 atom-2 atom-3" d="M 57.7,106.4 L 15.9,122.1" style="fill:none;fill-rule:evenodd;stroke:#E5E5E5;stroke-width:2.7px;stroke-linecap:butt;stroke-linejoin:miter;stroke-opacity:1"/>
<path class="bond-3 atom-2 atom-4" d="M 57.7,106.4 L 104.5,88.8" style="fill:none;fill-rule:evenodd;stroke:#000000;stroke-width:2.0px;stroke-linecap:butt;stroke-linejoin:miter;stroke-opacity:1"/>
<path class="bond-4 atom-4 atom-5" d="M 104.5,88.8 L 130.0,131.9" style="fill:none;fill-rule:evenodd;stroke:#000000;stroke-width:2.0px;stroke-linecap:butt;stroke-linejoin:miter;stroke-opacity:1"/>
<path class="bond-5 atom-4 atom-6" d="M 104.5,88.8 L 142.5,56.3" style="fill:none;fill-rule:evenodd;stroke:#000000;stroke-width:2.0px;stroke-linecap:butt;stroke-linejoin:miter;stroke-opacity:1"/>
<path class="bond-6 atom-4 atom-1" d="M 104.5,88.8 L 65.9,57.1" style="fill:none;fill-rule:evenodd;stroke:#000000;stroke-width:2.0px;stroke-linecap:butt;stroke-linejoin:miter;stroke-opacity:1"/>
<path class="atom-0" d="M 24.5 23.7 L 26.6 21.6 L 23.9 21.0 L 24.3 19.6 L 26.8 20.9 L 26.5 18.1 L 28.0 18.1 L 27.5 20.9 L 30.1 19.7 L 30.6 21.0 L 27.8 21.6 L 29.8 23.7 L 28.5 24.6 L 27.2 21.9 L 25.8 24.6 L 24.5 23.7 " fill="#191919"/>
<path class="atom-3" d="M 8.2 122.4 L 10.3 120.3 L 7.5 119.8 L 7.9 118.3 L 10.5 119.6 L 10.1 116.8 L 11.6 116.8 L 11.2 119.6 L 13.8 118.4 L 14.2 119.8 L 11.4 120.3 L 13.4 122.4 L 12.2 123.3 L 10.8 120.7 L 9.4 123.3 L 8.2 122.4 " fill="#191919"/>
</svg>