<svg xmlns="http://www.w3.org/2000/svg" xmlns:rdkit="http://www.rdkit.org/xml" xmlns:xlink="http://www.w3.org/1999/xlink" version="1.1" baseProfile="full" xml:space="preserve" width="150px" height="150px" viewBox="0 0 150 150">
<!-- END OF HEADER -->
<rect style="opacity:1.0;fill:#FFFFFF;stroke:none" width="150.0" height="150.0" x="0.0" y="0.0"> </rect>
<ellipse cx="21.1" cy="27.3" rx="13.6" ry="13.6" class="atom-0" style="fill:#9999E5;fill-rule:evenodd;stroke:#9999E5;stroke-width:1.0px;stroke-linecap:butt;stroke-linejoin:miter;stroke-opacity:1"/>
<ellipse cx="74.5" cy="69.8" rx="13.6" ry="13.6" class="atom-1" style="fill:#CCCCCC;fill-rule:evenodd;stroke:#CCCCCC;stroke-width:1.0px;stroke-linecap:butt;stroke-linejoin:miter;stroke-opacity:1"/>
<path class="bond-0 atom-0 atom-1" d="M 21.1,27.3 L 74.5,69.8" style="fill:none;fill-rule:evenodd;stroke:#000000;stroke-width:2.0px;stroke-linecap:butt;stroke-linejoin:miter;stroke-opacity:1"/>
<path class="bond-1 atom-1 atom-2" d="M 74.5,69.8 L 127.1,43.7 L 130.8,53.2 Z" style="fill:#E5E5E5;fill-rule:evenodd;fill-opacity:1;stroke:#E5E5E5;stroke-width:0.5px;stroke-linecap:butt;stroke-linejoin:miter;stroke-opacity:1;"/>
<path class="bond-2 atom-3 atom-1" d="M 66.5,123.0 L 69.6,65.9 L 74.5,69.8 Z" style="fill:#E5E5E5;fill-rule:evenodd;fill-opacity:1;stroke:#E5E5E5;stroke-width:0.5px;stroke-linecap:butt;stroke-linejoin:miter;stroke-opacity:1;"/>
<path class="bond-2 atom-3 atom-1" d="M 66.5,123.0 L 74.5,69.8 L 80.3,67.6 Z" style="fill:#E5E5E5;fill-rule:evenodd;fill-opacity:1;stroke:#E5E5E5;stroke-width:0.5px;stroke-linecap:butt;stroke-linejoin:miter;stroke-opacity:1;"/>
<path class="atom-2" d="M 134.3 42.7 L 137.1 39.9 L 133.4 39.1 L 133.9 37.2 L 137.4 38.9 L 136.9 35.1 L 139.0 35.1 L 138.4 38.9 L 141.9 37.2 L 142.5 39.1 L 138.7 39.8 L 141.4 42.7 L 139.7 43.9 L 137.9 40.3 L 136.0 43.9 L 134.3 42.7 " fill="#191919"/>
<path class="atom-3" d="M 60.7 135.1 L 63.5 132.2 L 59.8 131.5 L 60.3 129.5 L 63.8 131.3 L 63.3 127.5 L 65.4 127.5 L 64.8 131.2 L 68.3 129.6 L 68.9 131.5 L 65.1 132.2 L 67.8 135.1 L 66.2 136.3 L 64.3 132.7 L 62.4 136.3 L 60.7 135.1 " fill="#191919"/>
</svg>