<svg xmlns="http://www.w3.org/2000/svg" xmlns:rdkit="http://www.rdkit.org/xml" xmlns:xlink="http://www.w3.org/1999/xlink" version="1.1" baseProfile="full" xml:space="preserve" width="150px" height="150px" viewBox="0 0 150 150">
<!-- END OF HEADER -->
<rect style="opacity:1.0;fill:#FFFFFF;stroke:none" width="150.0" height="150.0" x="0.0" y="0.0"> </rect>
<ellipse cx="50.9" cy="42.4" rx="8.2" ry="8.2" class="atom-1" style="fill:#E5E533;fill-rule:evenodd;stroke:#E5E533;stroke-width:1.0px;stroke-linecap:butt;stroke-linejoin:miter;stroke-opacity:1"/>
<ellipse cx="74.9" cy="75.8" rx="8.2" ry="8.2" class="atom-2" style="fill:#9999E5;fill-rule:evenodd;stroke:#9999E5;stroke-width:1.0px;stroke-linecap:butt;stroke-linejoin:miter;stroke-opacity:1"/>
<ellipse cx="57.8" cy="113.3" rx="8.2" ry="8.2" class="atom-3" style="fill:#E5E533;fill-rule:evenodd;stroke:#E5E533;stroke-width:1.0px;stroke-linecap:butt;stroke-linejoin:miter;stroke-opacity:1"/>
<path class="bond-0 atom-0 atom-1" d="M 14.1,46.0 L 50.9,42.4" style="fill:none;fill-rule:evenodd;stroke:#E5E5E5;stroke-width:2.2px;stroke-linecap:butt;stroke-linejoin:miter;stroke-opacity:1"/>
<path class="bond-0 atom-0 atom-1" d="M 14.7,52.1 L 48.0,48.9" style="fill:none;fill-rule:evenodd;stroke:#E5E5E5;stroke-width:2.2px;stroke-linecap:butt;stroke-linejoin:miter;stroke-opacity:1;stroke-dasharray:6,4"/>
<path class="bond-1 atom-1 atom-2" d="M 50.9,42.4 L 74.9,75.8" style="fill:none;fill-rule:evenodd;stroke:#000000;stroke-width:2.0px;stroke-linecap:butt;stroke-linejoin:miter;stroke-opacity:1"/>
<path class="bond-1 atom-1 atom-2" d="M 48.0,48.9 L 67.8,76.5" style="fill:none;fill-rule:evenodd;stroke:#000000;stroke-width:2.0px;stroke-linecap:butt;stroke-linejoin:miter;stroke-opacity:1;stroke-dasharray:6,4"/>
<path class="bond-2 atom-2 atom-3" d="M 74.9,75.8 L 57.8,113.3" style="fill:none;fill-rule:evenodd;stroke:#000000;stroke-width:2.0px;stroke-linecap:butt;stroke-linejoin:miter;stroke-opacity:1"/>
<path class="bond-2 atom-2 atom-3" d="M 67.8,76.5 L 53.7,107.5" style="fill:none;fill-rule:evenodd;stroke:#000000;stroke-width:2.0px;stroke-linecap:butt;stroke-linejoin:miter;stroke-opacity:1;stroke-dasharray:6,4"/>
<path class="bond-3 atom-3 atom-4" d="M 57.8,113.3 L 21.0,116.9" style="fill:none;fill-rule:evenodd;stroke:#E5E5E5;stroke-width:2.2px;stroke-linecap:butt;stroke-linejoin:miter;stroke-opacity:1"/>
<path class="bond-3 atom-3 atom-4" d="M 53.7,107.5 L 20.4,110.8" style="fill:none;fill-rule:evenodd;stroke:#E5E5E5;stroke-width:2.2px;stroke-linecap:butt;stroke-linejoin:miter;stroke-opacity:1;stroke-dasharray:6,4"/>
<path class="bond-4 atom-2 atom-5" d="M 74.9,75.8 L 115.8,71.9" style="fill:none;fill-rule:evenodd;stroke:#000000;stroke-width:2.0px;stroke-linecap:butt;stroke-linejoin:miter;stroke-opacity:1"/>
<path class="bond-5 atom-5 atom-6" d="M 115.8,71.9 L 135.6,99.6" style="fill:none;fill-rule:evenodd;stroke:#E5E5E5;stroke-width:2.2px;stroke-linecap:butt;stroke-linejoin:miter;stroke-opacity:1"/>
<path class="bond-6 atom-5 atom-7" d="M 115.8,71.9 L 132.5,35.2" style="fill:none;fill-rule:evenodd;stroke:#E5E5E5;stroke-width:2.2px;stroke-linecap:butt;stroke-linejoin:miter;stroke-opacity:1"/>
<path d="M 50.0,42.5 L 50.9,42.4 L 51.5,43.2" style="fill:none;stroke:#E5E5E5;stroke-width:2.2px;stroke-linecap:butt;stroke-linejoin:miter;stroke-opacity:1;"/>
<path d="M 58.3,112.4 L 57.8,113.3 L 56.9,113.4" style="fill:none;stroke:#000000;stroke-width:2.0px;stroke-linecap:butt;stroke-linejoin:miter;stroke-opacity:1;"/>
<path class="atom-0" d="M 8.1 48.1 L 9.8 46.4 L 7.5 45.9 L 7.8 44.8 L 9.9 45.8 L 9.6 43.5 L 10.9 43.5 L 10.5 45.8 L 12.7 44.8 L 13.0 45.9 L 10.7 46.4 L 12.4 48.1 L 11.4 48.8 L 10.2 46.7 L 9.1 48.8 L 8.1 48.1 " fill="#191919"/>
<path class="atom-4" d="M 14.4 112.9 L 16.1 111.2 L 13.8 110.7 L 14.2 109.6 L 16.3 110.6 L 16.0 108.3 L 17.2 108.3 L 16.8 110.6 L 19.0 109.6 L 19.3 110.7 L 17.0 111.2 L 18.7 112.9 L 17.7 113.6 L 16.5 111.5 L 15.4 113.6 L 14.4 112.9 " fill="#191919"/>
<path class="atom-6" d="M 137.5 104.0 L 139.3 102.3 L 137.0 101.8 L 137.3 100.7 L 139.4 101.7 L 139.1 99.4 L 140.4 99.4 L 140.0 101.7 L 142.1 100.7 L 142.5 101.8 L 140.2 102.2 L 141.8 104.0 L 140.8 104.7 L 139.7 102.6 L 138.5 104.7 L 137.5 104.0 " fill="#191919"/>
<path class="atom-7" d="M 130.6 33.1 L 132.3 31.3 L 130.1 30.9 L 130.4 29.7 L 132.5 30.8 L 132.2 28.5 L 133.4 28.5 L 133.1 30.7 L 135.2 29.8 L 135.6 30.9 L 133.3 31.3 L 134.9 33.1 L 133.9 33.8 L 132.8 31.6 L 131.6 33.8 L 130.6 33.1 " fill="#191919"/>
</svg>