<svg xmlns="http://www.w3.org/2000/svg" xmlns:rdkit="http://www.rdkit.org/xml" xmlns:xlink="http://www.w3.org/1999/xlink" version="1.1" baseProfile="full" xml:space="preserve" width="150px" height="150px" viewBox="0 0 150 150">
<!-- END OF HEADER -->
<rect style="opacity:1.0;fill:#FFFFFF;stroke:none" width="150.0" height="150.0" x="0.0" y="0.0"> </rect>
<ellipse cx="54.3" cy="93.9" rx="9.2" ry="9.2" class="atom-1" style="fill:#E5E533;fill-rule:evenodd;stroke:#E5E533;stroke-width:1.0px;stroke-linecap:butt;stroke-linejoin:miter;stroke-opacity:1"/>
<ellipse cx="64.0" cy="49.1" rx="9.2" ry="9.2" class="atom-2" style="fill:#9999E5;fill-rule:evenodd;stroke:#9999E5;stroke-width:1.0px;stroke-linecap:butt;stroke-linejoin:miter;stroke-opacity:1"/>
<ellipse cx="107.8" cy="35.1" rx="9.2" ry="9.2" class="atom-3" style="fill:#E5E533;fill-rule:evenodd;stroke:#E5E533;stroke-width:1.0px;stroke-linecap:butt;stroke-linejoin:miter;stroke-opacity:1"/>
<path class="bond-0 atom-0 atom-1" d="M 15.2,106.4 L 54.3,93.9" style="fill:none;fill-rule:evenodd;stroke:#E5E5E5;stroke-width:2.4px;stroke-linecap:butt;stroke-linejoin:miter;stroke-opacity:1"/>
<path class="bond-1 atom-1 atom-2" d="M 54.3,93.9 L 64.0,49.1" style="fill:none;fill-rule:evenodd;stroke:#000000;stroke-width:2.0px;stroke-linecap:butt;stroke-linejoin:miter;stroke-opacity:1"/>
<path class="bond-1 atom-1 atom-2" d="M 61.9,91.5 L 69.9,54.4" style="fill:none;fill-rule:evenodd;stroke:#000000;stroke-width:2.0px;stroke-linecap:butt;stroke-linejoin:miter;stroke-opacity:1;stroke-dasharray:6,4"/>
<path class="bond-2 atom-2 atom-3" d="M 64.0,49.1 L 107.8,35.1" style="fill:none;fill-rule:evenodd;stroke:#000000;stroke-width:2.0px;stroke-linecap:butt;stroke-linejoin:miter;stroke-opacity:1"/>
<path class="bond-2 atom-2 atom-3" d="M 69.9,54.4 L 106.1,42.8" style="fill:none;fill-rule:evenodd;stroke:#000000;stroke-width:2.0px;stroke-linecap:butt;stroke-linejoin:miter;stroke-opacity:1;stroke-dasharray:6,4"/>
<path class="bond-3 atom-3 atom-4" d="M 107.8,35.1 L 137.1,61.8" style="fill:none;fill-rule:evenodd;stroke:#E5E5E5;stroke-width:2.4px;stroke-linecap:butt;stroke-linejoin:miter;stroke-opacity:1"/>
<path class="bond-3 atom-3 atom-4" d="M 106.1,42.8 L 132.5,66.9" style="fill:none;fill-rule:evenodd;stroke:#E5E5E5;stroke-width:2.4px;stroke-linecap:butt;stroke-linejoin:miter;stroke-opacity:1;stroke-dasharray:6,4"/>
<path class="bond-4 atom-5 atom-1" d="M 81.4,123.2 L 50.5,95.1" style="fill:none;fill-rule:evenodd;stroke:#E5E5E5;stroke-width:2.4px;stroke-linecap:butt;stroke-linejoin:miter;stroke-opacity:1"/>
<path class="bond-4 atom-5 atom-1" d="M 86.0,118.1 L 55.1,90.0" style="fill:none;fill-rule:evenodd;stroke:#E5E5E5;stroke-width:2.4px;stroke-linecap:butt;stroke-linejoin:miter;stroke-opacity:1;stroke-dasharray:6,4"/>
<path d="M 63.6,51.3 L 64.0,49.1 L 66.2,48.4" style="fill:none;stroke:#000000;stroke-width:2.0px;stroke-linecap:butt;stroke-linejoin:miter;stroke-opacity:1;"/>
<path d="M 106.7,35.4 L 107.8,35.1 L 108.5,35.7" style="fill:none;stroke:#000000;stroke-width:2.0px;stroke-linecap:butt;stroke-linejoin:miter;stroke-opacity:1;"/>
<path class="atom-0" d="M 8.1 106.5 L 10.0 104.5 L 7.5 104.0 L 7.9 102.7 L 10.2 103.9 L 9.9 101.3 L 11.3 101.3 L 10.9 103.9 L 13.2 102.7 L 13.7 104.0 L 11.1 104.5 L 12.9 106.4 L 11.8 107.2 L 10.5 104.8 L 9.2 107.2 L 8.1 106.5 " fill="#191919"/>
<path class="atom-4" d="M 137.0 67.0 L 138.9 65.1 L 136.3 64.6 L 136.7 63.3 L 139.1 64.4 L 138.7 61.9 L 140.1 61.9 L 139.7 64.4 L 142.1 63.3 L 142.5 64.6 L 139.9 65.0 L 141.8 67.0 L 140.6 67.8 L 139.4 65.4 L 138.1 67.8 L 137.0 67.0 " fill="#191919"/>
<path class="atom-5" d="M 85.8 123.3 L 87.7 121.4 L 85.2 120.9 L 85.6 119.6 L 87.9 120.7 L 87.6 118.2 L 89.0 118.2 L 88.6 120.7 L 90.9 119.6 L 91.4 120.9 L 88.8 121.3 L 90.6 123.3 L 89.5 124.1 L 88.2 121.7 L 86.9 124.1 L 85.8 123.3 " fill="#191919"/>
</svg>