<svg xmlns="http://www.w3.org/2000/svg" xmlns:rdkit="http://www.rdkit.org/xml" xmlns:xlink="http://www.w3.org/1999/xlink" version="1.1" baseProfile="full" xml:space="preserve" width="150px" height="150px" viewBox="0 0 150 150">
<!-- END OF HEADER -->
<rect style="opacity:1.0;fill:#FFFFFF;stroke:none" width="150.0" height="150.0" x="0.0" y="0.0"> </rect>
<ellipse cx="81.0" cy="61.4" rx="13.7" ry="13.7" class="atom-1" style="fill:#E5E533;fill-rule:evenodd;stroke:#E5E533;stroke-width:1.0px;stroke-linecap:butt;stroke-linejoin:miter;stroke-opacity:1"/>
<ellipse cx="92.9" cy="128.8" rx="13.7" ry="13.7" class="atom-3" style="fill:#9999E5;fill-rule:evenodd;stroke:#9999E5;stroke-width:1.0px;stroke-linecap:butt;stroke-linejoin:miter;stroke-opacity:1"/>
<path class="bond-0 atom-0 atom-1" d="M 21.9,34.5 L 85.5,57.6" style="fill:none;fill-rule:evenodd;stroke:#E5E5E5;stroke-width:3.7px;stroke-linecap:butt;stroke-linejoin:miter;stroke-opacity:1"/>
<path class="bond-0 atom-0 atom-1" d="M 18.4,44.1 L 82.0,67.2" style="fill:none;fill-rule:evenodd;stroke:#E5E5E5;stroke-width:3.7px;stroke-linecap:butt;stroke-linejoin:miter;stroke-opacity:1;stroke-dasharray:6,4"/>
<path class="bond-1 atom-1 atom-2" d="M 82.0,67.2 L 135.2,22.6" style="fill:none;fill-rule:evenodd;stroke:#E5E5E5;stroke-width:3.7px;stroke-linecap:butt;stroke-linejoin:miter;stroke-opacity:1"/>
<path class="bond-1 atom-1 atom-2" d="M 75.4,59.4 L 128.6,14.7" style="fill:none;fill-rule:evenodd;stroke:#E5E5E5;stroke-width:3.7px;stroke-linecap:butt;stroke-linejoin:miter;stroke-opacity:1;stroke-dasharray:6,4"/>
<path class="bond-2 atom-1 atom-3" d="M 81.0,61.4 L 85.9,89.1" style="fill:none;fill-rule:evenodd;stroke:#000000;stroke-width:2.0px;stroke-linecap:butt;stroke-linejoin:miter;stroke-opacity:1"/>
<path class="bond-2 atom-1 atom-3" d="M 85.9,89.1 L 90.8,116.7" style="fill:none;fill-rule:evenodd;stroke:#FF0000;stroke-width:2.0px;stroke-linecap:butt;stroke-linejoin:miter;stroke-opacity:1"/>
<path class="atom-0" d="M 13.0 35.9 L 15.8 33.0 L 12.0 32.2 L 12.6 30.3 L 16.1 32.0 L 15.6 28.2 L 17.7 28.2 L 17.1 32.0 L 20.6 30.4 L 21.2 32.2 L 17.4 32.9 L 20.1 35.9 L 18.4 37.1 L 16.6 33.4 L 14.6 37.1 L 13.0 35.9 " fill="#191919"/>
<path class="atom-2" d="M 129.7 15.2 L 132.6 12.3 L 128.8 11.5 L 129.4 9.6 L 132.8 11.3 L 132.3 7.5 L 134.4 7.5 L 133.8 11.3 L 137.4 9.7 L 138.0 11.5 L 134.1 12.2 L 136.9 15.2 L 135.2 16.4 L 133.3 12.8 L 131.4 16.4 L 129.7 15.2 " fill="#191919"/>
<path class="atom-3" d="M 84.0 128.9 Q 84.0 124.2, 86.3 121.6 Q 88.6 119.0, 92.9 119.0 Q 97.2 119.0, 99.5 121.6 Q 101.8 124.2, 101.8 128.9 Q 101.8 133.6, 99.5 136.3 Q 97.2 138.9, 92.9 138.9 Q 88.6 138.9, 86.3 136.3 Q 84.0 133.6, 84.0 128.9 M 92.9 136.7 Q 95.9 136.7, 97.5 134.8 Q 99.1 132.8, 99.1 128.9 Q 99.1 125.1, 97.5 123.1 Q 95.9 121.2, 92.9 121.2 Q 90.0 121.2, 88.3 123.1 Q 86.8 125.0, 86.8 128.9 Q 86.8 132.8, 88.3 134.8 Q 90.0 136.7, 92.9 136.7 " fill="#FF0000"/>
<path class="atom-3" d="M 104.8 119.2 L 107.5 119.2 L 107.5 127.5 L 117.4 127.5 L 117.4 119.2 L 120.0 119.2 L 120.0 138.6 L 117.4 138.6 L 117.4 129.7 L 107.5 129.7 L 107.5 138.6 L 104.8 138.6 L 104.8 119.2 " fill="#FF0000"/>
</svg>