<svg xmlns="http://www.w3.org/2000/svg" xmlns:rdkit="http://www.rdkit.org/xml" xmlns:xlink="http://www.w3.org/1999/xlink" version="1.1" baseProfile="full" xml:space="preserve" width="150px" height="150px" viewBox="0 0 150 150">
<!-- END OF HEADER -->
<rect style="opacity:1.0;fill:#FFFFFF;stroke:none" width="150.0" height="150.0" x="0.0" y="0.0"> </rect>
<ellipse cx="50.2" cy="129.5" rx="13.0" ry="13.0" class="atom-0" style="fill:#9999E5;fill-rule:evenodd;stroke:#9999E5;stroke-width:1.0px;stroke-linecap:butt;stroke-linejoin:miter;stroke-opacity:1"/>
<ellipse cx="65.8" cy="66.5" rx="13.0" ry="13.0" class="atom-1" style="fill:#CCCCCC;fill-rule:evenodd;stroke:#CCCCCC;stroke-width:1.0px;stroke-linecap:butt;stroke-linejoin:miter;stroke-opacity:1"/>
<path class="bond-0 atom-0 atom-1" d="M 50.2,129.5 L 65.8,66.5" style="fill:none;fill-rule:evenodd;stroke:#000000;stroke-width:2.0px;stroke-linecap:butt;stroke-linejoin:miter;stroke-opacity:1"/>
<path class="bond-1 atom-1 atom-2" d="M 65.8,66.5 L 123.0,43.4" style="fill:none;fill-rule:evenodd;stroke:#E5E5E5;stroke-width:3.5px;stroke-linecap:butt;stroke-linejoin:miter;stroke-opacity:1"/>
<path class="bond-2 atom-3 atom-1" d="M 25.1,18.1 L 65.8,66.5" style="fill:none;fill-rule:evenodd;stroke:#E5E5E5;stroke-width:3.5px;stroke-linecap:butt;stroke-linejoin:miter;stroke-opacity:1"/>
<path class="atom-2" d="M 122.5 40.1 L 125.2 37.4 L 121.6 36.6 L 122.2 34.8 L 125.5 36.5 L 125.0 32.8 L 126.9 32.8 L 126.4 36.4 L 129.7 34.9 L 130.3 36.6 L 126.7 37.3 L 129.3 40.1 L 127.7 41.2 L 125.9 37.8 L 124.1 41.2 L 122.5 40.1 " fill="#191919"/>
<path class="atom-3" d="M 20.6 14.8 L 23.3 12.0 L 19.7 11.3 L 20.2 9.5 L 23.5 11.1 L 23.1 7.5 L 25.0 7.5 L 24.5 11.1 L 27.8 9.6 L 28.4 11.3 L 24.8 12.0 L 27.4 14.8 L 25.8 15.9 L 24.0 12.5 L 22.2 15.9 L 20.6 14.8 " fill="#191919"/>
</svg>