<svg xmlns="http://www.w3.org/2000/svg" xmlns:rdkit="http://www.rdkit.org/xml" xmlns:xlink="http://www.w3.org/1999/xlink" version="1.1" baseProfile="full" xml:space="preserve" width="150px" height="150px" viewBox="0 0 150 150">
<!-- END OF HEADER -->
<rect style="opacity:1.0;fill:#FFFFFF;stroke:none" width="150.0" height="150.0" x="0.0" y="0.0"> </rect>
<ellipse cx="92.4" cy="128.8" rx="13.7" ry="13.7" class="atom-0" style="fill:#9999E5;fill-rule:evenodd;stroke:#9999E5;stroke-width:1.0px;stroke-linecap:butt;stroke-linejoin:miter;stroke-opacity:1"/>
<ellipse cx="80.8" cy="61.2" rx="13.7" ry="13.7" class="atom-1" style="fill:#CCCCCC;fill-rule:evenodd;stroke:#CCCCCC;stroke-width:1.0px;stroke-linecap:butt;stroke-linejoin:miter;stroke-opacity:1"/>
<path class="bond-0 atom-0 atom-1" d="M 92.4,128.8 L 80.8,61.2" style="fill:none;fill-rule:evenodd;stroke:#000000;stroke-width:2.0px;stroke-linecap:butt;stroke-linejoin:miter;stroke-opacity:1"/>
<path class="bond-1 atom-1 atom-2" d="M 80.8,61.2 L 19.9,38.8" style="fill:none;fill-rule:evenodd;stroke:#E5E5E5;stroke-width:3.7px;stroke-linecap:butt;stroke-linejoin:miter;stroke-opacity:1"/>
<path class="bond-2 atom-3 atom-1" d="M 132.0,18.6 L 80.8,61.2" style="fill:none;fill-rule:evenodd;stroke:#E5E5E5;stroke-width:3.7px;stroke-linecap:butt;stroke-linejoin:miter;stroke-opacity:1"/>
<path class="atom-2" d="M 12.8 35.3 L 15.7 32.4 L 11.9 31.7 L 12.5 29.7 L 15.9 31.5 L 15.5 27.6 L 17.5 27.6 L 16.9 31.4 L 20.5 29.8 L 21.1 31.7 L 17.2 32.4 L 20.0 35.3 L 18.3 36.5 L 16.4 32.9 L 14.5 36.5 L 12.8 35.3 " fill="#191919"/>
<path class="atom-3" d="M 129.9 15.2 L 132.7 12.3 L 128.9 11.5 L 129.5 9.6 L 133.0 11.3 L 132.5 7.5 L 134.5 7.5 L 134.0 11.3 L 137.5 9.7 L 138.1 11.5 L 134.3 12.2 L 137.0 15.2 L 135.3 16.4 L 133.4 12.8 L 131.5 16.4 L 129.9 15.2 " fill="#191919"/>
</svg>