<svg xmlns="http://www.w3.org/2000/svg" xmlns:rdkit="http://www.rdkit.org/xml" xmlns:xlink="http://www.w3.org/1999/xlink" version="1.1" baseProfile="full" xml:space="preserve" width="150px" height="150px" viewBox="0 0 150 150">
<!-- END OF HEADER -->
<rect style="opacity:1.0;fill:#FFFFFF;stroke:none" width="150.0" height="150.0" x="0.0" y="0.0"> </rect>
<ellipse cx="54.4" cy="83.2" rx="8.8" ry="8.8" class="atom-1" style="fill:#E5E533;fill-rule:evenodd;stroke:#E5E533;stroke-width:1.0px;stroke-linecap:butt;stroke-linejoin:miter;stroke-opacity:1"/>
<ellipse cx="73.3" cy="43.4" rx="8.8" ry="8.8" class="atom-3" style="fill:#9999E5;fill-rule:evenodd;stroke:#9999E5;stroke-width:1.0px;stroke-linecap:butt;stroke-linejoin:miter;stroke-opacity:1"/>
<ellipse cx="117.3" cy="39.9" rx="8.8" ry="8.8" class="atom-4" style="fill:#E5E533;fill-rule:evenodd;stroke:#E5E533;stroke-width:1.0px;stroke-linecap:butt;stroke-linejoin:miter;stroke-opacity:1"/>
<path class="bond-0 atom-0 atom-1" d="M 72.3,115.0 L 50.6,83.5" style="fill:none;fill-rule:evenodd;stroke:#E5E5E5;stroke-width:2.4px;stroke-linecap:butt;stroke-linejoin:miter;stroke-opacity:1"/>
<path class="bond-0 atom-0 atom-1" d="M 77.7,111.3 L 56.0,79.8" style="fill:none;fill-rule:evenodd;stroke:#E5E5E5;stroke-width:2.4px;stroke-linecap:butt;stroke-linejoin:miter;stroke-opacity:1;stroke-dasharray:6,4"/>
<path class="bond-1 atom-1 atom-2" d="M 54.4,83.2 L 14.9,86.4" style="fill:none;fill-rule:evenodd;stroke:#E5E5E5;stroke-width:2.4px;stroke-linecap:butt;stroke-linejoin:miter;stroke-opacity:1"/>
<path class="bond-2 atom-1 atom-3" d="M 54.4,83.2 L 73.3,43.4" style="fill:none;fill-rule:evenodd;stroke:#000000;stroke-width:2.0px;stroke-linecap:butt;stroke-linejoin:miter;stroke-opacity:1"/>
<path class="bond-2 atom-1 atom-3" d="M 62.0,82.6 L 77.7,49.7" style="fill:none;fill-rule:evenodd;stroke:#000000;stroke-width:2.0px;stroke-linecap:butt;stroke-linejoin:miter;stroke-opacity:1;stroke-dasharray:6,4"/>
<path class="bond-3 atom-3 atom-4" d="M 73.3,43.4 L 117.3,39.9" style="fill:none;fill-rule:evenodd;stroke:#000000;stroke-width:2.0px;stroke-linecap:butt;stroke-linejoin:miter;stroke-opacity:1"/>
<path class="bond-3 atom-3 atom-4" d="M 77.7,49.7 L 114.0,46.8" style="fill:none;fill-rule:evenodd;stroke:#000000;stroke-width:2.0px;stroke-linecap:butt;stroke-linejoin:miter;stroke-opacity:1;stroke-dasharray:6,4"/>
<path class="bond-4 atom-4 atom-5" d="M 117.3,39.9 L 137.9,69.8" style="fill:none;fill-rule:evenodd;stroke:#E5E5E5;stroke-width:2.4px;stroke-linecap:butt;stroke-linejoin:miter;stroke-opacity:1"/>
<path class="bond-4 atom-4 atom-5" d="M 114.0,46.8 L 132.4,73.6" style="fill:none;fill-rule:evenodd;stroke:#E5E5E5;stroke-width:2.4px;stroke-linecap:butt;stroke-linejoin:miter;stroke-opacity:1;stroke-dasharray:6,4"/>
<path d="M 72.4,45.4 L 73.3,43.4 L 75.5,43.3" style="fill:none;stroke:#000000;stroke-width:2.0px;stroke-linecap:butt;stroke-linejoin:miter;stroke-opacity:1;"/>
<path d="M 116.2,40.0 L 117.3,39.9 L 117.8,40.7" style="fill:none;stroke:#000000;stroke-width:2.0px;stroke-linecap:butt;stroke-linejoin:miter;stroke-opacity:1;"/>
<path class="atom-0" d="M 77.0 118.1 L 78.9 116.3 L 76.4 115.8 L 76.8 114.5 L 79.1 115.7 L 78.7 113.2 L 80.1 113.2 L 79.7 115.6 L 82.0 114.6 L 82.3 115.8 L 79.9 116.2 L 81.6 118.1 L 80.6 118.9 L 79.4 116.6 L 78.1 118.9 L 77.0 118.1 " fill="#191919"/>
<path class="atom-2" d="M 8.1 85.3 L 9.9 83.5 L 7.5 83.0 L 7.9 81.7 L 10.1 82.9 L 9.8 80.4 L 11.1 80.4 L 10.7 82.8 L 13.0 81.8 L 13.4 83.0 L 10.9 83.4 L 12.7 85.3 L 11.6 86.1 L 10.4 83.8 L 9.2 86.1 L 8.1 85.3 " fill="#191919"/>
<path class="atom-5" d="M 137.2 76.7 L 139.0 74.8 L 136.6 74.3 L 137.0 73.1 L 139.2 74.2 L 138.9 71.8 L 140.2 71.7 L 139.8 74.2 L 142.1 73.1 L 142.5 74.3 L 140.0 74.8 L 141.8 76.7 L 140.7 77.5 L 139.5 75.1 L 138.3 77.5 L 137.2 76.7 " fill="#191919"/>
</svg>