<svg xmlns="http://www.w3.org/2000/svg" xmlns:rdkit="http://www.rdkit.org/xml" xmlns:xlink="http://www.w3.org/1999/xlink" version="1.1" baseProfile="full" xml:space="preserve" width="150px" height="150px" viewBox="0 0 150 150">
<!-- END OF HEADER -->
<rect style="opacity:1.0;fill:#FFFFFF;stroke:none" width="150.0" height="150.0" x="0.0" y="0.0"> </rect>
<ellipse cx="91.8" cy="127.8" rx="8.2" ry="8.2" class="atom-1" style="fill:#CCCCCC;fill-rule:evenodd;stroke:#CCCCCC;stroke-width:1.0px;stroke-linecap:butt;stroke-linejoin:miter;stroke-opacity:1"/>
<ellipse cx="75.0" cy="90.5" rx="8.2" ry="8.2" class="atom-2" style="fill:#9999E5;fill-rule:evenodd;stroke:#9999E5;stroke-width:1.0px;stroke-linecap:butt;stroke-linejoin:miter;stroke-opacity:1"/>
<ellipse cx="99.0" cy="57.3" rx="8.2" ry="8.2" class="atom-3" style="fill:#CCCCCC;fill-rule:evenodd;stroke:#CCCCCC;stroke-width:1.0px;stroke-linecap:butt;stroke-linejoin:miter;stroke-opacity:1"/>
<path class="bond-0 atom-0 atom-1" d="M 128.4,131.6 L 91.8,127.8" style="fill:none;fill-rule:evenodd;stroke:#E5E5E5;stroke-width:2.2px;stroke-linecap:butt;stroke-linejoin:miter;stroke-opacity:1"/>
<path class="bond-1 atom-1 atom-2" d="M 91.8,127.8 L 75.0,90.5" style="fill:none;fill-rule:evenodd;stroke:#000000;stroke-width:2.0px;stroke-linecap:butt;stroke-linejoin:miter;stroke-opacity:1"/>
<path class="bond-2 atom-2 atom-3" d="M 75.0,90.5 L 99.0,57.3" style="fill:none;fill-rule:evenodd;stroke:#000000;stroke-width:2.0px;stroke-linecap:butt;stroke-linejoin:miter;stroke-opacity:1"/>
<path class="bond-2 atom-2 atom-3" d="M 82.1,91.2 L 101.9,63.7" style="fill:none;fill-rule:evenodd;stroke:#000000;stroke-width:2.0px;stroke-linecap:butt;stroke-linejoin:miter;stroke-opacity:1"/>
<path class="bond-3 atom-3 atom-4" d="M 99.0,57.3 L 135.7,61.0" style="fill:none;fill-rule:evenodd;stroke:#E5E5E5;stroke-width:2.2px;stroke-linecap:butt;stroke-linejoin:miter;stroke-opacity:1"/>
<path class="bond-4 atom-3 atom-5" d="M 99.0,57.3 L 82.6,20.6" style="fill:none;fill-rule:evenodd;stroke:#E5E5E5;stroke-width:2.2px;stroke-linecap:butt;stroke-linejoin:miter;stroke-opacity:1"/>
<path class="bond-5 atom-2 atom-6" d="M 75.0,90.5 L 34.2,86.3" style="fill:none;fill-rule:evenodd;stroke:#000000;stroke-width:2.0px;stroke-linecap:butt;stroke-linejoin:miter;stroke-opacity:1"/>
<path class="bond-6 atom-6 atom-7" d="M 34.2,86.3 L 17.8,49.6" style="fill:none;fill-rule:evenodd;stroke:#E5E5E5;stroke-width:2.2px;stroke-linecap:butt;stroke-linejoin:miter;stroke-opacity:1"/>
<path class="bond-7 atom-6 atom-8" d="M 34.2,86.3 L 14.3,113.8" style="fill:none;fill-rule:evenodd;stroke:#E5E5E5;stroke-width:2.2px;stroke-linecap:butt;stroke-linejoin:miter;stroke-opacity:1"/>
<path d="M 92.7,127.9 L 91.8,127.8 L 91.3,126.9" style="fill:none;stroke:#E5E5E5;stroke-width:2.2px;stroke-linecap:butt;stroke-linejoin:miter;stroke-opacity:1;"/>
<path class="atom-0" d="M 130.3 130.7 L 132.0 129.0 L 129.8 128.5 L 130.1 127.4 L 132.2 128.4 L 131.9 126.1 L 133.1 126.1 L 132.8 128.4 L 134.9 127.4 L 135.3 128.5 L 133.0 129.0 L 134.6 130.7 L 133.6 131.4 L 132.5 129.3 L 131.3 131.4 L 130.3 130.7 " fill="#191919"/>
<path class="atom-4" d="M 137.6 60.1 L 139.3 58.4 L 137.0 57.9 L 137.4 56.8 L 139.4 57.8 L 139.1 55.6 L 140.4 55.5 L 140.0 57.8 L 142.1 56.8 L 142.5 57.9 L 140.2 58.4 L 141.8 60.1 L 140.8 60.8 L 139.7 58.7 L 138.6 60.8 L 137.6 60.1 " fill="#191919"/>
<path class="atom-5" d="M 80.1 18.6 L 81.8 16.8 L 79.5 16.4 L 79.8 15.2 L 81.9 16.3 L 81.6 14.0 L 82.9 14.0 L 82.5 16.2 L 84.6 15.3 L 85.0 16.4 L 82.7 16.8 L 84.3 18.6 L 83.3 19.3 L 82.2 17.1 L 81.1 19.3 L 80.1 18.6 " fill="#191919"/>
<path class="atom-7" d="M 15.3 47.6 L 17.0 45.9 L 14.7 45.4 L 15.1 44.2 L 17.2 45.3 L 16.9 43.0 L 18.1 43.0 L 17.8 45.3 L 19.9 44.3 L 20.2 45.4 L 17.9 45.8 L 19.6 47.6 L 18.6 48.3 L 17.4 46.1 L 16.3 48.3 L 15.3 47.6 " fill="#191919"/>
<path class="atom-8" d="M 8.1 118.2 L 9.8 116.4 L 7.5 116.0 L 7.8 114.8 L 9.9 115.9 L 9.6 113.6 L 10.9 113.6 L 10.5 115.9 L 12.6 114.9 L 13.0 116.0 L 10.7 116.4 L 12.3 118.2 L 11.3 118.9 L 10.2 116.7 L 9.1 118.9 L 8.1 118.2 " fill="#191919"/>
</svg>