<svg xmlns="http://www.w3.org/2000/svg" xmlns:rdkit="http://www.rdkit.org/xml" xmlns:xlink="http://www.w3.org/1999/xlink" version="1.1" baseProfile="full" xml:space="preserve" width="150px" height="150px" viewBox="0 0 150 150">
<!-- END OF HEADER -->
<rect style="opacity:1.0;fill:#FFFFFF;stroke:none" width="150.0" height="150.0" x="0.0" y="0.0"> </rect>
<ellipse cx="79.7" cy="58.5" rx="9.5" ry="9.5" class="atom-1" style="fill:#CCCCCC;fill-rule:evenodd;stroke:#CCCCCC;stroke-width:1.0px;stroke-linecap:butt;stroke-linejoin:miter;stroke-opacity:1"/>
<ellipse cx="94.6" cy="103.7" rx="9.5" ry="9.5" class="atom-2" style="fill:#CCCCCC;fill-rule:evenodd;stroke:#CCCCCC;stroke-width:1.0px;stroke-linecap:butt;stroke-linejoin:miter;stroke-opacity:1"/>
<ellipse cx="48.0" cy="94.0" rx="9.5" ry="9.5" class="atom-4" style="fill:#9999E5;fill-rule:evenodd;stroke:#9999E5;stroke-width:1.0px;stroke-linecap:butt;stroke-linejoin:miter;stroke-opacity:1"/>
<path class="bond-0 atom-0 atom-1" d="M 105.2,19.5 L 79.7,58.5" style="fill:none;fill-rule:evenodd;stroke:#E5E5E5;stroke-width:2.5px;stroke-linecap:butt;stroke-linejoin:miter;stroke-opacity:1"/>
<path class="bond-1 atom-1 atom-2" d="M 79.7,58.5 L 94.6,103.7" style="fill:none;fill-rule:evenodd;stroke:#E5E5E5;stroke-width:2.5px;stroke-linecap:butt;stroke-linejoin:miter;stroke-opacity:1"/>
<path class="bond-2 atom-2 atom-3" d="M 94.6,103.7 L 134.5,118.5" style="fill:none;fill-rule:evenodd;stroke:#E5E5E5;stroke-width:2.5px;stroke-linecap:butt;stroke-linejoin:miter;stroke-opacity:1"/>
<path class="bond-3 atom-2 atom-4" d="M 94.6,103.7 L 48.0,94.0" style="fill:none;fill-rule:evenodd;stroke:#000000;stroke-width:2.0px;stroke-linecap:butt;stroke-linejoin:miter;stroke-opacity:1"/>
<path class="bond-4 atom-4 atom-5" d="M 48.0,94.0 L 30.3,138.3" style="fill:none;fill-rule:evenodd;stroke:#000000;stroke-width:2.0px;stroke-linecap:butt;stroke-linejoin:miter;stroke-opacity:1"/>
<path class="bond-5 atom-4 atom-6" d="M 48.0,94.0 L 7.5,68.9" style="fill:none;fill-rule:evenodd;stroke:#000000;stroke-width:2.0px;stroke-linecap:butt;stroke-linejoin:miter;stroke-opacity:1"/>
<path class="bond-6 atom-4 atom-1" d="M 48.0,94.0 L 79.7,58.5" style="fill:none;fill-rule:evenodd;stroke:#000000;stroke-width:2.0px;stroke-linecap:butt;stroke-linejoin:miter;stroke-opacity:1"/>
<path class="atom-0" d="M 103.3 17.1 L 105.2 15.1 L 102.6 14.6 L 103.0 13.2 L 105.4 14.4 L 105.1 11.8 L 106.5 11.7 L 106.1 14.4 L 108.6 13.3 L 109.0 14.6 L 106.3 15.0 L 108.2 17.1 L 107.1 17.9 L 105.8 15.4 L 104.4 17.9 L 103.3 17.1 " fill="#191919"/>
<path class="atom-3" d="M 136.8 118.8 L 138.7 116.7 L 136.1 116.2 L 136.5 114.9 L 138.9 116.1 L 138.6 113.4 L 140.0 113.4 L 139.6 116.1 L 142.1 114.9 L 142.5 116.2 L 139.8 116.7 L 141.7 118.7 L 140.6 119.6 L 139.3 117.1 L 137.9 119.6 L 136.8 118.8 " fill="#191919"/>
</svg>