<svg xmlns="http://www.w3.org/2000/svg" xmlns:rdkit="http://www.rdkit.org/xml" xmlns:xlink="http://www.w3.org/1999/xlink" version="1.1" baseProfile="full" xml:space="preserve" width="150px" height="150px" viewBox="0 0 150 150">
<!-- END OF HEADER -->
<rect style="opacity:1.0;fill:#FFFFFF;stroke:none" width="150.0" height="150.0" x="0.0" y="0.0"> </rect>
<ellipse cx="60.0" cy="83.4" rx="8.3" ry="8.3" class="atom-1" style="fill:#E5E533;fill-rule:evenodd;stroke:#E5E533;stroke-width:1.0px;stroke-linecap:butt;stroke-linejoin:miter;stroke-opacity:1"/>
<ellipse cx="77.1" cy="45.8" rx="8.3" ry="8.3" class="atom-2" style="fill:#9999E5;fill-rule:evenodd;stroke:#9999E5;stroke-width:1.0px;stroke-linecap:butt;stroke-linejoin:miter;stroke-opacity:1"/>
<ellipse cx="118.2" cy="41.8" rx="8.3" ry="8.3" class="atom-3" style="fill:#E5E533;fill-rule:evenodd;stroke:#E5E533;stroke-width:1.0px;stroke-linecap:butt;stroke-linejoin:miter;stroke-opacity:1"/>
<path class="bond-0 atom-0 atom-1" d="M 24.8,86.9 L 60.0,83.4" style="fill:none;fill-rule:evenodd;stroke:#E5E5E5;stroke-width:2.2px;stroke-linecap:butt;stroke-linejoin:miter;stroke-opacity:1"/>
<path class="bond-1 atom-1 atom-2" d="M 60.0,83.4 L 77.1,45.8" style="fill:none;fill-rule:evenodd;stroke:#000000;stroke-width:2.0px;stroke-linecap:butt;stroke-linejoin:miter;stroke-opacity:1"/>
<path class="bond-1 atom-1 atom-2" d="M 67.1,82.7 L 81.2,51.6" style="fill:none;fill-rule:evenodd;stroke:#000000;stroke-width:2.0px;stroke-linecap:butt;stroke-linejoin:miter;stroke-opacity:1;stroke-dasharray:6,4"/>
<path class="bond-2 atom-2 atom-3" d="M 77.1,45.8 L 118.2,41.8" style="fill:none;fill-rule:evenodd;stroke:#000000;stroke-width:2.0px;stroke-linecap:butt;stroke-linejoin:miter;stroke-opacity:1"/>
<path class="bond-2 atom-2 atom-3" d="M 81.2,51.6 L 115.3,48.3" style="fill:none;fill-rule:evenodd;stroke:#000000;stroke-width:2.0px;stroke-linecap:butt;stroke-linejoin:miter;stroke-opacity:1;stroke-dasharray:6,4"/>
<path class="bond-3 atom-3 atom-4" d="M 118.2,41.8 L 138.1,69.6" style="fill:none;fill-rule:evenodd;stroke:#E5E5E5;stroke-width:2.2px;stroke-linecap:butt;stroke-linejoin:miter;stroke-opacity:1"/>
<path class="bond-3 atom-3 atom-4" d="M 115.3,48.3 L 133.1,73.2" style="fill:none;fill-rule:evenodd;stroke:#E5E5E5;stroke-width:2.2px;stroke-linecap:butt;stroke-linejoin:miter;stroke-opacity:1;stroke-dasharray:6,4"/>
<path class="bond-4 atom-5 atom-1" d="M 77.4,113.1 L 56.4,83.8" style="fill:none;fill-rule:evenodd;stroke:#E5E5E5;stroke-width:2.2px;stroke-linecap:butt;stroke-linejoin:miter;stroke-opacity:1"/>
<path class="bond-4 atom-5 atom-1" d="M 82.4,109.5 L 61.5,80.2" style="fill:none;fill-rule:evenodd;stroke:#E5E5E5;stroke-width:2.2px;stroke-linecap:butt;stroke-linejoin:miter;stroke-opacity:1;stroke-dasharray:6,4"/>
<path d="M 76.2,47.7 L 77.1,45.8 L 79.1,45.6" style="fill:none;stroke:#000000;stroke-width:2.0px;stroke-linecap:butt;stroke-linejoin:miter;stroke-opacity:1;"/>
<path d="M 117.2,41.9 L 118.2,41.8 L 118.7,42.5" style="fill:none;stroke:#000000;stroke-width:2.0px;stroke-linecap:butt;stroke-linejoin:miter;stroke-opacity:1;"/>
<path class="atom-0" d="M 8.1 86.1 L 9.8 84.4 L 7.5 83.9 L 7.8 82.8 L 9.9 83.8 L 9.6 81.5 L 10.9 81.5 L 10.5 83.8 L 12.7 82.8 L 13.0 83.9 L 10.7 84.4 L 12.4 86.1 L 11.4 86.9 L 10.2 84.7 L 9.1 86.9 L 8.1 86.1 " fill="#191919"/>
<path class="atom-0" d="M 14.3 81.7 L 15.9 81.7 L 15.9 86.7 L 21.8 86.7 L 21.8 81.7 L 23.4 81.7 L 23.4 93.4 L 21.8 93.4 L 21.8 88.0 L 15.9 88.0 L 15.9 93.4 L 14.3 93.4 L 14.3 81.7 " fill="#191919"/>
<path class="atom-4" d="M 137.5 75.9 L 139.2 74.2 L 137.0 73.7 L 137.3 72.5 L 139.4 73.6 L 139.1 71.3 L 140.4 71.3 L 140.0 73.6 L 142.1 72.6 L 142.5 73.7 L 140.2 74.1 L 141.8 75.9 L 140.8 76.6 L 139.7 74.4 L 138.5 76.6 L 137.5 75.9 " fill="#191919"/>
<path class="atom-5" d="M 81.8 115.8 L 83.5 114.0 L 81.3 113.5 L 81.6 112.4 L 83.7 113.4 L 83.4 111.1 L 84.6 111.1 L 84.3 113.4 L 86.4 112.4 L 86.8 113.5 L 84.5 114.0 L 86.1 115.7 L 85.1 116.5 L 84.0 114.3 L 82.8 116.5 L 81.8 115.8 " fill="#191919"/>
</svg>