<svg xmlns="http://www.w3.org/2000/svg" xmlns:rdkit="http://www.rdkit.org/xml" xmlns:xlink="http://www.w3.org/1999/xlink" version="1.1" baseProfile="full" xml:space="preserve" width="150px" height="150px" viewBox="0 0 150 150">
<!-- END OF HEADER -->
<rect style="opacity:1.0;fill:#FFFFFF;stroke:none" width="150.0" height="150.0" x="0.0" y="0.0"> </rect>
<ellipse cx="42.5" cy="80.9" rx="5.5" ry="5.5" class="atom-1" style="fill:#E5E533;fill-rule:evenodd;stroke:#E5E533;stroke-width:1.0px;stroke-linecap:butt;stroke-linejoin:miter;stroke-opacity:1"/>
<ellipse cx="53.8" cy="55.8" rx="5.5" ry="5.5" class="atom-2" style="fill:#E5E533;fill-rule:evenodd;stroke:#E5E533;stroke-width:1.0px;stroke-linecap:butt;stroke-linejoin:miter;stroke-opacity:1"/>
<ellipse cx="81.2" cy="53.2" rx="5.5" ry="5.5" class="atom-3" style="fill:#9999E5;fill-rule:evenodd;stroke:#9999E5;stroke-width:1.0px;stroke-linecap:butt;stroke-linejoin:miter;stroke-opacity:1"/>
<ellipse cx="97.2" cy="75.6" rx="5.5" ry="5.5" class="atom-4" style="fill:#E5E533;fill-rule:evenodd;stroke:#E5E533;stroke-width:1.0px;stroke-linecap:butt;stroke-linejoin:miter;stroke-opacity:1"/>
<ellipse cx="85.9" cy="100.6" rx="5.5" ry="5.5" class="atom-5" style="fill:#E5E533;fill-rule:evenodd;stroke:#E5E533;stroke-width:1.0px;stroke-linecap:butt;stroke-linejoin:miter;stroke-opacity:1"/>
<path class="bond-0 atom-0 atom-1" d="M 19.0,83.2 L 42.5,80.9" style="fill:none;fill-rule:evenodd;stroke:#E5E5E5;stroke-width:1.5px;stroke-linecap:butt;stroke-linejoin:miter;stroke-opacity:1"/>
<path class="bond-1 atom-1 atom-2" d="M 42.5,80.9 L 53.8,55.8" style="fill:none;fill-rule:evenodd;stroke:#000000;stroke-width:2.0px;stroke-linecap:butt;stroke-linejoin:miter;stroke-opacity:1"/>
<path class="bond-1 atom-1 atom-2" d="M 47.2,80.4 L 56.6,59.7" style="fill:none;fill-rule:evenodd;stroke:#000000;stroke-width:2.0px;stroke-linecap:butt;stroke-linejoin:miter;stroke-opacity:1"/>
<path class="bond-2 atom-2 atom-3" d="M 53.8,55.8 L 81.2,53.2" style="fill:none;fill-rule:evenodd;stroke:#000000;stroke-width:2.0px;stroke-linecap:butt;stroke-linejoin:miter;stroke-opacity:1"/>
<path class="bond-3 atom-3 atom-4" d="M 81.2,53.2 L 97.2,75.6" style="fill:none;fill-rule:evenodd;stroke:#000000;stroke-width:2.0px;stroke-linecap:butt;stroke-linejoin:miter;stroke-opacity:1"/>
<path class="bond-3 atom-3 atom-4" d="M 79.3,57.5 L 92.5,76.0" style="fill:none;fill-rule:evenodd;stroke:#000000;stroke-width:2.0px;stroke-linecap:butt;stroke-linejoin:miter;stroke-opacity:1"/>
<path class="bond-4 atom-4 atom-5" d="M 97.2,75.6 L 85.9,100.6" style="fill:none;fill-rule:evenodd;stroke:#000000;stroke-width:2.0px;stroke-linecap:butt;stroke-linejoin:miter;stroke-opacity:1"/>
<path class="bond-5 atom-5 atom-6" d="M 85.9,100.6 L 61.2,103.0" style="fill:none;fill-rule:evenodd;stroke:#E5E5E5;stroke-width:1.5px;stroke-linecap:butt;stroke-linejoin:miter;stroke-opacity:1"/>
<path class="bond-5 atom-5 atom-6" d="M 83.1,96.7 L 60.8,98.9" style="fill:none;fill-rule:evenodd;stroke:#E5E5E5;stroke-width:1.5px;stroke-linecap:butt;stroke-linejoin:miter;stroke-opacity:1"/>
<path class="bond-6 atom-4 atom-7" d="M 97.2,75.6 L 124.6,72.9" style="fill:none;fill-rule:evenodd;stroke:#000000;stroke-width:2.0px;stroke-linecap:butt;stroke-linejoin:miter;stroke-opacity:1"/>
<path class="bond-7 atom-7 atom-8" d="M 124.6,72.9 L 137.9,91.4" style="fill:none;fill-rule:evenodd;stroke:#E5E5E5;stroke-width:1.5px;stroke-linecap:butt;stroke-linejoin:miter;stroke-opacity:1"/>
<path class="bond-8 atom-7 atom-9" d="M 124.6,72.9 L 135.8,48.3" style="fill:none;fill-rule:evenodd;stroke:#E5E5E5;stroke-width:1.5px;stroke-linecap:butt;stroke-linejoin:miter;stroke-opacity:1"/>
<path class="bond-9 atom-6 atom-1" d="M 55.7,99.4 L 42.5,80.9" style="fill:none;fill-rule:evenodd;stroke:#E5E5E5;stroke-width:1.5px;stroke-linecap:butt;stroke-linejoin:miter;stroke-opacity:1"/>
<path d="M 53.3,57.1 L 53.8,55.8 L 55.2,55.7" style="fill:none;stroke:#000000;stroke-width:2.0px;stroke-linecap:butt;stroke-linejoin:miter;stroke-opacity:1;"/>
<path d="M 79.9,53.3 L 81.2,53.2 L 82.0,54.3" style="fill:none;stroke:#000000;stroke-width:2.0px;stroke-linecap:butt;stroke-linejoin:miter;stroke-opacity:1;"/>
<path d="M 86.1,100.0 L 85.9,100.6 L 85.2,100.7" style="fill:none;stroke:#000000;stroke-width:2.0px;stroke-linecap:butt;stroke-linejoin:miter;stroke-opacity:1;"/>
<path class="atom-0" d="M 7.9 82.7 L 9.0 81.5 L 7.5 81.2 L 7.7 80.4 L 9.1 81.2 L 8.9 79.6 L 9.8 79.6 L 9.5 81.1 L 10.9 80.5 L 11.2 81.2 L 9.6 81.5 L 10.7 82.7 L 10.1 83.2 L 9.3 81.7 L 8.5 83.2 L 7.9 82.7 " fill="#191919"/>
<path class="atom-0" d="M 12.0 79.7 L 13.1 79.7 L 13.1 83.1 L 17.1 83.1 L 17.1 79.7 L 18.1 79.7 L 18.1 87.5 L 17.1 87.5 L 17.1 83.9 L 13.1 83.9 L 13.1 87.5 L 12.0 87.5 L 12.0 79.7 " fill="#191919"/>
<path class="atom-6" d="M 57.0 102.4 L 58.1 101.3 L 56.6 101.0 L 56.9 100.2 L 58.3 100.9 L 58.1 99.3 L 58.9 99.3 L 58.6 100.9 L 60.1 100.2 L 60.3 101.0 L 58.8 101.2 L 59.9 102.4 L 59.2 102.9 L 58.4 101.4 L 57.7 102.9 L 57.0 102.4 " fill="#191919"/>
<path class="atom-8" d="M 139.2 94.4 L 140.3 93.2 L 138.8 92.9 L 139.0 92.2 L 140.4 92.9 L 140.2 91.3 L 141.1 91.3 L 140.8 92.9 L 142.3 92.2 L 142.5 92.9 L 141.0 93.2 L 142.1 94.4 L 141.4 94.9 L 140.6 93.4 L 139.9 94.9 L 139.2 94.4 " fill="#191919"/>
<path class="atom-9" d="M 134.6 47.0 L 135.7 45.8 L 134.2 45.5 L 134.4 44.7 L 135.8 45.4 L 135.6 43.9 L 136.4 43.9 L 136.2 45.4 L 137.6 44.7 L 137.9 45.5 L 136.3 45.8 L 137.4 47.0 L 136.8 47.4 L 136.0 46.0 L 135.2 47.4 L 134.6 47.0 " fill="#191919"/>
</svg>