<svg xmlns="http://www.w3.org/2000/svg" xmlns:rdkit="http://www.rdkit.org/xml" xmlns:xlink="http://www.w3.org/1999/xlink" version="1.1" baseProfile="full" xml:space="preserve" width="150px" height="150px" viewBox="0 0 150 150">
<!-- END OF HEADER -->
<rect style="opacity:1.0;fill:#FFFFFF;stroke:none" width="150.0" height="150.0" x="0.0" y="0.0"> </rect>
<ellipse cx="105.0" cy="84.3" rx="7.0" ry="7.0" class="atom-1" style="fill:#CCCCCC;fill-rule:evenodd;stroke:#CCCCCC;stroke-width:1.0px;stroke-linecap:butt;stroke-linejoin:miter;stroke-opacity:1"/>
<ellipse cx="52.2" cy="114.4" rx="7.0" ry="7.0" class="atom-3" style="fill:#CCCCCC;fill-rule:evenodd;stroke:#CCCCCC;stroke-width:1.0px;stroke-linecap:butt;stroke-linejoin:miter;stroke-opacity:1"/>
<ellipse cx="34.8" cy="83.9" rx="7.0" ry="7.0" class="atom-4" style="fill:#CCCCCC;fill-rule:evenodd;stroke:#CCCCCC;stroke-width:1.0px;stroke-linecap:butt;stroke-linejoin:miter;stroke-opacity:1"/>
<ellipse cx="52.5" cy="53.6" rx="7.0" ry="7.0" class="atom-5" style="fill:#CCCCCC;fill-rule:evenodd;stroke:#CCCCCC;stroke-width:1.0px;stroke-linecap:butt;stroke-linejoin:miter;stroke-opacity:1"/>
<ellipse cx="87.7" cy="53.8" rx="7.0" ry="7.0" class="atom-6" style="fill:#CCCCCC;fill-rule:evenodd;stroke:#CCCCCC;stroke-width:1.0px;stroke-linecap:butt;stroke-linejoin:miter;stroke-opacity:1"/>
<ellipse cx="69.9" cy="84.1" rx="7.0" ry="7.0" class="atom-7" style="fill:#9999E5;fill-rule:evenodd;stroke:#9999E5;stroke-width:1.0px;stroke-linecap:butt;stroke-linejoin:miter;stroke-opacity:1"/>
<path class="bond-0 atom-0 atom-1" d="M 136.7,84.5 L 105.0,84.3" style="fill:none;fill-rule:evenodd;stroke:#E5E5E5;stroke-width:1.9px;stroke-linecap:butt;stroke-linejoin:miter;stroke-opacity:1"/>
<path class="bond-1 atom-1 atom-2" d="M 105.0,84.3 L 90.7,108.8" style="fill:none;fill-rule:evenodd;stroke:#E5E5E5;stroke-width:1.9px;stroke-linecap:butt;stroke-linejoin:miter;stroke-opacity:1"/>
<path class="bond-1 atom-1 atom-2" d="M 99.5,84.2 L 86.6,106.4" style="fill:none;fill-rule:evenodd;stroke:#E5E5E5;stroke-width:1.9px;stroke-linecap:butt;stroke-linejoin:miter;stroke-opacity:1"/>
<path class="bond-2 atom-2 atom-3" d="M 83.9,114.6 L 52.2,114.4" style="fill:none;fill-rule:evenodd;stroke:#E5E5E5;stroke-width:1.9px;stroke-linecap:butt;stroke-linejoin:miter;stroke-opacity:1"/>
<path class="bond-3 atom-3 atom-4" d="M 52.2,114.4 L 34.8,83.9" style="fill:none;fill-rule:evenodd;stroke:#000000;stroke-width:2.0px;stroke-linecap:butt;stroke-linejoin:miter;stroke-opacity:1"/>
<path class="bond-4 atom-4 atom-5" d="M 34.8,83.9 L 52.5,53.6" style="fill:none;fill-rule:evenodd;stroke:#000000;stroke-width:2.0px;stroke-linecap:butt;stroke-linejoin:miter;stroke-opacity:1"/>
<path class="bond-5 atom-5 atom-6" d="M 52.5,53.6 L 87.7,53.8" style="fill:none;fill-rule:evenodd;stroke:#000000;stroke-width:2.0px;stroke-linecap:butt;stroke-linejoin:miter;stroke-opacity:1"/>
<path class="bond-6 atom-6 atom-7" d="M 87.7,53.8 L 69.9,84.1" style="fill:none;fill-rule:evenodd;stroke:#000000;stroke-width:2.0px;stroke-linecap:butt;stroke-linejoin:miter;stroke-opacity:1"/>
<path class="bond-7 atom-7 atom-8" d="M 69.9,84.1 L 71.6,109.6" style="fill:none;fill-rule:evenodd;stroke:#000000;stroke-width:2.0px;stroke-linecap:butt;stroke-linejoin:miter;stroke-opacity:1"/>
<path class="bond-8 atom-7 atom-9" d="M 69.9,84.1 L 91.1,98.5" style="fill:none;fill-rule:evenodd;stroke:#000000;stroke-width:2.0px;stroke-linecap:butt;stroke-linejoin:miter;stroke-opacity:1"/>
<path class="bond-9 atom-6 atom-1" d="M 87.7,53.8 L 105.0,84.3" style="fill:none;fill-rule:evenodd;stroke:#000000;stroke-width:2.0px;stroke-linecap:butt;stroke-linejoin:miter;stroke-opacity:1"/>
<path class="bond-10 atom-7 atom-4" d="M 69.9,84.1 L 34.8,83.9" style="fill:none;fill-rule:evenodd;stroke:#000000;stroke-width:2.0px;stroke-linecap:butt;stroke-linejoin:miter;stroke-opacity:1"/>
<path class="bond-11 atom-4 atom-10" d="M 34.8,83.9 L 17.4,86.2 L 17.4,81.4 Z" style="fill:#000000;fill-rule:evenodd;fill-opacity:1;stroke:#000000;stroke-width:0.5px;stroke-linecap:butt;stroke-linejoin:miter;stroke-opacity:1;"/>
<path class="bond-12 atom-6 atom-11" d="M 87.7,53.8 L 93.3,39.4 L 97.4,41.8 Z" style="fill:#000000;fill-rule:evenodd;fill-opacity:1;stroke:#000000;stroke-width:0.5px;stroke-linecap:butt;stroke-linejoin:miter;stroke-opacity:1;"/>
<path d="M 53.0,114.4 L 52.2,114.4 L 51.7,113.6" style="fill:none;stroke:#E5E5E5;stroke-width:1.9px;stroke-linecap:butt;stroke-linejoin:miter;stroke-opacity:1;"/>
<path d="M 51.6,55.1 L 52.5,53.6 L 54.3,53.6" style="fill:none;stroke:#000000;stroke-width:2.0px;stroke-linecap:butt;stroke-linejoin:miter;stroke-opacity:1;"/>
<path class="atom-0" d="M 138.3 83.4 L 139.7 81.9 L 137.8 81.5 L 138.1 80.5 L 139.9 81.4 L 139.6 79.4 L 140.7 79.4 L 140.4 81.4 L 142.2 80.5 L 142.5 81.5 L 140.5 81.9 L 141.9 83.4 L 141.1 84.0 L 140.1 82.1 L 139.1 84.0 L 138.3 83.4 " fill="#191919"/>
<path class="atom-2" d="M 85.4 113.5 L 86.9 112.0 L 84.9 111.6 L 85.2 110.6 L 87.0 111.5 L 86.8 109.5 L 87.8 109.5 L 87.5 111.5 L 89.3 110.6 L 89.7 111.6 L 87.7 112.0 L 89.1 113.5 L 88.2 114.1 L 87.3 112.2 L 86.3 114.1 L 85.4 113.5 " fill="#191919"/>
<path class="atom-10" d="M 7.5 78.8 L 8.8 78.8 L 8.8 83.0 L 13.9 83.0 L 13.9 78.8 L 15.3 78.8 L 15.3 88.7 L 13.9 88.7 L 13.9 84.1 L 8.8 84.1 L 8.8 88.7 L 7.5 88.7 L 7.5 78.8 " fill="#000000"/>
<path class="atom-11" d="M 95.6 28.6 L 96.9 28.6 L 96.9 32.8 L 102.0 32.8 L 102.0 28.6 L 103.4 28.6 L 103.4 38.5 L 102.0 38.5 L 102.0 33.9 L 96.9 33.9 L 96.9 38.5 L 95.6 38.5 L 95.6 28.6 " fill="#000000"/>
</svg>