<svg xmlns="http://www.w3.org/2000/svg" xmlns:rdkit="http://www.rdkit.org/xml" xmlns:xlink="http://www.w3.org/1999/xlink" version="1.1" baseProfile="full" xml:space="preserve" width="150px" height="150px" viewBox="0 0 150 150">
<!-- END OF HEADER -->
<rect style="opacity:1.0;fill:#FFFFFF;stroke:none" width="150.0" height="150.0" x="0.0" y="0.0"> </rect>
<ellipse cx="50.0" cy="68.2" rx="8.1" ry="8.1" class="atom-1" style="fill:#E5E533;fill-rule:evenodd;stroke:#E5E533;stroke-width:1.0px;stroke-linecap:butt;stroke-linejoin:miter;stroke-opacity:1"/>
<ellipse cx="114.8" cy="94.0" rx="8.1" ry="8.1" class="atom-4" style="fill:#E5E533;fill-rule:evenodd;stroke:#E5E533;stroke-width:1.0px;stroke-linecap:butt;stroke-linejoin:miter;stroke-opacity:1"/>
<ellipse cx="75.0" cy="99.8" rx="8.1" ry="8.1" class="atom-6" style="fill:#9999E5;fill-rule:evenodd;stroke:#9999E5;stroke-width:1.0px;stroke-linecap:butt;stroke-linejoin:miter;stroke-opacity:1"/>
<path class="bond-0 atom-0 atom-1" d="M 14.2,73.4 L 50.0,68.2" style="fill:none;fill-rule:evenodd;stroke:#E5E5E5;stroke-width:2.1px;stroke-linecap:butt;stroke-linejoin:miter;stroke-opacity:1"/>
<path class="bond-1 atom-1 atom-2" d="M 52.2,71.0 L 67.4,32.7" style="fill:none;fill-rule:evenodd;stroke:#E5E5E5;stroke-width:2.1px;stroke-linecap:butt;stroke-linejoin:miter;stroke-opacity:1"/>
<path class="bond-1 atom-1 atom-2" d="M 46.6,68.7 L 61.8,30.4" style="fill:none;fill-rule:evenodd;stroke:#E5E5E5;stroke-width:2.1px;stroke-linecap:butt;stroke-linejoin:miter;stroke-opacity:1;stroke-dasharray:6,4"/>
<path class="bond-2 atom-3 atom-4" d="M 132.2,58.4 L 117.0,96.7" style="fill:none;fill-rule:evenodd;stroke:#E5E5E5;stroke-width:2.1px;stroke-linecap:butt;stroke-linejoin:miter;stroke-opacity:1"/>
<path class="bond-2 atom-3 atom-4" d="M 126.6,56.2 L 111.4,94.5" style="fill:none;fill-rule:evenodd;stroke:#E5E5E5;stroke-width:2.1px;stroke-linecap:butt;stroke-linejoin:miter;stroke-opacity:1;stroke-dasharray:6,4"/>
<path class="bond-3 atom-4 atom-5" d="M 114.8,94.0 L 135.8,120.5" style="fill:none;fill-rule:evenodd;stroke:#E5E5E5;stroke-width:2.1px;stroke-linecap:butt;stroke-linejoin:miter;stroke-opacity:1"/>
<path class="bond-4 atom-4 atom-6" d="M 114.8,94.0 L 75.0,99.8" style="fill:none;fill-rule:evenodd;stroke:#000000;stroke-width:2.0px;stroke-linecap:butt;stroke-linejoin:miter;stroke-opacity:1"/>
<path class="bond-4 atom-4 atom-6" d="M 110.5,88.5 L 77.6,93.3" style="fill:none;fill-rule:evenodd;stroke:#000000;stroke-width:2.0px;stroke-linecap:butt;stroke-linejoin:miter;stroke-opacity:1;stroke-dasharray:6,4"/>
<path class="bond-5 atom-6 atom-1" d="M 75.0,99.8 L 50.0,68.2" style="fill:none;fill-rule:evenodd;stroke:#000000;stroke-width:2.0px;stroke-linecap:butt;stroke-linejoin:miter;stroke-opacity:1"/>
<path class="bond-5 atom-6 atom-1" d="M 77.6,93.3 L 56.9,67.2" style="fill:none;fill-rule:evenodd;stroke:#000000;stroke-width:2.0px;stroke-linecap:butt;stroke-linejoin:miter;stroke-opacity:1;stroke-dasharray:6,4"/>
<path d="M 77.0,99.5 L 75.0,99.8 L 73.8,98.2" style="fill:none;stroke:#000000;stroke-width:2.0px;stroke-linecap:butt;stroke-linejoin:miter;stroke-opacity:1;"/>
<path class="atom-0" d="M 8.0 72.8 L 9.7 71.1 L 7.5 70.6 L 7.8 69.5 L 9.9 70.5 L 9.6 68.3 L 10.8 68.2 L 10.5 70.5 L 12.5 69.5 L 12.9 70.6 L 10.6 71.0 L 12.3 72.7 L 11.3 73.5 L 10.2 71.3 L 9.0 73.5 L 8.0 72.8 " fill="#191919"/>
<path class="atom-2" d="M 62.8 29.5 L 64.4 27.8 L 62.2 27.4 L 62.6 26.2 L 64.6 27.3 L 64.3 25.0 L 65.5 25.0 L 65.2 27.2 L 67.3 26.3 L 67.6 27.4 L 65.4 27.8 L 67.0 29.5 L 66.0 30.2 L 64.9 28.1 L 63.7 30.2 L 62.8 29.5 " fill="#191919"/>
<path class="atom-3" d="M 127.6 55.3 L 129.2 53.6 L 127.0 53.1 L 127.4 52.0 L 129.4 53.0 L 129.1 50.8 L 130.3 50.8 L 130.0 53.0 L 132.1 52.0 L 132.4 53.1 L 130.2 53.6 L 131.8 55.3 L 130.8 56.0 L 129.7 53.9 L 128.6 56.0 L 127.6 55.3 " fill="#191919"/>
<path class="atom-5" d="M 137.7 124.3 L 139.3 122.6 L 137.1 122.1 L 137.4 121.0 L 139.5 122.0 L 139.2 119.8 L 140.4 119.8 L 140.1 122.0 L 142.1 121.1 L 142.5 122.1 L 140.2 122.6 L 141.9 124.3 L 140.9 125.0 L 139.8 122.9 L 138.6 125.0 L 137.7 124.3 " fill="#191919"/>
</svg>