<svg xmlns="http://www.w3.org/2000/svg" xmlns:rdkit="http://www.rdkit.org/xml" xmlns:xlink="http://www.w3.org/1999/xlink" version="1.1" baseProfile="full" xml:space="preserve" width="150px" height="150px" viewBox="0 0 150 150">
<!-- END OF HEADER -->
<rect style="opacity:1.0;fill:#FFFFFF;stroke:none" width="150.0" height="150.0" x="0.0" y="0.0"> </rect>
<ellipse cx="53.1" cy="86.9" rx="7.4" ry="7.4" class="atom-3" style="fill:#9999E5;fill-rule:evenodd;stroke:#9999E5;stroke-width:1.0px;stroke-linecap:butt;stroke-linejoin:miter;stroke-opacity:1"/>
<path class="bond-0 atom-0 atom-1" d="M 110.5,16.3 L 110.9,16.9" style="fill:none;fill-rule:evenodd;stroke:#E5E5E5;stroke-width:1.0px;stroke-linecap:butt;stroke-linejoin:miter;stroke-opacity:1"/>
<path class="bond-0 atom-0 atom-1" d="M 107.2,17.8 L 107.9,19.0" style="fill:none;fill-rule:evenodd;stroke:#E5E5E5;stroke-width:1.0px;stroke-linecap:butt;stroke-linejoin:miter;stroke-opacity:1"/>
<path class="bond-0 atom-0 atom-1" d="M 103.8,19.4 L 104.9,21.2" style="fill:none;fill-rule:evenodd;stroke:#E5E5E5;stroke-width:1.0px;stroke-linecap:butt;stroke-linejoin:miter;stroke-opacity:1"/>
<path class="bond-0 atom-0 atom-1" d="M 100.4,20.9 L 101.8,23.3" style="fill:none;fill-rule:evenodd;stroke:#E5E5E5;stroke-width:1.0px;stroke-linecap:butt;stroke-linejoin:miter;stroke-opacity:1"/>
<path class="bond-0 atom-0 atom-1" d="M 97.1,22.5 L 98.8,25.5" style="fill:none;fill-rule:evenodd;stroke:#E5E5E5;stroke-width:1.0px;stroke-linecap:butt;stroke-linejoin:miter;stroke-opacity:1"/>
<path class="bond-0 atom-0 atom-1" d="M 93.7,24.0 L 95.8,27.6" style="fill:none;fill-rule:evenodd;stroke:#E5E5E5;stroke-width:1.0px;stroke-linecap:butt;stroke-linejoin:miter;stroke-opacity:1"/>
<path class="bond-0 atom-0 atom-1" d="M 90.3,25.6 L 92.8,29.8" style="fill:none;fill-rule:evenodd;stroke:#E5E5E5;stroke-width:1.0px;stroke-linecap:butt;stroke-linejoin:miter;stroke-opacity:1"/>
<path class="bond-0 atom-0 atom-1" d="M 87.0,27.1 L 89.8,31.9" style="fill:none;fill-rule:evenodd;stroke:#E5E5E5;stroke-width:1.0px;stroke-linecap:butt;stroke-linejoin:miter;stroke-opacity:1"/>
<path class="bond-1 atom-1 atom-2" d="M 85.1,31.4 L 85.1,68.4" style="fill:none;fill-rule:evenodd;stroke:#000000;stroke-width:2.0px;stroke-linecap:butt;stroke-linejoin:miter;stroke-opacity:1"/>
<path class="bond-2 atom-2 atom-3" d="M 85.1,68.4 L 53.1,86.9" style="fill:none;fill-rule:evenodd;stroke:#000000;stroke-width:2.0px;stroke-linecap:butt;stroke-linejoin:miter;stroke-opacity:1"/>
<path class="bond-3 atom-3 atom-4" d="M 53.1,86.9 L 53.1,124.0" style="fill:none;fill-rule:evenodd;stroke:#000000;stroke-width:2.0px;stroke-linecap:butt;stroke-linejoin:miter;stroke-opacity:1"/>
<path class="bond-3 atom-3 atom-4" d="M 58.6,90.1 L 58.6,120.8" style="fill:none;fill-rule:evenodd;stroke:#000000;stroke-width:2.0px;stroke-linecap:butt;stroke-linejoin:miter;stroke-opacity:1"/>
<path class="bond-4 atom-4 atom-5" d="M 53.1,124.0 L 21.0,142.5" style="fill:none;fill-rule:evenodd;stroke:#000000;stroke-width:2.0px;stroke-linecap:butt;stroke-linejoin:miter;stroke-opacity:1"/>
<path class="bond-5 atom-4 atom-6" d="M 53.1,124.0 L 85.1,142.5" style="fill:none;fill-rule:evenodd;stroke:#000000;stroke-width:2.0px;stroke-linecap:butt;stroke-linejoin:miter;stroke-opacity:1"/>
<path d="M 85.1,66.6 L 85.1,68.4 L 83.5,69.3" style="fill:none;stroke:#000000;stroke-width:2.0px;stroke-linecap:butt;stroke-linejoin:miter;stroke-opacity:1;"/>
<path d="M 54.7,86.0 L 53.1,86.9 L 53.1,88.8" style="fill:none;stroke:#000000;stroke-width:2.0px;stroke-linecap:butt;stroke-linejoin:miter;stroke-opacity:1;"/>
<path class="atom-0" d="M 115.2 11.7 L 116.8 10.1 L 114.7 9.7 L 115.1 8.6 L 116.9 9.6 L 116.7 7.5 L 117.8 7.5 L 117.5 9.6 L 119.4 8.7 L 119.7 9.7 L 117.6 10.1 L 119.1 11.6 L 118.2 12.3 L 117.2 10.3 L 116.2 12.3 L 115.2 11.7 " fill="#191919"/>
<path class="atom-0" d="M 120.8 7.7 L 122.2 7.7 L 122.2 12.1 L 127.6 12.1 L 127.6 7.7 L 129.0 7.7 L 129.0 18.2 L 127.6 18.2 L 127.6 13.3 L 122.2 13.3 L 122.2 18.2 L 120.8 18.2 L 120.8 7.7 " fill="#191919"/>
</svg>