<svg xmlns="http://www.w3.org/2000/svg" xmlns:rdkit="http://www.rdkit.org/xml" xmlns:xlink="http://www.w3.org/1999/xlink" version="1.1" baseProfile="full" xml:space="preserve" width="150px" height="150px" viewBox="0 0 150 150">
<!-- END OF HEADER -->
<rect style="opacity:1.0;fill:#FFFFFF;stroke:none" width="150.0" height="150.0" x="0.0" y="0.0"> </rect>
<ellipse cx="72.0" cy="62.0" rx="5.2" ry="5.2" class="atom-2" style="fill:#9999E5;fill-rule:evenodd;stroke:#9999E5;stroke-width:1.0px;stroke-linecap:butt;stroke-linejoin:miter;stroke-opacity:1"/>
<ellipse cx="28.0" cy="73.4" rx="5.2" ry="5.2" class="atom-7" style="fill:#CCCCCC;fill-rule:evenodd;stroke:#CCCCCC;stroke-width:1.0px;stroke-linecap:butt;stroke-linejoin:miter;stroke-opacity:1"/>
<path class="bond-0 atom-0 atom-1" d="M 59.8,105.8 L 53.3,80.4" style="fill:none;fill-rule:evenodd;stroke:#000000;stroke-width:2.0px;stroke-linecap:butt;stroke-linejoin:miter;stroke-opacity:1"/>
<path class="bond-1 atom-1 atom-2" d="M 53.3,80.4 L 72.0,62.0" style="fill:none;fill-rule:evenodd;stroke:#000000;stroke-width:2.0px;stroke-linecap:butt;stroke-linejoin:miter;stroke-opacity:1"/>
<path class="bond-2 atom-2 atom-3" d="M 72.0,62.0 L 97.3,69.1" style="fill:none;fill-rule:evenodd;stroke:#000000;stroke-width:2.0px;stroke-linecap:butt;stroke-linejoin:miter;stroke-opacity:1"/>
<path class="bond-3 atom-3 atom-4" d="M 95.1,68.5 L 97.9,79.4" style="fill:none;fill-rule:evenodd;stroke:#000000;stroke-width:2.0px;stroke-linecap:butt;stroke-linejoin:miter;stroke-opacity:1"/>
<path class="bond-3 atom-3 atom-4" d="M 97.9,79.4 L 100.7,90.4" style="fill:none;fill-rule:evenodd;stroke:#FF0000;stroke-width:2.0px;stroke-linecap:butt;stroke-linejoin:miter;stroke-opacity:1"/>
<path class="bond-3 atom-3 atom-4" d="M 98.9,67.5 L 101.7,78.4" style="fill:none;fill-rule:evenodd;stroke:#000000;stroke-width:2.0px;stroke-linecap:butt;stroke-linejoin:miter;stroke-opacity:1"/>
<path class="bond-3 atom-3 atom-4" d="M 101.7,78.4 L 104.5,89.4" style="fill:none;fill-rule:evenodd;stroke:#FF0000;stroke-width:2.0px;stroke-linecap:butt;stroke-linejoin:miter;stroke-opacity:1"/>
<path class="bond-4 atom-3 atom-5" d="M 97.3,69.1 L 116.0,50.7" style="fill:none;fill-rule:evenodd;stroke:#000000;stroke-width:2.0px;stroke-linecap:butt;stroke-linejoin:miter;stroke-opacity:1"/>
<path class="bond-5 atom-5 atom-6" d="M 116.0,50.7 L 138.6,57.0" style="fill:none;fill-rule:evenodd;stroke:#E5E5E5;stroke-width:1.4px;stroke-linecap:butt;stroke-linejoin:miter;stroke-opacity:1"/>
<path class="bond-5 atom-5 atom-6" d="M 117.1,55.1 L 137.6,60.8" style="fill:none;fill-rule:evenodd;stroke:#E5E5E5;stroke-width:1.4px;stroke-linecap:butt;stroke-linejoin:miter;stroke-opacity:1"/>
<path class="bond-6 atom-1 atom-7" d="M 53.3,80.4 L 28.0,73.4" style="fill:none;fill-rule:evenodd;stroke:#000000;stroke-width:2.0px;stroke-linecap:butt;stroke-linejoin:miter;stroke-opacity:1"/>
<path class="bond-7 atom-7 atom-8" d="M 28.0,73.4 L 11.9,89.2" style="fill:none;fill-rule:evenodd;stroke:#E5E5E5;stroke-width:1.4px;stroke-linecap:butt;stroke-linejoin:miter;stroke-opacity:1"/>
<path class="bond-8 atom-9 atom-7" d="M 21.6,48.4 L 28.0,73.4" style="fill:none;fill-rule:evenodd;stroke:#E5E5E5;stroke-width:1.4px;stroke-linecap:butt;stroke-linejoin:miter;stroke-opacity:1"/>
<path d="M 71.1,63.0 L 72.0,62.0 L 73.3,62.4" style="fill:none;stroke:#000000;stroke-width:2.0px;stroke-linecap:butt;stroke-linejoin:miter;stroke-opacity:1;"/>
<path d="M 96.0,68.7 L 97.3,69.1 L 98.2,68.2" style="fill:none;stroke:#000000;stroke-width:2.0px;stroke-linecap:butt;stroke-linejoin:miter;stroke-opacity:1;"/>
<path d="M 115.5,51.2 L 116.0,50.7 L 116.6,50.9" style="fill:none;stroke:#000000;stroke-width:2.0px;stroke-linecap:butt;stroke-linejoin:miter;stroke-opacity:1;"/>
<path class="atom-4" d="M 100.4 94.5 Q 100.4 92.7, 101.3 91.7 Q 102.2 90.7, 103.8 90.7 Q 105.4 90.7, 106.3 91.7 Q 107.2 92.7, 107.2 94.5 Q 107.2 96.3, 106.3 97.3 Q 105.4 98.4, 103.8 98.4 Q 102.2 98.4, 101.3 97.3 Q 100.4 96.3, 100.4 94.5 M 103.8 97.5 Q 104.9 97.5, 105.5 96.8 Q 106.2 96.0, 106.2 94.5 Q 106.2 93.1, 105.5 92.3 Q 104.9 91.6, 103.8 91.6 Q 102.7 91.6, 102.1 92.3 Q 101.4 93.0, 101.4 94.5 Q 101.4 96.0, 102.1 96.8 Q 102.7 97.5, 103.8 97.5 " fill="#FF0000"/>
<path class="atom-6" d="M 139.3 58.8 L 140.4 57.7 L 139.0 57.4 L 139.2 56.7 L 140.5 57.4 L 140.3 55.9 L 141.1 55.9 L 140.9 57.3 L 142.3 56.7 L 142.5 57.4 L 141.0 57.7 L 142.1 58.8 L 141.4 59.3 L 140.7 57.9 L 140.0 59.3 L 139.3 58.8 " fill="#191919"/>
<path class="atom-8" d="M 7.9 90.9 L 8.9 89.8 L 7.5 89.5 L 7.7 88.8 L 9.1 89.4 L 8.9 88.0 L 9.7 88.0 L 9.4 89.4 L 10.8 88.8 L 11.0 89.5 L 9.5 89.8 L 10.6 90.9 L 10.0 91.4 L 9.2 90.0 L 8.5 91.4 L 7.9 90.9 " fill="#191919"/>
<path class="atom-9" d="M 20.1 47.1 L 21.1 46.0 L 19.7 45.7 L 19.9 45.0 L 21.3 45.7 L 21.1 44.2 L 21.8 44.2 L 21.6 45.6 L 23.0 45.0 L 23.2 45.7 L 21.7 46.0 L 22.8 47.1 L 22.2 47.6 L 21.4 46.2 L 20.7 47.6 L 20.1 47.1 " fill="#191919"/>
</svg>