<svg xmlns="http://www.w3.org/2000/svg" xmlns:rdkit="http://www.rdkit.org/xml" xmlns:xlink="http://www.w3.org/1999/xlink" version="1.1" baseProfile="full" xml:space="preserve" width="150px" height="150px" viewBox="0 0 150 150">
<!-- END OF HEADER -->
<rect style="opacity:1.0;fill:#FFFFFF;stroke:none" width="150.0" height="150.0" x="0.0" y="0.0"> </rect>
<ellipse cx="63.1" cy="72.6" rx="6.9" ry="6.9" class="atom-3" style="fill:#9999E5;fill-rule:evenodd;stroke:#9999E5;stroke-width:1.0px;stroke-linecap:butt;stroke-linejoin:miter;stroke-opacity:1"/>
<ellipse cx="75.9" cy="40.5" rx="6.9" ry="6.9" class="atom-4" style="fill:#E5E533;fill-rule:evenodd;stroke:#E5E533;stroke-width:1.0px;stroke-linecap:butt;stroke-linejoin:miter;stroke-opacity:1"/>
<ellipse cx="110.1" cy="35.5" rx="6.9" ry="6.9" class="atom-5" style="fill:#E5E533;fill-rule:evenodd;stroke:#E5E533;stroke-width:1.0px;stroke-linecap:butt;stroke-linejoin:miter;stroke-opacity:1"/>
<ellipse cx="118.8" cy="94.8" rx="6.9" ry="6.9" class="atom-7" style="fill:#E5E533;fill-rule:evenodd;stroke:#E5E533;stroke-width:1.0px;stroke-linecap:butt;stroke-linejoin:miter;stroke-opacity:1"/>
<ellipse cx="84.6" cy="99.8" rx="6.9" ry="6.9" class="atom-9" style="fill:#E5E533;fill-rule:evenodd;stroke:#E5E533;stroke-width:1.0px;stroke-linecap:butt;stroke-linejoin:miter;stroke-opacity:1"/>
<path class="bond-0 atom-0 atom-1" d="M 7.5,50.5 L 28.9,77.6" style="fill:none;fill-rule:evenodd;stroke:#000000;stroke-width:2.0px;stroke-linecap:butt;stroke-linejoin:miter;stroke-opacity:1"/>
<path class="bond-1 atom-1 atom-2" d="M 28.9,77.6 L 16.2,109.8" style="fill:none;fill-rule:evenodd;stroke:#000000;stroke-width:2.0px;stroke-linecap:butt;stroke-linejoin:miter;stroke-opacity:1"/>
<path class="bond-2 atom-1 atom-3" d="M 28.9,77.6 L 63.1,72.6" style="fill:none;fill-rule:evenodd;stroke:#000000;stroke-width:2.0px;stroke-linecap:butt;stroke-linejoin:miter;stroke-opacity:1"/>
<path class="bond-3 atom-3 atom-4" d="M 63.1,72.6 L 75.9,40.5" style="fill:none;fill-rule:evenodd;stroke:#000000;stroke-width:2.0px;stroke-linecap:butt;stroke-linejoin:miter;stroke-opacity:1"/>
<path class="bond-3 atom-3 atom-4" d="M 69.1,71.8 L 79.6,45.2" style="fill:none;fill-rule:evenodd;stroke:#000000;stroke-width:2.0px;stroke-linecap:butt;stroke-linejoin:miter;stroke-opacity:1"/>
<path class="bond-4 atom-4 atom-5" d="M 75.9,40.5 L 110.1,35.5" style="fill:none;fill-rule:evenodd;stroke:#000000;stroke-width:2.0px;stroke-linecap:butt;stroke-linejoin:miter;stroke-opacity:1"/>
<path class="bond-5 atom-5 atom-6" d="M 110.1,35.5 L 128.1,58.3" style="fill:none;fill-rule:evenodd;stroke:#E5E5E5;stroke-width:1.8px;stroke-linecap:butt;stroke-linejoin:miter;stroke-opacity:1"/>
<path class="bond-5 atom-5 atom-6" d="M 107.9,41.1 L 124.0,61.5" style="fill:none;fill-rule:evenodd;stroke:#E5E5E5;stroke-width:1.8px;stroke-linecap:butt;stroke-linejoin:miter;stroke-opacity:1"/>
<path class="bond-6 atom-6 atom-7" d="M 131.3,63.3 L 118.8,94.8" style="fill:none;fill-rule:evenodd;stroke:#E5E5E5;stroke-width:1.8px;stroke-linecap:butt;stroke-linejoin:miter;stroke-opacity:1"/>
<path class="bond-7 atom-7 atom-8" d="M 118.8,94.8 L 136.7,117.5" style="fill:none;fill-rule:evenodd;stroke:#E5E5E5;stroke-width:1.8px;stroke-linecap:butt;stroke-linejoin:miter;stroke-opacity:1"/>
<path class="bond-8 atom-7 atom-9" d="M 118.8,94.8 L 84.6,99.8" style="fill:none;fill-rule:evenodd;stroke:#000000;stroke-width:2.0px;stroke-linecap:butt;stroke-linejoin:miter;stroke-opacity:1"/>
<path class="bond-8 atom-7 atom-9" d="M 115.0,90.1 L 86.8,94.2" style="fill:none;fill-rule:evenodd;stroke:#000000;stroke-width:2.0px;stroke-linecap:butt;stroke-linejoin:miter;stroke-opacity:1"/>
<path class="bond-9 atom-9 atom-3" d="M 84.6,99.8 L 63.1,72.6" style="fill:none;fill-rule:evenodd;stroke:#000000;stroke-width:2.0px;stroke-linecap:butt;stroke-linejoin:miter;stroke-opacity:1"/>
<path d="M 75.3,42.1 L 75.9,40.5 L 77.6,40.3" style="fill:none;stroke:#000000;stroke-width:2.0px;stroke-linecap:butt;stroke-linejoin:miter;stroke-opacity:1;"/>
<path d="M 109.2,35.7 L 110.1,35.5 L 110.5,36.1" style="fill:none;stroke:#000000;stroke-width:2.0px;stroke-linecap:butt;stroke-linejoin:miter;stroke-opacity:1;"/>
<path d="M 86.3,99.5 L 84.6,99.8 L 83.5,98.4" style="fill:none;stroke:#000000;stroke-width:2.0px;stroke-linecap:butt;stroke-linejoin:miter;stroke-opacity:1;"/>
<path class="atom-6" d="M 129.7 61.6 L 131.1 60.1 L 129.2 59.7 L 129.5 58.7 L 131.3 59.6 L 131.0 57.7 L 132.0 57.7 L 131.8 59.6 L 133.5 58.8 L 133.8 59.7 L 131.9 60.1 L 133.3 61.5 L 132.4 62.1 L 131.5 60.3 L 130.5 62.1 L 129.7 61.6 " fill="#191919"/>
<path class="atom-8" d="M 138.3 120.8 L 139.8 119.3 L 137.9 118.9 L 138.2 118.0 L 139.9 118.8 L 139.7 116.9 L 140.7 116.9 L 140.4 118.8 L 142.2 118.0 L 142.5 118.9 L 140.6 119.3 L 141.9 120.8 L 141.1 121.4 L 140.1 119.6 L 139.2 121.4 L 138.3 120.8 " fill="#191919"/>
</svg>