<svg xmlns="http://www.w3.org/2000/svg" xmlns:rdkit="http://www.rdkit.org/xml" xmlns:xlink="http://www.w3.org/1999/xlink" version="1.1" baseProfile="full" xml:space="preserve" width="150px" height="150px" viewBox="0 0 150 150">
<!-- END OF HEADER -->
<rect style="opacity:1.0;fill:#FFFFFF;stroke:none" width="150.0" height="150.0" x="0.0" y="0.0"> </rect>
<ellipse cx="53.5" cy="105.9" rx="8.7" ry="8.7" class="atom-1" style="fill:#E5E533;fill-rule:evenodd;stroke:#E5E533;stroke-width:1.0px;stroke-linecap:butt;stroke-linejoin:miter;stroke-opacity:1"/>
<ellipse cx="68.9" cy="65.1" rx="8.7" ry="8.7" class="atom-2" style="fill:#9999E5;fill-rule:evenodd;stroke:#9999E5;stroke-width:1.0px;stroke-linecap:butt;stroke-linejoin:miter;stroke-opacity:1"/>
<ellipse cx="111.9" cy="58.0" rx="8.7" ry="8.7" class="atom-3" style="fill:#E5E533;fill-rule:evenodd;stroke:#E5E533;stroke-width:1.0px;stroke-linecap:butt;stroke-linejoin:miter;stroke-opacity:1"/>
<path class="bond-0 atom-0 atom-1" d="M 14.8,112.3 L 53.5,105.9" style="fill:none;fill-rule:evenodd;stroke:#E5E5E5;stroke-width:2.3px;stroke-linecap:butt;stroke-linejoin:miter;stroke-opacity:1"/>
<path class="bond-1 atom-1 atom-2" d="M 53.5,105.9 L 68.9,65.1" style="fill:none;fill-rule:evenodd;stroke:#000000;stroke-width:2.0px;stroke-linecap:butt;stroke-linejoin:miter;stroke-opacity:1"/>
<path class="bond-1 atom-1 atom-2" d="M 60.9,104.7 L 73.7,71.0" style="fill:none;fill-rule:evenodd;stroke:#000000;stroke-width:2.0px;stroke-linecap:butt;stroke-linejoin:miter;stroke-opacity:1;stroke-dasharray:6,4"/>
<path class="bond-2 atom-2 atom-3" d="M 68.9,65.1 L 111.9,58.0" style="fill:none;fill-rule:evenodd;stroke:#000000;stroke-width:2.0px;stroke-linecap:butt;stroke-linejoin:miter;stroke-opacity:1"/>
<path class="bond-2 atom-2 atom-3" d="M 73.7,71.0 L 109.3,65.1" style="fill:none;fill-rule:evenodd;stroke:#000000;stroke-width:2.0px;stroke-linecap:butt;stroke-linejoin:miter;stroke-opacity:1;stroke-dasharray:6,4"/>
<path class="bond-3 atom-3 atom-4" d="M 111.9,58.0 L 127.0,18.0" style="fill:none;fill-rule:evenodd;stroke:#E5E5E5;stroke-width:2.3px;stroke-linecap:butt;stroke-linejoin:miter;stroke-opacity:1"/>
<path class="bond-4 atom-3 atom-5" d="M 108.2,58.7 L 132.7,88.5" style="fill:none;fill-rule:evenodd;stroke:#E5E5E5;stroke-width:2.3px;stroke-linecap:butt;stroke-linejoin:miter;stroke-opacity:1"/>
<path class="bond-4 atom-3 atom-5" d="M 113.3,54.5 L 137.7,84.4" style="fill:none;fill-rule:evenodd;stroke:#E5E5E5;stroke-width:2.3px;stroke-linecap:butt;stroke-linejoin:miter;stroke-opacity:1;stroke-dasharray:6,4"/>
<path class="bond-5 atom-6 atom-1" d="M 74.2,136.4 L 49.7,106.5" style="fill:none;fill-rule:evenodd;stroke:#E5E5E5;stroke-width:2.3px;stroke-linecap:butt;stroke-linejoin:miter;stroke-opacity:1"/>
<path class="bond-5 atom-6 atom-1" d="M 79.3,132.3 L 54.8,102.4" style="fill:none;fill-rule:evenodd;stroke:#E5E5E5;stroke-width:2.3px;stroke-linecap:butt;stroke-linejoin:miter;stroke-opacity:1;stroke-dasharray:6,4"/>
<path d="M 68.1,67.2 L 68.9,65.1 L 71.0,64.8" style="fill:none;stroke:#000000;stroke-width:2.0px;stroke-linecap:butt;stroke-linejoin:miter;stroke-opacity:1;"/>
<path class="atom-0" d="M 8.1 111.6 L 9.9 109.8 L 7.5 109.3 L 7.9 108.0 L 10.1 109.2 L 9.8 106.7 L 11.1 106.7 L 10.7 109.1 L 13.0 108.1 L 13.3 109.3 L 10.9 109.7 L 12.6 111.6 L 11.6 112.4 L 10.4 110.1 L 9.2 112.4 L 8.1 111.6 " fill="#191919"/>
<path class="atom-4" d="M 125.0 15.9 L 126.8 14.0 L 124.4 13.5 L 124.8 12.3 L 127.0 13.4 L 126.7 11.0 L 128.0 10.9 L 127.6 13.4 L 129.9 12.3 L 130.3 13.5 L 127.8 14.0 L 129.6 15.8 L 128.5 16.6 L 127.3 14.3 L 126.1 16.6 L 125.0 15.9 " fill="#191919"/>
<path class="atom-5" d="M 137.2 90.4 L 139.1 88.6 L 136.7 88.1 L 137.0 86.8 L 139.2 88.0 L 138.9 85.5 L 140.2 85.5 L 139.9 87.9 L 142.1 86.9 L 142.5 88.1 L 140.1 88.5 L 141.8 90.4 L 140.7 91.2 L 139.5 88.9 L 138.3 91.2 L 137.2 90.4 " fill="#191919"/>
<path class="atom-6" d="M 78.8 138.3 L 80.6 136.5 L 78.2 136.0 L 78.6 134.7 L 80.8 135.8 L 80.5 133.4 L 81.8 133.4 L 81.4 135.8 L 83.7 134.8 L 84.0 136.0 L 81.6 136.4 L 83.3 138.3 L 82.3 139.1 L 81.1 136.7 L 79.9 139.1 L 78.8 138.3 " fill="#191919"/>
</svg>