<svg xmlns="http://www.w3.org/2000/svg" xmlns:rdkit="http://www.rdkit.org/xml" xmlns:xlink="http://www.w3.org/1999/xlink" version="1.1" baseProfile="full" xml:space="preserve" width="150px" height="150px" viewBox="0 0 150 150">
<!-- END OF HEADER -->
<rect style="opacity:1.0;fill:#FFFFFF;stroke:none" width="150.0" height="150.0" x="0.0" y="0.0"> </rect>
<ellipse cx="95.5" cy="75.0" rx="8.8" ry="8.8" class="atom-1" style="fill:#E5E533;fill-rule:evenodd;stroke:#E5E533;stroke-width:1.0px;stroke-linecap:butt;stroke-linejoin:miter;stroke-opacity:1"/>
<ellipse cx="71.4" cy="111.9" rx="8.8" ry="8.8" class="atom-2" style="fill:#9999E5;fill-rule:evenodd;stroke:#9999E5;stroke-width:1.0px;stroke-linecap:butt;stroke-linejoin:miter;stroke-opacity:1"/>
<ellipse cx="27.4" cy="109.4" rx="8.8" ry="8.8" class="atom-3" style="fill:#E5E533;fill-rule:evenodd;stroke:#E5E533;stroke-width:1.0px;stroke-linecap:butt;stroke-linejoin:miter;stroke-opacity:1"/>
<path class="bond-0 atom-0 atom-1" d="M 135.1,77.2 L 95.5,75.0" style="fill:none;fill-rule:evenodd;stroke:#E5E5E5;stroke-width:2.4px;stroke-linecap:butt;stroke-linejoin:miter;stroke-opacity:1"/>
<path class="bond-1 atom-1 atom-2" d="M 95.5,75.0 L 71.4,111.9" style="fill:none;fill-rule:evenodd;stroke:#000000;stroke-width:2.0px;stroke-linecap:butt;stroke-linejoin:miter;stroke-opacity:1"/>
<path class="bond-1 atom-1 atom-2" d="M 87.9,74.6 L 67.9,105.1" style="fill:none;fill-rule:evenodd;stroke:#000000;stroke-width:2.0px;stroke-linecap:butt;stroke-linejoin:miter;stroke-opacity:1;stroke-dasharray:6,4"/>
<path class="bond-2 atom-2 atom-3" d="M 71.4,111.9 L 27.4,109.4" style="fill:none;fill-rule:evenodd;stroke:#000000;stroke-width:2.0px;stroke-linecap:butt;stroke-linejoin:miter;stroke-opacity:1"/>
<path class="bond-2 atom-2 atom-3" d="M 67.9,105.1 L 31.6,103.0" style="fill:none;fill-rule:evenodd;stroke:#000000;stroke-width:2.0px;stroke-linecap:butt;stroke-linejoin:miter;stroke-opacity:1;stroke-dasharray:6,4"/>
<path class="bond-3 atom-3 atom-4" d="M 27.4,109.4 L 7.9,70.9" style="fill:none;fill-rule:evenodd;stroke:#E5E5E5;stroke-width:2.4px;stroke-linecap:butt;stroke-linejoin:miter;stroke-opacity:1"/>
<path class="bond-3 atom-3 atom-4" d="M 31.6,103.0 L 13.8,67.9" style="fill:none;fill-rule:evenodd;stroke:#E5E5E5;stroke-width:2.4px;stroke-linecap:butt;stroke-linejoin:miter;stroke-opacity:1;stroke-dasharray:6,4"/>
<path class="bond-4 atom-5 atom-1" d="M 79.0,35.0 L 99.3,75.2" style="fill:none;fill-rule:evenodd;stroke:#E5E5E5;stroke-width:2.4px;stroke-linecap:butt;stroke-linejoin:miter;stroke-opacity:1"/>
<path class="bond-4 atom-5 atom-1" d="M 73.1,38.0 L 93.4,78.2" style="fill:none;fill-rule:evenodd;stroke:#E5E5E5;stroke-width:2.4px;stroke-linecap:butt;stroke-linejoin:miter;stroke-opacity:1;stroke-dasharray:6,4"/>
<path d="M 72.6,110.0 L 71.4,111.9 L 69.2,111.8" style="fill:none;stroke:#000000;stroke-width:2.0px;stroke-linecap:butt;stroke-linejoin:miter;stroke-opacity:1;"/>
<path d="M 28.5,109.5 L 27.4,109.4 L 26.9,108.5" style="fill:none;stroke:#000000;stroke-width:2.0px;stroke-linecap:butt;stroke-linejoin:miter;stroke-opacity:1;"/>
<path class="atom-0" d="M 137.2 76.1 L 139.0 74.2 L 136.6 73.7 L 137.0 72.5 L 139.2 73.6 L 138.9 71.1 L 140.2 71.1 L 139.8 73.6 L 142.1 72.5 L 142.5 73.7 L 140.0 74.2 L 141.8 76.1 L 140.7 76.8 L 139.5 74.5 L 138.3 76.8 L 137.2 76.1 " fill="#191919"/>
<path class="atom-4" d="M 8.1 67.2 L 9.9 65.3 L 7.5 64.8 L 7.9 63.6 L 10.1 64.7 L 9.8 62.2 L 11.1 62.2 L 10.7 64.7 L 13.0 63.6 L 13.4 64.8 L 10.9 65.3 L 12.7 67.2 L 11.6 67.9 L 10.4 65.6 L 9.2 67.9 L 8.1 67.2 " fill="#191919"/>
<path class="atom-5" d="M 73.3 34.3 L 75.1 32.4 L 72.7 31.9 L 73.1 30.6 L 75.3 31.8 L 75.0 29.3 L 76.3 29.3 L 76.0 31.8 L 78.2 30.7 L 78.6 31.9 L 76.1 32.4 L 77.9 34.2 L 76.8 35.0 L 75.6 32.7 L 74.4 35.0 L 73.3 34.3 " fill="#191919"/>
</svg>