<svg xmlns="http://www.w3.org/2000/svg" xmlns:rdkit="http://www.rdkit.org/xml" xmlns:xlink="http://www.w3.org/1999/xlink" version="1.1" baseProfile="full" xml:space="preserve" width="150px" height="150px" viewBox="0 0 150 150">
<!-- END OF HEADER -->
<rect style="opacity:1.0;fill:#FFFFFF;stroke:none" width="150.0" height="150.0" x="0.0" y="0.0"> </rect>
<ellipse cx="99.4" cy="79.6" rx="8.1" ry="8.1" class="atom-1" style="fill:#CCCCCC;fill-rule:evenodd;stroke:#CCCCCC;stroke-width:1.0px;stroke-linecap:butt;stroke-linejoin:miter;stroke-opacity:1"/>
<ellipse cx="39.0" cy="44.2" rx="8.1" ry="8.1" class="atom-4" style="fill:#CCCCCC;fill-rule:evenodd;stroke:#CCCCCC;stroke-width:1.0px;stroke-linecap:butt;stroke-linejoin:miter;stroke-opacity:1"/>
<ellipse cx="79.4" cy="44.5" rx="8.1" ry="8.1" class="atom-5" style="fill:#9999E5;fill-rule:evenodd;stroke:#9999E5;stroke-width:1.0px;stroke-linecap:butt;stroke-linejoin:miter;stroke-opacity:1"/>
<ellipse cx="59.0" cy="79.3" rx="8.1" ry="8.1" class="atom-6" style="fill:#CCCCCC;fill-rule:evenodd;stroke:#CCCCCC;stroke-width:1.0px;stroke-linecap:butt;stroke-linejoin:miter;stroke-opacity:1"/>
<path class="bond-0 atom-0 atom-1" d="M 135.8,79.8 L 99.4,79.6" style="fill:none;fill-rule:evenodd;stroke:#E5E5E5;stroke-width:2.2px;stroke-linecap:butt;stroke-linejoin:miter;stroke-opacity:1"/>
<path class="bond-1 atom-1 atom-2" d="M 97.8,76.7 L 80.5,106.2" style="fill:none;fill-rule:evenodd;stroke:#E5E5E5;stroke-width:2.2px;stroke-linecap:butt;stroke-linejoin:miter;stroke-opacity:1"/>
<path class="bond-1 atom-1 atom-2" d="M 102.7,79.6 L 85.4,109.1" style="fill:none;fill-rule:evenodd;stroke:#E5E5E5;stroke-width:2.2px;stroke-linecap:butt;stroke-linejoin:miter;stroke-opacity:1"/>
<path class="bond-2 atom-3 atom-4" d="M 23.3,71.0 L 35.9,44.2 L 42.5,44.2 Z" style="fill:#E5E5E5;fill-rule:evenodd;fill-opacity:1;stroke:#E5E5E5;stroke-width:0.5px;stroke-linecap:butt;stroke-linejoin:miter;stroke-opacity:1;"/>
<path class="bond-3 atom-4 atom-5" d="M 35.9,44.2 L 79.4,44.5" style="fill:none;fill-rule:evenodd;stroke:#000000;stroke-width:2.0px;stroke-linecap:butt;stroke-linejoin:miter;stroke-opacity:1"/>
<path class="bond-4 atom-5 atom-6" d="M 79.4,44.5 L 59.0,79.3" style="fill:none;fill-rule:evenodd;stroke:#000000;stroke-width:2.0px;stroke-linecap:butt;stroke-linejoin:miter;stroke-opacity:1"/>
<path class="bond-5 atom-6 atom-7" d="M 59.0,79.3 L 60.4,101.7" style="fill:none;fill-rule:evenodd;stroke:#E5E5E5;stroke-width:2.2px;stroke-linecap:butt;stroke-linejoin:miter;stroke-opacity:1"/>
<path class="bond-6 atom-6 atom-8" d="M 59.0,79.3 L 79.4,93.2" style="fill:none;fill-rule:evenodd;stroke:#E5E5E5;stroke-width:2.2px;stroke-linecap:butt;stroke-linejoin:miter;stroke-opacity:1"/>
<path class="bond-7 atom-5 atom-1" d="M 80.8,47.5 L 81.3,47.3" style="fill:none;fill-rule:evenodd;stroke:#000000;stroke-width:1.0px;stroke-linecap:butt;stroke-linejoin:miter;stroke-opacity:1"/>
<path class="bond-7 atom-5 atom-1" d="M 82.3,50.6 L 83.2,50.1" style="fill:none;fill-rule:evenodd;stroke:#000000;stroke-width:1.0px;stroke-linecap:butt;stroke-linejoin:miter;stroke-opacity:1"/>
<path class="bond-7 atom-5 atom-1" d="M 83.7,53.6 L 85.1,52.8" style="fill:none;fill-rule:evenodd;stroke:#000000;stroke-width:1.0px;stroke-linecap:butt;stroke-linejoin:miter;stroke-opacity:1"/>
<path class="bond-7 atom-5 atom-1" d="M 85.2,56.7 L 87.0,55.6" style="fill:none;fill-rule:evenodd;stroke:#000000;stroke-width:1.0px;stroke-linecap:butt;stroke-linejoin:miter;stroke-opacity:1"/>
<path class="bond-7 atom-5 atom-1" d="M 86.6,59.7 L 88.8,58.4" style="fill:none;fill-rule:evenodd;stroke:#000000;stroke-width:1.0px;stroke-linecap:butt;stroke-linejoin:miter;stroke-opacity:1"/>
<path class="bond-7 atom-5 atom-1" d="M 88.0,62.8 L 90.7,61.2" style="fill:none;fill-rule:evenodd;stroke:#000000;stroke-width:1.0px;stroke-linecap:butt;stroke-linejoin:miter;stroke-opacity:1"/>
<path class="bond-7 atom-5 atom-1" d="M 89.5,65.8 L 92.6,64.0" style="fill:none;fill-rule:evenodd;stroke:#000000;stroke-width:1.0px;stroke-linecap:butt;stroke-linejoin:miter;stroke-opacity:1"/>
<path class="bond-7 atom-5 atom-1" d="M 90.9,68.9 L 94.5,66.8" style="fill:none;fill-rule:evenodd;stroke:#000000;stroke-width:1.0px;stroke-linecap:butt;stroke-linejoin:miter;stroke-opacity:1"/>
<path class="bond-7 atom-5 atom-1" d="M 92.4,71.9 L 96.4,69.6" style="fill:none;fill-rule:evenodd;stroke:#000000;stroke-width:1.0px;stroke-linecap:butt;stroke-linejoin:miter;stroke-opacity:1"/>
<path class="bond-7 atom-5 atom-1" d="M 93.8,75.0 L 98.3,72.4" style="fill:none;fill-rule:evenodd;stroke:#000000;stroke-width:1.0px;stroke-linecap:butt;stroke-linejoin:miter;stroke-opacity:1"/>
<path class="bond-7 atom-5 atom-1" d="M 95.2,78.0 L 100.2,75.2" style="fill:none;fill-rule:evenodd;stroke:#000000;stroke-width:1.0px;stroke-linecap:butt;stroke-linejoin:miter;stroke-opacity:1"/>
<path class="bond-8 atom-6 atom-3" d="M 59.0,79.3 L 24.3,79.1" style="fill:none;fill-rule:evenodd;stroke:#E5E5E5;stroke-width:2.2px;stroke-linecap:butt;stroke-linejoin:miter;stroke-opacity:1"/>
<path d="M 77.2,44.4 L 79.4,44.5 L 78.4,46.2" style="fill:none;stroke:#000000;stroke-width:2.0px;stroke-linecap:butt;stroke-linejoin:miter;stroke-opacity:1;"/>
<path class="atom-0" d="M 137.6 78.5 L 139.3 76.8 L 137.1 76.4 L 137.4 75.2 L 139.5 76.2 L 139.2 74.0 L 140.4 74.0 L 140.1 76.2 L 142.1 75.3 L 142.5 76.4 L 140.2 76.8 L 141.9 78.5 L 140.9 79.2 L 139.8 77.1 L 138.6 79.2 L 137.6 78.5 " fill="#191919"/>
<path class="atom-2" d="M 76.8 113.2 L 78.5 111.4 L 76.3 111.0 L 76.6 109.8 L 78.7 110.9 L 78.4 108.6 L 79.6 108.6 L 79.3 110.9 L 81.3 109.9 L 81.7 111.0 L 79.4 111.4 L 81.1 113.1 L 80.1 113.9 L 78.9 111.7 L 77.8 113.9 L 76.8 113.2 " fill="#191919"/>
<path class="atom-3" d="M 8.0 77.8 L 9.7 76.1 L 7.5 75.7 L 7.8 74.5 L 9.9 75.5 L 9.6 73.3 L 10.8 73.3 L 10.5 75.5 L 12.6 74.6 L 12.9 75.7 L 10.7 76.1 L 12.3 77.8 L 11.3 78.5 L 10.2 76.4 L 9.0 78.5 L 8.0 77.8 " fill="#191919"/>
<path class="atom-3" d="M 14.1 73.5 L 15.7 73.5 L 15.7 78.3 L 21.5 78.3 L 21.5 73.5 L 23.1 73.5 L 23.1 84.9 L 21.5 84.9 L 21.5 79.6 L 15.7 79.6 L 15.7 84.9 L 14.1 84.9 L 14.1 73.5 " fill="#191919"/>
<path class="atom-7" d="M 58.7 107.4 L 60.4 105.7 L 58.2 105.3 L 58.5 104.1 L 60.6 105.2 L 60.3 102.9 L 61.5 102.9 L 61.1 105.2 L 63.2 104.2 L 63.6 105.3 L 61.3 105.7 L 62.9 107.4 L 62.0 108.1 L 60.8 106.0 L 59.7 108.1 L 58.7 107.4 " fill="#191919"/>
<path class="atom-8" d="M 81.2 94.7 L 82.8 93.0 L 80.6 92.5 L 80.9 91.4 L 83.0 92.4 L 82.7 90.1 L 83.9 90.1 L 83.6 92.4 L 85.7 91.4 L 86.0 92.5 L 83.8 92.9 L 85.4 94.7 L 84.4 95.4 L 83.3 93.2 L 82.1 95.4 L 81.2 94.7 " fill="#191919"/>
</svg>