<svg xmlns="http://www.w3.org/2000/svg" xmlns:rdkit="http://www.rdkit.org/xml" xmlns:xlink="http://www.w3.org/1999/xlink" version="1.1" baseProfile="full" xml:space="preserve" width="150px" height="150px" viewBox="0 0 150 150">
<!-- END OF HEADER -->
<rect style="opacity:1.0;fill:#FFFFFF;stroke:none" width="150.0" height="150.0" x="0.0" y="0.0"> </rect>
<ellipse cx="74.7" cy="76.7" rx="12.9" ry="12.9" class="atom-1" style="fill:#E5E533;fill-rule:evenodd;stroke:#E5E533;stroke-width:1.0px;stroke-linecap:butt;stroke-linejoin:miter;stroke-opacity:1"/>
<ellipse cx="33.9" cy="26.9" rx="12.9" ry="12.9" class="atom-3" style="fill:#9999E5;fill-rule:evenodd;stroke:#9999E5;stroke-width:1.0px;stroke-linecap:butt;stroke-linejoin:miter;stroke-opacity:1"/>
<path class="bond-0 atom-0 atom-1" d="M 51.8,123.8 L 71.1,72.4" style="fill:none;fill-rule:evenodd;stroke:#E5E5E5;stroke-width:3.4px;stroke-linecap:butt;stroke-linejoin:miter;stroke-opacity:1"/>
<path class="bond-0 atom-0 atom-1" d="M 60.8,127.2 L 80.2,75.8" style="fill:none;fill-rule:evenodd;stroke:#E5E5E5;stroke-width:3.4px;stroke-linecap:butt;stroke-linejoin:miter;stroke-opacity:1;stroke-dasharray:6,4"/>
<path class="bond-1 atom-1 atom-2" d="M 72.7,81.9 L 132.5,72.0" style="fill:none;fill-rule:evenodd;stroke:#E5E5E5;stroke-width:3.4px;stroke-linecap:butt;stroke-linejoin:miter;stroke-opacity:1"/>
<path class="bond-1 atom-1 atom-2" d="M 71.1,72.4 L 131.0,62.5" style="fill:none;fill-rule:evenodd;stroke:#E5E5E5;stroke-width:3.4px;stroke-linecap:butt;stroke-linejoin:miter;stroke-opacity:1;stroke-dasharray:6,4"/>
<path class="bond-2 atom-1 atom-3" d="M 74.7,76.7 L 59.0,57.6" style="fill:none;fill-rule:evenodd;stroke:#000000;stroke-width:2.0px;stroke-linecap:butt;stroke-linejoin:miter;stroke-opacity:1"/>
<path class="bond-2 atom-1 atom-3" d="M 59.0,57.6 L 43.4,38.5" style="fill:none;fill-rule:evenodd;stroke:#FF0000;stroke-width:2.0px;stroke-linecap:butt;stroke-linejoin:miter;stroke-opacity:1"/>
<path class="atom-0" d="M 48.5 134.9 L 51.2 132.1 L 47.7 131.4 L 48.2 129.6 L 51.5 131.2 L 51.0 127.7 L 52.9 127.6 L 52.4 131.2 L 55.7 129.7 L 56.3 131.4 L 52.7 132.1 L 55.3 134.8 L 53.7 136.0 L 51.9 132.6 L 50.1 136.0 L 48.5 134.9 " fill="#191919"/>
<path class="atom-2" d="M 134.8 64.2 L 137.4 61.5 L 133.9 60.7 L 134.4 58.9 L 137.7 60.6 L 137.2 57.0 L 139.2 57.0 L 138.6 60.5 L 141.9 59.0 L 142.5 60.7 L 138.9 61.4 L 141.5 64.2 L 139.9 65.3 L 138.1 61.9 L 136.3 65.3 L 134.8 64.2 " fill="#191919"/>
<path class="atom-3" d="M 7.5 17.9 L 10.0 17.9 L 10.0 25.6 L 19.3 25.6 L 19.3 17.9 L 21.8 17.9 L 21.8 36.1 L 19.3 36.1 L 19.3 27.7 L 10.0 27.7 L 10.0 36.1 L 7.5 36.1 L 7.5 17.9 " fill="#FF0000"/>
<path class="atom-3" d="M 25.5 26.9 Q 25.5 22.6, 27.7 20.1 Q 29.8 17.7, 33.9 17.7 Q 37.9 17.7, 40.1 20.1 Q 42.2 22.6, 42.2 26.9 Q 42.2 31.4, 40.0 33.9 Q 37.9 36.4, 33.9 36.4 Q 29.9 36.4, 27.7 33.9 Q 25.5 31.4, 25.5 26.9 M 33.9 34.3 Q 36.6 34.3, 38.1 32.5 Q 39.7 30.6, 39.7 26.9 Q 39.7 23.4, 38.1 21.6 Q 36.6 19.7, 33.9 19.7 Q 31.1 19.7, 29.6 21.5 Q 28.1 23.3, 28.1 26.9 Q 28.1 30.6, 29.6 32.5 Q 31.1 34.3, 33.9 34.3 " fill="#FF0000"/>
</svg>