<svg xmlns="http://www.w3.org/2000/svg" xmlns:rdkit="http://www.rdkit.org/xml" xmlns:xlink="http://www.w3.org/1999/xlink" version="1.1" baseProfile="full" xml:space="preserve" width="150px" height="150px" viewBox="0 0 150 150">
<!-- END OF HEADER -->
<rect style="opacity:1.0;fill:#FFFFFF;stroke:none" width="150.0" height="150.0" x="0.0" y="0.0"> </rect>
<ellipse cx="96.2" cy="78.7" rx="14.5" ry="14.5" class="atom-1" style="fill:#CCCCCC;fill-rule:evenodd;stroke:#CCCCCC;stroke-width:1.0px;stroke-linecap:butt;stroke-linejoin:miter;stroke-opacity:1"/>
<ellipse cx="23.7" cy="74.7" rx="14.5" ry="14.5" class="atom-2" style="fill:#9999E5;fill-rule:evenodd;stroke:#9999E5;stroke-width:1.0px;stroke-linecap:butt;stroke-linejoin:miter;stroke-opacity:1"/>
<path class="bond-0 atom-1 atom-0" d="M 96.2,78.7 L 126.1,125.8 L 116.4,130.8 Z" style="fill:#E5E5E5;fill-rule:evenodd;fill-opacity:1;stroke:#E5E5E5;stroke-width:0.5px;stroke-linecap:butt;stroke-linejoin:miter;stroke-opacity:1;"/>
<path class="bond-1 atom-1 atom-2" d="M 96.2,78.7 L 23.7,74.7" style="fill:none;fill-rule:evenodd;stroke:#000000;stroke-width:2.0px;stroke-linecap:butt;stroke-linejoin:miter;stroke-opacity:1"/>
<path class="bond-2 atom-1 atom-3" d="M 96.2,78.7 L 135.1,19.3" style="fill:none;fill-rule:evenodd;stroke:#E5E5E5;stroke-width:3.9px;stroke-linecap:butt;stroke-linejoin:miter;stroke-opacity:1"/>
<path d="M 94.4,78.6 L 96.2,78.7 L 97.2,77.2" style="fill:none;stroke:#000000;stroke-width:2.0px;stroke-linecap:butt;stroke-linejoin:miter;stroke-opacity:1;"/>
<path class="atom-0" d="M 125.1 141.3 L 128.1 138.2 L 124.1 137.4 L 124.7 135.3 L 128.4 137.2 L 127.8 133.1 L 130.0 133.1 L 129.4 137.1 L 133.2 135.4 L 133.8 137.4 L 129.7 138.1 L 132.6 141.2 L 130.9 142.5 L 128.9 138.7 L 126.8 142.5 L 125.1 141.3 " fill="#191919"/>
<path class="atom-3" d="M 132.1 15.7 L 135.1 12.6 L 131.1 11.8 L 131.7 9.7 L 135.4 11.6 L 134.9 7.5 L 137.1 7.5 L 136.5 11.5 L 140.2 9.8 L 140.8 11.8 L 136.8 12.5 L 139.7 15.6 L 137.9 16.9 L 135.9 13.1 L 133.9 16.9 L 132.1 15.7 " fill="#191919"/>
</svg>