<svg xmlns="http://www.w3.org/2000/svg" xmlns:rdkit="http://www.rdkit.org/xml" xmlns:xlink="http://www.w3.org/1999/xlink" version="1.1" baseProfile="full" xml:space="preserve" width="150px" height="150px" viewBox="0 0 150 150">
<!-- END OF HEADER -->
<rect style="opacity:1.0;fill:#FFFFFF;stroke:none" width="150.0" height="150.0" x="0.0" y="0.0"> </rect>
<ellipse cx="104.4" cy="98.5" rx="10.6" ry="10.6" class="atom-1" style="fill:#E5E533;fill-rule:evenodd;stroke:#E5E533;stroke-width:1.0px;stroke-linecap:butt;stroke-linejoin:miter;stroke-opacity:1"/>
<ellipse cx="52.6" cy="108.4" rx="10.6" ry="10.6" class="atom-2" style="fill:#9999E5;fill-rule:evenodd;stroke:#9999E5;stroke-width:1.0px;stroke-linecap:butt;stroke-linejoin:miter;stroke-opacity:1"/>
<ellipse cx="18.1" cy="68.6" rx="10.6" ry="10.6" class="atom-3" style="fill:#E5E533;fill-rule:evenodd;stroke:#E5E533;stroke-width:1.0px;stroke-linecap:butt;stroke-linejoin:miter;stroke-opacity:1"/>
<path class="bond-0 atom-0 atom-1" d="M 133.7,132.3 L 104.4,98.5" style="fill:none;fill-rule:evenodd;stroke:#E5E5E5;stroke-width:2.8px;stroke-linecap:butt;stroke-linejoin:miter;stroke-opacity:1"/>
<path class="bond-1 atom-1 atom-2" d="M 104.4,98.5 L 52.6,108.4" style="fill:none;fill-rule:evenodd;stroke:#000000;stroke-width:2.0px;stroke-linecap:butt;stroke-linejoin:miter;stroke-opacity:1"/>
<path class="bond-1 atom-1 atom-2" d="M 98.4,91.6 L 55.6,99.8" style="fill:none;fill-rule:evenodd;stroke:#000000;stroke-width:2.0px;stroke-linecap:butt;stroke-linejoin:miter;stroke-opacity:1;stroke-dasharray:6,4"/>
<path class="bond-2 atom-2 atom-3" d="M 52.6,108.4 L 18.1,68.6" style="fill:none;fill-rule:evenodd;stroke:#000000;stroke-width:2.0px;stroke-linecap:butt;stroke-linejoin:miter;stroke-opacity:1"/>
<path class="bond-2 atom-2 atom-3" d="M 55.6,99.8 L 27.0,66.8" style="fill:none;fill-rule:evenodd;stroke:#000000;stroke-width:2.0px;stroke-linecap:butt;stroke-linejoin:miter;stroke-opacity:1;stroke-dasharray:6,4"/>
<path class="bond-3 atom-3 atom-4" d="M 18.1,68.6 L 35.0,19.7" style="fill:none;fill-rule:evenodd;stroke:#E5E5E5;stroke-width:2.8px;stroke-linecap:butt;stroke-linejoin:miter;stroke-opacity:1"/>
<path class="bond-3 atom-3 atom-4" d="M 27.0,66.8 L 42.5,22.3" style="fill:none;fill-rule:evenodd;stroke:#E5E5E5;stroke-width:2.8px;stroke-linecap:butt;stroke-linejoin:miter;stroke-opacity:1;stroke-dasharray:6,4"/>
<path class="bond-4 atom-5 atom-1" d="M 125.1,50.9 L 107.4,101.9" style="fill:none;fill-rule:evenodd;stroke:#E5E5E5;stroke-width:2.8px;stroke-linecap:butt;stroke-linejoin:miter;stroke-opacity:1"/>
<path class="bond-4 atom-5 atom-1" d="M 117.6,48.3 L 99.9,99.3" style="fill:none;fill-rule:evenodd;stroke:#E5E5E5;stroke-width:2.8px;stroke-linecap:butt;stroke-linejoin:miter;stroke-opacity:1;stroke-dasharray:6,4"/>
<path d="M 55.2,108.0 L 52.6,108.4 L 50.9,106.5" style="fill:none;stroke:#000000;stroke-width:2.0px;stroke-linecap:butt;stroke-linejoin:miter;stroke-opacity:1;"/>
<path d="M 18.9,69.6 L 18.1,68.6 L 18.5,67.3" style="fill:none;stroke:#000000;stroke-width:2.0px;stroke-linecap:butt;stroke-linejoin:miter;stroke-opacity:1;"/>
<path class="atom-0" d="M 136.1 136.7 L 138.3 134.5 L 135.4 133.9 L 135.9 132.4 L 138.6 133.7 L 138.2 130.8 L 139.8 130.8 L 139.3 133.7 L 142.0 132.4 L 142.5 133.9 L 139.5 134.4 L 141.7 136.7 L 140.4 137.6 L 138.9 134.8 L 137.4 137.6 L 136.1 136.7 " fill="#191919"/>
<path class="atom-4" d="M 36.2 18.3 L 38.4 16.1 L 35.5 15.5 L 36.0 14.0 L 38.7 15.3 L 38.3 12.4 L 39.9 12.4 L 39.4 15.3 L 42.1 14.1 L 42.6 15.5 L 39.6 16.0 L 41.8 18.3 L 40.5 19.2 L 39.0 16.4 L 37.5 19.2 L 36.2 18.3 " fill="#191919"/>
<path class="atom-5" d="M 118.9 46.9 L 121.1 44.7 L 118.2 44.1 L 118.6 42.6 L 121.3 44.0 L 120.9 41.0 L 122.5 41.0 L 122.0 43.9 L 124.8 42.7 L 125.2 44.1 L 122.3 44.7 L 124.4 46.9 L 123.1 47.9 L 121.6 45.1 L 120.2 47.9 L 118.9 46.9 " fill="#191919"/>
</svg>