<svg xmlns="http://www.w3.org/2000/svg" xmlns:rdkit="http://www.rdkit.org/xml" xmlns:xlink="http://www.w3.org/1999/xlink" version="1.1" baseProfile="full" xml:space="preserve" width="150px" height="150px" viewBox="0 0 150 150">
<!-- END OF HEADER -->
<rect style="opacity:1.0;fill:#FFFFFF;stroke:none" width="150.0" height="150.0" x="0.0" y="0.0"> </rect>
<ellipse cx="96.2" cy="78.7" rx="14.5" ry="14.5" class="atom-1" style="fill:#CCCCCC;fill-rule:evenodd;stroke:#CCCCCC;stroke-width:1.0px;stroke-linecap:butt;stroke-linejoin:miter;stroke-opacity:1"/>
<ellipse cx="23.7" cy="74.7" rx="14.5" ry="14.5" class="atom-2" style="fill:#9999E5;fill-rule:evenodd;stroke:#9999E5;stroke-width:1.0px;stroke-linecap:butt;stroke-linejoin:miter;stroke-opacity:1"/>
<path class="bond-0 atom-1 atom-0" d="M 98.1,81.7 L 97.5,82.0" style="fill:none;fill-rule:evenodd;stroke:#E5E5E5;stroke-width:1.0px;stroke-linecap:butt;stroke-linejoin:miter;stroke-opacity:1"/>
<path class="bond-0 atom-1 atom-0" d="M 99.9,84.6 L 98.7,85.2" style="fill:none;fill-rule:evenodd;stroke:#E5E5E5;stroke-width:1.0px;stroke-linecap:butt;stroke-linejoin:miter;stroke-opacity:1"/>
<path class="bond-0 atom-1 atom-0" d="M 101.8,87.6 L 100.0,88.5" style="fill:none;fill-rule:evenodd;stroke:#E5E5E5;stroke-width:1.0px;stroke-linecap:butt;stroke-linejoin:miter;stroke-opacity:1"/>
<path class="bond-0 atom-1 atom-0" d="M 103.7,90.5 L 101.2,91.7" style="fill:none;fill-rule:evenodd;stroke:#E5E5E5;stroke-width:1.0px;stroke-linecap:butt;stroke-linejoin:miter;stroke-opacity:1"/>
<path class="bond-0 atom-1 atom-0" d="M 105.5,93.4 L 102.5,95.0" style="fill:none;fill-rule:evenodd;stroke:#E5E5E5;stroke-width:1.0px;stroke-linecap:butt;stroke-linejoin:miter;stroke-opacity:1"/>
<path class="bond-0 atom-1 atom-0" d="M 107.4,96.4 L 103.8,98.2" style="fill:none;fill-rule:evenodd;stroke:#E5E5E5;stroke-width:1.0px;stroke-linecap:butt;stroke-linejoin:miter;stroke-opacity:1"/>
<path class="bond-0 atom-1 atom-0" d="M 109.3,99.3 L 105.0,101.5" style="fill:none;fill-rule:evenodd;stroke:#E5E5E5;stroke-width:1.0px;stroke-linecap:butt;stroke-linejoin:miter;stroke-opacity:1"/>
<path class="bond-0 atom-1 atom-0" d="M 111.1,102.3 L 106.3,104.7" style="fill:none;fill-rule:evenodd;stroke:#E5E5E5;stroke-width:1.0px;stroke-linecap:butt;stroke-linejoin:miter;stroke-opacity:1"/>
<path class="bond-0 atom-1 atom-0" d="M 113.0,105.2 L 107.5,108.0" style="fill:none;fill-rule:evenodd;stroke:#E5E5E5;stroke-width:1.0px;stroke-linecap:butt;stroke-linejoin:miter;stroke-opacity:1"/>
<path class="bond-0 atom-1 atom-0" d="M 114.9,108.2 L 108.8,111.2" style="fill:none;fill-rule:evenodd;stroke:#E5E5E5;stroke-width:1.0px;stroke-linecap:butt;stroke-linejoin:miter;stroke-opacity:1"/>
<path class="bond-0 atom-1 atom-0" d="M 116.7,111.1 L 110.1,114.5" style="fill:none;fill-rule:evenodd;stroke:#E5E5E5;stroke-width:1.0px;stroke-linecap:butt;stroke-linejoin:miter;stroke-opacity:1"/>
<path class="bond-0 atom-1 atom-0" d="M 118.6,114.1 L 111.3,117.7" style="fill:none;fill-rule:evenodd;stroke:#E5E5E5;stroke-width:1.0px;stroke-linecap:butt;stroke-linejoin:miter;stroke-opacity:1"/>
<path class="bond-0 atom-1 atom-0" d="M 120.5,117.0 L 112.6,121.0" style="fill:none;fill-rule:evenodd;stroke:#E5E5E5;stroke-width:1.0px;stroke-linecap:butt;stroke-linejoin:miter;stroke-opacity:1"/>
<path class="bond-0 atom-1 atom-0" d="M 122.4,119.9 L 113.8,124.2" style="fill:none;fill-rule:evenodd;stroke:#E5E5E5;stroke-width:1.0px;stroke-linecap:butt;stroke-linejoin:miter;stroke-opacity:1"/>
<path class="bond-0 atom-1 atom-0" d="M 124.2,122.9 L 115.1,127.5" style="fill:none;fill-rule:evenodd;stroke:#E5E5E5;stroke-width:1.0px;stroke-linecap:butt;stroke-linejoin:miter;stroke-opacity:1"/>
<path class="bond-0 atom-1 atom-0" d="M 126.1,125.8 L 116.4,130.8" style="fill:none;fill-rule:evenodd;stroke:#E5E5E5;stroke-width:1.0px;stroke-linecap:butt;stroke-linejoin:miter;stroke-opacity:1"/>
<path class="bond-1 atom-1 atom-2" d="M 96.2,78.7 L 23.7,74.7" style="fill:none;fill-rule:evenodd;stroke:#000000;stroke-width:2.0px;stroke-linecap:butt;stroke-linejoin:miter;stroke-opacity:1"/>
<path class="bond-2 atom-1 atom-3" d="M 96.2,78.7 L 135.1,19.3" style="fill:none;fill-rule:evenodd;stroke:#E5E5E5;stroke-width:3.9px;stroke-linecap:butt;stroke-linejoin:miter;stroke-opacity:1"/>
<path d="M 94.4,78.6 L 96.2,78.7 L 97.2,77.2" style="fill:none;stroke:#000000;stroke-width:2.0px;stroke-linecap:butt;stroke-linejoin:miter;stroke-opacity:1;"/>
<path class="atom-0" d="M 125.1 141.3 L 128.1 138.2 L 124.1 137.4 L 124.7 135.3 L 128.4 137.2 L 127.8 133.1 L 130.0 133.1 L 129.4 137.1 L 133.2 135.4 L 133.8 137.4 L 129.7 138.1 L 132.6 141.2 L 130.9 142.5 L 128.9 138.7 L 126.8 142.5 L 125.1 141.3 " fill="#191919"/>
<path class="atom-3" d="M 132.1 15.7 L 135.1 12.6 L 131.1 11.8 L 131.7 9.7 L 135.4 11.6 L 134.9 7.5 L 137.1 7.5 L 136.5 11.5 L 140.2 9.8 L 140.8 11.8 L 136.8 12.5 L 139.7 15.6 L 137.9 16.9 L 135.9 13.1 L 133.9 16.9 L 132.1 15.7 " fill="#191919"/>
</svg>