<svg xmlns="http://www.w3.org/2000/svg" xmlns:rdkit="http://www.rdkit.org/xml" xmlns:xlink="http://www.w3.org/1999/xlink" version="1.1" baseProfile="full" xml:space="preserve" width="150px" height="150px" viewBox="0 0 150 150">
<!-- END OF HEADER -->
<rect style="opacity:1.0;fill:#FFFFFF;stroke:none" width="150.0" height="150.0" x="0.0" y="0.0"> </rect>
<ellipse cx="92.9" cy="75.1" rx="8.3" ry="8.3" class="atom-1" style="fill:#9999E5;fill-rule:evenodd;stroke:#9999E5;stroke-width:1.0px;stroke-linecap:butt;stroke-linejoin:miter;stroke-opacity:1"/>
<ellipse cx="134.2" cy="74.9" rx="8.3" ry="8.3" class="atom-3" style="fill:#CCCCCC;fill-rule:evenodd;stroke:#CCCCCC;stroke-width:1.0px;stroke-linecap:butt;stroke-linejoin:miter;stroke-opacity:1"/>
<ellipse cx="113.4" cy="39.2" rx="8.3" ry="8.3" class="atom-4" style="fill:#CCCCCC;fill-rule:evenodd;stroke:#CCCCCC;stroke-width:1.0px;stroke-linecap:butt;stroke-linejoin:miter;stroke-opacity:1"/>
<ellipse cx="72.0" cy="39.5" rx="8.3" ry="8.3" class="atom-5" style="fill:#CCCCCC;fill-rule:evenodd;stroke:#CCCCCC;stroke-width:1.0px;stroke-linecap:butt;stroke-linejoin:miter;stroke-opacity:1"/>
<ellipse cx="51.6" cy="75.4" rx="8.3" ry="8.3" class="atom-6" style="fill:#CCCCCC;fill-rule:evenodd;stroke:#CCCCCC;stroke-width:1.0px;stroke-linecap:butt;stroke-linejoin:miter;stroke-opacity:1"/>
<ellipse cx="113.8" cy="110.8" rx="8.3" ry="8.3" class="atom-9" style="fill:#CCCCCC;fill-rule:evenodd;stroke:#CCCCCC;stroke-width:1.0px;stroke-linecap:butt;stroke-linejoin:miter;stroke-opacity:1"/>
<path class="bond-0 atom-0 atom-1" d="M 68.0,92.1 L 92.9,75.1" style="fill:none;fill-rule:evenodd;stroke:#000000;stroke-width:2.0px;stroke-linecap:butt;stroke-linejoin:miter;stroke-opacity:1"/>
<path class="bond-1 atom-1 atom-2" d="M 92.9,75.1 L 91.0,105.2" style="fill:none;fill-rule:evenodd;stroke:#000000;stroke-width:2.0px;stroke-linecap:butt;stroke-linejoin:miter;stroke-opacity:1"/>
<path class="bond-2 atom-1 atom-3" d="M 92.9,75.1 L 134.2,74.9" style="fill:none;fill-rule:evenodd;stroke:#000000;stroke-width:2.0px;stroke-linecap:butt;stroke-linejoin:miter;stroke-opacity:1"/>
<path class="bond-3 atom-3 atom-4" d="M 134.2,74.9 L 113.4,39.2" style="fill:none;fill-rule:evenodd;stroke:#000000;stroke-width:2.0px;stroke-linecap:butt;stroke-linejoin:miter;stroke-opacity:1"/>
<path class="bond-4 atom-4 atom-5" d="M 113.4,39.2 L 72.0,39.5" style="fill:none;fill-rule:evenodd;stroke:#000000;stroke-width:2.0px;stroke-linecap:butt;stroke-linejoin:miter;stroke-opacity:1"/>
<path class="bond-5 atom-5 atom-6" d="M 72.0,39.5 L 51.6,75.4" style="fill:none;fill-rule:evenodd;stroke:#000000;stroke-width:2.0px;stroke-linecap:butt;stroke-linejoin:miter;stroke-opacity:1"/>
<path class="bond-6 atom-6 atom-7" d="M 53.3,72.4 L 14.3,72.6" style="fill:none;fill-rule:evenodd;stroke:#E5E5E5;stroke-width:2.2px;stroke-linecap:butt;stroke-linejoin:miter;stroke-opacity:1"/>
<path class="bond-6 atom-6 atom-7" d="M 53.3,78.3 L 14.4,78.5" style="fill:none;fill-rule:evenodd;stroke:#E5E5E5;stroke-width:2.2px;stroke-linecap:butt;stroke-linejoin:miter;stroke-opacity:1"/>
<path class="bond-7 atom-6 atom-8" d="M 51.6,75.4 L 68.4,104.1" style="fill:none;fill-rule:evenodd;stroke:#E5E5E5;stroke-width:2.2px;stroke-linecap:butt;stroke-linejoin:miter;stroke-opacity:1"/>
<path class="bond-8 atom-8 atom-9" d="M 76.5,111.0 L 113.8,110.8" style="fill:none;fill-rule:evenodd;stroke:#E5E5E5;stroke-width:2.2px;stroke-linecap:butt;stroke-linejoin:miter;stroke-opacity:1"/>
<path class="bond-9 atom-5 atom-1" d="M 72.0,39.5 L 92.9,75.1" style="fill:none;fill-rule:evenodd;stroke:#000000;stroke-width:2.0px;stroke-linecap:butt;stroke-linejoin:miter;stroke-opacity:1"/>
<path class="bond-10 atom-9 atom-3" d="M 113.8,110.8 L 134.2,74.9" style="fill:none;fill-rule:evenodd;stroke:#000000;stroke-width:2.0px;stroke-linecap:butt;stroke-linejoin:miter;stroke-opacity:1"/>
<path d="M 114.4,41.0 L 113.4,39.2 L 111.3,39.2" style="fill:none;stroke:#000000;stroke-width:2.0px;stroke-linecap:butt;stroke-linejoin:miter;stroke-opacity:1;"/>
<path d="M 52.1,74.5 L 51.6,75.4 L 52.0,76.1" style="fill:none;stroke:#000000;stroke-width:2.0px;stroke-linecap:butt;stroke-linejoin:miter;stroke-opacity:1;"/>
<path d="M 112.9,110.8 L 113.8,110.8 L 114.3,109.9" style="fill:none;stroke:#E5E5E5;stroke-width:2.2px;stroke-linecap:butt;stroke-linejoin:miter;stroke-opacity:1;"/>
<path class="atom-7" d="M 8.1 74.3 L 9.8 72.5 L 7.5 72.1 L 7.8 70.9 L 9.9 72.0 L 9.6 69.7 L 10.9 69.6 L 10.5 71.9 L 12.7 71.0 L 13.0 72.1 L 10.7 72.5 L 12.4 74.3 L 11.4 75.0 L 10.2 72.8 L 9.1 75.0 L 8.1 74.3 " fill="#191919"/>
<path class="atom-8" d="M 70.3 109.7 L 72.0 108.0 L 69.7 107.5 L 70.0 106.3 L 72.1 107.4 L 71.8 105.1 L 73.1 105.1 L 72.7 107.4 L 74.9 106.4 L 75.2 107.5 L 72.9 107.9 L 74.6 109.7 L 73.6 110.4 L 72.4 108.2 L 71.3 110.4 L 70.3 109.7 " fill="#191919"/>
</svg>