<svg xmlns="http://www.w3.org/2000/svg" xmlns:rdkit="http://www.rdkit.org/xml" xmlns:xlink="http://www.w3.org/1999/xlink" version="1.1" baseProfile="full" xml:space="preserve" width="150px" height="150px" viewBox="0 0 150 150">
<!-- END OF HEADER -->
<rect style="opacity:1.0;fill:#FFFFFF;stroke:none" width="150.0" height="150.0" x="0.0" y="0.0"> </rect>
<ellipse cx="117.8" cy="97.1" rx="8.6" ry="8.6" class="atom-1" style="fill:#E5E533;fill-rule:evenodd;stroke:#E5E533;stroke-width:1.0px;stroke-linecap:butt;stroke-linejoin:miter;stroke-opacity:1"/>
<ellipse cx="74.7" cy="96.8" rx="8.6" ry="8.6" class="atom-2" style="fill:#9999E5;fill-rule:evenodd;stroke:#9999E5;stroke-width:1.0px;stroke-linecap:butt;stroke-linejoin:miter;stroke-opacity:1"/>
<ellipse cx="53.5" cy="59.4" rx="8.6" ry="8.6" class="atom-3" style="fill:#E5E533;fill-rule:evenodd;stroke:#E5E533;stroke-width:1.0px;stroke-linecap:butt;stroke-linejoin:miter;stroke-opacity:1"/>
<path class="bond-0 atom-0 atom-1" d="M 141.9,62.4 L 119.7,100.4" style="fill:none;fill-rule:evenodd;stroke:#E5E5E5;stroke-width:2.3px;stroke-linecap:butt;stroke-linejoin:miter;stroke-opacity:1"/>
<path class="bond-0 atom-0 atom-1" d="M 136.4,59.1 L 114.1,97.1" style="fill:none;fill-rule:evenodd;stroke:#E5E5E5;stroke-width:2.3px;stroke-linecap:butt;stroke-linejoin:miter;stroke-opacity:1;stroke-dasharray:6,4"/>
<path class="bond-1 atom-1 atom-2" d="M 117.8,97.1 L 74.7,96.8" style="fill:none;fill-rule:evenodd;stroke:#000000;stroke-width:2.0px;stroke-linecap:butt;stroke-linejoin:miter;stroke-opacity:1"/>
<path class="bond-1 atom-1 atom-2" d="M 114.1,90.7 L 78.5,90.4" style="fill:none;fill-rule:evenodd;stroke:#000000;stroke-width:2.0px;stroke-linecap:butt;stroke-linejoin:miter;stroke-opacity:1;stroke-dasharray:6,4"/>
<path class="bond-2 atom-2 atom-3" d="M 74.7,96.8 L 53.5,59.4" style="fill:none;fill-rule:evenodd;stroke:#000000;stroke-width:2.0px;stroke-linecap:butt;stroke-linejoin:miter;stroke-opacity:1"/>
<path class="bond-2 atom-2 atom-3" d="M 78.5,90.4 L 60.9,59.4" style="fill:none;fill-rule:evenodd;stroke:#000000;stroke-width:2.0px;stroke-linecap:butt;stroke-linejoin:miter;stroke-opacity:1;stroke-dasharray:6,4"/>
<path class="bond-3 atom-3 atom-4" d="M 55.3,62.6 L 77.6,24.7" style="fill:none;fill-rule:evenodd;stroke:#E5E5E5;stroke-width:2.3px;stroke-linecap:butt;stroke-linejoin:miter;stroke-opacity:1"/>
<path class="bond-3 atom-3 atom-4" d="M 49.7,59.4 L 72.0,21.4" style="fill:none;fill-rule:evenodd;stroke:#E5E5E5;stroke-width:2.3px;stroke-linecap:butt;stroke-linejoin:miter;stroke-opacity:1;stroke-dasharray:6,4"/>
<path class="bond-4 atom-3 atom-5" d="M 53.5,59.4 L 14.7,59.1" style="fill:none;fill-rule:evenodd;stroke:#E5E5E5;stroke-width:2.3px;stroke-linecap:butt;stroke-linejoin:miter;stroke-opacity:1"/>
<path class="bond-5 atom-1 atom-6" d="M 117.8,97.1 L 134.8,127.0" style="fill:none;fill-rule:evenodd;stroke:#E5E5E5;stroke-width:2.3px;stroke-linecap:butt;stroke-linejoin:miter;stroke-opacity:1"/>
<path d="M 76.9,96.9 L 74.7,96.8 L 73.7,95.0" style="fill:none;stroke:#000000;stroke-width:2.0px;stroke-linecap:butt;stroke-linejoin:miter;stroke-opacity:1;"/>
<path class="atom-0" d="M 137.3 58.6 L 139.1 56.8 L 136.7 56.3 L 137.1 55.1 L 139.3 56.2 L 139.0 53.8 L 140.3 53.8 L 139.9 56.2 L 142.1 55.1 L 142.5 56.3 L 140.1 56.8 L 141.8 58.6 L 140.8 59.4 L 139.6 57.1 L 138.4 59.4 L 137.3 58.6 " fill="#191919"/>
<path class="atom-4" d="M 73.0 20.9 L 74.7 19.0 L 72.4 18.6 L 72.7 17.3 L 74.9 18.4 L 74.6 16.0 L 75.9 16.0 L 75.5 18.4 L 77.8 17.4 L 78.1 18.6 L 75.7 19.0 L 77.5 20.9 L 76.4 21.6 L 75.2 19.3 L 74.0 21.6 L 73.0 20.9 " fill="#191919"/>
<path class="atom-5" d="M 8.1 57.7 L 9.9 55.9 L 7.5 55.4 L 7.9 54.2 L 10.1 55.3 L 9.7 52.9 L 11.0 52.9 L 10.7 55.3 L 12.9 54.3 L 13.3 55.4 L 10.9 55.9 L 12.6 57.7 L 11.5 58.5 L 10.3 56.2 L 9.1 58.5 L 8.1 57.7 " fill="#191919"/>
<path class="atom-6" d="M 136.8 133.2 L 138.6 131.4 L 136.2 130.9 L 136.6 129.7 L 138.8 130.8 L 138.5 128.4 L 139.7 128.4 L 139.4 130.8 L 141.6 129.7 L 142.0 130.9 L 139.6 131.4 L 141.3 133.2 L 140.2 134.0 L 139.1 131.7 L 137.9 134.0 L 136.8 133.2 " fill="#191919"/>
</svg>