<svg xmlns="http://www.w3.org/2000/svg" xmlns:rdkit="http://www.rdkit.org/xml" xmlns:xlink="http://www.w3.org/1999/xlink" version="1.1" baseProfile="full" xml:space="preserve" width="150px" height="150px" viewBox="0 0 150 150">
<!-- END OF HEADER -->
<rect style="opacity:1.0;fill:#FFFFFF;stroke:none" width="150.0" height="150.0" x="0.0" y="0.0"> </rect>
<ellipse cx="66.4" cy="86.2" rx="14.1" ry="14.1" class="atom-1" style="fill:#CCCCCC;fill-rule:evenodd;stroke:#CCCCCC;stroke-width:1.0px;stroke-linecap:butt;stroke-linejoin:miter;stroke-opacity:1"/>
<ellipse cx="37.5" cy="21.6" rx="14.1" ry="14.1" class="atom-3" style="fill:#9999E5;fill-rule:evenodd;stroke:#9999E5;stroke-width:1.0px;stroke-linecap:butt;stroke-linejoin:miter;stroke-opacity:1"/>
<path class="bond-0 atom-0 atom-1" d="M 27.7,130.6 L 63.9,80.6" style="fill:none;fill-rule:evenodd;stroke:#E5E5E5;stroke-width:3.8px;stroke-linecap:butt;stroke-linejoin:miter;stroke-opacity:1"/>
<path class="bond-0 atom-0 atom-1" d="M 36.3,136.8 L 72.5,86.8" style="fill:none;fill-rule:evenodd;stroke:#E5E5E5;stroke-width:3.8px;stroke-linecap:butt;stroke-linejoin:miter;stroke-opacity:1"/>
<path class="bond-1 atom-1 atom-2" d="M 66.4,86.2 L 129.7,92.7" style="fill:none;fill-rule:evenodd;stroke:#E5E5E5;stroke-width:3.8px;stroke-linecap:butt;stroke-linejoin:miter;stroke-opacity:1"/>
<path class="bond-2 atom-1 atom-3" d="M 66.4,86.2 L 54.8,60.3" style="fill:none;fill-rule:evenodd;stroke:#000000;stroke-width:2.0px;stroke-linecap:butt;stroke-linejoin:miter;stroke-opacity:1"/>
<path class="bond-2 atom-1 atom-3" d="M 54.8,60.3 L 43.2,34.4" style="fill:none;fill-rule:evenodd;stroke:#FF0000;stroke-width:2.0px;stroke-linecap:butt;stroke-linejoin:miter;stroke-opacity:1"/>
<path d="M 68.0,86.4 L 66.4,86.2 L 66.1,85.5" style="fill:none;stroke:#E5E5E5;stroke-width:3.8px;stroke-linecap:butt;stroke-linejoin:miter;stroke-opacity:1;"/>
<path class="atom-0" d="M 21.2 141.3 L 24.1 138.3 L 20.2 137.5 L 20.8 135.5 L 24.4 137.3 L 23.9 133.4 L 26.0 133.3 L 25.4 137.3 L 29.1 135.6 L 29.7 137.5 L 25.7 138.2 L 28.6 141.3 L 26.8 142.5 L 24.9 138.8 L 22.9 142.5 L 21.2 141.3 " fill="#191919"/>
<path class="atom-2" d="M 133.0 91.2 L 135.9 88.2 L 132.0 87.4 L 132.6 85.4 L 136.2 87.2 L 135.7 83.3 L 137.8 83.2 L 137.2 87.2 L 140.9 85.5 L 141.5 87.4 L 137.5 88.1 L 140.4 91.2 L 138.6 92.4 L 136.7 88.7 L 134.7 92.4 L 133.0 91.2 " fill="#191919"/>
<path class="atom-3" d="M 8.5 11.7 L 11.2 11.7 L 11.2 20.3 L 21.5 20.3 L 21.5 11.7 L 24.2 11.7 L 24.2 31.8 L 21.5 31.8 L 21.5 22.5 L 11.2 22.5 L 11.2 31.8 L 8.5 31.8 L 8.5 11.7 " fill="#FF0000"/>
<path class="atom-3" d="M 28.3 21.7 Q 28.3 16.9, 30.7 14.2 Q 33.0 11.5, 37.5 11.5 Q 41.9 11.5, 44.3 14.2 Q 46.7 16.9, 46.7 21.7 Q 46.7 26.6, 44.3 29.3 Q 41.9 32.1, 37.5 32.1 Q 33.1 32.1, 30.7 29.3 Q 28.3 26.6, 28.3 21.7 M 37.5 29.8 Q 40.5 29.8, 42.2 27.8 Q 43.8 25.7, 43.8 21.7 Q 43.8 17.8, 42.2 15.8 Q 40.5 13.8, 37.5 13.8 Q 34.4 13.8, 32.7 15.8 Q 31.1 17.7, 31.1 21.7 Q 31.1 25.7, 32.7 27.8 Q 34.4 29.8, 37.5 29.8 " fill="#FF0000"/>
</svg>