<svg xmlns="http://www.w3.org/2000/svg" xmlns:rdkit="http://www.rdkit.org/xml" xmlns:xlink="http://www.w3.org/1999/xlink" version="1.1" baseProfile="full" xml:space="preserve" width="150px" height="150px" viewBox="0 0 150 150">
<!-- END OF HEADER -->
<rect style="opacity:1.0;fill:#FFFFFF;stroke:none" width="150.0" height="150.0" x="0.0" y="0.0"> </rect>
<ellipse cx="26.9" cy="27.0" rx="8.9" ry="8.9" class="atom-1" style="fill:#E5E533;fill-rule:evenodd;stroke:#E5E533;stroke-width:1.0px;stroke-linecap:butt;stroke-linejoin:miter;stroke-opacity:1"/>
<ellipse cx="70.9" cy="20.6" rx="8.9" ry="8.9" class="atom-2" style="fill:#E5E533;fill-rule:evenodd;stroke:#E5E533;stroke-width:1.0px;stroke-linecap:butt;stroke-linejoin:miter;stroke-opacity:1"/>
<ellipse cx="98.5" cy="55.5" rx="8.9" ry="8.9" class="atom-3" style="fill:#9999E5;fill-rule:evenodd;stroke:#9999E5;stroke-width:1.0px;stroke-linecap:butt;stroke-linejoin:miter;stroke-opacity:1"/>
<ellipse cx="82.1" cy="96.8" rx="8.9" ry="8.9" class="atom-5" style="fill:#E5E533;fill-rule:evenodd;stroke:#E5E533;stroke-width:1.0px;stroke-linecap:butt;stroke-linejoin:miter;stroke-opacity:1"/>
<ellipse cx="38.1" cy="103.3" rx="8.9" ry="8.9" class="atom-7" style="fill:#E5E533;fill-rule:evenodd;stroke:#E5E533;stroke-width:1.0px;stroke-linecap:butt;stroke-linejoin:miter;stroke-opacity:1"/>
<path class="bond-0 atom-0 atom-1" d="M 13.6,60.5 L 26.9,27.0" style="fill:none;fill-rule:evenodd;stroke:#E5E5E5;stroke-width:2.4px;stroke-linecap:butt;stroke-linejoin:miter;stroke-opacity:1"/>
<path class="bond-0 atom-0 atom-1" d="M 19.8,63.0 L 31.7,33.1" style="fill:none;fill-rule:evenodd;stroke:#E5E5E5;stroke-width:2.4px;stroke-linecap:butt;stroke-linejoin:miter;stroke-opacity:1"/>
<path class="bond-1 atom-1 atom-2" d="M 26.9,27.0 L 70.9,20.6" style="fill:none;fill-rule:evenodd;stroke:#000000;stroke-width:2.0px;stroke-linecap:butt;stroke-linejoin:miter;stroke-opacity:1"/>
<path class="bond-2 atom-2 atom-3" d="M 70.9,20.6 L 98.5,55.5" style="fill:none;fill-rule:evenodd;stroke:#000000;stroke-width:2.0px;stroke-linecap:butt;stroke-linejoin:miter;stroke-opacity:1"/>
<path class="bond-2 atom-2 atom-3" d="M 68.1,27.8 L 90.9,56.6" style="fill:none;fill-rule:evenodd;stroke:#000000;stroke-width:2.0px;stroke-linecap:butt;stroke-linejoin:miter;stroke-opacity:1"/>
<path class="bond-3 atom-3 atom-4" d="M 98.5,55.5 L 142.5,49.1" style="fill:none;fill-rule:evenodd;stroke:#000000;stroke-width:2.0px;stroke-linecap:butt;stroke-linejoin:miter;stroke-opacity:1"/>
<path class="bond-4 atom-3 atom-5" d="M 98.5,55.5 L 82.1,96.8" style="fill:none;fill-rule:evenodd;stroke:#000000;stroke-width:2.0px;stroke-linecap:butt;stroke-linejoin:miter;stroke-opacity:1"/>
<path class="bond-5 atom-5 atom-6" d="M 82.1,96.8 L 92.7,110.4" style="fill:none;fill-rule:evenodd;stroke:#000000;stroke-width:2.0px;stroke-linecap:butt;stroke-linejoin:miter;stroke-opacity:1"/>
<path class="bond-5 atom-5 atom-6" d="M 92.7,110.4 L 103.4,123.9" style="fill:none;fill-rule:evenodd;stroke:#FF0000;stroke-width:2.0px;stroke-linecap:butt;stroke-linejoin:miter;stroke-opacity:1"/>
<path class="bond-6 atom-5 atom-7" d="M 82.1,96.8 L 38.1,103.3" style="fill:none;fill-rule:evenodd;stroke:#000000;stroke-width:2.0px;stroke-linecap:butt;stroke-linejoin:miter;stroke-opacity:1"/>
<path class="bond-6 atom-5 atom-7" d="M 77.3,90.8 L 40.9,96.1" style="fill:none;fill-rule:evenodd;stroke:#000000;stroke-width:2.0px;stroke-linecap:butt;stroke-linejoin:miter;stroke-opacity:1"/>
<path class="bond-7 atom-7 atom-0" d="M 38.1,103.3 L 11.1,69.2" style="fill:none;fill-rule:evenodd;stroke:#E5E5E5;stroke-width:2.4px;stroke-linecap:butt;stroke-linejoin:miter;stroke-opacity:1"/>
<path d="M 26.6,27.9 L 26.9,27.0 L 28.0,26.9" style="fill:none;stroke:#E5E5E5;stroke-width:2.4px;stroke-linecap:butt;stroke-linejoin:miter;stroke-opacity:1;"/>
<path d="M 68.7,20.9 L 70.9,20.6 L 72.3,22.4" style="fill:none;stroke:#000000;stroke-width:2.0px;stroke-linecap:butt;stroke-linejoin:miter;stroke-opacity:1;"/>
<path d="M 39.2,103.1 L 38.1,103.3 L 37.4,102.4" style="fill:none;stroke:#000000;stroke-width:2.0px;stroke-linecap:butt;stroke-linejoin:miter;stroke-opacity:1;"/>
<path class="atom-0" d="M 8.1 67.0 L 10.0 65.1 L 7.5 64.6 L 7.9 63.3 L 10.1 64.4 L 9.8 62.0 L 11.1 62.0 L 10.8 64.4 L 13.1 63.4 L 13.5 64.6 L 11.0 65.0 L 12.7 66.9 L 11.7 67.7 L 10.4 65.4 L 9.2 67.7 L 8.1 67.0 " fill="#191919"/>
<path class="atom-6" d="M 103.8 131.8 Q 103.8 128.7, 105.3 127.0 Q 106.8 125.4, 109.6 125.4 Q 112.4 125.4, 113.9 127.0 Q 115.4 128.7, 115.4 131.8 Q 115.4 134.8, 113.9 136.6 Q 112.4 138.3, 109.6 138.3 Q 106.9 138.3, 105.3 136.6 Q 103.8 134.8, 103.8 131.8 M 109.6 136.9 Q 111.6 136.9, 112.6 135.6 Q 113.6 134.3, 113.6 131.8 Q 113.6 129.3, 112.6 128.0 Q 111.6 126.8, 109.6 126.8 Q 107.7 126.8, 106.7 128.0 Q 105.6 129.3, 105.6 131.8 Q 105.6 134.3, 106.7 135.6 Q 107.7 136.9, 109.6 136.9 " fill="#FF0000"/>
<path class="atom-6" d="M 117.4 125.5 L 119.1 125.5 L 119.1 130.9 L 125.5 130.9 L 125.5 125.5 L 127.2 125.5 L 127.2 138.1 L 125.5 138.1 L 125.5 132.3 L 119.1 132.3 L 119.1 138.1 L 117.4 138.1 L 117.4 125.5 " fill="#FF0000"/>
</svg>