<svg xmlns="http://www.w3.org/2000/svg" xmlns:rdkit="http://www.rdkit.org/xml" xmlns:xlink="http://www.w3.org/1999/xlink" version="1.1" baseProfile="full" xml:space="preserve" width="150px" height="150px" viewBox="0 0 150 150">
<!-- END OF HEADER -->
<rect style="opacity:1.0;fill:#FFFFFF;stroke:none" width="150.0" height="150.0" x="0.0" y="0.0"> </rect>
<ellipse cx="94.3" cy="110.5" rx="10.4" ry="10.4" class="atom-1" style="fill:#CCCCCC;fill-rule:evenodd;stroke:#CCCCCC;stroke-width:1.0px;stroke-linecap:butt;stroke-linejoin:miter;stroke-opacity:1"/>
<ellipse cx="87.1" cy="59.0" rx="10.4" ry="10.4" class="atom-2" style="fill:#CCCCCC;fill-rule:evenodd;stroke:#CCCCCC;stroke-width:1.0px;stroke-linecap:butt;stroke-linejoin:miter;stroke-opacity:1"/>
<ellipse cx="46.1" cy="91.0" rx="10.4" ry="10.4" class="atom-4" style="fill:#9999E5;fill-rule:evenodd;stroke:#9999E5;stroke-width:1.0px;stroke-linecap:butt;stroke-linejoin:miter;stroke-opacity:1"/>
<path class="bond-0 atom-0 atom-1" d="M 133.8,133.9 L 94.3,110.5" style="fill:none;fill-rule:evenodd;stroke:#E5E5E5;stroke-width:2.8px;stroke-linecap:butt;stroke-linejoin:miter;stroke-opacity:1"/>
<path class="bond-1 atom-1 atom-2" d="M 94.3,110.5 L 87.1,59.0" style="fill:none;fill-rule:evenodd;stroke:#E5E5E5;stroke-width:2.8px;stroke-linecap:butt;stroke-linejoin:miter;stroke-opacity:1"/>
<path class="bond-2 atom-2 atom-3" d="M 87.1,59.0 L 121.9,22.2" style="fill:none;fill-rule:evenodd;stroke:#E5E5E5;stroke-width:2.8px;stroke-linecap:butt;stroke-linejoin:miter;stroke-opacity:1"/>
<path class="bond-3 atom-2 atom-4" d="M 87.1,59.0 L 46.1,91.0" style="fill:none;fill-rule:evenodd;stroke:#000000;stroke-width:2.0px;stroke-linecap:butt;stroke-linejoin:miter;stroke-opacity:1"/>
<path class="bond-4 atom-4 atom-5" d="M 46.1,91.0 L 7.5,56.2" style="fill:none;fill-rule:evenodd;stroke:#000000;stroke-width:2.0px;stroke-linecap:butt;stroke-linejoin:miter;stroke-opacity:1"/>
<path class="bond-5 atom-4 atom-6" d="M 46.1,91.0 L 18.5,135.0" style="fill:none;fill-rule:evenodd;stroke:#000000;stroke-width:2.0px;stroke-linecap:butt;stroke-linejoin:miter;stroke-opacity:1"/>
<path class="bond-6 atom-4 atom-1" d="M 46.1,91.0 L 94.3,110.5" style="fill:none;fill-rule:evenodd;stroke:#000000;stroke-width:2.0px;stroke-linecap:butt;stroke-linejoin:miter;stroke-opacity:1"/>
<path class="atom-0" d="M 136.2 135.3 L 138.4 133.1 L 135.5 132.5 L 136.0 131.0 L 138.6 132.4 L 138.2 129.5 L 139.8 129.5 L 139.4 132.4 L 142.0 131.1 L 142.5 132.5 L 139.6 133.1 L 141.7 135.3 L 140.4 136.2 L 139.0 133.5 L 137.5 136.2 L 136.2 135.3 " fill="#191919"/>
<path class="atom-3" d="M 120.1 19.6 L 122.2 17.4 L 119.4 16.9 L 119.8 15.4 L 122.4 16.7 L 122.1 13.8 L 123.6 13.8 L 123.2 16.7 L 125.9 15.4 L 126.3 16.9 L 123.4 17.4 L 125.5 19.6 L 124.2 20.5 L 122.8 17.8 L 121.3 20.5 L 120.1 19.6 " fill="#191919"/>
</svg>