<svg xmlns="http://www.w3.org/2000/svg" xmlns:rdkit="http://www.rdkit.org/xml" xmlns:xlink="http://www.w3.org/1999/xlink" version="1.1" baseProfile="full" xml:space="preserve" width="150px" height="150px" viewBox="0 0 150 150">
<!-- END OF HEADER -->
<rect style="opacity:1.0;fill:#FFFFFF;stroke:none" width="150.0" height="150.0" x="0.0" y="0.0"> </rect>
<ellipse cx="77.2" cy="89.3" rx="12.0" ry="12.0" class="atom-1" style="fill:#CCCCCC;fill-rule:evenodd;stroke:#CCCCCC;stroke-width:1.0px;stroke-linecap:butt;stroke-linejoin:miter;stroke-opacity:1"/>
<ellipse cx="130.5" cy="116.4" rx="12.0" ry="12.0" class="atom-2" style="fill:#9999E5;fill-rule:evenodd;stroke:#9999E5;stroke-width:1.0px;stroke-linecap:butt;stroke-linejoin:miter;stroke-opacity:1"/>
<path class="bond-0 atom-1 atom-0" d="M 77.2,89.3 L 63.8,34.0 L 72.7,32.6 Z" style="fill:#E5E5E5;fill-rule:evenodd;fill-opacity:1;stroke:#E5E5E5;stroke-width:0.5px;stroke-linecap:butt;stroke-linejoin:miter;stroke-opacity:1;"/>
<path class="bond-1 atom-1 atom-2" d="M 77.2,89.3 L 130.5,116.4" style="fill:none;fill-rule:evenodd;stroke:#000000;stroke-width:2.0px;stroke-linecap:butt;stroke-linejoin:miter;stroke-opacity:1"/>
<path class="bond-2 atom-3 atom-1" d="M 34.5,111.1 L 72.6,87.0 L 77.2,89.3 Z" style="fill:#E5E5E5;fill-rule:evenodd;fill-opacity:1;stroke:#E5E5E5;stroke-width:0.5px;stroke-linecap:butt;stroke-linejoin:miter;stroke-opacity:1;"/>
<path class="bond-2 atom-3 atom-1" d="M 34.5,111.1 L 77.2,89.3 L 77.9,93.8 Z" style="fill:#E5E5E5;fill-rule:evenodd;fill-opacity:1;stroke:#E5E5E5;stroke-width:0.5px;stroke-linecap:butt;stroke-linejoin:miter;stroke-opacity:1;"/>
<path class="atom-0" d="M 64.6 28.3 L 67.1 25.8 L 63.8 25.1 L 64.3 23.4 L 67.3 25.0 L 66.9 21.6 L 68.7 21.6 L 68.2 24.9 L 71.3 23.5 L 71.8 25.1 L 68.4 25.8 L 70.8 28.3 L 69.4 29.4 L 67.7 26.2 L 66.0 29.4 L 64.6 28.3 " fill="#191919"/>
<path class="atom-3" d="M 8.3 114.6 L 10.8 112.1 L 7.5 111.4 L 8.0 109.7 L 11.0 111.3 L 10.6 107.9 L 12.4 107.9 L 11.9 111.2 L 15.0 109.8 L 15.5 111.4 L 12.2 112.1 L 14.6 114.6 L 13.1 115.7 L 11.4 112.5 L 9.8 115.7 L 8.3 114.6 " fill="#191919"/>
<path class="atom-3" d="M 17.3 108.2 L 19.6 108.2 L 19.6 115.4 L 28.3 115.4 L 28.3 108.2 L 30.6 108.2 L 30.6 125.2 L 28.3 125.2 L 28.3 117.3 L 19.6 117.3 L 19.6 125.2 L 17.3 125.2 L 17.3 108.2 " fill="#191919"/>
</svg>