<svg xmlns="http://www.w3.org/2000/svg" xmlns:rdkit="http://www.rdkit.org/xml" xmlns:xlink="http://www.w3.org/1999/xlink" version="1.1" baseProfile="full" xml:space="preserve" width="150px" height="150px" viewBox="0 0 150 150">
<!-- END OF HEADER -->
<rect style="opacity:1.0;fill:#FFFFFF;stroke:none" width="150.0" height="150.0" x="0.0" y="0.0"> </rect>
<ellipse cx="55.5" cy="78.1" rx="5.7" ry="5.7" class="atom-3" style="fill:#E5E533;fill-rule:evenodd;stroke:#E5E533;stroke-width:1.0px;stroke-linecap:butt;stroke-linejoin:miter;stroke-opacity:1"/>
<ellipse cx="66.1" cy="51.4" rx="5.7" ry="5.7" class="atom-4" style="fill:#9999E5;fill-rule:evenodd;stroke:#9999E5;stroke-width:1.0px;stroke-linecap:butt;stroke-linejoin:miter;stroke-opacity:1"/>
<ellipse cx="94.5" cy="47.3" rx="5.7" ry="5.7" class="atom-5" style="fill:#E5E533;fill-rule:evenodd;stroke:#E5E533;stroke-width:1.0px;stroke-linecap:butt;stroke-linejoin:miter;stroke-opacity:1"/>
<ellipse cx="112.2" cy="69.8" rx="5.7" ry="5.7" class="atom-6" style="fill:#E5E533;fill-rule:evenodd;stroke:#E5E533;stroke-width:1.0px;stroke-linecap:butt;stroke-linejoin:miter;stroke-opacity:1"/>
<ellipse cx="73.3" cy="100.6" rx="5.7" ry="5.7" class="atom-9" style="fill:#E5E533;fill-rule:evenodd;stroke:#E5E533;stroke-width:1.0px;stroke-linecap:butt;stroke-linejoin:miter;stroke-opacity:1"/>
<path class="bond-0 atom-0 atom-1" d="M 9.8,60.3 L 27.2,82.2" style="fill:none;fill-rule:evenodd;stroke:#E5E5E5;stroke-width:1.5px;stroke-linecap:butt;stroke-linejoin:miter;stroke-opacity:1"/>
<path class="bond-1 atom-1 atom-2" d="M 27.2,82.2 L 18.6,103.8" style="fill:none;fill-rule:evenodd;stroke:#E5E5E5;stroke-width:1.5px;stroke-linecap:butt;stroke-linejoin:miter;stroke-opacity:1"/>
<path class="bond-2 atom-1 atom-3" d="M 27.2,82.2 L 55.5,78.1" style="fill:none;fill-rule:evenodd;stroke:#000000;stroke-width:2.0px;stroke-linecap:butt;stroke-linejoin:miter;stroke-opacity:1"/>
<path class="bond-3 atom-3 atom-4" d="M 55.5,78.1 L 66.1,51.4" style="fill:none;fill-rule:evenodd;stroke:#000000;stroke-width:2.0px;stroke-linecap:butt;stroke-linejoin:miter;stroke-opacity:1"/>
<path class="bond-3 atom-3 atom-4" d="M 60.4,77.4 L 69.2,55.3" style="fill:none;fill-rule:evenodd;stroke:#000000;stroke-width:2.0px;stroke-linecap:butt;stroke-linejoin:miter;stroke-opacity:1"/>
<path class="bond-4 atom-4 atom-5" d="M 66.1,51.4 L 94.5,47.3" style="fill:none;fill-rule:evenodd;stroke:#000000;stroke-width:2.0px;stroke-linecap:butt;stroke-linejoin:miter;stroke-opacity:1"/>
<path class="bond-5 atom-5 atom-6" d="M 94.5,47.3 L 112.2,69.8" style="fill:none;fill-rule:evenodd;stroke:#000000;stroke-width:2.0px;stroke-linecap:butt;stroke-linejoin:miter;stroke-opacity:1"/>
<path class="bond-5 atom-5 atom-6" d="M 92.6,51.9 L 107.3,70.5" style="fill:none;fill-rule:evenodd;stroke:#000000;stroke-width:2.0px;stroke-linecap:butt;stroke-linejoin:miter;stroke-opacity:1"/>
<path class="bond-6 atom-6 atom-7" d="M 112.2,69.8 L 137.7,66.1" style="fill:none;fill-rule:evenodd;stroke:#E5E5E5;stroke-width:1.5px;stroke-linecap:butt;stroke-linejoin:miter;stroke-opacity:1"/>
<path class="bond-7 atom-6 atom-8" d="M 112.2,69.8 L 103.7,91.3" style="fill:none;fill-rule:evenodd;stroke:#E5E5E5;stroke-width:1.5px;stroke-linecap:butt;stroke-linejoin:miter;stroke-opacity:1"/>
<path class="bond-8 atom-8 atom-9" d="M 98.8,96.8 L 73.3,100.6" style="fill:none;fill-rule:evenodd;stroke:#E5E5E5;stroke-width:1.5px;stroke-linecap:butt;stroke-linejoin:miter;stroke-opacity:1"/>
<path class="bond-8 atom-8 atom-9" d="M 98.2,92.6 L 75.1,95.9" style="fill:none;fill-rule:evenodd;stroke:#E5E5E5;stroke-width:1.5px;stroke-linecap:butt;stroke-linejoin:miter;stroke-opacity:1"/>
<path class="bond-9 atom-9 atom-3" d="M 73.3,100.6 L 55.5,78.1" style="fill:none;fill-rule:evenodd;stroke:#000000;stroke-width:2.0px;stroke-linecap:butt;stroke-linejoin:miter;stroke-opacity:1"/>
<path d="M 65.6,52.8 L 66.1,51.4 L 67.5,51.2" style="fill:none;stroke:#000000;stroke-width:2.0px;stroke-linecap:butt;stroke-linejoin:miter;stroke-opacity:1;"/>
<path d="M 93.1,47.5 L 94.5,47.3 L 95.4,48.4" style="fill:none;stroke:#000000;stroke-width:2.0px;stroke-linecap:butt;stroke-linejoin:miter;stroke-opacity:1;"/>
<path d="M 73.9,100.5 L 73.3,100.6 L 72.8,100.0" style="fill:none;stroke:#E5E5E5;stroke-width:1.5px;stroke-linecap:butt;stroke-linejoin:miter;stroke-opacity:1;"/>
<path class="atom-0" d="M 7.9 58.8 L 9.1 57.6 L 7.5 57.3 L 7.7 56.5 L 9.2 57.2 L 9.0 55.6 L 9.8 55.6 L 9.6 57.2 L 11.1 56.5 L 11.3 57.3 L 9.7 57.6 L 10.9 58.8 L 10.2 59.3 L 9.4 57.8 L 8.6 59.3 L 7.9 58.8 " fill="#191919"/>
<path class="atom-2" d="M 15.1 107.9 L 16.3 106.7 L 14.7 106.4 L 14.9 105.6 L 16.4 106.3 L 16.2 104.7 L 17.0 104.7 L 16.8 106.3 L 18.3 105.6 L 18.5 106.4 L 16.9 106.7 L 18.1 107.9 L 17.4 108.4 L 16.6 106.9 L 15.8 108.4 L 15.1 107.9 " fill="#191919"/>
<path class="atom-7" d="M 139.1 64.7 L 140.2 63.5 L 138.7 63.2 L 138.9 62.4 L 140.4 63.1 L 140.2 61.5 L 141.0 61.5 L 140.8 63.1 L 142.2 62.4 L 142.5 63.2 L 140.9 63.5 L 142.0 64.7 L 141.3 65.2 L 140.6 63.7 L 139.7 65.2 L 139.1 64.7 " fill="#191919"/>
<path class="atom-8" d="M 100.1 95.5 L 101.3 94.3 L 99.7 94.0 L 100.0 93.2 L 101.4 93.9 L 101.2 92.3 L 102.1 92.3 L 101.8 93.9 L 103.3 93.2 L 103.6 94.0 L 102.0 94.3 L 103.1 95.5 L 102.4 96.0 L 101.6 94.5 L 100.8 96.0 L 100.1 95.5 " fill="#191919"/>
</svg>