<svg xmlns="http://www.w3.org/2000/svg" xmlns:rdkit="http://www.rdkit.org/xml" xmlns:xlink="http://www.w3.org/1999/xlink" version="1.1" baseProfile="full" xml:space="preserve" width="150px" height="150px" viewBox="0 0 150 150">
<!-- END OF HEADER -->
<rect style="opacity:1.0;fill:#FFFFFF;stroke:none" width="150.0" height="150.0" x="0.0" y="0.0"> </rect>
<ellipse cx="25.6" cy="129.5" rx="13.0" ry="13.0" class="atom-0" style="fill:#9999E5;fill-rule:evenodd;stroke:#9999E5;stroke-width:1.0px;stroke-linecap:butt;stroke-linejoin:miter;stroke-opacity:1"/>
<ellipse cx="68.2" cy="80.3" rx="13.0" ry="13.0" class="atom-1" style="fill:#CCCCCC;fill-rule:evenodd;stroke:#CCCCCC;stroke-width:1.0px;stroke-linecap:butt;stroke-linejoin:miter;stroke-opacity:1"/>
<path class="bond-0 atom-0 atom-1" d="M 25.6,129.5 L 68.2,80.3" style="fill:none;fill-rule:evenodd;stroke:#000000;stroke-width:2.0px;stroke-linecap:butt;stroke-linejoin:miter;stroke-opacity:1"/>
<path class="bond-1 atom-1 atom-2" d="M 68.2,80.3 L 126.6,85.3" style="fill:none;fill-rule:evenodd;stroke:#E5E5E5;stroke-width:3.5px;stroke-linecap:butt;stroke-linejoin:miter;stroke-opacity:1"/>
<path class="bond-2 atom-3 atom-1" d="M 53.7,18.1 L 68.2,80.3" style="fill:none;fill-rule:evenodd;stroke:#E5E5E5;stroke-width:3.5px;stroke-linecap:butt;stroke-linejoin:miter;stroke-opacity:1"/>
<path class="atom-2" d="M 129.6 83.8 L 132.3 81.0 L 128.7 80.3 L 129.3 78.5 L 132.6 80.1 L 132.1 76.5 L 134.0 76.5 L 133.5 80.1 L 136.9 78.5 L 137.4 80.3 L 133.8 81.0 L 136.4 83.8 L 134.8 84.9 L 133.0 81.5 L 131.2 84.9 L 129.6 83.8 " fill="#191919"/>
<path class="atom-3" d="M 50.0 14.8 L 52.7 12.1 L 49.1 11.3 L 49.6 9.5 L 53.0 11.1 L 52.5 7.5 L 54.4 7.5 L 53.9 11.1 L 57.3 9.6 L 57.8 11.3 L 54.2 12.0 L 56.8 14.8 L 55.2 15.9 L 53.4 12.5 L 51.6 15.9 L 50.0 14.8 " fill="#191919"/>
</svg>