<svg xmlns="http://www.w3.org/2000/svg" xmlns:rdkit="http://www.rdkit.org/xml" xmlns:xlink="http://www.w3.org/1999/xlink" version="1.1" baseProfile="full" xml:space="preserve" width="150px" height="150px" viewBox="0 0 150 150">
<!-- END OF HEADER -->
<rect style="opacity:1.0;fill:#FFFFFF;stroke:none" width="150.0" height="150.0" x="0.0" y="0.0"> </rect>
<ellipse cx="54.3" cy="100.0" rx="9.6" ry="9.6" class="atom-1" style="fill:#E5E533;fill-rule:evenodd;stroke:#E5E533;stroke-width:1.0px;stroke-linecap:butt;stroke-linejoin:miter;stroke-opacity:1"/>
<ellipse cx="58.7" cy="52.3" rx="9.6" ry="9.6" class="atom-2" style="fill:#9999E5;fill-rule:evenodd;stroke:#9999E5;stroke-width:1.0px;stroke-linecap:butt;stroke-linejoin:miter;stroke-opacity:1"/>
<ellipse cx="102.3" cy="32.3" rx="9.6" ry="9.6" class="atom-3" style="fill:#E5E533;fill-rule:evenodd;stroke:#E5E533;stroke-width:1.0px;stroke-linecap:butt;stroke-linejoin:miter;stroke-opacity:1"/>
<path class="bond-0 atom-0 atom-1" d="M 15.5,117.8 L 54.3,100.0" style="fill:none;fill-rule:evenodd;stroke:#E5E5E5;stroke-width:2.6px;stroke-linecap:butt;stroke-linejoin:miter;stroke-opacity:1"/>
<path class="bond-1 atom-1 atom-2" d="M 54.3,100.0 L 58.7,52.3" style="fill:none;fill-rule:evenodd;stroke:#000000;stroke-width:2.0px;stroke-linecap:butt;stroke-linejoin:miter;stroke-opacity:1"/>
<path class="bond-1 atom-1 atom-2" d="M 61.8,96.6 L 65.5,57.1" style="fill:none;fill-rule:evenodd;stroke:#000000;stroke-width:2.0px;stroke-linecap:butt;stroke-linejoin:miter;stroke-opacity:1;stroke-dasharray:6,4"/>
<path class="bond-2 atom-2 atom-3" d="M 58.7,52.3 L 102.3,32.3" style="fill:none;fill-rule:evenodd;stroke:#000000;stroke-width:2.0px;stroke-linecap:butt;stroke-linejoin:miter;stroke-opacity:1"/>
<path class="bond-2 atom-2 atom-3" d="M 65.5,57.1 L 101.5,40.6" style="fill:none;fill-rule:evenodd;stroke:#000000;stroke-width:2.0px;stroke-linecap:butt;stroke-linejoin:miter;stroke-opacity:1;stroke-dasharray:6,4"/>
<path class="bond-3 atom-3 atom-4" d="M 102.3,32.3 L 136.6,56.6" style="fill:none;fill-rule:evenodd;stroke:#E5E5E5;stroke-width:2.6px;stroke-linecap:butt;stroke-linejoin:miter;stroke-opacity:1"/>
<path class="bond-3 atom-3 atom-4" d="M 101.5,40.6 L 132.4,62.5" style="fill:none;fill-rule:evenodd;stroke:#E5E5E5;stroke-width:2.6px;stroke-linecap:butt;stroke-linejoin:miter;stroke-opacity:1;stroke-dasharray:6,4"/>
<path class="bond-4 atom-5 atom-1" d="M 86.5,127.3 L 50.5,101.8" style="fill:none;fill-rule:evenodd;stroke:#E5E5E5;stroke-width:2.6px;stroke-linecap:butt;stroke-linejoin:miter;stroke-opacity:1"/>
<path class="bond-4 atom-5 atom-1" d="M 90.6,121.4 L 54.6,95.9" style="fill:none;fill-rule:evenodd;stroke:#E5E5E5;stroke-width:2.6px;stroke-linecap:butt;stroke-linejoin:miter;stroke-opacity:1;stroke-dasharray:6,4"/>
<path d="M 58.5,54.7 L 58.7,52.3 L 60.9,51.3" style="fill:none;stroke:#000000;stroke-width:2.0px;stroke-linecap:butt;stroke-linejoin:miter;stroke-opacity:1;"/>
<path d="M 101.2,32.8 L 102.3,32.3 L 103.1,32.9" style="fill:none;stroke:#000000;stroke-width:2.0px;stroke-linecap:butt;stroke-linejoin:miter;stroke-opacity:1;"/>
<path class="atom-0" d="M 8.2 118.5 L 10.1 116.5 L 7.5 115.9 L 7.9 114.6 L 10.3 115.8 L 10.0 113.1 L 11.4 113.1 L 11.0 115.8 L 13.5 114.6 L 13.9 115.9 L 11.2 116.4 L 13.2 118.5 L 12.0 119.3 L 10.7 116.8 L 9.3 119.3 L 8.2 118.5 " fill="#191919"/>
<path class="atom-4" d="M 136.7 61.4 L 138.7 59.4 L 136.1 58.9 L 136.5 57.5 L 138.9 58.7 L 138.6 56.1 L 140.0 56.1 L 139.6 58.7 L 142.1 57.6 L 142.5 58.9 L 139.8 59.4 L 141.7 61.4 L 140.6 62.3 L 139.2 59.7 L 137.9 62.3 L 136.7 61.4 " fill="#191919"/>
<path class="atom-5" d="M 90.8 126.2 L 92.8 124.2 L 90.2 123.7 L 90.6 122.3 L 93.0 123.5 L 92.6 120.9 L 94.1 120.8 L 93.7 123.5 L 96.2 122.4 L 96.6 123.7 L 93.9 124.2 L 95.8 126.2 L 94.6 127.1 L 93.3 124.5 L 92.0 127.1 L 90.8 126.2 " fill="#191919"/>
</svg>