<svg xmlns="http://www.w3.org/2000/svg" xmlns:rdkit="http://www.rdkit.org/xml" xmlns:xlink="http://www.w3.org/1999/xlink" version="1.1" baseProfile="full" xml:space="preserve" width="150px" height="150px" viewBox="0 0 150 150">
<!-- END OF HEADER -->
<rect style="opacity:1.0;fill:#FFFFFF;stroke:none" width="150.0" height="150.0" x="0.0" y="0.0"> </rect>
<ellipse cx="57.7" cy="110.1" rx="7.5" ry="7.5" class="atom-1" style="fill:#CCCCCC;fill-rule:evenodd;stroke:#CCCCCC;stroke-width:1.0px;stroke-linecap:butt;stroke-linejoin:miter;stroke-opacity:1"/>
<ellipse cx="95.1" cy="110.1" rx="7.5" ry="7.5" class="atom-2" style="fill:#9999E5;fill-rule:evenodd;stroke:#9999E5;stroke-width:1.0px;stroke-linecap:butt;stroke-linejoin:miter;stroke-opacity:1"/>
<ellipse cx="113.8" cy="77.7" rx="7.5" ry="7.5" class="atom-4" style="fill:#CCCCCC;fill-rule:evenodd;stroke:#CCCCCC;stroke-width:1.0px;stroke-linecap:butt;stroke-linejoin:miter;stroke-opacity:1"/>
<path class="bond-0 atom-0 atom-1" d="M 43.9,86.2 L 62.2,110.1 L 57.7,110.1 Z" style="fill:#E5E5E5;fill-rule:evenodd;fill-opacity:1;stroke:#E5E5E5;stroke-width:0.5px;stroke-linecap:butt;stroke-linejoin:miter;stroke-opacity:1;"/>
<path class="bond-0 atom-0 atom-1" d="M 43.9,86.2 L 57.7,110.1 L 61.0,127.2 Z" style="fill:#E5E5E5;fill-rule:evenodd;fill-opacity:1;stroke:#E5E5E5;stroke-width:0.5px;stroke-linecap:butt;stroke-linejoin:miter;stroke-opacity:1;"/>
<path class="bond-1 atom-1 atom-2" d="M 57.7,110.1 L 95.1,110.1" style="fill:none;fill-rule:evenodd;stroke:#000000;stroke-width:2.0px;stroke-linecap:butt;stroke-linejoin:miter;stroke-opacity:1"/>
<path class="bond-2 atom-2 atom-3" d="M 95.1,110.1 L 113.8,142.5" style="fill:none;fill-rule:evenodd;stroke:#000000;stroke-width:2.0px;stroke-linecap:butt;stroke-linejoin:miter;stroke-opacity:1"/>
<path class="bond-3 atom-2 atom-4" d="M 95.1,110.1 L 113.8,77.7" style="fill:none;fill-rule:evenodd;stroke:#000000;stroke-width:2.0px;stroke-linecap:butt;stroke-linejoin:miter;stroke-opacity:1"/>
<path class="bond-3 atom-2 atom-4" d="M 91.0,102.9 L 105.6,77.7" style="fill:none;fill-rule:evenodd;stroke:#000000;stroke-width:2.0px;stroke-linecap:butt;stroke-linejoin:miter;stroke-opacity:1"/>
<path class="bond-4 atom-4 atom-5" d="M 113.8,77.7 L 95.7,46.3" style="fill:none;fill-rule:evenodd;stroke:#E5E5E5;stroke-width:2.0px;stroke-linecap:butt;stroke-linejoin:miter;stroke-opacity:1"/>
<path class="bond-5 atom-6 atom-1" d="M 39.5,15.5 L 61.4,110.1 L 57.7,110.1 Z" style="fill:#E5E5E5;fill-rule:evenodd;fill-opacity:1;stroke:#E5E5E5;stroke-width:0.5px;stroke-linecap:butt;stroke-linejoin:miter;stroke-opacity:1;"/>
<path class="bond-5 atom-6 atom-1" d="M 39.5,15.5 L 57.7,110.1 L 52.8,101.6 Z" style="fill:#E5E5E5;fill-rule:evenodd;fill-opacity:1;stroke:#E5E5E5;stroke-width:0.5px;stroke-linecap:butt;stroke-linejoin:miter;stroke-opacity:1;"/>
<path d="M 113.3,78.5 L 113.8,77.7 L 113.4,76.9" style="fill:none;stroke:#000000;stroke-width:2.0px;stroke-linecap:butt;stroke-linejoin:miter;stroke-opacity:1;"/>
<path class="atom-0" d="M 29.2 76.5 L 30.8 74.9 L 28.7 74.5 L 29.0 73.4 L 30.9 74.4 L 30.7 72.3 L 31.8 72.3 L 31.5 74.4 L 33.4 73.5 L 33.7 74.5 L 31.6 74.9 L 33.1 76.5 L 32.2 77.2 L 31.2 75.2 L 30.1 77.2 L 29.2 76.5 " fill="#191919"/>
<path class="atom-0" d="M 34.8 72.5 L 36.3 72.5 L 36.3 77.0 L 41.7 77.0 L 41.7 72.5 L 43.1 72.5 L 43.1 83.1 L 41.7 83.1 L 41.7 78.2 L 36.3 78.2 L 36.3 83.1 L 34.8 83.1 L 34.8 72.5 " fill="#191919"/>
<path class="atom-5" d="M 93.1 44.1 L 94.7 42.5 L 92.6 42.1 L 92.9 41.0 L 94.8 42.0 L 94.5 39.9 L 95.7 39.9 L 95.4 42.0 L 97.3 41.1 L 97.6 42.1 L 95.5 42.5 L 97.0 44.1 L 96.1 44.8 L 95.1 42.8 L 94.0 44.8 L 93.1 44.1 " fill="#191919"/>
<path class="atom-6" d="M 37.0 11.7 L 38.5 10.1 L 36.5 9.7 L 36.8 8.6 L 38.7 9.6 L 38.4 7.5 L 39.5 7.5 L 39.2 9.6 L 41.2 8.7 L 41.5 9.7 L 39.4 10.1 L 40.9 11.7 L 40.0 12.3 L 38.9 10.4 L 37.9 12.3 L 37.0 11.7 " fill="#191919"/>
</svg>