<svg xmlns="http://www.w3.org/2000/svg" xmlns:rdkit="http://www.rdkit.org/xml" xmlns:xlink="http://www.w3.org/1999/xlink" version="1.1" baseProfile="full" xml:space="preserve" width="150px" height="150px" viewBox="0 0 150 150">
<!-- END OF HEADER -->
<rect style="opacity:1.0;fill:#FFFFFF;stroke:none" width="150.0" height="150.0" x="0.0" y="0.0"> </rect>
<ellipse cx="17.4" cy="78.3" rx="9.9" ry="9.9" class="atom-1" style="fill:#E5E533;fill-rule:evenodd;stroke:#E5E533;stroke-width:1.0px;stroke-linecap:butt;stroke-linejoin:miter;stroke-opacity:1"/>
<ellipse cx="55.1" cy="46.5" rx="9.9" ry="9.9" class="atom-2" style="fill:#9999E5;fill-rule:evenodd;stroke:#9999E5;stroke-width:1.0px;stroke-linecap:butt;stroke-linejoin:miter;stroke-opacity:1"/>
<ellipse cx="101.5" cy="63.4" rx="9.9" ry="9.9" class="atom-3" style="fill:#E5E533;fill-rule:evenodd;stroke:#E5E533;stroke-width:1.0px;stroke-linecap:butt;stroke-linejoin:miter;stroke-opacity:1"/>
<path class="bond-0 atom-0 atom-1" d="M 24.4,118.1 L 17.4,78.3" style="fill:none;fill-rule:evenodd;stroke:#E5E5E5;stroke-width:2.6px;stroke-linecap:butt;stroke-linejoin:miter;stroke-opacity:1"/>
<path class="bond-0 atom-0 atom-1" d="M 31.7,116.8 L 25.4,81.2" style="fill:none;fill-rule:evenodd;stroke:#E5E5E5;stroke-width:2.6px;stroke-linecap:butt;stroke-linejoin:miter;stroke-opacity:1;stroke-dasharray:6,4"/>
<path class="bond-1 atom-1 atom-2" d="M 17.4,78.3 L 55.1,46.5" style="fill:none;fill-rule:evenodd;stroke:#000000;stroke-width:2.0px;stroke-linecap:butt;stroke-linejoin:miter;stroke-opacity:1"/>
<path class="bond-1 atom-1 atom-2" d="M 25.4,81.2 L 56.6,54.9" style="fill:none;fill-rule:evenodd;stroke:#000000;stroke-width:2.0px;stroke-linecap:butt;stroke-linejoin:miter;stroke-opacity:1;stroke-dasharray:6,4"/>
<path class="bond-2 atom-2 atom-3" d="M 55.1,46.5 L 101.5,63.4" style="fill:none;fill-rule:evenodd;stroke:#000000;stroke-width:2.0px;stroke-linecap:butt;stroke-linejoin:miter;stroke-opacity:1"/>
<path class="bond-2 atom-2 atom-3" d="M 56.6,54.9 L 94.9,68.9" style="fill:none;fill-rule:evenodd;stroke:#000000;stroke-width:2.0px;stroke-linecap:butt;stroke-linejoin:miter;stroke-opacity:1;stroke-dasharray:6,4"/>
<path class="bond-3 atom-3 atom-4" d="M 97.4,61.9 L 104.9,103.8" style="fill:none;fill-rule:evenodd;stroke:#E5E5E5;stroke-width:2.6px;stroke-linecap:butt;stroke-linejoin:miter;stroke-opacity:1"/>
<path class="bond-3 atom-3 atom-4" d="M 104.7,60.6 L 112.2,102.5" style="fill:none;fill-rule:evenodd;stroke:#E5E5E5;stroke-width:2.6px;stroke-linecap:butt;stroke-linejoin:miter;stroke-opacity:1;stroke-dasharray:6,4"/>
<path class="bond-4 atom-5 atom-3" d="M 140.5,35.4 L 102.2,67.6" style="fill:none;fill-rule:evenodd;stroke:#E5E5E5;stroke-width:2.6px;stroke-linecap:butt;stroke-linejoin:miter;stroke-opacity:1"/>
<path class="bond-4 atom-5 atom-3" d="M 135.7,29.7 L 97.4,61.9" style="fill:none;fill-rule:evenodd;stroke:#E5E5E5;stroke-width:2.6px;stroke-linecap:butt;stroke-linejoin:miter;stroke-opacity:1;stroke-dasharray:6,4"/>
<path d="M 17.5,79.3 L 17.4,78.3 L 18.3,77.5" style="fill:none;stroke:#E5E5E5;stroke-width:2.6px;stroke-linecap:butt;stroke-linejoin:miter;stroke-opacity:1;"/>
<path d="M 53.2,48.1 L 55.1,46.5 L 57.4,47.4" style="fill:none;stroke:#000000;stroke-width:2.0px;stroke-linecap:butt;stroke-linejoin:miter;stroke-opacity:1;"/>
<path class="atom-0" d="M 27.0 124.6 L 29.0 122.5 L 26.3 122.0 L 26.7 120.6 L 29.2 121.8 L 28.9 119.1 L 30.3 119.1 L 29.9 121.8 L 32.5 120.6 L 32.9 122.0 L 30.1 122.5 L 32.1 124.6 L 30.9 125.5 L 29.6 122.9 L 28.2 125.5 L 27.0 124.6 " fill="#191919"/>
<path class="atom-4" d="M 107.4 110.4 L 109.5 108.3 L 106.8 107.7 L 107.2 106.3 L 109.7 107.6 L 109.3 104.8 L 110.8 104.8 L 110.4 107.6 L 112.9 106.4 L 113.4 107.7 L 110.6 108.2 L 112.6 110.3 L 111.4 111.2 L 110.0 108.6 L 108.6 111.2 L 107.4 110.4 " fill="#191919"/>
<path class="atom-5" d="M 136.6 30.1 L 138.6 28.0 L 135.9 27.4 L 136.3 26.0 L 138.8 27.3 L 138.5 24.6 L 139.9 24.5 L 139.5 27.3 L 142.1 26.1 L 142.5 27.4 L 139.7 28.0 L 141.7 30.1 L 140.5 30.9 L 139.1 28.3 L 137.8 30.9 L 136.6 30.1 " fill="#191919"/>
</svg>