<svg xmlns="http://www.w3.org/2000/svg" xmlns:rdkit="http://www.rdkit.org/xml" xmlns:xlink="http://www.w3.org/1999/xlink" version="1.1" baseProfile="full" xml:space="preserve" width="150px" height="150px" viewBox="0 0 150 150">
<!-- END OF HEADER -->
<rect style="opacity:1.0;fill:#FFFFFF;stroke:none" width="150.0" height="150.0" x="0.0" y="0.0"> </rect>
<ellipse cx="96.5" cy="79.6" rx="8.6" ry="8.6" class="atom-1" style="fill:#CCCCCC;fill-rule:evenodd;stroke:#CCCCCC;stroke-width:1.0px;stroke-linecap:butt;stroke-linejoin:miter;stroke-opacity:1"/>
<ellipse cx="117.9" cy="42.2" rx="8.6" ry="8.6" class="atom-4" style="fill:#CCCCCC;fill-rule:evenodd;stroke:#CCCCCC;stroke-width:1.0px;stroke-linecap:butt;stroke-linejoin:miter;stroke-opacity:1"/>
<ellipse cx="74.8" cy="42.4" rx="8.6" ry="8.6" class="atom-5" style="fill:#9999E5;fill-rule:evenodd;stroke:#9999E5;stroke-width:1.0px;stroke-linecap:butt;stroke-linejoin:miter;stroke-opacity:1"/>
<ellipse cx="53.5" cy="79.9" rx="8.6" ry="8.6" class="atom-6" style="fill:#CCCCCC;fill-rule:evenodd;stroke:#CCCCCC;stroke-width:1.0px;stroke-linecap:butt;stroke-linejoin:miter;stroke-opacity:1"/>
<path class="bond-0 atom-0 atom-1" d="M 74.8,94.4 L 96.5,79.6" style="fill:none;fill-rule:evenodd;stroke:#E5E5E5;stroke-width:2.3px;stroke-linecap:butt;stroke-linejoin:miter;stroke-opacity:1"/>
<path class="bond-1 atom-1 atom-2" d="M 96.5,79.6 L 95.0,103.4" style="fill:none;fill-rule:evenodd;stroke:#E5E5E5;stroke-width:2.3px;stroke-linecap:butt;stroke-linejoin:miter;stroke-opacity:1"/>
<path class="bond-2 atom-1 atom-3" d="M 96.5,79.6 L 135.4,79.4" style="fill:none;fill-rule:evenodd;stroke:#E5E5E5;stroke-width:2.3px;stroke-linecap:butt;stroke-linejoin:miter;stroke-opacity:1"/>
<path class="bond-3 atom-3 atom-4" d="M 135.4,72.2 L 117.9,42.2" style="fill:none;fill-rule:evenodd;stroke:#E5E5E5;stroke-width:2.3px;stroke-linecap:butt;stroke-linejoin:miter;stroke-opacity:1"/>
<path class="bond-4 atom-4 atom-5" d="M 117.9,42.2 L 74.8,42.4" style="fill:none;fill-rule:evenodd;stroke:#000000;stroke-width:2.0px;stroke-linecap:butt;stroke-linejoin:miter;stroke-opacity:1"/>
<path class="bond-5 atom-5 atom-6" d="M 74.8,42.4 L 53.5,79.9" style="fill:none;fill-rule:evenodd;stroke:#000000;stroke-width:2.0px;stroke-linecap:butt;stroke-linejoin:miter;stroke-opacity:1"/>
<path class="bond-6 atom-6 atom-7" d="M 55.2,76.8 L 14.6,77.1" style="fill:none;fill-rule:evenodd;stroke:#E5E5E5;stroke-width:2.3px;stroke-linecap:butt;stroke-linejoin:miter;stroke-opacity:1"/>
<path class="bond-6 atom-6 atom-7" d="M 55.2,82.9 L 14.6,83.1" style="fill:none;fill-rule:evenodd;stroke:#E5E5E5;stroke-width:2.3px;stroke-linecap:butt;stroke-linejoin:miter;stroke-opacity:1"/>
<path class="bond-7 atom-6 atom-8" d="M 53.5,79.9 L 71.0,109.8" style="fill:none;fill-rule:evenodd;stroke:#E5E5E5;stroke-width:2.3px;stroke-linecap:butt;stroke-linejoin:miter;stroke-opacity:1"/>
<path class="bond-8 atom-5 atom-1" d="M 74.8,42.4 L 96.5,79.6" style="fill:none;fill-rule:evenodd;stroke:#000000;stroke-width:2.0px;stroke-linecap:butt;stroke-linejoin:miter;stroke-opacity:1"/>
<path d="M 118.3,42.9 L 117.9,42.2 L 116.8,42.2" style="fill:none;stroke:#E5E5E5;stroke-width:2.3px;stroke-linecap:butt;stroke-linejoin:miter;stroke-opacity:1;"/>
<path d="M 54.0,78.9 L 53.5,79.9 L 53.9,80.6" style="fill:none;stroke:#000000;stroke-width:2.0px;stroke-linecap:butt;stroke-linejoin:miter;stroke-opacity:1;"/>
<path class="atom-0" d="M 68.3 96.0 L 70.1 94.1 L 67.7 93.7 L 68.1 92.4 L 70.3 93.5 L 70.0 91.1 L 71.3 91.1 L 70.9 93.5 L 73.1 92.5 L 73.5 93.7 L 71.1 94.1 L 72.8 96.0 L 71.8 96.7 L 70.6 94.4 L 69.4 96.7 L 68.3 96.0 " fill="#191919"/>
<path class="atom-2" d="M 92.2 109.6 L 94.0 107.8 L 91.6 107.3 L 92.0 106.1 L 94.2 107.2 L 93.9 104.8 L 95.2 104.8 L 94.8 107.1 L 97.0 106.1 L 97.4 107.3 L 95.0 107.7 L 96.7 109.6 L 95.7 110.3 L 94.5 108.1 L 93.3 110.3 L 92.2 109.6 " fill="#191919"/>
<path class="atom-3" d="M 137.3 78.0 L 139.1 76.2 L 136.7 75.7 L 137.1 74.5 L 139.3 75.6 L 139.0 73.2 L 140.3 73.2 L 139.9 75.6 L 142.1 74.5 L 142.5 75.7 L 140.1 76.1 L 141.8 78.0 L 140.8 78.7 L 139.6 76.5 L 138.4 78.7 L 137.3 78.0 " fill="#191919"/>
<path class="atom-7" d="M 8.1 78.8 L 9.9 76.9 L 7.5 76.4 L 7.9 75.2 L 10.1 76.3 L 9.7 73.9 L 11.0 73.9 L 10.7 76.3 L 12.9 75.3 L 13.3 76.4 L 10.9 76.9 L 12.6 78.7 L 11.5 79.5 L 10.3 77.2 L 9.1 79.5 L 8.1 78.8 " fill="#191919"/>
<path class="atom-8" d="M 72.9 115.7 L 74.7 113.9 L 72.3 113.4 L 72.7 112.2 L 74.9 113.3 L 74.6 110.9 L 75.9 110.8 L 75.5 113.2 L 77.7 112.2 L 78.1 113.4 L 75.7 113.8 L 77.4 115.7 L 76.4 116.4 L 75.2 114.2 L 74.0 116.4 L 72.9 115.7 " fill="#191919"/>
</svg>