<svg xmlns="http://www.w3.org/2000/svg" xmlns:rdkit="http://www.rdkit.org/xml" xmlns:xlink="http://www.w3.org/1999/xlink" version="1.1" baseProfile="full" xml:space="preserve" width="150px" height="150px" viewBox="0 0 150 150">
<!-- END OF HEADER -->
<rect style="opacity:1.0;fill:#FFFFFF;stroke:none" width="150.0" height="150.0" x="0.0" y="0.0"> </rect>
<ellipse cx="53.9" cy="82.1" rx="9.3" ry="9.3" class="atom-1" style="fill:#E5E533;fill-rule:evenodd;stroke:#E5E533;stroke-width:1.0px;stroke-linecap:butt;stroke-linejoin:miter;stroke-opacity:1"/>
<ellipse cx="90.0" cy="111.2" rx="9.3" ry="9.3" class="atom-2" style="fill:#9999E5;fill-rule:evenodd;stroke:#9999E5;stroke-width:1.0px;stroke-linecap:butt;stroke-linejoin:miter;stroke-opacity:1"/>
<ellipse cx="133.2" cy="94.5" rx="9.3" ry="9.3" class="atom-3" style="fill:#E5E533;fill-rule:evenodd;stroke:#E5E533;stroke-width:1.0px;stroke-linecap:butt;stroke-linejoin:miter;stroke-opacity:1"/>
<path class="bond-0 atom-0 atom-1" d="M 14.0,93.7 L 54.5,78.1" style="fill:none;fill-rule:evenodd;stroke:#E5E5E5;stroke-width:2.5px;stroke-linecap:butt;stroke-linejoin:miter;stroke-opacity:1"/>
<path class="bond-0 atom-0 atom-1" d="M 16.5,100.2 L 57.0,84.6" style="fill:none;fill-rule:evenodd;stroke:#E5E5E5;stroke-width:2.5px;stroke-linecap:butt;stroke-linejoin:miter;stroke-opacity:1;stroke-dasharray:6,4"/>
<path class="bond-1 atom-1 atom-2" d="M 53.9,82.1 L 90.0,111.2" style="fill:none;fill-rule:evenodd;stroke:#000000;stroke-width:2.0px;stroke-linecap:butt;stroke-linejoin:miter;stroke-opacity:1"/>
<path class="bond-1 atom-1 atom-2" d="M 61.4,79.2 L 91.2,103.2" style="fill:none;fill-rule:evenodd;stroke:#000000;stroke-width:2.0px;stroke-linecap:butt;stroke-linejoin:miter;stroke-opacity:1;stroke-dasharray:6,4"/>
<path class="bond-2 atom-2 atom-3" d="M 90.0,111.2 L 133.2,94.5" style="fill:none;fill-rule:evenodd;stroke:#000000;stroke-width:2.0px;stroke-linecap:butt;stroke-linejoin:miter;stroke-opacity:1"/>
<path class="bond-2 atom-2 atom-3" d="M 91.2,103.2 L 127.0,89.4" style="fill:none;fill-rule:evenodd;stroke:#000000;stroke-width:2.0px;stroke-linecap:butt;stroke-linejoin:miter;stroke-opacity:1;stroke-dasharray:6,4"/>
<path class="bond-3 atom-3 atom-4" d="M 133.2,94.5 L 140.3,49.5" style="fill:none;fill-rule:evenodd;stroke:#E5E5E5;stroke-width:2.5px;stroke-linecap:butt;stroke-linejoin:miter;stroke-opacity:1"/>
<path class="bond-3 atom-3 atom-4" d="M 127.0,89.4 L 133.4,48.4" style="fill:none;fill-rule:evenodd;stroke:#E5E5E5;stroke-width:2.5px;stroke-linecap:butt;stroke-linejoin:miter;stroke-opacity:1;stroke-dasharray:6,4"/>
<path class="bond-4 atom-5 atom-1" d="M 64.3,37.6 L 57.0,84.6" style="fill:none;fill-rule:evenodd;stroke:#E5E5E5;stroke-width:2.5px;stroke-linecap:butt;stroke-linejoin:miter;stroke-opacity:1"/>
<path class="bond-4 atom-5 atom-1" d="M 57.5,36.6 L 50.1,83.5" style="fill:none;fill-rule:evenodd;stroke:#E5E5E5;stroke-width:2.5px;stroke-linecap:butt;stroke-linejoin:miter;stroke-opacity:1;stroke-dasharray:6,4"/>
<path d="M 88.2,109.7 L 90.0,111.2 L 92.1,110.3" style="fill:none;stroke:#000000;stroke-width:2.0px;stroke-linecap:butt;stroke-linejoin:miter;stroke-opacity:1;"/>
<path d="M 132.1,94.9 L 133.2,94.5 L 133.4,93.3" style="fill:none;stroke:#000000;stroke-width:2.0px;stroke-linecap:butt;stroke-linejoin:miter;stroke-opacity:1;"/>
<path class="atom-0" d="M 8.1 97.3 L 10.1 95.3 L 7.5 94.8 L 7.9 93.5 L 10.2 94.7 L 9.9 92.1 L 11.3 92.1 L 10.9 94.7 L 13.3 93.5 L 13.7 94.8 L 11.1 95.3 L 13.0 97.3 L 11.8 98.1 L 10.6 95.6 L 9.3 98.1 L 8.1 97.3 " fill="#191919"/>
<path class="atom-4" d="M 134.5 46.6 L 136.4 44.7 L 133.8 44.2 L 134.2 42.8 L 136.6 44.0 L 136.3 41.5 L 137.7 41.4 L 137.3 44.0 L 139.7 42.9 L 140.1 44.2 L 137.5 44.6 L 139.3 46.6 L 138.2 47.4 L 136.9 45.0 L 135.6 47.4 L 134.5 46.6 " fill="#191919"/>
<path class="atom-5" d="M 58.6 34.8 L 60.5 32.8 L 57.9 32.3 L 58.3 31.0 L 60.7 32.2 L 60.3 29.6 L 61.7 29.6 L 61.3 32.1 L 63.7 31.0 L 64.1 32.3 L 61.5 32.8 L 63.4 34.8 L 62.3 35.6 L 61.0 33.1 L 59.7 35.6 L 58.6 34.8 " fill="#191919"/>
</svg>