<svg xmlns="http://www.w3.org/2000/svg" xmlns:rdkit="http://www.rdkit.org/xml" xmlns:xlink="http://www.w3.org/1999/xlink" version="1.1" baseProfile="full" xml:space="preserve" width="150px" height="150px" viewBox="0 0 150 150">
<!-- END OF HEADER -->
<rect style="opacity:1.0;fill:#FFFFFF;stroke:none" width="150.0" height="150.0" x="0.0" y="0.0"> </rect>
<ellipse cx="44.8" cy="100.0" rx="8.8" ry="8.8" class="atom-1" style="fill:#E5E533;fill-rule:evenodd;stroke:#E5E533;stroke-width:1.0px;stroke-linecap:butt;stroke-linejoin:miter;stroke-opacity:1"/>
<ellipse cx="86.7" cy="86.5" rx="8.8" ry="8.8" class="atom-2" style="fill:#9999E5;fill-rule:evenodd;stroke:#9999E5;stroke-width:1.0px;stroke-linecap:butt;stroke-linejoin:miter;stroke-opacity:1"/>
<ellipse cx="96.0" cy="43.4" rx="8.8" ry="8.8" class="atom-3" style="fill:#E5E533;fill-rule:evenodd;stroke:#E5E533;stroke-width:1.0px;stroke-linecap:butt;stroke-linejoin:miter;stroke-opacity:1"/>
<path class="bond-0 atom-0 atom-1" d="M 37.2,135.3 L 44.8,100.0" style="fill:none;fill-rule:evenodd;stroke:#E5E5E5;stroke-width:2.4px;stroke-linecap:butt;stroke-linejoin:miter;stroke-opacity:1"/>
<path class="bond-1 atom-1 atom-2" d="M 44.8,100.0 L 86.7,86.5" style="fill:none;fill-rule:evenodd;stroke:#000000;stroke-width:2.0px;stroke-linecap:butt;stroke-linejoin:miter;stroke-opacity:1"/>
<path class="bond-1 atom-1 atom-2" d="M 46.4,92.6 L 81.1,81.4" style="fill:none;fill-rule:evenodd;stroke:#000000;stroke-width:2.0px;stroke-linecap:butt;stroke-linejoin:miter;stroke-opacity:1;stroke-dasharray:6,4"/>
<path class="bond-2 atom-2 atom-3" d="M 86.7,86.5 L 96.0,43.4" style="fill:none;fill-rule:evenodd;stroke:#000000;stroke-width:2.0px;stroke-linecap:butt;stroke-linejoin:miter;stroke-opacity:1"/>
<path class="bond-2 atom-2 atom-3" d="M 81.1,81.4 L 88.7,45.8" style="fill:none;fill-rule:evenodd;stroke:#000000;stroke-width:2.0px;stroke-linecap:butt;stroke-linejoin:miter;stroke-opacity:1;stroke-dasharray:6,4"/>
<path class="bond-3 atom-3 atom-4" d="M 96.0,43.4 L 135.4,30.7" style="fill:none;fill-rule:evenodd;stroke:#E5E5E5;stroke-width:2.4px;stroke-linecap:butt;stroke-linejoin:miter;stroke-opacity:1"/>
<path class="bond-4 atom-3 atom-5" d="M 99.6,42.2 L 66.4,12.2" style="fill:none;fill-rule:evenodd;stroke:#E5E5E5;stroke-width:2.4px;stroke-linecap:butt;stroke-linejoin:miter;stroke-opacity:1"/>
<path class="bond-4 atom-3 atom-5" d="M 95.2,47.2 L 62.0,17.1" style="fill:none;fill-rule:evenodd;stroke:#E5E5E5;stroke-width:2.4px;stroke-linecap:butt;stroke-linejoin:miter;stroke-opacity:1;stroke-dasharray:6,4"/>
<path class="bond-5 atom-6 atom-1" d="M 15.2,68.8 L 48.4,98.9" style="fill:none;fill-rule:evenodd;stroke:#E5E5E5;stroke-width:2.4px;stroke-linecap:butt;stroke-linejoin:miter;stroke-opacity:1"/>
<path class="bond-5 atom-6 atom-1" d="M 10.8,73.7 L 44.0,103.8" style="fill:none;fill-rule:evenodd;stroke:#E5E5E5;stroke-width:2.4px;stroke-linecap:butt;stroke-linejoin:miter;stroke-opacity:1;stroke-dasharray:6,4"/>
<path d="M 84.6,87.2 L 86.7,86.5 L 87.2,84.4" style="fill:none;stroke:#000000;stroke-width:2.0px;stroke-linecap:butt;stroke-linejoin:miter;stroke-opacity:1;"/>
<path class="atom-0" d="M 33.1 141.7 L 35.0 139.9 L 32.5 139.4 L 32.9 138.1 L 35.1 139.3 L 34.8 136.8 L 36.2 136.8 L 35.8 139.2 L 38.1 138.2 L 38.4 139.4 L 36.0 139.8 L 37.7 141.7 L 36.7 142.5 L 35.4 140.2 L 34.2 142.5 L 33.1 141.7 " fill="#191919"/>
<path class="atom-4" d="M 135.6 28.5 L 137.4 26.6 L 135.0 26.1 L 135.3 24.9 L 137.6 26.0 L 137.3 23.6 L 138.6 23.5 L 138.2 26.0 L 140.5 24.9 L 140.9 26.1 L 138.4 26.6 L 140.2 28.5 L 139.1 29.3 L 137.9 26.9 L 136.7 29.3 L 135.6 28.5 " fill="#191919"/>
<path class="atom-5" d="M 60.9 12.5 L 62.8 10.6 L 60.3 10.1 L 60.7 8.8 L 62.9 10.0 L 62.6 7.5 L 63.9 7.5 L 63.6 10.0 L 65.9 8.9 L 66.2 10.1 L 63.8 10.6 L 65.5 12.4 L 64.5 13.2 L 63.2 10.9 L 62.0 13.2 L 60.9 12.5 " fill="#191919"/>
<path class="atom-6" d="M 9.7 69.1 L 11.5 67.2 L 9.1 66.7 L 9.5 65.5 L 11.7 66.6 L 11.4 64.1 L 12.7 64.1 L 12.4 66.6 L 14.6 65.5 L 15.0 66.7 L 12.6 67.2 L 14.3 69.1 L 13.2 69.8 L 12.0 67.5 L 10.8 69.8 L 9.7 69.1 " fill="#191919"/>
</svg>