<svg xmlns="http://www.w3.org/2000/svg" xmlns:rdkit="http://www.rdkit.org/xml" xmlns:xlink="http://www.w3.org/1999/xlink" version="1.1" baseProfile="full" xml:space="preserve" width="150px" height="150px" viewBox="0 0 150 150">
<!-- END OF HEADER -->
<rect style="opacity:1.0;fill:#FFFFFF;stroke:none" width="150.0" height="150.0" x="0.0" y="0.0"> </rect>
<ellipse cx="42.9" cy="70.0" rx="6.7" ry="6.7" class="atom-1" style="fill:#E5E533;fill-rule:evenodd;stroke:#E5E533;stroke-width:1.0px;stroke-linecap:butt;stroke-linejoin:miter;stroke-opacity:1"/>
<ellipse cx="88.5" cy="34.0" rx="6.7" ry="6.7" class="atom-3" style="fill:#E5E533;fill-rule:evenodd;stroke:#E5E533;stroke-width:1.0px;stroke-linecap:butt;stroke-linejoin:miter;stroke-opacity:1"/>
<ellipse cx="109.3" cy="60.3" rx="6.7" ry="6.7" class="atom-4" style="fill:#E5E533;fill-rule:evenodd;stroke:#E5E533;stroke-width:1.0px;stroke-linecap:butt;stroke-linejoin:miter;stroke-opacity:1"/>
<ellipse cx="96.9" cy="91.5" rx="6.7" ry="6.7" class="atom-6" style="fill:#9999E5;fill-rule:evenodd;stroke:#9999E5;stroke-width:1.0px;stroke-linecap:butt;stroke-linejoin:miter;stroke-opacity:1"/>
<ellipse cx="63.7" cy="96.3" rx="6.7" ry="6.7" class="atom-8" style="fill:#E5E533;fill-rule:evenodd;stroke:#E5E533;stroke-width:1.0px;stroke-linecap:butt;stroke-linejoin:miter;stroke-opacity:1"/>
<path class="bond-0 atom-0 atom-1" d="M 13.1,74.4 L 42.9,70.0" style="fill:none;fill-rule:evenodd;stroke:#E5E5E5;stroke-width:1.8px;stroke-linecap:butt;stroke-linejoin:miter;stroke-opacity:1"/>
<path class="bond-1 atom-1 atom-2" d="M 42.9,70.0 L 55.1,39.5" style="fill:none;fill-rule:evenodd;stroke:#E5E5E5;stroke-width:1.8px;stroke-linecap:butt;stroke-linejoin:miter;stroke-opacity:1"/>
<path class="bond-1 atom-1 atom-2" d="M 48.7,69.2 L 59.8,41.3" style="fill:none;fill-rule:evenodd;stroke:#E5E5E5;stroke-width:1.8px;stroke-linecap:butt;stroke-linejoin:miter;stroke-opacity:1"/>
<path class="bond-2 atom-2 atom-3" d="M 58.7,38.3 L 88.5,34.0" style="fill:none;fill-rule:evenodd;stroke:#E5E5E5;stroke-width:1.8px;stroke-linecap:butt;stroke-linejoin:miter;stroke-opacity:1"/>
<path class="bond-3 atom-3 atom-4" d="M 88.5,34.0 L 109.3,60.3" style="fill:none;fill-rule:evenodd;stroke:#000000;stroke-width:2.0px;stroke-linecap:butt;stroke-linejoin:miter;stroke-opacity:1"/>
<path class="bond-3 atom-3 atom-4" d="M 86.4,39.4 L 103.6,61.1" style="fill:none;fill-rule:evenodd;stroke:#000000;stroke-width:2.0px;stroke-linecap:butt;stroke-linejoin:miter;stroke-opacity:1"/>
<path class="bond-4 atom-4 atom-5" d="M 109.3,60.3 L 142.5,55.4" style="fill:none;fill-rule:evenodd;stroke:#000000;stroke-width:2.0px;stroke-linecap:butt;stroke-linejoin:miter;stroke-opacity:1"/>
<path class="bond-5 atom-4 atom-6" d="M 109.3,60.3 L 96.9,91.5" style="fill:none;fill-rule:evenodd;stroke:#000000;stroke-width:2.0px;stroke-linecap:butt;stroke-linejoin:miter;stroke-opacity:1"/>
<path class="bond-6 atom-6 atom-7" d="M 96.9,91.5 L 105.0,101.7" style="fill:none;fill-rule:evenodd;stroke:#000000;stroke-width:2.0px;stroke-linecap:butt;stroke-linejoin:miter;stroke-opacity:1"/>
<path class="bond-6 atom-6 atom-7" d="M 105.0,101.7 L 113.0,111.9" style="fill:none;fill-rule:evenodd;stroke:#FF0000;stroke-width:2.0px;stroke-linecap:butt;stroke-linejoin:miter;stroke-opacity:1"/>
<path class="bond-7 atom-6 atom-8" d="M 96.9,91.5 L 63.7,96.3" style="fill:none;fill-rule:evenodd;stroke:#000000;stroke-width:2.0px;stroke-linecap:butt;stroke-linejoin:miter;stroke-opacity:1"/>
<path class="bond-7 atom-6 atom-8" d="M 93.3,86.9 L 65.9,90.9" style="fill:none;fill-rule:evenodd;stroke:#000000;stroke-width:2.0px;stroke-linecap:butt;stroke-linejoin:miter;stroke-opacity:1"/>
<path class="bond-8 atom-8 atom-1" d="M 63.7,96.3 L 42.9,70.0" style="fill:none;fill-rule:evenodd;stroke:#000000;stroke-width:2.0px;stroke-linecap:butt;stroke-linejoin:miter;stroke-opacity:1"/>
<path d="M 87.8,34.1 L 88.5,34.0 L 89.0,34.6" style="fill:none;stroke:#E5E5E5;stroke-width:1.8px;stroke-linecap:butt;stroke-linejoin:miter;stroke-opacity:1;"/>
<path d="M 65.4,96.1 L 63.7,96.3 L 62.7,95.0" style="fill:none;stroke:#000000;stroke-width:2.0px;stroke-linecap:butt;stroke-linejoin:miter;stroke-opacity:1;"/>
<path class="atom-0" d="M 8.0 73.8 L 9.4 72.4 L 7.5 72.0 L 7.8 71.0 L 9.5 71.9 L 9.2 70.0 L 10.3 70.0 L 10.0 71.9 L 11.7 71.1 L 12.0 72.0 L 10.1 72.3 L 11.5 73.8 L 10.6 74.4 L 9.7 72.6 L 8.8 74.4 L 8.0 73.8 " fill="#191919"/>
<path class="atom-2" d="M 53.5 37.8 L 54.9 36.3 L 53.1 36.0 L 53.4 35.0 L 55.1 35.9 L 54.8 34.0 L 55.8 34.0 L 55.6 35.9 L 57.3 35.1 L 57.6 36.0 L 55.7 36.3 L 57.0 37.8 L 56.2 38.3 L 55.3 36.6 L 54.4 38.3 L 53.5 37.8 " fill="#191919"/>
<path class="atom-7" d="M 113.4 117.8 Q 113.4 115.5, 114.5 114.3 Q 115.6 113.0, 117.7 113.0 Q 119.8 113.0, 120.9 114.3 Q 122.1 115.5, 122.1 117.8 Q 122.1 120.1, 120.9 121.4 Q 119.8 122.7, 117.7 122.7 Q 115.6 122.7, 114.5 121.4 Q 113.4 120.1, 113.4 117.8 M 117.7 121.7 Q 119.2 121.7, 119.9 120.7 Q 120.7 119.7, 120.7 117.8 Q 120.7 115.9, 119.9 115.0 Q 119.2 114.0, 117.7 114.0 Q 116.3 114.0, 115.5 115.0 Q 114.7 115.9, 114.7 117.8 Q 114.7 119.7, 115.5 120.7 Q 116.3 121.7, 117.7 121.7 " fill="#FF0000"/>
<path class="atom-7" d="M 123.6 113.1 L 124.8 113.1 L 124.8 117.1 L 129.7 117.1 L 129.7 113.1 L 131.0 113.1 L 131.0 122.6 L 129.7 122.6 L 129.7 118.2 L 124.8 118.2 L 124.8 122.6 L 123.6 122.6 L 123.6 113.1 " fill="#FF0000"/>
</svg>