<svg xmlns="http://www.w3.org/2000/svg" xmlns:rdkit="http://www.rdkit.org/xml" xmlns:xlink="http://www.w3.org/1999/xlink" version="1.1" baseProfile="full" xml:space="preserve" width="150px" height="150px" viewBox="0 0 150 150">
<!-- END OF HEADER -->
<rect style="opacity:1.0;fill:#FFFFFF;stroke:none" width="150.0" height="150.0" x="0.0" y="0.0"> </rect>
<ellipse cx="54.4" cy="99.3" rx="8.9" ry="8.9" class="atom-1" style="fill:#E5E533;fill-rule:evenodd;stroke:#E5E533;stroke-width:1.0px;stroke-linecap:butt;stroke-linejoin:miter;stroke-opacity:1"/>
<ellipse cx="70.0" cy="57.7" rx="8.9" ry="8.9" class="atom-2" style="fill:#9999E5;fill-rule:evenodd;stroke:#9999E5;stroke-width:1.0px;stroke-linecap:butt;stroke-linejoin:miter;stroke-opacity:1"/>
<ellipse cx="113.9" cy="50.5" rx="8.9" ry="8.9" class="atom-3" style="fill:#E5E533;fill-rule:evenodd;stroke:#E5E533;stroke-width:1.0px;stroke-linecap:butt;stroke-linejoin:miter;stroke-opacity:1"/>
<path class="bond-0 atom-0 atom-1" d="M 14.9,105.8 L 54.4,99.3" style="fill:none;fill-rule:evenodd;stroke:#E5E5E5;stroke-width:2.4px;stroke-linecap:butt;stroke-linejoin:miter;stroke-opacity:1"/>
<path class="bond-1 atom-1 atom-2" d="M 54.4,99.3 L 70.0,57.7" style="fill:none;fill-rule:evenodd;stroke:#000000;stroke-width:2.0px;stroke-linecap:butt;stroke-linejoin:miter;stroke-opacity:1"/>
<path class="bond-1 atom-1 atom-2" d="M 49.5,93.4 L 62.4,59.0" style="fill:none;fill-rule:evenodd;stroke:#000000;stroke-width:2.0px;stroke-linecap:butt;stroke-linejoin:miter;stroke-opacity:1;stroke-dasharray:6,4"/>
<path class="bond-2 atom-2 atom-3" d="M 70.0,57.7 L 113.9,50.5" style="fill:none;fill-rule:evenodd;stroke:#000000;stroke-width:2.0px;stroke-linecap:butt;stroke-linejoin:miter;stroke-opacity:1"/>
<path class="bond-2 atom-2 atom-3" d="M 74.9,63.7 L 111.2,57.7" style="fill:none;fill-rule:evenodd;stroke:#000000;stroke-width:2.0px;stroke-linecap:butt;stroke-linejoin:miter;stroke-opacity:1;stroke-dasharray:6,4"/>
<path class="bond-3 atom-3 atom-4" d="M 113.9,50.5 L 137.7,79.4" style="fill:none;fill-rule:evenodd;stroke:#E5E5E5;stroke-width:2.4px;stroke-linecap:butt;stroke-linejoin:miter;stroke-opacity:1"/>
<path class="bond-3 atom-3 atom-4" d="M 111.2,57.7 L 132.5,83.7" style="fill:none;fill-rule:evenodd;stroke:#E5E5E5;stroke-width:2.4px;stroke-linecap:butt;stroke-linejoin:miter;stroke-opacity:1;stroke-dasharray:6,4"/>
<path class="bond-4 atom-2 atom-5" d="M 70.0,57.7 L 59.2,44.5" style="fill:none;fill-rule:evenodd;stroke:#000000;stroke-width:2.0px;stroke-linecap:butt;stroke-linejoin:miter;stroke-opacity:1"/>
<path class="bond-4 atom-2 atom-5" d="M 59.2,44.5 L 48.4,31.3" style="fill:none;fill-rule:evenodd;stroke:#FF0000;stroke-width:2.0px;stroke-linecap:butt;stroke-linejoin:miter;stroke-opacity:1"/>
<path class="bond-5 atom-6 atom-1" d="M 75.5,130.4 L 50.6,99.9" style="fill:none;fill-rule:evenodd;stroke:#E5E5E5;stroke-width:2.4px;stroke-linecap:butt;stroke-linejoin:miter;stroke-opacity:1"/>
<path class="bond-5 atom-6 atom-1" d="M 80.7,126.2 L 55.7,95.7" style="fill:none;fill-rule:evenodd;stroke:#E5E5E5;stroke-width:2.4px;stroke-linecap:butt;stroke-linejoin:miter;stroke-opacity:1;stroke-dasharray:6,4"/>
<path d="M 112.8,50.7 L 113.9,50.5 L 114.5,51.2" style="fill:none;stroke:#000000;stroke-width:2.0px;stroke-linecap:butt;stroke-linejoin:miter;stroke-opacity:1;"/>
<path class="atom-0" d="M 8.1 105.1 L 10.0 103.2 L 7.5 102.7 L 7.9 101.5 L 10.1 102.6 L 9.8 100.1 L 11.1 100.1 L 10.8 102.6 L 13.1 101.5 L 13.5 102.7 L 11.0 103.2 L 12.7 105.1 L 11.7 105.9 L 10.4 103.5 L 9.2 105.9 L 8.1 105.1 " fill="#191919"/>
<path class="atom-4" d="M 137.1 85.6 L 139.0 83.7 L 136.5 83.2 L 136.9 81.9 L 139.2 83.1 L 138.9 80.6 L 140.2 80.6 L 139.8 83.0 L 142.1 82.0 L 142.5 83.2 L 140.0 83.7 L 141.8 85.6 L 140.7 86.3 L 139.5 84.0 L 138.2 86.3 L 137.1 85.6 " fill="#191919"/>
<path class="atom-5" d="M 23.6 17.1 L 25.3 17.1 L 25.3 22.4 L 31.8 22.4 L 31.8 17.1 L 33.5 17.1 L 33.5 29.7 L 31.8 29.7 L 31.8 23.9 L 25.3 23.9 L 25.3 29.7 L 23.6 29.7 L 23.6 17.1 " fill="#FF0000"/>
<path class="atom-5" d="M 36.1 23.4 Q 36.1 20.3, 37.6 18.6 Q 39.1 16.9, 41.8 16.9 Q 44.6 16.9, 46.1 18.6 Q 47.6 20.3, 47.6 23.4 Q 47.6 26.4, 46.1 28.2 Q 44.6 29.9, 41.8 29.9 Q 39.1 29.9, 37.6 28.2 Q 36.1 26.4, 36.1 23.4 M 41.8 28.5 Q 43.8 28.5, 44.8 27.2 Q 45.8 25.9, 45.8 23.4 Q 45.8 20.9, 44.8 19.6 Q 43.8 18.4, 41.8 18.4 Q 39.9 18.4, 38.9 19.6 Q 37.8 20.9, 37.8 23.4 Q 37.8 25.9, 38.9 27.2 Q 39.9 28.5, 41.8 28.5 " fill="#FF0000"/>
<path class="atom-6" d="M 80.2 132.3 L 82.0 130.4 L 79.6 129.9 L 79.9 128.6 L 82.2 129.8 L 81.9 127.3 L 83.2 127.3 L 82.8 129.8 L 85.1 128.7 L 85.5 129.9 L 83.0 130.4 L 84.8 132.3 L 83.7 133.1 L 82.5 130.7 L 81.3 133.1 L 80.2 132.3 " fill="#191919"/>
</svg>