<svg xmlns="http://www.w3.org/2000/svg" xmlns:rdkit="http://www.rdkit.org/xml" xmlns:xlink="http://www.w3.org/1999/xlink" version="1.1" baseProfile="full" xml:space="preserve" width="150px" height="150px" viewBox="0 0 150 150">
<!-- END OF HEADER -->
<rect style="opacity:1.0;fill:#FFFFFF;stroke:none" width="150.0" height="150.0" x="0.0" y="0.0"> </rect>
<ellipse cx="44.9" cy="108.1" rx="7.2" ry="7.2" class="atom-1" style="fill:#CCCCCC;fill-rule:evenodd;stroke:#CCCCCC;stroke-width:1.0px;stroke-linecap:butt;stroke-linejoin:miter;stroke-opacity:1"/>
<ellipse cx="61.1" cy="47.6" rx="7.2" ry="7.2" class="atom-4" style="fill:#CCCCCC;fill-rule:evenodd;stroke:#CCCCCC;stroke-width:1.0px;stroke-linecap:butt;stroke-linejoin:miter;stroke-opacity:1"/>
<ellipse cx="105.4" cy="91.9" rx="7.2" ry="7.2" class="atom-8" style="fill:#CCCCCC;fill-rule:evenodd;stroke:#CCCCCC;stroke-width:1.0px;stroke-linecap:butt;stroke-linejoin:miter;stroke-opacity:1"/>
<ellipse cx="70.5" cy="82.6" rx="7.2" ry="7.2" class="atom-9" style="fill:#9999E5;fill-rule:evenodd;stroke:#9999E5;stroke-width:1.0px;stroke-linecap:butt;stroke-linejoin:miter;stroke-opacity:1"/>
<path class="bond-0 atom-0 atom-1" d="M 52.5,136.6 L 44.9,108.1" style="fill:none;fill-rule:evenodd;stroke:#E5E5E5;stroke-width:1.9px;stroke-linecap:butt;stroke-linejoin:miter;stroke-opacity:1"/>
<path class="bond-1 atom-1 atom-2" d="M 47.1,105.9 L 13.2,96.8" style="fill:none;fill-rule:evenodd;stroke:#E5E5E5;stroke-width:1.9px;stroke-linecap:butt;stroke-linejoin:miter;stroke-opacity:1"/>
<path class="bond-1 atom-1 atom-2" d="M 45.7,111.1 L 11.8,102.0" style="fill:none;fill-rule:evenodd;stroke:#E5E5E5;stroke-width:1.9px;stroke-linecap:butt;stroke-linejoin:miter;stroke-opacity:1"/>
<path class="bond-2 atom-4 atom-3" d="M 57.7,47.0 L 57.9,46.4" style="fill:none;fill-rule:evenodd;stroke:#E5E5E5;stroke-width:1.0px;stroke-linecap:butt;stroke-linejoin:miter;stroke-opacity:1"/>
<path class="bond-2 atom-4 atom-3" d="M 54.3,46.4 L 54.6,45.2" style="fill:none;fill-rule:evenodd;stroke:#E5E5E5;stroke-width:1.0px;stroke-linecap:butt;stroke-linejoin:miter;stroke-opacity:1"/>
<path class="bond-2 atom-4 atom-3" d="M 50.9,45.8 L 51.3,44.1" style="fill:none;fill-rule:evenodd;stroke:#E5E5E5;stroke-width:1.0px;stroke-linecap:butt;stroke-linejoin:miter;stroke-opacity:1"/>
<path class="bond-2 atom-4 atom-3" d="M 47.4,45.2 L 48.1,42.9" style="fill:none;fill-rule:evenodd;stroke:#E5E5E5;stroke-width:1.0px;stroke-linecap:butt;stroke-linejoin:miter;stroke-opacity:1"/>
<path class="bond-2 atom-4 atom-3" d="M 44.0,44.6 L 44.8,41.7" style="fill:none;fill-rule:evenodd;stroke:#E5E5E5;stroke-width:1.0px;stroke-linecap:butt;stroke-linejoin:miter;stroke-opacity:1"/>
<path class="bond-2 atom-4 atom-3" d="M 40.6,44.0 L 41.5,40.5" style="fill:none;fill-rule:evenodd;stroke:#E5E5E5;stroke-width:1.0px;stroke-linecap:butt;stroke-linejoin:miter;stroke-opacity:1"/>
<path class="bond-2 atom-4 atom-3" d="M 37.2,43.4 L 38.3,39.3" style="fill:none;fill-rule:evenodd;stroke:#E5E5E5;stroke-width:1.0px;stroke-linecap:butt;stroke-linejoin:miter;stroke-opacity:1"/>
<path class="bond-2 atom-4 atom-3" d="M 33.7,42.8 L 35.0,38.1" style="fill:none;fill-rule:evenodd;stroke:#E5E5E5;stroke-width:1.0px;stroke-linecap:butt;stroke-linejoin:miter;stroke-opacity:1"/>
<path class="bond-2 atom-4 atom-3" d="M 30.3,42.2 L 31.7,36.9" style="fill:none;fill-rule:evenodd;stroke:#E5E5E5;stroke-width:1.0px;stroke-linecap:butt;stroke-linejoin:miter;stroke-opacity:1"/>
<path class="bond-3 atom-4 atom-5" d="M 61.1,47.6 L 52.0,13.4" style="fill:none;fill-rule:evenodd;stroke:#E5E5E5;stroke-width:1.9px;stroke-linecap:butt;stroke-linejoin:miter;stroke-opacity:1"/>
<path class="bond-4 atom-4 atom-6" d="M 61.1,47.6 L 86.0,22.8" style="fill:none;fill-rule:evenodd;stroke:#E5E5E5;stroke-width:1.9px;stroke-linecap:butt;stroke-linejoin:miter;stroke-opacity:1"/>
<path class="bond-5 atom-7 atom-8" d="M 129.1,68.2 L 108.3,92.7 L 102.2,91.1 Z" style="fill:#E5E5E5;fill-rule:evenodd;fill-opacity:1;stroke:#E5E5E5;stroke-width:0.5px;stroke-linecap:butt;stroke-linejoin:miter;stroke-opacity:1;"/>
<path class="bond-6 atom-8 atom-9" d="M 108.3,92.7 L 70.5,82.6" style="fill:none;fill-rule:evenodd;stroke:#000000;stroke-width:2.0px;stroke-linecap:butt;stroke-linejoin:miter;stroke-opacity:1"/>
<path class="bond-7 atom-9 atom-1" d="M 70.5,82.6 L 44.9,108.1" style="fill:none;fill-rule:evenodd;stroke:#000000;stroke-width:2.0px;stroke-linecap:butt;stroke-linejoin:miter;stroke-opacity:1"/>
<path class="bond-8 atom-9 atom-4" d="M 70.5,82.6 L 61.1,47.6" style="fill:none;fill-rule:evenodd;stroke:#000000;stroke-width:2.0px;stroke-linecap:butt;stroke-linejoin:miter;stroke-opacity:1"/>
<path d="M 45.1,108.8 L 44.9,108.1 L 45.5,107.5" style="fill:none;stroke:#E5E5E5;stroke-width:1.9px;stroke-linecap:butt;stroke-linejoin:miter;stroke-opacity:1;"/>
<path class="atom-0" d="M 52.3 141.9 L 53.8 140.3 L 51.8 139.9 L 52.1 138.9 L 53.9 139.8 L 53.7 137.8 L 54.8 137.8 L 54.5 139.8 L 56.3 139.0 L 56.6 139.9 L 54.6 140.3 L 56.1 141.9 L 55.2 142.5 L 54.2 140.6 L 53.2 142.5 L 52.3 141.9 " fill="#191919"/>
<path class="atom-2" d="M 8.0 97.6 L 9.5 96.0 L 7.5 95.6 L 7.9 94.6 L 9.7 95.5 L 9.4 93.5 L 10.5 93.5 L 10.2 95.5 L 12.1 94.7 L 12.4 95.6 L 10.4 96.0 L 11.8 97.6 L 10.9 98.2 L 9.9 96.3 L 8.9 98.2 L 8.0 97.6 " fill="#191919"/>
<path class="atom-3" d="M 24.3 37.1 L 25.8 35.6 L 23.8 35.2 L 24.1 34.1 L 25.9 35.1 L 25.7 33.1 L 26.7 33.0 L 26.4 35.1 L 28.3 34.2 L 28.6 35.2 L 26.6 35.5 L 28.1 37.1 L 27.2 37.7 L 26.2 35.8 L 25.2 37.7 L 24.3 37.1 " fill="#191919"/>
<path class="atom-5" d="M 49.9 11.6 L 51.4 10.0 L 49.4 9.6 L 49.7 8.6 L 51.5 9.5 L 51.2 7.5 L 52.3 7.5 L 52.0 9.5 L 53.9 8.6 L 54.2 9.6 L 52.2 10.0 L 53.6 11.5 L 52.7 12.2 L 51.7 10.3 L 50.7 12.2 L 49.9 11.6 " fill="#191919"/>
<path class="atom-6" d="M 84.8 20.9 L 86.3 19.4 L 84.3 19.0 L 84.6 18.0 L 86.4 18.9 L 86.2 16.9 L 87.2 16.9 L 86.9 18.9 L 88.8 18.0 L 89.1 19.0 L 87.1 19.4 L 88.5 20.9 L 87.7 21.6 L 86.7 19.7 L 85.6 21.6 L 84.8 20.9 " fill="#191919"/>
<path class="atom-7" d="M 129.0 65.2 L 130.5 63.7 L 128.5 63.3 L 128.8 62.3 L 130.7 63.2 L 130.4 61.2 L 131.5 61.2 L 131.2 63.2 L 133.0 62.3 L 133.4 63.3 L 131.3 63.7 L 132.8 65.2 L 131.9 65.9 L 130.9 63.9 L 129.9 65.9 L 129.0 65.2 " fill="#191919"/>
<path class="atom-7" d="M 134.4 61.3 L 135.8 61.3 L 135.8 65.7 L 141.1 65.7 L 141.1 61.3 L 142.5 61.3 L 142.5 71.6 L 141.1 71.6 L 141.1 66.9 L 135.8 66.9 L 135.8 71.6 L 134.4 71.6 L 134.4 61.3 " fill="#191919"/>
</svg>