<svg xmlns="http://www.w3.org/2000/svg" xmlns:rdkit="http://www.rdkit.org/xml" xmlns:xlink="http://www.w3.org/1999/xlink" version="1.1" baseProfile="full" xml:space="preserve" width="150px" height="150px" viewBox="0 0 150 150">
<!-- END OF HEADER -->
<rect style="opacity:1.0;fill:#FFFFFF;stroke:none" width="150.0" height="150.0" x="0.0" y="0.0"> </rect>
<ellipse cx="35.5" cy="62.7" rx="8.0" ry="8.0" class="atom-1" style="fill:#E5E533;fill-rule:evenodd;stroke:#E5E533;stroke-width:1.0px;stroke-linecap:butt;stroke-linejoin:miter;stroke-opacity:1"/>
<ellipse cx="75.0" cy="56.2" rx="8.0" ry="8.0" class="atom-2" style="fill:#9999E5;fill-rule:evenodd;stroke:#9999E5;stroke-width:1.0px;stroke-linecap:butt;stroke-linejoin:miter;stroke-opacity:1"/>
<ellipse cx="100.4" cy="87.1" rx="8.0" ry="8.0" class="atom-3" style="fill:#E5E533;fill-rule:evenodd;stroke:#E5E533;stroke-width:1.0px;stroke-linecap:butt;stroke-linejoin:miter;stroke-opacity:1"/>
<path class="bond-0 atom-0 atom-1" d="M 21.3,92.0 L 33.3,60.0" style="fill:none;fill-rule:evenodd;stroke:#E5E5E5;stroke-width:2.1px;stroke-linecap:butt;stroke-linejoin:miter;stroke-opacity:1"/>
<path class="bond-0 atom-0 atom-1" d="M 26.9,94.1 L 39.0,62.1" style="fill:none;fill-rule:evenodd;stroke:#E5E5E5;stroke-width:2.1px;stroke-linecap:butt;stroke-linejoin:miter;stroke-opacity:1;stroke-dasharray:6,4"/>
<path class="bond-1 atom-1 atom-2" d="M 35.5,62.7 L 75.0,56.2" style="fill:none;fill-rule:evenodd;stroke:#000000;stroke-width:2.0px;stroke-linecap:butt;stroke-linejoin:miter;stroke-opacity:1"/>
<path class="bond-1 atom-1 atom-2" d="M 39.9,68.1 L 72.6,62.7" style="fill:none;fill-rule:evenodd;stroke:#000000;stroke-width:2.0px;stroke-linecap:butt;stroke-linejoin:miter;stroke-opacity:1;stroke-dasharray:6,4"/>
<path class="bond-2 atom-2 atom-3" d="M 75.0,56.2 L 100.4,87.1" style="fill:none;fill-rule:evenodd;stroke:#000000;stroke-width:2.0px;stroke-linecap:butt;stroke-linejoin:miter;stroke-opacity:1"/>
<path class="bond-2 atom-2 atom-3" d="M 72.6,62.7 L 93.5,88.3" style="fill:none;fill-rule:evenodd;stroke:#000000;stroke-width:2.0px;stroke-linecap:butt;stroke-linejoin:miter;stroke-opacity:1;stroke-dasharray:6,4"/>
<path class="bond-3 atom-3 atom-4" d="M 98.2,84.5 L 86.1,116.4" style="fill:none;fill-rule:evenodd;stroke:#E5E5E5;stroke-width:2.1px;stroke-linecap:butt;stroke-linejoin:miter;stroke-opacity:1"/>
<path class="bond-3 atom-3 atom-4" d="M 103.8,86.6 L 91.7,118.5" style="fill:none;fill-rule:evenodd;stroke:#E5E5E5;stroke-width:2.1px;stroke-linecap:butt;stroke-linejoin:miter;stroke-opacity:1;stroke-dasharray:6,4"/>
<path class="bond-4 atom-3 atom-5" d="M 100.4,87.1 L 135.8,81.3" style="fill:none;fill-rule:evenodd;stroke:#E5E5E5;stroke-width:2.1px;stroke-linecap:butt;stroke-linejoin:miter;stroke-opacity:1"/>
<path class="bond-5 atom-1 atom-6" d="M 35.5,62.7 L 10.8,32.5" style="fill:none;fill-rule:evenodd;stroke:#E5E5E5;stroke-width:2.1px;stroke-linecap:butt;stroke-linejoin:miter;stroke-opacity:1"/>
<path d="M 73.0,56.5 L 75.0,56.2 L 76.3,57.8" style="fill:none;stroke:#000000;stroke-width:2.0px;stroke-linecap:butt;stroke-linejoin:miter;stroke-opacity:1;"/>
<path class="atom-0" d="M 19.3 98.9 L 21.0 97.2 L 18.8 96.7 L 19.1 95.6 L 21.1 96.6 L 20.8 94.4 L 22.0 94.4 L 21.7 96.6 L 23.8 95.6 L 24.1 96.7 L 21.9 97.1 L 23.5 98.8 L 22.5 99.6 L 21.4 97.4 L 20.3 99.6 L 19.3 98.9 " fill="#191919"/>
<path class="atom-4" d="M 84.1 123.3 L 85.8 121.6 L 83.6 121.2 L 83.9 120.0 L 85.9 121.0 L 85.7 118.8 L 86.9 118.8 L 86.5 121.0 L 88.6 120.1 L 88.9 121.2 L 86.7 121.6 L 88.3 123.3 L 87.3 124.0 L 86.2 121.9 L 85.1 124.0 L 84.1 123.3 " fill="#191919"/>
<path class="atom-5" d="M 137.7 79.4 L 139.3 77.7 L 137.1 77.2 L 137.5 76.1 L 139.5 77.1 L 139.2 74.9 L 140.4 74.9 L 140.1 77.1 L 142.1 76.1 L 142.5 77.2 L 140.3 77.6 L 141.9 79.4 L 140.9 80.1 L 139.8 78.0 L 138.7 80.1 L 137.7 79.4 " fill="#191919"/>
<path class="atom-6" d="M 8.0 30.5 L 9.7 28.8 L 7.5 28.4 L 7.8 27.2 L 9.9 28.3 L 9.6 26.0 L 10.8 26.0 L 10.4 28.2 L 12.5 27.3 L 12.9 28.4 L 10.6 28.8 L 12.2 30.5 L 11.2 31.2 L 10.1 29.1 L 9.0 31.2 L 8.0 30.5 " fill="#191919"/>
</svg>