<svg xmlns="http://www.w3.org/2000/svg" xmlns:rdkit="http://www.rdkit.org/xml" xmlns:xlink="http://www.w3.org/1999/xlink" version="1.1" baseProfile="full" xml:space="preserve" width="150px" height="150px" viewBox="0 0 150 150">
<!-- END OF HEADER -->
<rect style="opacity:1.0;fill:#FFFFFF;stroke:none" width="150.0" height="150.0" x="0.0" y="0.0"> </rect>
<ellipse cx="95.6" cy="54.3" rx="8.9" ry="8.9" class="atom-1" style="fill:#E5E533;fill-rule:evenodd;stroke:#E5E533;stroke-width:1.0px;stroke-linecap:butt;stroke-linejoin:miter;stroke-opacity:1"/>
<ellipse cx="79.2" cy="95.5" rx="8.9" ry="8.9" class="atom-3" style="fill:#9999E5;fill-rule:evenodd;stroke:#9999E5;stroke-width:1.0px;stroke-linecap:butt;stroke-linejoin:miter;stroke-opacity:1"/>
<ellipse cx="35.4" cy="101.9" rx="8.9" ry="8.9" class="atom-5" style="fill:#E5E533;fill-rule:evenodd;stroke:#E5E533;stroke-width:1.0px;stroke-linecap:butt;stroke-linejoin:miter;stroke-opacity:1"/>
<path class="bond-0 atom-0 atom-1" d="M 71.4,18.3 L 99.4,53.8" style="fill:none;fill-rule:evenodd;stroke:#E5E5E5;stroke-width:2.4px;stroke-linecap:butt;stroke-linejoin:miter;stroke-opacity:1"/>
<path class="bond-0 atom-0 atom-1" d="M 66.2,22.4 L 94.2,57.9" style="fill:none;fill-rule:evenodd;stroke:#E5E5E5;stroke-width:2.4px;stroke-linecap:butt;stroke-linejoin:miter;stroke-opacity:1;stroke-dasharray:6,4"/>
<path class="bond-1 atom-1 atom-2" d="M 95.6,54.3 L 135.1,48.5" style="fill:none;fill-rule:evenodd;stroke:#E5E5E5;stroke-width:2.4px;stroke-linecap:butt;stroke-linejoin:miter;stroke-opacity:1"/>
<path class="bond-2 atom-1 atom-3" d="M 95.6,54.3 L 79.2,95.5" style="fill:none;fill-rule:evenodd;stroke:#000000;stroke-width:2.0px;stroke-linecap:butt;stroke-linejoin:miter;stroke-opacity:1"/>
<path class="bond-2 atom-1 atom-3" d="M 88.0,55.4 L 74.5,89.5" style="fill:none;fill-rule:evenodd;stroke:#000000;stroke-width:2.0px;stroke-linecap:butt;stroke-linejoin:miter;stroke-opacity:1;stroke-dasharray:6,4"/>
<path class="bond-3 atom-3 atom-4" d="M 79.2,95.5 L 89.9,109.0" style="fill:none;fill-rule:evenodd;stroke:#000000;stroke-width:2.0px;stroke-linecap:butt;stroke-linejoin:miter;stroke-opacity:1"/>
<path class="bond-3 atom-3 atom-4" d="M 89.9,109.0 L 100.6,122.5" style="fill:none;fill-rule:evenodd;stroke:#FF0000;stroke-width:2.0px;stroke-linecap:butt;stroke-linejoin:miter;stroke-opacity:1"/>
<path class="bond-4 atom-3 atom-5" d="M 79.2,95.5 L 35.4,101.9" style="fill:none;fill-rule:evenodd;stroke:#000000;stroke-width:2.0px;stroke-linecap:butt;stroke-linejoin:miter;stroke-opacity:1"/>
<path class="bond-4 atom-3 atom-5" d="M 74.5,89.5 L 38.2,94.8" style="fill:none;fill-rule:evenodd;stroke:#000000;stroke-width:2.0px;stroke-linecap:butt;stroke-linejoin:miter;stroke-opacity:1;stroke-dasharray:6,4"/>
<path class="bond-5 atom-5 atom-6" d="M 35.4,101.9 L 8.5,68.0" style="fill:none;fill-rule:evenodd;stroke:#E5E5E5;stroke-width:2.4px;stroke-linecap:butt;stroke-linejoin:miter;stroke-opacity:1"/>
<path class="bond-5 atom-5 atom-6" d="M 38.2,94.8 L 13.7,63.8" style="fill:none;fill-rule:evenodd;stroke:#E5E5E5;stroke-width:2.4px;stroke-linecap:butt;stroke-linejoin:miter;stroke-opacity:1;stroke-dasharray:6,4"/>
<path d="M 36.5,101.8 L 35.4,101.9 L 34.7,101.1" style="fill:none;stroke:#000000;stroke-width:2.0px;stroke-linecap:butt;stroke-linejoin:miter;stroke-opacity:1;"/>
<path class="atom-0" d="M 65.8 18.1 L 67.6 16.2 L 65.2 15.7 L 65.5 14.5 L 67.8 15.6 L 67.5 13.1 L 68.8 13.1 L 68.4 15.6 L 70.7 14.5 L 71.1 15.7 L 68.6 16.2 L 70.4 18.1 L 69.3 18.9 L 68.1 16.5 L 66.9 18.9 L 65.8 18.1 " fill="#191919"/>
<path class="atom-2" d="M 137.2 46.5 L 139.0 44.6 L 136.6 44.1 L 136.9 42.9 L 139.2 44.0 L 138.9 41.5 L 140.2 41.5 L 139.8 44.0 L 142.1 42.9 L 142.5 44.1 L 140.0 44.6 L 141.8 46.5 L 140.7 47.3 L 139.5 44.9 L 138.2 47.3 L 137.2 46.5 " fill="#191919"/>
<path class="atom-4" d="M 101.0 130.4 Q 101.0 127.3, 102.5 125.7 Q 104.0 124.0, 106.7 124.0 Q 109.5 124.0, 111.0 125.7 Q 112.5 127.3, 112.5 130.4 Q 112.5 133.4, 111.0 135.2 Q 109.5 136.9, 106.7 136.9 Q 104.0 136.9, 102.5 135.2 Q 101.0 133.4, 101.0 130.4 M 106.7 135.5 Q 108.7 135.5, 109.7 134.2 Q 110.7 132.9, 110.7 130.4 Q 110.7 127.9, 109.7 126.7 Q 108.7 125.4, 106.7 125.4 Q 104.8 125.4, 103.8 126.6 Q 102.8 127.9, 102.8 130.4 Q 102.8 132.9, 103.8 134.2 Q 104.8 135.5, 106.7 135.5 " fill="#FF0000"/>
<path class="atom-4" d="M 114.5 124.1 L 116.2 124.1 L 116.2 129.5 L 122.6 129.5 L 122.6 124.1 L 124.3 124.1 L 124.3 136.7 L 122.6 136.7 L 122.6 130.9 L 116.2 130.9 L 116.2 136.7 L 114.5 136.7 L 114.5 124.1 " fill="#FF0000"/>
<path class="atom-6" d="M 8.1 63.7 L 9.9 61.8 L 7.5 61.3 L 7.9 60.0 L 10.1 61.2 L 9.8 58.7 L 11.1 58.7 L 10.8 61.2 L 13.1 60.1 L 13.4 61.3 L 11.0 61.8 L 12.7 63.7 L 11.7 64.4 L 10.4 62.1 L 9.2 64.4 L 8.1 63.7 " fill="#191919"/>
</svg>