<svg xmlns="http://www.w3.org/2000/svg" xmlns:rdkit="http://www.rdkit.org/xml" xmlns:xlink="http://www.w3.org/1999/xlink" version="1.1" baseProfile="full" xml:space="preserve" width="150px" height="150px" viewBox="0 0 150 150">
<!-- END OF HEADER -->
<rect style="opacity:1.0;fill:#FFFFFF;stroke:none" width="150.0" height="150.0" x="0.0" y="0.0"> </rect>
<ellipse cx="104.6" cy="99.9" rx="10.5" ry="10.5" class="atom-1" style="fill:#E5E533;fill-rule:evenodd;stroke:#E5E533;stroke-width:1.0px;stroke-linecap:butt;stroke-linejoin:miter;stroke-opacity:1"/>
<ellipse cx="52.4" cy="103.8" rx="10.5" ry="10.5" class="atom-2" style="fill:#9999E5;fill-rule:evenodd;stroke:#9999E5;stroke-width:1.0px;stroke-linecap:butt;stroke-linejoin:miter;stroke-opacity:1"/>
<ellipse cx="22.9" cy="60.5" rx="10.5" ry="10.5" class="atom-3" style="fill:#E5E533;fill-rule:evenodd;stroke:#E5E533;stroke-width:1.0px;stroke-linecap:butt;stroke-linejoin:miter;stroke-opacity:1"/>
<path class="bond-0 atom-0 atom-1" d="M 128.8,135.6 L 104.6,99.9" style="fill:none;fill-rule:evenodd;stroke:#E5E5E5;stroke-width:2.8px;stroke-linecap:butt;stroke-linejoin:miter;stroke-opacity:1"/>
<path class="bond-1 atom-1 atom-2" d="M 104.6,99.9 L 52.4,103.8" style="fill:none;fill-rule:evenodd;stroke:#000000;stroke-width:2.0px;stroke-linecap:butt;stroke-linejoin:miter;stroke-opacity:1"/>
<path class="bond-1 atom-1 atom-2" d="M 99.5,92.4 L 56.3,95.6" style="fill:none;fill-rule:evenodd;stroke:#000000;stroke-width:2.0px;stroke-linecap:butt;stroke-linejoin:miter;stroke-opacity:1;stroke-dasharray:6,4"/>
<path class="bond-2 atom-2 atom-3" d="M 52.4,103.8 L 22.9,60.5" style="fill:none;fill-rule:evenodd;stroke:#000000;stroke-width:2.0px;stroke-linecap:butt;stroke-linejoin:miter;stroke-opacity:1"/>
<path class="bond-2 atom-2 atom-3" d="M 56.3,95.6 L 32.0,59.8" style="fill:none;fill-rule:evenodd;stroke:#000000;stroke-width:2.0px;stroke-linecap:butt;stroke-linejoin:miter;stroke-opacity:1;stroke-dasharray:6,4"/>
<path class="bond-3 atom-3 atom-4" d="M 22.9,60.5 L 45.2,14.3" style="fill:none;fill-rule:evenodd;stroke:#E5E5E5;stroke-width:2.8px;stroke-linecap:butt;stroke-linejoin:miter;stroke-opacity:1"/>
<path class="bond-3 atom-3 atom-4" d="M 32.0,59.8 L 52.3,17.7" style="fill:none;fill-rule:evenodd;stroke:#E5E5E5;stroke-width:2.8px;stroke-linecap:butt;stroke-linejoin:miter;stroke-opacity:1;stroke-dasharray:6,4"/>
<path class="bond-4 atom-5 atom-1" d="M 130.4,55.5 L 107.2,103.7" style="fill:none;fill-rule:evenodd;stroke:#E5E5E5;stroke-width:2.8px;stroke-linecap:butt;stroke-linejoin:miter;stroke-opacity:1"/>
<path class="bond-4 atom-5 atom-1" d="M 123.4,52.1 L 100.1,100.3" style="fill:none;fill-rule:evenodd;stroke:#E5E5E5;stroke-width:2.8px;stroke-linecap:butt;stroke-linejoin:miter;stroke-opacity:1;stroke-dasharray:6,4"/>
<path d="M 55.0,103.6 L 52.4,103.8 L 50.9,101.6" style="fill:none;stroke:#000000;stroke-width:2.0px;stroke-linecap:butt;stroke-linejoin:miter;stroke-opacity:1;"/>
<path d="M 23.6,61.6 L 22.9,60.5 L 23.5,59.3" style="fill:none;stroke:#000000;stroke-width:2.0px;stroke-linecap:butt;stroke-linejoin:miter;stroke-opacity:1;"/>
<path class="atom-0" d="M 131.3 141.6 L 133.4 139.4 L 130.5 138.8 L 131.0 137.3 L 133.6 138.6 L 133.3 135.7 L 134.8 135.7 L 134.4 138.6 L 137.1 137.4 L 137.6 138.8 L 134.6 139.3 L 136.7 141.6 L 135.4 142.5 L 134.0 139.7 L 132.5 142.5 L 131.3 141.6 " fill="#191919"/>
<path class="atom-4" d="M 46.4 13.4 L 48.6 11.2 L 45.7 10.6 L 46.2 9.1 L 48.8 10.4 L 48.4 7.5 L 50.0 7.5 L 49.6 10.4 L 52.3 9.2 L 52.7 10.6 L 49.8 11.1 L 51.9 13.4 L 50.6 14.3 L 49.2 11.5 L 47.7 14.3 L 46.4 13.4 " fill="#191919"/>
<path class="atom-5" d="M 124.6 51.1 L 126.8 48.9 L 123.9 48.3 L 124.3 46.8 L 127.0 48.2 L 126.6 45.3 L 128.2 45.2 L 127.7 48.2 L 130.4 46.9 L 130.9 48.3 L 128.0 48.9 L 130.0 51.1 L 128.8 52.0 L 127.3 49.3 L 125.9 52.0 L 124.6 51.1 " fill="#191919"/>
</svg>