<svg xmlns="http://www.w3.org/2000/svg" xmlns:rdkit="http://www.rdkit.org/xml" xmlns:xlink="http://www.w3.org/1999/xlink" version="1.1" baseProfile="full" xml:space="preserve" width="150px" height="150px" viewBox="0 0 150 150">
<!-- END OF HEADER -->
<rect style="opacity:1.0;fill:#FFFFFF;stroke:none" width="150.0" height="150.0" x="0.0" y="0.0"> </rect>
<ellipse cx="118.2" cy="97.0" rx="8.8" ry="8.8" class="atom-1" style="fill:#E5E533;fill-rule:evenodd;stroke:#E5E533;stroke-width:1.0px;stroke-linecap:butt;stroke-linejoin:miter;stroke-opacity:1"/>
<ellipse cx="74.2" cy="94.6" rx="8.8" ry="8.8" class="atom-2" style="fill:#9999E5;fill-rule:evenodd;stroke:#9999E5;stroke-width:1.0px;stroke-linecap:butt;stroke-linejoin:miter;stroke-opacity:1"/>
<ellipse cx="54.4" cy="55.3" rx="8.8" ry="8.8" class="atom-3" style="fill:#E5E533;fill-rule:evenodd;stroke:#E5E533;stroke-width:1.0px;stroke-linecap:butt;stroke-linejoin:miter;stroke-opacity:1"/>
<path class="bond-0 atom-0 atom-1" d="M 141.8,61.0 L 118.2,97.0" style="fill:none;fill-rule:evenodd;stroke:#E5E5E5;stroke-width:2.3px;stroke-linecap:butt;stroke-linejoin:miter;stroke-opacity:1"/>
<path class="bond-0 atom-0 atom-1" d="M 136.3,57.4 L 114.8,90.2" style="fill:none;fill-rule:evenodd;stroke:#E5E5E5;stroke-width:2.3px;stroke-linecap:butt;stroke-linejoin:miter;stroke-opacity:1;stroke-dasharray:6,4"/>
<path class="bond-1 atom-1 atom-2" d="M 118.2,97.0 L 74.2,94.6" style="fill:none;fill-rule:evenodd;stroke:#000000;stroke-width:2.0px;stroke-linecap:butt;stroke-linejoin:miter;stroke-opacity:1"/>
<path class="bond-1 atom-1 atom-2" d="M 114.8,90.2 L 78.4,88.2" style="fill:none;fill-rule:evenodd;stroke:#000000;stroke-width:2.0px;stroke-linecap:butt;stroke-linejoin:miter;stroke-opacity:1;stroke-dasharray:6,4"/>
<path class="bond-2 atom-2 atom-3" d="M 74.2,94.6 L 54.4,55.3" style="fill:none;fill-rule:evenodd;stroke:#000000;stroke-width:2.0px;stroke-linecap:butt;stroke-linejoin:miter;stroke-opacity:1"/>
<path class="bond-2 atom-2 atom-3" d="M 78.4,88.2 L 62.0,55.7" style="fill:none;fill-rule:evenodd;stroke:#000000;stroke-width:2.0px;stroke-linecap:butt;stroke-linejoin:miter;stroke-opacity:1;stroke-dasharray:6,4"/>
<path class="bond-3 atom-3 atom-4" d="M 56.1,58.7 L 80.7,21.1" style="fill:none;fill-rule:evenodd;stroke:#E5E5E5;stroke-width:2.3px;stroke-linecap:butt;stroke-linejoin:miter;stroke-opacity:1"/>
<path class="bond-3 atom-3 atom-4" d="M 50.6,55.1 L 75.2,17.4" style="fill:none;fill-rule:evenodd;stroke:#E5E5E5;stroke-width:2.3px;stroke-linecap:butt;stroke-linejoin:miter;stroke-opacity:1;stroke-dasharray:6,4"/>
<path class="bond-4 atom-3 atom-5" d="M 54.4,55.3 L 14.9,53.1" style="fill:none;fill-rule:evenodd;stroke:#E5E5E5;stroke-width:2.3px;stroke-linecap:butt;stroke-linejoin:miter;stroke-opacity:1"/>
<path class="bond-5 atom-2 atom-6" d="M 74.2,94.6 L 64.7,109.1" style="fill:none;fill-rule:evenodd;stroke:#000000;stroke-width:2.0px;stroke-linecap:butt;stroke-linejoin:miter;stroke-opacity:1"/>
<path class="bond-5 atom-2 atom-6" d="M 64.7,109.1 L 55.2,123.6" style="fill:none;fill-rule:evenodd;stroke:#FF0000;stroke-width:2.0px;stroke-linecap:butt;stroke-linejoin:miter;stroke-opacity:1"/>
<path d="M 118.8,96.1 L 118.2,97.0 L 117.1,97.0" style="fill:none;stroke:#E5E5E5;stroke-width:2.3px;stroke-linecap:butt;stroke-linejoin:miter;stroke-opacity:1;"/>
<path class="atom-0" d="M 137.2 57.0 L 139.0 55.1 L 136.6 54.6 L 137.0 53.4 L 139.2 54.5 L 138.9 52.1 L 140.2 52.1 L 139.8 54.5 L 142.1 53.4 L 142.5 54.6 L 140.0 55.1 L 141.8 57.0 L 140.7 57.8 L 139.5 55.4 L 138.3 57.8 L 137.2 57.0 " fill="#191919"/>
<path class="atom-4" d="M 76.2 17.0 L 78.0 15.2 L 75.6 14.7 L 75.9 13.4 L 78.2 14.6 L 77.9 12.1 L 79.2 12.1 L 78.8 14.5 L 81.1 13.5 L 81.5 14.7 L 79.0 15.1 L 80.8 17.0 L 79.7 17.8 L 78.5 15.5 L 77.2 17.8 L 76.2 17.0 " fill="#191919"/>
<path class="atom-5" d="M 8.1 51.4 L 9.9 49.6 L 7.5 49.1 L 7.9 47.8 L 10.1 48.9 L 9.8 46.5 L 11.1 46.5 L 10.7 48.9 L 13.0 47.9 L 13.4 49.1 L 10.9 49.5 L 12.7 51.4 L 11.6 52.2 L 10.4 49.8 L 9.2 52.2 L 8.1 51.4 " fill="#191919"/>
<path class="atom-6" d="M 32.1 125.2 L 33.8 125.2 L 33.8 130.5 L 40.2 130.5 L 40.2 125.2 L 41.9 125.2 L 41.9 137.7 L 40.2 137.7 L 40.2 131.9 L 33.8 131.9 L 33.8 137.7 L 32.1 137.7 L 32.1 125.2 " fill="#FF0000"/>
<path class="atom-6" d="M 44.4 131.4 Q 44.4 128.4, 45.9 126.8 Q 47.4 125.1, 50.1 125.1 Q 52.9 125.1, 54.4 126.8 Q 55.9 128.4, 55.9 131.4 Q 55.9 134.5, 54.4 136.2 Q 52.9 137.9, 50.1 137.9 Q 47.4 137.9, 45.9 136.2 Q 44.4 134.5, 44.4 131.4 M 50.1 136.5 Q 52.0 136.5, 53.1 135.2 Q 54.1 133.9, 54.1 131.4 Q 54.1 129.0, 53.1 127.8 Q 52.0 126.5, 50.1 126.5 Q 48.2 126.5, 47.2 127.7 Q 46.2 129.0, 46.2 131.4 Q 46.2 134.0, 47.2 135.2 Q 48.2 136.5, 50.1 136.5 " fill="#FF0000"/>
</svg>