<svg xmlns="http://www.w3.org/2000/svg" xmlns:rdkit="http://www.rdkit.org/xml" xmlns:xlink="http://www.w3.org/1999/xlink" version="1.1" baseProfile="full" xml:space="preserve" width="150px" height="150px" viewBox="0 0 150 150">
<!-- END OF HEADER -->
<rect style="opacity:1.0;fill:#FFFFFF;stroke:none" width="150.0" height="150.0" x="0.0" y="0.0"> </rect>
<ellipse cx="71.0" cy="73.3" rx="11.9" ry="11.9" class="atom-1" style="fill:#9999E5;fill-rule:evenodd;stroke:#9999E5;stroke-width:1.0px;stroke-linecap:butt;stroke-linejoin:miter;stroke-opacity:1"/>
<ellipse cx="130.6" cy="73.7" rx="11.9" ry="11.9" class="atom-2" style="fill:#CCCCCC;fill-rule:evenodd;stroke:#CCCCCC;stroke-width:1.0px;stroke-linecap:butt;stroke-linejoin:miter;stroke-opacity:1"/>
<ellipse cx="41.0" cy="124.7" rx="11.9" ry="11.9" class="atom-5" style="fill:#CCCCCC;fill-rule:evenodd;stroke:#CCCCCC;stroke-width:1.0px;stroke-linecap:butt;stroke-linejoin:miter;stroke-opacity:1"/>
<path class="bond-0 atom-0 atom-1" d="M 68.3,30.0 L 71.0,73.3" style="fill:none;fill-rule:evenodd;stroke:#000000;stroke-width:2.0px;stroke-linecap:butt;stroke-linejoin:miter;stroke-opacity:1"/>
<path class="bond-1 atom-1 atom-2" d="M 71.0,73.3 L 130.6,73.7" style="fill:none;fill-rule:evenodd;stroke:#000000;stroke-width:2.0px;stroke-linecap:butt;stroke-linejoin:miter;stroke-opacity:1"/>
<path class="bond-2 atom-2 atom-3" d="M 130.6,73.7 L 101.7,22.9" style="fill:none;fill-rule:evenodd;stroke:#E5E5E5;stroke-width:3.2px;stroke-linecap:butt;stroke-linejoin:miter;stroke-opacity:1"/>
<path class="bond-3 atom-4 atom-5" d="M 12.0,74.0 L 41.0,124.7" style="fill:none;fill-rule:evenodd;stroke:#E5E5E5;stroke-width:3.2px;stroke-linecap:butt;stroke-linejoin:miter;stroke-opacity:1"/>
<path class="bond-4 atom-5 atom-6" d="M 41.0,124.7 L 94.7,125.0" style="fill:none;fill-rule:evenodd;stroke:#E5E5E5;stroke-width:3.2px;stroke-linecap:butt;stroke-linejoin:miter;stroke-opacity:1"/>
<path class="bond-5 atom-1 atom-7" d="M 71.0,73.3 L 35.2,48.8" style="fill:none;fill-rule:evenodd;stroke:#000000;stroke-width:2.0px;stroke-linecap:butt;stroke-linejoin:miter;stroke-opacity:1"/>
<path class="bond-6 atom-5 atom-1" d="M 41.0,124.7 L 71.0,73.3" style="fill:none;fill-rule:evenodd;stroke:#000000;stroke-width:2.0px;stroke-linecap:butt;stroke-linejoin:miter;stroke-opacity:1"/>
<path class="bond-7 atom-6 atom-2" d="M 106.3,115.1 L 130.6,73.7" style="fill:none;fill-rule:evenodd;stroke:#E5E5E5;stroke-width:3.2px;stroke-linecap:butt;stroke-linejoin:miter;stroke-opacity:1"/>
<path class="atom-3" d="M 97.9 20.1 L 100.4 17.5 L 97.1 16.9 L 97.6 15.2 L 100.6 16.7 L 100.2 13.4 L 102.0 13.4 L 101.5 16.7 L 104.6 15.2 L 105.1 16.9 L 101.8 17.5 L 104.2 20.0 L 102.7 21.1 L 101.1 17.9 L 99.4 21.1 L 97.9 20.1 " fill="#191919"/>
<path class="atom-4" d="M 8.3 71.1 L 10.8 68.6 L 7.5 67.9 L 8.0 66.2 L 11.0 67.7 L 10.6 64.4 L 12.4 64.4 L 11.9 67.7 L 15.0 66.3 L 15.5 67.9 L 12.1 68.5 L 14.5 71.1 L 13.1 72.1 L 11.4 69.0 L 9.8 72.1 L 8.3 71.1 " fill="#191919"/>
<path class="atom-6" d="M 97.3 123.2 L 99.8 120.7 L 96.5 120.0 L 97.0 118.3 L 100.1 119.8 L 99.6 116.5 L 101.4 116.5 L 100.9 119.8 L 104.0 118.4 L 104.5 120.0 L 101.2 120.6 L 103.6 123.2 L 102.1 124.2 L 100.5 121.1 L 98.8 124.2 L 97.3 123.2 " fill="#191919"/>
</svg>