<svg xmlns="http://www.w3.org/2000/svg" xmlns:rdkit="http://www.rdkit.org/xml" xmlns:xlink="http://www.w3.org/1999/xlink" version="1.1" baseProfile="full" xml:space="preserve" width="150px" height="150px" viewBox="0 0 150 150">
<!-- END OF HEADER -->
<rect style="opacity:1.0;fill:#FFFFFF;stroke:none" width="150.0" height="150.0" x="0.0" y="0.0"> </rect>
<ellipse cx="21.1" cy="40.6" rx="13.6" ry="13.6" class="atom-0" style="fill:#9999E5;fill-rule:evenodd;stroke:#9999E5;stroke-width:1.0px;stroke-linecap:butt;stroke-linejoin:miter;stroke-opacity:1"/>
<path class="bond-0 atom-0 atom-1" d="M 21.1,40.6 L 83.7,67.1" style="fill:none;fill-rule:evenodd;stroke:#000000;stroke-width:2.0px;stroke-linecap:butt;stroke-linejoin:miter;stroke-opacity:1"/>
<path class="bond-1 atom-1 atom-2" d="M 84.4,73.0 L 139.3,31.5" style="fill:none;fill-rule:evenodd;stroke:#E5E5E5;stroke-width:3.6px;stroke-linecap:butt;stroke-linejoin:miter;stroke-opacity:1"/>
<path class="bond-1 atom-1 atom-2" d="M 78.3,64.8 L 133.2,23.4" style="fill:none;fill-rule:evenodd;stroke:#E5E5E5;stroke-width:3.6px;stroke-linecap:butt;stroke-linejoin:miter;stroke-opacity:1"/>
<path class="bond-2 atom-1 atom-3" d="M 83.7,67.1 L 90.5,122.5" style="fill:none;fill-rule:evenodd;stroke:#E5E5E5;stroke-width:3.6px;stroke-linecap:butt;stroke-linejoin:miter;stroke-opacity:1"/>
<path d="M 82.1,66.5 L 83.7,67.1 L 83.8,68.5" style="fill:none;stroke:#000000;stroke-width:2.0px;stroke-linecap:butt;stroke-linejoin:miter;stroke-opacity:1;"/>
<path class="atom-2" d="M 134.3 24.0 L 137.1 21.2 L 133.4 20.4 L 134.0 18.5 L 137.4 20.2 L 136.9 16.4 L 139.0 16.4 L 138.4 20.2 L 141.9 18.5 L 142.5 20.4 L 138.7 21.1 L 141.4 24.0 L 139.8 25.2 L 137.9 21.6 L 136.0 25.2 L 134.3 24.0 " fill="#191919"/>
<path class="atom-3" d="M 88.4 132.4 L 91.2 129.5 L 87.4 128.8 L 88.0 126.9 L 91.5 128.6 L 91.0 124.8 L 93.0 124.8 L 92.4 128.6 L 95.9 126.9 L 96.5 128.8 L 92.7 129.5 L 95.4 132.4 L 93.8 133.6 L 91.9 130.0 L 90.0 133.6 L 88.4 132.4 " fill="#191919"/>
</svg>