<svg xmlns="http://www.w3.org/2000/svg" xmlns:rdkit="http://www.rdkit.org/xml" xmlns:xlink="http://www.w3.org/1999/xlink" version="1.1" baseProfile="full" xml:space="preserve" width="150px" height="150px" viewBox="0 0 150 150">
<!-- END OF HEADER -->
<rect style="opacity:1.0;fill:#FFFFFF;stroke:none" width="150.0" height="150.0" x="0.0" y="0.0"> </rect>
<ellipse cx="118.9" cy="95.0" rx="6.1" ry="6.1" class="atom-1" style="fill:#CCCCCC;fill-rule:evenodd;stroke:#CCCCCC;stroke-width:1.0px;stroke-linecap:butt;stroke-linejoin:miter;stroke-opacity:1"/>
<ellipse cx="130.2" cy="66.5" rx="6.1" ry="6.1" class="atom-2" style="fill:#CCCCCC;fill-rule:evenodd;stroke:#CCCCCC;stroke-width:1.0px;stroke-linecap:butt;stroke-linejoin:miter;stroke-opacity:1"/>
<ellipse cx="39.0" cy="90.0" rx="6.1" ry="6.1" class="atom-5" style="fill:#CCCCCC;fill-rule:evenodd;stroke:#CCCCCC;stroke-width:1.0px;stroke-linecap:butt;stroke-linejoin:miter;stroke-opacity:1"/>
<ellipse cx="62.6" cy="109.5" rx="6.1" ry="6.1" class="atom-7" style="fill:#CCCCCC;fill-rule:evenodd;stroke:#CCCCCC;stroke-width:1.0px;stroke-linecap:butt;stroke-linejoin:miter;stroke-opacity:1"/>
<ellipse cx="93.1" cy="111.4" rx="6.1" ry="6.1" class="atom-8" style="fill:#9999E5;fill-rule:evenodd;stroke:#9999E5;stroke-width:1.0px;stroke-linecap:butt;stroke-linejoin:miter;stroke-opacity:1"/>
<path class="bond-0 atom-0 atom-1" d="M 142.5,114.5 L 118.9,95.0" style="fill:none;fill-rule:evenodd;stroke:#000000;stroke-width:2.0px;stroke-linecap:butt;stroke-linejoin:miter;stroke-opacity:1"/>
<path class="bond-1 atom-1 atom-2" d="M 118.9,95.0 L 130.2,66.5" style="fill:none;fill-rule:evenodd;stroke:#000000;stroke-width:2.0px;stroke-linecap:butt;stroke-linejoin:miter;stroke-opacity:1"/>
<path class="bond-1 atom-1 atom-2" d="M 115.2,91.9 L 125.4,66.2" style="fill:none;fill-rule:evenodd;stroke:#000000;stroke-width:2.0px;stroke-linecap:butt;stroke-linejoin:miter;stroke-opacity:1"/>
<path class="bond-2 atom-2 atom-3" d="M 130.2,66.5 L 122.7,37.5" style="fill:none;fill-rule:evenodd;stroke:#E5E5E5;stroke-width:1.6px;stroke-linecap:butt;stroke-linejoin:miter;stroke-opacity:1"/>
<path class="bond-3 atom-4 atom-5" d="M 31.5,60.9 L 39.0,90.0" style="fill:none;fill-rule:evenodd;stroke:#E5E5E5;stroke-width:1.6px;stroke-linecap:butt;stroke-linejoin:miter;stroke-opacity:1"/>
<path class="bond-4 atom-5 atom-6" d="M 39.0,90.0 L 11.6,82.3" style="fill:none;fill-rule:evenodd;stroke:#E5E5E5;stroke-width:1.6px;stroke-linecap:butt;stroke-linejoin:miter;stroke-opacity:1"/>
<path class="bond-5 atom-5 atom-7" d="M 39.0,90.0 L 62.6,109.5" style="fill:none;fill-rule:evenodd;stroke:#000000;stroke-width:2.0px;stroke-linecap:butt;stroke-linejoin:miter;stroke-opacity:1"/>
<path class="bond-6 atom-7 atom-8" d="M 62.6,109.5 L 93.1,111.4" style="fill:none;fill-rule:evenodd;stroke:#000000;stroke-width:2.0px;stroke-linecap:butt;stroke-linejoin:miter;stroke-opacity:1"/>
<path class="bond-7 atom-8 atom-1" d="M 93.1,111.4 L 118.9,95.0" style="fill:none;fill-rule:evenodd;stroke:#000000;stroke-width:2.0px;stroke-linecap:butt;stroke-linejoin:miter;stroke-opacity:1"/>
<path d="M 129.9,67.2 L 130.2,66.5 L 130.0,65.8" style="fill:none;stroke:#000000;stroke-width:2.0px;stroke-linecap:butt;stroke-linejoin:miter;stroke-opacity:1;"/>
<path d="M 61.4,108.5 L 62.6,109.5 L 64.1,109.6" style="fill:none;stroke:#000000;stroke-width:2.0px;stroke-linecap:butt;stroke-linejoin:miter;stroke-opacity:1;"/>
<path d="M 91.6,111.3 L 93.1,111.4 L 94.4,110.6" style="fill:none;stroke:#000000;stroke-width:2.0px;stroke-linecap:butt;stroke-linejoin:miter;stroke-opacity:1;"/>
<path class="atom-3" d="M 120.9 35.9 L 122.2 34.7 L 120.5 34.3 L 120.8 33.4 L 122.3 34.2 L 122.1 32.5 L 123.0 32.5 L 122.8 34.2 L 124.3 33.5 L 124.6 34.3 L 122.9 34.6 L 124.1 35.9 L 123.4 36.5 L 122.5 34.9 L 121.7 36.5 L 120.9 35.9 " fill="#191919"/>
<path class="atom-4" d="M 29.8 59.4 L 31.0 58.1 L 29.3 57.7 L 29.6 56.9 L 31.2 57.7 L 30.9 56.0 L 31.9 55.9 L 31.6 57.6 L 33.2 56.9 L 33.4 57.7 L 31.7 58.1 L 33.0 59.4 L 32.2 59.9 L 31.4 58.3 L 30.5 59.9 L 29.8 59.4 " fill="#191919"/>
<path class="atom-6" d="M 7.9 80.8 L 9.2 79.5 L 7.5 79.1 L 7.8 78.3 L 9.3 79.1 L 9.1 77.4 L 10.0 77.3 L 9.8 79.0 L 11.3 78.3 L 11.6 79.1 L 9.9 79.5 L 11.1 80.8 L 10.4 81.3 L 9.5 79.7 L 8.7 81.3 L 7.9 80.8 " fill="#191919"/>
</svg>