<svg xmlns="http://www.w3.org/2000/svg" xmlns:rdkit="http://www.rdkit.org/xml" xmlns:xlink="http://www.w3.org/1999/xlink" version="1.1" baseProfile="full" xml:space="preserve" width="150px" height="150px" viewBox="0 0 150 150">
<!-- END OF HEADER -->
<rect style="opacity:1.0;fill:#FFFFFF;stroke:none" width="150.0" height="150.0" x="0.0" y="0.0"> </rect>
<ellipse cx="54.4" cy="99.1" rx="8.9" ry="8.9" class="atom-1" style="fill:#E5E533;fill-rule:evenodd;stroke:#E5E533;stroke-width:1.0px;stroke-linecap:butt;stroke-linejoin:miter;stroke-opacity:1"/>
<ellipse cx="70.8" cy="57.9" rx="8.9" ry="8.9" class="atom-2" style="fill:#9999E5;fill-rule:evenodd;stroke:#9999E5;stroke-width:1.0px;stroke-linecap:butt;stroke-linejoin:miter;stroke-opacity:1"/>
<ellipse cx="114.6" cy="51.5" rx="8.9" ry="8.9" class="atom-3" style="fill:#E5E533;fill-rule:evenodd;stroke:#E5E533;stroke-width:1.0px;stroke-linecap:butt;stroke-linejoin:miter;stroke-opacity:1"/>
<path class="bond-0 atom-0 atom-1" d="M 14.9,104.9 L 54.4,99.1" style="fill:none;fill-rule:evenodd;stroke:#E5E5E5;stroke-width:2.4px;stroke-linecap:butt;stroke-linejoin:miter;stroke-opacity:1"/>
<path class="bond-1 atom-1 atom-2" d="M 54.4,99.1 L 70.8,57.9" style="fill:none;fill-rule:evenodd;stroke:#000000;stroke-width:2.0px;stroke-linecap:butt;stroke-linejoin:miter;stroke-opacity:1"/>
<path class="bond-1 atom-1 atom-2" d="M 49.6,93.1 L 63.1,59.0" style="fill:none;fill-rule:evenodd;stroke:#000000;stroke-width:2.0px;stroke-linecap:butt;stroke-linejoin:miter;stroke-opacity:1;stroke-dasharray:6,4"/>
<path class="bond-2 atom-2 atom-3" d="M 70.8,57.9 L 114.6,51.5" style="fill:none;fill-rule:evenodd;stroke:#000000;stroke-width:2.0px;stroke-linecap:butt;stroke-linejoin:miter;stroke-opacity:1"/>
<path class="bond-2 atom-2 atom-3" d="M 75.5,63.9 L 111.8,58.6" style="fill:none;fill-rule:evenodd;stroke:#000000;stroke-width:2.0px;stroke-linecap:butt;stroke-linejoin:miter;stroke-opacity:1;stroke-dasharray:6,4"/>
<path class="bond-3 atom-3 atom-4" d="M 114.6,51.5 L 137.7,80.7" style="fill:none;fill-rule:evenodd;stroke:#E5E5E5;stroke-width:2.4px;stroke-linecap:butt;stroke-linejoin:miter;stroke-opacity:1"/>
<path class="bond-3 atom-3 atom-4" d="M 111.8,58.6 L 132.5,84.8" style="fill:none;fill-rule:evenodd;stroke:#E5E5E5;stroke-width:2.4px;stroke-linecap:butt;stroke-linejoin:miter;stroke-opacity:1;stroke-dasharray:6,4"/>
<path class="bond-4 atom-2 atom-5" d="M 70.8,57.9 L 60.2,44.5" style="fill:none;fill-rule:evenodd;stroke:#000000;stroke-width:2.0px;stroke-linecap:butt;stroke-linejoin:miter;stroke-opacity:1"/>
<path class="bond-4 atom-2 atom-5" d="M 60.2,44.5 L 49.6,31.1" style="fill:none;fill-rule:evenodd;stroke:#FF0000;stroke-width:2.0px;stroke-linecap:butt;stroke-linejoin:miter;stroke-opacity:1"/>
<path class="bond-5 atom-6 atom-1" d="M 74.8,130.4 L 50.6,99.7" style="fill:none;fill-rule:evenodd;stroke:#E5E5E5;stroke-width:2.4px;stroke-linecap:butt;stroke-linejoin:miter;stroke-opacity:1"/>
<path class="bond-5 atom-6 atom-1" d="M 80.0,126.2 L 55.8,95.5" style="fill:none;fill-rule:evenodd;stroke:#E5E5E5;stroke-width:2.4px;stroke-linecap:butt;stroke-linejoin:miter;stroke-opacity:1;stroke-dasharray:6,4"/>
<path d="M 113.5,51.6 L 114.6,51.5 L 115.2,52.2" style="fill:none;stroke:#000000;stroke-width:2.0px;stroke-linecap:butt;stroke-linejoin:miter;stroke-opacity:1;"/>
<path class="atom-0" d="M 8.1 104.1 L 9.9 102.2 L 7.5 101.7 L 7.9 100.5 L 10.1 101.6 L 9.8 99.1 L 11.1 99.1 L 10.8 101.6 L 13.1 100.5 L 13.4 101.7 L 11.0 102.2 L 12.7 104.1 L 11.7 104.9 L 10.4 102.5 L 9.2 104.9 L 8.1 104.1 " fill="#191919"/>
<path class="atom-4" d="M 137.2 86.9 L 139.0 85.1 L 136.6 84.6 L 136.9 83.3 L 139.2 84.4 L 138.9 82.0 L 140.2 82.0 L 139.8 84.4 L 142.1 83.4 L 142.5 84.6 L 140.0 85.0 L 141.8 86.9 L 140.7 87.7 L 139.5 85.4 L 138.2 87.7 L 137.2 86.9 " fill="#191919"/>
<path class="atom-5" d="M 25.1 16.9 L 26.8 16.9 L 26.8 22.2 L 33.2 22.2 L 33.2 16.9 L 34.9 16.9 L 34.9 29.4 L 33.2 29.4 L 33.2 23.6 L 26.8 23.6 L 26.8 29.4 L 25.1 29.4 L 25.1 16.9 " fill="#FF0000"/>
<path class="atom-5" d="M 37.5 23.1 Q 37.5 20.1, 39.0 18.4 Q 40.5 16.7, 43.3 16.7 Q 46.0 16.7, 47.5 18.4 Q 49.0 20.1, 49.0 23.1 Q 49.0 26.2, 47.5 27.9 Q 46.0 29.6, 43.3 29.6 Q 40.5 29.6, 39.0 27.9 Q 37.5 26.2, 37.5 23.1 M 43.3 28.2 Q 45.2 28.2, 46.2 26.9 Q 47.2 25.6, 47.2 23.1 Q 47.2 20.7, 46.2 19.4 Q 45.2 18.2, 43.3 18.2 Q 41.3 18.2, 40.3 19.4 Q 39.3 20.6, 39.3 23.1 Q 39.3 25.7, 40.3 26.9 Q 41.3 28.2, 43.3 28.2 " fill="#FF0000"/>
<path class="atom-6" d="M 79.5 132.5 L 81.3 130.6 L 78.9 130.1 L 79.3 128.9 L 81.5 130.0 L 81.2 127.5 L 82.5 127.5 L 82.2 130.0 L 84.4 128.9 L 84.8 130.1 L 82.3 130.6 L 84.1 132.5 L 83.0 133.3 L 81.8 130.9 L 80.6 133.3 L 79.5 132.5 " fill="#191919"/>
</svg>