<svg xmlns="http://www.w3.org/2000/svg" xmlns:rdkit="http://www.rdkit.org/xml" xmlns:xlink="http://www.w3.org/1999/xlink" version="1.1" baseProfile="full" xml:space="preserve" width="150px" height="150px" viewBox="0 0 150 150">
<!-- END OF HEADER -->
<rect style="opacity:1.0;fill:#FFFFFF;stroke:none" width="150.0" height="150.0" x="0.0" y="0.0"> </rect>
<ellipse cx="53.9" cy="37.7" rx="8.6" ry="8.6" class="atom-1" style="fill:#E5E533;fill-rule:evenodd;stroke:#E5E533;stroke-width:1.0px;stroke-linecap:butt;stroke-linejoin:miter;stroke-opacity:1"/>
<ellipse cx="75.2" cy="75.1" rx="8.6" ry="8.6" class="atom-2" style="fill:#9999E5;fill-rule:evenodd;stroke:#9999E5;stroke-width:1.0px;stroke-linecap:butt;stroke-linejoin:miter;stroke-opacity:1"/>
<ellipse cx="53.4" cy="112.3" rx="8.6" ry="8.6" class="atom-3" style="fill:#E5E533;fill-rule:evenodd;stroke:#E5E533;stroke-width:1.0px;stroke-linecap:butt;stroke-linejoin:miter;stroke-opacity:1"/>
<path class="bond-0 atom-0 atom-1" d="M 15.1,37.5 L 53.9,37.7" style="fill:none;fill-rule:evenodd;stroke:#E5E5E5;stroke-width:2.3px;stroke-linecap:butt;stroke-linejoin:miter;stroke-opacity:1"/>
<path class="bond-0 atom-0 atom-1" d="M 15.1,43.9 L 50.1,44.1" style="fill:none;fill-rule:evenodd;stroke:#E5E5E5;stroke-width:2.3px;stroke-linecap:butt;stroke-linejoin:miter;stroke-opacity:1;stroke-dasharray:6,4"/>
<path class="bond-1 atom-1 atom-2" d="M 53.9,37.7 L 75.2,75.1" style="fill:none;fill-rule:evenodd;stroke:#000000;stroke-width:2.0px;stroke-linecap:butt;stroke-linejoin:miter;stroke-opacity:1"/>
<path class="bond-1 atom-1 atom-2" d="M 50.1,44.1 L 67.8,75.1" style="fill:none;fill-rule:evenodd;stroke:#000000;stroke-width:2.0px;stroke-linecap:butt;stroke-linejoin:miter;stroke-opacity:1;stroke-dasharray:6,4"/>
<path class="bond-2 atom-2 atom-3" d="M 75.2,75.1 L 53.4,112.3" style="fill:none;fill-rule:evenodd;stroke:#000000;stroke-width:2.0px;stroke-linecap:butt;stroke-linejoin:miter;stroke-opacity:1"/>
<path class="bond-2 atom-2 atom-3" d="M 67.8,75.1 L 49.8,105.8" style="fill:none;fill-rule:evenodd;stroke:#000000;stroke-width:2.0px;stroke-linecap:butt;stroke-linejoin:miter;stroke-opacity:1;stroke-dasharray:6,4"/>
<path class="bond-3 atom-2 atom-4" d="M 75.2,75.1 L 118.3,75.4" style="fill:none;fill-rule:evenodd;stroke:#000000;stroke-width:2.0px;stroke-linecap:butt;stroke-linejoin:miter;stroke-opacity:1"/>
<path class="bond-4 atom-4 atom-5" d="M 118.3,75.4 L 135.3,105.3" style="fill:none;fill-rule:evenodd;stroke:#E5E5E5;stroke-width:2.3px;stroke-linecap:butt;stroke-linejoin:miter;stroke-opacity:1"/>
<path class="bond-5 atom-3 atom-6" d="M 53.4,112.3 L 14.7,112.1" style="fill:none;fill-rule:evenodd;stroke:#E5E5E5;stroke-width:2.3px;stroke-linecap:butt;stroke-linejoin:miter;stroke-opacity:1"/>
<path class="bond-5 atom-3 atom-6" d="M 49.8,105.8 L 14.7,105.6" style="fill:none;fill-rule:evenodd;stroke:#E5E5E5;stroke-width:2.3px;stroke-linecap:butt;stroke-linejoin:miter;stroke-opacity:1;stroke-dasharray:6,4"/>
<path d="M 52.9,37.7 L 53.9,37.7 L 54.4,38.6" style="fill:none;stroke:#E5E5E5;stroke-width:2.3px;stroke-linecap:butt;stroke-linejoin:miter;stroke-opacity:1;"/>
<path d="M 54.0,111.4 L 53.4,112.3 L 52.5,112.3" style="fill:none;stroke:#000000;stroke-width:2.0px;stroke-linecap:butt;stroke-linejoin:miter;stroke-opacity:1;"/>
<path d="M 117.2,75.4 L 118.3,75.4 L 118.7,76.1" style="fill:none;stroke:#000000;stroke-width:2.0px;stroke-linecap:butt;stroke-linejoin:miter;stroke-opacity:1;"/>
<path class="atom-0" d="M 8.5 39.3 L 10.3 37.5 L 7.9 37.0 L 8.3 35.8 L 10.5 36.9 L 10.2 34.5 L 11.4 34.5 L 11.1 36.9 L 13.3 35.8 L 13.7 37.0 L 11.3 37.4 L 13.0 39.3 L 11.9 40.0 L 10.8 37.8 L 9.5 40.0 L 8.5 39.3 " fill="#191919"/>
<path class="atom-5" d="M 137.3 111.5 L 139.1 109.6 L 136.7 109.2 L 137.1 107.9 L 139.3 109.0 L 139.0 106.6 L 140.3 106.6 L 139.9 109.0 L 142.1 108.0 L 142.5 109.2 L 140.1 109.6 L 141.8 111.5 L 140.8 112.2 L 139.6 109.9 L 138.4 112.2 L 137.3 111.5 " fill="#191919"/>
<path class="atom-6" d="M 8.1 107.5 L 9.9 105.6 L 7.5 105.1 L 7.9 103.9 L 10.1 105.0 L 9.7 102.6 L 11.0 102.6 L 10.7 105.0 L 12.9 104.0 L 13.3 105.1 L 10.9 105.6 L 12.6 107.4 L 11.5 108.2 L 10.3 105.9 L 9.1 108.2 L 8.1 107.5 " fill="#191919"/>
</svg>