<svg xmlns="http://www.w3.org/2000/svg" xmlns:rdkit="http://www.rdkit.org/xml" xmlns:xlink="http://www.w3.org/1999/xlink" version="1.1" baseProfile="full" xml:space="preserve" width="150px" height="150px" viewBox="0 0 150 150">
<!-- END OF HEADER -->
<rect style="opacity:1.0;fill:#FFFFFF;stroke:none" width="150.0" height="150.0" x="0.0" y="0.0"> </rect>
<ellipse cx="19.4" cy="81.0" rx="11.9" ry="11.9" class="atom-1" style="fill:#CCCCCC;fill-rule:evenodd;stroke:#CCCCCC;stroke-width:1.0px;stroke-linecap:butt;stroke-linejoin:miter;stroke-opacity:1"/>
<ellipse cx="109.0" cy="30.0" rx="11.9" ry="11.9" class="atom-3" style="fill:#CCCCCC;fill-rule:evenodd;stroke:#CCCCCC;stroke-width:1.0px;stroke-linecap:butt;stroke-linejoin:miter;stroke-opacity:1"/>
<ellipse cx="79.0" cy="81.4" rx="11.9" ry="11.9" class="atom-4" style="fill:#9999E5;fill-rule:evenodd;stroke:#9999E5;stroke-width:1.0px;stroke-linecap:butt;stroke-linejoin:miter;stroke-opacity:1"/>
<path class="bond-0 atom-0 atom-1" d="M 43.1,122.6 L 19.4,81.0" style="fill:none;fill-rule:evenodd;stroke:#E5E5E5;stroke-width:3.2px;stroke-linecap:butt;stroke-linejoin:miter;stroke-opacity:1"/>
<path class="bond-1 atom-1 atom-2" d="M 19.4,81.0 L 48.9,30.6" style="fill:none;fill-rule:evenodd;stroke:#E5E5E5;stroke-width:3.2px;stroke-linecap:butt;stroke-linejoin:miter;stroke-opacity:1"/>
<path class="bond-2 atom-2 atom-3" d="M 55.3,29.7 L 109.0,30.0" style="fill:none;fill-rule:evenodd;stroke:#E5E5E5;stroke-width:3.2px;stroke-linecap:butt;stroke-linejoin:miter;stroke-opacity:1"/>
<path class="bond-3 atom-3 atom-4" d="M 109.0,30.0 L 79.0,81.4" style="fill:none;fill-rule:evenodd;stroke:#000000;stroke-width:2.0px;stroke-linecap:butt;stroke-linejoin:miter;stroke-opacity:1"/>
<path class="bond-4 atom-4 atom-5" d="M 79.0,81.4 L 81.7,124.7" style="fill:none;fill-rule:evenodd;stroke:#000000;stroke-width:2.0px;stroke-linecap:butt;stroke-linejoin:miter;stroke-opacity:1"/>
<path class="bond-5 atom-4 atom-6" d="M 79.0,81.4 L 114.8,105.9" style="fill:none;fill-rule:evenodd;stroke:#000000;stroke-width:2.0px;stroke-linecap:butt;stroke-linejoin:miter;stroke-opacity:1"/>
<path class="bond-6 atom-3 atom-7" d="M 109.0,30.0 L 132.7,71.5" style="fill:none;fill-rule:evenodd;stroke:#E5E5E5;stroke-width:3.2px;stroke-linecap:butt;stroke-linejoin:miter;stroke-opacity:1"/>
<path class="bond-7 atom-4 atom-1" d="M 79.0,81.4 L 19.4,81.0" style="fill:none;fill-rule:evenodd;stroke:#000000;stroke-width:2.0px;stroke-linecap:butt;stroke-linejoin:miter;stroke-opacity:1"/>
<path class="atom-0" d="M 45.7 130.9 L 48.2 128.4 L 44.9 127.7 L 45.4 126.0 L 48.4 127.5 L 48.0 124.2 L 49.8 124.2 L 49.3 127.5 L 52.4 126.1 L 52.9 127.7 L 49.5 128.3 L 51.9 130.9 L 50.5 131.9 L 48.8 128.8 L 47.2 131.9 L 45.7 130.9 " fill="#191919"/>
<path class="atom-2" d="M 46.3 27.8 L 48.8 25.2 L 45.5 24.6 L 46.0 22.9 L 49.0 24.4 L 48.6 21.1 L 50.4 21.1 L 49.9 24.4 L 53.0 22.9 L 53.5 24.6 L 50.1 25.2 L 52.5 27.7 L 51.1 28.8 L 49.4 25.6 L 47.8 28.8 L 46.3 27.8 " fill="#191919"/>
<path class="atom-7" d="M 135.3 79.8 L 137.8 77.3 L 134.5 76.7 L 135.0 75.0 L 138.0 76.5 L 137.6 73.2 L 139.4 73.2 L 138.9 76.5 L 142.0 75.0 L 142.5 76.7 L 139.2 77.3 L 141.5 79.8 L 140.1 80.9 L 138.5 77.7 L 136.8 80.9 L 135.3 79.8 " fill="#191919"/>
</svg>