<svg xmlns="http://www.w3.org/2000/svg" xmlns:rdkit="http://www.rdkit.org/xml" xmlns:xlink="http://www.w3.org/1999/xlink" version="1.1" baseProfile="full" xml:space="preserve" width="150px" height="150px" viewBox="0 0 150 150">
<!-- END OF HEADER -->
<rect style="opacity:1.0;fill:#FFFFFF;stroke:none" width="150.0" height="150.0" x="0.0" y="0.0"> </rect>
<ellipse cx="21.1" cy="37.9" rx="13.6" ry="13.6" class="atom-0" style="fill:#9999E5;fill-rule:evenodd;stroke:#9999E5;stroke-width:1.0px;stroke-linecap:butt;stroke-linejoin:miter;stroke-opacity:1"/>
<path class="bond-0 atom-0 atom-1" d="M 21.1,37.9 L 82.6,66.2" style="fill:none;fill-rule:evenodd;stroke:#000000;stroke-width:2.0px;stroke-linecap:butt;stroke-linejoin:miter;stroke-opacity:1"/>
<path class="bond-1 atom-1 atom-2" d="M 83.2,72.1 L 139.1,32.4" style="fill:none;fill-rule:evenodd;stroke:#E5E5E5;stroke-width:3.6px;stroke-linecap:butt;stroke-linejoin:miter;stroke-opacity:1"/>
<path class="bond-1 atom-1 atom-2" d="M 77.3,63.8 L 133.2,24.1" style="fill:none;fill-rule:evenodd;stroke:#E5E5E5;stroke-width:3.6px;stroke-linecap:butt;stroke-linejoin:miter;stroke-opacity:1"/>
<path class="bond-2 atom-1 atom-3" d="M 82.6,66.2 L 87.8,121.7" style="fill:none;fill-rule:evenodd;stroke:#E5E5E5;stroke-width:3.6px;stroke-linecap:butt;stroke-linejoin:miter;stroke-opacity:1"/>
<path d="M 81.1,65.5 L 82.6,66.2 L 82.8,67.6" style="fill:none;stroke:#000000;stroke-width:2.0px;stroke-linecap:butt;stroke-linejoin:miter;stroke-opacity:1;"/>
<path class="atom-2" d="M 134.3 24.9 L 137.2 22.0 L 133.4 21.3 L 134.0 19.3 L 137.4 21.1 L 136.9 17.3 L 139.0 17.3 L 138.4 21.0 L 141.9 19.4 L 142.5 21.3 L 138.7 22.0 L 141.4 24.9 L 139.8 26.1 L 137.9 22.5 L 136.0 26.1 L 134.3 24.9 " fill="#191919"/>
<path class="atom-3" d="M 85.3 131.6 L 88.1 128.7 L 84.4 127.9 L 84.9 126.0 L 88.4 127.7 L 87.9 124.0 L 89.9 123.9 L 89.4 127.7 L 92.9 126.1 L 93.5 127.9 L 89.7 128.6 L 92.4 131.5 L 90.7 132.7 L 88.8 129.1 L 87.0 132.7 L 85.3 131.6 " fill="#191919"/>
</svg>