<svg xmlns="http://www.w3.org/2000/svg" xmlns:rdkit="http://www.rdkit.org/xml" xmlns:xlink="http://www.w3.org/1999/xlink" version="1.1" baseProfile="full" xml:space="preserve" width="150px" height="150px" viewBox="0 0 150 150">
<!-- END OF HEADER -->
<rect style="opacity:1.0;fill:#FFFFFF;stroke:none" width="150.0" height="150.0" x="0.0" y="0.0"> </rect>
<ellipse cx="47.6" cy="41.7" rx="7.8" ry="7.8" class="atom-1" style="fill:#E5E533;fill-rule:evenodd;stroke:#E5E533;stroke-width:1.0px;stroke-linecap:butt;stroke-linejoin:miter;stroke-opacity:1"/>
<ellipse cx="74.7" cy="70.2" rx="7.8" ry="7.8" class="atom-2" style="fill:#9999E5;fill-rule:evenodd;stroke:#9999E5;stroke-width:1.0px;stroke-linecap:butt;stroke-linejoin:miter;stroke-opacity:1"/>
<ellipse cx="63.6" cy="107.8" rx="7.8" ry="7.8" class="atom-3" style="fill:#E5E533;fill-rule:evenodd;stroke:#E5E533;stroke-width:1.0px;stroke-linecap:butt;stroke-linejoin:miter;stroke-opacity:1"/>
<path class="bond-0 atom-0 atom-1" d="M 13.4,50.0 L 47.6,41.7" style="fill:none;fill-rule:evenodd;stroke:#E5E5E5;stroke-width:2.1px;stroke-linecap:butt;stroke-linejoin:miter;stroke-opacity:1"/>
<path class="bond-0 atom-0 atom-1" d="M 14.7,55.8 L 45.7,48.3" style="fill:none;fill-rule:evenodd;stroke:#E5E5E5;stroke-width:2.1px;stroke-linecap:butt;stroke-linejoin:miter;stroke-opacity:1;stroke-dasharray:6,4"/>
<path class="bond-1 atom-1 atom-2" d="M 47.6,41.7 L 74.7,70.2" style="fill:none;fill-rule:evenodd;stroke:#000000;stroke-width:2.0px;stroke-linecap:butt;stroke-linejoin:miter;stroke-opacity:1"/>
<path class="bond-1 atom-1 atom-2" d="M 45.7,48.3 L 68.0,71.8" style="fill:none;fill-rule:evenodd;stroke:#000000;stroke-width:2.0px;stroke-linecap:butt;stroke-linejoin:miter;stroke-opacity:1;stroke-dasharray:6,4"/>
<path class="bond-2 atom-2 atom-3" d="M 74.7,70.2 L 63.6,107.8" style="fill:none;fill-rule:evenodd;stroke:#000000;stroke-width:2.0px;stroke-linecap:butt;stroke-linejoin:miter;stroke-opacity:1"/>
<path class="bond-2 atom-2 atom-3" d="M 68.0,71.8 L 58.9,102.9" style="fill:none;fill-rule:evenodd;stroke:#000000;stroke-width:2.0px;stroke-linecap:butt;stroke-linejoin:miter;stroke-opacity:1;stroke-dasharray:6,4"/>
<path class="bond-3 atom-3 atom-4" d="M 63.6,107.8 L 29.4,116.1" style="fill:none;fill-rule:evenodd;stroke:#E5E5E5;stroke-width:2.1px;stroke-linecap:butt;stroke-linejoin:miter;stroke-opacity:1"/>
<path class="bond-3 atom-3 atom-4" d="M 58.9,102.9 L 28.0,110.4" style="fill:none;fill-rule:evenodd;stroke:#E5E5E5;stroke-width:2.1px;stroke-linecap:butt;stroke-linejoin:miter;stroke-opacity:1;stroke-dasharray:6,4"/>
<path class="bond-4 atom-2 atom-5" d="M 74.7,70.2 L 112.8,60.9" style="fill:none;fill-rule:evenodd;stroke:#000000;stroke-width:2.0px;stroke-linecap:butt;stroke-linejoin:miter;stroke-opacity:1"/>
<path class="bond-5 atom-5 atom-6" d="M 112.8,60.9 L 135.9,85.2" style="fill:none;fill-rule:evenodd;stroke:#E5E5E5;stroke-width:2.1px;stroke-linecap:butt;stroke-linejoin:miter;stroke-opacity:1"/>
<path d="M 46.7,42.0 L 47.6,41.7 L 48.3,42.5" style="fill:none;stroke:#E5E5E5;stroke-width:2.1px;stroke-linecap:butt;stroke-linejoin:miter;stroke-opacity:1;"/>
<path d="M 63.9,106.9 L 63.6,107.8 L 62.7,108.0" style="fill:none;stroke:#000000;stroke-width:2.0px;stroke-linecap:butt;stroke-linejoin:miter;stroke-opacity:1;"/>
<path d="M 111.8,61.2 L 112.8,60.9 L 113.4,61.5" style="fill:none;stroke:#000000;stroke-width:2.0px;stroke-linecap:butt;stroke-linejoin:miter;stroke-opacity:1;"/>
<path class="atom-0" d="M 8.0 52.6 L 9.7 50.9 L 7.5 50.5 L 7.8 49.4 L 9.8 50.4 L 9.5 48.2 L 10.7 48.2 L 10.4 50.4 L 12.4 49.4 L 12.8 50.5 L 10.6 50.9 L 12.1 52.6 L 11.2 53.3 L 10.1 51.2 L 9.0 53.3 L 8.0 52.6 " fill="#191919"/>
<path class="atom-4" d="M 22.6 113.0 L 24.3 111.3 L 22.1 110.8 L 22.4 109.7 L 24.4 110.7 L 24.1 108.6 L 25.3 108.5 L 25.0 110.7 L 27.0 109.8 L 27.4 110.8 L 25.2 111.3 L 26.7 112.9 L 25.8 113.6 L 24.7 111.6 L 23.6 113.6 L 22.6 113.0 " fill="#191919"/>
<path class="atom-6" d="M 137.8 88.1 L 139.4 86.4 L 137.2 86.0 L 137.6 84.9 L 139.6 85.9 L 139.3 83.7 L 140.5 83.7 L 140.1 85.9 L 142.2 84.9 L 142.5 86.0 L 140.3 86.4 L 141.9 88.1 L 140.9 88.8 L 139.8 86.7 L 138.7 88.8 L 137.8 88.1 " fill="#191919"/>
</svg>