<svg xmlns="http://www.w3.org/2000/svg" xmlns:rdkit="http://www.rdkit.org/xml" xmlns:xlink="http://www.w3.org/1999/xlink" version="1.1" baseProfile="full" xml:space="preserve" width="150px" height="150px" viewBox="0 0 150 150">
<!-- END OF HEADER -->
<rect style="opacity:1.0;fill:#FFFFFF;stroke:none" width="150.0" height="150.0" x="0.0" y="0.0"> </rect>
<ellipse cx="96.5" cy="112.3" rx="8.6" ry="8.6" class="atom-1" style="fill:#CCCCCC;fill-rule:evenodd;stroke:#CCCCCC;stroke-width:1.0px;stroke-linecap:butt;stroke-linejoin:miter;stroke-opacity:1"/>
<ellipse cx="75.0" cy="75.0" rx="8.6" ry="8.6" class="atom-2" style="fill:#9999E5;fill-rule:evenodd;stroke:#9999E5;stroke-width:1.0px;stroke-linecap:butt;stroke-linejoin:miter;stroke-opacity:1"/>
<ellipse cx="96.5" cy="37.7" rx="8.6" ry="8.6" class="atom-3" style="fill:#CCCCCC;fill-rule:evenodd;stroke:#CCCCCC;stroke-width:1.0px;stroke-linecap:butt;stroke-linejoin:miter;stroke-opacity:1"/>
<path class="bond-0 atom-0 atom-1" d="M 135.3,112.3 L 96.5,112.3" style="fill:none;fill-rule:evenodd;stroke:#E5E5E5;stroke-width:2.3px;stroke-linecap:butt;stroke-linejoin:miter;stroke-opacity:1"/>
<path class="bond-1 atom-1 atom-2" d="M 96.5,112.3 L 75.0,75.0" style="fill:none;fill-rule:evenodd;stroke:#000000;stroke-width:2.0px;stroke-linecap:butt;stroke-linejoin:miter;stroke-opacity:1"/>
<path class="bond-2 atom-2 atom-3" d="M 75.0,75.0 L 96.5,37.7" style="fill:none;fill-rule:evenodd;stroke:#000000;stroke-width:2.0px;stroke-linecap:butt;stroke-linejoin:miter;stroke-opacity:1"/>
<path class="bond-2 atom-2 atom-3" d="M 82.5,75.0 L 100.3,44.2" style="fill:none;fill-rule:evenodd;stroke:#000000;stroke-width:2.0px;stroke-linecap:butt;stroke-linejoin:miter;stroke-opacity:1"/>
<path class="bond-3 atom-3 atom-4" d="M 96.5,37.7 L 135.3,37.7" style="fill:none;fill-rule:evenodd;stroke:#E5E5E5;stroke-width:2.3px;stroke-linecap:butt;stroke-linejoin:miter;stroke-opacity:1"/>
<path class="bond-4 atom-2 atom-5" d="M 75.0,75.0 L 31.9,75.0" style="fill:none;fill-rule:evenodd;stroke:#000000;stroke-width:2.0px;stroke-linecap:butt;stroke-linejoin:miter;stroke-opacity:1"/>
<path class="bond-5 atom-5 atom-6" d="M 31.9,75.0 L 10.8,38.5" style="fill:none;fill-rule:evenodd;stroke:#E5E5E5;stroke-width:2.3px;stroke-linecap:butt;stroke-linejoin:miter;stroke-opacity:1"/>
<path class="bond-6 atom-5 atom-7" d="M 31.9,75.0 L 14.7,104.8" style="fill:none;fill-rule:evenodd;stroke:#E5E5E5;stroke-width:2.3px;stroke-linecap:butt;stroke-linejoin:miter;stroke-opacity:1"/>
<path d="M 97.5,112.3 L 96.5,112.3 L 96.0,111.4" style="fill:none;stroke:#E5E5E5;stroke-width:2.3px;stroke-linecap:butt;stroke-linejoin:miter;stroke-opacity:1;"/>
<path d="M 96.0,38.6 L 96.5,37.7 L 97.5,37.7" style="fill:none;stroke:#000000;stroke-width:2.0px;stroke-linecap:butt;stroke-linejoin:miter;stroke-opacity:1;"/>
<path class="atom-0" d="M 137.3 110.9 L 139.1 109.1 L 136.7 108.6 L 137.1 107.4 L 139.3 108.5 L 139.0 106.1 L 140.3 106.1 L 139.9 108.5 L 142.1 107.5 L 142.5 108.6 L 140.1 109.1 L 141.8 110.9 L 140.8 111.7 L 139.6 109.4 L 138.4 111.7 L 137.3 110.9 " fill="#191919"/>
<path class="atom-4" d="M 137.3 36.3 L 139.1 34.5 L 136.7 34.0 L 137.1 32.8 L 139.3 33.9 L 139.0 31.5 L 140.3 31.5 L 139.9 33.9 L 142.1 32.9 L 142.5 34.0 L 140.1 34.5 L 141.8 36.3 L 140.8 37.1 L 139.6 34.8 L 138.4 37.1 L 137.3 36.3 " fill="#191919"/>
<path class="atom-6" d="M 8.1 36.3 L 9.9 34.5 L 7.5 34.0 L 7.9 32.8 L 10.1 33.9 L 9.7 31.5 L 11.0 31.5 L 10.7 33.9 L 12.9 32.9 L 13.3 34.0 L 10.9 34.5 L 12.6 36.3 L 11.5 37.1 L 10.3 34.8 L 9.1 37.1 L 8.1 36.3 " fill="#191919"/>
<path class="atom-7" d="M 8.1 110.9 L 9.9 109.1 L 7.5 108.6 L 7.9 107.4 L 10.1 108.5 L 9.7 106.1 L 11.0 106.1 L 10.7 108.5 L 12.9 107.5 L 13.3 108.6 L 10.9 109.1 L 12.6 110.9 L 11.5 111.7 L 10.3 109.4 L 9.1 111.7 L 8.1 110.9 " fill="#191919"/>
</svg>