<svg xmlns="http://www.w3.org/2000/svg" xmlns:rdkit="http://www.rdkit.org/xml" xmlns:xlink="http://www.w3.org/1999/xlink" version="1.1" baseProfile="full" xml:space="preserve" width="150px" height="150px" viewBox="0 0 150 150">
<!-- END OF HEADER -->
<rect style="opacity:1.0;fill:#FFFFFF;stroke:none" width="150.0" height="150.0" x="0.0" y="0.0"> </rect>
<ellipse cx="25.4" cy="80.7" rx="14.5" ry="14.5" class="atom-0" style="fill:#9999E5;fill-rule:evenodd;stroke:#9999E5;stroke-width:1.0px;stroke-linecap:butt;stroke-linejoin:miter;stroke-opacity:1"/>
<path class="bond-0 atom-0 atom-1" d="M 25.4,80.7 L 98.0,80.7" style="fill:none;fill-rule:evenodd;stroke:#000000;stroke-width:2.0px;stroke-linecap:butt;stroke-linejoin:miter;stroke-opacity:1"/>
<path class="bond-1 atom-1 atom-2" d="M 101.1,86.2 L 138.1,22.0" style="fill:none;fill-rule:evenodd;stroke:#E5E5E5;stroke-width:3.9px;stroke-linecap:butt;stroke-linejoin:miter;stroke-opacity:1"/>
<path class="bond-1 atom-1 atom-2" d="M 91.7,80.7 L 128.7,16.6" style="fill:none;fill-rule:evenodd;stroke:#E5E5E5;stroke-width:3.9px;stroke-linecap:butt;stroke-linejoin:miter;stroke-opacity:1"/>
<path class="bond-2 atom-1 atom-3" d="M 98.0,80.7 L 127.0,131.0" style="fill:none;fill-rule:evenodd;stroke:#E5E5E5;stroke-width:3.9px;stroke-linecap:butt;stroke-linejoin:miter;stroke-opacity:1"/>
<path d="M 96.1,80.7 L 98.0,80.7 L 98.7,82.0" style="fill:none;stroke:#000000;stroke-width:2.0px;stroke-linecap:butt;stroke-linejoin:miter;stroke-opacity:1;"/>
<path class="atom-2" d="M 130.3 15.7 L 133.4 12.6 L 129.4 11.8 L 130.0 9.7 L 133.6 11.6 L 133.1 7.5 L 135.3 7.5 L 134.7 11.5 L 138.4 9.8 L 139.1 11.8 L 135.0 12.5 L 137.9 15.6 L 136.1 16.9 L 134.1 13.1 L 132.1 16.9 L 130.3 15.7 " fill="#191919"/>
<path class="atom-3" d="M 130.3 141.3 L 133.4 138.2 L 129.4 137.4 L 130.0 135.3 L 133.6 137.2 L 133.1 133.1 L 135.3 133.1 L 134.7 137.1 L 138.4 135.4 L 139.1 137.4 L 135.0 138.1 L 137.9 141.2 L 136.1 142.5 L 134.1 138.7 L 132.1 142.5 L 130.3 141.3 " fill="#191919"/>
</svg>