<svg xmlns="http://www.w3.org/2000/svg" xmlns:rdkit="http://www.rdkit.org/xml" xmlns:xlink="http://www.w3.org/1999/xlink" version="1.1" baseProfile="full" xml:space="preserve" width="150px" height="150px" viewBox="0 0 150 150">
<!-- END OF HEADER -->
<rect style="opacity:1.0;fill:#FFFFFF;stroke:none" width="150.0" height="150.0" x="0.0" y="0.0"> </rect>
<ellipse cx="21.5" cy="54.6" rx="14.0" ry="14.0" class="atom-0" style="fill:#9999E5;fill-rule:evenodd;stroke:#9999E5;stroke-width:1.0px;stroke-linecap:butt;stroke-linejoin:miter;stroke-opacity:1"/>
<path class="bond-0 atom-0 atom-1" d="M 21.5,54.6 L 89.0,71.9" style="fill:none;fill-rule:evenodd;stroke:#000000;stroke-width:2.0px;stroke-linecap:butt;stroke-linejoin:miter;stroke-opacity:1"/>
<path class="bond-1 atom-1 atom-2" d="M 90.7,77.7 L 140.3,26.9" style="fill:none;fill-rule:evenodd;stroke:#E5E5E5;stroke-width:3.7px;stroke-linecap:butt;stroke-linejoin:miter;stroke-opacity:1"/>
<path class="bond-1 atom-1 atom-2" d="M 83.2,70.4 L 132.8,19.6" style="fill:none;fill-rule:evenodd;stroke:#E5E5E5;stroke-width:3.7px;stroke-linecap:butt;stroke-linejoin:miter;stroke-opacity:1"/>
<path class="bond-2 atom-1 atom-3" d="M 89.0,71.9 L 104.4,126.7" style="fill:none;fill-rule:evenodd;stroke:#E5E5E5;stroke-width:3.7px;stroke-linecap:butt;stroke-linejoin:miter;stroke-opacity:1"/>
<path d="M 87.4,71.4 L 89.0,71.9 L 89.4,73.2" style="fill:none;stroke:#000000;stroke-width:2.0px;stroke-linecap:butt;stroke-linejoin:miter;stroke-opacity:1;"/>
<path class="atom-2" d="M 134.1 19.8 L 137.0 16.8 L 133.2 16.0 L 133.7 14.1 L 137.3 15.9 L 136.8 12.0 L 138.9 11.9 L 138.3 15.8 L 141.9 14.2 L 142.5 16.0 L 138.6 16.8 L 141.4 19.8 L 139.7 21.0 L 137.8 17.3 L 135.8 21.0 L 134.1 19.8 " fill="#191919"/>
<path class="atom-3" d="M 104.1 136.9 L 107.0 133.9 L 103.2 133.1 L 103.8 131.1 L 107.3 132.9 L 106.8 129.0 L 108.9 129.0 L 108.3 132.9 L 111.9 131.2 L 112.5 133.1 L 108.6 133.8 L 111.4 136.8 L 109.7 138.1 L 107.8 134.4 L 105.8 138.1 L 104.1 136.9 " fill="#191919"/>
</svg>