<svg xmlns="http://www.w3.org/2000/svg" xmlns:rdkit="http://www.rdkit.org/xml" xmlns:xlink="http://www.w3.org/1999/xlink" version="1.1" baseProfile="full" xml:space="preserve" width="150px" height="150px" viewBox="0 0 150 150">
<!-- END OF HEADER -->
<rect style="opacity:1.0;fill:#FFFFFF;stroke:none" width="150.0" height="150.0" x="0.0" y="0.0"> </rect>
<ellipse cx="25.1" cy="79.4" rx="14.5" ry="14.5" class="atom-0" style="fill:#9999E5;fill-rule:evenodd;stroke:#9999E5;stroke-width:1.0px;stroke-linecap:butt;stroke-linejoin:miter;stroke-opacity:1"/>
<path class="bond-0 atom-0 atom-1" d="M 25.1,79.4 L 97.6,80.3" style="fill:none;fill-rule:evenodd;stroke:#000000;stroke-width:2.0px;stroke-linecap:butt;stroke-linejoin:miter;stroke-opacity:1"/>
<path class="bond-1 atom-1 atom-2" d="M 100.7,85.8 L 138.5,22.1" style="fill:none;fill-rule:evenodd;stroke:#E5E5E5;stroke-width:3.9px;stroke-linecap:butt;stroke-linejoin:miter;stroke-opacity:1"/>
<path class="bond-1 atom-1 atom-2" d="M 91.3,80.2 L 129.1,16.5" style="fill:none;fill-rule:evenodd;stroke:#E5E5E5;stroke-width:3.9px;stroke-linecap:butt;stroke-linejoin:miter;stroke-opacity:1"/>
<path class="bond-2 atom-1 atom-3" d="M 97.6,80.3 L 125.9,130.7" style="fill:none;fill-rule:evenodd;stroke:#E5E5E5;stroke-width:3.9px;stroke-linecap:butt;stroke-linejoin:miter;stroke-opacity:1"/>
<path d="M 95.8,80.3 L 97.6,80.3 L 98.3,81.6" style="fill:none;stroke:#000000;stroke-width:2.0px;stroke-linecap:butt;stroke-linejoin:miter;stroke-opacity:1;"/>
<path class="atom-2" d="M 130.7 15.7 L 133.7 12.6 L 129.7 11.8 L 130.3 9.7 L 134.0 11.6 L 133.5 7.5 L 135.7 7.5 L 135.1 11.5 L 138.8 9.8 L 139.4 11.8 L 135.4 12.5 L 138.3 15.6 L 136.5 16.9 L 134.5 13.1 L 132.5 16.9 L 130.7 15.7 " fill="#191919"/>
<path class="atom-3" d="M 129.2 141.3 L 132.2 138.2 L 128.2 137.4 L 128.8 135.3 L 132.5 137.2 L 132.0 133.1 L 134.2 133.1 L 133.6 137.1 L 137.3 135.4 L 137.9 137.4 L 133.9 138.1 L 136.8 141.2 L 135.0 142.5 L 133.0 138.7 L 131.0 142.5 L 129.2 141.3 " fill="#191919"/>
</svg>