<svg xmlns="http://www.w3.org/2000/svg" xmlns:rdkit="http://www.rdkit.org/xml" xmlns:xlink="http://www.w3.org/1999/xlink" version="1.1" baseProfile="full" xml:space="preserve" width="150px" height="150px" viewBox="0 0 150 150">
<!-- END OF HEADER -->
<rect style="opacity:1.0;fill:#FFFFFF;stroke:none" width="150.0" height="150.0" x="0.0" y="0.0"> </rect>
<ellipse cx="96.0" cy="112.3" rx="8.6" ry="8.6" class="atom-1" style="fill:#E5E533;fill-rule:evenodd;stroke:#E5E533;stroke-width:1.0px;stroke-linecap:butt;stroke-linejoin:miter;stroke-opacity:1"/>
<ellipse cx="74.8" cy="74.9" rx="8.6" ry="8.6" class="atom-2" style="fill:#9999E5;fill-rule:evenodd;stroke:#9999E5;stroke-width:1.0px;stroke-linecap:butt;stroke-linejoin:miter;stroke-opacity:1"/>
<ellipse cx="96.6" cy="37.7" rx="8.6" ry="8.6" class="atom-3" style="fill:#E5E533;fill-rule:evenodd;stroke:#E5E533;stroke-width:1.0px;stroke-linecap:butt;stroke-linejoin:miter;stroke-opacity:1"/>
<path class="bond-0 atom-0 atom-1" d="M 134.8,112.6 L 96.0,112.3" style="fill:none;fill-rule:evenodd;stroke:#E5E5E5;stroke-width:2.3px;stroke-linecap:butt;stroke-linejoin:miter;stroke-opacity:1"/>
<path class="bond-0 atom-0 atom-1" d="M 134.9,106.1 L 99.8,105.9" style="fill:none;fill-rule:evenodd;stroke:#E5E5E5;stroke-width:2.3px;stroke-linecap:butt;stroke-linejoin:miter;stroke-opacity:1;stroke-dasharray:6,4"/>
<path class="bond-1 atom-1 atom-2" d="M 96.0,112.3 L 74.8,74.9" style="fill:none;fill-rule:evenodd;stroke:#000000;stroke-width:2.0px;stroke-linecap:butt;stroke-linejoin:miter;stroke-opacity:1"/>
<path class="bond-1 atom-1 atom-2" d="M 99.8,105.9 L 82.2,74.9" style="fill:none;fill-rule:evenodd;stroke:#000000;stroke-width:2.0px;stroke-linecap:butt;stroke-linejoin:miter;stroke-opacity:1;stroke-dasharray:6,4"/>
<path class="bond-2 atom-2 atom-3" d="M 74.8,74.9 L 96.6,37.7" style="fill:none;fill-rule:evenodd;stroke:#000000;stroke-width:2.0px;stroke-linecap:butt;stroke-linejoin:miter;stroke-opacity:1"/>
<path class="bond-2 atom-2 atom-3" d="M 82.2,74.9 L 100.2,44.2" style="fill:none;fill-rule:evenodd;stroke:#000000;stroke-width:2.0px;stroke-linecap:butt;stroke-linejoin:miter;stroke-opacity:1;stroke-dasharray:6,4"/>
<path class="bond-3 atom-3 atom-4" d="M 96.6,37.7 L 135.3,38.0" style="fill:none;fill-rule:evenodd;stroke:#E5E5E5;stroke-width:2.3px;stroke-linecap:butt;stroke-linejoin:miter;stroke-opacity:1"/>
<path class="bond-3 atom-3 atom-4" d="M 100.2,44.2 L 135.3,44.4" style="fill:none;fill-rule:evenodd;stroke:#E5E5E5;stroke-width:2.3px;stroke-linecap:butt;stroke-linejoin:miter;stroke-opacity:1;stroke-dasharray:6,4"/>
<path class="bond-4 atom-2 atom-5" d="M 74.8,74.9 L 31.7,74.6" style="fill:none;fill-rule:evenodd;stroke:#000000;stroke-width:2.0px;stroke-linecap:butt;stroke-linejoin:miter;stroke-opacity:1"/>
<path class="bond-5 atom-5 atom-6" d="M 31.7,74.6 L 10.8,37.9" style="fill:none;fill-rule:evenodd;stroke:#E5E5E5;stroke-width:2.3px;stroke-linecap:butt;stroke-linejoin:miter;stroke-opacity:1"/>
<path d="M 97.0,112.3 L 96.0,112.3 L 95.5,111.4" style="fill:none;stroke:#E5E5E5;stroke-width:2.3px;stroke-linecap:butt;stroke-linejoin:miter;stroke-opacity:1;"/>
<path d="M 96.0,38.6 L 96.6,37.7 L 97.5,37.7" style="fill:none;stroke:#000000;stroke-width:2.0px;stroke-linecap:butt;stroke-linejoin:miter;stroke-opacity:1;"/>
<path d="M 32.7,74.6 L 31.7,74.6 L 31.2,73.6" style="fill:none;stroke:#000000;stroke-width:2.0px;stroke-linecap:butt;stroke-linejoin:miter;stroke-opacity:1;"/>
<path class="atom-0" d="M 136.8 108.0 L 138.6 106.2 L 136.3 105.7 L 136.6 104.5 L 138.8 105.6 L 138.5 103.2 L 139.8 103.2 L 139.4 105.6 L 141.7 104.5 L 142.0 105.7 L 139.6 106.2 L 141.3 108.0 L 140.3 108.8 L 139.1 106.5 L 137.9 108.8 L 136.8 108.0 " fill="#191919"/>
<path class="atom-4" d="M 137.3 39.9 L 139.1 38.0 L 136.7 37.5 L 137.1 36.3 L 139.3 37.4 L 139.0 35.0 L 140.3 35.0 L 139.9 37.4 L 142.1 36.4 L 142.5 37.5 L 140.1 38.0 L 141.8 39.8 L 140.8 40.6 L 139.6 38.3 L 138.4 40.6 L 137.3 39.9 " fill="#191919"/>
<path class="atom-6" d="M 8.1 35.7 L 9.9 33.9 L 7.5 33.4 L 7.9 32.2 L 10.1 33.3 L 9.7 30.9 L 11.0 30.9 L 10.7 33.3 L 12.9 32.3 L 13.3 33.4 L 10.9 33.9 L 12.6 35.7 L 11.5 36.5 L 10.3 34.2 L 9.1 36.5 L 8.1 35.7 " fill="#191919"/>
</svg>