<svg xmlns="http://www.w3.org/2000/svg" xmlns:rdkit="http://www.rdkit.org/xml" xmlns:xlink="http://www.w3.org/1999/xlink" version="1.1" baseProfile="full" xml:space="preserve" width="150px" height="150px" viewBox="0 0 150 150">
<!-- END OF HEADER -->
<rect style="opacity:1.0;fill:#FFFFFF;stroke:none" width="150.0" height="150.0" x="0.0" y="0.0"> </rect>
<ellipse cx="124.8" cy="81.5" rx="14.5" ry="14.5" class="atom-0" style="fill:#9999E5;fill-rule:evenodd;stroke:#9999E5;stroke-width:1.0px;stroke-linecap:butt;stroke-linejoin:miter;stroke-opacity:1"/>
<path class="bond-0 atom-0 atom-1" d="M 124.8,81.5 L 52.3,81.0" style="fill:none;fill-rule:evenodd;stroke:#000000;stroke-width:2.0px;stroke-linecap:butt;stroke-linejoin:miter;stroke-opacity:1"/>
<path class="bond-1 atom-1 atom-2" d="M 58.5,81.0 L 21.9,16.6" style="fill:none;fill-rule:evenodd;stroke:#E5E5E5;stroke-width:3.9px;stroke-linecap:butt;stroke-linejoin:miter;stroke-opacity:1"/>
<path class="bond-1 atom-1 atom-2" d="M 49.1,86.4 L 12.5,22.0" style="fill:none;fill-rule:evenodd;stroke:#E5E5E5;stroke-width:3.9px;stroke-linecap:butt;stroke-linejoin:miter;stroke-opacity:1"/>
<path class="bond-2 atom-1 atom-3" d="M 52.3,81.0 L 22.8,131.2" style="fill:none;fill-rule:evenodd;stroke:#E5E5E5;stroke-width:3.9px;stroke-linecap:butt;stroke-linejoin:miter;stroke-opacity:1"/>
<path d="M 54.1,81.0 L 52.3,81.0 L 51.5,82.2" style="fill:none;stroke:#000000;stroke-width:2.0px;stroke-linecap:butt;stroke-linejoin:miter;stroke-opacity:1;"/>
<path class="atom-2" d="M 12.6 15.7 L 15.6 12.6 L 11.6 11.8 L 12.2 9.7 L 15.9 11.6 L 15.3 7.5 L 17.5 7.5 L 16.9 11.5 L 20.7 9.8 L 21.3 11.8 L 17.2 12.5 L 20.1 15.6 L 18.4 16.9 L 16.4 13.1 L 14.3 16.9 L 12.6 15.7 " fill="#191919"/>
<path class="atom-3" d="M 11.7 141.3 L 14.7 138.2 L 10.7 137.4 L 11.3 135.3 L 15.0 137.2 L 14.5 133.1 L 16.7 133.1 L 16.1 137.1 L 19.8 135.4 L 20.4 137.4 L 16.4 138.1 L 19.3 141.2 L 17.5 142.5 L 15.5 138.7 L 13.5 142.5 L 11.7 141.3 " fill="#191919"/>
</svg>