<svg xmlns="http://www.w3.org/2000/svg" xmlns:rdkit="http://www.rdkit.org/xml" xmlns:xlink="http://www.w3.org/1999/xlink" version="1.1" baseProfile="full" xml:space="preserve" width="150px" height="150px" viewBox="0 0 150 150">
<!-- END OF HEADER -->
<rect style="opacity:1.0;fill:#FFFFFF;stroke:none" width="150.0" height="150.0" x="0.0" y="0.0"> </rect>
<ellipse cx="127.4" cy="129.0" rx="13.5" ry="13.5" class="atom-2" style="fill:#9999E5;fill-rule:evenodd;stroke:#9999E5;stroke-width:1.0px;stroke-linecap:butt;stroke-linejoin:miter;stroke-opacity:1"/>
<path class="bond-0 atom-0 atom-1" d="M 18.9,95.6 L 79.5,77.2" style="fill:none;fill-rule:evenodd;stroke:#E5E5E5;stroke-width:3.6px;stroke-linecap:butt;stroke-linejoin:miter;stroke-opacity:1"/>
<path class="bond-0 atom-0 atom-1" d="M 21.8,105.3 L 82.4,86.9" style="fill:none;fill-rule:evenodd;stroke:#E5E5E5;stroke-width:3.6px;stroke-linecap:butt;stroke-linejoin:miter;stroke-opacity:1"/>
<path class="bond-1 atom-1 atom-2" d="M 78.2,82.9 L 127.4,129.0" style="fill:none;fill-rule:evenodd;stroke:#000000;stroke-width:2.0px;stroke-linecap:butt;stroke-linejoin:miter;stroke-opacity:1"/>
<path class="bond-2 atom-1 atom-3" d="M 78.2,82.9 L 93.2,18.5" style="fill:none;fill-rule:evenodd;stroke:#E5E5E5;stroke-width:3.6px;stroke-linecap:butt;stroke-linejoin:miter;stroke-opacity:1"/>
<path d="M 79.4,84.1 L 78.2,82.9 L 78.5,81.3" style="fill:none;stroke:#000000;stroke-width:2.0px;stroke-linecap:butt;stroke-linejoin:miter;stroke-opacity:1;"/>
<path class="atom-0" d="M 10.0 100.4 L 12.8 97.5 L 9.1 96.7 L 9.7 94.8 L 13.1 96.6 L 12.6 92.8 L 14.6 92.8 L 14.1 96.5 L 17.5 94.9 L 18.1 96.7 L 14.4 97.4 L 17.1 100.3 L 15.4 101.5 L 13.6 98.0 L 11.7 101.5 L 10.0 100.4 " fill="#191919"/>
<path class="atom-3" d="M 89.9 15.1 L 92.7 12.2 L 89.0 11.5 L 89.5 9.6 L 93.0 11.3 L 92.5 7.5 L 94.5 7.5 L 93.9 11.3 L 97.4 9.6 L 98.0 11.5 L 94.2 12.2 L 96.9 15.1 L 95.3 16.2 L 93.4 12.7 L 91.5 16.2 L 89.9 15.1 " fill="#191919"/>
</svg>