<svg xmlns="http://www.w3.org/2000/svg" xmlns:rdkit="http://www.rdkit.org/xml" xmlns:xlink="http://www.w3.org/1999/xlink" version="1.1" baseProfile="full" xml:space="preserve" width="150px" height="150px" viewBox="0 0 150 150">
<!-- END OF HEADER -->
<rect style="opacity:1.0;fill:#FFFFFF;stroke:none" width="150.0" height="150.0" x="0.0" y="0.0"> </rect>
<ellipse cx="74.8" cy="81.2" rx="5.1" ry="5.1" class="atom-3" style="fill:#9999E5;fill-rule:evenodd;stroke:#9999E5;stroke-width:1.0px;stroke-linecap:butt;stroke-linejoin:miter;stroke-opacity:1"/>
<path class="bond-0 atom-0 atom-1" d="M 10.0,67.8 L 30.9,80.4" style="fill:none;fill-rule:evenodd;stroke:#E5E5E5;stroke-width:1.4px;stroke-linecap:butt;stroke-linejoin:miter;stroke-opacity:1"/>
<path class="bond-1 atom-1 atom-2" d="M 30.9,80.4 L 53.1,68.2" style="fill:none;fill-rule:evenodd;stroke:#000000;stroke-width:2.0px;stroke-linecap:butt;stroke-linejoin:miter;stroke-opacity:1"/>
<path class="bond-2 atom-2 atom-3" d="M 53.1,68.2 L 74.8,81.2" style="fill:none;fill-rule:evenodd;stroke:#000000;stroke-width:2.0px;stroke-linecap:butt;stroke-linejoin:miter;stroke-opacity:1"/>
<path class="bond-3 atom-3 atom-4" d="M 74.8,81.2 L 96.9,68.9" style="fill:none;fill-rule:evenodd;stroke:#000000;stroke-width:2.0px;stroke-linecap:butt;stroke-linejoin:miter;stroke-opacity:1"/>
<path class="bond-4 atom-4 atom-5" d="M 96.9,68.9 L 118.6,82.0" style="fill:none;fill-rule:evenodd;stroke:#000000;stroke-width:2.0px;stroke-linecap:butt;stroke-linejoin:miter;stroke-opacity:1"/>
<path class="bond-5 atom-5 atom-6" d="M 118.6,82.0 L 140.0,70.2" style="fill:none;fill-rule:evenodd;stroke:#E5E5E5;stroke-width:1.4px;stroke-linecap:butt;stroke-linejoin:miter;stroke-opacity:1"/>
<path d="M 30.4,80.1 L 30.9,80.4 L 31.5,80.1" style="fill:none;stroke:#E5E5E5;stroke-width:1.4px;stroke-linecap:butt;stroke-linejoin:miter;stroke-opacity:1;"/>
<path d="M 52.0,68.8 L 53.1,68.2 L 54.2,68.8" style="fill:none;stroke:#000000;stroke-width:2.0px;stroke-linecap:butt;stroke-linejoin:miter;stroke-opacity:1;"/>
<path d="M 73.7,80.6 L 74.8,81.2 L 75.9,80.6" style="fill:none;stroke:#000000;stroke-width:2.0px;stroke-linecap:butt;stroke-linejoin:miter;stroke-opacity:1;"/>
<path d="M 95.8,69.5 L 96.9,68.9 L 98.0,69.6" style="fill:none;stroke:#000000;stroke-width:2.0px;stroke-linecap:butt;stroke-linejoin:miter;stroke-opacity:1;"/>
<path d="M 118.1,81.7 L 118.6,82.0 L 119.2,81.7" style="fill:none;stroke:#000000;stroke-width:2.0px;stroke-linecap:butt;stroke-linejoin:miter;stroke-opacity:1;"/>
<path class="atom-0" d="M 7.8 66.6 L 8.9 65.5 L 7.5 65.2 L 7.7 64.5 L 9.0 65.1 L 8.8 63.7 L 9.6 63.7 L 9.4 65.1 L 10.7 64.5 L 10.9 65.2 L 9.5 65.5 L 10.5 66.6 L 9.9 67.0 L 9.2 65.7 L 8.5 67.0 L 7.8 66.6 " fill="#191919"/>
<path class="atom-6" d="M 139.5 68.9 L 140.5 67.8 L 139.1 67.5 L 139.3 66.8 L 140.6 67.5 L 140.4 66.1 L 141.2 66.1 L 141.0 67.5 L 142.3 66.9 L 142.5 67.5 L 141.1 67.8 L 142.1 68.9 L 141.5 69.3 L 140.8 68.0 L 140.1 69.3 L 139.5 68.9 " fill="#191919"/>
</svg>