<svg xmlns="http://www.w3.org/2000/svg" xmlns:rdkit="http://www.rdkit.org/xml" xmlns:xlink="http://www.w3.org/1999/xlink" version="1.1" baseProfile="full" xml:space="preserve" width="150px" height="150px" viewBox="0 0 150 150">
<!-- END OF HEADER -->
<rect style="opacity:1.0;fill:#FFFFFF;stroke:none" width="150.0" height="150.0" x="0.0" y="0.0"> </rect>
<ellipse cx="43.6" cy="85.9" rx="7.4" ry="7.4" class="atom-5" style="fill:#9999E5;fill-rule:evenodd;stroke:#9999E5;stroke-width:1.0px;stroke-linecap:butt;stroke-linejoin:miter;stroke-opacity:1"/>
<path class="bond-0 atom-0 atom-1" d="M 136.4,71.6 L 103.9,65.2" style="fill:none;fill-rule:evenodd;stroke:#E5E5E5;stroke-width:2.0px;stroke-linecap:butt;stroke-linejoin:miter;stroke-opacity:1"/>
<path class="bond-1 atom-1 atom-2" d="M 103.9,65.2 L 98.1,94.9" style="fill:none;fill-rule:evenodd;stroke:#E5E5E5;stroke-width:2.0px;stroke-linecap:butt;stroke-linejoin:miter;stroke-opacity:1"/>
<path class="bond-2 atom-1 atom-3" d="M 103.9,65.2 L 110.8,29.8" style="fill:none;fill-rule:evenodd;stroke:#E5E5E5;stroke-width:2.0px;stroke-linecap:butt;stroke-linejoin:miter;stroke-opacity:1"/>
<path class="bond-3 atom-1 atom-4" d="M 103.9,65.2 L 88.9,62.3" style="fill:none;fill-rule:evenodd;stroke:#000000;stroke-width:2.0px;stroke-linecap:butt;stroke-linejoin:miter;stroke-opacity:1"/>
<path class="bond-3 atom-1 atom-4" d="M 88.9,62.3 L 73.8,59.4" style="fill:none;fill-rule:evenodd;stroke:#FF0000;stroke-width:2.0px;stroke-linecap:butt;stroke-linejoin:miter;stroke-opacity:1"/>
<path class="bond-4 atom-4 atom-5" d="M 62.0,64.8 L 52.8,75.4" style="fill:none;fill-rule:evenodd;stroke:#FF0000;stroke-width:2.0px;stroke-linecap:butt;stroke-linejoin:miter;stroke-opacity:1"/>
<path class="bond-4 atom-4 atom-5" d="M 52.8,75.4 L 43.6,85.9" style="fill:none;fill-rule:evenodd;stroke:#000000;stroke-width:2.0px;stroke-linecap:butt;stroke-linejoin:miter;stroke-opacity:1"/>
<path class="bond-5 atom-5 atom-6" d="M 40.5,85.3 L 45.6,100.2" style="fill:none;fill-rule:evenodd;stroke:#000000;stroke-width:2.0px;stroke-linecap:butt;stroke-linejoin:miter;stroke-opacity:1"/>
<path class="bond-5 atom-5 atom-6" d="M 45.6,100.2 L 50.7,115.2" style="fill:none;fill-rule:evenodd;stroke:#FF0000;stroke-width:2.0px;stroke-linecap:butt;stroke-linejoin:miter;stroke-opacity:1"/>
<path class="bond-5 atom-5 atom-6" d="M 45.7,83.5 L 50.8,98.4" style="fill:none;fill-rule:evenodd;stroke:#000000;stroke-width:2.0px;stroke-linecap:butt;stroke-linejoin:miter;stroke-opacity:1"/>
<path class="bond-5 atom-5 atom-6" d="M 50.8,98.4 L 55.9,113.4" style="fill:none;fill-rule:evenodd;stroke:#FF0000;stroke-width:2.0px;stroke-linecap:butt;stroke-linejoin:miter;stroke-opacity:1"/>
<path class="bond-6 atom-5 atom-7" d="M 43.6,85.9 L 7.5,78.9" style="fill:none;fill-rule:evenodd;stroke:#000000;stroke-width:2.0px;stroke-linecap:butt;stroke-linejoin:miter;stroke-opacity:1"/>
<path d="M 44.1,85.4 L 43.6,85.9 L 41.8,85.6" style="fill:none;stroke:#000000;stroke-width:2.0px;stroke-linecap:butt;stroke-linejoin:miter;stroke-opacity:1;"/>
<path class="atom-0" d="M 138.1 71.1 L 139.6 69.6 L 137.6 69.2 L 137.9 68.1 L 139.7 69.1 L 139.5 67.0 L 140.6 67.0 L 140.3 69.1 L 142.2 68.2 L 142.5 69.2 L 140.4 69.6 L 141.9 71.1 L 141.0 71.8 L 140.0 69.8 L 139.0 71.8 L 138.1 71.1 " fill="#191919"/>
<path class="atom-2" d="M 94.9 100.2 L 96.4 98.6 L 94.4 98.2 L 94.7 97.2 L 96.6 98.1 L 96.3 96.1 L 97.4 96.1 L 97.1 98.1 L 99.0 97.2 L 99.3 98.2 L 97.3 98.6 L 98.7 100.2 L 97.8 100.8 L 96.8 98.9 L 95.8 100.8 L 94.9 100.2 " fill="#191919"/>
<path class="atom-3" d="M 109.0 28.0 L 110.5 26.4 L 108.5 26.0 L 108.8 24.9 L 110.7 25.9 L 110.4 23.8 L 111.5 23.8 L 111.2 25.9 L 113.1 25.0 L 113.4 26.0 L 111.4 26.4 L 112.9 27.9 L 112.0 28.6 L 110.9 26.7 L 109.9 28.6 L 109.0 28.0 " fill="#191919"/>
<path class="atom-4" d="M 63.0 58.2 Q 63.0 55.7, 64.2 54.3 Q 65.5 52.9, 67.8 52.9 Q 70.1 52.9, 71.3 54.3 Q 72.6 55.7, 72.6 58.2 Q 72.6 60.7, 71.3 62.2 Q 70.1 63.6, 67.8 63.6 Q 65.5 63.6, 64.2 62.2 Q 63.0 60.8, 63.0 58.2 M 67.8 62.4 Q 69.4 62.4, 70.2 61.4 Q 71.1 60.3, 71.1 58.2 Q 71.1 56.2, 70.2 55.1 Q 69.4 54.1, 67.8 54.1 Q 66.2 54.1, 65.3 55.1 Q 64.5 56.1, 64.5 58.2 Q 64.5 60.3, 65.3 61.4 Q 66.2 62.4, 67.8 62.4 " fill="#FF0000"/>
<path class="atom-6" d="M 50.8 120.8 Q 50.8 118.3, 52.0 116.9 Q 53.2 115.5, 55.6 115.5 Q 57.9 115.5, 59.1 116.9 Q 60.3 118.3, 60.3 120.8 Q 60.3 123.3, 59.1 124.7 Q 57.8 126.2, 55.6 126.2 Q 53.3 126.2, 52.0 124.7 Q 50.8 123.3, 50.8 120.8 M 55.6 125.0 Q 57.1 125.0, 58.0 123.9 Q 58.9 122.9, 58.9 120.8 Q 58.9 118.7, 58.0 117.7 Q 57.1 116.6, 55.6 116.6 Q 54.0 116.6, 53.1 117.7 Q 52.2 118.7, 52.2 120.8 Q 52.2 122.9, 53.1 123.9 Q 54.0 125.0, 55.6 125.0 " fill="#FF0000"/>
</svg>