<svg xmlns="http://www.w3.org/2000/svg" xmlns:rdkit="http://www.rdkit.org/xml" xmlns:xlink="http://www.w3.org/1999/xlink" version="1.1" baseProfile="full" xml:space="preserve" width="150px" height="150px" viewBox="0 0 150 150">
<!-- END OF HEADER -->
<rect style="opacity:1.0;fill:#FFFFFF;stroke:none" width="150.0" height="150.0" x="0.0" y="0.0"> </rect>
<ellipse cx="116.2" cy="60.0" rx="8.8" ry="8.8" class="atom-5" style="fill:#9999E5;fill-rule:evenodd;stroke:#9999E5;stroke-width:1.0px;stroke-linecap:butt;stroke-linejoin:miter;stroke-opacity:1"/>
<path class="bond-0 atom-0 atom-1" d="M 11.6,65.2 L 46.0,90.6" style="fill:none;fill-rule:evenodd;stroke:#E5E5E5;stroke-width:2.4px;stroke-linecap:butt;stroke-linejoin:miter;stroke-opacity:1"/>
<path class="bond-1 atom-1 atom-2" d="M 46.0,90.6 L 77.2,113.6" style="fill:none;fill-rule:evenodd;stroke:#E5E5E5;stroke-width:2.4px;stroke-linecap:butt;stroke-linejoin:miter;stroke-opacity:1"/>
<path class="bond-2 atom-1 atom-3" d="M 46.0,90.6 L 24.2,120.2" style="fill:none;fill-rule:evenodd;stroke:#E5E5E5;stroke-width:2.4px;stroke-linecap:butt;stroke-linejoin:miter;stroke-opacity:1"/>
<path class="bond-3 atom-1 atom-4" d="M 46.0,90.6 L 56.2,76.8" style="fill:none;fill-rule:evenodd;stroke:#000000;stroke-width:2.0px;stroke-linecap:butt;stroke-linejoin:miter;stroke-opacity:1"/>
<path class="bond-3 atom-1 atom-4" d="M 56.2,76.8 L 66.4,63.0" style="fill:none;fill-rule:evenodd;stroke:#FF0000;stroke-width:2.0px;stroke-linecap:butt;stroke-linejoin:miter;stroke-opacity:1"/>
<path class="bond-4 atom-4 atom-5" d="M 79.5,55.9 L 97.9,57.9" style="fill:none;fill-rule:evenodd;stroke:#FF0000;stroke-width:2.0px;stroke-linecap:butt;stroke-linejoin:miter;stroke-opacity:1"/>
<path class="bond-4 atom-4 atom-5" d="M 97.9,57.9 L 116.2,60.0" style="fill:none;fill-rule:evenodd;stroke:#000000;stroke-width:2.0px;stroke-linecap:butt;stroke-linejoin:miter;stroke-opacity:1"/>
<path class="bond-5 atom-5 atom-6" d="M 112.4,59.6 L 120.0,76.8" style="fill:none;fill-rule:evenodd;stroke:#000000;stroke-width:2.0px;stroke-linecap:butt;stroke-linejoin:miter;stroke-opacity:1"/>
<path class="bond-5 atom-5 atom-6" d="M 120.0,76.8 L 127.5,94.1" style="fill:none;fill-rule:evenodd;stroke:#FF0000;stroke-width:2.0px;stroke-linecap:butt;stroke-linejoin:miter;stroke-opacity:1"/>
<path class="bond-5 atom-5 atom-6" d="M 118.5,56.9 L 126.0,74.2" style="fill:none;fill-rule:evenodd;stroke:#000000;stroke-width:2.0px;stroke-linecap:butt;stroke-linejoin:miter;stroke-opacity:1"/>
<path class="bond-5 atom-5 atom-6" d="M 126.0,74.2 L 133.6,91.4" style="fill:none;fill-rule:evenodd;stroke:#FF0000;stroke-width:2.0px;stroke-linecap:butt;stroke-linejoin:miter;stroke-opacity:1"/>
<path class="bond-6 atom-5 atom-7" d="M 116.2,60.0 L 142.5,24.4" style="fill:none;fill-rule:evenodd;stroke:#000000;stroke-width:2.0px;stroke-linecap:butt;stroke-linejoin:miter;stroke-opacity:1"/>
<path d="M 115.3,59.9 L 116.2,60.0 L 117.6,58.2" style="fill:none;stroke:#000000;stroke-width:2.0px;stroke-linecap:butt;stroke-linejoin:miter;stroke-opacity:1;"/>
<path class="atom-0" d="M 8.1 63.0 L 9.9 61.1 L 7.5 60.6 L 7.9 59.4 L 10.1 60.5 L 9.8 58.0 L 11.1 58.0 L 10.8 60.5 L 13.0 59.4 L 13.4 60.6 L 10.9 61.1 L 12.7 63.0 L 11.6 63.7 L 10.4 61.4 L 9.2 63.7 L 8.1 63.0 " fill="#191919"/>
<path class="atom-2" d="M 79.3 115.5 L 81.1 113.6 L 78.7 113.1 L 79.0 111.9 L 81.3 113.0 L 81.0 110.5 L 82.3 110.5 L 81.9 113.0 L 84.2 111.9 L 84.6 113.1 L 82.1 113.6 L 83.9 115.5 L 82.8 116.3 L 81.6 113.9 L 80.4 116.3 L 79.3 115.5 " fill="#191919"/>
<path class="atom-3" d="M 17.4 124.8 L 19.3 123.0 L 16.8 122.5 L 17.2 121.2 L 19.4 122.3 L 19.1 119.9 L 20.5 119.9 L 20.1 122.3 L 22.4 121.3 L 22.8 122.5 L 20.3 122.9 L 22.1 124.8 L 21.0 125.6 L 19.8 123.3 L 18.5 125.6 L 17.4 124.8 " fill="#191919"/>
<path class="atom-4" d="M 66.6 55.1 Q 66.6 52.1, 68.0 50.4 Q 69.5 48.7, 72.3 48.7 Q 75.1 48.7, 76.6 50.4 Q 78.1 52.1, 78.1 55.1 Q 78.1 58.1, 76.5 59.9 Q 75.0 61.6, 72.3 61.6 Q 69.5 61.6, 68.0 59.9 Q 66.6 58.1, 66.6 55.1 M 72.3 60.2 Q 74.2 60.2, 75.2 58.9 Q 76.3 57.6, 76.3 55.1 Q 76.3 52.6, 75.2 51.4 Q 74.2 50.1, 72.3 50.1 Q 70.4 50.1, 69.3 51.4 Q 68.3 52.6, 68.3 55.1 Q 68.3 57.6, 69.3 58.9 Q 70.4 60.2, 72.3 60.2 " fill="#FF0000"/>
<path class="atom-6" d="M 128.2 100.6 Q 128.2 97.6, 129.7 95.9 Q 131.2 94.2, 133.9 94.2 Q 136.7 94.2, 138.2 95.9 Q 139.7 97.6, 139.7 100.6 Q 139.7 103.6, 138.2 105.3 Q 136.7 107.1, 133.9 107.1 Q 131.2 107.1, 129.7 105.3 Q 128.2 103.6, 128.2 100.6 M 133.9 105.6 Q 135.8 105.6, 136.9 104.4 Q 137.9 103.1, 137.9 100.6 Q 137.9 98.1, 136.9 96.9 Q 135.8 95.6, 133.9 95.6 Q 132.0 95.6, 131.0 96.8 Q 130.0 98.1, 130.0 100.6 Q 130.0 103.1, 131.0 104.4 Q 132.0 105.6, 133.9 105.6 " fill="#FF0000"/>
</svg>