<svg xmlns="http://www.w3.org/2000/svg" xmlns:rdkit="http://www.rdkit.org/xml" xmlns:xlink="http://www.w3.org/1999/xlink" version="1.1" baseProfile="full" xml:space="preserve" width="150px" height="150px" viewBox="0 0 150 150">
<!-- END OF HEADER -->
<rect style="opacity:1.0;fill:#FFFFFF;stroke:none" width="150.0" height="150.0" x="0.0" y="0.0"> </rect>
<ellipse cx="108.5" cy="62.4" rx="7.5" ry="7.5" class="atom-3" style="fill:#9999E5;fill-rule:evenodd;stroke:#9999E5;stroke-width:1.0px;stroke-linecap:butt;stroke-linejoin:miter;stroke-opacity:1"/>
<path class="bond-0 atom-0 atom-1" d="M 11.5,53.5 L 44.0,68.4" style="fill:none;fill-rule:evenodd;stroke:#E5E5E5;stroke-width:2.0px;stroke-linecap:butt;stroke-linejoin:miter;stroke-opacity:1"/>
<path class="bond-1 atom-1 atom-2" d="M 44.0,68.4 L 74.5,46.8" style="fill:none;fill-rule:evenodd;stroke:#000000;stroke-width:2.0px;stroke-linecap:butt;stroke-linejoin:miter;stroke-opacity:1"/>
<path class="bond-2 atom-2 atom-3" d="M 74.5,46.8 L 108.5,62.4" style="fill:none;fill-rule:evenodd;stroke:#000000;stroke-width:2.0px;stroke-linecap:butt;stroke-linejoin:miter;stroke-opacity:1"/>
<path class="bond-3 atom-3 atom-4" d="M 108.5,62.4 L 142.5,78.0" style="fill:none;fill-rule:evenodd;stroke:#000000;stroke-width:2.0px;stroke-linecap:butt;stroke-linejoin:miter;stroke-opacity:1"/>
<path class="bond-4 atom-3 atom-5" d="M 108.5,62.4 L 92.9,96.4" style="fill:none;fill-rule:evenodd;stroke:#000000;stroke-width:2.0px;stroke-linecap:butt;stroke-linejoin:miter;stroke-opacity:1"/>
<path class="bond-5 atom-5 atom-6" d="M 92.9,96.4 L 114.5,126.9" style="fill:none;fill-rule:evenodd;stroke:#000000;stroke-width:2.0px;stroke-linecap:butt;stroke-linejoin:miter;stroke-opacity:1"/>
<path class="bond-5 atom-5 atom-6" d="M 99.3,95.8 L 119.1,123.7" style="fill:none;fill-rule:evenodd;stroke:#000000;stroke-width:2.0px;stroke-linecap:butt;stroke-linejoin:miter;stroke-opacity:1"/>
<path class="bond-6 atom-3 atom-7" d="M 108.5,62.4 L 114.8,48.8" style="fill:none;fill-rule:evenodd;stroke:#000000;stroke-width:2.0px;stroke-linecap:butt;stroke-linejoin:miter;stroke-opacity:1"/>
<path class="bond-6 atom-3 atom-7" d="M 114.8,48.8 L 121.0,35.2" style="fill:none;fill-rule:evenodd;stroke:#FF0000;stroke-width:2.0px;stroke-linecap:butt;stroke-linejoin:miter;stroke-opacity:1"/>
<path d="M 43.2,68.0 L 44.0,68.4 L 44.8,67.9" style="fill:none;stroke:#E5E5E5;stroke-width:2.0px;stroke-linecap:butt;stroke-linejoin:miter;stroke-opacity:1;"/>
<path d="M 73.0,47.9 L 74.5,46.8 L 76.2,47.6" style="fill:none;stroke:#000000;stroke-width:2.0px;stroke-linecap:butt;stroke-linejoin:miter;stroke-opacity:1;"/>
<path d="M 93.7,94.7 L 92.9,96.4 L 94.0,97.9" style="fill:none;stroke:#000000;stroke-width:2.0px;stroke-linecap:butt;stroke-linejoin:miter;stroke-opacity:1;"/>
<path class="atom-0" d="M 8.0 51.6 L 9.6 50.0 L 7.5 49.6 L 7.8 48.5 L 9.7 49.5 L 9.4 47.4 L 10.6 47.4 L 10.3 49.5 L 12.2 48.6 L 12.5 49.6 L 10.4 50.0 L 11.9 51.6 L 11.0 52.2 L 10.0 50.3 L 8.9 52.2 L 8.0 51.6 " fill="#191919"/>
<path class="atom-7" d="M 119.3 28.5 Q 119.3 25.9, 120.5 24.5 Q 121.8 23.1, 124.1 23.1 Q 126.5 23.1, 127.7 24.5 Q 129.0 25.9, 129.0 28.5 Q 129.0 31.0, 127.7 32.5 Q 126.5 33.9, 124.1 33.9 Q 121.8 33.9, 120.5 32.5 Q 119.3 31.0, 119.3 28.5 M 124.1 32.8 Q 125.8 32.8, 126.6 31.7 Q 127.5 30.6, 127.5 28.5 Q 127.5 26.4, 126.6 25.3 Q 125.8 24.3, 124.1 24.3 Q 122.5 24.3, 121.6 25.3 Q 120.8 26.4, 120.8 28.5 Q 120.8 30.6, 121.6 31.7 Q 122.5 32.8, 124.1 32.8 " fill="#FF0000"/>
<path class="atom-7" d="M 130.6 23.2 L 132.1 23.2 L 132.1 27.7 L 137.5 27.7 L 137.5 23.2 L 138.9 23.2 L 138.9 33.8 L 137.5 33.8 L 137.5 28.9 L 132.1 28.9 L 132.1 33.8 L 130.6 33.8 L 130.6 23.2 " fill="#FF0000"/>
</svg>