<svg xmlns="http://www.w3.org/2000/svg" xmlns:rdkit="http://www.rdkit.org/xml" xmlns:xlink="http://www.w3.org/1999/xlink" version="1.1" baseProfile="full" xml:space="preserve" width="150px" height="150px" viewBox="0 0 150 150">
<!-- END OF HEADER -->
<rect style="opacity:1.0;fill:#FFFFFF;stroke:none" width="150.0" height="150.0" x="0.0" y="0.0"> </rect>
<ellipse cx="75.3" cy="70.7" rx="5.1" ry="5.1" class="atom-3" style="fill:#9999E5;fill-rule:evenodd;stroke:#9999E5;stroke-width:1.0px;stroke-linecap:butt;stroke-linejoin:miter;stroke-opacity:1"/>
<path class="bond-0 atom-0 atom-1" d="M 11.7,80.5 L 31.4,69.7" style="fill:none;fill-rule:evenodd;stroke:#E5E5E5;stroke-width:1.4px;stroke-linecap:butt;stroke-linejoin:miter;stroke-opacity:1"/>
<path class="bond-1 atom-1 atom-2" d="M 31.4,69.7 L 53.1,82.9" style="fill:none;fill-rule:evenodd;stroke:#000000;stroke-width:2.0px;stroke-linecap:butt;stroke-linejoin:miter;stroke-opacity:1"/>
<path class="bond-2 atom-2 atom-3" d="M 53.1,82.9 L 75.3,70.7" style="fill:none;fill-rule:evenodd;stroke:#000000;stroke-width:2.0px;stroke-linecap:butt;stroke-linejoin:miter;stroke-opacity:1"/>
<path class="bond-3 atom-3 atom-4" d="M 75.3,70.7 L 96.9,83.8" style="fill:none;fill-rule:evenodd;stroke:#000000;stroke-width:2.0px;stroke-linecap:butt;stroke-linejoin:miter;stroke-opacity:1"/>
<path class="bond-4 atom-4 atom-5" d="M 96.9,83.8 L 119.1,71.6" style="fill:none;fill-rule:evenodd;stroke:#000000;stroke-width:2.0px;stroke-linecap:butt;stroke-linejoin:miter;stroke-opacity:1"/>
<path class="bond-5 atom-5 atom-6" d="M 119.1,71.6 L 138.3,83.2" style="fill:none;fill-rule:evenodd;stroke:#E5E5E5;stroke-width:1.4px;stroke-linecap:butt;stroke-linejoin:miter;stroke-opacity:1"/>
<path d="M 30.9,70.0 L 31.4,69.7 L 31.9,70.1" style="fill:none;stroke:#E5E5E5;stroke-width:1.4px;stroke-linecap:butt;stroke-linejoin:miter;stroke-opacity:1;"/>
<path d="M 52.0,82.2 L 53.1,82.9 L 54.2,82.3" style="fill:none;stroke:#000000;stroke-width:2.0px;stroke-linecap:butt;stroke-linejoin:miter;stroke-opacity:1;"/>
<path d="M 74.2,71.3 L 75.3,70.7 L 76.4,71.3" style="fill:none;stroke:#000000;stroke-width:2.0px;stroke-linecap:butt;stroke-linejoin:miter;stroke-opacity:1;"/>
<path d="M 95.9,83.2 L 96.9,83.8 L 98.0,83.2" style="fill:none;stroke:#000000;stroke-width:2.0px;stroke-linecap:butt;stroke-linejoin:miter;stroke-opacity:1;"/>
<path d="M 118.6,71.9 L 119.1,71.6 L 119.6,71.9" style="fill:none;stroke:#000000;stroke-width:2.0px;stroke-linecap:butt;stroke-linejoin:miter;stroke-opacity:1;"/>
<path class="atom-0" d="M 7.8 81.1 L 8.9 80.1 L 7.5 79.8 L 7.7 79.1 L 9.0 79.7 L 8.8 78.3 L 9.6 78.3 L 9.4 79.7 L 10.7 79.1 L 10.9 79.8 L 9.5 80.0 L 10.5 81.1 L 9.9 81.6 L 9.2 80.2 L 8.5 81.6 L 7.8 81.1 " fill="#191919"/>
<path class="atom-6" d="M 139.4 84.0 L 140.5 82.9 L 139.1 82.6 L 139.3 81.9 L 140.6 82.5 L 140.4 81.1 L 141.2 81.1 L 141.0 82.5 L 142.3 81.9 L 142.5 82.6 L 141.1 82.9 L 142.1 83.9 L 141.5 84.4 L 140.8 83.0 L 140.1 84.4 L 139.4 84.0 " fill="#191919"/>
</svg>