<svg xmlns="http://www.w3.org/2000/svg" xmlns:rdkit="http://www.rdkit.org/xml" xmlns:xlink="http://www.w3.org/1999/xlink" version="1.1" baseProfile="full" xml:space="preserve" width="150px" height="150px" viewBox="0 0 150 150">
<!-- END OF HEADER -->
<rect style="opacity:1.0;fill:#FFFFFF;stroke:none" width="150.0" height="150.0" x="0.0" y="0.0"> </rect>
<ellipse cx="21.1" cy="43.2" rx="13.6" ry="13.6" class="atom-2" style="fill:#9999E5;fill-rule:evenodd;stroke:#9999E5;stroke-width:1.0px;stroke-linecap:butt;stroke-linejoin:miter;stroke-opacity:1"/>
<path class="bond-0 atom-0 atom-1" d="M 139.5,30.6 L 85.6,73.8" style="fill:none;fill-rule:evenodd;stroke:#E5E5E5;stroke-width:3.6px;stroke-linecap:butt;stroke-linejoin:miter;stroke-opacity:1"/>
<path class="bond-0 atom-0 atom-1" d="M 133.1,22.7 L 79.2,65.8" style="fill:none;fill-rule:evenodd;stroke:#E5E5E5;stroke-width:3.6px;stroke-linecap:butt;stroke-linejoin:miter;stroke-opacity:1"/>
<path class="bond-1 atom-1 atom-2" d="M 84.7,68.0 L 21.1,43.2" style="fill:none;fill-rule:evenodd;stroke:#000000;stroke-width:2.0px;stroke-linecap:butt;stroke-linejoin:miter;stroke-opacity:1"/>
<path class="bond-2 atom-1 atom-3" d="M 84.7,68.0 L 93.1,123.3" style="fill:none;fill-rule:evenodd;stroke:#E5E5E5;stroke-width:3.6px;stroke-linecap:butt;stroke-linejoin:miter;stroke-opacity:1"/>
<path d="M 83.1,67.4 L 84.7,68.0 L 84.9,69.4" style="fill:none;stroke:#000000;stroke-width:2.0px;stroke-linecap:butt;stroke-linejoin:miter;stroke-opacity:1;"/>
<path class="atom-0" d="M 134.3 23.2 L 137.1 20.3 L 133.4 19.6 L 133.9 17.6 L 137.4 19.4 L 136.9 15.6 L 139.0 15.6 L 138.4 19.4 L 141.9 17.7 L 142.5 19.6 L 138.7 20.3 L 141.4 23.2 L 139.7 24.4 L 137.9 20.8 L 136.0 24.4 L 134.3 23.2 " fill="#191919"/>
<path class="atom-3" d="M 91.3 133.3 L 94.1 130.4 L 90.4 129.6 L 90.9 127.7 L 94.4 129.4 L 93.9 125.6 L 96.0 125.6 L 95.4 129.4 L 98.9 127.8 L 99.5 129.6 L 95.7 130.3 L 98.4 133.2 L 96.8 134.4 L 94.9 130.8 L 93.0 134.4 L 91.3 133.3 " fill="#191919"/>
</svg>