<svg xmlns="http://www.w3.org/2000/svg" xmlns:rdkit="http://www.rdkit.org/xml" xmlns:xlink="http://www.w3.org/1999/xlink" version="1.1" baseProfile="full" xml:space="preserve" width="150px" height="150px" viewBox="0 0 150 150">
<!-- END OF HEADER -->
<rect style="opacity:1.0;fill:#FFFFFF;stroke:none" width="150.0" height="150.0" x="0.0" y="0.0"> </rect>
<ellipse cx="21.5" cy="24.0" rx="14.0" ry="14.0" class="atom-0" style="fill:#9999E5;fill-rule:evenodd;stroke:#9999E5;stroke-width:1.0px;stroke-linecap:butt;stroke-linejoin:miter;stroke-opacity:1"/>
<path class="bond-0 atom-0 atom-1" d="M 21.5,24.0 L 70.3,73.8" style="fill:none;fill-rule:evenodd;stroke:#000000;stroke-width:2.0px;stroke-linecap:butt;stroke-linejoin:miter;stroke-opacity:1"/>
<path class="bond-1 atom-1 atom-2" d="M 66.0,69.5 L 49.9,127.2" style="fill:none;fill-rule:evenodd;stroke:#E5E5E5;stroke-width:3.7px;stroke-linecap:butt;stroke-linejoin:miter;stroke-opacity:1"/>
<path class="bond-1 atom-1 atom-2" d="M 76.1,72.3 L 60.0,130.0" style="fill:none;fill-rule:evenodd;stroke:#E5E5E5;stroke-width:3.7px;stroke-linecap:butt;stroke-linejoin:miter;stroke-opacity:1"/>
<path class="bond-2 atom-1 atom-3" d="M 70.3,73.8 L 132.8,57.7" style="fill:none;fill-rule:evenodd;stroke:#E5E5E5;stroke-width:3.7px;stroke-linecap:butt;stroke-linejoin:miter;stroke-opacity:1"/>
<path d="M 69.0,72.6 L 70.3,73.8 L 71.8,73.4" style="fill:none;stroke:#000000;stroke-width:2.0px;stroke-linecap:butt;stroke-linejoin:miter;stroke-opacity:1;"/>
<path class="atom-2" d="M 47.8 138.8 L 50.7 135.8 L 46.8 135.0 L 47.4 133.1 L 51.0 134.8 L 50.5 131.0 L 52.6 130.9 L 52.0 134.8 L 55.6 133.1 L 56.2 135.0 L 52.3 135.8 L 55.1 138.8 L 53.4 140.0 L 51.5 136.3 L 49.5 140.0 L 47.8 138.8 " fill="#191919"/>
<path class="atom-3" d="M 134.1 54.2 L 137.0 51.3 L 133.2 50.5 L 133.7 48.5 L 137.3 50.3 L 136.8 46.4 L 138.9 46.4 L 138.3 50.3 L 141.9 48.6 L 142.5 50.5 L 138.6 51.2 L 141.4 54.2 L 139.7 55.4 L 137.8 51.7 L 135.8 55.4 L 134.1 54.2 " fill="#191919"/>
</svg>