<svg xmlns="http://www.w3.org/2000/svg" xmlns:rdkit="http://www.rdkit.org/xml" xmlns:xlink="http://www.w3.org/1999/xlink" version="1.1" baseProfile="full" xml:space="preserve" width="150px" height="150px" viewBox="0 0 150 150">
<!-- END OF HEADER -->
<rect style="opacity:1.0;fill:#FFFFFF;stroke:none" width="150.0" height="150.0" x="0.0" y="0.0"> </rect>
<ellipse cx="26.9" cy="21.6" rx="14.1" ry="14.1" class="atom-3" style="fill:#9999E5;fill-rule:evenodd;stroke:#9999E5;stroke-width:1.0px;stroke-linecap:butt;stroke-linejoin:miter;stroke-opacity:1"/>
<path class="bond-0 atom-0 atom-1" d="M 125.4,82.5 L 62.1,82.5" style="fill:none;fill-rule:evenodd;stroke:#E5E5E5;stroke-width:3.8px;stroke-linecap:butt;stroke-linejoin:miter;stroke-opacity:1"/>
<path class="bond-1 atom-1 atom-2" d="M 59.0,77.3 L 29.3,128.7" style="fill:none;fill-rule:evenodd;stroke:#E5E5E5;stroke-width:3.8px;stroke-linecap:butt;stroke-linejoin:miter;stroke-opacity:1"/>
<path class="bond-1 atom-1 atom-2" d="M 68.2,82.5 L 38.5,134.0" style="fill:none;fill-rule:evenodd;stroke:#E5E5E5;stroke-width:3.8px;stroke-linecap:butt;stroke-linejoin:miter;stroke-opacity:1"/>
<path class="bond-2 atom-1 atom-3" d="M 62.1,82.5 L 26.9,21.6" style="fill:none;fill-rule:evenodd;stroke:#000000;stroke-width:2.0px;stroke-linecap:butt;stroke-linejoin:miter;stroke-opacity:1"/>
<path d="M 63.7,82.5 L 62.1,82.5 L 61.2,81.0" style="fill:none;stroke:#E5E5E5;stroke-width:3.8px;stroke-linecap:butt;stroke-linejoin:miter;stroke-opacity:1;"/>
<path class="atom-0" d="M 128.7 80.3 L 131.6 77.3 L 127.8 76.5 L 128.4 74.5 L 131.9 76.4 L 131.4 72.4 L 133.5 72.4 L 132.9 76.3 L 136.6 74.6 L 137.2 76.5 L 133.3 77.3 L 136.1 80.3 L 134.4 81.5 L 132.4 77.8 L 130.4 81.5 L 128.7 80.3 " fill="#191919"/>
<path class="atom-2" d="M 23.1 141.3 L 26.1 138.3 L 22.2 137.5 L 22.8 135.5 L 26.3 137.3 L 25.8 133.4 L 27.9 133.4 L 27.3 137.3 L 31.0 135.6 L 31.6 137.5 L 27.7 138.2 L 30.5 141.3 L 28.8 142.5 L 26.8 138.8 L 24.8 142.5 L 23.1 141.3 " fill="#191919"/>
</svg>