<svg xmlns="http://www.w3.org/2000/svg" xmlns:rdkit="http://www.rdkit.org/xml" xmlns:xlink="http://www.w3.org/1999/xlink" version="1.1" baseProfile="full" xml:space="preserve" width="150px" height="150px" viewBox="0 0 150 150">
<!-- END OF HEADER -->
<rect style="opacity:1.0;fill:#FFFFFF;stroke:none" width="150.0" height="150.0" x="0.0" y="0.0"> </rect>
<ellipse cx="128.1" cy="102.9" rx="14.4" ry="14.4" class="atom-0" style="fill:#E5E533;fill-rule:evenodd;stroke:#E5E533;stroke-width:1.0px;stroke-linecap:butt;stroke-linejoin:miter;stroke-opacity:1"/>
<ellipse cx="111.0" cy="33.2" rx="14.4" ry="14.4" class="atom-1" style="fill:#9999E5;fill-rule:evenodd;stroke:#9999E5;stroke-width:1.0px;stroke-linecap:butt;stroke-linejoin:miter;stroke-opacity:1"/>
<ellipse cx="39.4" cy="28.0" rx="14.4" ry="14.4" class="atom-2" style="fill:#E5E533;fill-rule:evenodd;stroke:#E5E533;stroke-width:1.0px;stroke-linecap:butt;stroke-linejoin:miter;stroke-opacity:1"/>
<path class="bond-0 atom-0 atom-1" d="M 128.1,102.9 L 111.0,33.2" style="fill:none;fill-rule:evenodd;stroke:#000000;stroke-width:2.0px;stroke-linecap:butt;stroke-linejoin:miter;stroke-opacity:1"/>
<path class="bond-0 atom-0 atom-1" d="M 115.8,97.9 L 102.4,43.4" style="fill:none;fill-rule:evenodd;stroke:#000000;stroke-width:2.0px;stroke-linecap:butt;stroke-linejoin:miter;stroke-opacity:1;stroke-dasharray:6,4"/>
<path class="bond-1 atom-1 atom-2" d="M 111.0,33.2 L 81.0,31.1" style="fill:none;fill-rule:evenodd;stroke:#000000;stroke-width:2.0px;stroke-linecap:butt;stroke-linejoin:miter;stroke-opacity:1"/>
<path class="bond-1 atom-1 atom-2" d="M 81.0,31.1 L 51.1,28.9" style="fill:none;fill-rule:evenodd;stroke:#FF0000;stroke-width:2.0px;stroke-linecap:butt;stroke-linejoin:miter;stroke-opacity:1"/>
<path class="bond-1 atom-1 atom-2" d="M 102.4,43.4 L 76.4,41.5" style="fill:none;fill-rule:evenodd;stroke:#000000;stroke-width:2.0px;stroke-linecap:butt;stroke-linejoin:miter;stroke-opacity:1;stroke-dasharray:6,4"/>
<path class="bond-1 atom-1 atom-2" d="M 76.4,41.5 L 50.3,39.6" style="fill:none;fill-rule:evenodd;stroke:#FF0000;stroke-width:2.0px;stroke-linecap:butt;stroke-linejoin:miter;stroke-opacity:1;stroke-dasharray:6,4"/>
<path class="bond-2 atom-2 atom-3" d="M 29.1,38.9 L 12.5,79.8" style="fill:none;fill-rule:evenodd;stroke:#E5E5E5;stroke-width:3.8px;stroke-linecap:butt;stroke-linejoin:miter;stroke-opacity:1"/>
<path class="bond-2 atom-2 atom-3" d="M 39.1,43.0 L 22.5,83.8" style="fill:none;fill-rule:evenodd;stroke:#E5E5E5;stroke-width:3.8px;stroke-linecap:butt;stroke-linejoin:miter;stroke-opacity:1;stroke-dasharray:6,4"/>
<path class="bond-3 atom-4 atom-0" d="M 74.3,136.3 L 128.1,102.9" style="fill:none;fill-rule:evenodd;stroke:#E5E5E5;stroke-width:3.8px;stroke-linecap:butt;stroke-linejoin:miter;stroke-opacity:1"/>
<path class="bond-3 atom-4 atom-0" d="M 68.7,127.2 L 115.8,97.9" style="fill:none;fill-rule:evenodd;stroke:#E5E5E5;stroke-width:3.8px;stroke-linecap:butt;stroke-linejoin:miter;stroke-opacity:1;stroke-dasharray:6,4"/>
<path d="M 127.7,101.2 L 128.1,102.9 L 126.8,103.8" style="fill:none;stroke:#000000;stroke-width:2.0px;stroke-linecap:butt;stroke-linejoin:miter;stroke-opacity:1;"/>
<path d="M 111.8,36.7 L 111.0,33.2 L 109.5,33.1" style="fill:none;stroke:#000000;stroke-width:2.0px;stroke-linecap:butt;stroke-linejoin:miter;stroke-opacity:1;"/>
<path class="atom-2" d="M 30.1 28.1 Q 30.1 23.2, 32.5 20.5 Q 34.9 17.7, 39.4 17.7 Q 43.9 17.7, 46.3 20.5 Q 48.7 23.2, 48.7 28.1 Q 48.7 33.0, 46.3 35.8 Q 43.8 38.6, 39.4 38.6 Q 34.9 38.6, 32.5 35.8 Q 30.1 33.0, 30.1 28.1 M 39.4 36.3 Q 42.5 36.3, 44.2 34.2 Q 45.9 32.2, 45.9 28.1 Q 45.9 24.1, 44.2 22.1 Q 42.5 20.0, 39.4 20.0 Q 36.3 20.0, 34.6 22.0 Q 32.9 24.1, 32.9 28.1 Q 32.9 32.2, 34.6 34.2 Q 36.3 36.3, 39.4 36.3 " fill="#FF0000"/>
<path class="atom-3" d="M 8.5 92.2 L 11.5 89.2 L 7.5 88.4 L 8.1 86.3 L 11.7 88.2 L 11.2 84.2 L 13.4 84.2 L 12.8 88.1 L 16.5 86.4 L 17.1 88.4 L 13.1 89.1 L 16.0 92.2 L 14.2 93.5 L 12.2 89.7 L 10.2 93.5 L 8.5 92.2 " fill="#191919"/>
<path class="atom-4" d="M 60.5 134.0 L 63.5 130.9 L 59.5 130.1 L 60.1 128.1 L 63.8 129.9 L 63.2 125.9 L 65.4 125.9 L 64.8 129.9 L 68.5 128.2 L 69.1 130.1 L 65.1 130.9 L 68.0 133.9 L 66.2 135.2 L 64.2 131.4 L 62.2 135.2 L 60.5 134.0 " fill="#191919"/>
</svg>