<svg xmlns="http://www.w3.org/2000/svg" xmlns:rdkit="http://www.rdkit.org/xml" xmlns:xlink="http://www.w3.org/1999/xlink" version="1.1" baseProfile="full" xml:space="preserve" width="150px" height="150px" viewBox="0 0 150 150">
<!-- END OF HEADER -->
<rect style="opacity:1.0;fill:#FFFFFF;stroke:none" width="150.0" height="150.0" x="0.0" y="0.0"> </rect>
<ellipse cx="116.8" cy="75.2" rx="9.1" ry="9.1" class="atom-1" style="fill:#CCCCCC;fill-rule:evenodd;stroke:#CCCCCC;stroke-width:1.0px;stroke-linecap:butt;stroke-linejoin:miter;stroke-opacity:1"/>
<ellipse cx="71.4" cy="75.2" rx="9.1" ry="9.1" class="atom-3" style="fill:#9999E5;fill-rule:evenodd;stroke:#9999E5;stroke-width:1.0px;stroke-linecap:butt;stroke-linejoin:miter;stroke-opacity:1"/>
<path class="bond-0 atom-0 atom-1" d="M 134.9,106.6 L 116.8,75.2" style="fill:none;fill-rule:evenodd;stroke:#E5E5E5;stroke-width:2.4px;stroke-linecap:butt;stroke-linejoin:miter;stroke-opacity:1"/>
<path class="bond-1 atom-1 atom-2" d="M 116.8,75.2 L 139.0,36.8" style="fill:none;fill-rule:evenodd;stroke:#E5E5E5;stroke-width:2.4px;stroke-linecap:butt;stroke-linejoin:miter;stroke-opacity:1"/>
<path class="bond-2 atom-1 atom-3" d="M 116.8,75.2 L 71.4,75.2" style="fill:none;fill-rule:evenodd;stroke:#000000;stroke-width:2.0px;stroke-linecap:butt;stroke-linejoin:miter;stroke-opacity:1"/>
<path class="bond-3 atom-3 atom-4" d="M 71.4,75.2 L 71.4,120.6" style="fill:none;fill-rule:evenodd;stroke:#000000;stroke-width:2.0px;stroke-linecap:butt;stroke-linejoin:miter;stroke-opacity:1"/>
<path class="bond-4 atom-3 atom-5" d="M 71.4,75.2 L 71.4,29.9" style="fill:none;fill-rule:evenodd;stroke:#000000;stroke-width:2.0px;stroke-linecap:butt;stroke-linejoin:miter;stroke-opacity:1"/>
<path class="bond-5 atom-3 atom-6" d="M 71.4,75.2 L 52.5,75.2" style="fill:none;fill-rule:evenodd;stroke:#000000;stroke-width:2.0px;stroke-linecap:butt;stroke-linejoin:miter;stroke-opacity:1"/>
<path class="bond-5 atom-3 atom-6" d="M 52.5,75.2 L 33.5,75.2" style="fill:none;fill-rule:evenodd;stroke:#FF0000;stroke-width:2.0px;stroke-linecap:butt;stroke-linejoin:miter;stroke-opacity:1"/>
<path class="atom-0" d="M 137.0 113.1 L 138.9 111.1 L 136.4 110.6 L 136.8 109.4 L 139.1 110.5 L 138.8 108.0 L 140.1 108.0 L 139.8 110.5 L 142.1 109.4 L 142.5 110.6 L 140.0 111.1 L 141.8 113.1 L 140.7 113.9 L 139.4 111.5 L 138.1 113.9 L 137.0 113.1 " fill="#191919"/>
<path class="atom-2" d="M 137.0 34.5 L 138.9 32.6 L 136.4 32.1 L 136.8 30.8 L 139.1 32.0 L 138.8 29.4 L 140.1 29.4 L 139.8 31.9 L 142.1 30.9 L 142.5 32.1 L 140.0 32.6 L 141.8 34.5 L 140.7 35.3 L 139.4 32.9 L 138.1 35.3 L 137.0 34.5 " fill="#191919"/>
<path class="atom-6" d="M 7.5 68.9 L 9.2 68.9 L 9.2 74.3 L 15.8 74.3 L 15.8 68.9 L 17.6 68.9 L 17.6 81.7 L 15.8 81.7 L 15.8 75.8 L 9.2 75.8 L 9.2 81.7 L 7.5 81.7 L 7.5 68.9 " fill="#FF0000"/>
<path class="atom-6" d="M 20.2 75.3 Q 20.2 72.2, 21.7 70.5 Q 23.2 68.7, 26.1 68.7 Q 28.9 68.7, 30.5 70.5 Q 32.0 72.2, 32.0 75.3 Q 32.0 78.4, 30.4 80.2 Q 28.9 81.9, 26.1 81.9 Q 23.3 81.9, 21.7 80.2 Q 20.2 78.4, 20.2 75.3 M 26.1 80.5 Q 28.0 80.5, 29.1 79.2 Q 30.2 77.8, 30.2 75.3 Q 30.2 72.7, 29.1 71.5 Q 28.0 70.2, 26.1 70.2 Q 24.1 70.2, 23.1 71.5 Q 22.0 72.7, 22.0 75.3 Q 22.0 77.9, 23.1 79.2 Q 24.1 80.5, 26.1 80.5 " fill="#FF0000"/>
</svg>