<svg xmlns="http://www.w3.org/2000/svg" xmlns:rdkit="http://www.rdkit.org/xml" xmlns:xlink="http://www.w3.org/1999/xlink" version="1.1" baseProfile="full" xml:space="preserve" width="150px" height="150px" viewBox="0 0 150 150">
<!-- END OF HEADER -->
<rect style="opacity:1.0;fill:#FFFFFF;stroke:none" width="150.0" height="150.0" x="0.0" y="0.0"> </rect>
<ellipse cx="21.7" cy="60.2" rx="14.2" ry="14.2" class="atom-3" style="fill:#9999E5;fill-rule:evenodd;stroke:#9999E5;stroke-width:1.0px;stroke-linecap:butt;stroke-linejoin:miter;stroke-opacity:1"/>
<path class="bond-0 atom-0 atom-1" d="M 136.6,21.7 L 91.2,73.8" style="fill:none;fill-rule:evenodd;stroke:#E5E5E5;stroke-width:3.8px;stroke-linecap:butt;stroke-linejoin:miter;stroke-opacity:1"/>
<path class="bond-1 atom-1 atom-2" d="M 85.2,72.6 L 104.9,130.0" style="fill:none;fill-rule:evenodd;stroke:#E5E5E5;stroke-width:3.8px;stroke-linecap:butt;stroke-linejoin:miter;stroke-opacity:1"/>
<path class="bond-1 atom-1 atom-2" d="M 95.2,69.2 L 114.9,126.6" style="fill:none;fill-rule:evenodd;stroke:#E5E5E5;stroke-width:3.8px;stroke-linecap:butt;stroke-linejoin:miter;stroke-opacity:1"/>
<path class="bond-2 atom-1 atom-3" d="M 91.2,73.8 L 21.7,60.2" style="fill:none;fill-rule:evenodd;stroke:#000000;stroke-width:2.0px;stroke-linecap:butt;stroke-linejoin:miter;stroke-opacity:1"/>
<path d="M 92.3,72.5 L 91.2,73.8 L 89.5,73.5" style="fill:none;stroke:#E5E5E5;stroke-width:3.8px;stroke-linecap:butt;stroke-linejoin:miter;stroke-opacity:1;"/>
<path class="atom-0" d="M 134.0 18.2 L 136.9 15.1 L 133.0 14.4 L 133.6 12.3 L 137.2 14.2 L 136.7 10.2 L 138.8 10.2 L 138.2 14.1 L 141.9 12.4 L 142.5 14.4 L 138.5 15.1 L 141.4 18.1 L 139.6 19.4 L 137.7 15.6 L 135.7 19.4 L 134.0 18.2 " fill="#191919"/>
<path class="atom-2" d="M 110.4 138.6 L 113.4 135.6 L 109.4 134.8 L 110.0 132.8 L 113.6 134.6 L 113.1 130.7 L 115.3 130.6 L 114.7 134.6 L 118.3 132.9 L 118.9 134.8 L 115.0 135.5 L 117.8 138.6 L 116.1 139.8 L 114.1 136.1 L 112.1 139.8 L 110.4 138.6 " fill="#191919"/>
</svg>