<svg xmlns="http://www.w3.org/2000/svg" xmlns:rdkit="http://www.rdkit.org/xml" xmlns:xlink="http://www.w3.org/1999/xlink" version="1.1" baseProfile="full" xml:space="preserve" width="150px" height="150px" viewBox="0 0 150 150">
<!-- END OF HEADER -->
<rect style="opacity:1.0;fill:#FFFFFF;stroke:none" width="150.0" height="150.0" x="0.0" y="0.0"> </rect>
<ellipse cx="35.6" cy="21.7" rx="14.2" ry="14.2" class="atom-3" style="fill:#9999E5;fill-rule:evenodd;stroke:#9999E5;stroke-width:1.0px;stroke-linecap:butt;stroke-linejoin:miter;stroke-opacity:1"/>
<path class="bond-0 atom-0 atom-1" d="M 125.1,97.0 L 61.9,87.8" style="fill:none;fill-rule:evenodd;stroke:#E5E5E5;stroke-width:3.8px;stroke-linecap:butt;stroke-linejoin:miter;stroke-opacity:1"/>
<path class="bond-1 atom-1 atom-2" d="M 59.6,82.0 L 20.7,131.2" style="fill:none;fill-rule:evenodd;stroke:#E5E5E5;stroke-width:3.8px;stroke-linecap:butt;stroke-linejoin:miter;stroke-opacity:1"/>
<path class="bond-1 atom-1 atom-2" d="M 68.0,88.6 L 29.1,137.8" style="fill:none;fill-rule:evenodd;stroke:#E5E5E5;stroke-width:3.8px;stroke-linecap:butt;stroke-linejoin:miter;stroke-opacity:1"/>
<path class="bond-2 atom-1 atom-3" d="M 61.9,87.8 L 35.6,21.7" style="fill:none;fill-rule:evenodd;stroke:#000000;stroke-width:2.0px;stroke-linecap:butt;stroke-linejoin:miter;stroke-opacity:1"/>
<path d="M 63.4,88.0 L 61.9,87.8 L 61.2,86.1" style="fill:none;stroke:#E5E5E5;stroke-width:3.8px;stroke-linecap:butt;stroke-linejoin:miter;stroke-opacity:1;"/>
<path class="atom-0" d="M 128.4 95.8 L 131.4 92.8 L 127.4 92.0 L 128.0 90.0 L 131.6 91.8 L 131.1 87.8 L 133.3 87.8 L 132.7 91.8 L 136.3 90.0 L 137.0 92.0 L 133.0 92.7 L 135.8 95.8 L 134.1 97.0 L 132.1 93.3 L 130.1 97.0 L 128.4 95.8 " fill="#191919"/>
<path class="atom-2" d="M 14.0 141.3 L 17.0 138.3 L 13.0 137.5 L 13.6 135.4 L 17.3 137.3 L 16.7 133.3 L 18.9 133.3 L 18.3 137.2 L 21.9 135.5 L 22.6 137.5 L 18.6 138.2 L 21.4 141.2 L 19.7 142.5 L 17.7 138.7 L 15.7 142.5 L 14.0 141.3 " fill="#191919"/>
</svg>