<svg xmlns="http://www.w3.org/2000/svg" xmlns:rdkit="http://www.rdkit.org/xml" xmlns:xlink="http://www.w3.org/1999/xlink" version="1.1" baseProfile="full" xml:space="preserve" width="150px" height="150px" viewBox="0 0 150 150">
<!-- END OF HEADER -->
<rect style="opacity:1.0;fill:#FFFFFF;stroke:none" width="150.0" height="150.0" x="0.0" y="0.0"> </rect>
<ellipse cx="109.3" cy="75.0" rx="6.6" ry="6.6" class="atom-1" style="fill:#CCCCCC;fill-rule:evenodd;stroke:#CCCCCC;stroke-width:1.0px;stroke-linecap:butt;stroke-linejoin:miter;stroke-opacity:1"/>
<ellipse cx="92.7" cy="103.7" rx="6.6" ry="6.6" class="atom-2" style="fill:#CCCCCC;fill-rule:evenodd;stroke:#CCCCCC;stroke-width:1.0px;stroke-linecap:butt;stroke-linejoin:miter;stroke-opacity:1"/>
<ellipse cx="42.9" cy="75.0" rx="6.6" ry="6.6" class="atom-4" style="fill:#CCCCCC;fill-rule:evenodd;stroke:#CCCCCC;stroke-width:1.0px;stroke-linecap:butt;stroke-linejoin:miter;stroke-opacity:1"/>
<ellipse cx="59.5" cy="46.3" rx="6.6" ry="6.6" class="atom-5" style="fill:#CCCCCC;fill-rule:evenodd;stroke:#CCCCCC;stroke-width:1.0px;stroke-linecap:butt;stroke-linejoin:miter;stroke-opacity:1"/>
<ellipse cx="92.7" cy="46.3" rx="6.6" ry="6.6" class="atom-6" style="fill:#9999E5;fill-rule:evenodd;stroke:#9999E5;stroke-width:1.0px;stroke-linecap:butt;stroke-linejoin:miter;stroke-opacity:1"/>
<path class="bond-0 atom-0 atom-1" d="M 142.5,75.0 L 109.3,75.0" style="fill:none;fill-rule:evenodd;stroke:#000000;stroke-width:2.0px;stroke-linecap:butt;stroke-linejoin:miter;stroke-opacity:1"/>
<path class="bond-1 atom-1 atom-2" d="M 109.3,75.0 L 92.7,103.7" style="fill:none;fill-rule:evenodd;stroke:#000000;stroke-width:2.0px;stroke-linecap:butt;stroke-linejoin:miter;stroke-opacity:1"/>
<path class="bond-1 atom-1 atom-2" d="M 103.6,75.0 L 89.8,98.8" style="fill:none;fill-rule:evenodd;stroke:#000000;stroke-width:2.0px;stroke-linecap:butt;stroke-linejoin:miter;stroke-opacity:1"/>
<path class="bond-2 atom-2 atom-3" d="M 92.7,103.7 L 62.8,103.7" style="fill:none;fill-rule:evenodd;stroke:#E5E5E5;stroke-width:1.8px;stroke-linecap:butt;stroke-linejoin:miter;stroke-opacity:1"/>
<path class="bond-3 atom-3 atom-4" d="M 56.2,98.0 L 42.9,75.0" style="fill:none;fill-rule:evenodd;stroke:#E5E5E5;stroke-width:1.8px;stroke-linecap:butt;stroke-linejoin:miter;stroke-opacity:1"/>
<path class="bond-4 atom-4 atom-5" d="M 42.9,75.0 L 59.5,46.3" style="fill:none;fill-rule:evenodd;stroke:#000000;stroke-width:2.0px;stroke-linecap:butt;stroke-linejoin:miter;stroke-opacity:1"/>
<path class="bond-5 atom-5 atom-6" d="M 59.5,46.3 L 92.7,46.3" style="fill:none;fill-rule:evenodd;stroke:#000000;stroke-width:2.0px;stroke-linecap:butt;stroke-linejoin:miter;stroke-opacity:1"/>
<path class="bond-6 atom-4 atom-7" d="M 42.9,75.0 L 13.0,75.0" style="fill:none;fill-rule:evenodd;stroke:#E5E5E5;stroke-width:1.8px;stroke-linecap:butt;stroke-linejoin:miter;stroke-opacity:1"/>
<path class="bond-7 atom-6 atom-1" d="M 92.7,46.3 L 109.3,75.0" style="fill:none;fill-rule:evenodd;stroke:#000000;stroke-width:2.0px;stroke-linecap:butt;stroke-linejoin:miter;stroke-opacity:1"/>
<path d="M 93.1,103.0 L 92.7,103.7 L 92.0,103.7" style="fill:none;stroke:#000000;stroke-width:2.0px;stroke-linecap:butt;stroke-linejoin:miter;stroke-opacity:1;"/>
<path d="M 58.7,47.7 L 59.5,46.3 L 61.2,46.3" style="fill:none;stroke:#000000;stroke-width:2.0px;stroke-linecap:butt;stroke-linejoin:miter;stroke-opacity:1;"/>
<path d="M 91.0,46.3 L 92.7,46.3 L 93.5,47.7" style="fill:none;stroke:#000000;stroke-width:2.0px;stroke-linecap:butt;stroke-linejoin:miter;stroke-opacity:1;"/>
<path class="atom-3" d="M 57.7 102.7 L 59.1 101.3 L 57.3 100.9 L 57.6 100.0 L 59.3 100.8 L 59.0 99.0 L 60.0 99.0 L 59.7 100.8 L 61.4 100.0 L 61.7 100.9 L 59.9 101.3 L 61.2 102.7 L 60.4 103.3 L 59.5 101.5 L 58.6 103.3 L 57.7 102.7 " fill="#191919"/>
<path class="atom-7" d="M 8.0 74.0 L 9.3 72.5 L 7.5 72.2 L 7.8 71.2 L 9.5 72.1 L 9.2 70.2 L 10.2 70.2 L 9.9 72.1 L 11.7 71.3 L 11.9 72.2 L 10.1 72.5 L 11.4 73.9 L 10.6 74.5 L 9.7 72.8 L 8.8 74.5 L 8.0 74.0 " fill="#191919"/>
</svg>