<svg xmlns="http://www.w3.org/2000/svg" xmlns:rdkit="http://www.rdkit.org/xml" xmlns:xlink="http://www.w3.org/1999/xlink" version="1.1" baseProfile="full" xml:space="preserve" width="150px" height="150px" viewBox="0 0 150 150">
<!-- END OF HEADER -->
<rect style="opacity:1.0;fill:#FFFFFF;stroke:none" width="150.0" height="150.0" x="0.0" y="0.0"> </rect>
<ellipse cx="93.7" cy="99.5" rx="9.1" ry="9.1" class="atom-1" style="fill:#E5E533;fill-rule:evenodd;stroke:#E5E533;stroke-width:1.0px;stroke-linecap:butt;stroke-linejoin:miter;stroke-opacity:1"/>
<ellipse cx="71.3" cy="60.2" rx="9.1" ry="9.1" class="atom-2" style="fill:#9999E5;fill-rule:evenodd;stroke:#9999E5;stroke-width:1.0px;stroke-linecap:butt;stroke-linejoin:miter;stroke-opacity:1"/>
<ellipse cx="94.2" cy="21.1" rx="9.1" ry="9.1" class="atom-3" style="fill:#E5E533;fill-rule:evenodd;stroke:#E5E533;stroke-width:1.0px;stroke-linecap:butt;stroke-linejoin:miter;stroke-opacity:1"/>
<path class="bond-0 atom-0 atom-1" d="M 75.4,130.9 L 93.7,99.5" style="fill:none;fill-rule:evenodd;stroke:#E5E5E5;stroke-width:2.4px;stroke-linecap:butt;stroke-linejoin:miter;stroke-opacity:1"/>
<path class="bond-1 atom-1 atom-2" d="M 93.7,99.5 L 71.3,60.2" style="fill:none;fill-rule:evenodd;stroke:#000000;stroke-width:2.0px;stroke-linecap:butt;stroke-linejoin:miter;stroke-opacity:1"/>
<path class="bond-1 atom-1 atom-2" d="M 85.9,99.5 L 67.4,66.9" style="fill:none;fill-rule:evenodd;stroke:#000000;stroke-width:2.0px;stroke-linecap:butt;stroke-linejoin:miter;stroke-opacity:1;stroke-dasharray:6,4"/>
<path class="bond-2 atom-2 atom-3" d="M 71.3,60.2 L 94.2,21.1" style="fill:none;fill-rule:evenodd;stroke:#000000;stroke-width:2.0px;stroke-linecap:butt;stroke-linejoin:miter;stroke-opacity:1"/>
<path class="bond-2 atom-2 atom-3" d="M 79.2,60.2 L 98.1,27.9" style="fill:none;fill-rule:evenodd;stroke:#000000;stroke-width:2.0px;stroke-linecap:butt;stroke-linejoin:miter;stroke-opacity:1;stroke-dasharray:6,4"/>
<path class="bond-3 atom-3 atom-4" d="M 94.2,21.1 L 135.0,21.3" style="fill:none;fill-rule:evenodd;stroke:#E5E5E5;stroke-width:2.4px;stroke-linecap:butt;stroke-linejoin:miter;stroke-opacity:1"/>
<path class="bond-3 atom-3 atom-4" d="M 98.1,27.9 L 134.9,28.1" style="fill:none;fill-rule:evenodd;stroke:#E5E5E5;stroke-width:2.4px;stroke-linecap:butt;stroke-linejoin:miter;stroke-opacity:1;stroke-dasharray:6,4"/>
<path class="bond-4 atom-2 atom-5" d="M 71.3,60.2 L 52.4,60.1" style="fill:none;fill-rule:evenodd;stroke:#000000;stroke-width:2.0px;stroke-linecap:butt;stroke-linejoin:miter;stroke-opacity:1"/>
<path class="bond-4 atom-2 atom-5" d="M 52.4,60.1 L 33.4,59.9" style="fill:none;fill-rule:evenodd;stroke:#FF0000;stroke-width:2.0px;stroke-linecap:butt;stroke-linejoin:miter;stroke-opacity:1"/>
<path class="bond-5 atom-6 atom-1" d="M 134.5,103.2 L 91.8,102.9" style="fill:none;fill-rule:evenodd;stroke:#E5E5E5;stroke-width:2.4px;stroke-linecap:butt;stroke-linejoin:miter;stroke-opacity:1"/>
<path class="bond-5 atom-6 atom-1" d="M 134.5,96.4 L 91.8,96.1" style="fill:none;fill-rule:evenodd;stroke:#E5E5E5;stroke-width:2.4px;stroke-linecap:butt;stroke-linejoin:miter;stroke-opacity:1;stroke-dasharray:6,4"/>
<path d="M 93.6,22.1 L 94.2,21.1 L 95.2,21.1" style="fill:none;stroke:#000000;stroke-width:2.0px;stroke-linecap:butt;stroke-linejoin:miter;stroke-opacity:1;"/>
<path class="atom-0" d="M 68.4 137.2 L 70.3 135.3 L 67.8 134.7 L 68.2 133.5 L 70.5 134.6 L 70.2 132.1 L 71.5 132.1 L 71.2 134.6 L 73.5 133.5 L 73.9 134.7 L 71.4 135.2 L 73.2 137.2 L 72.1 138.0 L 70.8 135.6 L 69.5 138.0 L 68.4 137.2 " fill="#191919"/>
<path class="atom-4" d="M 137.0 23.3 L 138.9 21.4 L 136.4 20.9 L 136.8 19.6 L 139.1 20.8 L 138.8 18.3 L 140.1 18.3 L 139.8 20.8 L 142.1 19.7 L 142.5 20.9 L 140.0 21.4 L 141.8 23.3 L 140.7 24.1 L 139.4 21.7 L 138.2 24.1 L 137.0 23.3 " fill="#191919"/>
<path class="atom-5" d="M 7.5 53.6 L 9.2 53.6 L 9.2 59.0 L 15.8 59.0 L 15.8 53.6 L 17.5 53.6 L 17.5 66.4 L 15.8 66.4 L 15.8 60.5 L 9.2 60.5 L 9.2 66.4 L 7.5 66.4 L 7.5 53.6 " fill="#FF0000"/>
<path class="atom-5" d="M 20.2 59.9 Q 20.2 56.9, 21.7 55.1 Q 23.2 53.4, 26.1 53.4 Q 28.9 53.4, 30.4 55.1 Q 31.9 56.9, 31.9 59.9 Q 31.9 63.1, 30.4 64.8 Q 28.9 66.6, 26.1 66.6 Q 23.2 66.6, 21.7 64.8 Q 20.2 63.1, 20.2 59.9 M 26.1 65.1 Q 28.0 65.1, 29.1 63.8 Q 30.1 62.5, 30.1 59.9 Q 30.1 57.4, 29.1 56.2 Q 28.0 54.9, 26.1 54.9 Q 24.1 54.9, 23.0 56.1 Q 22.0 57.4, 22.0 59.9 Q 22.0 62.5, 23.0 63.8 Q 24.1 65.1, 26.1 65.1 " fill="#FF0000"/>
<path class="atom-6" d="M 136.6 98.4 L 138.5 96.5 L 136.0 95.9 L 136.4 94.7 L 138.7 95.8 L 138.3 93.3 L 139.7 93.3 L 139.3 95.8 L 141.6 94.7 L 142.0 95.9 L 139.5 96.4 L 141.3 98.4 L 140.2 99.2 L 139.0 96.8 L 137.7 99.2 L 136.6 98.4 " fill="#191919"/>
</svg>