<svg xmlns="http://www.w3.org/2000/svg" xmlns:rdkit="http://www.rdkit.org/xml" xmlns:xlink="http://www.w3.org/1999/xlink" version="1.1" baseProfile="full" xml:space="preserve" width="150px" height="150px" viewBox="0 0 150 150">
<!-- END OF HEADER -->
<rect style="opacity:1.0;fill:#FFFFFF;stroke:none" width="150.0" height="150.0" x="0.0" y="0.0"> </rect>
<ellipse cx="21.1" cy="28.4" rx="13.6" ry="13.6" class="atom-0" style="fill:#9999E5;fill-rule:evenodd;stroke:#9999E5;stroke-width:1.0px;stroke-linecap:butt;stroke-linejoin:miter;stroke-opacity:1"/>
<path class="bond-0 atom-0 atom-1" d="M 21.1,28.4 L 75.7,68.7" style="fill:none;fill-rule:evenodd;stroke:#000000;stroke-width:2.0px;stroke-linecap:butt;stroke-linejoin:miter;stroke-opacity:1"/>
<path class="bond-1 atom-1 atom-2" d="M 75.1,74.5 L 137.1,47.5" style="fill:none;fill-rule:evenodd;stroke:#E5E5E5;stroke-width:3.6px;stroke-linecap:butt;stroke-linejoin:miter;stroke-opacity:1"/>
<path class="bond-1 atom-1 atom-2" d="M 71.0,65.2 L 133.0,38.1" style="fill:none;fill-rule:evenodd;stroke:#E5E5E5;stroke-width:3.6px;stroke-linecap:butt;stroke-linejoin:miter;stroke-opacity:1"/>
<path class="bond-2 atom-1 atom-3" d="M 75.7,68.7 L 69.5,124.2" style="fill:none;fill-rule:evenodd;stroke:#E5E5E5;stroke-width:3.6px;stroke-linecap:butt;stroke-linejoin:miter;stroke-opacity:1"/>
<path d="M 74.4,67.7 L 75.7,68.7 L 75.6,70.1" style="fill:none;stroke:#000000;stroke-width:2.0px;stroke-linecap:butt;stroke-linejoin:miter;stroke-opacity:1;"/>
<path class="atom-2" d="M 134.3 39.4 L 137.1 36.5 L 133.4 35.7 L 134.0 33.8 L 137.4 35.6 L 136.9 31.8 L 139.0 31.8 L 138.4 35.5 L 141.9 33.9 L 142.5 35.7 L 138.7 36.5 L 141.4 39.4 L 139.8 40.6 L 137.9 37.0 L 136.0 40.6 L 134.3 39.4 " fill="#191919"/>
<path class="atom-3" d="M 64.5 134.0 L 67.3 131.1 L 63.6 130.4 L 64.2 128.5 L 67.6 130.2 L 67.1 126.4 L 69.1 126.4 L 68.6 130.2 L 72.1 128.5 L 72.7 130.4 L 68.9 131.1 L 71.6 134.0 L 69.9 135.2 L 68.1 131.6 L 66.2 135.2 L 64.5 134.0 " fill="#191919"/>
</svg>